G75*
G70*
%OFA0B0*%
%FSLAX24Y24*%
%IPPOS*%
%LPD*%
%AMOC8*
5,1,8,0,0,1.08239X$1,22.5*
%
%ADD10R,0.0512X0.0630*%
%ADD11R,0.0315X0.0354*%
%ADD12R,0.0630X0.0512*%
%ADD13R,0.0590X0.0790*%
%ADD14R,0.1500X0.0790*%
%ADD15R,0.0260X0.0800*%
%ADD16R,0.0472X0.0472*%
%ADD17R,0.0472X0.0236*%
%ADD18R,0.0709X0.0551*%
%ADD19R,0.0700X0.0360*%
%ADD20R,0.1181X0.2362*%
%ADD21R,0.0315X0.0709*%
%ADD22R,0.0551X0.0787*%
%ADD23R,0.0551X0.0866*%
%ADD24R,0.0709X0.0630*%
D10*
X029431Y017913D03*
X030179Y017913D03*
X031306Y018413D03*
X032054Y018413D03*
X030179Y019163D03*
X029431Y019163D03*
X029411Y020663D03*
X030199Y020663D03*
X031306Y021413D03*
X032054Y021413D03*
X030324Y023413D03*
X029536Y023413D03*
X034306Y023663D03*
X035054Y023663D03*
X043036Y022288D03*
X043824Y022288D03*
X043824Y027413D03*
X043036Y027413D03*
X032804Y029413D03*
X032056Y029413D03*
X020929Y029538D03*
X020181Y029538D03*
X020056Y026163D03*
X020804Y026163D03*
X049556Y012413D03*
X050304Y012413D03*
X050304Y011163D03*
X049556Y011163D03*
X049556Y009913D03*
X050304Y009913D03*
D11*
X022554Y025394D03*
X021806Y025394D03*
X022180Y026221D03*
D12*
X021180Y027164D03*
X021180Y027912D03*
X036180Y024307D03*
X036180Y023519D03*
X037180Y023519D03*
X037180Y024307D03*
X041930Y023037D03*
X041930Y022289D03*
X050180Y016912D03*
X050180Y016164D03*
D13*
X037090Y025423D03*
X036190Y025423D03*
X035290Y025423D03*
D14*
X036180Y027903D03*
D15*
X033930Y027123D03*
X033430Y027123D03*
X032930Y027123D03*
X032430Y027123D03*
X031930Y027123D03*
X031430Y027123D03*
X030930Y027123D03*
X030430Y027123D03*
X030430Y024703D03*
X030930Y024703D03*
X031430Y024703D03*
X031930Y024703D03*
X032430Y024703D03*
X032930Y024703D03*
X033430Y024703D03*
X033930Y024703D03*
D16*
X031093Y029413D03*
X030267Y029413D03*
X020968Y030788D03*
X020142Y030788D03*
D17*
X031166Y020287D03*
X031166Y019913D03*
X031166Y019539D03*
X032194Y019539D03*
X032194Y020287D03*
D18*
X043930Y018707D03*
X043930Y017369D03*
D19*
X043780Y019913D03*
X043780Y020413D03*
X043780Y020913D03*
X043780Y021413D03*
X041580Y021413D03*
X041580Y020913D03*
X041580Y020413D03*
X041580Y019913D03*
X041580Y024163D03*
X041580Y024663D03*
X041580Y025163D03*
X041580Y025663D03*
X043780Y025663D03*
X043780Y025163D03*
X043780Y024663D03*
X043780Y024163D03*
X043780Y028413D03*
X043780Y028913D03*
X043780Y029413D03*
X043780Y029913D03*
X041580Y029913D03*
X041580Y029413D03*
X041580Y028913D03*
X041580Y028413D03*
D20*
X038542Y019913D03*
X033818Y019913D03*
D21*
X028129Y027163D03*
X027696Y027163D03*
X027263Y027163D03*
X026830Y027163D03*
X026397Y027163D03*
X025963Y027163D03*
X025530Y027163D03*
X025097Y027163D03*
X024664Y027163D03*
D22*
X028700Y027399D03*
D23*
X028759Y031277D03*
X022341Y031277D03*
D24*
X022834Y027360D03*
M02*
