%
M48
M72
T01C0.0197
T02C0.0236
T03C0.0315
T04C0.0320
T05C0.0354
T06C0.0360
T07C0.0394
T08C0.0400
T09C0.0700
T10C0.0787
T11C0.1181
%
T01
X40680Y21913
X41180Y23663
X37180Y24413
X41180Y26288
X35180Y29163
X35180Y29663
X32430Y28663
X31680Y28663
X20930Y25413
X43180Y15663
X43180Y14413
X51180Y11913
T02
X43680Y9663
X30680Y20163
X26680Y20163
X27680Y23413
X26180Y24663
X25430Y24663
X25430Y23913
X23180Y24163
X24930Y27913
X23805Y28538
X22930Y28413
X24930Y28913
X27930Y27913
X29680Y27913
X30930Y27913
X32930Y27913
X33430Y26288
X34680Y24663
X33430Y23413
X32430Y23663
X31430Y23663
X37930Y24913
X42430Y23538
X42930Y26663
T03
X27597Y31336
X24448Y31336
T04
X3930Y25163
X2930Y26153
X2930Y24173
T05
X2430Y20663
X3430Y20663
X4430Y20663
X5430Y20663
X6430Y20663
X7430Y20663
X8430Y20663
X9430Y20663
X10430Y20663
X11430Y20663
X12430Y20663
X13430Y20663
X14430Y20663
X15430Y20663
X16430Y20663
X17430Y20663
X17430Y19663
X16430Y19663
X15430Y19663
X14430Y19663
X13430Y19663
X12430Y19663
X11430Y19663
X10430Y19663
X9430Y19663
X8430Y19663
X7430Y19663
X6430Y19663
X5430Y19663
X4430Y19663
X3430Y19663
X2430Y19663
X2430Y18663
X3430Y18663
X4430Y18663
X5430Y18663
X6430Y18663
X7430Y18663
X8430Y18663
X9430Y18663
X10430Y18663
X11430Y18663
X12430Y18663
X13430Y18663
X14430Y18663
X15430Y18663
X16430Y18663
X17430Y18663
X17430Y17663
X16430Y17663
X15430Y17663
X14430Y17663
X13430Y17663
X12430Y17663
X11430Y17663
X10430Y17663
X9430Y17663
X8430Y17663
X7430Y17663
X6430Y17663
X5430Y17663
X4430Y17663
X3430Y17663
X2430Y17663
X2430Y16663
X3430Y16663
X4430Y16663
X5430Y16663
X6430Y16663
X7430Y16663
X8430Y16663
X9430Y16663
X10430Y16663
X11430Y16663
X12430Y16663
X13430Y16663
X14430Y16663
X15430Y16663
X16430Y16663
X17430Y16663
X17430Y15663
X16430Y15663
X15430Y15663
X14430Y15663
X13430Y15663
X12430Y15663
X11430Y15663
X10430Y15663
X9430Y15663
X8430Y15663
X7430Y15663
X6430Y15663
X5430Y15663
X4430Y15663
X3430Y15663
X2430Y15663
X2430Y14663
X3430Y14663
X4430Y14663
X5430Y14663
X6430Y14663
X7430Y14663
X8430Y14663
X9430Y14663
X10430Y14663
X11430Y14663
X12430Y14663
X13430Y14663
X14430Y14663
X15430Y14663
X16430Y14663
X17430Y14663
X17430Y13663
X16430Y13663
X15430Y13663
X14430Y13663
X13430Y13663
X12430Y13663
X11430Y13663
X10430Y13663
X9430Y13663
X8430Y13663
X7430Y13663
X6430Y13663
X5430Y13663
X4430Y13663
X3430Y13663
X2430Y13663
X2430Y12663
X3430Y12663
X4430Y12663
X5430Y12663
X6430Y12663
X7430Y12663
X8430Y12663
X9430Y12663
X10430Y12663
X11430Y12663
X12430Y12663
X13430Y12663
X14430Y12663
X15430Y12663
X16430Y12663
X17430Y12663
X17430Y11663
X16430Y11663
X15430Y11663
X14430Y11663
X13430Y11663
X12430Y11663
X11430Y11663
X10430Y11663
X9430Y11663
X8430Y11663
X7430Y11663
X6430Y11663
X5430Y11663
X4430Y11663
X3430Y11663
X2430Y11663
X2430Y10663
X3430Y10663
X4430Y10663
X5430Y10663
X6430Y10663
X7430Y10663
X8430Y10663
X9430Y10663
X10430Y10663
X11430Y10663
X12430Y10663
X13430Y10663
X14430Y10663
X15430Y10663
X16430Y10663
X17430Y10663
X17430Y9663
X16430Y9663
X15430Y9663
X14430Y9663
X13430Y9663
X12430Y9663
X11430Y9663
X10430Y9663
X9430Y9663
X8430Y9663
X7430Y9663
X6430Y9663
X5430Y9663
X4430Y9663
X3430Y9663
X2430Y9663
T06
X52930Y9413
X53930Y9413
X53930Y10413
X52930Y10413
X52930Y11413
X53930Y11413
X53930Y12413
X52930Y12413
X52930Y13413
X53930Y13413
X53930Y14413
X52930Y14413
X52930Y15413
X53930Y15413
X53930Y8413
X52930Y8413
X52930Y7413
X53930Y7413
X53930Y6413
X52930Y6413
T07
X47164Y9710
X46180Y9710
X45196Y9710
X45196Y15419
X47164Y15419
T08
X38430Y17663
X35430Y17663
X20178Y27916
X19178Y27916
X18178Y27916
X17178Y27916
X16178Y27916
X15178Y27916
X14178Y27916
X13178Y27916
X12178Y27916
X11178Y27916
X10178Y27916
X9178Y27916
X8178Y27916
X7178Y27916
X6178Y27916
X5178Y27916
T09
X45680Y28913
X48180Y28913
X53180Y29533
X53180Y26833
X53180Y25283
X53180Y22583
X53180Y21033
X53180Y18333
X48180Y20413
X45680Y20413
X45680Y24663
X48180Y24663
T10
X48680Y12663
X43680Y12663
T11
X2230Y6258
X38845Y6258
X38840Y27913
X2230Y27913
M30
