%
M48
M72
T01C0.0197
T02C0.0315
T03C0.0320
T04C0.0354
T05C0.0360
T06C0.0394
T07C0.0400
T08C0.0700
T09C0.1181
%
T01
X29430Y16913
X32680Y20663
X35430Y21663
X36430Y20663
X37430Y21663
X33430Y23663
X32430Y23663
X31430Y23663
X29680Y24663
X31430Y25663
X29680Y26663
X29680Y27663
X29680Y28663
X30930Y28163
X31930Y28163
X32930Y28163
X34430Y29663
X35680Y30163
X35680Y29163
X40180Y29163
X36180Y26413
X34680Y24413
X40680Y24663
X42930Y25538
X51180Y17413
X48430Y16663
X50680Y15413
X50180Y14913
X51430Y14913
X50304Y13287
X49556Y13287
X47930Y13913
X45680Y11413
X45680Y10663
X42930Y10163
X48680Y9913
X21805Y24663
X27119Y28602
T02
X27597Y31336
X24448Y31336
T03
X3930Y25163
X2930Y26153
X2930Y24173
T04
X2430Y22663
X3430Y22663
X4430Y22663
X5430Y22663
X6430Y22663
X7430Y22663
X8430Y22663
X9430Y22663
X10430Y22663
X11430Y22663
X12430Y22663
X13430Y22663
X14430Y22663
X15430Y22663
X16430Y22663
X16430Y21663
X15430Y21663
X14430Y21663
X13430Y21663
X12430Y21663
X11430Y21663
X10430Y21663
X9430Y21663
X8430Y21663
X7430Y21663
X6430Y21663
X5430Y21663
X4430Y21663
X3430Y21663
X2430Y21663
X2430Y20663
X3430Y20663
X4430Y20663
X5430Y20663
X6430Y20663
X7430Y20663
X8430Y20663
X9430Y20663
X10430Y20663
X11430Y20663
X12430Y20663
X13430Y20663
X14430Y20663
X15430Y20663
X16430Y20663
X16430Y19663
X17430Y19663
X18430Y19663
X19430Y19663
X20430Y19663
X21430Y19663
X22430Y19663
X23430Y19663
X24430Y19663
X24430Y18663
X23430Y18663
X22430Y18663
X21430Y18663
X20430Y18663
X19430Y18663
X18430Y18663
X17430Y18663
X16430Y18663
X15430Y18663
X14430Y18663
X13430Y18663
X12430Y18663
X11430Y18663
X10430Y18663
X9430Y18663
X8430Y18663
X7430Y18663
X6430Y18663
X5430Y18663
X4430Y18663
X3430Y18663
X2430Y18663
X2430Y19663
X3430Y19663
X4430Y19663
X5430Y19663
X6430Y19663
X7430Y19663
X8430Y19663
X9430Y19663
X10430Y19663
X11430Y19663
X12430Y19663
X13430Y19663
X14430Y19663
X15430Y19663
X15430Y17663
X14430Y17663
X13430Y17663
X12430Y17663
X11430Y17663
X10430Y17663
X9430Y17663
X8430Y17663
X7430Y17663
X6430Y17663
X5430Y17663
X4430Y17663
X3430Y17663
X2430Y17663
X2430Y16663
X3430Y16663
X4430Y16663
X5430Y16663
X6430Y16663
X7430Y16663
X8430Y16663
X9430Y16663
X10430Y16663
X11430Y16663
X12430Y16663
X13430Y16663
X14430Y16663
X15430Y16663
X16430Y16663
X17430Y16663
X18430Y16663
X19430Y16663
X20430Y16663
X21430Y16663
X22430Y16663
X23430Y16663
X24430Y16663
X24430Y17663
X23430Y17663
X22430Y17663
X21430Y17663
X20430Y17663
X19430Y17663
X18430Y17663
X17430Y17663
X16430Y17663
X16430Y15663
X17430Y15663
X18430Y15663
X19430Y15663
X20430Y15663
X21430Y15663
X22430Y15663
X23430Y15663
X24430Y15663
X24430Y14663
X23430Y14663
X22430Y14663
X21430Y14663
X20430Y14663
X19430Y14663
X18430Y14663
X17430Y14663
X16430Y14663
X15430Y14663
X14430Y14663
X13430Y14663
X12430Y14663
X11430Y14663
X10430Y14663
X9430Y14663
X8430Y14663
X7430Y14663
X6430Y14663
X5430Y14663
X4430Y14663
X3430Y14663
X2430Y14663
X2430Y15663
X3430Y15663
X4430Y15663
X5430Y15663
X6430Y15663
X7430Y15663
X8430Y15663
X9430Y15663
X10430Y15663
X11430Y15663
X12430Y15663
X13430Y15663
X14430Y15663
X15430Y15663
X15430Y13663
X14430Y13663
X13430Y13663
X12430Y13663
X11430Y13663
X10430Y13663
X9430Y13663
X8430Y13663
X7430Y13663
X6430Y13663
X5430Y13663
X4430Y13663
X3430Y13663
X2430Y13663
X2430Y12663
X3430Y12663
X4430Y12663
X5430Y12663
X6430Y12663
X7430Y12663
X8430Y12663
X9430Y12663
X10430Y12663
X11430Y12663
X12430Y12663
X13430Y12663
X14430Y12663
X15430Y12663
X16430Y12663
X17430Y12663
X18430Y12663
X19430Y12663
X20430Y12663
X21430Y12663
X22430Y12663
X23430Y12663
X24430Y12663
X25430Y12663
X26430Y12663
X27430Y12663
X28430Y12663
X29430Y12663
X30430Y12663
X31430Y12663
X32430Y12663
X33430Y12663
X34430Y12663
X35430Y12663
X35430Y11663
X34430Y11663
X33430Y11663
X32430Y11663
X31430Y11663
X30430Y11663
X29430Y11663
X28430Y11663
X27430Y11663
X26430Y11663
X25430Y11663
X24430Y11663
X23430Y11663
X22430Y11663
X21430Y11663
X20430Y11663
X19430Y11663
X18430Y11663
X17430Y11663
X16430Y11663
X15430Y11663
X14430Y11663
X13430Y11663
X12430Y11663
X11430Y11663
X10430Y11663
X9430Y11663
X8430Y11663
X7430Y11663
X6430Y11663
X5430Y11663
X4430Y11663
X3430Y11663
X2430Y11663
X2430Y10663
X3430Y10663
X4430Y10663
X5430Y10663
X6430Y10663
X7430Y10663
X8430Y10663
X9430Y10663
X10430Y10663
X11430Y10663
X12430Y10663
X13430Y10663
X14430Y10663
X15430Y10663
X16430Y10663
X17430Y10663
X18430Y10663
X19430Y10663
X20430Y10663
X21430Y10663
X22430Y10663
X23430Y10663
X24430Y10663
X25430Y10663
X26430Y10663
X27430Y10663
X28430Y10663
X29430Y10663
X30430Y10663
X31430Y10663
X32430Y10663
X33430Y10663
X34430Y10663
X35430Y10663
X35430Y9663
X34430Y9663
X33430Y9663
X32430Y9663
X31430Y9663
X30430Y9663
X29430Y9663
X28430Y9663
X27430Y9663
X26430Y9663
X25430Y9663
X24430Y9663
X23430Y9663
X22430Y9663
X21430Y9663
X20430Y9663
X19430Y9663
X18430Y9663
X17430Y9663
X16430Y9663
X15430Y9663
X14430Y9663
X13430Y9663
X12430Y9663
X11430Y9663
X10430Y9663
X9430Y9663
X8430Y9663
X7430Y9663
X6430Y9663
X5430Y9663
X4430Y9663
X3430Y9663
X2430Y9663
X2430Y8663
X3430Y8663
X4430Y8663
X5430Y8663
X6430Y8663
X7430Y8663
X8430Y8663
X9430Y8663
X10430Y8663
X11430Y8663
X12430Y8663
X13430Y8663
X14430Y8663
X15430Y8663
X16430Y8663
X17430Y8663
X18430Y8663
X19430Y8663
X20430Y8663
X21430Y8663
X22430Y8663
X23430Y8663
X24430Y8663
X25430Y8663
X26430Y8663
X27430Y8663
X28430Y8663
X29430Y8663
X30430Y8663
X31430Y8663
X32430Y8663
X33430Y8663
X34430Y8663
X35430Y8663
X24430Y13663
X23430Y13663
X22430Y13663
X21430Y13663
X20430Y13663
X19430Y13663
X18430Y13663
X17430Y13663
X16430Y13663
T05
X52930Y13413
X53930Y13413
X53930Y14413
X52930Y14413
X52930Y15413
X53930Y15413
X53930Y12413
X52930Y12413
X52930Y11413
X53930Y11413
X53930Y10413
X52930Y10413
X52930Y9413
X53930Y9413
X53930Y8413
X52930Y8413
X52930Y7413
X53930Y7413
X53930Y6413
X52930Y6413
T06
X47164Y9710
X46180Y9710
X45196Y9710
X45196Y15419
X47164Y15419
T07
X20178Y27916
X19178Y27916
X18178Y27916
X17178Y27916
X16178Y27916
X15178Y27916
X14178Y27916
X13178Y27916
X12178Y27916
X11178Y27916
X10178Y27916
X9178Y27916
X8178Y27916
X7178Y27916
X6178Y27916
X5178Y27916
T08
X45680Y28913
X48180Y28913
X53180Y29533
X53180Y26833
X53180Y25283
X53180Y22583
X53180Y21033
X53180Y18333
X48180Y20413
X45680Y20413
X45680Y24663
X48180Y24663
T09
X2230Y6258
X38845Y6258
X38840Y27913
X2230Y27913
M30
