G75*
G70*
%OFA0B0*%
%FSLAX24Y24*%
%IPPOS*%
%LPD*%
%AMOC8*
5,1,8,0,0,1.08239X$1,22.5*
%
%ADD10C,0.0080*%
%ADD11C,0.0050*%
%ADD12C,0.0060*%
%ADD13C,0.2000*%
%ADD14C,0.0070*%
%ADD15C,0.0059*%
%ADD16C,0.0150*%
%ADD17R,0.0079X0.0079*%
%ADD18R,0.0620X0.0240*%
D10*
X001180Y005163D02*
X002010Y005163D01*
X002279Y005163D02*
X002331Y005163D01*
X002600Y005163D02*
X003430Y005163D01*
X001180Y005163D02*
X001180Y006195D01*
X001180Y006465D02*
X001180Y006516D01*
X001180Y006786D02*
X001180Y007818D01*
X001180Y008088D02*
X001180Y008139D01*
X001180Y008408D02*
X001180Y009441D01*
X001180Y009710D02*
X001180Y009761D01*
X001180Y010031D02*
X001180Y011063D01*
X001180Y011333D02*
X001180Y011384D01*
X001180Y011654D02*
X001180Y012686D01*
X001180Y012956D02*
X001180Y013007D01*
X001180Y013277D02*
X001180Y014309D01*
X001180Y014578D02*
X001180Y014629D01*
X001180Y014899D02*
X001180Y015931D01*
X001180Y016201D02*
X001180Y016252D01*
X001180Y016522D02*
X001180Y017554D01*
X001180Y017824D02*
X001180Y017875D01*
X001180Y018145D02*
X001180Y019177D01*
X001180Y019447D02*
X001180Y019498D01*
X001180Y019767D02*
X001180Y020799D01*
X001180Y021069D02*
X001180Y021120D01*
X001180Y021390D02*
X001180Y022422D01*
X001180Y022692D02*
X001180Y022743D01*
X001180Y023013D02*
X001180Y024045D01*
X001180Y024315D02*
X001180Y024366D01*
X001180Y024635D02*
X001180Y025668D01*
X001180Y025937D02*
X001180Y025988D01*
X001180Y026258D02*
X001180Y027290D01*
X001180Y027560D02*
X001180Y027611D01*
X001180Y027881D02*
X001180Y028913D01*
X002510Y028913D01*
X002779Y028913D02*
X002831Y028913D01*
X003100Y028913D02*
X004430Y028913D01*
X010805Y028913D02*
X012385Y028913D01*
X012654Y028913D02*
X012706Y028913D01*
X012975Y028913D02*
X014555Y028913D01*
X021629Y026064D02*
X021629Y025749D01*
X021629Y026064D02*
X021865Y026064D01*
X022495Y026064D02*
X022731Y026064D01*
X022731Y025749D01*
X035680Y028913D02*
X037385Y028913D01*
X037654Y028913D02*
X037706Y028913D01*
X037975Y028913D02*
X039680Y028913D01*
X039680Y027881D01*
X039680Y027611D02*
X039680Y027560D01*
X039680Y027290D02*
X039680Y026258D01*
X039680Y025988D02*
X039680Y025937D01*
X039680Y025668D02*
X039680Y024635D01*
X039680Y024366D02*
X039680Y024315D01*
X039680Y024045D02*
X039680Y023013D01*
X039680Y022743D02*
X039680Y022692D01*
X039680Y022422D02*
X039680Y021390D01*
X039680Y021120D02*
X039680Y021069D01*
X039680Y020799D02*
X039680Y019767D01*
X039680Y019498D02*
X039680Y019447D01*
X039680Y019177D02*
X039680Y018145D01*
X039680Y017875D02*
X039680Y017824D01*
X039680Y017554D02*
X039680Y016522D01*
X039680Y016252D02*
X039680Y016201D01*
X039680Y015931D02*
X039680Y014899D01*
X039680Y014629D02*
X039680Y014578D01*
X039680Y014309D02*
X039680Y013277D01*
X039680Y013007D02*
X039680Y012956D01*
X039680Y012686D02*
X039680Y011654D01*
X039680Y011384D02*
X039680Y011333D01*
X039680Y011063D02*
X039680Y010031D01*
X039680Y009761D02*
X039680Y009710D01*
X039680Y009441D02*
X039680Y008408D01*
X039680Y008139D02*
X039680Y008088D01*
X039680Y007818D02*
X039680Y006786D01*
X039680Y006516D02*
X039680Y006465D01*
X039680Y006195D02*
X039680Y005163D01*
X038452Y005163D01*
X038183Y005163D02*
X038132Y005163D01*
X037862Y005163D02*
X036634Y005163D01*
X036365Y005163D02*
X036314Y005163D01*
X036044Y005163D02*
X034816Y005163D01*
X034546Y005163D02*
X034495Y005163D01*
X034226Y005163D02*
X032998Y005163D01*
X032728Y005163D02*
X032677Y005163D01*
X032408Y005163D02*
X031180Y005163D01*
X028031Y007593D02*
X028031Y007733D01*
X027891Y007873D01*
X027710Y007803D02*
X027710Y007733D01*
X027640Y007663D01*
X027710Y007593D01*
X027710Y007523D01*
X027640Y007453D01*
X027500Y007453D01*
X027430Y007523D01*
X027270Y007523D02*
X027270Y007453D01*
X027200Y007453D01*
X027200Y007523D01*
X027270Y007523D01*
X027020Y007453D02*
X026740Y007453D01*
X026880Y007453D02*
X026880Y007873D01*
X026740Y007733D01*
X026559Y007733D02*
X026419Y007453D01*
X026279Y007733D01*
X026112Y007873D02*
X025972Y007733D01*
X025972Y007593D01*
X026112Y007453D01*
X025332Y007663D02*
X025052Y007663D01*
X025262Y007873D01*
X025262Y007453D01*
X024891Y007453D02*
X024821Y007453D01*
X024821Y007523D01*
X024891Y007523D01*
X024891Y007453D01*
X024641Y007453D02*
X024361Y007453D01*
X024501Y007453D02*
X024501Y007873D01*
X024361Y007733D01*
X024181Y007803D02*
X024111Y007873D01*
X023971Y007873D01*
X023901Y007803D01*
X023901Y007733D01*
X023971Y007663D01*
X024111Y007663D01*
X024181Y007593D01*
X024181Y007523D01*
X024111Y007453D01*
X023971Y007453D01*
X023901Y007523D01*
X023720Y007663D02*
X023650Y007593D01*
X023440Y007593D01*
X023440Y007453D02*
X023440Y007873D01*
X023650Y007873D01*
X023720Y007803D01*
X023720Y007663D01*
X023260Y007873D02*
X023260Y007453D01*
X022980Y007453D02*
X022980Y007873D01*
X023120Y007733D01*
X023260Y007873D01*
X022800Y007733D02*
X022800Y007453D01*
X022800Y007663D02*
X022519Y007663D01*
X022519Y007733D02*
X022659Y007873D01*
X022800Y007733D01*
X022519Y007733D02*
X022519Y007453D01*
X022339Y007453D02*
X022199Y007593D01*
X022269Y007593D02*
X022059Y007593D01*
X022059Y007453D02*
X022059Y007873D01*
X022269Y007873D01*
X022339Y007803D01*
X022339Y007663D01*
X022269Y007593D01*
X021425Y007733D02*
X021355Y007733D01*
X021215Y007593D01*
X021215Y007453D02*
X021215Y007733D01*
X021035Y007663D02*
X021035Y007523D01*
X020965Y007453D01*
X020825Y007453D01*
X020755Y007523D01*
X020755Y007663D01*
X020825Y007733D01*
X020965Y007733D01*
X021035Y007663D01*
X020588Y007663D02*
X020448Y007663D01*
X020518Y007803D02*
X020588Y007873D01*
X020518Y007803D02*
X020518Y007453D01*
X019807Y007453D02*
X019807Y007663D01*
X019737Y007733D01*
X019527Y007733D01*
X019527Y007453D01*
X019347Y007523D02*
X019347Y007663D01*
X019277Y007733D01*
X019136Y007733D01*
X019066Y007663D01*
X019066Y007523D01*
X019136Y007453D01*
X019277Y007453D01*
X019347Y007523D01*
X018900Y007453D02*
X018759Y007453D01*
X018830Y007453D02*
X018830Y007733D01*
X018759Y007733D01*
X018830Y007873D02*
X018830Y007943D01*
X018579Y007733D02*
X018369Y007733D01*
X018299Y007663D01*
X018369Y007593D01*
X018509Y007593D01*
X018579Y007523D01*
X018509Y007453D01*
X018299Y007453D01*
X018119Y007453D02*
X018119Y007663D01*
X018049Y007733D01*
X017839Y007733D01*
X017839Y007453D01*
X017659Y007453D02*
X017448Y007453D01*
X017378Y007523D01*
X017448Y007593D01*
X017659Y007593D01*
X017659Y007663D02*
X017659Y007453D01*
X017659Y007663D02*
X017588Y007733D01*
X017448Y007733D01*
X017198Y007663D02*
X017198Y007523D01*
X017128Y007453D01*
X016918Y007453D01*
X016918Y007313D02*
X016918Y007733D01*
X017128Y007733D01*
X017198Y007663D01*
X016738Y007733D02*
X016458Y007453D01*
X016277Y007593D02*
X016277Y007663D01*
X016207Y007733D01*
X016067Y007733D01*
X015997Y007663D01*
X015997Y007523D01*
X016067Y007453D01*
X016207Y007453D01*
X016277Y007593D02*
X015997Y007593D01*
X016458Y007733D02*
X016738Y007453D01*
X015357Y007453D02*
X015146Y007453D01*
X015076Y007523D01*
X015076Y007663D01*
X015146Y007733D01*
X015357Y007733D01*
X015357Y007873D02*
X015357Y007453D01*
X014903Y007733D02*
X014833Y007733D01*
X014693Y007593D01*
X014693Y007453D02*
X014693Y007733D01*
X014513Y007663D02*
X014513Y007453D01*
X014302Y007453D01*
X014232Y007523D01*
X014302Y007593D01*
X014513Y007593D01*
X014513Y007663D02*
X014442Y007733D01*
X014302Y007733D01*
X014052Y007803D02*
X013982Y007873D01*
X013842Y007873D01*
X013772Y007803D01*
X013772Y007523D01*
X013842Y007453D01*
X013982Y007453D01*
X014052Y007523D01*
X013592Y007523D02*
X013592Y007803D01*
X013522Y007873D01*
X013312Y007873D01*
X013312Y007453D01*
X013522Y007453D01*
X013592Y007523D01*
X013131Y007523D02*
X013061Y007453D01*
X012921Y007453D01*
X012851Y007523D01*
X012921Y007663D02*
X013061Y007663D01*
X013131Y007593D01*
X013131Y007523D01*
X012921Y007663D02*
X012851Y007733D01*
X012851Y007803D01*
X012921Y007873D01*
X013061Y007873D01*
X013131Y007803D01*
X012671Y007873D02*
X012391Y007453D01*
X012211Y007593D02*
X011930Y007593D01*
X011930Y007523D02*
X011930Y007663D01*
X012000Y007733D01*
X012141Y007733D01*
X012211Y007663D01*
X012211Y007593D01*
X012141Y007453D02*
X012000Y007453D01*
X011930Y007523D01*
X011764Y007453D02*
X011623Y007453D01*
X011693Y007453D02*
X011693Y007873D01*
X011623Y007873D01*
X011443Y007663D02*
X011443Y007523D01*
X011373Y007453D01*
X011163Y007453D01*
X011163Y007313D02*
X011163Y007733D01*
X011373Y007733D01*
X011443Y007663D01*
X010983Y007733D02*
X010983Y007453D01*
X010773Y007453D01*
X010703Y007523D01*
X010703Y007733D01*
X010522Y007663D02*
X010452Y007733D01*
X010312Y007733D01*
X010242Y007663D01*
X010242Y007523D01*
X010312Y007453D01*
X010452Y007453D01*
X010522Y007523D01*
X010522Y007663D01*
X010062Y007733D02*
X009852Y007733D01*
X009782Y007663D01*
X009782Y007523D01*
X009852Y007453D01*
X010062Y007453D01*
X009602Y007523D02*
X009602Y007663D01*
X009532Y007733D01*
X009391Y007733D01*
X009321Y007663D01*
X009321Y007523D01*
X009391Y007453D01*
X009532Y007453D01*
X009602Y007523D01*
X009141Y007453D02*
X009141Y007663D01*
X009071Y007733D01*
X009001Y007663D01*
X009001Y007453D01*
X008861Y007453D02*
X008861Y007733D01*
X008931Y007733D01*
X009001Y007663D01*
X008688Y007733D02*
X008618Y007733D01*
X008477Y007593D01*
X008477Y007453D02*
X008477Y007733D01*
X008297Y007663D02*
X008297Y007593D01*
X008017Y007593D01*
X008017Y007523D02*
X008017Y007663D01*
X008087Y007733D01*
X008227Y007733D01*
X008297Y007663D01*
X008227Y007453D02*
X008087Y007453D01*
X008017Y007523D01*
X007837Y007453D02*
X007837Y007663D01*
X007767Y007733D01*
X007627Y007733D01*
X007557Y007663D01*
X007557Y007873D02*
X007557Y007453D01*
X007236Y007453D02*
X007236Y007873D01*
X007096Y007873D02*
X007376Y007873D01*
X006916Y007873D02*
X006636Y007453D01*
X006456Y007453D02*
X006245Y007453D01*
X006175Y007523D01*
X006175Y007733D01*
X005995Y007663D02*
X005995Y007453D01*
X005785Y007453D01*
X005715Y007523D01*
X005785Y007593D01*
X005995Y007593D01*
X005995Y007663D02*
X005925Y007733D01*
X005785Y007733D01*
X005478Y007873D02*
X005478Y007453D01*
X005408Y007453D02*
X005548Y007453D01*
X005228Y007523D02*
X005228Y007663D01*
X005158Y007733D01*
X004948Y007733D01*
X004948Y007313D01*
X004948Y007453D02*
X005158Y007453D01*
X005228Y007523D01*
X005408Y007873D02*
X005478Y007873D01*
X006456Y007733D02*
X006456Y007383D01*
X006386Y007313D01*
X006316Y007313D01*
X004768Y007523D02*
X004698Y007593D01*
X004557Y007593D01*
X004487Y007663D01*
X004557Y007733D01*
X004768Y007733D01*
X004768Y007523D02*
X004698Y007453D01*
X004487Y007453D01*
X004321Y007453D02*
X004180Y007453D01*
X004250Y007453D02*
X004250Y007733D01*
X004180Y007733D01*
X004250Y007873D02*
X004250Y007943D01*
X004000Y007803D02*
X003930Y007873D01*
X003720Y007873D01*
X003720Y007453D01*
X003930Y007453D01*
X004000Y007523D01*
X004000Y007803D01*
X027430Y007803D02*
X027500Y007873D01*
X027640Y007873D01*
X027710Y007803D01*
X027640Y007663D02*
X027570Y007663D01*
X027891Y007453D02*
X028031Y007593D01*
X043916Y010143D02*
X043916Y011748D01*
X045747Y012909D02*
X046613Y012909D01*
X044412Y012663D02*
X044414Y012750D01*
X044421Y012836D01*
X044431Y012922D01*
X044446Y013008D01*
X044465Y013093D01*
X044488Y013176D01*
X044515Y013259D01*
X044547Y013340D01*
X044582Y013419D01*
X044621Y013496D01*
X044664Y013572D01*
X044710Y013645D01*
X044760Y013716D01*
X044813Y013785D01*
X044870Y013850D01*
X044930Y013913D01*
X044993Y013973D01*
X045058Y014030D01*
X045127Y014083D01*
X045198Y014133D01*
X045271Y014179D01*
X045347Y014222D01*
X045424Y014261D01*
X045503Y014296D01*
X045584Y014328D01*
X045667Y014355D01*
X045750Y014378D01*
X045835Y014397D01*
X045921Y014412D01*
X046007Y014422D01*
X046093Y014429D01*
X046180Y014431D01*
X046267Y014429D01*
X046353Y014422D01*
X046439Y014412D01*
X046525Y014397D01*
X046610Y014378D01*
X046693Y014355D01*
X046776Y014328D01*
X046857Y014296D01*
X046936Y014261D01*
X047013Y014222D01*
X047089Y014179D01*
X047162Y014133D01*
X047233Y014083D01*
X047302Y014030D01*
X047367Y013973D01*
X047430Y013913D01*
X047490Y013850D01*
X047547Y013785D01*
X047600Y013716D01*
X047650Y013645D01*
X047696Y013572D01*
X047739Y013496D01*
X047778Y013419D01*
X047813Y013340D01*
X047845Y013259D01*
X047872Y013176D01*
X047895Y013093D01*
X047914Y013008D01*
X047929Y012922D01*
X047939Y012836D01*
X047946Y012750D01*
X047948Y012663D01*
X047946Y012576D01*
X047939Y012490D01*
X047929Y012404D01*
X047914Y012318D01*
X047895Y012233D01*
X047872Y012150D01*
X047845Y012067D01*
X047813Y011986D01*
X047778Y011907D01*
X047739Y011830D01*
X047696Y011754D01*
X047650Y011681D01*
X047600Y011610D01*
X047547Y011541D01*
X047490Y011476D01*
X047430Y011413D01*
X047367Y011353D01*
X047302Y011296D01*
X047233Y011243D01*
X047162Y011193D01*
X047089Y011147D01*
X047013Y011104D01*
X046936Y011065D01*
X046857Y011030D01*
X046776Y010998D01*
X046693Y010971D01*
X046610Y010948D01*
X046525Y010929D01*
X046439Y010914D01*
X046353Y010904D01*
X046267Y010897D01*
X046180Y010895D01*
X046093Y010897D01*
X046007Y010904D01*
X045921Y010914D01*
X045835Y010929D01*
X045750Y010948D01*
X045667Y010971D01*
X045584Y010998D01*
X045503Y011030D01*
X045424Y011065D01*
X045347Y011104D01*
X045271Y011147D01*
X045198Y011193D01*
X045127Y011243D01*
X045058Y011296D01*
X044993Y011353D01*
X044930Y011413D01*
X044870Y011476D01*
X044813Y011541D01*
X044760Y011610D01*
X044710Y011681D01*
X044664Y011754D01*
X044621Y011830D01*
X044582Y011907D01*
X044547Y011986D01*
X044515Y012067D01*
X044488Y012150D01*
X044465Y012233D01*
X044446Y012318D01*
X044431Y012404D01*
X044421Y012490D01*
X044414Y012576D01*
X044412Y012663D01*
X043916Y013518D02*
X043916Y015498D01*
X044694Y015498D01*
X045666Y015498D02*
X046694Y015498D01*
X047666Y015498D02*
X048444Y015498D01*
X048444Y013518D01*
X046613Y012909D02*
X046633Y012870D01*
X046649Y012830D01*
X046662Y012789D01*
X046671Y012747D01*
X046676Y012704D01*
X046678Y012660D01*
X046676Y012617D01*
X046670Y012574D01*
X046660Y012532D01*
X046647Y012491D01*
X046631Y012451D01*
X046610Y012413D01*
X046587Y012376D01*
X046561Y012342D01*
X046531Y012310D01*
X046499Y012281D01*
X046465Y012254D01*
X046428Y012231D01*
X046390Y012211D01*
X046350Y012195D01*
X046308Y012182D01*
X046266Y012173D01*
X046223Y012167D01*
X046180Y012165D01*
X046137Y012167D01*
X046094Y012173D01*
X046052Y012182D01*
X046010Y012195D01*
X045970Y012211D01*
X045932Y012231D01*
X045895Y012254D01*
X045861Y012281D01*
X045829Y012310D01*
X045799Y012342D01*
X045773Y012376D01*
X045750Y012413D01*
X045729Y012451D01*
X045713Y012491D01*
X045700Y012532D01*
X045690Y012574D01*
X045684Y012617D01*
X045682Y012660D01*
X045684Y012704D01*
X045689Y012747D01*
X045698Y012789D01*
X045711Y012830D01*
X045727Y012870D01*
X045747Y012909D01*
X048444Y011748D02*
X048444Y010143D01*
X043916Y010143D01*
X043930Y017891D02*
X044166Y018285D01*
X043694Y018285D01*
X043930Y017891D01*
X043330Y019663D02*
X042030Y019663D01*
X043080Y019913D02*
X043082Y019933D01*
X043088Y019951D01*
X043097Y019969D01*
X043109Y019984D01*
X043124Y019996D01*
X043142Y020005D01*
X043160Y020011D01*
X043180Y020013D01*
X043200Y020011D01*
X043218Y020005D01*
X043236Y019996D01*
X043251Y019984D01*
X043263Y019969D01*
X043272Y019951D01*
X043278Y019933D01*
X043280Y019913D01*
X043278Y019893D01*
X043272Y019875D01*
X043263Y019857D01*
X043251Y019842D01*
X043236Y019830D01*
X043218Y019821D01*
X043200Y019815D01*
X043180Y019813D01*
X043160Y019815D01*
X043142Y019821D01*
X043124Y019830D01*
X043109Y019842D01*
X043097Y019857D01*
X043088Y019875D01*
X043082Y019893D01*
X043080Y019913D01*
X043330Y021663D02*
X042030Y021663D01*
X042030Y023913D02*
X043330Y023913D01*
X043080Y024163D02*
X043082Y024183D01*
X043088Y024201D01*
X043097Y024219D01*
X043109Y024234D01*
X043124Y024246D01*
X043142Y024255D01*
X043160Y024261D01*
X043180Y024263D01*
X043200Y024261D01*
X043218Y024255D01*
X043236Y024246D01*
X043251Y024234D01*
X043263Y024219D01*
X043272Y024201D01*
X043278Y024183D01*
X043280Y024163D01*
X043278Y024143D01*
X043272Y024125D01*
X043263Y024107D01*
X043251Y024092D01*
X043236Y024080D01*
X043218Y024071D01*
X043200Y024065D01*
X043180Y024063D01*
X043160Y024065D01*
X043142Y024071D01*
X043124Y024080D01*
X043109Y024092D01*
X043097Y024107D01*
X043088Y024125D01*
X043082Y024143D01*
X043080Y024163D01*
X043330Y025913D02*
X042030Y025913D01*
X042030Y028163D02*
X043330Y028163D01*
X043080Y028413D02*
X043082Y028433D01*
X043088Y028451D01*
X043097Y028469D01*
X043109Y028484D01*
X043124Y028496D01*
X043142Y028505D01*
X043160Y028511D01*
X043180Y028513D01*
X043200Y028511D01*
X043218Y028505D01*
X043236Y028496D01*
X043251Y028484D01*
X043263Y028469D01*
X043272Y028451D01*
X043278Y028433D01*
X043280Y028413D01*
X043278Y028393D01*
X043272Y028375D01*
X043263Y028357D01*
X043251Y028342D01*
X043236Y028330D01*
X043218Y028321D01*
X043200Y028315D01*
X043180Y028313D01*
X043160Y028315D01*
X043142Y028321D01*
X043124Y028330D01*
X043109Y028342D01*
X043097Y028357D01*
X043088Y028375D01*
X043082Y028393D01*
X043080Y028413D01*
X043330Y030163D02*
X042030Y030163D01*
D11*
X042044Y030438D02*
X042224Y030708D01*
X042339Y030663D02*
X042384Y030708D01*
X042474Y030708D01*
X042519Y030663D01*
X042519Y030618D01*
X042474Y030573D01*
X042519Y030528D01*
X042519Y030483D01*
X042474Y030438D01*
X042384Y030438D01*
X042339Y030483D01*
X042224Y030438D02*
X042044Y030708D01*
X041930Y030618D02*
X041930Y030438D01*
X041930Y030573D02*
X041750Y030573D01*
X041750Y030618D02*
X041840Y030708D01*
X041930Y030618D01*
X041750Y030618D02*
X041750Y030438D01*
X041635Y030438D02*
X041635Y030708D01*
X041545Y030618D01*
X041455Y030708D01*
X041455Y030438D01*
X042429Y030573D02*
X042474Y030573D01*
X042634Y030618D02*
X042724Y030708D01*
X042724Y030438D01*
X042634Y030438D02*
X042814Y030438D01*
X042928Y030483D02*
X042973Y030438D01*
X043063Y030438D01*
X043108Y030483D01*
X043108Y030528D01*
X043063Y030573D01*
X042973Y030573D01*
X042928Y030618D01*
X042928Y030663D01*
X042973Y030708D01*
X043063Y030708D01*
X043108Y030663D01*
X043108Y030618D01*
X043063Y030573D01*
X042973Y030573D02*
X042928Y030528D01*
X042928Y030483D01*
X043223Y030483D02*
X043268Y030438D01*
X043358Y030438D01*
X043403Y030483D01*
X043403Y030573D01*
X043358Y030618D01*
X043313Y030618D01*
X043223Y030573D01*
X043223Y030708D01*
X043403Y030708D01*
X043518Y030708D02*
X043518Y030573D01*
X043608Y030618D01*
X043653Y030618D01*
X043698Y030573D01*
X043698Y030483D01*
X043653Y030438D01*
X043563Y030438D01*
X043518Y030483D01*
X043518Y030708D02*
X043698Y030708D01*
X043812Y030708D02*
X043812Y030438D01*
X043812Y030528D02*
X043992Y030708D01*
X043857Y030573D02*
X043992Y030438D01*
X048980Y029533D02*
X051380Y029533D01*
X051380Y026833D02*
X048680Y026833D01*
X048332Y026458D02*
X048152Y026278D01*
X048197Y026323D02*
X048332Y026188D01*
X048152Y026188D02*
X048152Y026458D01*
X048037Y026323D02*
X047857Y026323D01*
X047742Y026278D02*
X047742Y026458D01*
X047562Y026458D02*
X047562Y026278D01*
X047652Y026188D01*
X047742Y026278D01*
X047448Y026323D02*
X047268Y026323D01*
X047153Y026323D02*
X047108Y026278D01*
X046973Y026278D01*
X046973Y026188D02*
X046973Y026458D01*
X047108Y026458D01*
X047153Y026413D01*
X047153Y026323D01*
X046858Y026458D02*
X046858Y026188D01*
X046678Y026188D02*
X046678Y026458D01*
X046768Y026368D01*
X046858Y026458D01*
X046564Y026413D02*
X046519Y026458D01*
X046429Y026458D01*
X046384Y026413D01*
X046384Y026368D01*
X046429Y026323D01*
X046519Y026323D01*
X046564Y026278D01*
X046564Y026233D01*
X046519Y026188D01*
X046429Y026188D01*
X046384Y026233D01*
X046269Y026323D02*
X046089Y026323D01*
X045974Y026233D02*
X045929Y026188D01*
X045839Y026188D01*
X045794Y026233D01*
X045794Y026413D01*
X045839Y026458D01*
X045929Y026458D01*
X045974Y026413D01*
X045680Y026413D02*
X045635Y026458D01*
X045545Y026458D01*
X045500Y026413D01*
X045500Y026233D01*
X045545Y026188D01*
X045635Y026188D01*
X045680Y026233D01*
X045385Y026323D02*
X045340Y026278D01*
X045205Y026278D01*
X045205Y026188D02*
X045205Y026458D01*
X045340Y026458D01*
X045385Y026413D01*
X045385Y026323D01*
X043992Y026333D02*
X043812Y026153D01*
X043857Y026198D02*
X043992Y026063D01*
X043812Y026063D02*
X043812Y026333D01*
X043698Y026333D02*
X043518Y026333D01*
X043518Y026198D01*
X043608Y026243D01*
X043653Y026243D01*
X043698Y026198D01*
X043698Y026108D01*
X043653Y026063D01*
X043563Y026063D01*
X043518Y026108D01*
X043403Y026108D02*
X043358Y026063D01*
X043268Y026063D01*
X043223Y026108D01*
X043223Y026198D02*
X043313Y026243D01*
X043358Y026243D01*
X043403Y026198D01*
X043403Y026108D01*
X043223Y026198D02*
X043223Y026333D01*
X043403Y026333D01*
X043108Y026288D02*
X043108Y026243D01*
X043063Y026198D01*
X042973Y026198D01*
X042928Y026243D01*
X042928Y026288D01*
X042973Y026333D01*
X043063Y026333D01*
X043108Y026288D01*
X043063Y026198D02*
X043108Y026153D01*
X043108Y026108D01*
X043063Y026063D01*
X042973Y026063D01*
X042928Y026108D01*
X042928Y026153D01*
X042973Y026198D01*
X042814Y026063D02*
X042634Y026063D01*
X042724Y026063D02*
X042724Y026333D01*
X042634Y026243D01*
X042519Y026243D02*
X042474Y026198D01*
X042519Y026153D01*
X042519Y026108D01*
X042474Y026063D01*
X042384Y026063D01*
X042339Y026108D01*
X042224Y026063D02*
X042044Y026333D01*
X041930Y026243D02*
X041930Y026063D01*
X042044Y026063D02*
X042224Y026333D01*
X042339Y026288D02*
X042384Y026333D01*
X042474Y026333D01*
X042519Y026288D01*
X042519Y026243D01*
X042474Y026198D02*
X042429Y026198D01*
X041930Y026198D02*
X041750Y026198D01*
X041750Y026243D02*
X041840Y026333D01*
X041930Y026243D01*
X041750Y026243D02*
X041750Y026063D01*
X041635Y026063D02*
X041635Y026333D01*
X041545Y026243D01*
X041455Y026333D01*
X041455Y026063D01*
X041436Y027190D02*
X041616Y027190D01*
X041526Y027190D02*
X041526Y027460D01*
X041436Y027370D01*
X041731Y027415D02*
X041776Y027460D01*
X041866Y027460D01*
X041911Y027415D01*
X041731Y027235D01*
X041776Y027190D01*
X041866Y027190D01*
X041911Y027235D01*
X041911Y027415D01*
X042026Y027415D02*
X042071Y027460D01*
X042161Y027460D01*
X042206Y027415D01*
X042026Y027235D01*
X042071Y027190D01*
X042161Y027190D01*
X042206Y027235D01*
X042206Y027415D01*
X042320Y027370D02*
X042455Y027370D01*
X042500Y027325D01*
X042500Y027190D01*
X042320Y027190D02*
X042320Y027370D01*
X042026Y027415D02*
X042026Y027235D01*
X041731Y027235D02*
X041731Y027415D01*
X037008Y027158D02*
X037008Y027113D01*
X036828Y026933D01*
X036828Y026888D01*
X036714Y026888D02*
X036534Y026888D01*
X036624Y026888D02*
X036624Y027158D01*
X036534Y027068D01*
X036419Y026888D02*
X036239Y026888D01*
X036329Y026888D02*
X036329Y027158D01*
X036239Y027068D01*
X036124Y026888D02*
X035944Y026888D01*
X036034Y026888D02*
X036034Y027158D01*
X035944Y027068D01*
X035830Y027113D02*
X035785Y027158D01*
X035650Y027158D01*
X035650Y026888D01*
X035785Y026888D01*
X035830Y026933D01*
X035830Y027113D01*
X035535Y026888D02*
X035355Y026888D01*
X035355Y027158D01*
X036828Y027158D02*
X037008Y027158D01*
X033348Y025913D02*
X033348Y025868D01*
X033303Y025823D01*
X033168Y025823D01*
X033303Y025823D02*
X033348Y025778D01*
X033348Y025733D01*
X033303Y025688D01*
X033168Y025688D01*
X033168Y025958D01*
X033303Y025958D01*
X033348Y025913D01*
X033053Y025913D02*
X032873Y025733D01*
X032918Y025688D01*
X033008Y025688D01*
X033053Y025733D01*
X033053Y025913D01*
X033008Y025958D01*
X032918Y025958D01*
X032873Y025913D01*
X032873Y025733D01*
X032758Y025733D02*
X032713Y025688D01*
X032623Y025688D01*
X032578Y025733D01*
X032578Y025823D02*
X032668Y025868D01*
X032713Y025868D01*
X032758Y025823D01*
X032758Y025733D01*
X032578Y025823D02*
X032578Y025958D01*
X032758Y025958D01*
X032464Y025913D02*
X032284Y025733D01*
X032329Y025688D01*
X032419Y025688D01*
X032464Y025733D01*
X032464Y025913D01*
X032419Y025958D01*
X032329Y025958D01*
X032284Y025913D01*
X032284Y025733D01*
X032169Y025823D02*
X031989Y025823D01*
X032124Y025958D01*
X032124Y025688D01*
X031784Y025823D02*
X031694Y025823D01*
X031694Y025688D02*
X031694Y025958D01*
X031874Y025958D01*
X031580Y025958D02*
X031400Y025958D01*
X031400Y025688D01*
X031580Y025688D01*
X031490Y025823D02*
X031400Y025823D01*
X031285Y025823D02*
X031105Y025823D01*
X031105Y025688D02*
X031105Y025958D01*
X031285Y025958D02*
X031285Y025688D01*
X028100Y026313D02*
X027964Y026313D01*
X027919Y026358D01*
X027919Y026448D01*
X027964Y026493D01*
X028100Y026493D01*
X028100Y026583D02*
X028100Y026313D01*
X027809Y026493D02*
X027764Y026493D01*
X027674Y026403D01*
X027674Y026313D02*
X027674Y026493D01*
X027559Y026448D02*
X027514Y026493D01*
X027424Y026493D01*
X027424Y026403D02*
X027559Y026403D01*
X027559Y026448D02*
X027559Y026313D01*
X027424Y026313D01*
X027379Y026358D01*
X027424Y026403D01*
X027265Y026358D02*
X027220Y026313D01*
X027130Y026313D01*
X027085Y026358D01*
X027085Y026538D01*
X027130Y026583D01*
X027220Y026583D01*
X027265Y026538D01*
X026675Y026538D02*
X026630Y026583D01*
X026495Y026583D01*
X026495Y026313D01*
X026630Y026313D01*
X026675Y026358D01*
X026675Y026538D01*
X026381Y026538D02*
X026336Y026583D01*
X026246Y026583D01*
X026201Y026538D01*
X026201Y026493D01*
X026246Y026448D01*
X026336Y026448D01*
X026381Y026403D01*
X026381Y026358D01*
X026336Y026313D01*
X026246Y026313D01*
X026201Y026358D01*
X025791Y026358D02*
X025791Y026448D01*
X025746Y026493D01*
X025656Y026493D01*
X025611Y026448D01*
X025611Y026358D01*
X025656Y026313D01*
X025746Y026313D01*
X025791Y026358D01*
X025501Y026493D02*
X025456Y026493D01*
X025366Y026403D01*
X025366Y026313D02*
X025366Y026493D01*
X025251Y026493D02*
X025116Y026493D01*
X025071Y026448D01*
X025071Y026358D01*
X025116Y026313D01*
X025251Y026313D01*
X024965Y026313D02*
X024875Y026313D01*
X024920Y026313D02*
X024920Y026493D01*
X024875Y026493D01*
X024920Y026583D02*
X024920Y026628D01*
X024760Y026583D02*
X024760Y026313D01*
X024580Y026313D02*
X024580Y026583D01*
X024670Y026493D01*
X024760Y026583D01*
X023108Y025038D02*
X023063Y025083D01*
X022973Y025083D01*
X022928Y025038D01*
X022814Y025038D02*
X022634Y024858D01*
X022679Y024813D01*
X022769Y024813D01*
X022814Y024858D01*
X022814Y025038D01*
X022769Y025083D01*
X022679Y025083D01*
X022634Y025038D01*
X022634Y024858D01*
X022519Y024858D02*
X022474Y024813D01*
X022384Y024813D01*
X022339Y024858D01*
X022519Y025038D01*
X022519Y024858D01*
X022339Y024858D02*
X022339Y025038D01*
X022384Y025083D01*
X022474Y025083D01*
X022519Y025038D01*
X022224Y025038D02*
X022044Y024858D01*
X022044Y024813D01*
X021930Y024813D02*
X021930Y025083D01*
X022044Y025083D02*
X022224Y025083D01*
X022224Y025038D01*
X021930Y024813D02*
X021750Y025083D01*
X021750Y024813D01*
X021635Y024813D02*
X021455Y024813D01*
X021635Y024993D01*
X021635Y025038D01*
X021590Y025083D01*
X021500Y025083D01*
X021455Y025038D01*
X020554Y025438D02*
X020419Y025528D01*
X020554Y025618D01*
X020419Y025708D02*
X020419Y025438D01*
X020305Y025483D02*
X020260Y025438D01*
X020170Y025438D01*
X020125Y025483D01*
X020305Y025663D01*
X020305Y025483D01*
X020305Y025663D02*
X020260Y025708D01*
X020170Y025708D01*
X020125Y025663D01*
X020125Y025483D01*
X020010Y025438D02*
X019830Y025438D01*
X019920Y025438D02*
X019920Y025708D01*
X019830Y025618D01*
X019945Y026838D02*
X020125Y026838D01*
X020035Y026838D02*
X020035Y027108D01*
X019945Y027018D01*
X020240Y026973D02*
X020375Y026973D01*
X020420Y026928D01*
X020420Y026883D01*
X020375Y026838D01*
X020285Y026838D01*
X020240Y026883D01*
X020240Y026973D01*
X020330Y027063D01*
X020420Y027108D01*
X020830Y028438D02*
X021010Y028618D01*
X021010Y028663D01*
X020965Y028708D01*
X020875Y028708D01*
X020830Y028663D01*
X020830Y028438D02*
X021010Y028438D01*
X021125Y028438D02*
X021305Y028618D01*
X021305Y028663D01*
X021260Y028708D01*
X021170Y028708D01*
X021125Y028663D01*
X021125Y028438D02*
X021305Y028438D01*
X021714Y028438D02*
X021714Y028708D01*
X021849Y028708D01*
X021894Y028663D01*
X021894Y028573D01*
X021849Y028528D01*
X021714Y028528D01*
X021804Y028528D02*
X021894Y028438D01*
X020260Y028813D02*
X020125Y028948D01*
X020080Y028903D02*
X020260Y029083D01*
X020080Y029083D02*
X020080Y028813D01*
X019260Y028813D02*
X019260Y028993D01*
X019170Y029083D01*
X019080Y028993D01*
X019080Y028813D01*
X019080Y028948D02*
X019260Y028948D01*
X018599Y029038D02*
X018419Y028858D01*
X018419Y028813D01*
X018305Y028858D02*
X018260Y028813D01*
X018125Y028813D01*
X018125Y029083D01*
X018260Y029083D01*
X018305Y029038D01*
X018305Y028993D01*
X018260Y028948D01*
X018125Y028948D01*
X018260Y028948D02*
X018305Y028903D01*
X018305Y028858D01*
X018419Y029083D02*
X018599Y029083D01*
X018599Y029038D01*
X018010Y029038D02*
X017965Y029083D01*
X017830Y029083D01*
X017830Y028813D01*
X017965Y028813D01*
X018010Y028858D01*
X018010Y029038D01*
X017599Y029083D02*
X017509Y029038D01*
X017419Y028948D01*
X017554Y028948D01*
X017599Y028903D01*
X017599Y028858D01*
X017554Y028813D01*
X017464Y028813D01*
X017419Y028858D01*
X017419Y028948D01*
X017305Y028903D02*
X017305Y028858D01*
X017260Y028813D01*
X017125Y028813D01*
X017125Y029083D01*
X017260Y029083D01*
X017305Y029038D01*
X017305Y028993D01*
X017260Y028948D01*
X017125Y028948D01*
X017260Y028948D02*
X017305Y028903D01*
X017010Y028858D02*
X017010Y029038D01*
X016965Y029083D01*
X016830Y029083D01*
X016830Y028813D01*
X016965Y028813D01*
X017010Y028858D01*
X016599Y028858D02*
X016554Y028813D01*
X016464Y028813D01*
X016419Y028858D01*
X016419Y028948D02*
X016509Y028993D01*
X016554Y028993D01*
X016599Y028948D01*
X016599Y028858D01*
X016419Y028948D02*
X016419Y029083D01*
X016599Y029083D01*
X016305Y029038D02*
X016305Y028993D01*
X016260Y028948D01*
X016125Y028948D01*
X016260Y028948D02*
X016305Y028903D01*
X016305Y028858D01*
X016260Y028813D01*
X016125Y028813D01*
X016125Y029083D01*
X016260Y029083D01*
X016305Y029038D01*
X016010Y029038D02*
X015965Y029083D01*
X015830Y029083D01*
X015830Y028813D01*
X015965Y028813D01*
X016010Y028858D01*
X016010Y029038D01*
X015599Y028948D02*
X015419Y028948D01*
X015554Y029083D01*
X015554Y028813D01*
X015554Y029083D01*
X015419Y028948D01*
X015599Y028948D01*
X015305Y028903D02*
X015305Y028858D01*
X015260Y028813D01*
X015125Y028813D01*
X015125Y029083D01*
X015260Y029083D01*
X015305Y029038D01*
X015305Y028993D01*
X015260Y028948D01*
X015125Y028948D01*
X015260Y028948D01*
X015305Y028903D01*
X015305Y028858D01*
X015260Y028813D01*
X015125Y028813D01*
X015125Y029083D01*
X015260Y029083D01*
X015305Y029038D01*
X015305Y028993D01*
X015260Y028948D01*
X015305Y028903D01*
X015010Y028858D02*
X015010Y029038D01*
X014965Y029083D01*
X014830Y029083D01*
X014830Y028813D01*
X014965Y028813D01*
X015010Y028858D01*
X015010Y029038D01*
X014965Y029083D01*
X014830Y029083D01*
X014830Y028813D01*
X014965Y028813D01*
X015010Y028858D01*
X018165Y029743D02*
X018345Y029743D01*
X018255Y029743D02*
X018255Y030013D01*
X018165Y029923D01*
X018459Y029833D02*
X018595Y029743D01*
X018459Y029743D02*
X018459Y030013D01*
X018595Y029923D02*
X018459Y029833D01*
X018955Y030688D02*
X018955Y030958D01*
X019090Y030958D01*
X019135Y030913D01*
X019135Y030823D01*
X019090Y030778D01*
X018955Y030778D01*
X019250Y030823D02*
X019250Y030733D01*
X019295Y030688D01*
X019385Y030688D01*
X019430Y030733D01*
X019430Y030823D01*
X019385Y030868D01*
X019295Y030868D01*
X019250Y030823D01*
X019544Y030868D02*
X019544Y030733D01*
X019589Y030688D01*
X019634Y030733D01*
X019679Y030688D01*
X019724Y030733D01*
X019724Y030868D01*
X019839Y030823D02*
X019884Y030868D01*
X019974Y030868D01*
X020019Y030823D01*
X020019Y030778D01*
X019839Y030778D01*
X019839Y030733D02*
X019839Y030823D01*
X019839Y030733D02*
X019884Y030688D01*
X019974Y030688D01*
X020134Y030688D02*
X020134Y030868D01*
X020224Y030868D02*
X020269Y030868D01*
X020224Y030868D02*
X020134Y030778D01*
X020545Y030578D02*
X020635Y030442D01*
X020725Y030578D01*
X020725Y030442D02*
X020455Y030442D01*
X020500Y030033D02*
X020680Y029853D01*
X020725Y029898D01*
X020725Y029988D01*
X020680Y030033D01*
X020500Y030033D01*
X020455Y029988D01*
X020455Y029898D01*
X020500Y029853D01*
X020680Y029853D01*
X020725Y029739D02*
X020725Y029558D01*
X020725Y029649D02*
X020455Y029649D01*
X020545Y029558D01*
X023108Y025038D02*
X023108Y024993D01*
X022928Y024813D01*
X023108Y024813D01*
X028080Y022493D02*
X028170Y022583D01*
X028170Y022313D01*
X028080Y022313D02*
X028260Y022313D01*
X028375Y022358D02*
X028555Y022538D01*
X028555Y022358D01*
X028510Y022313D01*
X028420Y022313D01*
X028375Y022358D01*
X028375Y022538D01*
X028420Y022583D01*
X028510Y022583D01*
X028555Y022538D01*
X028669Y022583D02*
X028669Y022313D01*
X028669Y022403D02*
X028804Y022493D01*
X028669Y022403D02*
X028804Y022313D01*
X029061Y022940D02*
X029241Y022940D01*
X029151Y022940D02*
X029151Y023210D01*
X029061Y023120D01*
X029356Y023165D02*
X029401Y023210D01*
X029491Y023210D01*
X029536Y023165D01*
X029356Y022985D01*
X029401Y022940D01*
X029491Y022940D01*
X029536Y022985D01*
X029536Y023165D01*
X029651Y023165D02*
X029651Y022985D01*
X029831Y023165D01*
X029831Y022985D01*
X029786Y022940D01*
X029696Y022940D01*
X029651Y022985D01*
X029651Y023165D02*
X029696Y023210D01*
X029786Y023210D01*
X029831Y023165D01*
X030240Y023120D02*
X030375Y023120D01*
X030420Y023075D01*
X030420Y022940D01*
X030535Y022940D02*
X030535Y023210D01*
X030715Y023210D01*
X030625Y023075D02*
X030535Y023075D01*
X030240Y023120D02*
X030240Y022940D01*
X029356Y022985D02*
X029356Y023165D01*
X034580Y022368D02*
X034670Y022458D01*
X034670Y022188D01*
X034580Y022188D02*
X034760Y022188D01*
X034875Y022233D02*
X035055Y022413D01*
X035055Y022233D01*
X035010Y022188D01*
X034920Y022188D01*
X034875Y022233D01*
X034875Y022413D01*
X034920Y022458D01*
X035010Y022458D01*
X035055Y022413D01*
X035169Y022458D02*
X035169Y022188D01*
X035169Y022278D02*
X035304Y022368D01*
X035169Y022278D02*
X035304Y022188D01*
X035561Y022815D02*
X035741Y022815D01*
X035651Y022815D02*
X035651Y023085D01*
X035561Y022995D01*
X035856Y023040D02*
X035901Y023085D01*
X035991Y023085D01*
X036036Y023040D01*
X035856Y022860D01*
X035901Y022815D01*
X035991Y022815D01*
X036036Y022860D01*
X036036Y023040D01*
X036151Y022995D02*
X036151Y022860D01*
X036196Y022815D01*
X036331Y022815D01*
X036331Y022995D01*
X036445Y022950D02*
X036535Y022950D01*
X036445Y022815D02*
X036445Y023085D01*
X036625Y023085D01*
X037186Y023120D02*
X037276Y023210D01*
X037276Y022940D01*
X037186Y022940D02*
X037366Y022940D01*
X037481Y022985D02*
X037661Y023165D01*
X037661Y022985D01*
X037616Y022940D01*
X037526Y022940D01*
X037481Y022985D01*
X037481Y023165D01*
X037526Y023210D01*
X037616Y023210D01*
X037661Y023165D01*
X037776Y023165D02*
X037776Y022985D01*
X037956Y023165D01*
X037956Y022985D01*
X037911Y022940D01*
X037821Y022940D01*
X037776Y022985D01*
X037776Y023165D02*
X037821Y023210D01*
X037911Y023210D01*
X037956Y023165D01*
X038070Y023120D02*
X038205Y023120D01*
X038250Y023075D01*
X038250Y022940D01*
X038070Y022940D02*
X038070Y023120D01*
X035856Y023040D02*
X035856Y022860D01*
X036080Y020583D02*
X036215Y020583D01*
X036260Y020538D01*
X036260Y020493D01*
X036215Y020448D01*
X036080Y020448D01*
X036080Y020313D02*
X036215Y020313D01*
X036260Y020358D01*
X036260Y020403D01*
X036215Y020448D01*
X036375Y020493D02*
X036375Y020358D01*
X036420Y020313D01*
X036555Y020313D01*
X036555Y020493D01*
X036669Y020493D02*
X036849Y020493D01*
X036669Y020313D01*
X036849Y020313D01*
X036964Y020313D02*
X037144Y020313D01*
X037259Y020358D02*
X037259Y020448D01*
X037304Y020493D01*
X037394Y020493D01*
X037439Y020448D01*
X037439Y020403D01*
X037259Y020403D01*
X037259Y020358D02*
X037304Y020313D01*
X037394Y020313D01*
X037553Y020313D02*
X037553Y020493D01*
X037553Y020403D02*
X037643Y020493D01*
X037688Y020493D01*
X037144Y020493D02*
X036964Y020313D01*
X036964Y020493D02*
X037144Y020493D01*
X036080Y020583D02*
X036080Y020313D01*
X040705Y022188D02*
X040885Y022188D01*
X040795Y022188D02*
X040795Y022458D01*
X040705Y022368D01*
X041000Y022413D02*
X041045Y022458D01*
X041135Y022458D01*
X041180Y022413D01*
X041000Y022233D01*
X041045Y022188D01*
X041135Y022188D01*
X041180Y022233D01*
X041180Y022413D01*
X041294Y022458D02*
X041294Y022188D01*
X041294Y022278D02*
X041429Y022368D01*
X041294Y022278D02*
X041429Y022188D01*
X041000Y022233D02*
X041000Y022413D01*
X042936Y022815D02*
X043116Y022815D01*
X043026Y022815D02*
X043026Y023085D01*
X042936Y022995D01*
X043231Y023040D02*
X043276Y023085D01*
X043366Y023085D01*
X043411Y023040D01*
X043231Y022860D01*
X043276Y022815D01*
X043366Y022815D01*
X043411Y022860D01*
X043411Y023040D01*
X043526Y023040D02*
X043571Y023085D01*
X043661Y023085D01*
X043706Y023040D01*
X043526Y022860D01*
X043571Y022815D01*
X043661Y022815D01*
X043706Y022860D01*
X043706Y023040D01*
X043820Y022995D02*
X043955Y022995D01*
X044000Y022950D01*
X044000Y022815D01*
X043820Y022815D02*
X043820Y022995D01*
X043526Y023040D02*
X043526Y022860D01*
X043231Y022860D02*
X043231Y023040D01*
X045205Y022208D02*
X045205Y021938D01*
X045205Y022028D02*
X045340Y022028D01*
X045385Y022073D01*
X045385Y022163D01*
X045340Y022208D01*
X045205Y022208D01*
X045500Y022163D02*
X045500Y021983D01*
X045545Y021938D01*
X045635Y021938D01*
X045680Y021983D01*
X045794Y021983D02*
X045839Y021938D01*
X045929Y021938D01*
X045974Y021983D01*
X046089Y022073D02*
X046269Y022073D01*
X046384Y022118D02*
X046429Y022073D01*
X046519Y022073D01*
X046564Y022028D01*
X046564Y021983D01*
X046519Y021938D01*
X046429Y021938D01*
X046384Y021983D01*
X046384Y022118D02*
X046384Y022163D01*
X046429Y022208D01*
X046519Y022208D01*
X046564Y022163D01*
X046678Y022208D02*
X046768Y022118D01*
X046858Y022208D01*
X046858Y021938D01*
X046973Y021938D02*
X046973Y022208D01*
X047108Y022208D01*
X047153Y022163D01*
X047153Y022073D01*
X047108Y022028D01*
X046973Y022028D01*
X047268Y022073D02*
X047448Y022073D01*
X047562Y022028D02*
X047652Y021938D01*
X047742Y022028D01*
X047742Y022208D01*
X047857Y022073D02*
X048037Y022073D01*
X048152Y022028D02*
X048332Y022208D01*
X048152Y022208D02*
X048152Y021938D01*
X048197Y022073D02*
X048332Y021938D01*
X047562Y022028D02*
X047562Y022208D01*
X046678Y022208D02*
X046678Y021938D01*
X045974Y022163D02*
X045929Y022208D01*
X045839Y022208D01*
X045794Y022163D01*
X045794Y021983D01*
X045680Y022163D02*
X045635Y022208D01*
X045545Y022208D01*
X045500Y022163D01*
X048680Y022583D02*
X051380Y022583D01*
X051380Y021033D02*
X048980Y021033D01*
X048680Y018333D02*
X051380Y018333D01*
X048332Y017958D02*
X048152Y017778D01*
X048197Y017823D02*
X048332Y017688D01*
X048152Y017688D02*
X048152Y017958D01*
X048037Y017823D02*
X047857Y017823D01*
X047742Y017778D02*
X047742Y017958D01*
X047562Y017958D02*
X047562Y017778D01*
X047652Y017688D01*
X047742Y017778D01*
X047448Y017823D02*
X047268Y017823D01*
X047153Y017823D02*
X047153Y017913D01*
X047108Y017958D01*
X046973Y017958D01*
X046973Y017688D01*
X046973Y017778D02*
X047108Y017778D01*
X047153Y017823D01*
X046858Y017958D02*
X046858Y017688D01*
X046678Y017688D02*
X046678Y017958D01*
X046768Y017868D01*
X046858Y017958D01*
X046564Y017913D02*
X046519Y017958D01*
X046429Y017958D01*
X046384Y017913D01*
X046384Y017868D01*
X046429Y017823D01*
X046519Y017823D01*
X046564Y017778D01*
X046564Y017733D01*
X046519Y017688D01*
X046429Y017688D01*
X046384Y017733D01*
X046269Y017823D02*
X046089Y017823D01*
X045974Y017733D02*
X045929Y017688D01*
X045839Y017688D01*
X045794Y017733D01*
X045794Y017913D01*
X045839Y017958D01*
X045929Y017958D01*
X045974Y017913D01*
X045680Y017913D02*
X045635Y017958D01*
X045545Y017958D01*
X045500Y017913D01*
X045500Y017733D01*
X045545Y017688D01*
X045635Y017688D01*
X045680Y017733D01*
X045385Y017823D02*
X045385Y017913D01*
X045340Y017958D01*
X045205Y017958D01*
X045205Y017688D01*
X045205Y017778D02*
X045340Y017778D01*
X045385Y017823D01*
X043383Y017463D02*
X043383Y017418D01*
X043338Y017373D01*
X043248Y017373D01*
X043203Y017418D01*
X043203Y017463D01*
X043248Y017508D01*
X043338Y017508D01*
X043383Y017463D01*
X043338Y017373D02*
X043383Y017328D01*
X043383Y017283D01*
X043338Y017238D01*
X043248Y017238D01*
X043203Y017283D01*
X043203Y017328D01*
X043248Y017373D01*
X043089Y017373D02*
X042909Y017373D01*
X043044Y017508D01*
X043044Y017238D01*
X042794Y017238D02*
X042614Y017238D01*
X042704Y017238D02*
X042704Y017508D01*
X042614Y017418D01*
X042499Y017373D02*
X042319Y017373D01*
X042454Y017508D01*
X042454Y017238D01*
X042205Y017238D02*
X042025Y017238D01*
X042025Y017508D01*
X041910Y017238D02*
X041730Y017238D01*
X041730Y017508D01*
X041750Y019188D02*
X041750Y019368D01*
X041840Y019458D01*
X041930Y019368D01*
X041930Y019188D01*
X042044Y019188D02*
X042224Y019458D01*
X042339Y019413D02*
X042384Y019458D01*
X042474Y019458D01*
X042519Y019413D01*
X042519Y019368D01*
X042474Y019323D01*
X042519Y019278D01*
X042519Y019233D01*
X042474Y019188D01*
X042384Y019188D01*
X042339Y019233D01*
X042224Y019188D02*
X042044Y019458D01*
X041930Y019323D02*
X041750Y019323D01*
X041635Y019458D02*
X041635Y019188D01*
X041455Y019188D02*
X041455Y019458D01*
X041545Y019368D01*
X041635Y019458D01*
X042429Y019323D02*
X042474Y019323D01*
X042634Y019368D02*
X042724Y019458D01*
X042724Y019188D01*
X042634Y019188D02*
X042814Y019188D01*
X042928Y019233D02*
X042973Y019188D01*
X043063Y019188D01*
X043108Y019233D01*
X043108Y019278D01*
X043063Y019323D01*
X042973Y019323D01*
X042928Y019368D01*
X042928Y019413D01*
X042973Y019458D01*
X043063Y019458D01*
X043108Y019413D01*
X043108Y019368D01*
X043063Y019323D01*
X042973Y019323D02*
X042928Y019278D01*
X042928Y019233D01*
X043223Y019233D02*
X043268Y019188D01*
X043358Y019188D01*
X043403Y019233D01*
X043403Y019323D01*
X043358Y019368D01*
X043313Y019368D01*
X043223Y019323D01*
X043223Y019458D01*
X043403Y019458D01*
X043518Y019458D02*
X043518Y019323D01*
X043608Y019368D01*
X043653Y019368D01*
X043698Y019323D01*
X043698Y019233D01*
X043653Y019188D01*
X043563Y019188D01*
X043518Y019233D01*
X043518Y019458D02*
X043698Y019458D01*
X043812Y019458D02*
X043812Y019188D01*
X043812Y019278D02*
X043992Y019458D01*
X043857Y019323D02*
X043992Y019188D01*
X045205Y016333D02*
X045205Y016063D01*
X045385Y016063D01*
X045500Y016063D02*
X045500Y016243D01*
X045635Y016243D01*
X045680Y016198D01*
X045680Y016063D01*
X045794Y016108D02*
X045839Y016063D01*
X045974Y016063D01*
X046089Y016108D02*
X046134Y016063D01*
X046224Y016063D01*
X046269Y016108D01*
X046269Y016198D01*
X046224Y016243D01*
X046134Y016243D01*
X046089Y016198D01*
X046089Y016108D01*
X045974Y016243D02*
X045839Y016243D01*
X045794Y016198D01*
X045794Y016108D01*
X045385Y016333D02*
X045205Y016333D01*
X045205Y016198D02*
X045295Y016198D01*
X046384Y016198D02*
X046429Y016243D01*
X046564Y016243D01*
X046564Y016333D02*
X046564Y016063D01*
X046429Y016063D01*
X046384Y016108D01*
X046384Y016198D01*
X046678Y016198D02*
X046723Y016243D01*
X046813Y016243D01*
X046858Y016198D01*
X046858Y016153D01*
X046678Y016153D01*
X046678Y016108D02*
X046678Y016198D01*
X046678Y016108D02*
X046723Y016063D01*
X046813Y016063D01*
X046973Y016063D02*
X046973Y016243D01*
X046973Y016153D02*
X047063Y016243D01*
X047108Y016243D01*
X051330Y015583D02*
X051330Y015313D01*
X051330Y015403D02*
X051465Y015403D01*
X051510Y015448D01*
X051510Y015538D01*
X051465Y015583D01*
X051330Y015583D01*
X051420Y015403D02*
X051510Y015313D01*
X051625Y015358D02*
X051670Y015313D01*
X051760Y015313D01*
X051805Y015358D01*
X051805Y015403D01*
X051760Y015448D01*
X051670Y015448D01*
X051625Y015493D01*
X051625Y015538D01*
X051670Y015583D01*
X051760Y015583D01*
X051805Y015538D01*
X051760Y014583D02*
X051625Y014448D01*
X051805Y014448D01*
X051760Y014313D02*
X051760Y014583D01*
X051510Y014538D02*
X051465Y014583D01*
X051330Y014583D01*
X051330Y014313D01*
X051465Y014313D01*
X051510Y014358D01*
X051510Y014538D01*
X051465Y013583D02*
X051330Y013583D01*
X051330Y013313D01*
X051465Y013313D01*
X051510Y013358D01*
X051510Y013538D01*
X051465Y013583D01*
X051625Y013448D02*
X051760Y013448D01*
X051805Y013403D01*
X051805Y013358D01*
X051760Y013313D01*
X051670Y013313D01*
X051625Y013358D01*
X051625Y013448D01*
X051715Y013538D01*
X051805Y013583D01*
X051805Y012583D02*
X051805Y012313D01*
X051715Y012403D01*
X051625Y012313D01*
X051625Y012583D01*
X051510Y012538D02*
X051465Y012583D01*
X051375Y012583D01*
X051330Y012538D01*
X051330Y012493D01*
X051375Y012448D01*
X051465Y012448D01*
X051510Y012403D01*
X051510Y012358D01*
X051465Y012313D01*
X051375Y012313D01*
X051330Y012358D01*
X051420Y011583D02*
X051510Y011493D01*
X051510Y011313D01*
X051510Y011448D02*
X051330Y011448D01*
X051330Y011493D02*
X051420Y011583D01*
X051330Y011493D02*
X051330Y011313D01*
X050354Y010618D02*
X050219Y010528D01*
X050354Y010438D01*
X050219Y010438D02*
X050219Y010708D01*
X050105Y010663D02*
X049925Y010483D01*
X049970Y010438D01*
X050060Y010438D01*
X050105Y010483D01*
X050105Y010663D01*
X050060Y010708D01*
X049970Y010708D01*
X049925Y010663D01*
X049925Y010483D01*
X049810Y010438D02*
X049630Y010438D01*
X049720Y010438D02*
X049720Y010708D01*
X049630Y010618D01*
X051330Y010583D02*
X051465Y010583D01*
X051510Y010538D01*
X051510Y010493D01*
X051465Y010448D01*
X051330Y010448D01*
X051330Y010313D02*
X051465Y010313D01*
X051510Y010358D01*
X051510Y010403D01*
X051465Y010448D01*
X051330Y010313D02*
X051330Y010583D01*
X051625Y010583D02*
X051625Y010313D01*
X051805Y010313D01*
X052028Y009558D02*
X051439Y009558D01*
X051509Y009458D02*
X051464Y009413D01*
X051464Y009233D01*
X051509Y009188D01*
X051599Y009188D01*
X051644Y009233D01*
X051759Y009233D02*
X051804Y009188D01*
X051894Y009188D01*
X051939Y009233D01*
X051939Y009278D01*
X051894Y009323D01*
X051804Y009323D01*
X051759Y009368D01*
X051759Y009413D01*
X051804Y009458D01*
X051894Y009458D01*
X051939Y009413D01*
X051644Y009413D02*
X051599Y009458D01*
X051509Y009458D01*
X051349Y009413D02*
X051349Y009368D01*
X051304Y009323D01*
X051349Y009278D01*
X051349Y009233D01*
X051304Y009188D01*
X051214Y009188D01*
X051169Y009233D01*
X051055Y009233D02*
X051010Y009188D01*
X050920Y009188D01*
X050875Y009233D01*
X050875Y009413D01*
X050920Y009458D01*
X051010Y009458D01*
X051055Y009413D01*
X051169Y009413D02*
X051214Y009458D01*
X051304Y009458D01*
X051349Y009413D01*
X051304Y009323D02*
X051259Y009323D01*
X050760Y009458D02*
X050580Y009458D01*
X050670Y009458D02*
X050670Y009188D01*
X050354Y009188D02*
X050219Y009278D01*
X050354Y009368D01*
X050219Y009458D02*
X050219Y009188D01*
X050105Y009233D02*
X050060Y009188D01*
X049970Y009188D01*
X049925Y009233D01*
X050105Y009413D01*
X050105Y009233D01*
X050105Y009413D02*
X050060Y009458D01*
X049970Y009458D01*
X049925Y009413D01*
X049925Y009233D01*
X049810Y009188D02*
X049630Y009188D01*
X049720Y009188D02*
X049720Y009458D01*
X049630Y009368D01*
X050830Y008538D02*
X050830Y008493D01*
X050875Y008448D01*
X050965Y008448D01*
X051010Y008403D01*
X051010Y008358D01*
X050965Y008313D01*
X050875Y008313D01*
X050830Y008358D01*
X050830Y008538D02*
X050875Y008583D01*
X050965Y008583D01*
X051010Y008538D01*
X051125Y008583D02*
X051260Y008583D01*
X051305Y008538D01*
X051305Y008358D01*
X051260Y008313D01*
X051125Y008313D01*
X051125Y008583D01*
X051394Y008683D02*
X051984Y008683D01*
X051849Y008583D02*
X051759Y008583D01*
X051714Y008538D01*
X051714Y008493D01*
X051759Y008448D01*
X051849Y008448D01*
X051894Y008403D01*
X051894Y008358D01*
X051849Y008313D01*
X051759Y008313D01*
X051714Y008358D01*
X051599Y008358D02*
X051554Y008313D01*
X051464Y008313D01*
X051419Y008358D01*
X051419Y008538D01*
X051464Y008583D01*
X051554Y008583D01*
X051599Y008538D01*
X051849Y008583D02*
X051894Y008538D01*
X051804Y007583D02*
X051714Y007583D01*
X051759Y007583D02*
X051759Y007313D01*
X051714Y007313D02*
X051804Y007313D01*
X051599Y007358D02*
X051554Y007313D01*
X051464Y007313D01*
X051419Y007358D01*
X051464Y007448D02*
X051554Y007448D01*
X051599Y007403D01*
X051599Y007358D01*
X051464Y007448D02*
X051419Y007493D01*
X051419Y007538D01*
X051464Y007583D01*
X051554Y007583D01*
X051599Y007538D01*
X051305Y007538D02*
X051260Y007583D01*
X051170Y007583D01*
X051125Y007538D01*
X051125Y007358D01*
X051170Y007313D01*
X051260Y007313D01*
X051305Y007358D01*
X051305Y007538D01*
X051010Y007583D02*
X051010Y007313D01*
X050830Y007313D02*
X050830Y007583D01*
X050920Y007493D01*
X051010Y007583D01*
X051439Y006683D02*
X052028Y006683D01*
X051894Y006583D02*
X051804Y006583D01*
X051759Y006538D01*
X051759Y006493D01*
X051804Y006448D01*
X051894Y006448D01*
X051939Y006403D01*
X051939Y006358D01*
X051894Y006313D01*
X051804Y006313D01*
X051759Y006358D01*
X051644Y006358D02*
X051599Y006313D01*
X051509Y006313D01*
X051464Y006358D01*
X051464Y006538D01*
X051509Y006583D01*
X051599Y006583D01*
X051644Y006538D01*
X051894Y006583D02*
X051939Y006538D01*
X051349Y006313D02*
X051169Y006313D01*
X051259Y006313D02*
X051259Y006583D01*
X051169Y006493D01*
X051055Y006538D02*
X051010Y006583D01*
X050920Y006583D01*
X050875Y006538D01*
X050875Y006358D01*
X050920Y006313D01*
X051010Y006313D01*
X051055Y006358D01*
X050760Y006583D02*
X050580Y006583D01*
X050670Y006583D02*
X050670Y006313D01*
X055080Y006358D02*
X055125Y006313D01*
X055215Y006313D01*
X055260Y006358D01*
X055260Y006448D01*
X055170Y006448D01*
X055080Y006538D02*
X055080Y006358D01*
X055080Y006538D02*
X055125Y006583D01*
X055215Y006583D01*
X055260Y006538D01*
X055375Y006583D02*
X055555Y006313D01*
X055555Y006583D01*
X055669Y006583D02*
X055804Y006583D01*
X055849Y006538D01*
X055849Y006358D01*
X055804Y006313D01*
X055669Y006313D01*
X055669Y006583D01*
X055375Y006583D02*
X055375Y006313D01*
X055420Y007313D02*
X055510Y007313D01*
X055555Y007358D01*
X055669Y007313D02*
X055669Y007583D01*
X055555Y007538D02*
X055510Y007583D01*
X055420Y007583D01*
X055375Y007538D01*
X055375Y007358D01*
X055420Y007313D01*
X055260Y007358D02*
X055215Y007313D01*
X055125Y007313D01*
X055080Y007358D01*
X055125Y007448D02*
X055215Y007448D01*
X055260Y007403D01*
X055260Y007358D01*
X055125Y007448D02*
X055080Y007493D01*
X055080Y007538D01*
X055125Y007583D01*
X055215Y007583D01*
X055260Y007538D01*
X055669Y007403D02*
X055849Y007583D01*
X055714Y007448D02*
X055849Y007313D01*
X055911Y008313D02*
X056001Y008313D01*
X056046Y008358D01*
X056046Y008538D01*
X056001Y008583D01*
X055911Y008583D01*
X055866Y008538D01*
X055866Y008358D01*
X055911Y008313D01*
X055751Y008358D02*
X055706Y008313D01*
X055616Y008313D01*
X055571Y008358D01*
X055616Y008448D02*
X055706Y008448D01*
X055751Y008403D01*
X055751Y008358D01*
X055616Y008448D02*
X055571Y008493D01*
X055571Y008538D01*
X055616Y008583D01*
X055706Y008583D01*
X055751Y008538D01*
X055465Y008583D02*
X055375Y008583D01*
X055420Y008583D02*
X055420Y008313D01*
X055375Y008313D02*
X055465Y008313D01*
X055260Y008313D02*
X055260Y008583D01*
X055170Y008493D01*
X055080Y008583D01*
X055080Y008313D01*
X055170Y009358D02*
X055170Y009538D01*
X055080Y009448D02*
X055260Y009448D01*
X055375Y009448D02*
X055465Y009493D01*
X055510Y009493D01*
X055555Y009448D01*
X055555Y009358D01*
X055510Y009313D01*
X055420Y009313D01*
X055375Y009358D01*
X055375Y009448D02*
X055375Y009583D01*
X055555Y009583D01*
X055669Y009583D02*
X055669Y009403D01*
X055759Y009313D01*
X055849Y009403D01*
X055849Y009583D01*
X055849Y010313D02*
X055669Y010313D01*
X055849Y010493D01*
X055849Y010538D01*
X055804Y010583D01*
X055714Y010583D01*
X055669Y010538D01*
X055555Y010538D02*
X055510Y010583D01*
X055420Y010583D01*
X055375Y010538D01*
X055375Y010358D01*
X055420Y010313D01*
X055510Y010313D01*
X055555Y010358D01*
X055260Y010583D02*
X055080Y010583D01*
X055170Y010583D02*
X055170Y010313D01*
X055215Y011313D02*
X055080Y011313D01*
X055080Y011583D01*
X055215Y011583D01*
X055260Y011538D01*
X055260Y011493D01*
X055215Y011448D01*
X055080Y011448D01*
X055215Y011448D02*
X055260Y011403D01*
X055260Y011358D01*
X055215Y011313D01*
X055215Y012313D02*
X055080Y012313D01*
X055080Y012583D01*
X055215Y012583D01*
X055260Y012538D01*
X055260Y012493D01*
X055215Y012448D01*
X055080Y012448D01*
X055215Y012448D02*
X055260Y012403D01*
X055260Y012358D01*
X055215Y012313D01*
X055375Y012358D02*
X055420Y012313D01*
X055510Y012313D01*
X055555Y012358D01*
X055555Y012583D01*
X055669Y012583D02*
X055849Y012583D01*
X055849Y012538D01*
X055669Y012358D01*
X055669Y012313D01*
X055849Y012313D01*
X055375Y012358D02*
X055375Y012583D01*
X055375Y013313D02*
X055375Y013358D01*
X055555Y013538D01*
X055555Y013583D01*
X055375Y013583D01*
X055260Y013538D02*
X055215Y013583D01*
X055080Y013583D01*
X055080Y013313D01*
X055215Y013313D01*
X055260Y013358D01*
X055260Y013538D01*
X055215Y014313D02*
X055080Y014313D01*
X055080Y014583D01*
X055215Y014583D01*
X055260Y014538D01*
X055260Y014358D01*
X055215Y014313D01*
X055375Y014358D02*
X055420Y014313D01*
X055510Y014313D01*
X055555Y014358D01*
X055555Y014448D01*
X055510Y014493D01*
X055465Y014493D01*
X055375Y014448D01*
X055375Y014583D01*
X055555Y014583D01*
X055555Y015313D02*
X055555Y015583D01*
X055375Y015583D02*
X055555Y015313D01*
X055375Y015313D02*
X055375Y015583D01*
X055260Y015583D02*
X055080Y015583D01*
X055080Y015313D01*
X055260Y015313D01*
X055170Y015448D02*
X055080Y015448D01*
X040854Y009868D02*
X040719Y009778D01*
X040854Y009688D01*
X040719Y009688D02*
X040719Y009958D01*
X040605Y009913D02*
X040425Y009733D01*
X040470Y009688D01*
X040560Y009688D01*
X040605Y009733D01*
X040605Y009913D01*
X040560Y009958D01*
X040470Y009958D01*
X040425Y009913D01*
X040425Y009733D01*
X040310Y009688D02*
X040130Y009688D01*
X040220Y009688D02*
X040220Y009958D01*
X040130Y009868D01*
X029000Y005488D02*
X029000Y005188D01*
X028950Y005188D02*
X029050Y005188D01*
X028828Y005188D02*
X028828Y005338D01*
X028778Y005388D01*
X028678Y005388D01*
X028628Y005338D01*
X028505Y005338D02*
X028455Y005388D01*
X028355Y005388D01*
X028305Y005338D01*
X028305Y005238D01*
X028355Y005188D01*
X028455Y005188D01*
X028505Y005238D01*
X028505Y005338D01*
X028628Y005488D02*
X028628Y005188D01*
X028950Y005488D02*
X029000Y005488D01*
X028183Y005338D02*
X028183Y005188D01*
X028183Y005338D02*
X028133Y005388D01*
X027983Y005388D01*
X027983Y005188D01*
X027865Y005388D02*
X027815Y005388D01*
X027714Y005288D01*
X027714Y005188D02*
X027714Y005388D01*
X027592Y005338D02*
X027592Y005288D01*
X027392Y005288D01*
X027392Y005238D02*
X027392Y005338D01*
X027442Y005388D01*
X027542Y005388D01*
X027592Y005338D01*
X027542Y005188D02*
X027442Y005188D01*
X027392Y005238D01*
X027270Y005188D02*
X027120Y005188D01*
X027070Y005238D01*
X027070Y005338D01*
X027120Y005388D01*
X027270Y005388D01*
X026948Y005488D02*
X026748Y005188D01*
X026626Y005188D02*
X026475Y005188D01*
X026425Y005238D01*
X026425Y005338D01*
X026475Y005388D01*
X026626Y005388D01*
X026626Y005138D01*
X026575Y005088D01*
X026525Y005088D01*
X026307Y005388D02*
X026257Y005388D01*
X026157Y005288D01*
X026157Y005188D02*
X026157Y005388D01*
X026035Y005338D02*
X026035Y005238D01*
X025985Y005188D01*
X025885Y005188D01*
X025835Y005238D01*
X025835Y005338D01*
X025885Y005388D01*
X025985Y005388D01*
X026035Y005338D01*
X025723Y005238D02*
X025723Y005188D01*
X025673Y005188D01*
X025673Y005238D01*
X025723Y005238D01*
X025555Y005388D02*
X025505Y005388D01*
X025405Y005288D01*
X025405Y005188D02*
X025405Y005388D01*
X025283Y005388D02*
X025283Y005238D01*
X025233Y005188D01*
X025183Y005238D01*
X025133Y005188D01*
X025083Y005238D01*
X025083Y005388D01*
X024960Y005338D02*
X024960Y005188D01*
X024960Y005338D02*
X024910Y005388D01*
X024810Y005388D01*
X024760Y005338D01*
X024638Y005338D02*
X024588Y005388D01*
X024488Y005388D01*
X024438Y005338D01*
X024438Y005238D01*
X024488Y005188D01*
X024588Y005188D01*
X024638Y005238D01*
X024638Y005338D01*
X024760Y005488D02*
X024760Y005188D01*
X024316Y005488D02*
X024116Y005188D01*
X023793Y005188D02*
X023994Y005488D01*
X023682Y005388D02*
X023682Y005338D01*
X023632Y005338D01*
X023632Y005388D01*
X023682Y005388D01*
X023682Y005238D02*
X023682Y005188D01*
X023632Y005188D01*
X023632Y005238D01*
X023682Y005238D01*
X023510Y005238D02*
X023510Y005338D01*
X023460Y005388D01*
X023310Y005388D01*
X023310Y005088D01*
X023310Y005188D02*
X023460Y005188D01*
X023510Y005238D01*
X023195Y005188D02*
X023145Y005238D01*
X023145Y005438D01*
X023095Y005388D02*
X023195Y005388D01*
X022980Y005388D02*
X022880Y005388D01*
X022930Y005438D02*
X022930Y005238D01*
X022980Y005188D01*
X022758Y005188D02*
X022758Y005338D01*
X022708Y005388D01*
X022608Y005388D01*
X022558Y005338D01*
X022558Y005488D02*
X022558Y005188D01*
X022125Y005188D02*
X022075Y005188D01*
X022075Y005238D01*
X022125Y005238D01*
X022125Y005188D01*
X022125Y005338D02*
X022075Y005338D01*
X022075Y005388D01*
X022125Y005388D01*
X022125Y005338D01*
X021953Y005338D02*
X021953Y005288D01*
X021752Y005288D01*
X021752Y005238D02*
X021752Y005338D01*
X021802Y005388D01*
X021903Y005388D01*
X021953Y005338D01*
X021903Y005188D02*
X021802Y005188D01*
X021752Y005238D01*
X021630Y005238D02*
X021580Y005288D01*
X021480Y005288D01*
X021430Y005338D01*
X021480Y005388D01*
X021630Y005388D01*
X021630Y005238D02*
X021580Y005188D01*
X021430Y005188D01*
X021308Y005188D02*
X021308Y005338D01*
X021258Y005388D01*
X021108Y005388D01*
X021108Y005188D01*
X020986Y005288D02*
X020786Y005288D01*
X020786Y005238D02*
X020786Y005338D01*
X020836Y005388D01*
X020936Y005388D01*
X020986Y005338D01*
X020986Y005288D01*
X020936Y005188D02*
X020836Y005188D01*
X020786Y005238D01*
X020663Y005188D02*
X020513Y005188D01*
X020463Y005238D01*
X020463Y005338D01*
X020513Y005388D01*
X020663Y005388D01*
X020298Y005388D02*
X020298Y005188D01*
X020248Y005188D02*
X020349Y005188D01*
X020298Y005388D02*
X020248Y005388D01*
X020298Y005488D02*
X020298Y005538D01*
X019926Y005488D02*
X019926Y005188D01*
X020126Y005188D01*
X019482Y005288D02*
X019482Y005338D01*
X019432Y005388D01*
X019332Y005388D01*
X019282Y005338D01*
X019282Y005238D01*
X019332Y005188D01*
X019432Y005188D01*
X019482Y005288D02*
X019282Y005288D01*
X019163Y005388D02*
X019113Y005388D01*
X019013Y005288D01*
X019013Y005188D02*
X019013Y005388D01*
X018891Y005338D02*
X018891Y005188D01*
X018741Y005188D01*
X018691Y005238D01*
X018741Y005288D01*
X018891Y005288D01*
X018891Y005338D02*
X018841Y005388D01*
X018741Y005388D01*
X018569Y005388D02*
X018569Y005238D01*
X018519Y005188D01*
X018469Y005238D01*
X018419Y005188D01*
X018369Y005238D01*
X018369Y005388D01*
X018246Y005388D02*
X018096Y005388D01*
X018046Y005338D01*
X018046Y005238D01*
X018096Y005188D01*
X018246Y005188D01*
X018246Y005488D01*
X017928Y005388D02*
X017878Y005388D01*
X017778Y005288D01*
X017778Y005188D02*
X017778Y005388D01*
X017656Y005338D02*
X017656Y005188D01*
X017505Y005188D01*
X017455Y005238D01*
X017505Y005288D01*
X017656Y005288D01*
X017656Y005338D02*
X017606Y005388D01*
X017505Y005388D01*
X017333Y005338D02*
X017133Y005338D01*
X017133Y005188D02*
X017133Y005488D01*
X017333Y005488D02*
X017333Y005188D01*
X016689Y005188D02*
X016689Y005338D01*
X016639Y005388D01*
X016489Y005388D01*
X016489Y005188D01*
X016366Y005288D02*
X016166Y005288D01*
X016166Y005238D02*
X016166Y005338D01*
X016216Y005388D01*
X016316Y005388D01*
X016366Y005338D01*
X016366Y005288D01*
X016316Y005188D02*
X016216Y005188D01*
X016166Y005238D01*
X016044Y005238D02*
X015994Y005188D01*
X015844Y005188D01*
X015844Y005088D02*
X015844Y005388D01*
X015994Y005388D01*
X016044Y005338D01*
X016044Y005238D01*
X015722Y005238D02*
X015722Y005438D01*
X015672Y005488D01*
X015572Y005488D01*
X015522Y005438D01*
X015522Y005238D01*
X015572Y005188D01*
X015672Y005188D01*
X015722Y005238D01*
X015077Y005188D02*
X015077Y005488D01*
X014877Y005488D02*
X015077Y005188D01*
X014877Y005188D02*
X014877Y005488D01*
X014755Y005438D02*
X014755Y005338D01*
X014705Y005288D01*
X014555Y005288D01*
X014655Y005288D02*
X014755Y005188D01*
X014555Y005188D02*
X014555Y005488D01*
X014705Y005488D01*
X014755Y005438D01*
X014433Y005488D02*
X014233Y005488D01*
X014233Y005188D01*
X014433Y005188D01*
X014333Y005338D02*
X014233Y005338D01*
X014111Y005238D02*
X014060Y005188D01*
X013960Y005188D01*
X013910Y005238D01*
X013910Y005438D01*
X013960Y005488D01*
X014060Y005488D01*
X014111Y005438D01*
X014064Y005938D02*
X013964Y005938D01*
X014014Y005938D02*
X014014Y006138D01*
X013964Y006138D01*
X014014Y006238D02*
X014014Y006288D01*
X013842Y006238D02*
X013842Y005938D01*
X013692Y005938D01*
X013642Y005988D01*
X013642Y006088D01*
X013692Y006138D01*
X013842Y006138D01*
X013520Y006188D02*
X013470Y006238D01*
X013370Y006238D01*
X013320Y006188D01*
X013320Y006138D01*
X013370Y006088D01*
X013470Y006088D01*
X013520Y006038D01*
X013520Y005988D01*
X013470Y005938D01*
X013370Y005938D01*
X013320Y005988D01*
X013197Y006088D02*
X013147Y006038D01*
X012997Y006038D01*
X012997Y005938D02*
X012997Y006238D01*
X013147Y006238D01*
X013197Y006188D01*
X013197Y006088D01*
X012875Y006238D02*
X012875Y005938D01*
X012675Y005938D02*
X012675Y006238D01*
X012775Y006138D01*
X012875Y006238D01*
X012553Y006138D02*
X012553Y005938D01*
X012553Y006088D02*
X012353Y006088D01*
X012353Y006138D02*
X012453Y006238D01*
X012553Y006138D01*
X012353Y006138D02*
X012353Y005938D01*
X012231Y005938D02*
X012131Y006038D01*
X012181Y006038D02*
X012030Y006038D01*
X012030Y005938D02*
X012030Y006238D01*
X012181Y006238D01*
X012231Y006188D01*
X012231Y006088D01*
X012181Y006038D01*
X011908Y006238D02*
X011708Y005938D01*
X011586Y005938D02*
X011586Y006088D01*
X011536Y006138D01*
X011386Y006138D01*
X011386Y005938D01*
X011264Y005988D02*
X011214Y005938D01*
X011114Y005938D01*
X011064Y005988D01*
X011064Y006088D01*
X011114Y006138D01*
X011214Y006138D01*
X011264Y006088D01*
X011264Y005988D01*
X010949Y005938D02*
X010899Y005988D01*
X010899Y006188D01*
X010849Y006138D02*
X010949Y006138D01*
X010727Y006138D02*
X010577Y006138D01*
X010526Y006088D01*
X010577Y006038D01*
X010677Y006038D01*
X010727Y005988D01*
X010677Y005938D01*
X010526Y005938D01*
X010404Y006038D02*
X010204Y006038D01*
X010204Y005988D02*
X010204Y006088D01*
X010254Y006138D01*
X010354Y006138D01*
X010404Y006088D01*
X010404Y006038D01*
X010354Y005938D02*
X010254Y005938D01*
X010204Y005988D01*
X010082Y005988D02*
X010082Y006138D01*
X010082Y005988D02*
X010032Y005938D01*
X009982Y005988D01*
X009932Y005938D01*
X009882Y005988D01*
X009882Y006138D01*
X009760Y006088D02*
X009760Y006038D01*
X009560Y006038D01*
X009560Y005988D02*
X009560Y006088D01*
X009610Y006138D01*
X009710Y006138D01*
X009760Y006088D01*
X009710Y005938D02*
X009610Y005938D01*
X009560Y005988D01*
X009441Y005938D02*
X009291Y006038D01*
X009441Y006138D01*
X009291Y006238D02*
X009291Y005938D01*
X009169Y005938D02*
X009169Y006138D01*
X009169Y005938D02*
X009019Y005938D01*
X008969Y005988D01*
X008969Y006138D01*
X008804Y006238D02*
X008804Y005938D01*
X008754Y005938D02*
X008854Y005938D01*
X008804Y006238D02*
X008754Y006238D01*
X008632Y006238D02*
X008432Y005938D01*
X008310Y005938D02*
X008310Y006088D01*
X008260Y006138D01*
X008210Y006088D01*
X008210Y005938D01*
X008109Y005938D02*
X008109Y006138D01*
X008159Y006138D01*
X008210Y006088D01*
X007987Y006088D02*
X007937Y006138D01*
X007837Y006138D01*
X007787Y006088D01*
X007787Y005988D01*
X007837Y005938D01*
X007937Y005938D01*
X007987Y005988D01*
X007987Y006088D01*
X007665Y006138D02*
X007515Y006138D01*
X007465Y006088D01*
X007465Y005988D01*
X007515Y005938D01*
X007665Y005938D01*
X007354Y005938D02*
X007304Y005938D01*
X007304Y005988D01*
X007354Y005988D01*
X007354Y005938D01*
X007182Y005988D02*
X007182Y006088D01*
X007132Y006138D01*
X006981Y006138D01*
X006981Y006238D02*
X006981Y005938D01*
X007132Y005938D01*
X007182Y005988D01*
X006859Y005938D02*
X006859Y006138D01*
X006659Y006138D02*
X006659Y005988D01*
X006709Y005938D01*
X006859Y005938D01*
X006537Y005938D02*
X006537Y006088D01*
X006487Y006138D01*
X006387Y006138D01*
X006337Y006088D01*
X006222Y006138D02*
X006122Y006138D01*
X006172Y006188D02*
X006172Y005988D01*
X006222Y005938D01*
X006337Y005938D02*
X006337Y006238D01*
X005957Y006238D02*
X005957Y006288D01*
X005957Y006138D02*
X005957Y005938D01*
X005907Y005938D02*
X006007Y005938D01*
X005957Y006138D02*
X005907Y006138D01*
X005785Y006138D02*
X005635Y006138D01*
X005585Y006088D01*
X005585Y005988D01*
X005635Y005938D01*
X005785Y005938D01*
X005785Y005888D02*
X005785Y006138D01*
X005785Y005888D02*
X005735Y005838D01*
X005685Y005838D01*
X005517Y005488D02*
X005517Y005188D01*
X005639Y005238D02*
X005689Y005288D01*
X005839Y005288D01*
X005839Y005338D02*
X005839Y005188D01*
X005689Y005188D01*
X005639Y005238D01*
X005689Y005388D02*
X005789Y005388D01*
X005839Y005338D01*
X005961Y005288D02*
X006061Y005388D01*
X006111Y005388D01*
X006229Y005338D02*
X006280Y005388D01*
X006430Y005388D01*
X006430Y005488D02*
X006430Y005188D01*
X006280Y005188D01*
X006229Y005238D01*
X006229Y005338D01*
X005961Y005388D02*
X005961Y005188D01*
X005517Y005338D02*
X005316Y005338D01*
X005316Y005188D02*
X005316Y005488D01*
X005263Y005938D02*
X005463Y006238D01*
X005141Y006238D02*
X004940Y005938D01*
X004829Y005938D02*
X004829Y005988D01*
X004779Y005988D01*
X004779Y005938D01*
X004829Y005938D01*
X004829Y006088D02*
X004779Y006088D01*
X004779Y006138D01*
X004829Y006138D01*
X004829Y006088D01*
X004657Y006088D02*
X004657Y005988D01*
X004607Y005938D01*
X004457Y005938D01*
X004457Y005838D02*
X004457Y006138D01*
X004607Y006138D01*
X004657Y006088D01*
X004342Y006138D02*
X004242Y006138D01*
X004292Y006188D02*
X004292Y005988D01*
X004342Y005938D01*
X004127Y005938D02*
X004077Y005988D01*
X004077Y006188D01*
X004027Y006138D02*
X004127Y006138D01*
X003905Y006088D02*
X003905Y005938D01*
X003905Y006088D02*
X003855Y006138D01*
X003755Y006138D01*
X003705Y006088D01*
X003705Y006238D02*
X003705Y005938D01*
X003755Y005488D02*
X003705Y005438D01*
X003705Y005238D01*
X003755Y005188D01*
X003855Y005188D01*
X003905Y005238D01*
X003905Y005438D01*
X003855Y005488D01*
X003755Y005488D01*
X004027Y005388D02*
X004177Y005388D01*
X004227Y005338D01*
X004227Y005238D01*
X004177Y005188D01*
X004027Y005188D01*
X004027Y005088D02*
X004027Y005388D01*
X004350Y005338D02*
X004350Y005238D01*
X004400Y005188D01*
X004500Y005188D01*
X004550Y005288D02*
X004350Y005288D01*
X004350Y005338D02*
X004400Y005388D01*
X004500Y005388D01*
X004550Y005338D01*
X004550Y005288D01*
X004672Y005188D02*
X004672Y005388D01*
X004822Y005388D01*
X004872Y005338D01*
X004872Y005188D01*
X006552Y005238D02*
X006602Y005188D01*
X006652Y005238D01*
X006702Y005188D01*
X006752Y005238D01*
X006752Y005388D01*
X006924Y005388D02*
X007024Y005388D01*
X007074Y005338D01*
X007074Y005188D01*
X006924Y005188D01*
X006874Y005238D01*
X006924Y005288D01*
X007074Y005288D01*
X007196Y005288D02*
X007296Y005388D01*
X007346Y005388D01*
X007465Y005338D02*
X007515Y005388D01*
X007615Y005388D01*
X007665Y005338D01*
X007665Y005288D01*
X007465Y005288D01*
X007465Y005238D02*
X007465Y005338D01*
X007465Y005238D02*
X007515Y005188D01*
X007615Y005188D01*
X007196Y005188D02*
X007196Y005388D01*
X006552Y005388D02*
X006552Y005238D01*
X008109Y005188D02*
X008109Y005388D01*
X008109Y005288D02*
X008210Y005388D01*
X008260Y005388D01*
X008378Y005338D02*
X008428Y005388D01*
X008528Y005388D01*
X008578Y005338D01*
X008578Y005288D01*
X008378Y005288D01*
X008378Y005238D02*
X008378Y005338D01*
X008378Y005238D02*
X008428Y005188D01*
X008528Y005188D01*
X008700Y005188D02*
X008800Y005188D01*
X008750Y005188D02*
X008750Y005488D01*
X008700Y005488D01*
X008915Y005338D02*
X008965Y005388D01*
X009065Y005388D01*
X009115Y005338D01*
X009115Y005288D01*
X008915Y005288D01*
X008915Y005238D02*
X008915Y005338D01*
X008915Y005238D02*
X008965Y005188D01*
X009065Y005188D01*
X009237Y005238D02*
X009287Y005288D01*
X009438Y005288D01*
X009438Y005338D02*
X009438Y005188D01*
X009287Y005188D01*
X009237Y005238D01*
X009287Y005388D02*
X009388Y005388D01*
X009438Y005338D01*
X009560Y005338D02*
X009610Y005388D01*
X009760Y005388D01*
X009710Y005288D02*
X009610Y005288D01*
X009560Y005338D01*
X009560Y005188D02*
X009710Y005188D01*
X009760Y005238D01*
X009710Y005288D01*
X009882Y005288D02*
X010082Y005288D01*
X010082Y005338D01*
X010032Y005388D01*
X009932Y005388D01*
X009882Y005338D01*
X009882Y005238D01*
X009932Y005188D01*
X010032Y005188D01*
X010204Y005238D02*
X010204Y005338D01*
X010254Y005388D01*
X010404Y005388D01*
X010404Y005488D02*
X010404Y005188D01*
X010254Y005188D01*
X010204Y005238D01*
X010849Y005238D02*
X010849Y005388D01*
X010849Y005238D02*
X010899Y005188D01*
X011049Y005188D01*
X011049Y005388D01*
X011171Y005388D02*
X011321Y005388D01*
X011371Y005338D01*
X011371Y005188D01*
X011493Y005238D02*
X011493Y005338D01*
X011543Y005388D01*
X011693Y005388D01*
X011693Y005488D02*
X011693Y005188D01*
X011543Y005188D01*
X011493Y005238D01*
X011816Y005238D02*
X011816Y005338D01*
X011866Y005388D01*
X011966Y005388D01*
X012016Y005338D01*
X012016Y005288D01*
X011816Y005288D01*
X011816Y005238D02*
X011866Y005188D01*
X011966Y005188D01*
X012138Y005188D02*
X012138Y005388D01*
X012138Y005288D02*
X012238Y005388D01*
X012288Y005388D01*
X012729Y005388D02*
X012829Y005388D01*
X012779Y005438D02*
X012779Y005238D01*
X012829Y005188D01*
X012944Y005188D02*
X012944Y005488D01*
X012994Y005388D02*
X013094Y005388D01*
X013144Y005338D01*
X013144Y005188D01*
X013266Y005238D02*
X013266Y005338D01*
X013316Y005388D01*
X013416Y005388D01*
X013466Y005338D01*
X013466Y005288D01*
X013266Y005288D01*
X013266Y005238D02*
X013316Y005188D01*
X013416Y005188D01*
X012994Y005388D02*
X012944Y005338D01*
X014179Y005938D02*
X014329Y005938D01*
X014379Y005988D01*
X014329Y006038D01*
X014229Y006038D01*
X014179Y006088D01*
X014229Y006138D01*
X014379Y006138D01*
X014501Y006138D02*
X014651Y006138D01*
X014701Y006088D01*
X014701Y005988D01*
X014651Y005938D01*
X014501Y005938D01*
X014501Y005838D02*
X014501Y006138D01*
X014823Y006238D02*
X014874Y006238D01*
X014874Y005938D01*
X014924Y005938D02*
X014823Y005938D01*
X015038Y005988D02*
X015088Y005938D01*
X015239Y005938D01*
X015239Y006088D01*
X015188Y006138D01*
X015088Y006138D01*
X015088Y006038D02*
X015239Y006038D01*
X015361Y005988D02*
X015411Y005938D01*
X015561Y005938D01*
X015561Y005888D02*
X015511Y005838D01*
X015461Y005838D01*
X015561Y005888D02*
X015561Y006138D01*
X015361Y006138D02*
X015361Y005988D01*
X015088Y006038D02*
X015038Y005988D01*
X011171Y005388D02*
X011171Y005188D01*
X008793Y006688D02*
X008593Y006688D01*
X008793Y006888D01*
X008793Y006938D01*
X008743Y006988D01*
X008643Y006988D01*
X008593Y006938D01*
X008371Y006988D02*
X008371Y006688D01*
X008271Y006688D02*
X008471Y006688D01*
X008271Y006888D02*
X008371Y006988D01*
X008148Y006938D02*
X008098Y006988D01*
X007998Y006988D01*
X007948Y006938D01*
X007948Y006738D01*
X008148Y006938D01*
X008148Y006738D01*
X008098Y006688D01*
X007998Y006688D01*
X007948Y006738D01*
X007826Y006688D02*
X007626Y006688D01*
X007826Y006888D01*
X007826Y006938D01*
X007776Y006988D01*
X007676Y006988D01*
X007626Y006938D01*
X007189Y006738D02*
X007139Y006738D01*
X007139Y006688D01*
X007189Y006688D01*
X007189Y006738D01*
X007189Y006688D02*
X007089Y006588D01*
X006967Y006688D02*
X006967Y006838D01*
X006917Y006888D01*
X006767Y006888D01*
X006767Y006688D01*
X006645Y006738D02*
X006645Y006838D01*
X006594Y006888D01*
X006494Y006888D01*
X006444Y006838D01*
X006444Y006738D01*
X006494Y006688D01*
X006594Y006688D01*
X006645Y006738D01*
X006330Y006688D02*
X006280Y006738D01*
X006280Y006938D01*
X006330Y006888D02*
X006229Y006888D01*
X006107Y006888D02*
X005957Y006888D01*
X005907Y006838D01*
X005957Y006788D01*
X006057Y006788D01*
X006107Y006738D01*
X006057Y006688D01*
X005907Y006688D01*
X005785Y006788D02*
X005585Y006788D01*
X005585Y006738D02*
X005585Y006838D01*
X005635Y006888D01*
X005735Y006888D01*
X005785Y006838D01*
X005785Y006788D01*
X005735Y006688D02*
X005635Y006688D01*
X005585Y006738D01*
X005463Y006688D02*
X005463Y006988D01*
X005263Y006988D02*
X005263Y006688D01*
X005363Y006788D01*
X005463Y006688D01*
X004818Y006788D02*
X004618Y006788D01*
X004618Y006738D02*
X004618Y006838D01*
X004668Y006888D01*
X004768Y006888D01*
X004818Y006838D01*
X004818Y006788D01*
X004768Y006688D02*
X004668Y006688D01*
X004618Y006738D01*
X004500Y006688D02*
X004350Y006788D01*
X004500Y006888D01*
X004350Y006988D02*
X004350Y006688D01*
X004227Y006688D02*
X004227Y006888D01*
X004027Y006888D02*
X004027Y006738D01*
X004077Y006688D01*
X004227Y006688D01*
X003905Y006688D02*
X003705Y006688D01*
X003705Y006988D01*
X003635Y026813D02*
X003545Y026813D01*
X003500Y026858D01*
X003680Y027038D01*
X003680Y026858D01*
X003635Y026813D01*
X003500Y026858D02*
X003500Y027038D01*
X003545Y027083D01*
X003635Y027083D01*
X003680Y027038D01*
X003385Y026813D02*
X003205Y026813D01*
X003295Y026813D02*
X003295Y027083D01*
X003205Y026993D01*
X004089Y026903D02*
X004224Y026993D01*
X004089Y026903D02*
X004224Y026813D01*
X004089Y026813D02*
X004089Y027083D01*
X005105Y027018D02*
X005195Y027108D01*
X005195Y026838D01*
X005105Y026838D02*
X005285Y026838D01*
X005305Y028813D02*
X005305Y029083D01*
X005419Y029083D02*
X005554Y029083D01*
X005599Y029038D01*
X005599Y028858D01*
X005554Y028813D01*
X005419Y028813D01*
X005419Y029083D01*
X005305Y028813D02*
X005125Y029083D01*
X005125Y028813D01*
X005010Y028858D02*
X005010Y028948D01*
X004920Y028948D01*
X004830Y028858D02*
X004875Y028813D01*
X004965Y028813D01*
X005010Y028858D01*
X004830Y028858D02*
X004830Y029038D01*
X004875Y029083D01*
X004965Y029083D01*
X005010Y029038D01*
X005830Y029083D02*
X005830Y028903D01*
X005920Y028813D01*
X006010Y028903D01*
X006010Y029083D01*
X006125Y029083D02*
X006260Y029083D01*
X006305Y029038D01*
X006305Y028858D01*
X006260Y028813D01*
X006125Y028813D01*
X006125Y029083D01*
X006419Y029083D02*
X006554Y029083D01*
X006599Y029038D01*
X006599Y028858D01*
X006554Y028813D01*
X006419Y028813D01*
X006419Y029083D01*
X006830Y029038D02*
X006830Y028858D01*
X006875Y028813D01*
X006965Y028813D01*
X007010Y028858D01*
X007125Y028858D02*
X007170Y028813D01*
X007260Y028813D01*
X007305Y028858D01*
X007305Y029038D01*
X007260Y029083D01*
X007170Y029083D01*
X007125Y029038D01*
X007125Y028858D01*
X007010Y029038D02*
X006965Y029083D01*
X006875Y029083D01*
X006830Y029038D01*
X007419Y029083D02*
X007599Y028813D01*
X007599Y029083D01*
X007419Y029083D02*
X007419Y028813D01*
X007955Y028813D02*
X007955Y029083D01*
X008090Y029083D01*
X008135Y029038D01*
X008135Y028948D01*
X008090Y028903D01*
X007955Y028903D01*
X008045Y028903D02*
X008135Y028813D01*
X008250Y028858D02*
X008295Y028813D01*
X008385Y028813D01*
X008430Y028858D01*
X008430Y028903D01*
X008385Y028948D01*
X008295Y028948D01*
X008250Y028993D01*
X008250Y029038D01*
X008295Y029083D01*
X008385Y029083D01*
X008430Y029038D01*
X008830Y029083D02*
X008965Y029083D01*
X009010Y029038D01*
X009010Y028948D01*
X008965Y028903D01*
X008830Y028903D01*
X008830Y028813D02*
X008830Y029083D01*
X008920Y028903D02*
X009010Y028813D01*
X009125Y028813D02*
X009305Y029083D01*
X009419Y029083D02*
X009419Y028813D01*
X009509Y028903D01*
X009599Y028813D01*
X009599Y029083D01*
X009955Y029083D02*
X009955Y028813D01*
X010135Y028813D01*
X010250Y028813D02*
X010250Y029083D01*
X010430Y028813D01*
X010430Y029083D01*
X010135Y029083D02*
X009955Y029083D01*
X009955Y028948D02*
X010045Y028948D01*
X029830Y029983D02*
X029875Y029938D01*
X029965Y029938D01*
X030010Y029983D01*
X030010Y030028D01*
X029965Y030073D01*
X029875Y030073D01*
X029830Y030118D01*
X029830Y030163D01*
X029875Y030208D01*
X029965Y030208D01*
X030010Y030163D01*
X030125Y030208D02*
X030260Y030208D01*
X030305Y030163D01*
X030305Y029983D01*
X030260Y029938D01*
X030125Y029938D01*
X030125Y030208D01*
X030714Y029983D02*
X030759Y030028D01*
X030894Y030028D01*
X030894Y030073D02*
X030894Y029938D01*
X030759Y029938D01*
X030714Y029983D01*
X030759Y030118D02*
X030849Y030118D01*
X030894Y030073D01*
X031009Y030073D02*
X031054Y030118D01*
X031189Y030118D01*
X031303Y030118D02*
X031393Y030118D01*
X031348Y030163D02*
X031348Y029983D01*
X031393Y029938D01*
X031189Y029938D02*
X031054Y029938D01*
X031009Y029983D01*
X031009Y030073D01*
X031955Y030118D02*
X032045Y030208D01*
X032045Y029938D01*
X031955Y029938D02*
X032135Y029938D01*
X032250Y029983D02*
X032430Y030163D01*
X032430Y029983D01*
X032385Y029938D01*
X032295Y029938D01*
X032250Y029983D01*
X032250Y030163D01*
X032295Y030208D01*
X032385Y030208D01*
X032430Y030163D01*
X032839Y030208D02*
X032839Y029938D01*
X032839Y030028D02*
X032974Y030118D01*
X032839Y030028D02*
X032974Y029938D01*
X048980Y025283D02*
X051380Y025283D01*
D12*
X037410Y025982D02*
X034950Y025982D01*
X034950Y027344D01*
X037410Y027344D01*
X037410Y025982D01*
X034180Y026470D02*
X034180Y025355D01*
X034178Y025332D01*
X034173Y025309D01*
X034164Y025287D01*
X034151Y025267D01*
X034136Y025249D01*
X034118Y025234D01*
X034098Y025221D01*
X034076Y025212D01*
X034053Y025207D01*
X034030Y025205D01*
X030330Y025205D01*
X030307Y025207D01*
X030284Y025212D01*
X030262Y025221D01*
X030242Y025234D01*
X030224Y025249D01*
X030209Y025267D01*
X030196Y025287D01*
X030187Y025309D01*
X030182Y025332D01*
X030180Y025355D01*
X030180Y026471D01*
X030182Y026494D01*
X030187Y026517D01*
X030196Y026539D01*
X030209Y026559D01*
X030224Y026577D01*
X030242Y026592D01*
X030262Y026605D01*
X030284Y026614D01*
X030307Y026619D01*
X030330Y026621D01*
X034030Y026620D01*
X034053Y026618D01*
X034076Y026613D01*
X034098Y026604D01*
X034118Y026591D01*
X034136Y026576D01*
X034151Y026558D01*
X034164Y026538D01*
X034173Y026516D01*
X034178Y026493D01*
X034180Y026470D01*
X036430Y017663D02*
X036432Y017707D01*
X036438Y017751D01*
X036448Y017794D01*
X036461Y017836D01*
X036478Y017877D01*
X036499Y017916D01*
X036523Y017953D01*
X036550Y017988D01*
X036580Y018020D01*
X036613Y018050D01*
X036649Y018076D01*
X036686Y018100D01*
X036726Y018119D01*
X036767Y018136D01*
X036810Y018148D01*
X036853Y018157D01*
X036897Y018162D01*
X036941Y018163D01*
X036985Y018160D01*
X037029Y018153D01*
X037072Y018142D01*
X037114Y018128D01*
X037154Y018110D01*
X037193Y018088D01*
X037229Y018064D01*
X037263Y018036D01*
X037295Y018005D01*
X037324Y017971D01*
X037350Y017935D01*
X037372Y017897D01*
X037391Y017857D01*
X037406Y017815D01*
X037418Y017773D01*
X037426Y017729D01*
X037430Y017685D01*
X037430Y017641D01*
X037426Y017597D01*
X037418Y017553D01*
X037406Y017511D01*
X037391Y017469D01*
X037372Y017429D01*
X037350Y017391D01*
X037324Y017355D01*
X037295Y017321D01*
X037263Y017290D01*
X037229Y017262D01*
X037193Y017238D01*
X037154Y017216D01*
X037114Y017198D01*
X037072Y017184D01*
X037029Y017173D01*
X036985Y017166D01*
X036941Y017163D01*
X036897Y017164D01*
X036853Y017169D01*
X036810Y017178D01*
X036767Y017190D01*
X036726Y017207D01*
X036686Y017226D01*
X036649Y017250D01*
X036613Y017276D01*
X036580Y017306D01*
X036550Y017338D01*
X036523Y017373D01*
X036499Y017410D01*
X036478Y017449D01*
X036461Y017490D01*
X036448Y017532D01*
X036438Y017575D01*
X036432Y017619D01*
X036430Y017663D01*
X034530Y017663D02*
X034533Y017781D01*
X034542Y017898D01*
X034556Y018015D01*
X034576Y018131D01*
X034602Y018246D01*
X034633Y018360D01*
X034670Y018472D01*
X034713Y018581D01*
X034760Y018689D01*
X034813Y018794D01*
X034871Y018897D01*
X034934Y018996D01*
X035002Y019093D01*
X035075Y019186D01*
X035152Y019275D01*
X035233Y019360D01*
X035318Y019441D01*
X035407Y019518D01*
X035500Y019591D01*
X035597Y019659D01*
X035696Y019722D01*
X035799Y019780D01*
X035904Y019833D01*
X036012Y019880D01*
X036121Y019923D01*
X036233Y019960D01*
X036347Y019991D01*
X036462Y020017D01*
X036578Y020037D01*
X036695Y020051D01*
X036812Y020060D01*
X036930Y020063D01*
X037048Y020060D01*
X037165Y020051D01*
X037282Y020037D01*
X037398Y020017D01*
X037513Y019991D01*
X037627Y019960D01*
X037739Y019923D01*
X037848Y019880D01*
X037956Y019833D01*
X038061Y019780D01*
X038164Y019722D01*
X038263Y019659D01*
X038360Y019591D01*
X038453Y019518D01*
X038542Y019441D01*
X038627Y019360D01*
X038708Y019275D01*
X038785Y019186D01*
X038858Y019093D01*
X038926Y018996D01*
X038989Y018897D01*
X039047Y018794D01*
X039100Y018689D01*
X039147Y018581D01*
X039190Y018472D01*
X039227Y018360D01*
X039258Y018246D01*
X039284Y018131D01*
X039304Y018015D01*
X039318Y017898D01*
X039327Y017781D01*
X039330Y017663D01*
X039327Y017545D01*
X039318Y017428D01*
X039304Y017311D01*
X039284Y017195D01*
X039258Y017080D01*
X039227Y016966D01*
X039190Y016854D01*
X039147Y016745D01*
X039100Y016637D01*
X039047Y016532D01*
X038989Y016429D01*
X038926Y016330D01*
X038858Y016233D01*
X038785Y016140D01*
X038708Y016051D01*
X038627Y015966D01*
X038542Y015885D01*
X038453Y015808D01*
X038360Y015735D01*
X038263Y015667D01*
X038164Y015604D01*
X038061Y015546D01*
X037956Y015493D01*
X037848Y015446D01*
X037739Y015403D01*
X037627Y015366D01*
X037513Y015335D01*
X037398Y015309D01*
X037282Y015289D01*
X037165Y015275D01*
X037048Y015266D01*
X036930Y015263D01*
X036812Y015266D01*
X036695Y015275D01*
X036578Y015289D01*
X036462Y015309D01*
X036347Y015335D01*
X036233Y015366D01*
X036121Y015403D01*
X036012Y015446D01*
X035904Y015493D01*
X035799Y015546D01*
X035696Y015604D01*
X035597Y015667D01*
X035500Y015735D01*
X035407Y015808D01*
X035318Y015885D01*
X035233Y015966D01*
X035152Y016051D01*
X035075Y016140D01*
X035002Y016233D01*
X034934Y016330D01*
X034871Y016429D01*
X034813Y016532D01*
X034760Y016637D01*
X034713Y016745D01*
X034670Y016854D01*
X034633Y016966D01*
X034602Y017080D01*
X034576Y017195D01*
X034556Y017311D01*
X034542Y017428D01*
X034533Y017545D01*
X034530Y017663D01*
X035430Y016813D02*
X035430Y016513D01*
X035130Y016663D02*
X035132Y016697D01*
X035138Y016731D01*
X035147Y016764D01*
X035161Y016795D01*
X035178Y016825D01*
X035198Y016853D01*
X035221Y016878D01*
X035247Y016901D01*
X035275Y016920D01*
X035305Y016936D01*
X035337Y016948D01*
X035370Y016957D01*
X035404Y016962D01*
X035439Y016963D01*
X035473Y016960D01*
X035506Y016953D01*
X035539Y016943D01*
X035570Y016928D01*
X035599Y016911D01*
X035626Y016890D01*
X035651Y016866D01*
X035673Y016839D01*
X035691Y016811D01*
X035706Y016780D01*
X035718Y016748D01*
X035726Y016714D01*
X035730Y016680D01*
X035730Y016646D01*
X035726Y016612D01*
X035718Y016578D01*
X035706Y016546D01*
X035691Y016515D01*
X035673Y016487D01*
X035651Y016460D01*
X035626Y016436D01*
X035599Y016415D01*
X035570Y016398D01*
X035539Y016383D01*
X035506Y016373D01*
X035473Y016366D01*
X035439Y016363D01*
X035404Y016364D01*
X035370Y016369D01*
X035337Y016378D01*
X035305Y016390D01*
X035275Y016406D01*
X035247Y016425D01*
X035221Y016448D01*
X035198Y016473D01*
X035178Y016501D01*
X035161Y016531D01*
X035147Y016562D01*
X035138Y016595D01*
X035132Y016629D01*
X035130Y016663D01*
X035280Y016663D02*
X035580Y016663D01*
X051710Y016407D02*
X051817Y016513D01*
X051817Y016193D01*
X051710Y016193D02*
X051924Y016193D01*
X052060Y015913D02*
X052060Y016563D01*
X052060Y016913D01*
X052580Y016913D01*
X053180Y016913D01*
X053680Y016913D01*
X054280Y016913D01*
X054810Y016913D01*
X054810Y016563D01*
X054810Y015913D01*
X054810Y005913D01*
X054810Y005263D01*
X054810Y004923D01*
X054280Y004923D01*
X053680Y004923D01*
X053180Y004923D01*
X052580Y004923D01*
X052060Y004923D01*
X052060Y005263D01*
X052060Y005913D01*
X052060Y015913D01*
X004330Y023863D02*
X004230Y023763D01*
X001630Y023763D01*
X001530Y023863D01*
X001530Y026463D01*
X001630Y026563D01*
X004230Y026563D01*
X004330Y026463D01*
X004330Y023863D01*
D13*
X030180Y006913D02*
X036680Y006913D01*
D14*
X029025Y006898D02*
X029025Y006848D01*
X028975Y006848D01*
X028975Y006898D01*
X029025Y006898D01*
X029025Y006748D02*
X029025Y006698D01*
X028975Y006698D01*
X028975Y006748D01*
X029025Y006748D01*
X028848Y006698D02*
X028748Y006698D01*
X028798Y006698D02*
X028798Y006998D01*
X028748Y006998D01*
X028608Y006848D02*
X028608Y006698D01*
X028457Y006698D01*
X028407Y006748D01*
X028457Y006798D01*
X028608Y006798D01*
X028608Y006848D02*
X028558Y006898D01*
X028457Y006898D01*
X028230Y006898D02*
X028230Y006698D01*
X028180Y006698D02*
X028280Y006698D01*
X028230Y006898D02*
X028180Y006898D01*
X028230Y006998D02*
X028230Y007048D01*
X028047Y006898D02*
X027996Y006898D01*
X027896Y006798D01*
X027896Y006698D02*
X027896Y006898D01*
X027756Y006848D02*
X027756Y006798D01*
X027556Y006798D01*
X027556Y006748D02*
X027556Y006848D01*
X027606Y006898D01*
X027706Y006898D01*
X027756Y006848D01*
X027706Y006698D02*
X027606Y006698D01*
X027556Y006748D01*
X027415Y006748D02*
X027365Y006698D01*
X027265Y006698D01*
X027215Y006748D01*
X027265Y006848D02*
X027365Y006848D01*
X027415Y006798D01*
X027415Y006748D01*
X027265Y006848D02*
X027215Y006898D01*
X027215Y006948D01*
X027265Y006998D01*
X027365Y006998D01*
X027415Y006948D01*
D15*
X029715Y005527D02*
X029836Y005378D01*
X029805Y005318D01*
X029784Y005254D01*
X029594Y005235D01*
X029594Y005091D01*
X029784Y005072D01*
X029805Y005008D01*
X029836Y004948D01*
X029715Y004799D01*
X029816Y004698D01*
X029965Y004819D01*
X030025Y004788D01*
X030109Y004992D01*
X030072Y005014D01*
X030040Y005043D01*
X030016Y005079D01*
X030001Y005120D01*
X029995Y005163D01*
X030001Y005207D01*
X030016Y005248D01*
X030041Y005285D01*
X030074Y005314D01*
X030113Y005335D01*
X030156Y005346D01*
X030200Y005346D01*
X030243Y005336D01*
X030282Y005316D01*
X030316Y005288D01*
X030342Y005252D01*
X030358Y005211D01*
X030364Y005167D01*
X030360Y005123D01*
X030345Y005081D01*
X030321Y005044D01*
X030567Y005044D01*
X030576Y005072D02*
X030766Y005091D01*
X030766Y005235D01*
X030576Y005254D01*
X030555Y005318D01*
X030524Y005378D01*
X030645Y005527D01*
X030544Y005628D01*
X030395Y005507D01*
X030335Y005538D01*
X030271Y005559D01*
X030252Y005749D01*
X030108Y005749D01*
X030089Y005559D01*
X030025Y005538D01*
X029965Y005507D01*
X029816Y005628D01*
X029715Y005527D01*
X029732Y005505D02*
X030628Y005505D01*
X030610Y005562D02*
X030463Y005562D01*
X030533Y005620D02*
X030552Y005620D01*
X030581Y005447D02*
X029779Y005447D01*
X029826Y005390D02*
X030534Y005390D01*
X030548Y005332D02*
X030251Y005332D01*
X030325Y005275D02*
X030569Y005275D01*
X030576Y005072D02*
X030555Y005008D01*
X030524Y004948D01*
X030645Y004799D01*
X030544Y004698D01*
X030395Y004819D01*
X030335Y004788D01*
X030251Y004992D01*
X030289Y005014D01*
X030321Y005044D01*
X030353Y005102D02*
X030766Y005102D01*
X030766Y005159D02*
X030364Y005159D01*
X030356Y005217D02*
X030766Y005217D01*
X030544Y004987D02*
X030253Y004987D01*
X030277Y004929D02*
X030540Y004929D01*
X030586Y004872D02*
X030301Y004872D01*
X030325Y004814D02*
X030386Y004814D01*
X030401Y004814D02*
X030633Y004814D01*
X030602Y004757D02*
X030471Y004757D01*
X030542Y004699D02*
X030545Y004699D01*
X030059Y004872D02*
X029774Y004872D01*
X029820Y004929D02*
X030083Y004929D01*
X030107Y004987D02*
X029816Y004987D01*
X029793Y005044D02*
X030039Y005044D01*
X030007Y005102D02*
X029594Y005102D01*
X029594Y005159D02*
X029996Y005159D01*
X030005Y005217D02*
X029594Y005217D01*
X029791Y005275D02*
X030034Y005275D01*
X030108Y005332D02*
X029812Y005332D01*
X029750Y005562D02*
X029897Y005562D01*
X029827Y005620D02*
X029808Y005620D01*
X030095Y005620D02*
X030265Y005620D01*
X030259Y005677D02*
X030101Y005677D01*
X030107Y005735D02*
X030253Y005735D01*
X030271Y005562D02*
X030089Y005562D01*
X030035Y004814D02*
X029974Y004814D01*
X029959Y004814D02*
X029727Y004814D01*
X029758Y004757D02*
X029889Y004757D01*
X029818Y004699D02*
X029815Y004699D01*
D16*
X030368Y025475D02*
X030370Y025490D01*
X030376Y025505D01*
X030385Y025517D01*
X030397Y025527D01*
X030411Y025534D01*
X030426Y025537D01*
X030442Y025536D01*
X030456Y025531D01*
X030470Y025523D01*
X030480Y025511D01*
X030488Y025498D01*
X030492Y025483D01*
X030492Y025467D01*
X030488Y025452D01*
X030480Y025439D01*
X030470Y025427D01*
X030456Y025419D01*
X030442Y025414D01*
X030426Y025413D01*
X030411Y025416D01*
X030397Y025423D01*
X030385Y025433D01*
X030376Y025445D01*
X030370Y025460D01*
X030368Y025475D01*
D17*
X030641Y029413D03*
X019594Y031288D03*
D18*
X043930Y017818D03*
M02*
