G75*
G70*
%OFA0B0*%
%FSLAX24Y24*%
%IPPOS*%
%LPD*%
%AMOC8*
5,1,8,0,0,1.08239X$1,22.5*
%
%ADD10C,0.0000*%
%ADD11C,0.0700*%
%ADD12C,0.0660*%
%ADD13R,0.0512X0.0630*%
%ADD14R,0.0630X0.0512*%
%ADD15OC8,0.0480*%
%ADD16R,0.0315X0.0354*%
%ADD17C,0.0540*%
%ADD18OC8,0.0540*%
%ADD19R,0.0590X0.0790*%
%ADD20R,0.1500X0.0790*%
%ADD21R,0.0260X0.0800*%
%ADD22R,0.0472X0.0472*%
%ADD23R,0.0709X0.0551*%
%ADD24C,0.1050*%
%ADD25R,0.0700X0.0360*%
%ADD26R,0.0315X0.0709*%
%ADD27R,0.0551X0.0787*%
%ADD28R,0.0551X0.0866*%
%ADD29R,0.0709X0.0630*%
%ADD30OC8,0.0850*%
%ADD31C,0.0160*%
%ADD32C,0.0436*%
%ADD33C,0.1181*%
%ADD34C,0.0397*%
%ADD35C,0.0240*%
%ADD36C,0.0700*%
D10*
X002430Y003663D02*
X054180Y003663D01*
X054275Y003665D01*
X054370Y003672D01*
X054465Y003683D01*
X054559Y003699D01*
X054652Y003719D01*
X054743Y003744D01*
X054834Y003773D01*
X054923Y003806D01*
X055011Y003844D01*
X055096Y003885D01*
X055180Y003931D01*
X055261Y003980D01*
X055340Y004034D01*
X055416Y004091D01*
X055490Y004152D01*
X055560Y004216D01*
X055627Y004283D01*
X055691Y004353D01*
X055752Y004427D01*
X055809Y004503D01*
X055863Y004582D01*
X055912Y004663D01*
X055958Y004747D01*
X055999Y004832D01*
X056037Y004920D01*
X056070Y005009D01*
X056099Y005100D01*
X056124Y005191D01*
X056144Y005284D01*
X056160Y005378D01*
X056171Y005473D01*
X056178Y005568D01*
X056180Y005663D01*
X056180Y030163D01*
X056178Y030258D01*
X056171Y030353D01*
X056160Y030448D01*
X056144Y030542D01*
X056124Y030635D01*
X056099Y030726D01*
X056070Y030817D01*
X056037Y030906D01*
X055999Y030994D01*
X055958Y031079D01*
X055912Y031163D01*
X055863Y031244D01*
X055809Y031323D01*
X055752Y031399D01*
X055691Y031473D01*
X055627Y031543D01*
X055560Y031610D01*
X055490Y031674D01*
X055416Y031735D01*
X055340Y031792D01*
X055261Y031846D01*
X055180Y031895D01*
X055096Y031941D01*
X055011Y031982D01*
X054923Y032020D01*
X054834Y032053D01*
X054743Y032082D01*
X054652Y032107D01*
X054559Y032127D01*
X054465Y032143D01*
X054370Y032154D01*
X054275Y032161D01*
X054180Y032163D01*
X002430Y032163D01*
X002335Y032161D01*
X002240Y032154D01*
X002145Y032143D01*
X002051Y032127D01*
X001958Y032107D01*
X001867Y032082D01*
X001776Y032053D01*
X001687Y032020D01*
X001599Y031982D01*
X001514Y031941D01*
X001430Y031895D01*
X001349Y031846D01*
X001270Y031792D01*
X001194Y031735D01*
X001120Y031674D01*
X001050Y031610D01*
X000983Y031543D01*
X000919Y031473D01*
X000858Y031399D01*
X000801Y031323D01*
X000747Y031244D01*
X000698Y031163D01*
X000652Y031079D01*
X000611Y030994D01*
X000573Y030906D01*
X000540Y030817D01*
X000511Y030726D01*
X000486Y030635D01*
X000466Y030542D01*
X000450Y030448D01*
X000439Y030353D01*
X000432Y030258D01*
X000430Y030163D01*
X000430Y005663D01*
X001639Y006258D02*
X001641Y006306D01*
X001647Y006354D01*
X001657Y006401D01*
X001670Y006447D01*
X001688Y006492D01*
X001708Y006536D01*
X001733Y006578D01*
X001761Y006617D01*
X001791Y006654D01*
X001825Y006688D01*
X001862Y006720D01*
X001900Y006749D01*
X001941Y006774D01*
X001984Y006796D01*
X002029Y006814D01*
X002075Y006828D01*
X002122Y006839D01*
X002170Y006846D01*
X002218Y006849D01*
X002266Y006848D01*
X002314Y006843D01*
X002362Y006834D01*
X002408Y006822D01*
X002453Y006805D01*
X002497Y006785D01*
X002539Y006762D01*
X002579Y006735D01*
X002617Y006705D01*
X002652Y006672D01*
X002684Y006636D01*
X002714Y006598D01*
X002740Y006557D01*
X002762Y006514D01*
X002782Y006470D01*
X002797Y006425D01*
X002809Y006378D01*
X002817Y006330D01*
X002821Y006282D01*
X002821Y006234D01*
X002817Y006186D01*
X002809Y006138D01*
X002797Y006091D01*
X002782Y006046D01*
X002762Y006002D01*
X002740Y005959D01*
X002714Y005918D01*
X002684Y005880D01*
X002652Y005844D01*
X002617Y005811D01*
X002579Y005781D01*
X002539Y005754D01*
X002497Y005731D01*
X002453Y005711D01*
X002408Y005694D01*
X002362Y005682D01*
X002314Y005673D01*
X002266Y005668D01*
X002218Y005667D01*
X002170Y005670D01*
X002122Y005677D01*
X002075Y005688D01*
X002029Y005702D01*
X001984Y005720D01*
X001941Y005742D01*
X001900Y005767D01*
X001862Y005796D01*
X001825Y005828D01*
X001791Y005862D01*
X001761Y005899D01*
X001733Y005938D01*
X001708Y005980D01*
X001688Y006024D01*
X001670Y006069D01*
X001657Y006115D01*
X001647Y006162D01*
X001641Y006210D01*
X001639Y006258D01*
X000430Y005663D02*
X000432Y005568D01*
X000439Y005473D01*
X000450Y005378D01*
X000466Y005284D01*
X000486Y005191D01*
X000511Y005100D01*
X000540Y005009D01*
X000573Y004920D01*
X000611Y004832D01*
X000652Y004747D01*
X000698Y004663D01*
X000747Y004582D01*
X000801Y004503D01*
X000858Y004427D01*
X000919Y004353D01*
X000983Y004283D01*
X001050Y004216D01*
X001120Y004152D01*
X001194Y004091D01*
X001270Y004034D01*
X001349Y003980D01*
X001430Y003931D01*
X001514Y003885D01*
X001599Y003844D01*
X001687Y003806D01*
X001776Y003773D01*
X001867Y003744D01*
X001958Y003719D01*
X002051Y003699D01*
X002145Y003683D01*
X002240Y003672D01*
X002335Y003665D01*
X002430Y003663D01*
X038254Y006258D02*
X038256Y006306D01*
X038262Y006354D01*
X038272Y006401D01*
X038285Y006447D01*
X038303Y006492D01*
X038323Y006536D01*
X038348Y006578D01*
X038376Y006617D01*
X038406Y006654D01*
X038440Y006688D01*
X038477Y006720D01*
X038515Y006749D01*
X038556Y006774D01*
X038599Y006796D01*
X038644Y006814D01*
X038690Y006828D01*
X038737Y006839D01*
X038785Y006846D01*
X038833Y006849D01*
X038881Y006848D01*
X038929Y006843D01*
X038977Y006834D01*
X039023Y006822D01*
X039068Y006805D01*
X039112Y006785D01*
X039154Y006762D01*
X039194Y006735D01*
X039232Y006705D01*
X039267Y006672D01*
X039299Y006636D01*
X039329Y006598D01*
X039355Y006557D01*
X039377Y006514D01*
X039397Y006470D01*
X039412Y006425D01*
X039424Y006378D01*
X039432Y006330D01*
X039436Y006282D01*
X039436Y006234D01*
X039432Y006186D01*
X039424Y006138D01*
X039412Y006091D01*
X039397Y006046D01*
X039377Y006002D01*
X039355Y005959D01*
X039329Y005918D01*
X039299Y005880D01*
X039267Y005844D01*
X039232Y005811D01*
X039194Y005781D01*
X039154Y005754D01*
X039112Y005731D01*
X039068Y005711D01*
X039023Y005694D01*
X038977Y005682D01*
X038929Y005673D01*
X038881Y005668D01*
X038833Y005667D01*
X038785Y005670D01*
X038737Y005677D01*
X038690Y005688D01*
X038644Y005702D01*
X038599Y005720D01*
X038556Y005742D01*
X038515Y005767D01*
X038477Y005796D01*
X038440Y005828D01*
X038406Y005862D01*
X038376Y005899D01*
X038348Y005938D01*
X038323Y005980D01*
X038303Y006024D01*
X038285Y006069D01*
X038272Y006115D01*
X038262Y006162D01*
X038256Y006210D01*
X038254Y006258D01*
X038249Y027913D02*
X038251Y027961D01*
X038257Y028009D01*
X038267Y028056D01*
X038280Y028102D01*
X038298Y028147D01*
X038318Y028191D01*
X038343Y028233D01*
X038371Y028272D01*
X038401Y028309D01*
X038435Y028343D01*
X038472Y028375D01*
X038510Y028404D01*
X038551Y028429D01*
X038594Y028451D01*
X038639Y028469D01*
X038685Y028483D01*
X038732Y028494D01*
X038780Y028501D01*
X038828Y028504D01*
X038876Y028503D01*
X038924Y028498D01*
X038972Y028489D01*
X039018Y028477D01*
X039063Y028460D01*
X039107Y028440D01*
X039149Y028417D01*
X039189Y028390D01*
X039227Y028360D01*
X039262Y028327D01*
X039294Y028291D01*
X039324Y028253D01*
X039350Y028212D01*
X039372Y028169D01*
X039392Y028125D01*
X039407Y028080D01*
X039419Y028033D01*
X039427Y027985D01*
X039431Y027937D01*
X039431Y027889D01*
X039427Y027841D01*
X039419Y027793D01*
X039407Y027746D01*
X039392Y027701D01*
X039372Y027657D01*
X039350Y027614D01*
X039324Y027573D01*
X039294Y027535D01*
X039262Y027499D01*
X039227Y027466D01*
X039189Y027436D01*
X039149Y027409D01*
X039107Y027386D01*
X039063Y027366D01*
X039018Y027349D01*
X038972Y027337D01*
X038924Y027328D01*
X038876Y027323D01*
X038828Y027322D01*
X038780Y027325D01*
X038732Y027332D01*
X038685Y027343D01*
X038639Y027357D01*
X038594Y027375D01*
X038551Y027397D01*
X038510Y027422D01*
X038472Y027451D01*
X038435Y027483D01*
X038401Y027517D01*
X038371Y027554D01*
X038343Y027593D01*
X038318Y027635D01*
X038298Y027679D01*
X038280Y027724D01*
X038267Y027770D01*
X038257Y027817D01*
X038251Y027865D01*
X038249Y027913D01*
X027440Y031336D02*
X027442Y031361D01*
X027448Y031385D01*
X027457Y031407D01*
X027470Y031428D01*
X027486Y031447D01*
X027505Y031463D01*
X027526Y031476D01*
X027548Y031485D01*
X027572Y031491D01*
X027597Y031493D01*
X027622Y031491D01*
X027646Y031485D01*
X027668Y031476D01*
X027689Y031463D01*
X027708Y031447D01*
X027724Y031428D01*
X027737Y031407D01*
X027746Y031385D01*
X027752Y031361D01*
X027754Y031336D01*
X027752Y031311D01*
X027746Y031287D01*
X027737Y031265D01*
X027724Y031244D01*
X027708Y031225D01*
X027689Y031209D01*
X027668Y031196D01*
X027646Y031187D01*
X027622Y031181D01*
X027597Y031179D01*
X027572Y031181D01*
X027548Y031187D01*
X027526Y031196D01*
X027505Y031209D01*
X027486Y031225D01*
X027470Y031244D01*
X027457Y031265D01*
X027448Y031287D01*
X027442Y031311D01*
X027440Y031336D01*
X024291Y031336D02*
X024293Y031361D01*
X024299Y031385D01*
X024308Y031407D01*
X024321Y031428D01*
X024337Y031447D01*
X024356Y031463D01*
X024377Y031476D01*
X024399Y031485D01*
X024423Y031491D01*
X024448Y031493D01*
X024473Y031491D01*
X024497Y031485D01*
X024519Y031476D01*
X024540Y031463D01*
X024559Y031447D01*
X024575Y031428D01*
X024588Y031407D01*
X024597Y031385D01*
X024603Y031361D01*
X024605Y031336D01*
X024603Y031311D01*
X024597Y031287D01*
X024588Y031265D01*
X024575Y031244D01*
X024559Y031225D01*
X024540Y031209D01*
X024519Y031196D01*
X024497Y031187D01*
X024473Y031181D01*
X024448Y031179D01*
X024423Y031181D01*
X024399Y031187D01*
X024377Y031196D01*
X024356Y031209D01*
X024337Y031225D01*
X024321Y031244D01*
X024308Y031265D01*
X024299Y031287D01*
X024293Y031311D01*
X024291Y031336D01*
X001639Y027913D02*
X001641Y027961D01*
X001647Y028009D01*
X001657Y028056D01*
X001670Y028102D01*
X001688Y028147D01*
X001708Y028191D01*
X001733Y028233D01*
X001761Y028272D01*
X001791Y028309D01*
X001825Y028343D01*
X001862Y028375D01*
X001900Y028404D01*
X001941Y028429D01*
X001984Y028451D01*
X002029Y028469D01*
X002075Y028483D01*
X002122Y028494D01*
X002170Y028501D01*
X002218Y028504D01*
X002266Y028503D01*
X002314Y028498D01*
X002362Y028489D01*
X002408Y028477D01*
X002453Y028460D01*
X002497Y028440D01*
X002539Y028417D01*
X002579Y028390D01*
X002617Y028360D01*
X002652Y028327D01*
X002684Y028291D01*
X002714Y028253D01*
X002740Y028212D01*
X002762Y028169D01*
X002782Y028125D01*
X002797Y028080D01*
X002809Y028033D01*
X002817Y027985D01*
X002821Y027937D01*
X002821Y027889D01*
X002817Y027841D01*
X002809Y027793D01*
X002797Y027746D01*
X002782Y027701D01*
X002762Y027657D01*
X002740Y027614D01*
X002714Y027573D01*
X002684Y027535D01*
X002652Y027499D01*
X002617Y027466D01*
X002579Y027436D01*
X002539Y027409D01*
X002497Y027386D01*
X002453Y027366D01*
X002408Y027349D01*
X002362Y027337D01*
X002314Y027328D01*
X002266Y027323D01*
X002218Y027322D01*
X002170Y027325D01*
X002122Y027332D01*
X002075Y027343D01*
X002029Y027357D01*
X001984Y027375D01*
X001941Y027397D01*
X001900Y027422D01*
X001862Y027451D01*
X001825Y027483D01*
X001791Y027517D01*
X001761Y027554D01*
X001733Y027593D01*
X001708Y027635D01*
X001688Y027679D01*
X001670Y027724D01*
X001657Y027770D01*
X001647Y027817D01*
X001641Y027865D01*
X001639Y027913D01*
D11*
X005178Y027566D02*
X005178Y028266D01*
X006178Y028266D02*
X006178Y027566D01*
X007178Y027566D02*
X007178Y028266D01*
X008178Y028266D02*
X008178Y027566D01*
X009178Y027566D02*
X009178Y028266D01*
X010178Y028266D02*
X010178Y027566D01*
X011178Y027566D02*
X011178Y028266D01*
X012178Y028266D02*
X012178Y027566D01*
X013178Y027566D02*
X013178Y028266D01*
X014178Y028266D02*
X014178Y027566D01*
X015178Y027566D02*
X015178Y028266D01*
X016178Y028266D02*
X016178Y027566D01*
X017178Y027566D02*
X017178Y028266D01*
X018178Y028266D02*
X018178Y027566D01*
X019178Y027566D02*
X019178Y028266D01*
X020178Y028266D02*
X020178Y027566D01*
D12*
X045196Y015419D03*
X047164Y015419D03*
X047164Y009710D03*
X046180Y009710D03*
X045196Y009710D03*
D13*
X049556Y009913D03*
X050304Y009913D03*
X050304Y011163D03*
X049556Y011163D03*
X043824Y022288D03*
X043036Y022288D03*
X038074Y023663D03*
X037286Y023663D03*
X043036Y027413D03*
X043824Y027413D03*
X032804Y029413D03*
X032056Y029413D03*
X030324Y023663D03*
X029536Y023663D03*
X020804Y026163D03*
X020056Y026163D03*
X019804Y030038D03*
X019056Y030038D03*
D14*
X021180Y030412D03*
X021180Y029664D03*
X021180Y027912D03*
X021180Y027164D03*
X028430Y023787D03*
X028430Y023039D03*
X034930Y023039D03*
X034930Y023787D03*
X036180Y023519D03*
X036180Y024307D03*
X041930Y023037D03*
X041930Y022289D03*
X040430Y009162D03*
X040430Y008414D03*
D15*
X003930Y025163D03*
X002930Y026153D03*
X002930Y024173D03*
D16*
X021806Y025394D03*
X022554Y025394D03*
X022180Y026221D03*
D17*
X052930Y015413D03*
D18*
X053930Y015413D03*
X053930Y014413D03*
X052930Y014413D03*
X052930Y013413D03*
X053930Y013413D03*
X053930Y012413D03*
X052930Y012413D03*
X052930Y011413D03*
X053930Y011413D03*
X053930Y010413D03*
X052930Y010413D03*
X052930Y009413D03*
X053930Y009413D03*
X053930Y008413D03*
X052930Y008413D03*
X052930Y007413D03*
X053930Y007413D03*
X053930Y006413D03*
X052930Y006413D03*
D19*
X037090Y025423D03*
X036190Y025423D03*
X035290Y025423D03*
D20*
X036180Y027903D03*
D21*
X033930Y027123D03*
X033430Y027123D03*
X032930Y027123D03*
X032430Y027123D03*
X031930Y027123D03*
X031430Y027123D03*
X030930Y027123D03*
X030430Y027123D03*
X030430Y024703D03*
X030930Y024703D03*
X031430Y024703D03*
X031930Y024703D03*
X032430Y024703D03*
X032930Y024703D03*
X033430Y024703D03*
X033930Y024703D03*
D22*
X031093Y029413D03*
X030267Y029413D03*
X019968Y031288D03*
X019142Y031288D03*
D23*
X043930Y018707D03*
X043930Y017369D03*
D24*
X045680Y019888D02*
X045680Y020938D01*
X048180Y020938D02*
X048180Y019888D01*
X052130Y021033D02*
X053180Y021033D01*
X053180Y022583D02*
X052130Y022583D01*
X048180Y024138D02*
X048180Y025188D01*
X045680Y025188D02*
X045680Y024138D01*
X052130Y025283D02*
X053180Y025283D01*
X053180Y026833D02*
X052130Y026833D01*
X048180Y028388D02*
X048180Y029438D01*
X045680Y029438D02*
X045680Y028388D01*
X052130Y029533D02*
X053180Y029533D01*
X053180Y018333D02*
X052130Y018333D01*
D25*
X043780Y019913D03*
X043780Y020413D03*
X043780Y020913D03*
X043780Y021413D03*
X041580Y021413D03*
X041580Y020913D03*
X041580Y020413D03*
X041580Y019913D03*
X041580Y024163D03*
X041580Y024663D03*
X041580Y025163D03*
X041580Y025663D03*
X043780Y025663D03*
X043780Y025163D03*
X043780Y024663D03*
X043780Y024163D03*
X043780Y028413D03*
X043780Y028913D03*
X043780Y029413D03*
X043780Y029913D03*
X041580Y029913D03*
X041580Y029413D03*
X041580Y028913D03*
X041580Y028413D03*
D26*
X028129Y027163D03*
X027696Y027163D03*
X027263Y027163D03*
X026830Y027163D03*
X026397Y027163D03*
X025963Y027163D03*
X025530Y027163D03*
X025097Y027163D03*
X024664Y027163D03*
D27*
X028700Y027399D03*
D28*
X028759Y031277D03*
X022341Y031277D03*
D29*
X022834Y027360D03*
D30*
X035430Y017663D03*
X038430Y017663D03*
D31*
X038450Y017683D02*
X039015Y017683D01*
X039015Y017905D01*
X038672Y018248D01*
X038450Y018248D01*
X038450Y017683D01*
X038410Y017683D01*
X038410Y018248D01*
X038188Y018248D01*
X037845Y017905D01*
X037845Y017683D01*
X038410Y017683D01*
X038410Y017643D01*
X037845Y017643D01*
X037845Y017421D01*
X038188Y017078D01*
X038410Y017078D01*
X038410Y017643D01*
X038450Y017643D01*
X038450Y017683D01*
X038450Y017643D02*
X039015Y017643D01*
X039015Y017421D01*
X038672Y017078D01*
X038450Y017078D01*
X038450Y017643D01*
X038450Y017611D02*
X038410Y017611D01*
X038410Y017453D02*
X038450Y017453D01*
X038450Y017294D02*
X038410Y017294D01*
X038410Y017136D02*
X038450Y017136D01*
X038730Y017136D02*
X040005Y017136D01*
X039846Y017294D02*
X038888Y017294D01*
X039015Y017453D02*
X039688Y017453D01*
X039529Y017611D02*
X039015Y017611D01*
X039015Y017770D02*
X039371Y017770D01*
X039212Y017928D02*
X038992Y017928D01*
X039054Y018087D02*
X038834Y018087D01*
X038895Y018245D02*
X038675Y018245D01*
X038737Y018404D02*
X036642Y018404D01*
X036484Y018562D02*
X038578Y018562D01*
X038420Y018721D02*
X036325Y018721D01*
X036167Y018879D02*
X038261Y018879D01*
X038103Y019038D02*
X036008Y019038D01*
X035850Y019196D02*
X037944Y019196D01*
X037786Y019355D02*
X035691Y019355D01*
X035533Y019513D02*
X037627Y019513D01*
X037469Y019672D02*
X035374Y019672D01*
X035216Y019830D02*
X037310Y019830D01*
X037152Y019989D02*
X035057Y019989D01*
X034899Y020147D02*
X036993Y020147D01*
X036835Y020306D02*
X034740Y020306D01*
X034582Y020464D02*
X036676Y020464D01*
X036518Y020623D02*
X034423Y020623D01*
X034265Y020781D02*
X036359Y020781D01*
X036201Y020940D02*
X034106Y020940D01*
X033953Y021093D02*
X036047Y021093D01*
X041659Y015482D01*
X041749Y015392D01*
X041866Y015343D01*
X042880Y015343D01*
X042932Y015291D01*
X043093Y015225D01*
X043267Y015225D01*
X043428Y015291D01*
X043552Y015415D01*
X043618Y015576D01*
X043618Y015750D01*
X043580Y015843D01*
X044814Y015843D01*
X044713Y015742D01*
X044626Y015532D01*
X044626Y015306D01*
X044713Y015096D01*
X044860Y014949D01*
X044860Y011546D01*
X043909Y010594D01*
X043860Y010477D01*
X043860Y010084D01*
X043771Y010121D01*
X043589Y010121D01*
X043421Y010051D01*
X043292Y009922D01*
X043222Y009754D01*
X043222Y009657D01*
X043046Y009482D01*
X040978Y009482D01*
X040948Y009554D01*
X040881Y009621D01*
X040793Y009658D01*
X040067Y009658D01*
X039979Y009621D01*
X039912Y009554D01*
X039875Y009466D01*
X039875Y008858D01*
X039904Y008788D01*
X039875Y008718D01*
X039875Y008110D01*
X039912Y008022D01*
X039979Y007955D01*
X040067Y007918D01*
X040793Y007918D01*
X040881Y007955D01*
X040948Y008022D01*
X040978Y008094D01*
X044296Y008094D01*
X044659Y007732D01*
X044749Y007642D01*
X044866Y007593D01*
X047744Y007593D01*
X047861Y007642D01*
X048813Y008593D01*
X049994Y008593D01*
X050111Y008642D01*
X050201Y008732D01*
X050575Y009106D01*
X050624Y009223D01*
X050624Y009365D01*
X050696Y009395D01*
X050763Y009462D01*
X050800Y009550D01*
X050800Y009593D01*
X052420Y009593D01*
X052420Y009202D01*
X052709Y008913D01*
X052420Y008624D01*
X052420Y008202D01*
X052709Y007913D01*
X052420Y007624D01*
X052420Y007202D01*
X052709Y006913D01*
X052420Y006624D01*
X052420Y006202D01*
X052719Y005903D01*
X053141Y005903D01*
X053440Y006202D01*
X053440Y006624D01*
X053151Y006913D01*
X053430Y007192D01*
X053719Y006903D01*
X054141Y006903D01*
X054440Y007202D01*
X054440Y007624D01*
X054151Y007913D01*
X054440Y008202D01*
X054440Y008593D01*
X054494Y008593D01*
X054611Y008642D01*
X054701Y008732D01*
X054951Y008982D01*
X055000Y009099D01*
X055000Y015727D01*
X054951Y015844D01*
X054861Y015934D01*
X053156Y017640D01*
X053100Y017663D01*
X053100Y018253D01*
X051450Y018253D01*
X051457Y018199D01*
X051480Y018112D01*
X051514Y018029D01*
X051559Y017952D01*
X051614Y017880D01*
X051677Y017817D01*
X051749Y017762D01*
X051826Y017717D01*
X051895Y017689D01*
X044524Y017689D01*
X044524Y017692D01*
X044488Y017780D01*
X044420Y017848D01*
X044332Y017884D01*
X043528Y017884D01*
X043440Y017848D01*
X043372Y017780D01*
X043336Y017692D01*
X043336Y017045D01*
X043362Y016983D01*
X043063Y016983D01*
X037451Y022594D01*
X037361Y022684D01*
X037244Y022733D01*
X037203Y022733D01*
X037361Y022892D01*
X037451Y022982D01*
X037500Y023099D01*
X037500Y023108D01*
X037590Y023108D01*
X037678Y023145D01*
X037741Y023208D01*
X037756Y023199D01*
X037797Y023188D01*
X038026Y023188D01*
X038026Y023615D01*
X038122Y023615D01*
X038122Y023711D01*
X038490Y023711D01*
X038490Y023999D01*
X038479Y024040D01*
X038458Y024076D01*
X038428Y024106D01*
X038391Y024127D01*
X038351Y024138D01*
X038122Y024138D01*
X038122Y023711D01*
X038026Y023711D01*
X038026Y024138D01*
X037797Y024138D01*
X037756Y024127D01*
X037741Y024118D01*
X037678Y024181D01*
X037590Y024218D01*
X037574Y024218D01*
X037618Y024326D01*
X037618Y024500D01*
X037564Y024631D01*
X037671Y024525D01*
X037839Y024455D01*
X038021Y024455D01*
X038189Y024525D01*
X038318Y024653D01*
X038388Y024822D01*
X038388Y025004D01*
X038318Y025172D01*
X038250Y025241D01*
X038250Y026227D01*
X038201Y026344D01*
X038111Y026434D01*
X037861Y026684D01*
X037744Y026733D01*
X036366Y026733D01*
X036249Y026684D01*
X036180Y026616D01*
X036111Y026684D01*
X035994Y026733D01*
X035313Y026733D01*
X035250Y026796D01*
X035250Y027349D01*
X035294Y027305D01*
X035382Y027268D01*
X036978Y027268D01*
X037066Y027305D01*
X037133Y027372D01*
X037170Y027460D01*
X037170Y028346D01*
X037133Y028434D01*
X037066Y028501D01*
X036978Y028538D01*
X035382Y028538D01*
X035294Y028501D01*
X035250Y028457D01*
X035250Y028477D01*
X035201Y028594D01*
X035056Y028740D01*
X035093Y028725D01*
X035267Y028725D01*
X035428Y028791D01*
X035480Y028843D01*
X040047Y028843D01*
X040360Y028530D01*
X040360Y024849D01*
X040409Y024732D01*
X040477Y024663D01*
X040409Y024594D01*
X040360Y024477D01*
X040360Y022213D01*
X040308Y022161D01*
X040242Y022000D01*
X040242Y021826D01*
X040308Y021665D01*
X040360Y021613D01*
X040360Y020599D01*
X040409Y020482D01*
X040499Y020392D01*
X040749Y020142D01*
X040866Y020093D01*
X040990Y020093D01*
X040990Y019685D01*
X041027Y019597D01*
X041094Y019530D01*
X041182Y019493D01*
X041978Y019493D01*
X042066Y019530D01*
X042133Y019597D01*
X042170Y019685D01*
X042170Y020015D01*
X043336Y018849D01*
X043336Y018384D01*
X043372Y018296D01*
X043440Y018228D01*
X043528Y018192D01*
X044332Y018192D01*
X044420Y018228D01*
X044488Y018296D01*
X044524Y018384D01*
X044524Y019031D01*
X044488Y019119D01*
X044420Y019186D01*
X044332Y019223D01*
X043867Y019223D01*
X043517Y019573D01*
X043770Y019573D01*
X043770Y019903D01*
X043270Y019903D01*
X043270Y019820D01*
X042750Y020340D01*
X042750Y020727D01*
X042701Y020844D01*
X042633Y020913D01*
X042701Y020982D01*
X042750Y021099D01*
X042750Y021390D01*
X042999Y021142D01*
X043116Y021093D01*
X043190Y021093D01*
X043190Y020685D01*
X043199Y020663D01*
X043190Y020641D01*
X043190Y020185D01*
X043227Y020097D01*
X043270Y020054D01*
X043270Y019923D01*
X043770Y019923D01*
X043770Y019903D01*
X043790Y019903D01*
X043790Y019923D01*
X044290Y019923D01*
X044290Y020053D01*
X044915Y020053D01*
X044915Y019736D01*
X045031Y019455D01*
X045247Y019239D01*
X045528Y019123D01*
X045832Y019123D01*
X046113Y019239D01*
X046329Y019455D01*
X046445Y019736D01*
X046445Y021090D01*
X046329Y021371D01*
X046113Y021587D01*
X046098Y021593D01*
X046547Y021593D01*
X047415Y020725D01*
X047415Y019736D01*
X047531Y019455D01*
X047747Y019239D01*
X048028Y019123D01*
X048332Y019123D01*
X048613Y019239D01*
X048829Y019455D01*
X048945Y019736D01*
X048945Y021090D01*
X048829Y021371D01*
X048613Y021587D01*
X048332Y021703D01*
X048028Y021703D01*
X047747Y021587D01*
X047603Y021443D01*
X046861Y022184D01*
X046744Y022233D01*
X044866Y022233D01*
X044749Y022184D01*
X044659Y022094D01*
X044409Y021844D01*
X044360Y021727D01*
X044360Y021665D01*
X044333Y021729D01*
X044266Y021796D01*
X044178Y021833D01*
X044157Y021833D01*
X044178Y021845D01*
X044208Y021875D01*
X044229Y021911D01*
X044240Y021952D01*
X044240Y022240D01*
X043872Y022240D01*
X043872Y022336D01*
X044240Y022336D01*
X044240Y022624D01*
X044229Y022665D01*
X044208Y022701D01*
X044178Y022731D01*
X044141Y022752D01*
X044101Y022763D01*
X043872Y022763D01*
X043872Y022336D01*
X043776Y022336D01*
X043776Y022763D01*
X043547Y022763D01*
X043506Y022752D01*
X043491Y022743D01*
X043428Y022806D01*
X043340Y022843D01*
X042953Y022843D01*
X042701Y023094D01*
X042659Y023137D01*
X042689Y023150D01*
X042818Y023278D01*
X042888Y023447D01*
X042888Y023629D01*
X042818Y023797D01*
X042750Y023866D01*
X042750Y024780D01*
X043190Y025220D01*
X043190Y024935D01*
X043199Y024913D01*
X043190Y024891D01*
X043190Y024435D01*
X043227Y024347D01*
X043270Y024304D01*
X043270Y024173D01*
X043770Y024173D01*
X043770Y024153D01*
X043270Y024153D01*
X043270Y023962D01*
X043281Y023921D01*
X043302Y023885D01*
X043332Y023855D01*
X043368Y023834D01*
X043409Y023823D01*
X043770Y023823D01*
X043770Y024153D01*
X043790Y024153D01*
X043790Y024173D01*
X044290Y024173D01*
X044290Y024303D01*
X044915Y024303D01*
X044915Y023986D01*
X045031Y023705D01*
X045247Y023489D01*
X045528Y023373D01*
X045832Y023373D01*
X046113Y023489D01*
X046329Y023705D01*
X046445Y023986D01*
X046445Y025340D01*
X046329Y025621D01*
X046113Y025837D01*
X046098Y025843D01*
X046547Y025843D01*
X047415Y024975D01*
X047415Y023986D01*
X047531Y023705D01*
X047747Y023489D01*
X048028Y023373D01*
X048332Y023373D01*
X048613Y023489D01*
X048829Y023705D01*
X048945Y023986D01*
X048945Y025340D01*
X048829Y025621D01*
X048613Y025837D01*
X048332Y025953D01*
X048028Y025953D01*
X047747Y025837D01*
X047603Y025693D01*
X046861Y026434D01*
X046744Y026483D01*
X044866Y026483D01*
X044749Y026434D01*
X044659Y026344D01*
X044409Y026094D01*
X044360Y025977D01*
X044360Y025915D01*
X044333Y025979D01*
X044266Y026046D01*
X044178Y026083D01*
X044100Y026083D01*
X044100Y026627D01*
X044051Y026744D01*
X043776Y027020D01*
X043776Y027365D01*
X043872Y027365D01*
X043872Y027461D01*
X044240Y027461D01*
X044240Y027749D01*
X044229Y027790D01*
X044208Y027826D01*
X044178Y027856D01*
X044141Y027877D01*
X044101Y027888D01*
X043872Y027888D01*
X043872Y027461D01*
X043776Y027461D01*
X043776Y027888D01*
X043547Y027888D01*
X043506Y027877D01*
X043491Y027868D01*
X043428Y027931D01*
X043356Y027961D01*
X043356Y028091D01*
X043368Y028084D01*
X043409Y028073D01*
X043770Y028073D01*
X043770Y028403D01*
X043790Y028403D01*
X043790Y028423D01*
X044290Y028423D01*
X044290Y028553D01*
X044915Y028553D01*
X044915Y028236D01*
X045031Y027955D01*
X045247Y027739D01*
X045528Y027623D01*
X045832Y027623D01*
X046113Y027739D01*
X046329Y027955D01*
X046445Y028236D01*
X046445Y029590D01*
X046329Y029871D01*
X046113Y030087D01*
X046098Y030093D01*
X046547Y030093D01*
X047415Y029225D01*
X047415Y028236D01*
X047531Y027955D01*
X047747Y027739D01*
X048028Y027623D01*
X048332Y027623D01*
X048613Y027739D01*
X048829Y027955D01*
X048945Y028236D01*
X048945Y029590D01*
X048829Y029871D01*
X048613Y030087D01*
X048332Y030203D01*
X048028Y030203D01*
X047747Y030087D01*
X047603Y029943D01*
X046861Y030684D01*
X046744Y030733D01*
X044866Y030733D01*
X044749Y030684D01*
X044659Y030594D01*
X044409Y030344D01*
X044360Y030227D01*
X044360Y030165D01*
X044333Y030229D01*
X044266Y030296D01*
X044178Y030333D01*
X043382Y030333D01*
X043294Y030296D01*
X043231Y030233D01*
X043116Y030233D01*
X042999Y030184D01*
X042749Y029934D01*
X042680Y029866D01*
X042611Y029934D01*
X042361Y030184D01*
X042244Y030233D01*
X042129Y030233D01*
X042066Y030296D01*
X041978Y030333D01*
X041182Y030333D01*
X041094Y030296D01*
X041027Y030229D01*
X040990Y030141D01*
X040990Y029733D01*
X040813Y029733D01*
X040701Y029844D01*
X040611Y029934D01*
X040494Y029983D01*
X035480Y029983D01*
X035428Y030035D01*
X035267Y030101D01*
X035093Y030101D01*
X034932Y030035D01*
X034808Y029911D01*
X034742Y029750D01*
X034742Y029576D01*
X034808Y029415D01*
X034810Y029413D01*
X034808Y029411D01*
X034742Y029250D01*
X034742Y029076D01*
X034757Y029039D01*
X034500Y029296D01*
X034500Y029977D01*
X034451Y030094D01*
X033701Y030844D01*
X033611Y030934D01*
X033494Y030983D01*
X030366Y030983D01*
X030249Y030934D01*
X029797Y030483D01*
X025366Y030483D01*
X025249Y030434D01*
X025159Y030344D01*
X024159Y029344D01*
X024110Y029227D01*
X024110Y028881D01*
X024064Y028926D01*
X023896Y028996D01*
X023714Y028996D01*
X023546Y028926D01*
X023417Y028797D01*
X023347Y028629D01*
X023347Y028604D01*
X023318Y028672D01*
X023250Y028741D01*
X023250Y029227D01*
X023201Y029344D01*
X023111Y029434D01*
X022610Y029935D01*
X022493Y029984D01*
X021728Y029984D01*
X021706Y030038D01*
X021735Y030108D01*
X021735Y030716D01*
X021698Y030804D01*
X021631Y030871D01*
X021543Y030908D01*
X020817Y030908D01*
X020729Y030871D01*
X020662Y030804D01*
X020632Y030733D01*
X020616Y030733D01*
X020499Y030684D01*
X020409Y030594D01*
X020275Y030461D01*
X020263Y030489D01*
X020196Y030556D01*
X020108Y030593D01*
X019500Y030593D01*
X019462Y030577D01*
X019462Y030827D01*
X019514Y030848D01*
X019581Y030916D01*
X019600Y030961D01*
X019604Y030954D01*
X019634Y030924D01*
X019670Y030903D01*
X019711Y030892D01*
X019930Y030892D01*
X019930Y031250D01*
X020006Y031250D01*
X020006Y030892D01*
X020226Y030892D01*
X020266Y030903D01*
X020303Y030924D01*
X020333Y030954D01*
X020354Y030990D01*
X020365Y031031D01*
X020365Y031250D01*
X020007Y031250D01*
X020007Y031326D01*
X020365Y031326D01*
X020365Y031545D01*
X020354Y031586D01*
X020333Y031622D01*
X020303Y031652D01*
X020266Y031673D01*
X020226Y031684D01*
X020006Y031684D01*
X020006Y031326D01*
X019930Y031326D01*
X019930Y031684D01*
X019711Y031684D01*
X019670Y031673D01*
X019634Y031652D01*
X019604Y031622D01*
X019600Y031615D01*
X019581Y031660D01*
X019514Y031728D01*
X019426Y031764D01*
X018858Y031764D01*
X018769Y031728D01*
X018702Y031660D01*
X018665Y031572D01*
X018665Y031004D01*
X018702Y030916D01*
X018769Y030848D01*
X018822Y030827D01*
X018822Y030593D01*
X018752Y030593D01*
X018664Y030556D01*
X018597Y030489D01*
X018560Y030401D01*
X018560Y029733D01*
X006616Y029733D01*
X006499Y029684D01*
X006409Y029594D01*
X005907Y029092D01*
X005858Y028975D01*
X005858Y028772D01*
X005844Y028766D01*
X005678Y028600D01*
X005634Y028494D01*
X005614Y028533D01*
X005567Y028598D01*
X005510Y028655D01*
X005445Y028702D01*
X005374Y028738D01*
X005297Y028763D01*
X005218Y028776D01*
X005198Y028776D01*
X005198Y027936D01*
X005158Y027936D01*
X005158Y028776D01*
X005138Y028776D01*
X005059Y028763D01*
X004982Y028738D01*
X004911Y028702D01*
X004846Y028655D01*
X004789Y028598D01*
X004742Y028533D01*
X004705Y028462D01*
X004681Y028385D01*
X004668Y028306D01*
X004668Y027936D01*
X005158Y027936D01*
X005158Y027896D01*
X004668Y027896D01*
X004668Y027526D01*
X004681Y027446D01*
X004705Y027370D01*
X004742Y027298D01*
X004789Y027234D01*
X004846Y027177D01*
X004911Y027130D01*
X004982Y027093D01*
X005059Y027068D01*
X005138Y027056D01*
X005158Y027056D01*
X005158Y027896D01*
X005198Y027896D01*
X005198Y027056D01*
X005218Y027056D01*
X005297Y027068D01*
X005374Y027093D01*
X005445Y027130D01*
X005510Y027177D01*
X005567Y027234D01*
X005614Y027298D01*
X005634Y027337D01*
X005678Y027232D01*
X005844Y027066D01*
X005860Y027059D01*
X005860Y026796D01*
X005537Y026473D01*
X003289Y026473D01*
X003129Y026633D01*
X002731Y026633D01*
X002450Y026352D01*
X002450Y025954D01*
X002731Y025673D01*
X003129Y025673D01*
X003289Y025833D01*
X005734Y025833D01*
X005851Y025882D01*
X006361Y026392D01*
X006451Y026482D01*
X006500Y026599D01*
X006500Y027061D01*
X006512Y027066D01*
X006678Y027231D01*
X006844Y027066D01*
X006860Y027059D01*
X006860Y026046D01*
X006297Y025483D01*
X004289Y025483D01*
X004129Y025643D01*
X003731Y025643D01*
X003450Y025362D01*
X003450Y024964D01*
X003731Y024683D01*
X004129Y024683D01*
X004289Y024843D01*
X006494Y024843D01*
X006611Y024892D01*
X007361Y025642D01*
X007451Y025732D01*
X007500Y025849D01*
X007500Y027061D01*
X007512Y027066D01*
X007678Y027231D01*
X007844Y027066D01*
X008061Y026976D01*
X008295Y026976D01*
X008512Y027066D01*
X008678Y027232D01*
X008722Y027337D01*
X008742Y027298D01*
X008789Y027234D01*
X008846Y027177D01*
X008911Y027130D01*
X008982Y027093D01*
X009059Y027068D01*
X009138Y027056D01*
X009158Y027056D01*
X009158Y027896D01*
X009198Y027896D01*
X009198Y027056D01*
X009218Y027056D01*
X009297Y027068D01*
X009374Y027093D01*
X009445Y027130D01*
X009510Y027177D01*
X009567Y027234D01*
X009614Y027298D01*
X009634Y027337D01*
X009678Y027232D01*
X009844Y027066D01*
X010061Y026976D01*
X010295Y026976D01*
X010512Y027066D01*
X010678Y027231D01*
X010844Y027066D01*
X011061Y026976D01*
X011295Y026976D01*
X011512Y027066D01*
X011678Y027231D01*
X011844Y027066D01*
X012061Y026976D01*
X012295Y026976D01*
X012512Y027066D01*
X012678Y027231D01*
X012844Y027066D01*
X013061Y026976D01*
X013295Y026976D01*
X013512Y027066D01*
X013678Y027231D01*
X013844Y027066D01*
X014061Y026976D01*
X014295Y026976D01*
X014512Y027066D01*
X014678Y027231D01*
X014844Y027066D01*
X014858Y027060D01*
X014858Y026601D01*
X014907Y026484D01*
X020659Y020732D01*
X020749Y020642D01*
X020866Y020593D01*
X026521Y020593D01*
X026421Y020551D01*
X026292Y020422D01*
X026222Y020254D01*
X026222Y020072D01*
X026292Y019903D01*
X026421Y019775D01*
X026589Y019705D01*
X026771Y019705D01*
X026939Y019775D01*
X027008Y019843D01*
X030352Y019843D01*
X030421Y019775D01*
X030589Y019705D01*
X030771Y019705D01*
X030939Y019775D01*
X031068Y019903D01*
X031138Y020072D01*
X031138Y020254D01*
X031068Y020422D01*
X030939Y020551D01*
X030839Y020593D01*
X033547Y020593D01*
X039909Y014232D01*
X039999Y014142D01*
X040116Y014093D01*
X042880Y014093D01*
X042932Y014041D01*
X043093Y013975D01*
X043267Y013975D01*
X043428Y014041D01*
X043552Y014165D01*
X043618Y014326D01*
X043618Y014500D01*
X043552Y014661D01*
X043428Y014785D01*
X043267Y014851D01*
X043093Y014851D01*
X042932Y014785D01*
X042880Y014733D01*
X040313Y014733D01*
X033953Y021093D01*
X033680Y020913D02*
X040180Y014413D01*
X043180Y014413D01*
X043577Y014600D02*
X044860Y014600D01*
X044860Y014758D02*
X043455Y014758D01*
X043618Y014441D02*
X044860Y014441D01*
X044860Y014283D02*
X043600Y014283D01*
X043511Y014124D02*
X044860Y014124D01*
X044860Y013966D02*
X017943Y013966D01*
X017930Y013997D02*
X017764Y014163D01*
X017930Y014329D01*
X018020Y014546D01*
X018020Y014780D01*
X017930Y014997D01*
X017764Y015163D01*
X017930Y015329D01*
X018020Y015546D01*
X018020Y015780D01*
X017930Y015997D01*
X017764Y016163D01*
X017930Y016329D01*
X018020Y016546D01*
X018020Y016780D01*
X017930Y016997D01*
X017764Y017163D01*
X017930Y017329D01*
X018020Y017546D01*
X018020Y017780D01*
X017930Y017997D01*
X017764Y018163D01*
X017930Y018329D01*
X018020Y018546D01*
X018020Y018780D01*
X017930Y018997D01*
X017764Y019163D01*
X017930Y019329D01*
X018020Y019546D01*
X018020Y019780D01*
X017930Y019997D01*
X017764Y020163D01*
X017930Y020329D01*
X018020Y020546D01*
X018020Y020780D01*
X017930Y020997D01*
X017764Y021163D01*
X017547Y021253D01*
X017313Y021253D01*
X017096Y021163D01*
X016930Y020997D01*
X016764Y021163D01*
X016547Y021253D01*
X016313Y021253D01*
X016096Y021163D01*
X015930Y020997D01*
X015764Y021163D01*
X015547Y021253D01*
X015313Y021253D01*
X015096Y021163D01*
X014930Y020997D01*
X014764Y021163D01*
X014547Y021253D01*
X014313Y021253D01*
X014096Y021163D01*
X013930Y020997D01*
X013764Y021163D01*
X013547Y021253D01*
X013313Y021253D01*
X013096Y021163D01*
X012930Y020997D01*
X012764Y021163D01*
X012547Y021253D01*
X012313Y021253D01*
X012096Y021163D01*
X011930Y020997D01*
X011764Y021163D01*
X011547Y021253D01*
X011313Y021253D01*
X011096Y021163D01*
X010930Y020997D01*
X010764Y021163D01*
X010547Y021253D01*
X010313Y021253D01*
X010096Y021163D01*
X009930Y020997D01*
X009764Y021163D01*
X009547Y021253D01*
X009313Y021253D01*
X009096Y021163D01*
X008930Y020997D01*
X008764Y021163D01*
X008547Y021253D01*
X008313Y021253D01*
X008096Y021163D01*
X007930Y020997D01*
X007764Y021163D01*
X007547Y021253D01*
X007313Y021253D01*
X007096Y021163D01*
X006930Y020997D01*
X006764Y021163D01*
X006547Y021253D01*
X006313Y021253D01*
X006096Y021163D01*
X005930Y020997D01*
X005764Y021163D01*
X005547Y021253D01*
X005313Y021253D01*
X005096Y021163D01*
X004930Y020997D01*
X004764Y021163D01*
X004547Y021253D01*
X004313Y021253D01*
X004096Y021163D01*
X003930Y020997D01*
X003764Y021163D01*
X003547Y021253D01*
X003313Y021253D01*
X003096Y021163D01*
X002930Y020997D01*
X002764Y021163D01*
X002547Y021253D01*
X002313Y021253D01*
X002096Y021163D01*
X001930Y020997D01*
X001840Y020780D01*
X001840Y020546D01*
X001930Y020329D01*
X002096Y020163D01*
X001930Y019997D01*
X001840Y019780D01*
X001840Y019546D01*
X001930Y019329D01*
X002096Y019163D01*
X001930Y018997D01*
X001840Y018780D01*
X001840Y018546D01*
X001930Y018329D01*
X002096Y018163D01*
X001930Y017997D01*
X001840Y017780D01*
X001840Y017546D01*
X001930Y017329D01*
X002096Y017163D01*
X001930Y016997D01*
X001840Y016780D01*
X001840Y016546D01*
X001930Y016329D01*
X002096Y016163D01*
X001930Y015997D01*
X001840Y015780D01*
X001840Y015546D01*
X001930Y015329D01*
X002096Y015163D01*
X001930Y014997D01*
X001840Y014780D01*
X001840Y014546D01*
X001930Y014329D01*
X002096Y014163D01*
X001930Y013997D01*
X001840Y013780D01*
X001840Y013546D01*
X001930Y013329D01*
X002096Y013163D01*
X001930Y012997D01*
X001840Y012780D01*
X001840Y012546D01*
X001930Y012329D01*
X002096Y012163D01*
X001930Y011997D01*
X001840Y011780D01*
X001840Y011546D01*
X001930Y011329D01*
X002096Y011163D01*
X001930Y010997D01*
X001840Y010780D01*
X001840Y010546D01*
X001930Y010329D01*
X002096Y010163D01*
X001930Y009997D01*
X001840Y009780D01*
X001840Y009546D01*
X001930Y009329D01*
X002096Y009163D01*
X002313Y009073D01*
X002547Y009073D01*
X002764Y009163D01*
X002930Y009329D01*
X003096Y009163D01*
X003313Y009073D01*
X003547Y009073D01*
X003764Y009163D01*
X003930Y009329D01*
X004096Y009163D01*
X004313Y009073D01*
X004547Y009073D01*
X004764Y009163D01*
X004930Y009329D01*
X005096Y009163D01*
X005313Y009073D01*
X005547Y009073D01*
X005764Y009163D01*
X005930Y009329D01*
X006096Y009163D01*
X006313Y009073D01*
X006547Y009073D01*
X006764Y009163D01*
X006930Y009329D01*
X007096Y009163D01*
X007313Y009073D01*
X007547Y009073D01*
X007764Y009163D01*
X007930Y009329D01*
X008096Y009163D01*
X008313Y009073D01*
X008547Y009073D01*
X008764Y009163D01*
X008930Y009329D01*
X009096Y009163D01*
X009313Y009073D01*
X009547Y009073D01*
X009764Y009163D01*
X009930Y009329D01*
X010096Y009163D01*
X010313Y009073D01*
X010547Y009073D01*
X010764Y009163D01*
X010930Y009329D01*
X011096Y009163D01*
X011313Y009073D01*
X011547Y009073D01*
X011764Y009163D01*
X011930Y009329D01*
X012096Y009163D01*
X012313Y009073D01*
X012547Y009073D01*
X012764Y009163D01*
X012930Y009329D01*
X013096Y009163D01*
X013313Y009073D01*
X013547Y009073D01*
X013764Y009163D01*
X013930Y009329D01*
X014096Y009163D01*
X014313Y009073D01*
X014547Y009073D01*
X014764Y009163D01*
X014930Y009329D01*
X015096Y009163D01*
X015313Y009073D01*
X015547Y009073D01*
X015764Y009163D01*
X015930Y009329D01*
X016096Y009163D01*
X016313Y009073D01*
X016547Y009073D01*
X016764Y009163D01*
X016930Y009329D01*
X017096Y009163D01*
X017313Y009073D01*
X017547Y009073D01*
X017764Y009163D01*
X017930Y009329D01*
X018020Y009546D01*
X018020Y009780D01*
X017930Y009997D01*
X017764Y010163D01*
X017930Y010329D01*
X018020Y010546D01*
X018020Y010780D01*
X017930Y010997D01*
X017764Y011163D01*
X017930Y011329D01*
X018020Y011546D01*
X018020Y011780D01*
X017930Y011997D01*
X017764Y012163D01*
X017930Y012329D01*
X018020Y012546D01*
X018020Y012780D01*
X017930Y012997D01*
X017764Y013163D01*
X017930Y013329D01*
X018020Y013546D01*
X018020Y013780D01*
X017930Y013997D01*
X017803Y014124D02*
X040041Y014124D01*
X039858Y014283D02*
X017884Y014283D01*
X017977Y014441D02*
X039699Y014441D01*
X039541Y014600D02*
X018020Y014600D01*
X018020Y014758D02*
X039382Y014758D01*
X039224Y014917D02*
X017964Y014917D01*
X017852Y015075D02*
X039065Y015075D01*
X038907Y015234D02*
X017835Y015234D01*
X017956Y015392D02*
X038748Y015392D01*
X038590Y015551D02*
X018020Y015551D01*
X018020Y015709D02*
X038431Y015709D01*
X038273Y015868D02*
X017984Y015868D01*
X017901Y016026D02*
X038114Y016026D01*
X037956Y016185D02*
X017786Y016185D01*
X017936Y016343D02*
X037797Y016343D01*
X037639Y016502D02*
X018002Y016502D01*
X018020Y016660D02*
X037480Y016660D01*
X037322Y016819D02*
X018004Y016819D01*
X017939Y016977D02*
X037163Y016977D01*
X037005Y017136D02*
X035843Y017136D01*
X035705Y016998D02*
X036095Y017388D01*
X036095Y017938D01*
X035705Y018328D01*
X035155Y018328D01*
X034765Y017938D01*
X034765Y017388D01*
X035155Y016998D01*
X035705Y016998D01*
X036001Y017294D02*
X036846Y017294D01*
X036688Y017453D02*
X036095Y017453D01*
X036095Y017611D02*
X036529Y017611D01*
X036371Y017770D02*
X036095Y017770D01*
X036095Y017928D02*
X036212Y017928D01*
X036054Y018087D02*
X035947Y018087D01*
X035895Y018245D02*
X035788Y018245D01*
X035737Y018404D02*
X017961Y018404D01*
X018020Y018562D02*
X035578Y018562D01*
X035420Y018721D02*
X018020Y018721D01*
X017979Y018879D02*
X035261Y018879D01*
X035103Y019038D02*
X017890Y019038D01*
X017797Y019196D02*
X034944Y019196D01*
X034786Y019355D02*
X017941Y019355D01*
X018006Y019513D02*
X034627Y019513D01*
X034469Y019672D02*
X018020Y019672D01*
X017999Y019830D02*
X026365Y019830D01*
X026256Y019989D02*
X017934Y019989D01*
X017780Y020147D02*
X026222Y020147D01*
X026243Y020306D02*
X017907Y020306D01*
X017986Y020464D02*
X026333Y020464D01*
X026680Y020163D02*
X030680Y020163D01*
X031104Y019989D02*
X034152Y019989D01*
X033993Y020147D02*
X031138Y020147D01*
X031117Y020306D02*
X033835Y020306D01*
X033676Y020464D02*
X031027Y020464D01*
X030995Y019830D02*
X034310Y019830D01*
X033680Y020913D02*
X020930Y020913D01*
X015178Y026665D01*
X015178Y027916D01*
X016178Y027916D02*
X016178Y026665D01*
X021430Y021413D01*
X036180Y021413D01*
X041930Y015663D01*
X043180Y015663D01*
X043618Y015709D02*
X044699Y015709D01*
X044633Y015551D02*
X043608Y015551D01*
X043529Y015392D02*
X044626Y015392D01*
X044656Y015234D02*
X043289Y015234D01*
X043071Y015234D02*
X039812Y015234D01*
X039654Y015392D02*
X041748Y015392D01*
X041590Y015551D02*
X039495Y015551D01*
X039337Y015709D02*
X041431Y015709D01*
X041273Y015868D02*
X039178Y015868D01*
X039020Y016026D02*
X041114Y016026D01*
X040956Y016185D02*
X038861Y016185D01*
X038703Y016343D02*
X040797Y016343D01*
X040639Y016502D02*
X038544Y016502D01*
X038386Y016660D02*
X040480Y016660D01*
X040322Y016819D02*
X038227Y016819D01*
X038069Y016977D02*
X040163Y016977D01*
X038450Y017770D02*
X038410Y017770D01*
X038410Y017928D02*
X038450Y017928D01*
X038450Y018087D02*
X038410Y018087D01*
X038410Y018245D02*
X038450Y018245D01*
X038185Y018245D02*
X036801Y018245D01*
X036959Y018087D02*
X038026Y018087D01*
X037868Y017928D02*
X037118Y017928D01*
X037276Y017770D02*
X037845Y017770D01*
X037845Y017611D02*
X037435Y017611D01*
X037593Y017453D02*
X037845Y017453D01*
X037752Y017294D02*
X037972Y017294D01*
X037910Y017136D02*
X038130Y017136D01*
X035017Y017136D02*
X017792Y017136D01*
X017895Y017294D02*
X034859Y017294D01*
X034765Y017453D02*
X017981Y017453D01*
X018020Y017611D02*
X034765Y017611D01*
X034765Y017770D02*
X018020Y017770D01*
X017959Y017928D02*
X034765Y017928D01*
X034913Y018087D02*
X017841Y018087D01*
X017846Y018245D02*
X035072Y018245D01*
X039265Y020781D02*
X040360Y020781D01*
X040360Y020623D02*
X039423Y020623D01*
X039582Y020464D02*
X040426Y020464D01*
X040585Y020306D02*
X039740Y020306D01*
X039899Y020147D02*
X040743Y020147D01*
X040990Y019989D02*
X040057Y019989D01*
X040216Y019830D02*
X040990Y019830D01*
X040996Y019672D02*
X040374Y019672D01*
X040533Y019513D02*
X041134Y019513D01*
X040850Y019196D02*
X042989Y019196D01*
X043147Y019038D02*
X041008Y019038D01*
X041167Y018879D02*
X043306Y018879D01*
X043336Y018721D02*
X041325Y018721D01*
X041484Y018562D02*
X043336Y018562D01*
X043336Y018404D02*
X041642Y018404D01*
X041801Y018245D02*
X043423Y018245D01*
X043930Y018707D02*
X042430Y020207D01*
X042430Y020663D01*
X042180Y020913D01*
X042430Y021163D01*
X042430Y021789D01*
X041930Y022289D01*
X042930Y022182D02*
X043036Y022288D01*
X043036Y022307D01*
X042430Y022913D01*
X042054Y022913D01*
X041930Y023037D01*
X041930Y023163D01*
X042055Y023163D01*
X042430Y023538D01*
X042430Y024913D01*
X043180Y025663D01*
X043780Y025663D01*
X043780Y026563D01*
X043036Y027307D01*
X043036Y027413D01*
X043036Y028057D01*
X042930Y028163D01*
X042930Y029663D01*
X043180Y029913D01*
X043780Y029913D01*
X043289Y030291D02*
X042071Y030291D01*
X042413Y030133D02*
X042947Y030133D01*
X042788Y029974D02*
X042572Y029974D01*
X042611Y029934D02*
X042611Y029934D01*
X042430Y029663D02*
X042430Y025913D01*
X042180Y025663D01*
X041580Y025663D01*
X041430Y025663D01*
X041180Y025913D01*
X041180Y026288D01*
X040360Y026329D02*
X038208Y026329D01*
X038111Y026434D02*
X038111Y026434D01*
X038059Y026487D02*
X040360Y026487D01*
X040360Y026646D02*
X037900Y026646D01*
X037680Y026413D02*
X037930Y026163D01*
X037930Y024913D01*
X037610Y024585D02*
X037583Y024585D01*
X037618Y024427D02*
X040360Y024427D01*
X040360Y024268D02*
X037594Y024268D01*
X037180Y024413D02*
X037180Y025333D01*
X037090Y025423D01*
X036747Y024788D02*
X036659Y024825D01*
X036640Y024844D01*
X036621Y024825D01*
X036555Y024797D01*
X036631Y024766D01*
X036698Y024699D01*
X036735Y024610D01*
X036735Y024003D01*
X036698Y023915D01*
X036635Y023852D01*
X036644Y023837D01*
X036655Y023796D01*
X036655Y023567D01*
X036228Y023567D01*
X036228Y023471D01*
X036655Y023471D01*
X036655Y023242D01*
X036652Y023233D01*
X036797Y023233D01*
X036812Y023248D01*
X036790Y023300D01*
X036790Y024026D01*
X036827Y024114D01*
X036843Y024130D01*
X036808Y024165D01*
X036742Y024326D01*
X036742Y024500D01*
X036808Y024661D01*
X036860Y024713D01*
X036860Y024788D01*
X036747Y024788D01*
X036653Y024744D02*
X036860Y024744D01*
X036777Y024585D02*
X036735Y024585D01*
X036735Y024427D02*
X036742Y024427D01*
X036735Y024268D02*
X036765Y024268D01*
X036735Y024110D02*
X036825Y024110D01*
X036790Y023951D02*
X036713Y023951D01*
X036655Y023793D02*
X036790Y023793D01*
X036790Y023634D02*
X036655Y023634D01*
X036790Y023476D02*
X036228Y023476D01*
X036132Y023476D02*
X035482Y023476D01*
X035485Y023483D02*
X035485Y024091D01*
X035448Y024179D01*
X035381Y024246D01*
X035293Y024283D01*
X034567Y024283D01*
X034479Y024246D01*
X034412Y024179D01*
X034382Y024107D01*
X034240Y024107D01*
X034123Y024058D01*
X033797Y023733D01*
X033758Y023733D01*
X033750Y023741D01*
X033750Y024151D01*
X033779Y024143D01*
X033930Y024143D01*
X034081Y024143D01*
X034122Y024154D01*
X034158Y024175D01*
X034188Y024205D01*
X034209Y024241D01*
X034220Y024282D01*
X034220Y024703D01*
X034220Y025124D01*
X034209Y025165D01*
X034188Y025201D01*
X034179Y025210D01*
X034611Y025642D01*
X034701Y025732D01*
X034750Y025849D01*
X034750Y026390D01*
X034999Y026142D01*
X035116Y026093D01*
X035797Y026093D01*
X035837Y026054D01*
X035759Y026021D01*
X035692Y025954D01*
X035687Y025942D01*
X035683Y025946D01*
X035647Y025967D01*
X035606Y025978D01*
X035358Y025978D01*
X035358Y025490D01*
X035222Y025490D01*
X035222Y025355D01*
X035358Y025355D01*
X035358Y024868D01*
X035606Y024868D01*
X035647Y024879D01*
X035683Y024900D01*
X035687Y024904D01*
X035692Y024892D01*
X035759Y024825D01*
X035815Y024801D01*
X035729Y024766D01*
X035662Y024699D01*
X035625Y024610D01*
X035625Y024003D01*
X035662Y023915D01*
X035725Y023852D01*
X035716Y023837D01*
X035705Y023796D01*
X035705Y023567D01*
X036132Y023567D01*
X036132Y023471D01*
X035705Y023471D01*
X035705Y023242D01*
X035708Y023233D01*
X035485Y023233D01*
X035485Y023343D01*
X035456Y023413D01*
X035485Y023483D01*
X035485Y023634D02*
X035705Y023634D01*
X035705Y023793D02*
X035485Y023793D01*
X035485Y023951D02*
X035647Y023951D01*
X035625Y024110D02*
X035477Y024110D01*
X035329Y024268D02*
X035625Y024268D01*
X035625Y024427D02*
X034220Y024427D01*
X034220Y024585D02*
X035625Y024585D01*
X035707Y024744D02*
X034220Y024744D01*
X034220Y024703D02*
X033930Y024703D01*
X033930Y024703D01*
X034220Y024703D01*
X034220Y024902D02*
X034895Y024902D01*
X034897Y024900D02*
X034933Y024879D01*
X034974Y024868D01*
X035222Y024868D01*
X035222Y025355D01*
X034835Y025355D01*
X034835Y025007D01*
X034846Y024966D01*
X034867Y024930D01*
X034897Y024900D01*
X034835Y025061D02*
X034220Y025061D01*
X034189Y025219D02*
X034835Y025219D01*
X034835Y025490D02*
X035222Y025490D01*
X035222Y025978D01*
X034974Y025978D01*
X034933Y025967D01*
X034897Y025946D01*
X034867Y025916D01*
X034846Y025880D01*
X034835Y025839D01*
X034835Y025490D01*
X034835Y025536D02*
X034506Y025536D01*
X034664Y025695D02*
X034835Y025695D01*
X034839Y025853D02*
X034750Y025853D01*
X034750Y026012D02*
X035749Y026012D01*
X035358Y025853D02*
X035222Y025853D01*
X035222Y025695D02*
X035358Y025695D01*
X035358Y025536D02*
X035222Y025536D01*
X035222Y025378D02*
X034347Y025378D01*
X033930Y025413D02*
X034430Y025913D01*
X034430Y028288D01*
X033680Y029038D01*
X033680Y029663D01*
X033180Y030163D01*
X030555Y030163D01*
X030305Y029913D01*
X030305Y029451D01*
X030267Y029413D01*
X025430Y029413D01*
X024930Y028913D01*
X025388Y028919D02*
X025563Y029093D01*
X029805Y029093D01*
X029827Y029041D01*
X029885Y028983D01*
X027616Y028983D01*
X027499Y028934D01*
X027409Y028844D01*
X026991Y028427D01*
X026943Y028309D01*
X026943Y027694D01*
X026926Y027677D01*
X026830Y027677D01*
X026830Y027163D01*
X026830Y027163D01*
X026830Y026649D01*
X026926Y026649D01*
X026969Y026605D01*
X027057Y026569D01*
X027468Y026569D01*
X027479Y026573D01*
X027491Y026569D01*
X027901Y026569D01*
X027912Y026573D01*
X027924Y026569D01*
X028334Y026569D01*
X028422Y026605D01*
X028490Y026673D01*
X028526Y026761D01*
X028526Y026846D01*
X028642Y026846D01*
X028642Y027341D01*
X028757Y027341D01*
X028757Y026846D01*
X028996Y026846D01*
X029037Y026856D01*
X029074Y026877D01*
X029103Y026907D01*
X029124Y026944D01*
X029135Y026984D01*
X029135Y027341D01*
X028757Y027341D01*
X028757Y027457D01*
X028642Y027457D01*
X028642Y027953D01*
X028403Y027953D01*
X028362Y027942D01*
X028326Y027921D01*
X028296Y027891D01*
X028275Y027855D01*
X028264Y027814D01*
X028264Y027757D01*
X027924Y027757D01*
X027912Y027753D01*
X027901Y027757D01*
X027583Y027757D01*
X027583Y028113D01*
X027813Y028343D01*
X029521Y028343D01*
X029421Y028301D01*
X029292Y028172D01*
X029222Y028004D01*
X029222Y027822D01*
X029292Y027653D01*
X029421Y027525D01*
X029589Y027455D01*
X029771Y027455D01*
X029939Y027525D01*
X030068Y027653D01*
X030138Y027822D01*
X030138Y027919D01*
X030313Y028093D01*
X030509Y028093D01*
X030472Y028004D01*
X030472Y027822D01*
X030496Y027763D01*
X030252Y027763D01*
X030164Y027726D01*
X030097Y027659D01*
X030060Y027571D01*
X030060Y026675D01*
X030097Y026587D01*
X030164Y026520D01*
X030252Y026483D01*
X030608Y026483D01*
X030680Y026513D01*
X030752Y026483D01*
X031108Y026483D01*
X031180Y026513D01*
X031252Y026483D01*
X031608Y026483D01*
X031680Y026513D01*
X031752Y026483D01*
X032047Y026483D01*
X032034Y026469D01*
X031930Y026366D01*
X031861Y026434D01*
X031744Y026483D01*
X026813Y026483D01*
X026717Y026579D01*
X026717Y026632D01*
X026733Y026649D01*
X026830Y026649D01*
X026830Y027163D01*
X026830Y027163D01*
X026830Y027677D01*
X026733Y027677D01*
X026690Y027721D01*
X026602Y027757D01*
X026257Y027757D01*
X026235Y027811D01*
X025451Y028594D01*
X025361Y028684D01*
X025336Y028695D01*
X025388Y028822D01*
X025388Y028919D01*
X025388Y028865D02*
X027429Y028865D01*
X027270Y028706D02*
X025340Y028706D01*
X025498Y028548D02*
X027112Y028548D01*
X026976Y028389D02*
X025657Y028389D01*
X025815Y028231D02*
X026943Y028231D01*
X026943Y028072D02*
X025974Y028072D01*
X026132Y027914D02*
X026943Y027914D01*
X026943Y027755D02*
X026607Y027755D01*
X026830Y027597D02*
X026830Y027597D01*
X026830Y027438D02*
X026830Y027438D01*
X026830Y027280D02*
X026830Y027280D01*
X026830Y027121D02*
X026830Y027121D01*
X026830Y026963D02*
X026830Y026963D01*
X026830Y026804D02*
X026830Y026804D01*
X026730Y026646D02*
X026929Y026646D01*
X026809Y026487D02*
X030243Y026487D01*
X030072Y026646D02*
X028463Y026646D01*
X028526Y026804D02*
X030060Y026804D01*
X030060Y026963D02*
X029129Y026963D01*
X029135Y027121D02*
X030060Y027121D01*
X030060Y027280D02*
X029135Y027280D01*
X029135Y027457D02*
X029135Y027814D01*
X029124Y027855D01*
X029103Y027891D01*
X029074Y027921D01*
X029037Y027942D01*
X028996Y027953D01*
X028757Y027953D01*
X028757Y027457D01*
X029135Y027457D01*
X029135Y027597D02*
X029349Y027597D01*
X029250Y027755D02*
X029135Y027755D01*
X029081Y027914D02*
X029222Y027914D01*
X029250Y028072D02*
X027583Y028072D01*
X027583Y027914D02*
X028318Y027914D01*
X028642Y027914D02*
X028757Y027914D01*
X028757Y027755D02*
X028642Y027755D01*
X028642Y027597D02*
X028757Y027597D01*
X028757Y027438D02*
X030060Y027438D01*
X030071Y027597D02*
X030011Y027597D01*
X030110Y027755D02*
X030233Y027755D01*
X030138Y027914D02*
X030472Y027914D01*
X030500Y028072D02*
X030292Y028072D01*
X030180Y028413D02*
X029680Y027913D01*
X029350Y028231D02*
X027700Y028231D01*
X027680Y028663D02*
X031680Y028663D01*
X031180Y028413D02*
X030180Y028413D01*
X029845Y029023D02*
X025493Y029023D01*
X025180Y028413D02*
X024430Y028413D01*
X024430Y029163D01*
X025430Y030163D01*
X029930Y030163D01*
X030430Y030663D01*
X033430Y030663D01*
X034180Y029913D01*
X034180Y029163D01*
X034930Y028413D01*
X034930Y026663D01*
X035180Y026413D01*
X035930Y026413D01*
X036180Y026163D01*
X036430Y026413D01*
X037680Y026413D01*
X038250Y026170D02*
X040360Y026170D01*
X040360Y026012D02*
X038250Y026012D01*
X038250Y025853D02*
X040360Y025853D01*
X040360Y025695D02*
X038250Y025695D01*
X038250Y025536D02*
X040360Y025536D01*
X040360Y025378D02*
X038250Y025378D01*
X038272Y025219D02*
X040360Y025219D01*
X040360Y025061D02*
X038365Y025061D01*
X038388Y024902D02*
X040360Y024902D01*
X040404Y024744D02*
X038356Y024744D01*
X038250Y024585D02*
X040405Y024585D01*
X040680Y024413D02*
X040930Y024663D01*
X040680Y024913D01*
X040680Y028663D01*
X040180Y029163D01*
X035180Y029163D01*
X034779Y029340D02*
X034500Y029340D01*
X034500Y029499D02*
X034774Y029499D01*
X034742Y029657D02*
X034500Y029657D01*
X034500Y029816D02*
X034769Y029816D01*
X034871Y029974D02*
X034500Y029974D01*
X034413Y030133D02*
X040990Y030133D01*
X040990Y029974D02*
X040515Y029974D01*
X040730Y029816D02*
X040990Y029816D01*
X041089Y030291D02*
X034255Y030291D01*
X034096Y030450D02*
X044514Y030450D01*
X044387Y030291D02*
X044271Y030291D01*
X044680Y030163D02*
X044930Y030413D01*
X046680Y030413D01*
X048180Y028913D01*
X048945Y028865D02*
X051978Y028865D01*
X051996Y028860D02*
X052085Y028848D01*
X053100Y028848D01*
X053100Y029453D01*
X051450Y029453D01*
X051457Y029399D01*
X051480Y029312D01*
X051514Y029229D01*
X051559Y029152D01*
X051614Y029080D01*
X051677Y029017D01*
X051749Y028962D01*
X051826Y028917D01*
X051909Y028883D01*
X051996Y028860D01*
X051671Y029023D02*
X048945Y029023D01*
X048945Y029182D02*
X051542Y029182D01*
X051473Y029340D02*
X048945Y029340D01*
X048945Y029499D02*
X053100Y029499D01*
X053100Y029453D02*
X053100Y029613D01*
X053100Y030218D01*
X052085Y030218D01*
X051996Y030206D01*
X051909Y030183D01*
X051826Y030149D01*
X051749Y030104D01*
X051677Y030049D01*
X051614Y029986D01*
X051559Y029914D01*
X051514Y029837D01*
X051480Y029754D01*
X051457Y029667D01*
X051450Y029613D01*
X053100Y029613D01*
X053260Y029613D01*
X053260Y030213D01*
X053314Y030206D01*
X053401Y030183D01*
X053484Y030149D01*
X053561Y030104D01*
X053633Y030049D01*
X053696Y029986D01*
X053751Y029914D01*
X053796Y029837D01*
X053830Y029754D01*
X053853Y029667D01*
X053860Y029613D01*
X053260Y029613D01*
X053260Y029453D01*
X053860Y029453D01*
X053853Y029399D01*
X053830Y029312D01*
X053796Y029229D01*
X053751Y029152D01*
X053696Y029080D01*
X053633Y029017D01*
X053561Y028962D01*
X053484Y028917D01*
X053401Y028883D01*
X053314Y028860D01*
X053260Y028853D01*
X053260Y029453D01*
X053100Y029453D01*
X053100Y029340D02*
X053260Y029340D01*
X053260Y029182D02*
X053100Y029182D01*
X053100Y029023D02*
X053260Y029023D01*
X053260Y028865D02*
X053100Y028865D01*
X053332Y028865D02*
X055900Y028865D01*
X055900Y029023D02*
X053639Y029023D01*
X053768Y029182D02*
X055900Y029182D01*
X055900Y029340D02*
X053837Y029340D01*
X053855Y029657D02*
X055900Y029657D01*
X055900Y029499D02*
X053260Y029499D01*
X053260Y029657D02*
X053100Y029657D01*
X053100Y029816D02*
X053260Y029816D01*
X053260Y029974D02*
X053100Y029974D01*
X053100Y030133D02*
X053260Y030133D01*
X053512Y030133D02*
X055900Y030133D01*
X055900Y030163D02*
X055900Y005719D01*
X055900Y005663D01*
X055889Y005470D01*
X055803Y005095D01*
X055636Y004748D01*
X055396Y004447D01*
X055095Y004207D01*
X054748Y004040D01*
X054373Y003954D01*
X054180Y003943D01*
X002430Y003943D01*
X002237Y003954D01*
X001862Y004040D01*
X001515Y004207D01*
X001214Y004447D01*
X000974Y004748D01*
X000807Y005095D01*
X000721Y005470D01*
X000710Y005663D01*
X000710Y030163D01*
X000721Y030356D01*
X000807Y030731D01*
X000974Y031078D01*
X001214Y031379D01*
X001515Y031619D01*
X001862Y031786D01*
X002237Y031872D01*
X002430Y031883D01*
X054180Y031883D01*
X054373Y031872D01*
X054748Y031786D01*
X055095Y031619D01*
X055396Y031379D01*
X055636Y031078D01*
X055803Y030731D01*
X055889Y030356D01*
X055900Y030163D01*
X055893Y030291D02*
X047255Y030291D01*
X047413Y030133D02*
X047858Y030133D01*
X047634Y029974D02*
X047572Y029974D01*
X047142Y029499D02*
X046445Y029499D01*
X046445Y029340D02*
X047300Y029340D01*
X047415Y029182D02*
X046445Y029182D01*
X046445Y029023D02*
X047415Y029023D01*
X047415Y028865D02*
X046445Y028865D01*
X046445Y028706D02*
X047415Y028706D01*
X047415Y028548D02*
X046445Y028548D01*
X046445Y028389D02*
X047415Y028389D01*
X047417Y028231D02*
X046443Y028231D01*
X046377Y028072D02*
X047483Y028072D01*
X047573Y027914D02*
X046287Y027914D01*
X046129Y027755D02*
X047731Y027755D01*
X048629Y027755D02*
X055900Y027755D01*
X055900Y027597D02*
X044240Y027597D01*
X044238Y027755D02*
X045231Y027755D01*
X045073Y027914D02*
X043446Y027914D01*
X043356Y028072D02*
X044983Y028072D01*
X044917Y028231D02*
X044290Y028231D01*
X044290Y028212D02*
X044290Y028403D01*
X043790Y028403D01*
X043790Y028073D01*
X044151Y028073D01*
X044192Y028084D01*
X044228Y028105D01*
X044258Y028135D01*
X044279Y028171D01*
X044290Y028212D01*
X044290Y028389D02*
X044915Y028389D01*
X044915Y028548D02*
X044290Y028548D01*
X043790Y028389D02*
X043770Y028389D01*
X043770Y028231D02*
X043790Y028231D01*
X043776Y027755D02*
X043872Y027755D01*
X043872Y027597D02*
X043776Y027597D01*
X043872Y027438D02*
X051808Y027438D01*
X051826Y027449D02*
X051749Y027404D01*
X051677Y027349D01*
X051614Y027286D01*
X051559Y027214D01*
X051514Y027137D01*
X051480Y027054D01*
X051457Y026967D01*
X051450Y026913D01*
X053100Y026913D01*
X053100Y027518D01*
X052085Y027518D01*
X051996Y027506D01*
X051909Y027483D01*
X051826Y027449D01*
X051609Y027280D02*
X044240Y027280D01*
X044240Y027365D02*
X043872Y027365D01*
X043872Y026938D01*
X044101Y026938D01*
X044141Y026949D01*
X044178Y026970D01*
X044208Y027000D01*
X044229Y027036D01*
X044240Y027077D01*
X044240Y027365D01*
X044240Y027121D02*
X051508Y027121D01*
X051456Y026963D02*
X044165Y026963D01*
X043992Y026804D02*
X053100Y026804D01*
X053100Y026753D02*
X051450Y026753D01*
X051457Y026699D01*
X051480Y026612D01*
X051514Y026529D01*
X051559Y026452D01*
X051614Y026380D01*
X051677Y026317D01*
X051749Y026262D01*
X051826Y026217D01*
X051909Y026183D01*
X051996Y026160D01*
X052085Y026148D01*
X053100Y026148D01*
X053100Y026753D01*
X053100Y026913D01*
X053260Y026913D01*
X053260Y027513D01*
X053314Y027506D01*
X053401Y027483D01*
X053484Y027449D01*
X053561Y027404D01*
X053633Y027349D01*
X053696Y027286D01*
X053751Y027214D01*
X053796Y027137D01*
X053830Y027054D01*
X053853Y026967D01*
X053860Y026913D01*
X053260Y026913D01*
X053260Y026753D01*
X053860Y026753D01*
X053853Y026699D01*
X053830Y026612D01*
X053796Y026529D01*
X053751Y026452D01*
X053696Y026380D01*
X053633Y026317D01*
X053561Y026262D01*
X053484Y026217D01*
X053401Y026183D01*
X053314Y026160D01*
X053260Y026153D01*
X053260Y026753D01*
X053100Y026753D01*
X053100Y026646D02*
X053260Y026646D01*
X053260Y026804D02*
X055900Y026804D01*
X055900Y026646D02*
X053839Y026646D01*
X053771Y026487D02*
X055900Y026487D01*
X055900Y026329D02*
X053644Y026329D01*
X053352Y026170D02*
X055900Y026170D01*
X055900Y026012D02*
X047284Y026012D01*
X047126Y026170D02*
X051958Y026170D01*
X051996Y025956D02*
X051909Y025933D01*
X051826Y025899D01*
X051749Y025854D01*
X051677Y025799D01*
X051614Y025736D01*
X051559Y025664D01*
X051514Y025587D01*
X051480Y025504D01*
X051457Y025417D01*
X051450Y025363D01*
X053100Y025363D01*
X053100Y025968D01*
X052085Y025968D01*
X051996Y025956D01*
X051748Y025853D02*
X048574Y025853D01*
X048755Y025695D02*
X051582Y025695D01*
X051493Y025536D02*
X048864Y025536D01*
X048930Y025378D02*
X051452Y025378D01*
X051450Y025203D02*
X051457Y025149D01*
X051480Y025062D01*
X051514Y024979D01*
X051559Y024902D01*
X048945Y024902D01*
X048945Y024744D02*
X051708Y024744D01*
X051677Y024767D02*
X051749Y024712D01*
X051826Y024667D01*
X051909Y024633D01*
X051996Y024610D01*
X052085Y024598D01*
X053100Y024598D01*
X053100Y025203D01*
X051450Y025203D01*
X051481Y025061D02*
X048945Y025061D01*
X048945Y025219D02*
X053100Y025219D01*
X053100Y025203D02*
X053100Y025363D01*
X053260Y025363D01*
X053260Y025963D01*
X053314Y025956D01*
X053401Y025933D01*
X053484Y025899D01*
X053561Y025854D01*
X053633Y025799D01*
X053696Y025736D01*
X053751Y025664D01*
X053796Y025587D01*
X053830Y025504D01*
X053853Y025417D01*
X053860Y025363D01*
X053260Y025363D01*
X053260Y025203D01*
X053860Y025203D01*
X053853Y025149D01*
X053830Y025062D01*
X053796Y024979D01*
X053751Y024902D01*
X055900Y024902D01*
X055900Y024744D02*
X053602Y024744D01*
X053633Y024767D02*
X053696Y024830D01*
X053751Y024902D01*
X053829Y025061D02*
X055900Y025061D01*
X055900Y025219D02*
X053260Y025219D01*
X053260Y025203D02*
X053260Y024603D01*
X053314Y024610D01*
X053401Y024633D01*
X053484Y024667D01*
X053561Y024712D01*
X053633Y024767D01*
X053260Y024744D02*
X053100Y024744D01*
X053100Y024902D02*
X053260Y024902D01*
X053260Y025061D02*
X053100Y025061D01*
X053100Y025203D02*
X053260Y025203D01*
X053260Y025378D02*
X053100Y025378D01*
X053100Y025536D02*
X053260Y025536D01*
X053260Y025695D02*
X053100Y025695D01*
X053100Y025853D02*
X053260Y025853D01*
X053562Y025853D02*
X055900Y025853D01*
X055900Y025695D02*
X053728Y025695D01*
X053817Y025536D02*
X055900Y025536D01*
X055900Y025378D02*
X053858Y025378D01*
X053260Y026170D02*
X053100Y026170D01*
X053100Y026329D02*
X053260Y026329D01*
X053260Y026487D02*
X053100Y026487D01*
X053100Y026963D02*
X053260Y026963D01*
X053260Y027121D02*
X053100Y027121D01*
X053100Y027280D02*
X053260Y027280D01*
X053260Y027438D02*
X053100Y027438D01*
X053502Y027438D02*
X055900Y027438D01*
X055900Y027280D02*
X053701Y027280D01*
X053802Y027121D02*
X055900Y027121D01*
X055900Y026963D02*
X053854Y026963D01*
X051666Y026329D02*
X046967Y026329D01*
X046680Y026163D02*
X048180Y024663D01*
X048945Y024585D02*
X055900Y024585D01*
X055900Y024427D02*
X048945Y024427D01*
X048945Y024268D02*
X055900Y024268D01*
X055900Y024110D02*
X048945Y024110D01*
X048931Y023951D02*
X055900Y023951D01*
X055900Y023793D02*
X048865Y023793D01*
X048758Y023634D02*
X055900Y023634D01*
X055900Y023476D02*
X048580Y023476D01*
X047780Y023476D02*
X046080Y023476D01*
X046258Y023634D02*
X047602Y023634D01*
X047495Y023793D02*
X046365Y023793D01*
X046431Y023951D02*
X047429Y023951D01*
X047415Y024110D02*
X046445Y024110D01*
X046445Y024268D02*
X047415Y024268D01*
X047415Y024427D02*
X046445Y024427D01*
X046445Y024585D02*
X047415Y024585D01*
X047415Y024744D02*
X046445Y024744D01*
X046445Y024902D02*
X047415Y024902D01*
X047330Y025061D02*
X046445Y025061D01*
X046445Y025219D02*
X047171Y025219D01*
X047013Y025378D02*
X046430Y025378D01*
X046364Y025536D02*
X046854Y025536D01*
X046696Y025695D02*
X046255Y025695D01*
X046680Y026163D02*
X044930Y026163D01*
X044680Y025913D01*
X044680Y025413D01*
X044430Y025163D01*
X043780Y025163D01*
X043190Y025219D02*
X043189Y025219D01*
X043190Y025061D02*
X043030Y025061D01*
X042872Y024902D02*
X043195Y024902D01*
X043190Y024744D02*
X042750Y024744D01*
X042750Y024585D02*
X043190Y024585D01*
X043194Y024427D02*
X042750Y024427D01*
X042750Y024268D02*
X043270Y024268D01*
X043270Y024110D02*
X042750Y024110D01*
X042750Y023951D02*
X043273Y023951D01*
X042820Y023793D02*
X044995Y023793D01*
X044929Y023951D02*
X044287Y023951D01*
X044290Y023962D02*
X044290Y024153D01*
X043790Y024153D01*
X043790Y023823D01*
X044151Y023823D01*
X044192Y023834D01*
X044228Y023855D01*
X044258Y023885D01*
X044279Y023921D01*
X044290Y023962D01*
X044290Y024110D02*
X044915Y024110D01*
X044915Y024268D02*
X044290Y024268D01*
X043790Y024110D02*
X043770Y024110D01*
X043770Y023951D02*
X043790Y023951D01*
X042886Y023634D02*
X045102Y023634D01*
X045280Y023476D02*
X042888Y023476D01*
X042834Y023317D02*
X055900Y023317D01*
X055900Y023159D02*
X053553Y023159D01*
X053561Y023154D02*
X053484Y023199D01*
X053401Y023233D01*
X053314Y023256D01*
X053260Y023263D01*
X053260Y022663D01*
X053100Y022663D01*
X053100Y023268D01*
X052085Y023268D01*
X051996Y023256D01*
X051909Y023233D01*
X051826Y023199D01*
X051749Y023154D01*
X051677Y023099D01*
X051614Y023036D01*
X051559Y022964D01*
X051514Y022887D01*
X051480Y022804D01*
X051457Y022717D01*
X051450Y022663D01*
X053100Y022663D01*
X053100Y022503D01*
X051450Y022503D01*
X051457Y022449D01*
X051480Y022362D01*
X051514Y022279D01*
X051559Y022202D01*
X051614Y022130D01*
X051677Y022067D01*
X051749Y022012D01*
X051826Y021967D01*
X051909Y021933D01*
X051996Y021910D01*
X052085Y021898D01*
X053100Y021898D01*
X053100Y022503D01*
X053260Y022503D01*
X053260Y022663D01*
X053860Y022663D01*
X053853Y022717D01*
X053830Y022804D01*
X053796Y022887D01*
X053751Y022964D01*
X053696Y023036D01*
X053633Y023099D01*
X053561Y023154D01*
X053723Y023000D02*
X055900Y023000D01*
X055900Y022842D02*
X053814Y022842D01*
X053858Y022683D02*
X055900Y022683D01*
X055900Y022525D02*
X053260Y022525D01*
X053260Y022503D02*
X053860Y022503D01*
X053853Y022449D01*
X053830Y022362D01*
X053796Y022279D01*
X053751Y022202D01*
X053696Y022130D01*
X053633Y022067D01*
X053561Y022012D01*
X053484Y021967D01*
X053401Y021933D01*
X053314Y021910D01*
X053260Y021903D01*
X053260Y022503D01*
X053260Y022366D02*
X053100Y022366D01*
X053100Y022208D02*
X053260Y022208D01*
X053260Y022049D02*
X053100Y022049D01*
X053100Y021718D02*
X052085Y021718D01*
X051996Y021706D01*
X051909Y021683D01*
X051826Y021649D01*
X051749Y021604D01*
X051677Y021549D01*
X051614Y021486D01*
X051559Y021414D01*
X051514Y021337D01*
X051480Y021254D01*
X051457Y021167D01*
X051450Y021113D01*
X053100Y021113D01*
X053100Y021718D01*
X053100Y021574D02*
X053260Y021574D01*
X053260Y021713D02*
X053260Y021113D01*
X053100Y021113D01*
X053100Y020953D01*
X051450Y020953D01*
X051457Y020899D01*
X051480Y020812D01*
X051514Y020729D01*
X051559Y020652D01*
X051614Y020580D01*
X051677Y020517D01*
X051749Y020462D01*
X051826Y020417D01*
X051909Y020383D01*
X051996Y020360D01*
X052085Y020348D01*
X053100Y020348D01*
X053100Y020953D01*
X053260Y020953D01*
X053260Y021113D01*
X053860Y021113D01*
X053853Y021167D01*
X053830Y021254D01*
X053796Y021337D01*
X053751Y021414D01*
X053696Y021486D01*
X053633Y021549D01*
X053561Y021604D01*
X053484Y021649D01*
X053401Y021683D01*
X053314Y021706D01*
X053260Y021713D01*
X053260Y021415D02*
X053100Y021415D01*
X053100Y021257D02*
X053260Y021257D01*
X053260Y021098D02*
X055900Y021098D01*
X055900Y020940D02*
X053859Y020940D01*
X053860Y020953D02*
X053260Y020953D01*
X053260Y020353D01*
X053314Y020360D01*
X053401Y020383D01*
X053484Y020417D01*
X053561Y020462D01*
X053633Y020517D01*
X053696Y020580D01*
X053751Y020652D01*
X053796Y020729D01*
X053830Y020812D01*
X053853Y020899D01*
X053860Y020953D01*
X053817Y020781D02*
X055900Y020781D01*
X055900Y020623D02*
X053728Y020623D01*
X053564Y020464D02*
X055900Y020464D01*
X055900Y020306D02*
X048945Y020306D01*
X048945Y020464D02*
X051746Y020464D01*
X051582Y020623D02*
X048945Y020623D01*
X048945Y020781D02*
X051493Y020781D01*
X051451Y020940D02*
X048945Y020940D01*
X048942Y021098D02*
X053100Y021098D01*
X053100Y020940D02*
X053260Y020940D01*
X053260Y020781D02*
X053100Y020781D01*
X053100Y020623D02*
X053260Y020623D01*
X053260Y020464D02*
X053100Y020464D01*
X053829Y021257D02*
X055900Y021257D01*
X055900Y021415D02*
X053750Y021415D01*
X053601Y021574D02*
X055900Y021574D01*
X055900Y021732D02*
X047314Y021732D01*
X047472Y021574D02*
X047734Y021574D01*
X047155Y021891D02*
X055900Y021891D01*
X055900Y022049D02*
X053609Y022049D01*
X053754Y022208D02*
X055900Y022208D01*
X055900Y022366D02*
X053831Y022366D01*
X053260Y022683D02*
X053100Y022683D01*
X053100Y022525D02*
X044240Y022525D01*
X044240Y022366D02*
X051479Y022366D01*
X051556Y022208D02*
X046805Y022208D01*
X046997Y022049D02*
X051701Y022049D01*
X051709Y021574D02*
X048626Y021574D01*
X048785Y021415D02*
X051560Y021415D01*
X051481Y021257D02*
X048876Y021257D01*
X047359Y020781D02*
X046445Y020781D01*
X046445Y020623D02*
X047415Y020623D01*
X047415Y020464D02*
X046445Y020464D01*
X046445Y020306D02*
X047415Y020306D01*
X047415Y020147D02*
X046445Y020147D01*
X046445Y019989D02*
X047415Y019989D01*
X047415Y019830D02*
X046445Y019830D01*
X046418Y019672D02*
X047442Y019672D01*
X047507Y019513D02*
X046353Y019513D01*
X046228Y019355D02*
X047632Y019355D01*
X047852Y019196D02*
X046008Y019196D01*
X045352Y019196D02*
X044397Y019196D01*
X044521Y019038D02*
X055900Y019038D01*
X055900Y019196D02*
X048508Y019196D01*
X048728Y019355D02*
X055900Y019355D01*
X055900Y019513D02*
X048853Y019513D01*
X048918Y019672D02*
X055900Y019672D01*
X055900Y019830D02*
X048945Y019830D01*
X048945Y019989D02*
X055900Y019989D01*
X055900Y020147D02*
X048945Y020147D01*
X048180Y020413D02*
X046680Y021913D01*
X044930Y021913D01*
X044680Y021663D01*
X044680Y021163D01*
X044430Y020913D01*
X043780Y020913D01*
X043780Y021413D02*
X043180Y021413D01*
X042930Y021663D01*
X042930Y022182D01*
X043343Y022842D02*
X051496Y022842D01*
X051452Y022683D02*
X044218Y022683D01*
X043872Y022683D02*
X043776Y022683D01*
X043776Y022525D02*
X043872Y022525D01*
X043872Y022366D02*
X043776Y022366D01*
X044240Y022208D02*
X044805Y022208D01*
X044613Y022049D02*
X044240Y022049D01*
X044217Y021891D02*
X044455Y021891D01*
X044362Y021732D02*
X044330Y021732D01*
X043104Y021098D02*
X042749Y021098D01*
X042750Y021257D02*
X042884Y021257D01*
X042659Y020940D02*
X043190Y020940D01*
X043190Y020781D02*
X042727Y020781D01*
X042750Y020623D02*
X043190Y020623D01*
X043190Y020464D02*
X042750Y020464D01*
X042784Y020306D02*
X043190Y020306D01*
X043206Y020147D02*
X042943Y020147D01*
X043101Y019989D02*
X043270Y019989D01*
X043260Y019830D02*
X043270Y019830D01*
X043577Y019513D02*
X045007Y019513D01*
X044942Y019672D02*
X044279Y019672D01*
X044279Y019671D02*
X044290Y019712D01*
X044290Y019903D01*
X043790Y019903D01*
X043790Y019573D01*
X044151Y019573D01*
X044192Y019584D01*
X044228Y019605D01*
X044258Y019635D01*
X044279Y019671D01*
X044290Y019830D02*
X044915Y019830D01*
X044915Y019989D02*
X044290Y019989D01*
X043790Y019830D02*
X043770Y019830D01*
X043770Y019672D02*
X043790Y019672D01*
X043735Y019355D02*
X045132Y019355D01*
X044524Y018879D02*
X051716Y018879D01*
X051749Y018904D02*
X051677Y018849D01*
X051614Y018786D01*
X051559Y018714D01*
X051514Y018637D01*
X051480Y018554D01*
X051457Y018467D01*
X051450Y018413D01*
X053100Y018413D01*
X053100Y019018D01*
X052085Y019018D01*
X051996Y019006D01*
X051909Y018983D01*
X051826Y018949D01*
X051749Y018904D01*
X051564Y018721D02*
X044524Y018721D01*
X044524Y018562D02*
X051483Y018562D01*
X051451Y018245D02*
X044437Y018245D01*
X044524Y018404D02*
X053100Y018404D01*
X053100Y018413D02*
X053100Y018253D01*
X053260Y018253D01*
X053260Y018413D01*
X053100Y018413D01*
X053100Y018562D02*
X053260Y018562D01*
X053260Y018413D02*
X053260Y019013D01*
X053314Y019006D01*
X053401Y018983D01*
X053484Y018949D01*
X053561Y018904D01*
X053633Y018849D01*
X053696Y018786D01*
X053751Y018714D01*
X053796Y018637D01*
X053830Y018554D01*
X053853Y018467D01*
X053860Y018413D01*
X053260Y018413D01*
X053260Y018404D02*
X055900Y018404D01*
X055900Y018562D02*
X053827Y018562D01*
X053746Y018721D02*
X055900Y018721D01*
X055900Y018879D02*
X053594Y018879D01*
X053260Y018879D02*
X053100Y018879D01*
X053100Y018721D02*
X053260Y018721D01*
X053260Y018253D02*
X053860Y018253D01*
X053853Y018199D01*
X053830Y018112D01*
X053796Y018029D01*
X053751Y017952D01*
X053696Y017880D01*
X053633Y017817D01*
X053561Y017762D01*
X053484Y017717D01*
X053401Y017683D01*
X053314Y017660D01*
X053260Y017653D01*
X053260Y018253D01*
X053260Y018245D02*
X053100Y018245D01*
X053100Y018087D02*
X053260Y018087D01*
X053260Y017928D02*
X053100Y017928D01*
X053100Y017770D02*
X053260Y017770D01*
X053185Y017611D02*
X055900Y017611D01*
X055900Y017453D02*
X053343Y017453D01*
X053502Y017294D02*
X055900Y017294D01*
X055900Y017136D02*
X053660Y017136D01*
X053819Y016977D02*
X055900Y016977D01*
X055900Y016819D02*
X053977Y016819D01*
X054136Y016660D02*
X055900Y016660D01*
X055900Y016502D02*
X054294Y016502D01*
X054453Y016343D02*
X055900Y016343D01*
X055900Y016185D02*
X054611Y016185D01*
X054770Y016026D02*
X055900Y016026D01*
X055900Y015868D02*
X054928Y015868D01*
X055000Y015709D02*
X055900Y015709D01*
X055900Y015551D02*
X055000Y015551D01*
X055000Y015392D02*
X055900Y015392D01*
X055900Y015234D02*
X055000Y015234D01*
X055000Y015075D02*
X055900Y015075D01*
X055900Y014917D02*
X055000Y014917D01*
X055000Y014758D02*
X055900Y014758D01*
X055900Y014600D02*
X055000Y014600D01*
X055000Y014441D02*
X055900Y014441D01*
X055900Y014283D02*
X055000Y014283D01*
X055000Y014124D02*
X055900Y014124D01*
X055900Y013966D02*
X055000Y013966D01*
X055000Y013807D02*
X055900Y013807D01*
X055900Y013649D02*
X055000Y013649D01*
X055000Y013490D02*
X055900Y013490D01*
X055900Y013332D02*
X055000Y013332D01*
X055000Y013173D02*
X055900Y013173D01*
X055900Y013015D02*
X055000Y013015D01*
X055000Y012856D02*
X055900Y012856D01*
X055900Y012698D02*
X055000Y012698D01*
X055000Y012539D02*
X055900Y012539D01*
X055900Y012381D02*
X055000Y012381D01*
X055000Y012222D02*
X055900Y012222D01*
X055900Y012064D02*
X055000Y012064D01*
X055000Y011905D02*
X055900Y011905D01*
X055900Y011747D02*
X055000Y011747D01*
X055000Y011588D02*
X055900Y011588D01*
X055900Y011430D02*
X055000Y011430D01*
X055000Y011271D02*
X055900Y011271D01*
X055900Y011113D02*
X055000Y011113D01*
X055000Y010954D02*
X055900Y010954D01*
X055900Y010796D02*
X055000Y010796D01*
X055000Y010637D02*
X055900Y010637D01*
X055900Y010479D02*
X055000Y010479D01*
X055000Y010320D02*
X055900Y010320D01*
X055900Y010162D02*
X055000Y010162D01*
X055000Y010003D02*
X055900Y010003D01*
X055900Y009845D02*
X055000Y009845D01*
X055000Y009686D02*
X055900Y009686D01*
X055900Y009528D02*
X055000Y009528D01*
X055000Y009369D02*
X055900Y009369D01*
X055900Y009211D02*
X055000Y009211D01*
X054980Y009052D02*
X055900Y009052D01*
X055900Y008894D02*
X054863Y008894D01*
X054705Y008735D02*
X055900Y008735D01*
X055900Y008576D02*
X054440Y008576D01*
X054440Y008418D02*
X055900Y008418D01*
X055900Y008259D02*
X054440Y008259D01*
X054339Y008101D02*
X055900Y008101D01*
X055900Y007942D02*
X054181Y007942D01*
X054280Y007784D02*
X055900Y007784D01*
X055900Y007625D02*
X054439Y007625D01*
X054440Y007467D02*
X055900Y007467D01*
X055900Y007308D02*
X054440Y007308D01*
X054388Y007150D02*
X055900Y007150D01*
X055900Y006991D02*
X054230Y006991D01*
X054108Y006843D02*
X053940Y006843D01*
X053940Y006423D01*
X053920Y006423D01*
X053920Y006843D01*
X053752Y006843D01*
X053500Y006591D01*
X053500Y006423D01*
X053920Y006423D01*
X053920Y006403D01*
X053500Y006403D01*
X053500Y006235D01*
X053752Y005983D01*
X053920Y005983D01*
X053920Y006403D01*
X053940Y006403D01*
X053940Y006423D01*
X054360Y006423D01*
X054360Y006591D01*
X054108Y006843D01*
X054118Y006833D02*
X055900Y006833D01*
X055900Y006674D02*
X054277Y006674D01*
X054360Y006516D02*
X055900Y006516D01*
X055900Y006357D02*
X054360Y006357D01*
X054360Y006403D02*
X053940Y006403D01*
X053940Y005983D01*
X054108Y005983D01*
X054360Y006235D01*
X054360Y006403D01*
X054324Y006199D02*
X055900Y006199D01*
X055900Y006040D02*
X054166Y006040D01*
X053940Y006040D02*
X053920Y006040D01*
X053920Y006199D02*
X053940Y006199D01*
X053940Y006357D02*
X053920Y006357D01*
X053920Y006516D02*
X053940Y006516D01*
X053940Y006674D02*
X053920Y006674D01*
X053920Y006833D02*
X053940Y006833D01*
X053742Y006833D02*
X053231Y006833D01*
X053230Y006991D02*
X053630Y006991D01*
X053472Y007150D02*
X053388Y007150D01*
X053390Y006674D02*
X053583Y006674D01*
X053500Y006516D02*
X053440Y006516D01*
X053440Y006357D02*
X053500Y006357D01*
X053536Y006199D02*
X053437Y006199D01*
X053279Y006040D02*
X053694Y006040D01*
X052581Y006040D02*
X039697Y006040D01*
X039716Y006085D02*
X039583Y005765D01*
X039338Y005520D01*
X039018Y005387D01*
X038672Y005387D01*
X038352Y005520D01*
X038107Y005765D01*
X037974Y006085D01*
X037974Y006431D01*
X038107Y006751D01*
X038352Y006996D01*
X038672Y007129D01*
X039018Y007129D01*
X039338Y006996D01*
X039583Y006751D01*
X039716Y006431D01*
X039716Y006085D01*
X039716Y006199D02*
X052423Y006199D01*
X052420Y006357D02*
X039716Y006357D01*
X039680Y006516D02*
X052420Y006516D01*
X052470Y006674D02*
X039615Y006674D01*
X039501Y006833D02*
X052629Y006833D01*
X052630Y006991D02*
X039343Y006991D01*
X038347Y006991D02*
X002728Y006991D01*
X002723Y006996D02*
X002403Y007129D01*
X002057Y007129D01*
X001737Y006996D01*
X001492Y006751D01*
X001359Y006431D01*
X001359Y006085D01*
X001492Y005765D01*
X001737Y005520D01*
X002057Y005387D01*
X002403Y005387D01*
X002723Y005520D01*
X002968Y005765D01*
X003101Y006085D01*
X003101Y006431D01*
X002968Y006751D01*
X002723Y006996D01*
X002886Y006833D02*
X038189Y006833D01*
X038075Y006674D02*
X003000Y006674D01*
X003065Y006516D02*
X038010Y006516D01*
X037974Y006357D02*
X003101Y006357D01*
X003101Y006199D02*
X037974Y006199D01*
X037993Y006040D02*
X003082Y006040D01*
X003017Y005882D02*
X038058Y005882D01*
X038148Y005723D02*
X002927Y005723D01*
X002768Y005565D02*
X038307Y005565D01*
X038626Y005406D02*
X002449Y005406D01*
X002011Y005406D02*
X000735Y005406D01*
X000716Y005565D02*
X001692Y005565D01*
X001533Y005723D02*
X000710Y005723D01*
X000710Y005882D02*
X001443Y005882D01*
X001378Y006040D02*
X000710Y006040D01*
X000710Y006199D02*
X001359Y006199D01*
X001359Y006357D02*
X000710Y006357D01*
X000710Y006516D02*
X001395Y006516D01*
X001460Y006674D02*
X000710Y006674D01*
X000710Y006833D02*
X001574Y006833D01*
X001732Y006991D02*
X000710Y006991D01*
X000710Y007150D02*
X052472Y007150D01*
X052420Y007308D02*
X000710Y007308D01*
X000710Y007467D02*
X052420Y007467D01*
X052421Y007625D02*
X047822Y007625D01*
X048004Y007784D02*
X052580Y007784D01*
X052679Y007942D02*
X048162Y007942D01*
X048321Y008101D02*
X052521Y008101D01*
X052420Y008259D02*
X048479Y008259D01*
X048638Y008418D02*
X052420Y008418D01*
X052420Y008576D02*
X048796Y008576D01*
X048680Y008913D02*
X047680Y007913D01*
X044930Y007913D01*
X044429Y008414D01*
X040430Y008414D01*
X039875Y008418D02*
X000710Y008418D01*
X000710Y008576D02*
X039875Y008576D01*
X039882Y008735D02*
X000710Y008735D01*
X000710Y008894D02*
X039875Y008894D01*
X039875Y009052D02*
X000710Y009052D01*
X000710Y009211D02*
X002048Y009211D01*
X001913Y009369D02*
X000710Y009369D01*
X000710Y009528D02*
X001848Y009528D01*
X001840Y009686D02*
X000710Y009686D01*
X000710Y009845D02*
X001867Y009845D01*
X001936Y010003D02*
X000710Y010003D01*
X000710Y010162D02*
X002094Y010162D01*
X001939Y010320D02*
X000710Y010320D01*
X000710Y010479D02*
X001868Y010479D01*
X001840Y010637D02*
X000710Y010637D01*
X000710Y010796D02*
X001846Y010796D01*
X001912Y010954D02*
X000710Y010954D01*
X000710Y011113D02*
X002045Y011113D01*
X001988Y011271D02*
X000710Y011271D01*
X000710Y011430D02*
X001888Y011430D01*
X001840Y011588D02*
X000710Y011588D01*
X000710Y011747D02*
X001840Y011747D01*
X001892Y011905D02*
X000710Y011905D01*
X000710Y012064D02*
X001996Y012064D01*
X002037Y012222D02*
X000710Y012222D01*
X000710Y012381D02*
X001908Y012381D01*
X001843Y012539D02*
X000710Y012539D01*
X000710Y012698D02*
X001840Y012698D01*
X001871Y012856D02*
X000710Y012856D01*
X000710Y013015D02*
X001947Y013015D01*
X002086Y013173D02*
X000710Y013173D01*
X000710Y013332D02*
X001929Y013332D01*
X001863Y013490D02*
X000710Y013490D01*
X000710Y013649D02*
X001840Y013649D01*
X001851Y013807D02*
X000710Y013807D01*
X000710Y013966D02*
X001917Y013966D01*
X002057Y014124D02*
X000710Y014124D01*
X000710Y014283D02*
X001976Y014283D01*
X001883Y014441D02*
X000710Y014441D01*
X000710Y014600D02*
X001840Y014600D01*
X001840Y014758D02*
X000710Y014758D01*
X000710Y014917D02*
X001896Y014917D01*
X002008Y015075D02*
X000710Y015075D01*
X000710Y015234D02*
X002025Y015234D01*
X001904Y015392D02*
X000710Y015392D01*
X000710Y015551D02*
X001840Y015551D01*
X001840Y015709D02*
X000710Y015709D01*
X000710Y015868D02*
X001876Y015868D01*
X001959Y016026D02*
X000710Y016026D01*
X000710Y016185D02*
X002074Y016185D01*
X001924Y016343D02*
X000710Y016343D01*
X000710Y016502D02*
X001858Y016502D01*
X001840Y016660D02*
X000710Y016660D01*
X000710Y016819D02*
X001856Y016819D01*
X001921Y016977D02*
X000710Y016977D01*
X000710Y017136D02*
X002068Y017136D01*
X001965Y017294D02*
X000710Y017294D01*
X000710Y017453D02*
X001879Y017453D01*
X001840Y017611D02*
X000710Y017611D01*
X000710Y017770D02*
X001840Y017770D01*
X001901Y017928D02*
X000710Y017928D01*
X000710Y018087D02*
X002019Y018087D01*
X002014Y018245D02*
X000710Y018245D01*
X000710Y018404D02*
X001899Y018404D01*
X001840Y018562D02*
X000710Y018562D01*
X000710Y018721D02*
X001840Y018721D01*
X001881Y018879D02*
X000710Y018879D01*
X000710Y019038D02*
X001970Y019038D01*
X002063Y019196D02*
X000710Y019196D01*
X000710Y019355D02*
X001919Y019355D01*
X001854Y019513D02*
X000710Y019513D01*
X000710Y019672D02*
X001840Y019672D01*
X001861Y019830D02*
X000710Y019830D01*
X000710Y019989D02*
X001926Y019989D01*
X002080Y020147D02*
X000710Y020147D01*
X000710Y020306D02*
X001953Y020306D01*
X001874Y020464D02*
X000710Y020464D01*
X000710Y020623D02*
X001840Y020623D01*
X001840Y020781D02*
X000710Y020781D01*
X000710Y020940D02*
X001906Y020940D01*
X002031Y021098D02*
X000710Y021098D01*
X000710Y021257D02*
X020134Y021257D01*
X019975Y021415D02*
X000710Y021415D01*
X000710Y021574D02*
X019817Y021574D01*
X019658Y021732D02*
X000710Y021732D01*
X000710Y021891D02*
X019500Y021891D01*
X019341Y022049D02*
X000710Y022049D01*
X000710Y022208D02*
X019183Y022208D01*
X019024Y022366D02*
X000710Y022366D01*
X000710Y022525D02*
X018866Y022525D01*
X018707Y022683D02*
X000710Y022683D01*
X000710Y022842D02*
X018549Y022842D01*
X018390Y023000D02*
X000710Y023000D01*
X000710Y023159D02*
X018232Y023159D01*
X018073Y023317D02*
X000710Y023317D01*
X000710Y023476D02*
X017915Y023476D01*
X017756Y023634D02*
X000710Y023634D01*
X000710Y023793D02*
X002745Y023793D01*
X002764Y023773D02*
X002530Y024007D01*
X002530Y024173D01*
X002930Y024173D01*
X002930Y024173D01*
X002930Y024573D01*
X003096Y024573D01*
X003330Y024339D01*
X003330Y024173D01*
X002930Y024173D01*
X002930Y024573D01*
X002764Y024573D01*
X002530Y024339D01*
X002530Y024173D01*
X002930Y024173D01*
X002930Y024173D01*
X002930Y024173D01*
X003330Y024173D01*
X003330Y024007D01*
X003096Y023773D01*
X002930Y023773D01*
X002930Y024173D01*
X002930Y024173D01*
X002930Y023773D01*
X002764Y023773D01*
X002930Y023793D02*
X002930Y023793D01*
X002930Y023951D02*
X002930Y023951D01*
X002930Y024110D02*
X002930Y024110D01*
X002930Y024268D02*
X002930Y024268D01*
X002930Y024427D02*
X002930Y024427D01*
X003242Y024427D02*
X016964Y024427D01*
X016805Y024585D02*
X000710Y024585D01*
X000710Y024427D02*
X002618Y024427D01*
X002530Y024268D02*
X000710Y024268D01*
X000710Y024110D02*
X002530Y024110D01*
X002586Y023951D02*
X000710Y023951D01*
X000710Y024744D02*
X003671Y024744D01*
X003512Y024902D02*
X000710Y024902D01*
X000710Y025061D02*
X003450Y025061D01*
X003450Y025219D02*
X000710Y025219D01*
X000710Y025378D02*
X003466Y025378D01*
X003624Y025536D02*
X000710Y025536D01*
X000710Y025695D02*
X002710Y025695D01*
X002551Y025853D02*
X000710Y025853D01*
X000710Y026012D02*
X002450Y026012D01*
X002450Y026170D02*
X000710Y026170D01*
X000710Y026329D02*
X002450Y026329D01*
X002585Y026487D02*
X000710Y026487D01*
X000710Y026646D02*
X005710Y026646D01*
X005860Y026804D02*
X000710Y026804D01*
X000710Y026963D02*
X005860Y026963D01*
X005788Y027121D02*
X005429Y027121D01*
X005198Y027121D02*
X005158Y027121D01*
X005158Y027280D02*
X005198Y027280D01*
X005198Y027438D02*
X005158Y027438D01*
X005158Y027597D02*
X005198Y027597D01*
X005198Y027755D02*
X005158Y027755D01*
X005158Y027914D02*
X003101Y027914D01*
X003101Y028072D02*
X004668Y028072D01*
X004668Y028231D02*
X003041Y028231D01*
X003101Y028086D02*
X002968Y028406D01*
X002723Y028651D01*
X002403Y028784D01*
X002057Y028784D01*
X001737Y028651D01*
X001492Y028406D01*
X001359Y028086D01*
X001359Y027740D01*
X001492Y027420D01*
X001737Y027175D01*
X002057Y027042D01*
X002403Y027042D01*
X002723Y027175D01*
X002968Y027420D01*
X003101Y027740D01*
X003101Y028086D01*
X002975Y028389D02*
X004682Y028389D01*
X004752Y028548D02*
X002827Y028548D01*
X002590Y028706D02*
X004919Y028706D01*
X005158Y028706D02*
X005198Y028706D01*
X005198Y028548D02*
X005158Y028548D01*
X005158Y028389D02*
X005198Y028389D01*
X005198Y028231D02*
X005158Y028231D01*
X005158Y028072D02*
X005198Y028072D01*
X004668Y027755D02*
X003101Y027755D01*
X003041Y027597D02*
X004668Y027597D01*
X004683Y027438D02*
X002976Y027438D01*
X002828Y027280D02*
X004756Y027280D01*
X004928Y027121D02*
X002593Y027121D01*
X001867Y027121D02*
X000710Y027121D01*
X000710Y027280D02*
X001632Y027280D01*
X001484Y027438D02*
X000710Y027438D01*
X000710Y027597D02*
X001419Y027597D01*
X001359Y027755D02*
X000710Y027755D01*
X000710Y027914D02*
X001359Y027914D01*
X001359Y028072D02*
X000710Y028072D01*
X000710Y028231D02*
X001419Y028231D01*
X001485Y028389D02*
X000710Y028389D01*
X000710Y028548D02*
X001633Y028548D01*
X001870Y028706D02*
X000710Y028706D01*
X000710Y028865D02*
X005858Y028865D01*
X005878Y029023D02*
X000710Y029023D01*
X000710Y029182D02*
X005996Y029182D01*
X006154Y029340D02*
X000710Y029340D01*
X000710Y029499D02*
X006313Y029499D01*
X006471Y029657D02*
X000710Y029657D01*
X000710Y029816D02*
X018560Y029816D01*
X018560Y029974D02*
X000710Y029974D01*
X000710Y030133D02*
X018560Y030133D01*
X018560Y030291D02*
X000717Y030291D01*
X000742Y030450D02*
X018580Y030450D01*
X018822Y030608D02*
X000778Y030608D01*
X000824Y030767D02*
X018822Y030767D01*
X018698Y030925D02*
X000900Y030925D01*
X000978Y031084D02*
X018665Y031084D01*
X018665Y031242D02*
X001104Y031242D01*
X001241Y031401D02*
X018665Y031401D01*
X018665Y031559D02*
X001439Y031559D01*
X001719Y031718D02*
X018759Y031718D01*
X019142Y031288D02*
X019142Y030124D01*
X019056Y030038D01*
X019804Y030038D02*
X019804Y029537D01*
X019180Y028913D01*
X019180Y027918D01*
X019178Y027916D01*
X019178Y026665D01*
X019680Y026163D01*
X020056Y026163D01*
X020056Y025537D01*
X022680Y022913D01*
X028430Y022913D01*
X028430Y023039D01*
X028430Y022913D02*
X034930Y022913D01*
X034930Y023039D01*
X034930Y022913D02*
X036930Y022913D01*
X037180Y023163D01*
X037180Y023557D01*
X037286Y023663D01*
X037180Y023557D02*
X037180Y024413D01*
X038026Y024110D02*
X038122Y024110D01*
X038122Y023951D02*
X038026Y023951D01*
X038026Y023793D02*
X038122Y023793D01*
X038122Y023634D02*
X040360Y023634D01*
X040360Y023476D02*
X038490Y023476D01*
X038490Y023615D02*
X038490Y023327D01*
X038479Y023286D01*
X038458Y023250D01*
X038428Y023220D01*
X038391Y023199D01*
X038351Y023188D01*
X038122Y023188D01*
X038122Y023615D01*
X038490Y023615D01*
X038490Y023793D02*
X040360Y023793D01*
X040360Y023951D02*
X038490Y023951D01*
X038422Y024110D02*
X040360Y024110D01*
X040680Y024413D02*
X040680Y021913D01*
X040680Y020663D01*
X040930Y020413D01*
X041580Y020413D01*
X041680Y020413D01*
X042170Y019989D02*
X042196Y019989D01*
X042170Y019830D02*
X042355Y019830D01*
X042513Y019672D02*
X042164Y019672D01*
X042026Y019513D02*
X042672Y019513D01*
X042830Y019355D02*
X040691Y019355D01*
X041959Y018087D02*
X051491Y018087D01*
X051577Y017928D02*
X042118Y017928D01*
X042276Y017770D02*
X043368Y017770D01*
X043336Y017611D02*
X042435Y017611D01*
X042593Y017453D02*
X043336Y017453D01*
X043336Y017294D02*
X042752Y017294D01*
X042910Y017136D02*
X043336Y017136D01*
X042930Y016663D02*
X048680Y016663D01*
X051430Y013913D01*
X053430Y013913D01*
X053930Y013413D01*
X052930Y013413D02*
X051180Y013413D01*
X048430Y016163D01*
X042430Y016163D01*
X036680Y021913D01*
X021930Y021913D01*
X017178Y026665D01*
X017178Y027916D01*
X016678Y028600D02*
X016512Y028766D01*
X016295Y028856D01*
X016061Y028856D01*
X015844Y028766D01*
X015678Y028600D01*
X015512Y028766D01*
X015295Y028856D01*
X015061Y028856D01*
X014844Y028766D01*
X014678Y028600D01*
X014512Y028766D01*
X014295Y028856D01*
X014061Y028856D01*
X013844Y028766D01*
X013678Y028600D01*
X013512Y028766D01*
X013295Y028856D01*
X013061Y028856D01*
X012844Y028766D01*
X012678Y028600D01*
X012512Y028766D01*
X012295Y028856D01*
X012061Y028856D01*
X011844Y028766D01*
X011678Y028600D01*
X011512Y028766D01*
X011295Y028856D01*
X011061Y028856D01*
X010844Y028766D01*
X010678Y028600D01*
X010512Y028766D01*
X010295Y028856D01*
X010061Y028856D01*
X009844Y028766D01*
X009678Y028600D01*
X009634Y028494D01*
X009614Y028533D01*
X009567Y028598D01*
X009510Y028655D01*
X009445Y028702D01*
X009374Y028738D01*
X009297Y028763D01*
X009218Y028776D01*
X009198Y028776D01*
X009198Y027936D01*
X009158Y027936D01*
X009158Y028776D01*
X009138Y028776D01*
X009059Y028763D01*
X008982Y028738D01*
X008911Y028702D01*
X008846Y028655D01*
X008789Y028598D01*
X008742Y028533D01*
X008722Y028494D01*
X008678Y028600D01*
X008512Y028766D01*
X008295Y028856D01*
X008061Y028856D01*
X007844Y028766D01*
X007678Y028600D01*
X007512Y028766D01*
X007295Y028856D01*
X007061Y028856D01*
X006844Y028766D01*
X006678Y028600D01*
X006512Y028766D01*
X006498Y028772D01*
X006498Y028779D01*
X006813Y029093D01*
X018547Y029093D01*
X018860Y028780D01*
X018860Y028773D01*
X018844Y028766D01*
X018678Y028600D01*
X018512Y028766D01*
X018295Y028856D01*
X018061Y028856D01*
X017844Y028766D01*
X017678Y028600D01*
X017512Y028766D01*
X017295Y028856D01*
X017061Y028856D01*
X016844Y028766D01*
X016678Y028600D01*
X016572Y028706D02*
X016784Y028706D01*
X015784Y028706D02*
X015572Y028706D01*
X014784Y028706D02*
X014572Y028706D01*
X013784Y028706D02*
X013572Y028706D01*
X012784Y028706D02*
X012572Y028706D01*
X011784Y028706D02*
X011572Y028706D01*
X010784Y028706D02*
X010572Y028706D01*
X009784Y028706D02*
X009437Y028706D01*
X009604Y028548D02*
X009656Y028548D01*
X009198Y028548D02*
X009158Y028548D01*
X009158Y028706D02*
X009198Y028706D01*
X008919Y028706D02*
X008572Y028706D01*
X008700Y028548D02*
X008752Y028548D01*
X009158Y028389D02*
X009198Y028389D01*
X009198Y028231D02*
X009158Y028231D01*
X009158Y028072D02*
X009198Y028072D01*
X009198Y027755D02*
X009158Y027755D01*
X009158Y027597D02*
X009198Y027597D01*
X009198Y027438D02*
X009158Y027438D01*
X009158Y027280D02*
X009198Y027280D01*
X009198Y027121D02*
X009158Y027121D01*
X008928Y027121D02*
X008568Y027121D01*
X008698Y027280D02*
X008756Y027280D01*
X009429Y027121D02*
X009788Y027121D01*
X009658Y027280D02*
X009600Y027280D01*
X010568Y027121D02*
X010788Y027121D01*
X011568Y027121D02*
X011788Y027121D01*
X012568Y027121D02*
X012788Y027121D01*
X013568Y027121D02*
X013788Y027121D01*
X014568Y027121D02*
X014788Y027121D01*
X014858Y026963D02*
X007500Y026963D01*
X007500Y026804D02*
X014858Y026804D01*
X014858Y026646D02*
X007500Y026646D01*
X007500Y026487D02*
X014905Y026487D01*
X015062Y026329D02*
X007500Y026329D01*
X007500Y026170D02*
X015220Y026170D01*
X015379Y026012D02*
X007500Y026012D01*
X007500Y025853D02*
X015537Y025853D01*
X015696Y025695D02*
X007414Y025695D01*
X007256Y025536D02*
X015854Y025536D01*
X016013Y025378D02*
X007097Y025378D01*
X006939Y025219D02*
X016171Y025219D01*
X016330Y025061D02*
X006780Y025061D01*
X006622Y024902D02*
X016488Y024902D01*
X016647Y024744D02*
X004189Y024744D01*
X003330Y024268D02*
X017122Y024268D01*
X017281Y024110D02*
X003330Y024110D01*
X003274Y023951D02*
X017439Y023951D01*
X017598Y023793D02*
X003115Y023793D01*
X003930Y025163D02*
X006430Y025163D01*
X007180Y025913D01*
X007180Y027914D01*
X007178Y027916D01*
X006180Y027914D02*
X006178Y027916D01*
X006178Y028911D01*
X006680Y029413D01*
X018680Y029413D01*
X019180Y028913D01*
X019500Y028780D02*
X020075Y029356D01*
X020124Y029473D01*
X020124Y029490D01*
X020196Y029520D01*
X020263Y029587D01*
X020300Y029675D01*
X020300Y029718D01*
X020369Y029718D01*
X020486Y029767D01*
X020625Y029905D01*
X020625Y029360D01*
X020662Y029272D01*
X020729Y029205D01*
X020817Y029168D01*
X021543Y029168D01*
X021631Y029205D01*
X021698Y029272D01*
X021728Y029344D01*
X022296Y029344D01*
X022610Y029030D01*
X022610Y028741D01*
X022542Y028672D01*
X022472Y028504D01*
X022472Y028322D01*
X022542Y028153D01*
X022671Y028025D01*
X022839Y027955D01*
X022936Y027955D01*
X023056Y027835D01*
X022911Y027835D01*
X022911Y027437D01*
X022756Y027437D01*
X022756Y027282D01*
X022911Y027282D01*
X022911Y026885D01*
X023110Y026885D01*
X023110Y025849D01*
X023159Y025732D01*
X024972Y023919D01*
X024972Y023822D01*
X025009Y023733D01*
X023063Y023733D01*
X022126Y024670D01*
X022126Y025040D01*
X022167Y025081D01*
X022203Y025169D01*
X022203Y025619D01*
X022167Y025707D01*
X022099Y025775D01*
X022029Y025804D01*
X022385Y025804D01*
X022473Y025840D01*
X022541Y025908D01*
X022577Y025996D01*
X022577Y026446D01*
X022541Y026534D01*
X022500Y026575D01*
X022500Y026885D01*
X022756Y026885D01*
X022756Y027282D01*
X022319Y027282D01*
X022319Y027226D01*
X022201Y027344D01*
X022111Y027434D01*
X021994Y027483D01*
X021729Y027483D01*
X021706Y027538D01*
X021735Y027608D01*
X021735Y028216D01*
X021698Y028304D01*
X021631Y028371D01*
X021543Y028408D01*
X020817Y028408D01*
X020767Y028387D01*
X020678Y028600D01*
X020512Y028766D01*
X020295Y028856D01*
X020061Y028856D01*
X019844Y028766D01*
X019678Y028600D01*
X019512Y028766D01*
X019500Y028771D01*
X019500Y028780D01*
X019572Y028706D02*
X019784Y028706D01*
X019584Y028865D02*
X022610Y028865D01*
X022610Y029023D02*
X019743Y029023D01*
X019901Y029182D02*
X020785Y029182D01*
X020633Y029340D02*
X020060Y029340D01*
X020145Y029499D02*
X020625Y029499D01*
X020625Y029657D02*
X020292Y029657D01*
X020535Y029816D02*
X020625Y029816D01*
X020305Y030038D02*
X020680Y030413D01*
X021179Y030413D01*
X021180Y030412D01*
X021735Y030450D02*
X025286Y030450D01*
X025159Y030344D02*
X025159Y030344D01*
X025105Y030291D02*
X021735Y030291D01*
X021735Y030133D02*
X024947Y030133D01*
X024788Y029974D02*
X022517Y029974D01*
X022730Y029816D02*
X024630Y029816D01*
X024471Y029657D02*
X022889Y029657D01*
X023047Y029499D02*
X024313Y029499D01*
X024157Y029340D02*
X023203Y029340D01*
X023250Y029182D02*
X024110Y029182D01*
X024110Y029023D02*
X023250Y029023D01*
X023250Y028865D02*
X023484Y028865D01*
X023379Y028706D02*
X023285Y028706D01*
X022930Y028413D02*
X022930Y029163D01*
X022429Y029664D01*
X021180Y029664D01*
X021575Y029182D02*
X022459Y029182D01*
X022300Y029340D02*
X021727Y029340D01*
X022575Y028706D02*
X020572Y028706D01*
X020700Y028548D02*
X022490Y028548D01*
X022472Y028389D02*
X021588Y028389D01*
X021729Y028231D02*
X022510Y028231D01*
X022623Y028072D02*
X021735Y028072D01*
X021735Y027914D02*
X022977Y027914D01*
X022911Y027755D02*
X022756Y027755D01*
X022756Y027835D02*
X022756Y027437D01*
X022319Y027437D01*
X022319Y027696D01*
X022330Y027737D01*
X022351Y027773D01*
X022381Y027803D01*
X022417Y027824D01*
X022458Y027835D01*
X022756Y027835D01*
X022756Y027597D02*
X022911Y027597D01*
X022911Y027438D02*
X022756Y027438D01*
X022756Y027280D02*
X022911Y027280D01*
X022911Y027121D02*
X022756Y027121D01*
X022756Y026963D02*
X022911Y026963D01*
X023110Y026804D02*
X022500Y026804D01*
X022500Y026646D02*
X023110Y026646D01*
X023110Y026487D02*
X022560Y026487D01*
X022577Y026329D02*
X023110Y026329D01*
X023110Y026170D02*
X022577Y026170D01*
X022577Y026012D02*
X023110Y026012D01*
X023110Y025853D02*
X022486Y025853D01*
X022554Y025731D02*
X022375Y025731D01*
X022335Y025721D01*
X022298Y025699D01*
X022269Y025670D01*
X022247Y025633D01*
X022237Y025593D01*
X022237Y025394D01*
X022237Y025196D01*
X022247Y025155D01*
X022269Y025119D01*
X022298Y025089D01*
X022335Y025068D01*
X022375Y025057D01*
X022554Y025057D01*
X022554Y025394D01*
X022554Y025057D01*
X022733Y025057D01*
X022773Y025068D01*
X022810Y025089D01*
X022840Y025119D01*
X022861Y025155D01*
X022871Y025196D01*
X022871Y025394D01*
X022554Y025394D01*
X022554Y025394D01*
X022237Y025394D01*
X022554Y025394D01*
X022554Y025394D01*
X022554Y025394D01*
X022871Y025394D01*
X022871Y025593D01*
X022861Y025633D01*
X022840Y025670D01*
X022810Y025699D01*
X022773Y025721D01*
X022733Y025731D01*
X022554Y025731D01*
X022554Y025394D01*
X022554Y025394D01*
X022554Y025731D01*
X022554Y025695D02*
X022554Y025695D01*
X022554Y025536D02*
X022554Y025536D01*
X022554Y025378D02*
X022554Y025378D01*
X022554Y025219D02*
X022554Y025219D01*
X022554Y025061D02*
X022554Y025061D01*
X022363Y025061D02*
X022146Y025061D01*
X022126Y024902D02*
X023988Y024902D01*
X023830Y025061D02*
X022745Y025061D01*
X022871Y025219D02*
X023671Y025219D01*
X023513Y025378D02*
X022871Y025378D01*
X022871Y025536D02*
X023354Y025536D01*
X023196Y025695D02*
X022815Y025695D01*
X022293Y025695D02*
X022172Y025695D01*
X022203Y025536D02*
X022237Y025536D01*
X022237Y025378D02*
X022203Y025378D01*
X022203Y025219D02*
X022237Y025219D01*
X021806Y025394D02*
X021806Y024537D01*
X022930Y023413D01*
X027680Y023413D01*
X028306Y023787D02*
X028430Y023787D01*
X028306Y023787D02*
X027930Y024163D01*
X025930Y024163D01*
X025430Y024663D01*
X023805Y026288D01*
X023805Y028538D01*
X024180Y028163D02*
X024180Y026663D01*
X025430Y025413D01*
X029930Y025413D01*
X030430Y024913D01*
X030430Y024703D01*
X030390Y024663D01*
X030430Y024703D02*
X030430Y023519D01*
X030324Y023663D01*
X029869Y024118D02*
X029854Y024127D01*
X029813Y024138D01*
X029584Y024138D01*
X029584Y023711D01*
X029488Y023711D01*
X029488Y023615D01*
X029120Y023615D01*
X029120Y023327D01*
X029131Y023286D01*
X029152Y023250D01*
X029169Y023233D01*
X028985Y023233D01*
X028985Y023343D01*
X028956Y023413D01*
X028985Y023483D01*
X028985Y024091D01*
X028948Y024179D01*
X028881Y024246D01*
X028793Y024283D01*
X028263Y024283D01*
X028201Y024344D01*
X028111Y024434D01*
X027994Y024483D01*
X026063Y024483D01*
X025888Y024657D01*
X025888Y024754D01*
X025818Y024922D01*
X025689Y025051D01*
X025589Y025093D01*
X029797Y025093D01*
X030060Y024830D01*
X030060Y024255D01*
X030075Y024218D01*
X030020Y024218D01*
X029932Y024181D01*
X029869Y024118D01*
X030060Y024268D02*
X028829Y024268D01*
X028977Y024110D02*
X029188Y024110D01*
X029182Y024106D02*
X029152Y024076D01*
X029131Y024040D01*
X029120Y023999D01*
X029120Y023711D01*
X029488Y023711D01*
X029488Y024138D01*
X029259Y024138D01*
X029219Y024127D01*
X029182Y024106D01*
X029120Y023951D02*
X028985Y023951D01*
X028985Y023793D02*
X029120Y023793D01*
X028985Y023634D02*
X029488Y023634D01*
X029488Y023793D02*
X029584Y023793D01*
X029584Y023951D02*
X029488Y023951D01*
X029488Y024110D02*
X029584Y024110D01*
X030060Y024427D02*
X028119Y024427D01*
X028982Y023476D02*
X029120Y023476D01*
X029123Y023317D02*
X028985Y023317D01*
X030060Y024585D02*
X025961Y024585D01*
X025888Y024744D02*
X030060Y024744D01*
X029988Y024902D02*
X025827Y024902D01*
X025667Y025061D02*
X029830Y025061D01*
X030680Y025788D02*
X030930Y025538D01*
X030930Y024703D01*
X031430Y024703D02*
X031430Y023663D01*
X032430Y023663D02*
X032430Y024703D01*
X032430Y025538D01*
X032680Y025788D01*
X033680Y025788D01*
X033930Y026038D01*
X033930Y027123D01*
X033430Y027123D02*
X033430Y028663D01*
X032680Y029413D01*
X032804Y029413D01*
X032056Y029413D02*
X031093Y029413D01*
X032430Y028663D02*
X032430Y027123D01*
X032930Y027123D02*
X032930Y027913D01*
X031430Y028163D02*
X031430Y027123D01*
X030930Y027123D02*
X030930Y027913D01*
X031430Y028163D02*
X031180Y028413D01*
X028757Y027280D02*
X028642Y027280D01*
X028642Y027121D02*
X028757Y027121D01*
X028757Y026963D02*
X028642Y026963D01*
X027918Y027755D02*
X027907Y027755D01*
X027263Y028246D02*
X027680Y028663D01*
X027263Y028246D02*
X027263Y027163D01*
X026397Y027163D02*
X026397Y026446D01*
X026680Y026163D01*
X031680Y026163D01*
X031930Y025913D01*
X032305Y026288D01*
X033430Y026288D01*
X034750Y026329D02*
X034812Y026329D01*
X034750Y026170D02*
X034970Y026170D01*
X035250Y026804D02*
X040360Y026804D01*
X040360Y026963D02*
X035250Y026963D01*
X035250Y027121D02*
X038477Y027121D01*
X038347Y027175D02*
X038667Y027042D01*
X039013Y027042D01*
X039333Y027175D01*
X039578Y027420D01*
X039711Y027740D01*
X039711Y028086D01*
X039578Y028406D01*
X039333Y028651D01*
X039013Y028784D01*
X038667Y028784D01*
X038347Y028651D01*
X038102Y028406D01*
X037969Y028086D01*
X037969Y027740D01*
X038102Y027420D01*
X038347Y027175D01*
X038242Y027280D02*
X037006Y027280D01*
X037161Y027438D02*
X038094Y027438D01*
X038029Y027597D02*
X037170Y027597D01*
X037170Y027755D02*
X037969Y027755D01*
X037969Y027914D02*
X037170Y027914D01*
X037170Y028072D02*
X037969Y028072D01*
X038029Y028231D02*
X037170Y028231D01*
X037152Y028389D02*
X038095Y028389D01*
X038243Y028548D02*
X035221Y028548D01*
X035090Y028706D02*
X038480Y028706D01*
X039200Y028706D02*
X040184Y028706D01*
X040343Y028548D02*
X039437Y028548D01*
X039585Y028389D02*
X040360Y028389D01*
X040360Y028231D02*
X039651Y028231D01*
X039711Y028072D02*
X040360Y028072D01*
X040360Y027914D02*
X039711Y027914D01*
X039711Y027755D02*
X040360Y027755D01*
X040360Y027597D02*
X039651Y027597D01*
X039586Y027438D02*
X040360Y027438D01*
X040360Y027280D02*
X039438Y027280D01*
X039203Y027121D02*
X040360Y027121D01*
X042930Y026663D02*
X042930Y025913D01*
X042180Y025163D01*
X041580Y025163D01*
X041580Y024663D02*
X040930Y024663D01*
X041580Y024663D02*
X041680Y024663D01*
X041180Y023663D02*
X041180Y021663D01*
X041430Y021413D01*
X041580Y021413D01*
X041580Y020913D02*
X042180Y020913D01*
X040360Y020940D02*
X039106Y020940D01*
X038948Y021098D02*
X040360Y021098D01*
X040360Y021257D02*
X038789Y021257D01*
X038631Y021415D02*
X040360Y021415D01*
X040360Y021574D02*
X038472Y021574D01*
X038314Y021732D02*
X040280Y021732D01*
X040242Y021891D02*
X038155Y021891D01*
X037997Y022049D02*
X040262Y022049D01*
X040355Y022208D02*
X037838Y022208D01*
X037680Y022366D02*
X040360Y022366D01*
X040360Y022525D02*
X037521Y022525D01*
X037363Y022683D02*
X040360Y022683D01*
X040360Y022842D02*
X037311Y022842D01*
X037459Y023000D02*
X040360Y023000D01*
X040360Y023159D02*
X037692Y023159D01*
X038026Y023317D02*
X038122Y023317D01*
X038122Y023476D02*
X038026Y023476D01*
X038487Y023317D02*
X040360Y023317D01*
X042698Y023159D02*
X051757Y023159D01*
X051587Y023000D02*
X042796Y023000D01*
X046126Y021574D02*
X046567Y021574D01*
X046725Y021415D02*
X046285Y021415D01*
X046376Y021257D02*
X046884Y021257D01*
X047042Y021098D02*
X046442Y021098D01*
X046445Y020940D02*
X047201Y020940D01*
X044492Y017770D02*
X051739Y017770D01*
X052974Y017369D02*
X054680Y015663D01*
X054680Y009163D01*
X054430Y008913D01*
X053430Y008913D01*
X052930Y009413D01*
X052570Y009052D02*
X050522Y009052D01*
X050619Y009211D02*
X052420Y009211D01*
X052420Y009369D02*
X050634Y009369D01*
X050790Y009528D02*
X052420Y009528D01*
X052689Y008894D02*
X050363Y008894D01*
X050205Y008735D02*
X052531Y008735D01*
X053430Y009913D02*
X050304Y009913D01*
X050304Y009287D01*
X049930Y008913D01*
X048680Y008913D01*
X048092Y009528D02*
X047620Y009528D01*
X047618Y009522D02*
X047642Y009595D01*
X047654Y009672D01*
X047654Y009692D01*
X047183Y009692D01*
X047183Y009729D01*
X047654Y009729D01*
X047654Y009749D01*
X047642Y009825D01*
X047618Y009898D01*
X047583Y009967D01*
X047538Y010029D01*
X047483Y010084D01*
X047421Y010129D01*
X047352Y010164D01*
X047279Y010188D01*
X047203Y010200D01*
X047183Y010200D01*
X047183Y009729D01*
X047146Y009729D01*
X047146Y010200D01*
X047126Y010200D01*
X047122Y010200D01*
X047765Y010843D01*
X049060Y010843D01*
X049060Y010800D01*
X049097Y010712D01*
X049164Y010645D01*
X049252Y010608D01*
X049860Y010608D01*
X049930Y010637D01*
X049984Y010615D01*
X049984Y010461D01*
X049930Y010439D01*
X049860Y010468D01*
X049252Y010468D01*
X049164Y010431D01*
X049097Y010364D01*
X049060Y010276D01*
X049060Y010233D01*
X048866Y010233D01*
X048749Y010184D01*
X047297Y008733D01*
X045313Y008733D01*
X044500Y009546D01*
X044500Y010280D01*
X045361Y011142D01*
X045451Y011232D01*
X045500Y011349D01*
X045500Y014662D01*
X046270Y013892D01*
X046388Y013843D01*
X049547Y013843D01*
X051055Y012336D01*
X050932Y012285D01*
X050808Y012161D01*
X050742Y012000D01*
X050742Y011826D01*
X050808Y011665D01*
X050860Y011613D01*
X050860Y011546D01*
X050800Y011485D01*
X050800Y011526D01*
X050763Y011614D01*
X050696Y011681D01*
X050608Y011718D01*
X050000Y011718D01*
X049930Y011689D01*
X049860Y011718D01*
X049252Y011718D01*
X049164Y011681D01*
X049097Y011614D01*
X049060Y011526D01*
X049060Y011483D01*
X047569Y011483D01*
X047451Y011434D01*
X046296Y010279D01*
X046293Y010280D01*
X046067Y010280D01*
X045857Y010193D01*
X045697Y010033D01*
X045688Y010012D01*
X045679Y010033D01*
X045519Y010193D01*
X045309Y010280D01*
X045082Y010280D01*
X044873Y010193D01*
X044713Y010033D01*
X044626Y009824D01*
X044626Y009597D01*
X044713Y009387D01*
X044873Y009227D01*
X045082Y009140D01*
X045309Y009140D01*
X045519Y009227D01*
X045679Y009387D01*
X045688Y009409D01*
X045697Y009387D01*
X045857Y009227D01*
X046067Y009140D01*
X046293Y009140D01*
X046503Y009227D01*
X046663Y009387D01*
X046715Y009513D01*
X046745Y009453D01*
X046791Y009391D01*
X046845Y009336D01*
X046907Y009291D01*
X046976Y009256D01*
X047050Y009232D01*
X047126Y009220D01*
X047146Y009220D01*
X047146Y009692D01*
X047183Y009692D01*
X047183Y009220D01*
X047203Y009220D01*
X047279Y009232D01*
X047352Y009256D01*
X047421Y009291D01*
X047483Y009336D01*
X047538Y009391D01*
X047583Y009453D01*
X047618Y009522D01*
X047654Y009686D02*
X048250Y009686D01*
X048409Y009845D02*
X047636Y009845D01*
X047557Y010003D02*
X048567Y010003D01*
X048726Y010162D02*
X047358Y010162D01*
X047183Y010162D02*
X047146Y010162D01*
X047146Y010003D02*
X047183Y010003D01*
X047183Y009845D02*
X047146Y009845D01*
X047146Y009686D02*
X047183Y009686D01*
X047183Y009528D02*
X047146Y009528D01*
X047146Y009369D02*
X047183Y009369D01*
X047516Y009369D02*
X047933Y009369D01*
X047775Y009211D02*
X046463Y009211D01*
X046645Y009369D02*
X046813Y009369D01*
X046180Y009710D02*
X047633Y011163D01*
X049556Y011163D01*
X049062Y010796D02*
X047718Y010796D01*
X047559Y010637D02*
X049182Y010637D01*
X049078Y010320D02*
X047242Y010320D01*
X047401Y010479D02*
X049984Y010479D01*
X049930Y010637D02*
X049930Y010637D01*
X050304Y011163D02*
X050930Y011163D01*
X051180Y011413D01*
X051180Y011913D01*
X050869Y012222D02*
X045500Y012222D01*
X045500Y012064D02*
X050768Y012064D01*
X050742Y011905D02*
X045500Y011905D01*
X045500Y011747D02*
X050774Y011747D01*
X050774Y011588D02*
X050860Y011588D01*
X050304Y011163D02*
X050304Y009913D01*
X049556Y009913D02*
X048930Y009913D01*
X047430Y008413D01*
X045180Y008413D01*
X044180Y009413D01*
X044180Y010413D01*
X045180Y011413D01*
X045180Y015403D01*
X045196Y015419D01*
X046452Y014163D01*
X049680Y014163D01*
X051430Y012413D01*
X052930Y012413D01*
X051010Y012381D02*
X045500Y012381D01*
X045500Y012539D02*
X050851Y012539D01*
X050693Y012698D02*
X045500Y012698D01*
X045500Y012856D02*
X050534Y012856D01*
X050376Y013015D02*
X045500Y013015D01*
X045500Y013173D02*
X050217Y013173D01*
X050059Y013332D02*
X045500Y013332D01*
X045500Y013490D02*
X049900Y013490D01*
X049742Y013649D02*
X045500Y013649D01*
X045500Y013807D02*
X049583Y013807D01*
X049657Y014483D02*
X046584Y014483D01*
X045765Y015303D01*
X045766Y015306D01*
X045766Y015532D01*
X045679Y015742D01*
X045578Y015843D01*
X046917Y015843D01*
X046907Y015838D01*
X046845Y015793D01*
X046791Y015738D01*
X046745Y015676D01*
X046710Y015607D01*
X046686Y015534D01*
X046674Y015457D01*
X046674Y015437D01*
X047146Y015437D01*
X047146Y015400D01*
X047183Y015400D01*
X047183Y015437D01*
X047654Y015437D01*
X047654Y015457D01*
X047642Y015534D01*
X047618Y015607D01*
X047583Y015676D01*
X047538Y015738D01*
X047483Y015793D01*
X047421Y015838D01*
X047411Y015843D01*
X048297Y015843D01*
X049657Y014483D01*
X049541Y014600D02*
X046468Y014600D01*
X046309Y014758D02*
X049382Y014758D01*
X049224Y014917D02*
X046151Y014917D01*
X045992Y015075D02*
X046815Y015075D01*
X046791Y015100D02*
X046845Y015045D01*
X046907Y015000D01*
X046976Y014965D01*
X047050Y014941D01*
X047126Y014929D01*
X047146Y014929D01*
X047146Y015400D01*
X046674Y015400D01*
X046674Y015380D01*
X046686Y015304D01*
X046710Y015231D01*
X046745Y015162D01*
X046791Y015100D01*
X046709Y015234D02*
X045834Y015234D01*
X045766Y015392D02*
X046674Y015392D01*
X046692Y015551D02*
X045758Y015551D01*
X045693Y015709D02*
X046769Y015709D01*
X047146Y015392D02*
X047183Y015392D01*
X047183Y015400D02*
X047183Y014929D01*
X047203Y014929D01*
X047279Y014941D01*
X047352Y014965D01*
X047421Y015000D01*
X047483Y015045D01*
X047538Y015100D01*
X047583Y015162D01*
X047618Y015231D01*
X047642Y015304D01*
X047654Y015380D01*
X047654Y015400D01*
X047183Y015400D01*
X047183Y015234D02*
X047146Y015234D01*
X047146Y015075D02*
X047183Y015075D01*
X047513Y015075D02*
X049065Y015075D01*
X048907Y015234D02*
X047619Y015234D01*
X047654Y015392D02*
X048748Y015392D01*
X048590Y015551D02*
X047637Y015551D01*
X047559Y015709D02*
X048431Y015709D01*
X045880Y014283D02*
X045500Y014283D01*
X045500Y014441D02*
X045721Y014441D01*
X045563Y014600D02*
X045500Y014600D01*
X044860Y014917D02*
X040129Y014917D01*
X039971Y015075D02*
X044734Y015075D01*
X045500Y014124D02*
X046038Y014124D01*
X046197Y013966D02*
X045500Y013966D01*
X044860Y013807D02*
X018009Y013807D01*
X018020Y013649D02*
X044860Y013649D01*
X044860Y013490D02*
X017997Y013490D01*
X017931Y013332D02*
X044860Y013332D01*
X044860Y013173D02*
X017774Y013173D01*
X017913Y013015D02*
X044860Y013015D01*
X044860Y012856D02*
X017989Y012856D01*
X018020Y012698D02*
X044860Y012698D01*
X044860Y012539D02*
X018017Y012539D01*
X017952Y012381D02*
X044860Y012381D01*
X044860Y012222D02*
X017823Y012222D01*
X017864Y012064D02*
X044860Y012064D01*
X044860Y011905D02*
X017968Y011905D01*
X018020Y011747D02*
X044860Y011747D01*
X044860Y011588D02*
X018020Y011588D01*
X017972Y011430D02*
X044744Y011430D01*
X044585Y011271D02*
X017872Y011271D01*
X017815Y011113D02*
X044427Y011113D01*
X044268Y010954D02*
X017948Y010954D01*
X018014Y010796D02*
X044110Y010796D01*
X043951Y010637D02*
X018020Y010637D01*
X017992Y010479D02*
X043861Y010479D01*
X043860Y010320D02*
X017921Y010320D01*
X017766Y010162D02*
X043860Y010162D01*
X043372Y010003D02*
X017924Y010003D01*
X017993Y009845D02*
X043259Y009845D01*
X043222Y009686D02*
X018020Y009686D01*
X018012Y009528D02*
X039901Y009528D01*
X039875Y009369D02*
X017947Y009369D01*
X017812Y009211D02*
X039875Y009211D01*
X040430Y009162D02*
X043179Y009162D01*
X043680Y009663D01*
X043092Y009528D02*
X040959Y009528D01*
X040852Y007942D02*
X044448Y007942D01*
X044606Y007784D02*
X000710Y007784D01*
X000710Y007942D02*
X040008Y007942D01*
X039879Y008101D02*
X000710Y008101D01*
X000710Y008259D02*
X039875Y008259D01*
X039632Y005882D02*
X055900Y005882D01*
X055900Y005723D02*
X039542Y005723D01*
X039383Y005565D02*
X055894Y005565D01*
X055875Y005406D02*
X039064Y005406D01*
X044788Y007625D02*
X000710Y007625D01*
X002812Y009211D02*
X003048Y009211D01*
X003812Y009211D02*
X004048Y009211D01*
X004812Y009211D02*
X005048Y009211D01*
X005812Y009211D02*
X006048Y009211D01*
X006812Y009211D02*
X007048Y009211D01*
X007812Y009211D02*
X008048Y009211D01*
X008812Y009211D02*
X009048Y009211D01*
X009812Y009211D02*
X010048Y009211D01*
X010812Y009211D02*
X011048Y009211D01*
X011812Y009211D02*
X012048Y009211D01*
X012812Y009211D02*
X013048Y009211D01*
X013812Y009211D02*
X014048Y009211D01*
X014812Y009211D02*
X015048Y009211D01*
X015812Y009211D02*
X016048Y009211D01*
X016812Y009211D02*
X017048Y009211D01*
X002123Y003980D02*
X054487Y003980D01*
X054954Y004138D02*
X001656Y004138D01*
X001402Y004297D02*
X055208Y004297D01*
X055403Y004455D02*
X001207Y004455D01*
X001080Y004614D02*
X055530Y004614D01*
X055648Y004772D02*
X000962Y004772D01*
X000885Y004931D02*
X055725Y004931D01*
X055801Y005089D02*
X000809Y005089D01*
X000772Y005248D02*
X055838Y005248D01*
X053930Y009413D02*
X053430Y009913D01*
X049086Y011588D02*
X045500Y011588D01*
X045500Y011430D02*
X047447Y011430D01*
X047288Y011271D02*
X045468Y011271D01*
X045332Y011113D02*
X047130Y011113D01*
X046971Y010954D02*
X045174Y010954D01*
X045015Y010796D02*
X046813Y010796D01*
X046654Y010637D02*
X044857Y010637D01*
X044698Y010479D02*
X046496Y010479D01*
X046337Y010320D02*
X044540Y010320D01*
X044500Y010162D02*
X044841Y010162D01*
X044700Y010003D02*
X044500Y010003D01*
X044500Y009845D02*
X044634Y009845D01*
X044626Y009686D02*
X044500Y009686D01*
X044518Y009528D02*
X044654Y009528D01*
X044677Y009369D02*
X044731Y009369D01*
X044835Y009211D02*
X044913Y009211D01*
X044994Y009052D02*
X047616Y009052D01*
X047458Y008894D02*
X045152Y008894D01*
X045311Y008735D02*
X047299Y008735D01*
X045897Y009211D02*
X045479Y009211D01*
X045661Y009369D02*
X045715Y009369D01*
X045825Y010162D02*
X045551Y010162D01*
X042905Y014758D02*
X040288Y014758D01*
X042930Y016663D02*
X037180Y022413D01*
X022430Y022413D01*
X018178Y026665D01*
X018178Y027916D01*
X017784Y028706D02*
X017572Y028706D01*
X018572Y028706D02*
X018784Y028706D01*
X018776Y028865D02*
X006584Y028865D01*
X006572Y028706D02*
X006784Y028706D01*
X006743Y029023D02*
X018617Y029023D01*
X019804Y030038D02*
X020305Y030038D01*
X020422Y030608D02*
X019462Y030608D01*
X019462Y030767D02*
X020646Y030767D01*
X020304Y030925D02*
X021906Y030925D01*
X021906Y030823D02*
X021917Y030782D01*
X021938Y030746D01*
X021968Y030716D01*
X022004Y030695D01*
X022045Y030684D01*
X022284Y030684D01*
X022284Y031219D01*
X022399Y031219D01*
X022399Y030684D01*
X022638Y030684D01*
X022679Y030695D01*
X022715Y030716D01*
X022745Y030746D01*
X022766Y030782D01*
X022777Y030823D01*
X022777Y031219D01*
X022399Y031219D01*
X022399Y031335D01*
X022284Y031335D01*
X022284Y031870D01*
X022045Y031870D01*
X022004Y031859D01*
X021968Y031838D01*
X021938Y031808D01*
X021917Y031772D01*
X021906Y031731D01*
X021906Y031335D01*
X022284Y031335D01*
X022284Y031219D01*
X021906Y031219D01*
X021906Y030823D01*
X021926Y030767D02*
X021714Y030767D01*
X021735Y030608D02*
X029922Y030608D01*
X030081Y030767D02*
X029174Y030767D01*
X029183Y030782D02*
X029162Y030746D01*
X029133Y030716D01*
X029096Y030695D01*
X029055Y030684D01*
X028817Y030684D01*
X028817Y031219D01*
X028817Y031335D01*
X029194Y031335D01*
X029194Y031731D01*
X029183Y031772D01*
X029162Y031808D01*
X029133Y031838D01*
X029096Y031859D01*
X029055Y031870D01*
X028817Y031870D01*
X028817Y031335D01*
X028701Y031335D01*
X028701Y031870D01*
X028462Y031870D01*
X028421Y031859D01*
X028385Y031838D01*
X028355Y031808D01*
X028334Y031772D01*
X028323Y031731D01*
X028323Y031335D01*
X028701Y031335D01*
X028701Y031219D01*
X028817Y031219D01*
X029194Y031219D01*
X029194Y030823D01*
X029183Y030782D01*
X029194Y030925D02*
X030239Y030925D01*
X029194Y031084D02*
X055632Y031084D01*
X055710Y030925D02*
X033621Y030925D01*
X033779Y030767D02*
X055786Y030767D01*
X055832Y030608D02*
X046938Y030608D01*
X047096Y030450D02*
X055868Y030450D01*
X055900Y029974D02*
X053705Y029974D01*
X053804Y029816D02*
X055900Y029816D01*
X055900Y028706D02*
X048945Y028706D01*
X048945Y028548D02*
X055900Y028548D01*
X055900Y028389D02*
X048945Y028389D01*
X048943Y028231D02*
X055900Y028231D01*
X055900Y028072D02*
X048877Y028072D01*
X048787Y027914D02*
X055900Y027914D01*
X051539Y026487D02*
X044100Y026487D01*
X044100Y026329D02*
X044643Y026329D01*
X044484Y026170D02*
X044100Y026170D01*
X044301Y026012D02*
X044374Y026012D01*
X044092Y026646D02*
X051471Y026646D01*
X051559Y024902D02*
X051614Y024830D01*
X051677Y024767D01*
X053100Y023159D02*
X053260Y023159D01*
X053260Y023000D02*
X053100Y023000D01*
X053100Y022842D02*
X053260Y022842D01*
X047786Y025853D02*
X047443Y025853D01*
X047601Y025695D02*
X047605Y025695D01*
X043872Y026963D02*
X043833Y026963D01*
X043872Y027121D02*
X043776Y027121D01*
X043776Y027280D02*
X043872Y027280D01*
X041580Y028913D02*
X040930Y028913D01*
X040680Y028663D01*
X040680Y029413D02*
X040430Y029663D01*
X035180Y029663D01*
X034742Y029182D02*
X034614Y029182D01*
X033938Y030608D02*
X044672Y030608D01*
X044680Y030163D02*
X044680Y029663D01*
X044430Y029413D01*
X043780Y029413D01*
X042430Y029663D02*
X042180Y029913D01*
X041580Y029913D01*
X041580Y029413D02*
X040680Y029413D01*
X036210Y026646D02*
X036150Y026646D01*
X036180Y026163D02*
X036180Y025413D01*
X036190Y025423D01*
X035687Y024902D02*
X035685Y024902D01*
X035358Y024902D02*
X035222Y024902D01*
X035222Y025061D02*
X035358Y025061D01*
X035358Y025219D02*
X035222Y025219D01*
X036074Y024413D02*
X036180Y024307D01*
X034930Y023787D02*
X034304Y023787D01*
X033930Y023413D01*
X033430Y023413D01*
X033430Y024703D01*
X033930Y024703D02*
X033930Y024703D01*
X033930Y024143D01*
X033930Y024703D01*
X033930Y024585D02*
X033930Y024585D01*
X033930Y024427D02*
X033930Y024427D01*
X033930Y024268D02*
X033930Y024268D01*
X033750Y024110D02*
X034383Y024110D01*
X034531Y024268D02*
X034216Y024268D01*
X034015Y023951D02*
X033750Y023951D01*
X033750Y023793D02*
X033857Y023793D01*
X032930Y024703D02*
X032930Y025288D01*
X033055Y025413D01*
X033930Y025413D01*
X031930Y025913D02*
X031930Y024703D01*
X030680Y025788D02*
X025930Y025788D01*
X025530Y026188D01*
X025530Y027163D01*
X025097Y027163D02*
X025097Y027746D01*
X024930Y027913D01*
X025180Y028413D02*
X025963Y027630D01*
X025963Y027163D01*
X024430Y028413D02*
X024180Y028163D01*
X023430Y027913D02*
X023430Y025913D01*
X025430Y023913D01*
X024984Y023793D02*
X023003Y023793D01*
X022845Y023951D02*
X024939Y023951D01*
X024781Y024110D02*
X022686Y024110D01*
X022528Y024268D02*
X024622Y024268D01*
X024464Y024427D02*
X022369Y024427D01*
X022211Y024585D02*
X024305Y024585D01*
X024147Y024744D02*
X022126Y024744D01*
X021806Y025394D02*
X020949Y025394D01*
X020930Y025413D01*
X020930Y026037D01*
X020804Y026163D01*
X022180Y026221D02*
X022180Y026913D01*
X021930Y027163D01*
X021181Y027163D01*
X021180Y027164D01*
X021730Y027597D02*
X022319Y027597D01*
X022319Y027438D02*
X022102Y027438D01*
X022266Y027280D02*
X022319Y027280D01*
X022341Y027755D02*
X021735Y027755D01*
X021180Y027912D02*
X021176Y027916D01*
X020178Y027916D01*
X020766Y028389D02*
X020772Y028389D01*
X022930Y028413D02*
X023430Y027913D01*
X022757Y030767D02*
X028343Y030767D01*
X028334Y030782D02*
X028355Y030746D01*
X028385Y030716D01*
X028421Y030695D01*
X028462Y030684D01*
X028701Y030684D01*
X028701Y031219D01*
X028323Y031219D01*
X028323Y030823D01*
X028334Y030782D01*
X028323Y030925D02*
X027748Y030925D01*
X027684Y030899D02*
X027845Y030965D01*
X027968Y031088D01*
X028035Y031249D01*
X028035Y031423D01*
X027968Y031584D01*
X027845Y031707D01*
X027684Y031774D01*
X027510Y031774D01*
X027350Y031707D01*
X027226Y031584D01*
X027160Y031423D01*
X027160Y031249D01*
X027226Y031088D01*
X027350Y030965D01*
X027510Y030899D01*
X027684Y030899D01*
X027447Y030925D02*
X024598Y030925D01*
X024535Y030899D02*
X024696Y030965D01*
X024819Y031088D01*
X024885Y031249D01*
X024885Y031423D01*
X024819Y031584D01*
X024696Y031707D01*
X024535Y031774D01*
X024361Y031774D01*
X024200Y031707D01*
X024077Y031584D01*
X024010Y031423D01*
X024010Y031249D01*
X024077Y031088D01*
X024200Y030965D01*
X024361Y030899D01*
X024535Y030899D01*
X024297Y030925D02*
X022777Y030925D01*
X022777Y031084D02*
X024082Y031084D01*
X024013Y031242D02*
X022399Y031242D01*
X022399Y031335D02*
X022777Y031335D01*
X022777Y031731D01*
X022766Y031772D01*
X022745Y031808D01*
X022715Y031838D01*
X022679Y031859D01*
X022638Y031870D01*
X022399Y031870D01*
X022399Y031335D01*
X022399Y031401D02*
X022284Y031401D01*
X022284Y031559D02*
X022399Y031559D01*
X022399Y031718D02*
X022284Y031718D01*
X021906Y031718D02*
X019524Y031718D01*
X019930Y031559D02*
X020006Y031559D01*
X020006Y031401D02*
X019930Y031401D01*
X019930Y031242D02*
X020006Y031242D01*
X020006Y031084D02*
X019930Y031084D01*
X019930Y030925D02*
X020006Y030925D01*
X019633Y030925D02*
X019585Y030925D01*
X020365Y031084D02*
X021906Y031084D01*
X021906Y031401D02*
X020365Y031401D01*
X020361Y031559D02*
X021906Y031559D01*
X022284Y031242D02*
X020365Y031242D01*
X022284Y031084D02*
X022399Y031084D01*
X022399Y030925D02*
X022284Y030925D01*
X022284Y030767D02*
X022399Y030767D01*
X022777Y031401D02*
X024010Y031401D01*
X024066Y031559D02*
X022777Y031559D01*
X022777Y031718D02*
X024225Y031718D01*
X024670Y031718D02*
X027375Y031718D01*
X027216Y031559D02*
X024829Y031559D01*
X024885Y031401D02*
X027160Y031401D01*
X027163Y031242D02*
X024882Y031242D01*
X024814Y031084D02*
X027231Y031084D01*
X027963Y031084D02*
X028323Y031084D01*
X028323Y031401D02*
X028035Y031401D01*
X028032Y031242D02*
X028701Y031242D01*
X028817Y031242D02*
X055506Y031242D01*
X055369Y031401D02*
X029194Y031401D01*
X029194Y031559D02*
X055171Y031559D01*
X054891Y031718D02*
X029194Y031718D01*
X028817Y031718D02*
X028701Y031718D01*
X028701Y031559D02*
X028817Y031559D01*
X028817Y031401D02*
X028701Y031401D01*
X028701Y031084D02*
X028817Y031084D01*
X028817Y030925D02*
X028701Y030925D01*
X028701Y030767D02*
X028817Y030767D01*
X028323Y031559D02*
X027979Y031559D01*
X027820Y031718D02*
X028323Y031718D01*
X035250Y027280D02*
X035354Y027280D01*
X031743Y026487D02*
X031617Y026487D01*
X031243Y026487D02*
X031117Y026487D01*
X030743Y026487D02*
X030617Y026487D01*
X035485Y023317D02*
X035705Y023317D01*
X036655Y023317D02*
X036790Y023317D01*
X030365Y019830D02*
X026995Y019830D01*
X020795Y020623D02*
X018020Y020623D01*
X018020Y020781D02*
X020609Y020781D01*
X020451Y020940D02*
X017954Y020940D01*
X017829Y021098D02*
X020292Y021098D01*
X017031Y021098D02*
X016829Y021098D01*
X016031Y021098D02*
X015829Y021098D01*
X015031Y021098D02*
X014829Y021098D01*
X014031Y021098D02*
X013829Y021098D01*
X013031Y021098D02*
X012829Y021098D01*
X012031Y021098D02*
X011829Y021098D01*
X011031Y021098D02*
X010829Y021098D01*
X010031Y021098D02*
X009829Y021098D01*
X009031Y021098D02*
X008829Y021098D01*
X008031Y021098D02*
X007829Y021098D01*
X007031Y021098D02*
X006829Y021098D01*
X006031Y021098D02*
X005829Y021098D01*
X005031Y021098D02*
X004829Y021098D01*
X004031Y021098D02*
X003829Y021098D01*
X003031Y021098D02*
X002829Y021098D01*
X003150Y025695D02*
X006509Y025695D01*
X006667Y025853D02*
X005782Y025853D01*
X005981Y026012D02*
X006826Y026012D01*
X006860Y026170D02*
X006140Y026170D01*
X006298Y026329D02*
X006860Y026329D01*
X006860Y026487D02*
X006453Y026487D01*
X006500Y026646D02*
X006860Y026646D01*
X006860Y026804D02*
X006500Y026804D01*
X006500Y026963D02*
X006860Y026963D01*
X006788Y027121D02*
X006568Y027121D01*
X006180Y026663D02*
X006180Y027914D01*
X005658Y027280D02*
X005600Y027280D01*
X005551Y026487D02*
X003275Y026487D01*
X002930Y026153D02*
X005670Y026153D01*
X006180Y026663D01*
X007568Y027121D02*
X007788Y027121D01*
X006350Y025536D02*
X004236Y025536D01*
X005604Y028548D02*
X005656Y028548D01*
X005784Y028706D02*
X005437Y028706D01*
X007572Y028706D02*
X007784Y028706D01*
X002306Y031876D02*
X054304Y031876D01*
X051798Y030133D02*
X048502Y030133D01*
X048726Y029974D02*
X051605Y029974D01*
X051506Y029816D02*
X048852Y029816D01*
X048917Y029657D02*
X051455Y029657D01*
X046983Y029657D02*
X046417Y029657D01*
X046352Y029816D02*
X046825Y029816D01*
X046666Y029974D02*
X046226Y029974D01*
X053859Y018245D02*
X055900Y018245D01*
X055900Y018087D02*
X053819Y018087D01*
X053733Y017928D02*
X055900Y017928D01*
X055900Y017770D02*
X053571Y017770D01*
X052974Y017369D02*
X043930Y017369D01*
D32*
X033430Y023413D03*
X032430Y023663D03*
X031430Y023663D03*
X034680Y024663D03*
X033430Y026288D03*
X032930Y027913D03*
X030930Y027913D03*
X029680Y027913D03*
X027930Y027913D03*
X024930Y027913D03*
X023805Y028538D03*
X022930Y028413D03*
X024930Y028913D03*
X025430Y024663D03*
X026180Y024663D03*
X025430Y023913D03*
X023180Y024163D03*
X027680Y023413D03*
X026680Y020163D03*
X030680Y020163D03*
X037930Y024913D03*
X042430Y023538D03*
X042930Y026663D03*
X043680Y009663D03*
D33*
X043680Y012663D03*
X048680Y012663D03*
D34*
X051180Y011913D03*
X043180Y014413D03*
X043180Y015663D03*
X040680Y021913D03*
X041180Y023663D03*
X037180Y024413D03*
X041180Y026288D03*
X035180Y029163D03*
X035180Y029663D03*
X032430Y028663D03*
X031680Y028663D03*
X020930Y025413D03*
D35*
X036180Y025413D02*
X036180Y024307D01*
X043780Y024663D02*
X045680Y024663D01*
X045680Y028913D02*
X043780Y028913D01*
X043780Y020413D02*
X045680Y020413D01*
D36*
X017430Y020663D03*
X016430Y020663D03*
X015430Y020663D03*
X014430Y020663D03*
X013430Y020663D03*
X012430Y020663D03*
X011430Y020663D03*
X010430Y020663D03*
X009430Y020663D03*
X008430Y020663D03*
X007430Y020663D03*
X006430Y020663D03*
X005430Y020663D03*
X004430Y020663D03*
X003430Y020663D03*
X002430Y020663D03*
X002430Y019663D03*
X003430Y019663D03*
X004430Y019663D03*
X005430Y019663D03*
X006430Y019663D03*
X007430Y019663D03*
X008430Y019663D03*
X009430Y019663D03*
X010430Y019663D03*
X011430Y019663D03*
X012430Y019663D03*
X013430Y019663D03*
X014430Y019663D03*
X015430Y019663D03*
X016430Y019663D03*
X017430Y019663D03*
X017430Y018663D03*
X016430Y018663D03*
X015430Y018663D03*
X014430Y018663D03*
X013430Y018663D03*
X012430Y018663D03*
X011430Y018663D03*
X010430Y018663D03*
X009430Y018663D03*
X008430Y018663D03*
X007430Y018663D03*
X006430Y018663D03*
X005430Y018663D03*
X004430Y018663D03*
X003430Y018663D03*
X002430Y018663D03*
X002430Y017663D03*
X003430Y017663D03*
X004430Y017663D03*
X005430Y017663D03*
X006430Y017663D03*
X007430Y017663D03*
X008430Y017663D03*
X009430Y017663D03*
X010430Y017663D03*
X011430Y017663D03*
X012430Y017663D03*
X013430Y017663D03*
X014430Y017663D03*
X015430Y017663D03*
X016430Y017663D03*
X017430Y017663D03*
X017430Y016663D03*
X016430Y016663D03*
X015430Y016663D03*
X014430Y016663D03*
X013430Y016663D03*
X012430Y016663D03*
X011430Y016663D03*
X010430Y016663D03*
X009430Y016663D03*
X008430Y016663D03*
X007430Y016663D03*
X006430Y016663D03*
X005430Y016663D03*
X004430Y016663D03*
X003430Y016663D03*
X002430Y016663D03*
X002430Y015663D03*
X003430Y015663D03*
X004430Y015663D03*
X005430Y015663D03*
X006430Y015663D03*
X007430Y015663D03*
X008430Y015663D03*
X009430Y015663D03*
X010430Y015663D03*
X011430Y015663D03*
X012430Y015663D03*
X013430Y015663D03*
X014430Y015663D03*
X015430Y015663D03*
X016430Y015663D03*
X017430Y015663D03*
X017430Y014663D03*
X016430Y014663D03*
X015430Y014663D03*
X014430Y014663D03*
X013430Y014663D03*
X012430Y014663D03*
X011430Y014663D03*
X010430Y014663D03*
X009430Y014663D03*
X008430Y014663D03*
X007430Y014663D03*
X006430Y014663D03*
X005430Y014663D03*
X004430Y014663D03*
X003430Y014663D03*
X002430Y014663D03*
X002430Y013663D03*
X003430Y013663D03*
X004430Y013663D03*
X005430Y013663D03*
X006430Y013663D03*
X007430Y013663D03*
X008430Y013663D03*
X009430Y013663D03*
X010430Y013663D03*
X011430Y013663D03*
X012430Y013663D03*
X013430Y013663D03*
X014430Y013663D03*
X015430Y013663D03*
X016430Y013663D03*
X017430Y013663D03*
X017430Y012663D03*
X016430Y012663D03*
X015430Y012663D03*
X014430Y012663D03*
X013430Y012663D03*
X012430Y012663D03*
X011430Y012663D03*
X010430Y012663D03*
X009430Y012663D03*
X008430Y012663D03*
X007430Y012663D03*
X006430Y012663D03*
X005430Y012663D03*
X004430Y012663D03*
X003430Y012663D03*
X002430Y012663D03*
X002430Y011663D03*
X003430Y011663D03*
X004430Y011663D03*
X005430Y011663D03*
X006430Y011663D03*
X007430Y011663D03*
X008430Y011663D03*
X009430Y011663D03*
X010430Y011663D03*
X011430Y011663D03*
X012430Y011663D03*
X013430Y011663D03*
X014430Y011663D03*
X015430Y011663D03*
X016430Y011663D03*
X017430Y011663D03*
X017430Y010663D03*
X016430Y010663D03*
X015430Y010663D03*
X014430Y010663D03*
X013430Y010663D03*
X012430Y010663D03*
X011430Y010663D03*
X010430Y010663D03*
X009430Y010663D03*
X008430Y010663D03*
X007430Y010663D03*
X006430Y010663D03*
X005430Y010663D03*
X004430Y010663D03*
X003430Y010663D03*
X002430Y010663D03*
X002430Y009663D03*
X003430Y009663D03*
X004430Y009663D03*
X005430Y009663D03*
X006430Y009663D03*
X007430Y009663D03*
X008430Y009663D03*
X009430Y009663D03*
X010430Y009663D03*
X011430Y009663D03*
X012430Y009663D03*
X013430Y009663D03*
X014430Y009663D03*
X015430Y009663D03*
X016430Y009663D03*
X017430Y009663D03*
M02*
