G75*
G70*
%OFA0B0*%
%FSLAX24Y24*%
%IPPOS*%
%LPD*%
%AMOC8*
5,1,8,0,0,1.08239X$1,22.5*
%
%ADD10C,0.0700*%
%ADD11C,0.0660*%
%ADD12OC8,0.0520*%
%ADD13C,0.0560*%
%ADD14OC8,0.0560*%
%ADD15C,0.1050*%
%ADD16C,0.0357*%
%ADD17C,0.0160*%
%ADD18C,0.0240*%
%ADD19C,0.0700*%
D10*
X005178Y027566D02*
X005178Y028266D01*
X006178Y028266D02*
X006178Y027566D01*
X007178Y027566D02*
X007178Y028266D01*
X008178Y028266D02*
X008178Y027566D01*
X009178Y027566D02*
X009178Y028266D01*
X010178Y028266D02*
X010178Y027566D01*
X011178Y027566D02*
X011178Y028266D01*
X012178Y028266D02*
X012178Y027566D01*
X013178Y027566D02*
X013178Y028266D01*
X014178Y028266D02*
X014178Y027566D01*
X015178Y027566D02*
X015178Y028266D01*
X016178Y028266D02*
X016178Y027566D01*
X017178Y027566D02*
X017178Y028266D01*
X018178Y028266D02*
X018178Y027566D01*
X019178Y027566D02*
X019178Y028266D01*
X020178Y028266D02*
X020178Y027566D01*
D11*
X045196Y015419D03*
X047164Y015419D03*
X047164Y009710D03*
X046180Y009710D03*
X045196Y009710D03*
D12*
X003930Y025163D03*
X002930Y026153D03*
X002930Y024173D03*
D13*
X052930Y015413D03*
D14*
X053930Y015413D03*
X053930Y014413D03*
X052930Y014413D03*
X052930Y013413D03*
X053930Y013413D03*
X053930Y012413D03*
X052930Y012413D03*
X052930Y011413D03*
X053930Y011413D03*
X053930Y010413D03*
X052930Y010413D03*
X052930Y009413D03*
X053930Y009413D03*
X053930Y008413D03*
X052930Y008413D03*
X052930Y007413D03*
X053930Y007413D03*
X053930Y006413D03*
X052930Y006413D03*
D15*
X053180Y018333D02*
X052130Y018333D01*
X048180Y019888D02*
X048180Y020938D01*
X045680Y020938D02*
X045680Y019888D01*
X052130Y021033D02*
X053180Y021033D01*
X053180Y022583D02*
X052130Y022583D01*
X048180Y024138D02*
X048180Y025188D01*
X045680Y025188D02*
X045680Y024138D01*
X052130Y025283D02*
X053180Y025283D01*
X053180Y026833D02*
X052130Y026833D01*
X048180Y028388D02*
X048180Y029438D01*
X045680Y029438D02*
X045680Y028388D01*
X052130Y029533D02*
X053180Y029533D01*
D16*
X042930Y025538D03*
X040680Y024663D03*
X036180Y026413D03*
X034680Y024413D03*
X033430Y023663D03*
X032430Y023663D03*
X031430Y023663D03*
X029680Y024663D03*
X031430Y025663D03*
X029680Y026663D03*
X029680Y027663D03*
X029680Y028663D03*
X030930Y028163D03*
X031930Y028163D03*
X032930Y028163D03*
X034430Y029663D03*
X035680Y030163D03*
X035680Y029163D03*
X040180Y029163D03*
X027119Y028602D03*
X021805Y024663D03*
X032680Y020663D03*
X035430Y021663D03*
X036430Y020663D03*
X037430Y021663D03*
X029430Y016913D03*
X042930Y010163D03*
X045680Y010663D03*
X045680Y011413D03*
X048680Y009913D03*
X049556Y013287D03*
X050304Y013287D03*
X047930Y013913D03*
X050180Y014913D03*
X050680Y015413D03*
X051430Y014913D03*
X048430Y016663D03*
X051180Y017413D03*
D17*
X001928Y004228D02*
X001621Y004376D01*
X001355Y004588D01*
X001143Y004854D01*
X000995Y005161D01*
X000920Y005493D01*
X000910Y005663D01*
X000910Y030163D01*
X000920Y030333D01*
X000995Y030665D01*
X001143Y030972D01*
X001355Y031238D01*
X001621Y031450D01*
X001928Y031598D01*
X002260Y031673D01*
X002430Y031683D01*
X023901Y031683D01*
X023810Y031463D01*
X023810Y031209D01*
X023907Y030975D01*
X024087Y030796D01*
X024321Y030699D01*
X024575Y030699D01*
X024809Y030796D01*
X024988Y030975D01*
X025085Y031209D01*
X025085Y031463D01*
X024994Y031683D01*
X027051Y031683D01*
X026960Y031463D01*
X026960Y031209D01*
X027057Y030975D01*
X027236Y030796D01*
X027471Y030699D01*
X027724Y030699D01*
X027958Y030796D01*
X028138Y030975D01*
X028235Y031209D01*
X028235Y031463D01*
X028144Y031683D01*
X054180Y031683D01*
X054350Y031673D01*
X054682Y031598D01*
X054989Y031450D01*
X055255Y031238D01*
X055467Y030972D01*
X055615Y030665D01*
X055690Y030333D01*
X055700Y030163D01*
X055700Y005758D01*
X055700Y005663D01*
X055690Y005493D01*
X055615Y005161D01*
X055467Y004854D01*
X055255Y004588D01*
X054989Y004376D01*
X054682Y004228D01*
X054350Y004153D01*
X054180Y004143D01*
X002430Y004143D01*
X002260Y004153D01*
X001928Y004228D01*
X001785Y004297D02*
X054825Y004297D01*
X055088Y004455D02*
X001522Y004455D01*
X001335Y004614D02*
X055275Y004614D01*
X055402Y004772D02*
X001208Y004772D01*
X001106Y004931D02*
X055504Y004931D01*
X055580Y005089D02*
X001030Y005089D01*
X000975Y005248D02*
X001863Y005248D01*
X001817Y005260D02*
X002089Y005187D01*
X002371Y005187D01*
X002643Y005260D01*
X002887Y005401D01*
X003087Y005601D01*
X003228Y005845D01*
X003301Y006117D01*
X003301Y006399D01*
X003228Y006671D01*
X003087Y006915D01*
X002887Y007115D01*
X002643Y007256D01*
X002371Y007329D01*
X002089Y007329D01*
X001817Y007256D01*
X001573Y007115D01*
X001373Y006915D01*
X001232Y006671D01*
X001159Y006399D01*
X001159Y006117D01*
X001232Y005845D01*
X001373Y005601D01*
X001573Y005401D01*
X001817Y005260D01*
X001568Y005406D02*
X000939Y005406D01*
X000916Y005565D02*
X001409Y005565D01*
X001302Y005723D02*
X000910Y005723D01*
X000910Y005882D02*
X001222Y005882D01*
X001180Y006040D02*
X000910Y006040D01*
X000910Y006199D02*
X001159Y006199D01*
X001159Y006357D02*
X000910Y006357D01*
X000910Y006516D02*
X001191Y006516D01*
X001234Y006674D02*
X000910Y006674D01*
X000910Y006833D02*
X001326Y006833D01*
X001450Y006991D02*
X000910Y006991D01*
X000910Y007150D02*
X001634Y007150D01*
X002014Y007308D02*
X000910Y007308D01*
X000910Y007467D02*
X042867Y007467D01*
X043025Y007308D02*
X039061Y007308D01*
X038986Y007329D02*
X038704Y007329D01*
X038432Y007256D01*
X038188Y007115D01*
X037988Y006915D01*
X037847Y006671D01*
X037774Y006399D01*
X037774Y006117D01*
X037847Y005845D01*
X037988Y005601D01*
X038188Y005401D01*
X038432Y005260D01*
X038704Y005187D01*
X038986Y005187D01*
X039258Y005260D01*
X039502Y005401D01*
X039702Y005601D01*
X039843Y005845D01*
X039916Y006117D01*
X039916Y006399D01*
X039843Y006671D01*
X039702Y006915D01*
X039502Y007115D01*
X039258Y007256D01*
X038986Y007329D01*
X038629Y007308D02*
X002446Y007308D01*
X002826Y007150D02*
X038249Y007150D01*
X038065Y006991D02*
X003010Y006991D01*
X003134Y006833D02*
X037941Y006833D01*
X037849Y006674D02*
X003226Y006674D01*
X003269Y006516D02*
X037806Y006516D01*
X037774Y006357D02*
X003301Y006357D01*
X003301Y006199D02*
X037774Y006199D01*
X037795Y006040D02*
X003280Y006040D01*
X003238Y005882D02*
X037837Y005882D01*
X037917Y005723D02*
X003158Y005723D01*
X003051Y005565D02*
X038024Y005565D01*
X038183Y005406D02*
X002892Y005406D01*
X002597Y005248D02*
X038478Y005248D01*
X039212Y005248D02*
X055635Y005248D01*
X055671Y005406D02*
X053433Y005406D01*
X053384Y005358D02*
X053919Y005893D01*
X054145Y005893D01*
X054450Y006198D01*
X054450Y006628D01*
X054165Y006913D01*
X054450Y007198D01*
X054450Y007628D01*
X054165Y007913D01*
X054450Y008198D01*
X054450Y008628D01*
X054165Y008913D01*
X054450Y009198D01*
X054450Y009424D01*
X055384Y010358D01*
X055485Y010459D01*
X055540Y010591D01*
X055540Y016235D01*
X055485Y016367D01*
X054134Y017718D01*
X054002Y017773D01*
X053608Y017773D01*
X053646Y017802D01*
X053711Y017867D01*
X053767Y017940D01*
X053814Y018021D01*
X053849Y018106D01*
X053873Y018195D01*
X053881Y018253D01*
X053260Y018253D01*
X053260Y018413D01*
X053100Y018413D01*
X053100Y019038D01*
X052084Y019038D01*
X051992Y019026D01*
X051903Y019002D01*
X051818Y018967D01*
X051737Y018920D01*
X051664Y018864D01*
X051599Y018799D01*
X051543Y018726D01*
X051496Y018645D01*
X051461Y018560D01*
X051437Y018471D01*
X051429Y018413D01*
X053100Y018413D01*
X053100Y018253D01*
X051429Y018253D01*
X051437Y018195D01*
X051461Y018106D01*
X051496Y018021D01*
X051543Y017940D01*
X051599Y017867D01*
X051664Y017802D01*
X051702Y017773D01*
X051404Y017773D01*
X051276Y017826D01*
X049790Y019312D01*
X049790Y029985D01*
X049735Y030117D01*
X049634Y030218D01*
X049009Y030843D01*
X048877Y030898D01*
X044983Y030898D01*
X044851Y030843D01*
X044750Y030742D01*
X044281Y030273D01*
X037358Y030273D01*
X037226Y030218D01*
X037125Y030117D01*
X036098Y029091D01*
X036098Y029246D01*
X036035Y029400D01*
X035917Y029518D01*
X035763Y029581D01*
X035714Y029581D01*
X035519Y029777D01*
X035597Y029745D01*
X035763Y029745D01*
X035917Y029808D01*
X036035Y029926D01*
X036098Y030080D01*
X036098Y030246D01*
X036035Y030400D01*
X035917Y030518D01*
X035776Y030576D01*
X035509Y030843D01*
X035377Y030898D01*
X028983Y030898D01*
X028851Y030843D01*
X028750Y030742D01*
X027023Y029015D01*
X026882Y028957D01*
X026764Y028839D01*
X026701Y028685D01*
X026701Y028519D01*
X026764Y028365D01*
X026882Y028247D01*
X027036Y028184D01*
X027202Y028184D01*
X027356Y028247D01*
X027474Y028365D01*
X027532Y028506D01*
X029204Y030178D01*
X032436Y030178D01*
X030834Y028576D01*
X030693Y028518D01*
X030575Y028400D01*
X030512Y028246D01*
X030512Y028080D01*
X030575Y027926D01*
X030693Y027808D01*
X030847Y027745D01*
X031013Y027745D01*
X031167Y027808D01*
X031285Y027926D01*
X031343Y028067D01*
X031512Y028235D01*
X031512Y028080D01*
X031575Y027926D01*
X031693Y027808D01*
X031847Y027745D01*
X032013Y027745D01*
X032167Y027808D01*
X032285Y027926D01*
X032343Y028067D01*
X032512Y028235D01*
X032512Y028080D01*
X032575Y027926D01*
X032693Y027808D01*
X032847Y027745D01*
X033013Y027745D01*
X033154Y027803D01*
X035752Y027803D01*
X035853Y027845D01*
X035531Y027523D01*
X030329Y027523D01*
X030093Y027759D01*
X030035Y027900D01*
X029917Y028018D01*
X029763Y028081D01*
X029597Y028081D01*
X029443Y028018D01*
X029325Y027900D01*
X029262Y027746D01*
X029262Y027580D01*
X029325Y027426D01*
X029443Y027308D01*
X029584Y027250D01*
X029875Y026959D01*
X029976Y026858D01*
X030108Y026803D01*
X035752Y026803D01*
X035884Y026858D01*
X037829Y028803D01*
X038240Y028803D01*
X038183Y028770D01*
X037983Y028570D01*
X037842Y028326D01*
X037769Y028054D01*
X037769Y027772D01*
X037842Y027500D01*
X037983Y027256D01*
X038183Y027056D01*
X038427Y026915D01*
X038699Y026842D01*
X038981Y026842D01*
X039253Y026915D01*
X039497Y027056D01*
X039697Y027256D01*
X039838Y027500D01*
X039911Y027772D01*
X039911Y028054D01*
X039838Y028326D01*
X039697Y028570D01*
X039497Y028770D01*
X039440Y028803D01*
X039956Y028803D01*
X040084Y028750D01*
X040320Y028514D01*
X040320Y024887D01*
X040262Y024746D01*
X040262Y024580D01*
X040325Y024426D01*
X040443Y024308D01*
X040597Y024245D01*
X040763Y024245D01*
X040917Y024308D01*
X041035Y024426D01*
X041098Y024580D01*
X041098Y024746D01*
X041040Y024887D01*
X041040Y028735D01*
X040985Y028867D01*
X040884Y028968D01*
X040593Y029259D01*
X040535Y029400D01*
X040417Y029518D01*
X040332Y029553D01*
X044502Y029553D01*
X044634Y029608D01*
X045204Y030178D01*
X045467Y030178D01*
X045247Y030087D01*
X045031Y029871D01*
X044915Y029590D01*
X044915Y028236D01*
X045031Y027955D01*
X045247Y027739D01*
X045528Y027623D01*
X045832Y027623D01*
X046113Y027739D01*
X046329Y027955D01*
X046445Y028236D01*
X046445Y029590D01*
X046329Y029871D01*
X046113Y030087D01*
X045893Y030178D01*
X047967Y030178D01*
X047747Y030087D01*
X047531Y029871D01*
X047415Y029590D01*
X047415Y028236D01*
X047531Y027955D01*
X047747Y027739D01*
X048028Y027623D01*
X048332Y027623D01*
X048613Y027739D01*
X048829Y027955D01*
X048945Y028236D01*
X048945Y029590D01*
X048829Y029871D01*
X048613Y030087D01*
X048393Y030178D01*
X048656Y030178D01*
X049070Y029764D01*
X049070Y019091D01*
X049125Y018959D01*
X050767Y017317D01*
X050825Y017176D01*
X050943Y017058D01*
X051028Y017023D01*
X050579Y017023D01*
X049634Y017968D01*
X049502Y018023D01*
X040329Y018023D01*
X036884Y021468D01*
X036752Y021523D01*
X035825Y021523D01*
X035848Y021580D01*
X035848Y021746D01*
X035790Y021887D01*
X035790Y023235D01*
X035735Y023367D01*
X035634Y023468D01*
X035134Y023968D01*
X035002Y024023D01*
X033654Y024023D01*
X033513Y024081D01*
X033347Y024081D01*
X033193Y024018D01*
X033075Y023900D01*
X033012Y023746D01*
X033012Y023580D01*
X033075Y023426D01*
X033193Y023308D01*
X033347Y023245D01*
X033513Y023245D01*
X033654Y023303D01*
X034781Y023303D01*
X035070Y023014D01*
X035070Y021887D01*
X035012Y021746D01*
X035012Y021580D01*
X035035Y021523D01*
X034329Y021523D01*
X032790Y023062D01*
X032790Y023439D01*
X032848Y023580D01*
X032848Y023746D01*
X032785Y023900D01*
X032667Y024018D01*
X032513Y024081D01*
X032347Y024081D01*
X032193Y024018D01*
X032075Y023900D01*
X032012Y023746D01*
X032012Y023580D01*
X032070Y023439D01*
X032070Y022841D01*
X032125Y022709D01*
X033811Y021023D01*
X032904Y021023D01*
X032763Y021081D01*
X032597Y021081D01*
X032443Y021018D01*
X032325Y020900D01*
X032262Y020746D01*
X032262Y020580D01*
X032325Y020426D01*
X032443Y020308D01*
X032597Y020245D01*
X032763Y020245D01*
X032904Y020303D01*
X036206Y020303D01*
X036347Y020245D01*
X036513Y020245D01*
X036667Y020308D01*
X036785Y020426D01*
X036821Y020513D01*
X039875Y017459D01*
X039976Y017358D01*
X040108Y017303D01*
X049281Y017303D01*
X050125Y016459D01*
X050226Y016358D01*
X050358Y016303D01*
X053781Y016303D01*
X054320Y015764D01*
X054320Y015758D01*
X054145Y015933D01*
X053715Y015933D01*
X053410Y015628D01*
X053410Y015613D01*
X053371Y015708D01*
X053225Y015854D01*
X053033Y015933D01*
X052919Y015933D01*
X052634Y016218D01*
X052502Y016273D01*
X051108Y016273D01*
X050976Y016218D01*
X050875Y016117D01*
X050584Y015826D01*
X050443Y015768D01*
X050325Y015650D01*
X050262Y015496D01*
X050262Y015341D01*
X048843Y016759D01*
X048785Y016900D01*
X048667Y017018D01*
X048513Y017081D01*
X048347Y017081D01*
X048193Y017018D01*
X048075Y016900D01*
X048012Y016746D01*
X048012Y016580D01*
X048075Y016426D01*
X048193Y016308D01*
X048334Y016250D01*
X049767Y014817D01*
X049825Y014676D01*
X049943Y014558D01*
X050097Y014495D01*
X050263Y014495D01*
X050345Y014528D01*
X049522Y013705D01*
X049473Y013705D01*
X049319Y013642D01*
X049201Y013524D01*
X049138Y013370D01*
X049138Y013204D01*
X049196Y013063D01*
X049196Y012188D01*
X048781Y011773D01*
X047079Y011773D01*
X046384Y012468D01*
X046252Y012523D01*
X045521Y012523D01*
X045556Y012607D01*
X045556Y014973D01*
X045679Y015096D01*
X045766Y015306D01*
X045766Y015532D01*
X045679Y015742D01*
X045519Y015902D01*
X045309Y015989D01*
X045082Y015989D01*
X044873Y015902D01*
X044713Y015742D01*
X044626Y015532D01*
X044626Y015306D01*
X044713Y015096D01*
X044836Y014973D01*
X044836Y012828D01*
X044125Y012117D01*
X044070Y011985D01*
X044070Y009532D01*
X043343Y010259D01*
X043285Y010400D01*
X043167Y010518D01*
X043013Y010581D01*
X042847Y010581D01*
X042693Y010518D01*
X042575Y010400D01*
X042540Y010315D01*
X042540Y015235D01*
X042485Y015367D01*
X042384Y015468D01*
X041884Y015968D01*
X041752Y016023D01*
X035579Y016023D01*
X035507Y016095D01*
X035608Y016053D01*
X045531Y016053D01*
X045820Y015764D01*
X045820Y014341D01*
X045875Y014209D01*
X045976Y014108D01*
X046476Y013608D01*
X046608Y013553D01*
X047706Y013553D01*
X047847Y013495D01*
X048013Y013495D01*
X048167Y013558D01*
X048285Y013676D01*
X048348Y013830D01*
X048348Y013996D01*
X048285Y014150D01*
X048167Y014268D01*
X048013Y014331D01*
X047847Y014331D01*
X047706Y014273D01*
X046829Y014273D01*
X046540Y014562D01*
X046540Y015985D01*
X046485Y016117D01*
X045985Y016617D01*
X045884Y016718D01*
X045752Y016773D01*
X035829Y016773D01*
X031790Y020812D01*
X031790Y023439D01*
X031848Y023580D01*
X031848Y023746D01*
X031785Y023900D01*
X031667Y024018D01*
X031513Y024081D01*
X031347Y024081D01*
X031193Y024018D01*
X031075Y023900D01*
X031012Y023746D01*
X031012Y023580D01*
X031070Y023439D01*
X031070Y020591D01*
X031125Y020459D01*
X034353Y017231D01*
X034252Y017273D01*
X029790Y017273D01*
X029790Y022235D01*
X029735Y022367D01*
X027040Y025062D01*
X027040Y026764D01*
X028579Y028303D01*
X029456Y028303D01*
X029597Y028245D01*
X029763Y028245D01*
X029917Y028308D01*
X030035Y028426D01*
X030098Y028580D01*
X030098Y028746D01*
X030035Y028900D01*
X029917Y029018D01*
X029763Y029081D01*
X029597Y029081D01*
X029456Y029023D01*
X028049Y029023D01*
X028125Y028867D02*
X026375Y027117D01*
X026320Y026985D01*
X026320Y024841D01*
X026375Y024709D01*
X026476Y024608D01*
X029070Y022014D01*
X029070Y017137D01*
X029012Y016996D01*
X029012Y016841D01*
X028540Y017312D01*
X028540Y021735D01*
X028485Y021867D01*
X028384Y021968D01*
X025384Y024968D01*
X025252Y025023D01*
X022029Y025023D01*
X021888Y025081D01*
X021722Y025081D01*
X021568Y025018D01*
X021450Y024900D01*
X021387Y024746D01*
X021387Y024580D01*
X021450Y024426D01*
X021568Y024308D01*
X021722Y024245D01*
X021888Y024245D01*
X022029Y024303D01*
X025031Y024303D01*
X027820Y021514D01*
X027820Y017091D01*
X027875Y016959D01*
X028875Y015959D01*
X028976Y015858D01*
X029108Y015803D01*
X033781Y015803D01*
X034625Y014959D01*
X034726Y014858D01*
X034858Y014803D01*
X041031Y014803D01*
X041320Y014514D01*
X041320Y009091D01*
X041375Y008959D01*
X044976Y005358D01*
X045108Y005303D01*
X053252Y005303D01*
X053384Y005358D01*
X053591Y005565D02*
X055694Y005565D01*
X055700Y005723D02*
X053750Y005723D01*
X053908Y005882D02*
X055700Y005882D01*
X055700Y006040D02*
X054293Y006040D01*
X054450Y006199D02*
X055700Y006199D01*
X055700Y006357D02*
X054450Y006357D01*
X054450Y006516D02*
X055700Y006516D01*
X055700Y006674D02*
X054404Y006674D01*
X054245Y006833D02*
X055700Y006833D01*
X055700Y006991D02*
X054244Y006991D01*
X054402Y007150D02*
X055700Y007150D01*
X055700Y007308D02*
X054450Y007308D01*
X054450Y007467D02*
X055700Y007467D01*
X055700Y007625D02*
X054450Y007625D01*
X054294Y007784D02*
X055700Y007784D01*
X055700Y007942D02*
X054195Y007942D01*
X054353Y008101D02*
X055700Y008101D01*
X055700Y008259D02*
X054450Y008259D01*
X054450Y008418D02*
X055700Y008418D01*
X055700Y008576D02*
X054450Y008576D01*
X054343Y008735D02*
X055700Y008735D01*
X055700Y008894D02*
X054185Y008894D01*
X054304Y009052D02*
X055700Y009052D01*
X055700Y009211D02*
X054450Y009211D01*
X054450Y009369D02*
X055700Y009369D01*
X055700Y009528D02*
X054554Y009528D01*
X054712Y009686D02*
X055700Y009686D01*
X055700Y009845D02*
X054871Y009845D01*
X055029Y010003D02*
X055700Y010003D01*
X055700Y010162D02*
X055188Y010162D01*
X055346Y010320D02*
X055700Y010320D01*
X055700Y010479D02*
X055493Y010479D01*
X055384Y010358D02*
X055384Y010358D01*
X055540Y010637D02*
X055700Y010637D01*
X055700Y010796D02*
X055540Y010796D01*
X055540Y010954D02*
X055700Y010954D01*
X055700Y011113D02*
X055540Y011113D01*
X055540Y011271D02*
X055700Y011271D01*
X055700Y011430D02*
X055540Y011430D01*
X055540Y011588D02*
X055700Y011588D01*
X055700Y011747D02*
X055540Y011747D01*
X055540Y011905D02*
X055700Y011905D01*
X055700Y012064D02*
X055540Y012064D01*
X055540Y012222D02*
X055700Y012222D01*
X055700Y012381D02*
X055540Y012381D01*
X055540Y012539D02*
X055700Y012539D01*
X055700Y012698D02*
X055540Y012698D01*
X055540Y012856D02*
X055700Y012856D01*
X055700Y013015D02*
X055540Y013015D01*
X055540Y013173D02*
X055700Y013173D01*
X055700Y013332D02*
X055540Y013332D01*
X055540Y013490D02*
X055700Y013490D01*
X055700Y013649D02*
X055540Y013649D01*
X055540Y013807D02*
X055700Y013807D01*
X055700Y013966D02*
X055540Y013966D01*
X055540Y014124D02*
X055700Y014124D01*
X055700Y014283D02*
X055540Y014283D01*
X055540Y014441D02*
X055700Y014441D01*
X055700Y014600D02*
X055540Y014600D01*
X055540Y014758D02*
X055700Y014758D01*
X055700Y014917D02*
X055540Y014917D01*
X055540Y015075D02*
X055700Y015075D01*
X055700Y015234D02*
X055540Y015234D01*
X055540Y015392D02*
X055700Y015392D01*
X055700Y015551D02*
X055540Y015551D01*
X055540Y015709D02*
X055700Y015709D01*
X055700Y015868D02*
X055540Y015868D01*
X055540Y016026D02*
X055700Y016026D01*
X055700Y016185D02*
X055540Y016185D01*
X055495Y016343D02*
X055700Y016343D01*
X055700Y016502D02*
X055351Y016502D01*
X055192Y016660D02*
X055700Y016660D01*
X055700Y016819D02*
X055034Y016819D01*
X054875Y016977D02*
X055700Y016977D01*
X055700Y017136D02*
X054717Y017136D01*
X054558Y017294D02*
X055700Y017294D01*
X055700Y017453D02*
X054400Y017453D01*
X054241Y017611D02*
X055700Y017611D01*
X055700Y017770D02*
X054010Y017770D01*
X053758Y017928D02*
X055700Y017928D01*
X055700Y018087D02*
X053841Y018087D01*
X053879Y018245D02*
X055700Y018245D01*
X055700Y018404D02*
X053260Y018404D01*
X053260Y018413D02*
X053881Y018413D01*
X053873Y018471D01*
X053849Y018560D01*
X053814Y018645D01*
X053767Y018726D01*
X053711Y018799D01*
X053646Y018864D01*
X053573Y018920D01*
X053492Y018967D01*
X053407Y019002D01*
X053318Y019026D01*
X053260Y019034D01*
X053260Y018413D01*
X053260Y018562D02*
X053100Y018562D01*
X053100Y018404D02*
X050699Y018404D01*
X050540Y018562D02*
X051462Y018562D01*
X051540Y018721D02*
X050382Y018721D01*
X050223Y018879D02*
X051684Y018879D01*
X052080Y019038D02*
X050065Y019038D01*
X049906Y019196D02*
X055700Y019196D01*
X055700Y019038D02*
X053100Y019038D01*
X053100Y018879D02*
X053260Y018879D01*
X053260Y018721D02*
X053100Y018721D01*
X053626Y018879D02*
X055700Y018879D01*
X055700Y018721D02*
X053770Y018721D01*
X053848Y018562D02*
X055700Y018562D01*
X055700Y019355D02*
X049790Y019355D01*
X049790Y019513D02*
X055700Y019513D01*
X055700Y019672D02*
X049790Y019672D01*
X049790Y019830D02*
X055700Y019830D01*
X055700Y019989D02*
X049790Y019989D01*
X049790Y020147D02*
X055700Y020147D01*
X055700Y020306D02*
X049790Y020306D01*
X049790Y020464D02*
X051713Y020464D01*
X051737Y020446D02*
X051818Y020399D01*
X051903Y020364D01*
X051992Y020340D01*
X052084Y020328D01*
X053100Y020328D01*
X053100Y020953D01*
X051429Y020953D01*
X051437Y020895D01*
X051461Y020806D01*
X051496Y020721D01*
X051543Y020640D01*
X051599Y020567D01*
X051664Y020502D01*
X051737Y020446D01*
X051556Y020623D02*
X049790Y020623D01*
X049790Y020781D02*
X051471Y020781D01*
X051431Y020940D02*
X049790Y020940D01*
X049790Y021098D02*
X053100Y021098D01*
X053100Y021113D02*
X053100Y020953D01*
X053260Y020953D01*
X053260Y021113D01*
X053100Y021113D01*
X053100Y021738D01*
X052084Y021738D01*
X051992Y021726D01*
X051903Y021702D01*
X051818Y021667D01*
X051737Y021620D01*
X051664Y021564D01*
X051599Y021499D01*
X051543Y021426D01*
X051496Y021345D01*
X051461Y021260D01*
X051437Y021171D01*
X051429Y021113D01*
X053100Y021113D01*
X053100Y021257D02*
X053260Y021257D01*
X053260Y021113D02*
X053260Y021734D01*
X053318Y021726D01*
X053407Y021702D01*
X053492Y021667D01*
X053573Y021620D01*
X053646Y021564D01*
X053711Y021499D01*
X053767Y021426D01*
X053814Y021345D01*
X053849Y021260D01*
X053873Y021171D01*
X053881Y021113D01*
X053260Y021113D01*
X053260Y021098D02*
X055700Y021098D01*
X055700Y020940D02*
X053879Y020940D01*
X053881Y020953D02*
X053260Y020953D01*
X053260Y020332D01*
X053318Y020340D01*
X053407Y020364D01*
X053492Y020399D01*
X053573Y020446D01*
X053646Y020502D01*
X053711Y020567D01*
X053767Y020640D01*
X053814Y020721D01*
X053849Y020806D01*
X053873Y020895D01*
X053881Y020953D01*
X053839Y020781D02*
X055700Y020781D01*
X055700Y020623D02*
X053754Y020623D01*
X053597Y020464D02*
X055700Y020464D01*
X055700Y021257D02*
X053850Y021257D01*
X053774Y021415D02*
X055700Y021415D01*
X055700Y021574D02*
X053634Y021574D01*
X053260Y021574D02*
X053100Y021574D01*
X053100Y021732D02*
X053260Y021732D01*
X053272Y021732D02*
X055700Y021732D01*
X055700Y021891D02*
X053320Y021891D01*
X053318Y021890D02*
X053407Y021914D01*
X053492Y021949D01*
X053573Y021996D01*
X053646Y022052D01*
X053711Y022117D01*
X053767Y022190D01*
X053814Y022271D01*
X053849Y022356D01*
X053873Y022445D01*
X053881Y022503D01*
X053260Y022503D01*
X053260Y022663D01*
X053100Y022663D01*
X053100Y023288D01*
X052084Y023288D01*
X051992Y023276D01*
X051903Y023252D01*
X051818Y023217D01*
X051737Y023170D01*
X051664Y023114D01*
X051599Y023049D01*
X051543Y022976D01*
X051496Y022895D01*
X051461Y022810D01*
X051437Y022721D01*
X051429Y022663D01*
X053100Y022663D01*
X053100Y022503D01*
X051429Y022503D01*
X051437Y022445D01*
X051461Y022356D01*
X051496Y022271D01*
X051543Y022190D01*
X051599Y022117D01*
X051664Y022052D01*
X051737Y021996D01*
X051818Y021949D01*
X051903Y021914D01*
X051992Y021890D01*
X052084Y021878D01*
X053100Y021878D01*
X053100Y022503D01*
X053260Y022503D01*
X053260Y021882D01*
X053318Y021890D01*
X053260Y021891D02*
X053100Y021891D01*
X053100Y022049D02*
X053260Y022049D01*
X053260Y022208D02*
X053100Y022208D01*
X053100Y022366D02*
X053260Y022366D01*
X053260Y022525D02*
X055700Y022525D01*
X055700Y022683D02*
X053878Y022683D01*
X053881Y022663D02*
X053873Y022721D01*
X053849Y022810D01*
X053814Y022895D01*
X053767Y022976D01*
X053711Y023049D01*
X053646Y023114D01*
X053573Y023170D01*
X053492Y023217D01*
X053407Y023252D01*
X053318Y023276D01*
X053260Y023284D01*
X053260Y022663D01*
X053881Y022663D01*
X053836Y022842D02*
X055700Y022842D01*
X055700Y023000D02*
X053749Y023000D01*
X053588Y023159D02*
X055700Y023159D01*
X055700Y023317D02*
X049790Y023317D01*
X049790Y023159D02*
X051722Y023159D01*
X051561Y023000D02*
X049790Y023000D01*
X049790Y022842D02*
X051474Y022842D01*
X051432Y022683D02*
X049790Y022683D01*
X049790Y022525D02*
X053100Y022525D01*
X053100Y022683D02*
X053260Y022683D01*
X053260Y022842D02*
X053100Y022842D01*
X053100Y023000D02*
X053260Y023000D01*
X053260Y023159D02*
X053100Y023159D01*
X053852Y022366D02*
X055700Y022366D01*
X055700Y022208D02*
X053777Y022208D01*
X053642Y022049D02*
X055700Y022049D01*
X055700Y023476D02*
X049790Y023476D01*
X049790Y023634D02*
X055700Y023634D01*
X055700Y023793D02*
X049790Y023793D01*
X049790Y023951D02*
X055700Y023951D01*
X055700Y024110D02*
X049790Y024110D01*
X049790Y024268D02*
X055700Y024268D01*
X055700Y024427D02*
X049790Y024427D01*
X049790Y024585D02*
X052030Y024585D01*
X051992Y024590D02*
X052084Y024578D01*
X053100Y024578D01*
X053100Y025203D01*
X051429Y025203D01*
X051437Y025145D01*
X051461Y025056D01*
X051496Y024971D01*
X051543Y024890D01*
X051599Y024817D01*
X051664Y024752D01*
X051737Y024696D01*
X051818Y024649D01*
X051903Y024614D01*
X051992Y024590D01*
X051675Y024744D02*
X049790Y024744D01*
X049790Y024902D02*
X051536Y024902D01*
X051460Y025061D02*
X049790Y025061D01*
X049790Y025219D02*
X053100Y025219D01*
X053100Y025203D02*
X053100Y025363D01*
X053100Y025988D01*
X052084Y025988D01*
X051992Y025976D01*
X051903Y025952D01*
X051818Y025917D01*
X051737Y025870D01*
X051664Y025814D01*
X051599Y025749D01*
X051543Y025676D01*
X051496Y025595D01*
X051461Y025510D01*
X051437Y025421D01*
X051429Y025363D01*
X053100Y025363D01*
X053260Y025363D01*
X053260Y025984D01*
X053318Y025976D01*
X053407Y025952D01*
X053492Y025917D01*
X053573Y025870D01*
X053646Y025814D01*
X053711Y025749D01*
X053767Y025676D01*
X053814Y025595D01*
X053849Y025510D01*
X053873Y025421D01*
X053881Y025363D01*
X053260Y025363D01*
X053260Y025203D01*
X053881Y025203D01*
X053873Y025145D01*
X053849Y025056D01*
X053814Y024971D01*
X053767Y024890D01*
X053711Y024817D01*
X053646Y024752D01*
X053573Y024696D01*
X053492Y024649D01*
X053407Y024614D01*
X053318Y024590D01*
X053260Y024582D01*
X053260Y025203D01*
X053100Y025203D01*
X053100Y025061D02*
X053260Y025061D01*
X053260Y025219D02*
X055700Y025219D01*
X055700Y025061D02*
X053850Y025061D01*
X053774Y024902D02*
X055700Y024902D01*
X055700Y024744D02*
X053635Y024744D01*
X053260Y024744D02*
X053100Y024744D01*
X053100Y024902D02*
X053260Y024902D01*
X053260Y024585D02*
X053100Y024585D01*
X053280Y024585D02*
X055700Y024585D01*
X055700Y025378D02*
X053879Y025378D01*
X053838Y025536D02*
X055700Y025536D01*
X055700Y025695D02*
X053753Y025695D01*
X053595Y025853D02*
X055700Y025853D01*
X055700Y026012D02*
X049790Y026012D01*
X049790Y026170D02*
X051888Y026170D01*
X051903Y026164D02*
X051992Y026140D01*
X052084Y026128D01*
X053100Y026128D01*
X053100Y026753D01*
X051429Y026753D01*
X051437Y026695D01*
X051461Y026606D01*
X051496Y026521D01*
X051543Y026440D01*
X051599Y026367D01*
X051664Y026302D01*
X051737Y026246D01*
X051818Y026199D01*
X051903Y026164D01*
X051637Y026329D02*
X049790Y026329D01*
X049790Y026487D02*
X051516Y026487D01*
X051450Y026646D02*
X049790Y026646D01*
X049790Y026804D02*
X053100Y026804D01*
X053100Y026753D02*
X053100Y026913D01*
X053100Y027538D01*
X052084Y027538D01*
X051992Y027526D01*
X051903Y027502D01*
X051818Y027467D01*
X051737Y027420D01*
X051664Y027364D01*
X051599Y027299D01*
X051543Y027226D01*
X051496Y027145D01*
X051461Y027060D01*
X051437Y026971D01*
X051429Y026913D01*
X053100Y026913D01*
X053260Y026913D01*
X053260Y027534D01*
X053318Y027526D01*
X053407Y027502D01*
X053492Y027467D01*
X053573Y027420D01*
X053646Y027364D01*
X053711Y027299D01*
X053767Y027226D01*
X053814Y027145D01*
X053849Y027060D01*
X053873Y026971D01*
X053881Y026913D01*
X053260Y026913D01*
X053260Y026753D01*
X053881Y026753D01*
X053873Y026695D01*
X053849Y026606D01*
X053814Y026521D01*
X053767Y026440D01*
X053711Y026367D01*
X053646Y026302D01*
X053573Y026246D01*
X053492Y026199D01*
X053407Y026164D01*
X053318Y026140D01*
X053260Y026132D01*
X053260Y026753D01*
X053100Y026753D01*
X053100Y026646D02*
X053260Y026646D01*
X053260Y026804D02*
X055700Y026804D01*
X055700Y026646D02*
X053860Y026646D01*
X053794Y026487D02*
X055700Y026487D01*
X055700Y026329D02*
X053673Y026329D01*
X053422Y026170D02*
X055700Y026170D01*
X055700Y026963D02*
X053874Y026963D01*
X053824Y027121D02*
X055700Y027121D01*
X055700Y027280D02*
X053726Y027280D01*
X053542Y027438D02*
X055700Y027438D01*
X055700Y027597D02*
X049790Y027597D01*
X049790Y027755D02*
X055700Y027755D01*
X055700Y027914D02*
X049790Y027914D01*
X049790Y028072D02*
X055700Y028072D01*
X055700Y028231D02*
X049790Y028231D01*
X049790Y028389D02*
X055700Y028389D01*
X055700Y028548D02*
X049790Y028548D01*
X049790Y028706D02*
X055700Y028706D01*
X055700Y028865D02*
X053408Y028865D01*
X053407Y028864D02*
X053492Y028899D01*
X053573Y028946D01*
X053646Y029002D01*
X053711Y029067D01*
X053767Y029140D01*
X053814Y029221D01*
X053849Y029306D01*
X053873Y029395D01*
X053881Y029453D01*
X053260Y029453D01*
X053260Y029613D01*
X053100Y029613D01*
X053100Y030238D01*
X052084Y030238D01*
X051992Y030226D01*
X051903Y030202D01*
X051818Y030167D01*
X051737Y030120D01*
X051664Y030064D01*
X051599Y029999D01*
X051543Y029926D01*
X051496Y029845D01*
X051461Y029760D01*
X051437Y029671D01*
X051429Y029613D01*
X053100Y029613D01*
X053100Y029453D01*
X051429Y029453D01*
X051437Y029395D01*
X051461Y029306D01*
X051496Y029221D01*
X051543Y029140D01*
X051599Y029067D01*
X051664Y029002D01*
X051737Y028946D01*
X051818Y028899D01*
X051903Y028864D01*
X051992Y028840D01*
X052084Y028828D01*
X053100Y028828D01*
X053100Y029453D01*
X053260Y029453D01*
X053260Y028832D01*
X053318Y028840D01*
X053407Y028864D01*
X053260Y028865D02*
X053100Y028865D01*
X053100Y029023D02*
X053260Y029023D01*
X053260Y029182D02*
X053100Y029182D01*
X053100Y029340D02*
X053260Y029340D01*
X053260Y029499D02*
X055700Y029499D01*
X055700Y029657D02*
X053875Y029657D01*
X053873Y029671D02*
X053849Y029760D01*
X053814Y029845D01*
X053767Y029926D01*
X053711Y029999D01*
X053646Y030064D01*
X053573Y030120D01*
X053492Y030167D01*
X053407Y030202D01*
X053318Y030226D01*
X053260Y030234D01*
X053260Y029613D01*
X053881Y029613D01*
X053873Y029671D01*
X053826Y029816D02*
X055700Y029816D01*
X055700Y029974D02*
X053730Y029974D01*
X053552Y030133D02*
X055700Y030133D01*
X055693Y030291D02*
X049561Y030291D01*
X049403Y030450D02*
X055664Y030450D01*
X055628Y030608D02*
X049244Y030608D01*
X049086Y030767D02*
X055566Y030767D01*
X055489Y030925D02*
X028088Y030925D01*
X028183Y031084D02*
X055378Y031084D01*
X055249Y031242D02*
X028235Y031242D01*
X028235Y031401D02*
X055051Y031401D01*
X054762Y031559D02*
X028195Y031559D01*
X027000Y031559D02*
X025045Y031559D01*
X025085Y031401D02*
X026960Y031401D01*
X026960Y031242D02*
X025085Y031242D01*
X025033Y031084D02*
X027012Y031084D01*
X027107Y030925D02*
X024938Y030925D01*
X024738Y030767D02*
X027307Y030767D01*
X027888Y030767D02*
X028774Y030767D01*
X028616Y030608D02*
X000982Y030608D01*
X000946Y030450D02*
X028457Y030450D01*
X028299Y030291D02*
X000917Y030291D01*
X000910Y030133D02*
X028140Y030133D01*
X027982Y029974D02*
X000910Y029974D01*
X000910Y029816D02*
X027823Y029816D01*
X027665Y029657D02*
X000910Y029657D01*
X000910Y029499D02*
X027506Y029499D01*
X027348Y029340D02*
X000910Y029340D01*
X000910Y029182D02*
X027189Y029182D01*
X027031Y029023D02*
X000910Y029023D01*
X000910Y028865D02*
X001737Y028865D01*
X001817Y028911D02*
X001573Y028770D01*
X001373Y028570D01*
X001232Y028326D01*
X001159Y028054D01*
X001159Y027772D01*
X001232Y027500D01*
X001373Y027256D01*
X001573Y027056D01*
X001817Y026915D01*
X002089Y026842D01*
X002371Y026842D01*
X002643Y026915D01*
X002887Y027056D01*
X003087Y027256D01*
X003228Y027500D01*
X003301Y027772D01*
X003301Y028054D01*
X003228Y028326D01*
X003087Y028570D01*
X002887Y028770D01*
X002643Y028911D01*
X002371Y028984D01*
X002089Y028984D01*
X001817Y028911D01*
X001509Y028706D02*
X000910Y028706D01*
X000910Y028548D02*
X001360Y028548D01*
X001269Y028389D02*
X000910Y028389D01*
X000910Y028231D02*
X001207Y028231D01*
X001164Y028072D02*
X000910Y028072D01*
X000910Y027914D02*
X001159Y027914D01*
X001164Y027755D02*
X000910Y027755D01*
X000910Y027597D02*
X001206Y027597D01*
X001268Y027438D02*
X000910Y027438D01*
X000910Y027280D02*
X001360Y027280D01*
X001508Y027121D02*
X000910Y027121D01*
X000910Y026963D02*
X001735Y026963D01*
X000910Y026804D02*
X006280Y026804D01*
X006438Y026646D02*
X003145Y026646D01*
X003137Y026653D02*
X002723Y026653D01*
X002430Y026360D01*
X002430Y025946D01*
X002723Y025653D01*
X003137Y025653D01*
X003430Y025946D01*
X003430Y026360D01*
X003137Y026653D01*
X003303Y026487D02*
X006597Y026487D01*
X006726Y026358D02*
X006108Y026976D01*
X006061Y026976D01*
X005844Y027066D01*
X005678Y027232D01*
X005644Y027313D01*
X005631Y027288D01*
X005582Y027221D01*
X005523Y027162D01*
X005456Y027112D01*
X005382Y027075D01*
X005302Y027049D01*
X005220Y027036D01*
X005198Y027036D01*
X005198Y027896D01*
X005158Y027896D01*
X004648Y027896D01*
X004648Y027524D01*
X004661Y027442D01*
X004687Y027362D01*
X004725Y027288D01*
X004774Y027221D01*
X004833Y027162D01*
X004900Y027112D01*
X004975Y027075D01*
X005054Y027049D01*
X005136Y027036D01*
X005158Y027036D01*
X005158Y027896D01*
X005158Y027936D01*
X005158Y028796D01*
X005136Y028796D01*
X005054Y028783D01*
X004975Y028757D01*
X004900Y028719D01*
X004833Y028670D01*
X004774Y028611D01*
X004725Y028544D01*
X004687Y028469D01*
X004661Y028390D01*
X004648Y028307D01*
X004648Y027936D01*
X005158Y027936D01*
X005198Y027936D01*
X005198Y028796D01*
X005220Y028796D01*
X005302Y028783D01*
X005382Y028757D01*
X005456Y028719D01*
X005523Y028670D01*
X005582Y028611D01*
X005631Y028544D01*
X005644Y028519D01*
X005678Y028600D01*
X005844Y028766D01*
X006061Y028856D01*
X006295Y028856D01*
X006512Y028766D01*
X006678Y028600D01*
X006844Y028766D01*
X007061Y028856D01*
X007295Y028856D01*
X007512Y028766D01*
X007678Y028600D01*
X007844Y028766D01*
X008061Y028856D01*
X008295Y028856D01*
X008512Y028766D01*
X008678Y028600D01*
X008712Y028519D01*
X008725Y028544D01*
X008774Y028611D01*
X008833Y028670D01*
X008900Y028719D01*
X008975Y028757D01*
X009054Y028783D01*
X009136Y028796D01*
X009158Y028796D01*
X009158Y027936D01*
X009198Y027936D01*
X009198Y028796D01*
X009220Y028796D01*
X009302Y028783D01*
X009382Y028757D01*
X009456Y028719D01*
X009523Y028670D01*
X009582Y028611D01*
X009631Y028544D01*
X009644Y028519D01*
X009678Y028600D01*
X009844Y028766D01*
X010061Y028856D01*
X010295Y028856D01*
X010512Y028766D01*
X010678Y028600D01*
X010844Y028766D01*
X011061Y028856D01*
X011295Y028856D01*
X011512Y028766D01*
X011678Y028600D01*
X011844Y028766D01*
X012061Y028856D01*
X012295Y028856D01*
X012512Y028766D01*
X012678Y028600D01*
X012844Y028766D01*
X013061Y028856D01*
X013295Y028856D01*
X013512Y028766D01*
X013678Y028600D01*
X013844Y028766D01*
X014061Y028856D01*
X014295Y028856D01*
X014512Y028766D01*
X014678Y028600D01*
X014844Y028766D01*
X015061Y028856D01*
X015295Y028856D01*
X015512Y028766D01*
X015678Y028600D01*
X015844Y028766D01*
X016061Y028856D01*
X016295Y028856D01*
X016512Y028766D01*
X016678Y028600D01*
X016844Y028766D01*
X017061Y028856D01*
X017295Y028856D01*
X017512Y028766D01*
X017678Y028600D01*
X017844Y028766D01*
X018061Y028856D01*
X018295Y028856D01*
X018512Y028766D01*
X018678Y028600D01*
X018844Y028766D01*
X019061Y028856D01*
X019295Y028856D01*
X019512Y028766D01*
X019678Y028600D01*
X019844Y028766D01*
X020061Y028856D01*
X020295Y028856D01*
X020512Y028766D01*
X020678Y028600D01*
X020768Y028383D01*
X020768Y027448D01*
X020678Y027232D01*
X020512Y027066D01*
X020295Y026976D01*
X020061Y026976D01*
X019844Y027066D01*
X019678Y027231D01*
X019512Y027066D01*
X019295Y026976D01*
X019250Y026976D01*
X018632Y026358D01*
X018500Y026303D01*
X006858Y026303D01*
X006726Y026358D01*
X006797Y026329D02*
X003430Y026329D01*
X003430Y026170D02*
X026320Y026170D01*
X026320Y026012D02*
X003430Y026012D01*
X003337Y025853D02*
X026320Y025853D01*
X026320Y025695D02*
X003179Y025695D01*
X003437Y025378D02*
X000910Y025378D01*
X000910Y025536D02*
X003596Y025536D01*
X003723Y025663D02*
X003430Y025370D01*
X003430Y024956D01*
X003723Y024663D01*
X004137Y024663D01*
X004430Y024956D01*
X004430Y025370D01*
X004137Y025663D01*
X003723Y025663D01*
X003430Y025219D02*
X000910Y025219D01*
X000910Y025061D02*
X003430Y025061D01*
X003484Y024902D02*
X000910Y024902D01*
X000910Y024744D02*
X003642Y024744D01*
X003299Y024427D02*
X021450Y024427D01*
X021387Y024585D02*
X003140Y024585D01*
X003112Y024613D02*
X002930Y024613D01*
X002930Y024173D01*
X002930Y024173D01*
X002930Y024613D01*
X002748Y024613D01*
X002490Y024355D01*
X002490Y024173D01*
X002930Y024173D01*
X003370Y024173D01*
X003370Y024355D01*
X003112Y024613D01*
X002930Y024585D02*
X002930Y024585D01*
X002930Y024427D02*
X002930Y024427D01*
X002930Y024268D02*
X002930Y024268D01*
X002930Y024173D02*
X002930Y024173D01*
X002930Y024173D01*
X003370Y024173D01*
X003370Y023991D01*
X003112Y023733D01*
X002930Y023733D01*
X002930Y024173D01*
X002490Y024173D01*
X002490Y023991D01*
X002748Y023733D01*
X002930Y023733D01*
X002930Y024173D01*
X002930Y024173D01*
X002930Y024110D02*
X002930Y024110D01*
X002930Y023951D02*
X002930Y023951D01*
X002930Y023793D02*
X002930Y023793D01*
X003172Y023793D02*
X025541Y023793D01*
X025383Y023951D02*
X003330Y023951D01*
X003370Y024110D02*
X025224Y024110D01*
X025066Y024268D02*
X021945Y024268D01*
X021665Y024268D02*
X003370Y024268D01*
X002720Y024585D02*
X000910Y024585D01*
X000910Y024427D02*
X002561Y024427D01*
X002490Y024268D02*
X000910Y024268D01*
X000910Y024110D02*
X002490Y024110D01*
X002530Y023951D02*
X000910Y023951D01*
X000910Y023793D02*
X002688Y023793D01*
X002547Y023253D02*
X002313Y023253D01*
X002096Y023163D01*
X001930Y022997D01*
X001840Y022780D01*
X001840Y022546D01*
X001930Y022329D01*
X002096Y022163D01*
X001930Y021997D01*
X001840Y021780D01*
X001840Y021546D01*
X001930Y021329D01*
X002096Y021163D01*
X001930Y020997D01*
X001840Y020780D01*
X001840Y020546D01*
X001930Y020329D01*
X002096Y020163D01*
X001930Y019997D01*
X001840Y019780D01*
X001840Y019546D01*
X001930Y019329D01*
X002096Y019163D01*
X001930Y018997D01*
X001840Y018780D01*
X001840Y018546D01*
X001930Y018329D01*
X002096Y018163D01*
X001930Y017997D01*
X001840Y017780D01*
X001840Y017546D01*
X001930Y017329D01*
X002096Y017163D01*
X001930Y016997D01*
X001840Y016780D01*
X001840Y016546D01*
X001930Y016329D01*
X002096Y016163D01*
X001930Y015997D01*
X001840Y015780D01*
X001840Y015546D01*
X001930Y015329D01*
X002096Y015163D01*
X001930Y014997D01*
X001840Y014780D01*
X001840Y014546D01*
X001930Y014329D01*
X002096Y014163D01*
X001930Y013997D01*
X001840Y013780D01*
X001840Y013546D01*
X001930Y013329D01*
X002096Y013163D01*
X001930Y012997D01*
X001840Y012780D01*
X001840Y012546D01*
X001930Y012329D01*
X002096Y012163D01*
X001930Y011997D01*
X001840Y011780D01*
X001840Y011546D01*
X001930Y011329D01*
X002096Y011163D01*
X001930Y010997D01*
X001840Y010780D01*
X001840Y010546D01*
X001930Y010329D01*
X002096Y010163D01*
X001930Y009997D01*
X001840Y009780D01*
X001840Y009546D01*
X001930Y009329D01*
X002096Y009163D01*
X001930Y008997D01*
X001840Y008780D01*
X001840Y008546D01*
X001930Y008329D01*
X002096Y008163D01*
X002313Y008073D01*
X002547Y008073D01*
X002764Y008163D01*
X002930Y008329D01*
X003096Y008163D01*
X003313Y008073D01*
X003547Y008073D01*
X003764Y008163D01*
X003930Y008329D01*
X004096Y008163D01*
X004313Y008073D01*
X004547Y008073D01*
X004764Y008163D01*
X004930Y008329D01*
X005096Y008163D01*
X005313Y008073D01*
X005547Y008073D01*
X005764Y008163D01*
X005930Y008329D01*
X006096Y008163D01*
X006313Y008073D01*
X006547Y008073D01*
X006764Y008163D01*
X006930Y008329D01*
X007096Y008163D01*
X007313Y008073D01*
X007547Y008073D01*
X007764Y008163D01*
X007930Y008329D01*
X008096Y008163D01*
X008313Y008073D01*
X008547Y008073D01*
X008764Y008163D01*
X008930Y008329D01*
X009096Y008163D01*
X009313Y008073D01*
X009547Y008073D01*
X009764Y008163D01*
X009930Y008329D01*
X010096Y008163D01*
X010313Y008073D01*
X010547Y008073D01*
X010764Y008163D01*
X010930Y008329D01*
X011096Y008163D01*
X011313Y008073D01*
X011547Y008073D01*
X011764Y008163D01*
X011930Y008329D01*
X012096Y008163D01*
X012313Y008073D01*
X012547Y008073D01*
X012764Y008163D01*
X012930Y008329D01*
X013096Y008163D01*
X013313Y008073D01*
X013547Y008073D01*
X013764Y008163D01*
X013930Y008329D01*
X014096Y008163D01*
X014313Y008073D01*
X014547Y008073D01*
X014764Y008163D01*
X014930Y008329D01*
X015096Y008163D01*
X015313Y008073D01*
X015547Y008073D01*
X015764Y008163D01*
X015930Y008329D01*
X016096Y008163D01*
X016313Y008073D01*
X016547Y008073D01*
X016764Y008163D01*
X016930Y008329D01*
X017096Y008163D01*
X017313Y008073D01*
X017547Y008073D01*
X017764Y008163D01*
X017930Y008329D01*
X018096Y008163D01*
X018313Y008073D01*
X018547Y008073D01*
X018764Y008163D01*
X018930Y008329D01*
X019096Y008163D01*
X019313Y008073D01*
X019547Y008073D01*
X019764Y008163D01*
X019930Y008329D01*
X020096Y008163D01*
X020313Y008073D01*
X020547Y008073D01*
X020764Y008163D01*
X020930Y008329D01*
X021096Y008163D01*
X021313Y008073D01*
X021547Y008073D01*
X021764Y008163D01*
X021930Y008329D01*
X022096Y008163D01*
X022313Y008073D01*
X022547Y008073D01*
X022764Y008163D01*
X022930Y008329D01*
X023096Y008163D01*
X023313Y008073D01*
X023547Y008073D01*
X023764Y008163D01*
X023930Y008329D01*
X024096Y008163D01*
X024313Y008073D01*
X024547Y008073D01*
X024764Y008163D01*
X024930Y008329D01*
X025096Y008163D01*
X025313Y008073D01*
X025547Y008073D01*
X025764Y008163D01*
X025930Y008329D01*
X026096Y008163D01*
X026313Y008073D01*
X026547Y008073D01*
X026764Y008163D01*
X026930Y008329D01*
X027096Y008163D01*
X027313Y008073D01*
X027547Y008073D01*
X027764Y008163D01*
X027930Y008329D01*
X028096Y008163D01*
X028313Y008073D01*
X028547Y008073D01*
X028764Y008163D01*
X028930Y008329D01*
X029096Y008163D01*
X029313Y008073D01*
X029547Y008073D01*
X029764Y008163D01*
X029930Y008329D01*
X030096Y008163D01*
X030313Y008073D01*
X030547Y008073D01*
X030764Y008163D01*
X030930Y008329D01*
X031096Y008163D01*
X031313Y008073D01*
X031547Y008073D01*
X031764Y008163D01*
X031930Y008329D01*
X032096Y008163D01*
X032313Y008073D01*
X032547Y008073D01*
X032764Y008163D01*
X032930Y008329D01*
X033096Y008163D01*
X033313Y008073D01*
X033547Y008073D01*
X033764Y008163D01*
X033930Y008329D01*
X034096Y008163D01*
X034313Y008073D01*
X034547Y008073D01*
X034764Y008163D01*
X034930Y008329D01*
X035096Y008163D01*
X035313Y008073D01*
X035547Y008073D01*
X035764Y008163D01*
X035930Y008329D01*
X036020Y008546D01*
X036020Y008780D01*
X035930Y008997D01*
X035764Y009163D01*
X035930Y009329D01*
X036020Y009546D01*
X036020Y009780D01*
X035930Y009997D01*
X035764Y010163D01*
X035930Y010329D01*
X036020Y010546D01*
X036020Y010780D01*
X035930Y010997D01*
X035764Y011163D01*
X035930Y011329D01*
X036020Y011546D01*
X036020Y011780D01*
X035930Y011997D01*
X035764Y012163D01*
X035930Y012329D01*
X036020Y012546D01*
X036020Y012780D01*
X035930Y012997D01*
X035764Y013163D01*
X035547Y013253D01*
X035313Y013253D01*
X035096Y013163D01*
X034930Y012997D01*
X034764Y013163D01*
X034547Y013253D01*
X034313Y013253D01*
X034096Y013163D01*
X033930Y012997D01*
X033764Y013163D01*
X033547Y013253D01*
X033313Y013253D01*
X033096Y013163D01*
X032930Y012997D01*
X032764Y013163D01*
X032547Y013253D01*
X032313Y013253D01*
X032096Y013163D01*
X031930Y012997D01*
X031764Y013163D01*
X031547Y013253D01*
X031313Y013253D01*
X031096Y013163D01*
X030930Y012997D01*
X030764Y013163D01*
X030547Y013253D01*
X030313Y013253D01*
X030096Y013163D01*
X029930Y012997D01*
X029764Y013163D01*
X029547Y013253D01*
X029313Y013253D01*
X029096Y013163D01*
X028930Y012997D01*
X028764Y013163D01*
X028547Y013253D01*
X028313Y013253D01*
X028096Y013163D01*
X027930Y012997D01*
X027764Y013163D01*
X027547Y013253D01*
X027313Y013253D01*
X027096Y013163D01*
X026930Y012997D01*
X026764Y013163D01*
X026547Y013253D01*
X026313Y013253D01*
X026096Y013163D01*
X025930Y012997D01*
X025764Y013163D01*
X025547Y013253D01*
X025313Y013253D01*
X025096Y013163D01*
X024930Y012997D01*
X024764Y013163D01*
X024930Y013329D01*
X025020Y013546D01*
X025020Y013780D01*
X024930Y013997D01*
X024764Y014163D01*
X024930Y014329D01*
X025020Y014546D01*
X025020Y014780D01*
X024930Y014997D01*
X024764Y015163D01*
X024930Y015329D01*
X025020Y015546D01*
X025020Y015780D01*
X024930Y015997D01*
X024764Y016163D01*
X024930Y016329D01*
X025020Y016546D01*
X025020Y016780D01*
X024930Y016997D01*
X024764Y017163D01*
X024930Y017329D01*
X025020Y017546D01*
X025020Y017780D01*
X024930Y017997D01*
X024764Y018163D01*
X024930Y018329D01*
X025020Y018546D01*
X025020Y018780D01*
X024930Y018997D01*
X024764Y019163D01*
X024930Y019329D01*
X025020Y019546D01*
X025020Y019780D01*
X024930Y019997D01*
X024764Y020163D01*
X024547Y020253D01*
X024313Y020253D01*
X024096Y020163D01*
X023930Y019997D01*
X023764Y020163D01*
X023547Y020253D01*
X023313Y020253D01*
X023096Y020163D01*
X022930Y019997D01*
X022764Y020163D01*
X022547Y020253D01*
X022313Y020253D01*
X022096Y020163D01*
X021930Y019997D01*
X021764Y020163D01*
X021547Y020253D01*
X021313Y020253D01*
X021096Y020163D01*
X020930Y019997D01*
X020764Y020163D01*
X020547Y020253D01*
X020313Y020253D01*
X020096Y020163D01*
X019930Y019997D01*
X019764Y020163D01*
X019547Y020253D01*
X019313Y020253D01*
X019096Y020163D01*
X018930Y019997D01*
X018764Y020163D01*
X018547Y020253D01*
X018313Y020253D01*
X018096Y020163D01*
X017930Y019997D01*
X017764Y020163D01*
X017547Y020253D01*
X017313Y020253D01*
X017096Y020163D01*
X016930Y019997D01*
X016764Y020163D01*
X016930Y020329D01*
X017020Y020546D01*
X017020Y020780D01*
X016930Y020997D01*
X016764Y021163D01*
X016930Y021329D01*
X017020Y021546D01*
X017020Y021780D01*
X016930Y021997D01*
X016764Y022163D01*
X016930Y022329D01*
X017020Y022546D01*
X017020Y022780D01*
X016930Y022997D01*
X016764Y023163D01*
X016547Y023253D01*
X016313Y023253D01*
X016096Y023163D01*
X015930Y022997D01*
X015764Y023163D01*
X015547Y023253D01*
X015313Y023253D01*
X015096Y023163D01*
X014930Y022997D01*
X014764Y023163D01*
X014547Y023253D01*
X014313Y023253D01*
X014096Y023163D01*
X013930Y022997D01*
X013764Y023163D01*
X013547Y023253D01*
X013313Y023253D01*
X013096Y023163D01*
X012930Y022997D01*
X012764Y023163D01*
X012547Y023253D01*
X012313Y023253D01*
X012096Y023163D01*
X011930Y022997D01*
X011764Y023163D01*
X011547Y023253D01*
X011313Y023253D01*
X011096Y023163D01*
X010930Y022997D01*
X010764Y023163D01*
X010547Y023253D01*
X010313Y023253D01*
X010096Y023163D01*
X009930Y022997D01*
X009764Y023163D01*
X009547Y023253D01*
X009313Y023253D01*
X009096Y023163D01*
X008930Y022997D01*
X008764Y023163D01*
X008547Y023253D01*
X008313Y023253D01*
X008096Y023163D01*
X007930Y022997D01*
X007764Y023163D01*
X007547Y023253D01*
X007313Y023253D01*
X007096Y023163D01*
X006930Y022997D01*
X006764Y023163D01*
X006547Y023253D01*
X006313Y023253D01*
X006096Y023163D01*
X005930Y022997D01*
X005764Y023163D01*
X005547Y023253D01*
X005313Y023253D01*
X005096Y023163D01*
X004930Y022997D01*
X004764Y023163D01*
X004547Y023253D01*
X004313Y023253D01*
X004096Y023163D01*
X003930Y022997D01*
X003764Y023163D01*
X003547Y023253D01*
X003313Y023253D01*
X003096Y023163D01*
X002930Y022997D01*
X002764Y023163D01*
X002547Y023253D01*
X002769Y023159D02*
X003091Y023159D01*
X002933Y023000D02*
X002927Y023000D01*
X002091Y023159D02*
X000910Y023159D01*
X000910Y023317D02*
X026017Y023317D01*
X026175Y023159D02*
X016769Y023159D01*
X016927Y023000D02*
X026334Y023000D01*
X026492Y022842D02*
X016995Y022842D01*
X017020Y022683D02*
X026651Y022683D01*
X026809Y022525D02*
X017011Y022525D01*
X016946Y022366D02*
X026968Y022366D01*
X027126Y022208D02*
X016809Y022208D01*
X016878Y022049D02*
X027285Y022049D01*
X027443Y021891D02*
X016974Y021891D01*
X017020Y021732D02*
X027602Y021732D01*
X027760Y021574D02*
X017020Y021574D01*
X016966Y021415D02*
X027820Y021415D01*
X027820Y021257D02*
X016858Y021257D01*
X016829Y021098D02*
X027820Y021098D01*
X027820Y020940D02*
X016954Y020940D01*
X017020Y020781D02*
X027820Y020781D01*
X027820Y020623D02*
X017020Y020623D01*
X016986Y020464D02*
X027820Y020464D01*
X027820Y020306D02*
X016907Y020306D01*
X016780Y020147D02*
X017080Y020147D01*
X017780Y020147D02*
X018080Y020147D01*
X018780Y020147D02*
X019080Y020147D01*
X019780Y020147D02*
X020080Y020147D01*
X020780Y020147D02*
X021080Y020147D01*
X021780Y020147D02*
X022080Y020147D01*
X022780Y020147D02*
X023080Y020147D01*
X023780Y020147D02*
X024080Y020147D01*
X024780Y020147D02*
X027820Y020147D01*
X027820Y019989D02*
X024934Y019989D01*
X024999Y019830D02*
X027820Y019830D01*
X027820Y019672D02*
X025020Y019672D01*
X025006Y019513D02*
X027820Y019513D01*
X027820Y019355D02*
X024941Y019355D01*
X024797Y019196D02*
X027820Y019196D01*
X027820Y019038D02*
X024890Y019038D01*
X024979Y018879D02*
X027820Y018879D01*
X027820Y018721D02*
X025020Y018721D01*
X025020Y018562D02*
X027820Y018562D01*
X027820Y018404D02*
X024961Y018404D01*
X024846Y018245D02*
X027820Y018245D01*
X027820Y018087D02*
X024841Y018087D01*
X024959Y017928D02*
X027820Y017928D01*
X027820Y017770D02*
X025020Y017770D01*
X025020Y017611D02*
X027820Y017611D01*
X027820Y017453D02*
X024981Y017453D01*
X024895Y017294D02*
X027820Y017294D01*
X027820Y017136D02*
X024792Y017136D01*
X024939Y016977D02*
X027867Y016977D01*
X028015Y016819D02*
X025004Y016819D01*
X025020Y016660D02*
X028174Y016660D01*
X028332Y016502D02*
X025002Y016502D01*
X024936Y016343D02*
X028491Y016343D01*
X028649Y016185D02*
X024786Y016185D01*
X024901Y016026D02*
X028808Y016026D01*
X028966Y015868D02*
X024984Y015868D01*
X025020Y015709D02*
X033875Y015709D01*
X034033Y015551D02*
X025020Y015551D01*
X024956Y015392D02*
X034192Y015392D01*
X034350Y015234D02*
X024835Y015234D01*
X024852Y015075D02*
X034509Y015075D01*
X034667Y014917D02*
X024964Y014917D01*
X025020Y014758D02*
X041076Y014758D01*
X041234Y014600D02*
X025020Y014600D01*
X024977Y014441D02*
X041320Y014441D01*
X041320Y014283D02*
X024884Y014283D01*
X024803Y014124D02*
X041320Y014124D01*
X041320Y013966D02*
X024943Y013966D01*
X025009Y013807D02*
X041320Y013807D01*
X041320Y013649D02*
X025020Y013649D01*
X024997Y013490D02*
X041320Y013490D01*
X041320Y013332D02*
X024931Y013332D01*
X024774Y013173D02*
X025120Y013173D01*
X024947Y013015D02*
X024913Y013015D01*
X025740Y013173D02*
X026120Y013173D01*
X025947Y013015D02*
X025913Y013015D01*
X026740Y013173D02*
X027120Y013173D01*
X026947Y013015D02*
X026913Y013015D01*
X027740Y013173D02*
X028120Y013173D01*
X027947Y013015D02*
X027913Y013015D01*
X028740Y013173D02*
X029120Y013173D01*
X028947Y013015D02*
X028913Y013015D01*
X029740Y013173D02*
X030120Y013173D01*
X029947Y013015D02*
X029913Y013015D01*
X030740Y013173D02*
X031120Y013173D01*
X030947Y013015D02*
X030913Y013015D01*
X031740Y013173D02*
X032120Y013173D01*
X031947Y013015D02*
X031913Y013015D01*
X032740Y013173D02*
X033120Y013173D01*
X032947Y013015D02*
X032913Y013015D01*
X033740Y013173D02*
X034120Y013173D01*
X033947Y013015D02*
X033913Y013015D01*
X034740Y013173D02*
X035120Y013173D01*
X034947Y013015D02*
X034913Y013015D01*
X035740Y013173D02*
X041320Y013173D01*
X041320Y013015D02*
X035913Y013015D01*
X035989Y012856D02*
X041320Y012856D01*
X041320Y012698D02*
X036020Y012698D01*
X036017Y012539D02*
X041320Y012539D01*
X041320Y012381D02*
X035952Y012381D01*
X035823Y012222D02*
X041320Y012222D01*
X041320Y012064D02*
X035864Y012064D01*
X035968Y011905D02*
X041320Y011905D01*
X041320Y011747D02*
X036020Y011747D01*
X036020Y011588D02*
X041320Y011588D01*
X041320Y011430D02*
X035972Y011430D01*
X035872Y011271D02*
X041320Y011271D01*
X041320Y011113D02*
X035815Y011113D01*
X035948Y010954D02*
X041320Y010954D01*
X041320Y010796D02*
X036014Y010796D01*
X036020Y010637D02*
X041320Y010637D01*
X041320Y010479D02*
X035992Y010479D01*
X035921Y010320D02*
X041320Y010320D01*
X041320Y010162D02*
X035766Y010162D01*
X035924Y010003D02*
X041320Y010003D01*
X041320Y009845D02*
X035993Y009845D01*
X036020Y009686D02*
X041320Y009686D01*
X041320Y009528D02*
X036012Y009528D01*
X035947Y009369D02*
X041320Y009369D01*
X041320Y009211D02*
X035812Y009211D01*
X035875Y009052D02*
X041336Y009052D01*
X041440Y008894D02*
X035973Y008894D01*
X036020Y008735D02*
X041599Y008735D01*
X041757Y008576D02*
X036020Y008576D01*
X035967Y008418D02*
X041916Y008418D01*
X042074Y008259D02*
X035861Y008259D01*
X035615Y008101D02*
X042233Y008101D01*
X042391Y007942D02*
X000910Y007942D01*
X000910Y007784D02*
X042550Y007784D01*
X042708Y007625D02*
X000910Y007625D01*
X000910Y008101D02*
X002245Y008101D01*
X001999Y008259D02*
X000910Y008259D01*
X000910Y008418D02*
X001893Y008418D01*
X001840Y008576D02*
X000910Y008576D01*
X000910Y008735D02*
X001840Y008735D01*
X001887Y008894D02*
X000910Y008894D01*
X000910Y009052D02*
X001985Y009052D01*
X002048Y009211D02*
X000910Y009211D01*
X000910Y009369D02*
X001913Y009369D01*
X001848Y009528D02*
X000910Y009528D01*
X000910Y009686D02*
X001840Y009686D01*
X001867Y009845D02*
X000910Y009845D01*
X000910Y010003D02*
X001936Y010003D01*
X002094Y010162D02*
X000910Y010162D01*
X000910Y010320D02*
X001939Y010320D01*
X001868Y010479D02*
X000910Y010479D01*
X000910Y010637D02*
X001840Y010637D01*
X001846Y010796D02*
X000910Y010796D01*
X000910Y010954D02*
X001912Y010954D01*
X002045Y011113D02*
X000910Y011113D01*
X000910Y011271D02*
X001988Y011271D01*
X001888Y011430D02*
X000910Y011430D01*
X000910Y011588D02*
X001840Y011588D01*
X001840Y011747D02*
X000910Y011747D01*
X000910Y011905D02*
X001892Y011905D01*
X001996Y012064D02*
X000910Y012064D01*
X000910Y012222D02*
X002037Y012222D01*
X001908Y012381D02*
X000910Y012381D01*
X000910Y012539D02*
X001843Y012539D01*
X001840Y012698D02*
X000910Y012698D01*
X000910Y012856D02*
X001871Y012856D01*
X001947Y013015D02*
X000910Y013015D01*
X000910Y013173D02*
X002086Y013173D01*
X001929Y013332D02*
X000910Y013332D01*
X000910Y013490D02*
X001863Y013490D01*
X001840Y013649D02*
X000910Y013649D01*
X000910Y013807D02*
X001851Y013807D01*
X001917Y013966D02*
X000910Y013966D01*
X000910Y014124D02*
X002057Y014124D01*
X001976Y014283D02*
X000910Y014283D01*
X000910Y014441D02*
X001883Y014441D01*
X001840Y014600D02*
X000910Y014600D01*
X000910Y014758D02*
X001840Y014758D01*
X001896Y014917D02*
X000910Y014917D01*
X000910Y015075D02*
X002008Y015075D01*
X002025Y015234D02*
X000910Y015234D01*
X000910Y015392D02*
X001904Y015392D01*
X001840Y015551D02*
X000910Y015551D01*
X000910Y015709D02*
X001840Y015709D01*
X001876Y015868D02*
X000910Y015868D01*
X000910Y016026D02*
X001959Y016026D01*
X002074Y016185D02*
X000910Y016185D01*
X000910Y016343D02*
X001924Y016343D01*
X001858Y016502D02*
X000910Y016502D01*
X000910Y016660D02*
X001840Y016660D01*
X001856Y016819D02*
X000910Y016819D01*
X000910Y016977D02*
X001921Y016977D01*
X002068Y017136D02*
X000910Y017136D01*
X000910Y017294D02*
X001965Y017294D01*
X001879Y017453D02*
X000910Y017453D01*
X000910Y017611D02*
X001840Y017611D01*
X001840Y017770D02*
X000910Y017770D01*
X000910Y017928D02*
X001901Y017928D01*
X002019Y018087D02*
X000910Y018087D01*
X000910Y018245D02*
X002014Y018245D01*
X001899Y018404D02*
X000910Y018404D01*
X000910Y018562D02*
X001840Y018562D01*
X001840Y018721D02*
X000910Y018721D01*
X000910Y018879D02*
X001881Y018879D01*
X001970Y019038D02*
X000910Y019038D01*
X000910Y019196D02*
X002063Y019196D01*
X001919Y019355D02*
X000910Y019355D01*
X000910Y019513D02*
X001854Y019513D01*
X001840Y019672D02*
X000910Y019672D01*
X000910Y019830D02*
X001861Y019830D01*
X001926Y019989D02*
X000910Y019989D01*
X000910Y020147D02*
X002080Y020147D01*
X001953Y020306D02*
X000910Y020306D01*
X000910Y020464D02*
X001874Y020464D01*
X001840Y020623D02*
X000910Y020623D01*
X000910Y020781D02*
X001840Y020781D01*
X001906Y020940D02*
X000910Y020940D01*
X000910Y021098D02*
X002031Y021098D01*
X002002Y021257D02*
X000910Y021257D01*
X000910Y021415D02*
X001894Y021415D01*
X001840Y021574D02*
X000910Y021574D01*
X000910Y021732D02*
X001840Y021732D01*
X001886Y021891D02*
X000910Y021891D01*
X000910Y022049D02*
X001982Y022049D01*
X002051Y022208D02*
X000910Y022208D01*
X000910Y022366D02*
X001914Y022366D01*
X001849Y022525D02*
X000910Y022525D01*
X000910Y022683D02*
X001840Y022683D01*
X001865Y022842D02*
X000910Y022842D01*
X000910Y023000D02*
X001933Y023000D01*
X000910Y023476D02*
X025858Y023476D01*
X025700Y023634D02*
X000910Y023634D01*
X003769Y023159D02*
X004091Y023159D01*
X003933Y023000D02*
X003927Y023000D01*
X004769Y023159D02*
X005091Y023159D01*
X004933Y023000D02*
X004927Y023000D01*
X005769Y023159D02*
X006091Y023159D01*
X005933Y023000D02*
X005927Y023000D01*
X006769Y023159D02*
X007091Y023159D01*
X006933Y023000D02*
X006927Y023000D01*
X007769Y023159D02*
X008091Y023159D01*
X007933Y023000D02*
X007927Y023000D01*
X008769Y023159D02*
X009091Y023159D01*
X008933Y023000D02*
X008927Y023000D01*
X009769Y023159D02*
X010091Y023159D01*
X009933Y023000D02*
X009927Y023000D01*
X010769Y023159D02*
X011091Y023159D01*
X010933Y023000D02*
X010927Y023000D01*
X011769Y023159D02*
X012091Y023159D01*
X011933Y023000D02*
X011927Y023000D01*
X012769Y023159D02*
X013091Y023159D01*
X012933Y023000D02*
X012927Y023000D01*
X013769Y023159D02*
X014091Y023159D01*
X013933Y023000D02*
X013927Y023000D01*
X014769Y023159D02*
X015091Y023159D01*
X014933Y023000D02*
X014927Y023000D01*
X015769Y023159D02*
X016091Y023159D01*
X015933Y023000D02*
X015927Y023000D01*
X021387Y024744D02*
X004218Y024744D01*
X004376Y024902D02*
X021452Y024902D01*
X021671Y025061D02*
X004430Y025061D01*
X004430Y025219D02*
X026320Y025219D01*
X026320Y025061D02*
X021939Y025061D01*
X019078Y026804D02*
X026320Y026804D01*
X026320Y026646D02*
X018920Y026646D01*
X018761Y026487D02*
X026320Y026487D01*
X026320Y026329D02*
X018561Y026329D01*
X019237Y026963D02*
X026320Y026963D01*
X026379Y027121D02*
X020568Y027121D01*
X020698Y027280D02*
X026537Y027280D01*
X026696Y027438D02*
X020764Y027438D01*
X020768Y027597D02*
X026854Y027597D01*
X027013Y027755D02*
X020768Y027755D01*
X020768Y027914D02*
X027171Y027914D01*
X027330Y028072D02*
X020768Y028072D01*
X020768Y028231D02*
X026922Y028231D01*
X026754Y028389D02*
X020766Y028389D01*
X020700Y028548D02*
X026701Y028548D01*
X026709Y028706D02*
X020572Y028706D01*
X019784Y028706D02*
X019572Y028706D01*
X018784Y028706D02*
X018572Y028706D01*
X017784Y028706D02*
X017572Y028706D01*
X016784Y028706D02*
X016572Y028706D01*
X015784Y028706D02*
X015572Y028706D01*
X014784Y028706D02*
X014572Y028706D01*
X013784Y028706D02*
X013572Y028706D01*
X012784Y028706D02*
X012572Y028706D01*
X011784Y028706D02*
X011572Y028706D01*
X010784Y028706D02*
X010572Y028706D01*
X009784Y028706D02*
X009474Y028706D01*
X009628Y028548D02*
X009656Y028548D01*
X009198Y028548D02*
X009158Y028548D01*
X009158Y028706D02*
X009198Y028706D01*
X008882Y028706D02*
X008572Y028706D01*
X008700Y028548D02*
X008728Y028548D01*
X009158Y028389D02*
X009198Y028389D01*
X009198Y028231D02*
X009158Y028231D01*
X009158Y028072D02*
X009198Y028072D01*
X009198Y027896D02*
X009198Y027036D01*
X009220Y027036D01*
X009302Y027049D01*
X009382Y027075D01*
X009456Y027112D01*
X009523Y027162D01*
X009582Y027221D01*
X009631Y027288D01*
X009644Y027313D01*
X009678Y027232D01*
X009844Y027066D01*
X009947Y027023D01*
X008409Y027023D01*
X008512Y027066D01*
X008678Y027232D01*
X008712Y027313D01*
X008725Y027288D01*
X008774Y027221D01*
X008833Y027162D01*
X008900Y027112D01*
X008975Y027075D01*
X009054Y027049D01*
X009136Y027036D01*
X009158Y027036D01*
X009158Y027896D01*
X009198Y027896D01*
X009198Y027755D02*
X009158Y027755D01*
X009158Y027597D02*
X009198Y027597D01*
X009198Y027438D02*
X009158Y027438D01*
X009158Y027280D02*
X009198Y027280D01*
X009198Y027121D02*
X009158Y027121D01*
X008889Y027121D02*
X008568Y027121D01*
X008698Y027280D02*
X008731Y027280D01*
X009468Y027121D02*
X009788Y027121D01*
X009658Y027280D02*
X009625Y027280D01*
X007784Y028706D02*
X007572Y028706D01*
X006784Y028706D02*
X006572Y028706D01*
X005784Y028706D02*
X005474Y028706D01*
X005628Y028548D02*
X005656Y028548D01*
X005198Y028548D02*
X005158Y028548D01*
X005158Y028706D02*
X005198Y028706D01*
X004882Y028706D02*
X002951Y028706D01*
X003100Y028548D02*
X004728Y028548D01*
X004661Y028389D02*
X003191Y028389D01*
X003253Y028231D02*
X004648Y028231D01*
X004648Y028072D02*
X003296Y028072D01*
X003301Y027914D02*
X005158Y027914D01*
X005158Y028072D02*
X005198Y028072D01*
X005198Y028231D02*
X005158Y028231D01*
X005158Y028389D02*
X005198Y028389D01*
X005198Y027755D02*
X005158Y027755D01*
X005158Y027597D02*
X005198Y027597D01*
X005198Y027438D02*
X005158Y027438D01*
X005158Y027280D02*
X005198Y027280D01*
X005198Y027121D02*
X005158Y027121D01*
X004889Y027121D02*
X002952Y027121D01*
X003100Y027280D02*
X004731Y027280D01*
X004662Y027438D02*
X003192Y027438D01*
X003254Y027597D02*
X004648Y027597D01*
X004648Y027755D02*
X003296Y027755D01*
X002725Y026963D02*
X006121Y026963D01*
X005788Y027121D02*
X005468Y027121D01*
X005625Y027280D02*
X005658Y027280D01*
X004264Y025536D02*
X026320Y025536D01*
X026320Y025378D02*
X004423Y025378D01*
X002681Y025695D02*
X000910Y025695D01*
X000910Y025853D02*
X002523Y025853D01*
X002430Y026012D02*
X000910Y026012D01*
X000910Y026170D02*
X002430Y026170D01*
X002430Y026329D02*
X000910Y026329D01*
X000910Y026487D02*
X002557Y026487D01*
X002715Y026646D02*
X000910Y026646D01*
X002723Y028865D02*
X026790Y028865D01*
X027574Y028548D02*
X027805Y028548D01*
X027732Y028706D02*
X027964Y028706D01*
X027891Y028865D02*
X028122Y028865D01*
X028125Y028867D02*
X028226Y028968D01*
X028358Y029023D01*
X029456Y029023D01*
X029904Y029023D02*
X031281Y029023D01*
X031439Y029182D02*
X028208Y029182D01*
X028366Y029340D02*
X031598Y029340D01*
X031756Y029499D02*
X028525Y029499D01*
X028683Y029657D02*
X031915Y029657D01*
X032073Y029816D02*
X028842Y029816D01*
X029000Y029974D02*
X032232Y029974D01*
X032390Y030133D02*
X029159Y030133D01*
X030049Y028865D02*
X031122Y028865D01*
X030964Y028706D02*
X030098Y028706D01*
X030085Y028548D02*
X030765Y028548D01*
X030571Y028389D02*
X029998Y028389D01*
X029786Y028072D02*
X030515Y028072D01*
X030512Y028231D02*
X028507Y028231D01*
X028348Y028072D02*
X029574Y028072D01*
X029339Y027914D02*
X028190Y027914D01*
X028031Y027755D02*
X029265Y027755D01*
X029262Y027597D02*
X027873Y027597D01*
X027714Y027438D02*
X029320Y027438D01*
X029512Y027280D02*
X027556Y027280D01*
X027397Y027121D02*
X029713Y027121D01*
X029871Y026963D02*
X027239Y026963D01*
X027080Y026804D02*
X030106Y026804D01*
X031075Y025900D02*
X031017Y025759D01*
X030281Y025023D01*
X029904Y025023D01*
X029763Y025081D01*
X029597Y025081D01*
X029443Y025018D01*
X029325Y024900D01*
X029262Y024746D01*
X029262Y024580D01*
X029325Y024426D01*
X029443Y024308D01*
X029597Y024245D01*
X029763Y024245D01*
X029904Y024303D01*
X030358Y024303D01*
X030502Y024303D01*
X030634Y024358D01*
X031526Y025250D01*
X031667Y025308D01*
X031785Y025426D01*
X031843Y025567D01*
X032329Y026053D01*
X035956Y026053D01*
X036084Y026000D01*
X038726Y023358D01*
X038858Y023303D01*
X041127Y023303D01*
X041259Y023358D01*
X041360Y023459D01*
X043026Y025125D01*
X043167Y025183D01*
X043285Y025301D01*
X043348Y025455D01*
X043348Y025621D01*
X043285Y025775D01*
X043167Y025893D01*
X043013Y025956D01*
X042847Y025956D01*
X042693Y025893D01*
X042575Y025775D01*
X042517Y025634D01*
X040906Y024023D01*
X039079Y024023D01*
X036593Y026509D01*
X036535Y026650D01*
X036417Y026768D01*
X036263Y026831D01*
X036097Y026831D01*
X035956Y026773D01*
X032108Y026773D01*
X031976Y026718D01*
X031334Y026076D01*
X031193Y026018D01*
X031075Y025900D01*
X031056Y025853D02*
X027040Y025853D01*
X027040Y025695D02*
X030952Y025695D01*
X030794Y025536D02*
X027040Y025536D01*
X027040Y025378D02*
X030635Y025378D01*
X030477Y025219D02*
X027040Y025219D01*
X027042Y025061D02*
X029546Y025061D01*
X029814Y025061D02*
X030318Y025061D01*
X030861Y024585D02*
X037499Y024585D01*
X037657Y024427D02*
X030703Y024427D01*
X031020Y024744D02*
X037340Y024744D01*
X037182Y024902D02*
X031178Y024902D01*
X031337Y025061D02*
X037023Y025061D01*
X036865Y025219D02*
X031495Y025219D01*
X031736Y025378D02*
X036706Y025378D01*
X036548Y025536D02*
X031830Y025536D01*
X031971Y025695D02*
X036389Y025695D01*
X036231Y025853D02*
X032129Y025853D01*
X032288Y026012D02*
X036056Y026012D01*
X036774Y026329D02*
X040320Y026329D01*
X040320Y026487D02*
X036615Y026487D01*
X036537Y026646D02*
X040320Y026646D01*
X040320Y026804D02*
X036329Y026804D01*
X036031Y026804D02*
X035754Y026804D01*
X035989Y026963D02*
X038345Y026963D01*
X038118Y027121D02*
X036147Y027121D01*
X036306Y027280D02*
X037970Y027280D01*
X037878Y027438D02*
X036464Y027438D01*
X036623Y027597D02*
X037816Y027597D01*
X037774Y027755D02*
X036781Y027755D01*
X036940Y027914D02*
X037769Y027914D01*
X037774Y028072D02*
X037098Y028072D01*
X037257Y028231D02*
X037817Y028231D01*
X037879Y028389D02*
X037415Y028389D01*
X037574Y028548D02*
X037970Y028548D01*
X038119Y028706D02*
X037732Y028706D01*
X036665Y029657D02*
X035639Y029657D01*
X035924Y029816D02*
X036823Y029816D01*
X036982Y029974D02*
X036055Y029974D01*
X036098Y030133D02*
X037140Y030133D01*
X036506Y029499D02*
X035936Y029499D01*
X036060Y029340D02*
X036348Y029340D01*
X036189Y029182D02*
X036098Y029182D01*
X035680Y029163D02*
X034680Y030163D01*
X032930Y030163D01*
X035586Y030767D02*
X044774Y030767D01*
X044616Y030608D02*
X035744Y030608D01*
X035985Y030450D02*
X044457Y030450D01*
X044299Y030291D02*
X036080Y030291D01*
X039561Y028706D02*
X040128Y028706D01*
X040286Y028548D02*
X039710Y028548D01*
X039801Y028389D02*
X040320Y028389D01*
X040320Y028231D02*
X039863Y028231D01*
X039906Y028072D02*
X040320Y028072D01*
X040320Y027914D02*
X039911Y027914D01*
X039906Y027755D02*
X040320Y027755D01*
X040320Y027597D02*
X039864Y027597D01*
X039802Y027438D02*
X040320Y027438D01*
X040320Y027280D02*
X039710Y027280D01*
X039562Y027121D02*
X040320Y027121D01*
X040320Y026963D02*
X039335Y026963D01*
X040320Y026170D02*
X036932Y026170D01*
X037091Y026012D02*
X040320Y026012D01*
X040320Y025853D02*
X037249Y025853D01*
X037408Y025695D02*
X040320Y025695D01*
X040320Y025536D02*
X037566Y025536D01*
X037725Y025378D02*
X040320Y025378D01*
X040320Y025219D02*
X037883Y025219D01*
X038042Y025061D02*
X040320Y025061D01*
X040320Y024902D02*
X038200Y024902D01*
X038359Y024744D02*
X040262Y024744D01*
X040262Y024585D02*
X038517Y024585D01*
X038676Y024427D02*
X040325Y024427D01*
X040540Y024268D02*
X038834Y024268D01*
X038993Y024110D02*
X040992Y024110D01*
X041151Y024268D02*
X040820Y024268D01*
X041035Y024427D02*
X041309Y024427D01*
X041468Y024585D02*
X041098Y024585D01*
X041098Y024744D02*
X041626Y024744D01*
X041785Y024902D02*
X041040Y024902D01*
X041040Y025061D02*
X041943Y025061D01*
X042102Y025219D02*
X041040Y025219D01*
X041040Y025378D02*
X042260Y025378D01*
X042419Y025536D02*
X041040Y025536D01*
X041040Y025695D02*
X042542Y025695D01*
X042653Y025853D02*
X041040Y025853D01*
X041040Y026012D02*
X049070Y026012D01*
X049070Y026170D02*
X041040Y026170D01*
X041040Y026329D02*
X049070Y026329D01*
X049070Y026487D02*
X041040Y026487D01*
X041040Y026646D02*
X049070Y026646D01*
X049070Y026804D02*
X041040Y026804D01*
X041040Y026963D02*
X049070Y026963D01*
X049070Y027121D02*
X041040Y027121D01*
X041040Y027280D02*
X049070Y027280D01*
X049070Y027438D02*
X041040Y027438D01*
X041040Y027597D02*
X049070Y027597D01*
X049070Y027755D02*
X048629Y027755D01*
X048787Y027914D02*
X049070Y027914D01*
X049070Y028072D02*
X048877Y028072D01*
X048943Y028231D02*
X049070Y028231D01*
X049070Y028389D02*
X048945Y028389D01*
X048945Y028548D02*
X049070Y028548D01*
X049070Y028706D02*
X048945Y028706D01*
X048945Y028865D02*
X049070Y028865D01*
X049070Y029023D02*
X048945Y029023D01*
X048945Y029182D02*
X049070Y029182D01*
X049070Y029340D02*
X048945Y029340D01*
X048945Y029499D02*
X049070Y029499D01*
X049070Y029657D02*
X048917Y029657D01*
X048852Y029816D02*
X049018Y029816D01*
X048860Y029974D02*
X048726Y029974D01*
X048701Y030133D02*
X048502Y030133D01*
X047858Y030133D02*
X046002Y030133D01*
X046226Y029974D02*
X047634Y029974D01*
X047508Y029816D02*
X046352Y029816D01*
X046417Y029657D02*
X047443Y029657D01*
X047415Y029499D02*
X046445Y029499D01*
X046445Y029340D02*
X047415Y029340D01*
X047415Y029182D02*
X046445Y029182D01*
X046445Y029023D02*
X047415Y029023D01*
X047415Y028865D02*
X046445Y028865D01*
X046445Y028706D02*
X047415Y028706D01*
X047415Y028548D02*
X046445Y028548D01*
X046445Y028389D02*
X047415Y028389D01*
X047417Y028231D02*
X046443Y028231D01*
X046377Y028072D02*
X047483Y028072D01*
X047573Y027914D02*
X046287Y027914D01*
X046129Y027755D02*
X047731Y027755D01*
X049790Y027438D02*
X051768Y027438D01*
X051584Y027280D02*
X049790Y027280D01*
X049790Y027121D02*
X051486Y027121D01*
X051436Y026963D02*
X049790Y026963D01*
X049790Y025853D02*
X051715Y025853D01*
X051557Y025695D02*
X049790Y025695D01*
X049790Y025536D02*
X051472Y025536D01*
X051431Y025378D02*
X049790Y025378D01*
X049070Y025378D02*
X048930Y025378D01*
X048945Y025340D02*
X048829Y025621D01*
X048613Y025837D01*
X048332Y025953D01*
X048028Y025953D01*
X047747Y025837D01*
X047531Y025621D01*
X047415Y025340D01*
X047415Y023986D01*
X047531Y023705D01*
X047747Y023489D01*
X048028Y023373D01*
X048332Y023373D01*
X048613Y023489D01*
X048829Y023705D01*
X048945Y023986D01*
X048945Y025340D01*
X048945Y025219D02*
X049070Y025219D01*
X049070Y025061D02*
X048945Y025061D01*
X048945Y024902D02*
X049070Y024902D01*
X049070Y024744D02*
X048945Y024744D01*
X048945Y024585D02*
X049070Y024585D01*
X049070Y024427D02*
X048945Y024427D01*
X048945Y024268D02*
X049070Y024268D01*
X049070Y024110D02*
X048945Y024110D01*
X048931Y023951D02*
X049070Y023951D01*
X049070Y023793D02*
X048865Y023793D01*
X048758Y023634D02*
X049070Y023634D01*
X049070Y023476D02*
X048580Y023476D01*
X049070Y023317D02*
X041160Y023317D01*
X041377Y023476D02*
X045280Y023476D01*
X045247Y023489D02*
X045528Y023373D01*
X045832Y023373D01*
X046113Y023489D01*
X046329Y023705D01*
X046445Y023986D01*
X046445Y025340D01*
X046329Y025621D01*
X046113Y025837D01*
X045832Y025953D01*
X045528Y025953D01*
X045247Y025837D01*
X045031Y025621D01*
X044915Y025340D01*
X044915Y023986D01*
X045031Y023705D01*
X045247Y023489D01*
X045102Y023634D02*
X041535Y023634D01*
X041694Y023793D02*
X044995Y023793D01*
X044929Y023951D02*
X041852Y023951D01*
X042011Y024110D02*
X044915Y024110D01*
X044915Y024268D02*
X042169Y024268D01*
X042328Y024427D02*
X044915Y024427D01*
X044915Y024585D02*
X042486Y024585D01*
X042645Y024744D02*
X044915Y024744D01*
X044915Y024902D02*
X042803Y024902D01*
X042962Y025061D02*
X044915Y025061D01*
X044915Y025219D02*
X043203Y025219D01*
X043316Y025378D02*
X044930Y025378D01*
X044996Y025536D02*
X043348Y025536D01*
X043318Y025695D02*
X045105Y025695D01*
X045286Y025853D02*
X043207Y025853D01*
X045231Y027755D02*
X041040Y027755D01*
X041040Y027914D02*
X045073Y027914D01*
X044983Y028072D02*
X041040Y028072D01*
X041040Y028231D02*
X044917Y028231D01*
X044915Y028389D02*
X041040Y028389D01*
X041040Y028548D02*
X044915Y028548D01*
X044915Y028706D02*
X041040Y028706D01*
X040986Y028865D02*
X044915Y028865D01*
X044915Y029023D02*
X040829Y029023D01*
X040884Y028968D02*
X040884Y028968D01*
X040671Y029182D02*
X044915Y029182D01*
X044915Y029340D02*
X040560Y029340D01*
X040436Y029499D02*
X044915Y029499D01*
X044943Y029657D02*
X044683Y029657D01*
X044842Y029816D02*
X045008Y029816D01*
X045000Y029974D02*
X045134Y029974D01*
X045159Y030133D02*
X045358Y030133D01*
X049720Y030133D02*
X051758Y030133D01*
X051580Y029974D02*
X049790Y029974D01*
X049790Y029816D02*
X051484Y029816D01*
X051435Y029657D02*
X049790Y029657D01*
X049790Y029499D02*
X053100Y029499D01*
X053100Y029657D02*
X053260Y029657D01*
X053260Y029816D02*
X053100Y029816D01*
X053100Y029974D02*
X053260Y029974D01*
X053260Y030133D02*
X053100Y030133D01*
X053858Y029340D02*
X055700Y029340D01*
X055700Y029182D02*
X053791Y029182D01*
X053667Y029023D02*
X055700Y029023D01*
X053260Y027438D02*
X053100Y027438D01*
X053100Y027280D02*
X053260Y027280D01*
X053260Y027121D02*
X053100Y027121D01*
X053100Y026963D02*
X053260Y026963D01*
X053260Y026487D02*
X053100Y026487D01*
X053100Y026329D02*
X053260Y026329D01*
X053260Y026170D02*
X053100Y026170D01*
X053100Y025853D02*
X053260Y025853D01*
X053260Y025695D02*
X053100Y025695D01*
X053100Y025536D02*
X053260Y025536D01*
X053260Y025378D02*
X053100Y025378D01*
X049070Y025536D02*
X048864Y025536D01*
X048755Y025695D02*
X049070Y025695D01*
X049070Y025853D02*
X048574Y025853D01*
X047786Y025853D02*
X046074Y025853D01*
X046255Y025695D02*
X047605Y025695D01*
X047496Y025536D02*
X046364Y025536D01*
X046430Y025378D02*
X047430Y025378D01*
X047415Y025219D02*
X046445Y025219D01*
X046445Y025061D02*
X047415Y025061D01*
X047415Y024902D02*
X046445Y024902D01*
X046445Y024744D02*
X047415Y024744D01*
X047415Y024585D02*
X046445Y024585D01*
X046445Y024427D02*
X047415Y024427D01*
X047415Y024268D02*
X046445Y024268D01*
X046445Y024110D02*
X047415Y024110D01*
X047429Y023951D02*
X046431Y023951D01*
X046365Y023793D02*
X047495Y023793D01*
X047602Y023634D02*
X046258Y023634D01*
X046080Y023476D02*
X047780Y023476D01*
X049070Y023159D02*
X035790Y023159D01*
X035790Y023000D02*
X049070Y023000D01*
X049070Y022842D02*
X035790Y022842D01*
X035790Y022683D02*
X049070Y022683D01*
X049070Y022525D02*
X035790Y022525D01*
X035790Y022366D02*
X049070Y022366D01*
X049070Y022208D02*
X035790Y022208D01*
X035790Y022049D02*
X049070Y022049D01*
X049070Y021891D02*
X035790Y021891D01*
X035848Y021732D02*
X049070Y021732D01*
X049070Y021574D02*
X048626Y021574D01*
X048613Y021587D02*
X048332Y021703D01*
X048028Y021703D01*
X047747Y021587D01*
X047531Y021371D01*
X047415Y021090D01*
X047415Y019736D01*
X047531Y019455D01*
X047747Y019239D01*
X048028Y019123D01*
X048332Y019123D01*
X048613Y019239D01*
X048829Y019455D01*
X048945Y019736D01*
X048945Y021090D01*
X048829Y021371D01*
X048613Y021587D01*
X048785Y021415D02*
X049070Y021415D01*
X049070Y021257D02*
X048876Y021257D01*
X048942Y021098D02*
X049070Y021098D01*
X049070Y020940D02*
X048945Y020940D01*
X048945Y020781D02*
X049070Y020781D01*
X049070Y020623D02*
X048945Y020623D01*
X048945Y020464D02*
X049070Y020464D01*
X049070Y020306D02*
X048945Y020306D01*
X048945Y020147D02*
X049070Y020147D01*
X049070Y019989D02*
X048945Y019989D01*
X048945Y019830D02*
X049070Y019830D01*
X049070Y019672D02*
X048918Y019672D01*
X048853Y019513D02*
X049070Y019513D01*
X049070Y019355D02*
X048728Y019355D01*
X048508Y019196D02*
X049070Y019196D01*
X049092Y019038D02*
X039315Y019038D01*
X039156Y019196D02*
X045352Y019196D01*
X045247Y019239D02*
X045528Y019123D01*
X045832Y019123D01*
X046113Y019239D01*
X046329Y019455D01*
X046445Y019736D01*
X046445Y021090D01*
X046329Y021371D01*
X046113Y021587D01*
X045832Y021703D01*
X045528Y021703D01*
X045247Y021587D01*
X045031Y021371D01*
X044915Y021090D01*
X044915Y019736D01*
X045031Y019455D01*
X045247Y019239D01*
X045132Y019355D02*
X038998Y019355D01*
X038839Y019513D02*
X045007Y019513D01*
X044942Y019672D02*
X038681Y019672D01*
X038522Y019830D02*
X044915Y019830D01*
X044915Y019989D02*
X038364Y019989D01*
X038205Y020147D02*
X044915Y020147D01*
X044915Y020306D02*
X038047Y020306D01*
X037888Y020464D02*
X044915Y020464D01*
X044915Y020623D02*
X037730Y020623D01*
X037571Y020781D02*
X044915Y020781D01*
X044915Y020940D02*
X037413Y020940D01*
X037254Y021098D02*
X044918Y021098D01*
X044984Y021257D02*
X037096Y021257D01*
X036937Y021415D02*
X045075Y021415D01*
X045234Y021574D02*
X035846Y021574D01*
X035014Y021574D02*
X034279Y021574D01*
X034120Y021732D02*
X035012Y021732D01*
X035070Y021891D02*
X033962Y021891D01*
X033803Y022049D02*
X035070Y022049D01*
X035070Y022208D02*
X033645Y022208D01*
X033486Y022366D02*
X035070Y022366D01*
X035070Y022525D02*
X033328Y022525D01*
X033169Y022683D02*
X035070Y022683D01*
X035070Y022842D02*
X033011Y022842D01*
X032852Y023000D02*
X035070Y023000D01*
X034925Y023159D02*
X032790Y023159D01*
X032790Y023317D02*
X033184Y023317D01*
X033055Y023476D02*
X032805Y023476D01*
X032848Y023634D02*
X033012Y023634D01*
X033031Y023793D02*
X032829Y023793D01*
X032734Y023951D02*
X033126Y023951D01*
X032126Y023951D02*
X031734Y023951D01*
X031829Y023793D02*
X032031Y023793D01*
X032012Y023634D02*
X031848Y023634D01*
X031805Y023476D02*
X032055Y023476D01*
X032070Y023317D02*
X031790Y023317D01*
X031790Y023159D02*
X032070Y023159D01*
X032070Y023000D02*
X031790Y023000D01*
X031790Y022842D02*
X032070Y022842D01*
X032151Y022683D02*
X031790Y022683D01*
X031790Y022525D02*
X032309Y022525D01*
X032468Y022366D02*
X031790Y022366D01*
X031790Y022208D02*
X032626Y022208D01*
X032785Y022049D02*
X031790Y022049D01*
X031790Y021891D02*
X032943Y021891D01*
X033102Y021732D02*
X031790Y021732D01*
X031790Y021574D02*
X033260Y021574D01*
X033419Y021415D02*
X031790Y021415D01*
X031790Y021257D02*
X033577Y021257D01*
X033736Y021098D02*
X031790Y021098D01*
X031790Y020940D02*
X032365Y020940D01*
X032276Y020781D02*
X031821Y020781D01*
X031980Y020623D02*
X032262Y020623D01*
X032310Y020464D02*
X032138Y020464D01*
X032297Y020306D02*
X032450Y020306D01*
X032455Y020147D02*
X037187Y020147D01*
X037345Y019989D02*
X032614Y019989D01*
X032772Y019830D02*
X037504Y019830D01*
X037662Y019672D02*
X032931Y019672D01*
X033089Y019513D02*
X037821Y019513D01*
X037979Y019355D02*
X033248Y019355D01*
X033406Y019196D02*
X038138Y019196D01*
X038296Y019038D02*
X033565Y019038D01*
X033723Y018879D02*
X038455Y018879D01*
X038613Y018721D02*
X033882Y018721D01*
X034040Y018562D02*
X038772Y018562D01*
X038930Y018404D02*
X034199Y018404D01*
X034357Y018245D02*
X039089Y018245D01*
X039247Y018087D02*
X034516Y018087D01*
X034674Y017928D02*
X039406Y017928D01*
X039564Y017770D02*
X034833Y017770D01*
X034991Y017611D02*
X039723Y017611D01*
X039881Y017453D02*
X035150Y017453D01*
X035308Y017294D02*
X049290Y017294D01*
X049448Y017136D02*
X035467Y017136D01*
X035625Y016977D02*
X048152Y016977D01*
X048042Y016819D02*
X035784Y016819D01*
X035576Y016026D02*
X045558Y016026D01*
X045553Y015868D02*
X045716Y015868D01*
X045693Y015709D02*
X045820Y015709D01*
X045820Y015551D02*
X045758Y015551D01*
X045766Y015392D02*
X045820Y015392D01*
X045820Y015234D02*
X045736Y015234D01*
X045658Y015075D02*
X045820Y015075D01*
X045820Y014917D02*
X045556Y014917D01*
X045556Y014758D02*
X045820Y014758D01*
X045820Y014600D02*
X045556Y014600D01*
X045556Y014441D02*
X045820Y014441D01*
X045844Y014283D02*
X045556Y014283D01*
X045556Y014124D02*
X045960Y014124D01*
X046118Y013966D02*
X045556Y013966D01*
X045556Y013807D02*
X046277Y013807D01*
X046435Y013649D02*
X045556Y013649D01*
X045556Y013490D02*
X049187Y013490D01*
X049138Y013332D02*
X045556Y013332D01*
X045556Y013173D02*
X049150Y013173D01*
X049196Y013015D02*
X045556Y013015D01*
X045556Y012856D02*
X049196Y012856D01*
X049196Y012698D02*
X045556Y012698D01*
X045528Y012539D02*
X049196Y012539D01*
X049196Y012381D02*
X046472Y012381D01*
X046630Y012222D02*
X049196Y012222D01*
X049071Y012064D02*
X046789Y012064D01*
X046947Y011905D02*
X048913Y011905D01*
X049980Y010954D02*
X050962Y010954D01*
X051120Y011113D02*
X050139Y011113D01*
X050235Y011209D02*
X052079Y013053D01*
X052555Y013053D01*
X052695Y012913D01*
X052410Y012628D01*
X052410Y012402D01*
X050281Y010273D01*
X048904Y010273D01*
X048763Y010331D01*
X048597Y010331D01*
X048443Y010268D01*
X048325Y010150D01*
X048267Y010009D01*
X047531Y009273D01*
X047429Y009273D01*
X047432Y009274D01*
X047496Y009321D01*
X047553Y009378D01*
X047600Y009443D01*
X047637Y009514D01*
X047662Y009591D01*
X047674Y009670D01*
X047674Y009692D01*
X047183Y009692D01*
X047183Y009729D01*
X047146Y009729D01*
X047146Y010220D01*
X047124Y010220D01*
X047045Y010208D01*
X046968Y010183D01*
X046897Y010146D01*
X046832Y010099D01*
X046775Y010042D01*
X046728Y009978D01*
X046705Y009932D01*
X046663Y010033D01*
X046503Y010193D01*
X046293Y010280D01*
X046067Y010280D01*
X045857Y010193D01*
X045697Y010033D01*
X045688Y010012D01*
X045679Y010033D01*
X045556Y010156D01*
X045556Y010469D01*
X045501Y010601D01*
X045290Y010812D01*
X045290Y011261D01*
X045325Y011176D01*
X045443Y011058D01*
X045597Y010995D01*
X045763Y010995D01*
X045904Y011053D01*
X046031Y011053D01*
X046375Y010709D01*
X046476Y010608D01*
X046608Y010553D01*
X049502Y010553D01*
X049634Y010608D01*
X050235Y011209D01*
X050297Y011271D02*
X051279Y011271D01*
X051437Y011430D02*
X050456Y011430D01*
X050614Y011588D02*
X051596Y011588D01*
X051754Y011747D02*
X050773Y011747D01*
X050931Y011905D02*
X051913Y011905D01*
X052071Y012064D02*
X051090Y012064D01*
X051248Y012222D02*
X052230Y012222D01*
X052388Y012381D02*
X051407Y012381D01*
X051565Y012539D02*
X052410Y012539D01*
X052479Y012698D02*
X051724Y012698D01*
X051882Y012856D02*
X052638Y012856D01*
X052593Y013015D02*
X052041Y013015D01*
X051430Y013663D02*
X051054Y013287D01*
X050304Y013287D01*
X051430Y013663D02*
X051430Y014913D01*
X051180Y015288D02*
X050682Y014790D01*
X050682Y014413D01*
X049556Y013287D01*
X049335Y013649D02*
X048257Y013649D01*
X048339Y013807D02*
X049623Y013807D01*
X049782Y013966D02*
X048348Y013966D01*
X048295Y014124D02*
X049940Y014124D01*
X050099Y014283D02*
X048131Y014283D01*
X047729Y014283D02*
X046820Y014283D01*
X046661Y014441D02*
X050257Y014441D01*
X049902Y014600D02*
X046540Y014600D01*
X046540Y014758D02*
X049791Y014758D01*
X049667Y014917D02*
X047252Y014917D01*
X047284Y014921D02*
X047204Y014909D01*
X047183Y014909D01*
X047183Y015400D01*
X047183Y015437D01*
X047674Y015437D01*
X047674Y015459D01*
X047662Y015538D01*
X047637Y015615D01*
X047600Y015686D01*
X047553Y015751D01*
X047496Y015808D01*
X047432Y015855D01*
X047360Y015892D01*
X047284Y015916D01*
X047204Y015929D01*
X047183Y015929D01*
X047183Y015437D01*
X047146Y015437D01*
X047146Y015400D01*
X047183Y015400D01*
X047674Y015400D01*
X047674Y015379D01*
X047662Y015299D01*
X047637Y015223D01*
X047600Y015152D01*
X047553Y015087D01*
X047496Y015030D01*
X047432Y014983D01*
X047360Y014946D01*
X047284Y014921D01*
X047183Y014917D02*
X047146Y014917D01*
X047146Y014909D02*
X047146Y015400D01*
X046654Y015400D01*
X046654Y015379D01*
X046667Y015299D01*
X046692Y015223D01*
X046728Y015152D01*
X046775Y015087D01*
X046832Y015030D01*
X046897Y014983D01*
X046968Y014946D01*
X047045Y014921D01*
X047124Y014909D01*
X047146Y014909D01*
X047076Y014917D02*
X046540Y014917D01*
X046540Y015075D02*
X046787Y015075D01*
X046688Y015234D02*
X046540Y015234D01*
X046540Y015392D02*
X046654Y015392D01*
X046654Y015437D02*
X047146Y015437D01*
X047146Y015929D01*
X047124Y015929D01*
X047045Y015916D01*
X046968Y015892D01*
X046897Y015855D01*
X046832Y015808D01*
X046775Y015751D01*
X046728Y015686D01*
X046692Y015615D01*
X046667Y015538D01*
X046654Y015459D01*
X046654Y015437D01*
X046671Y015551D02*
X046540Y015551D01*
X046540Y015709D02*
X046745Y015709D01*
X046921Y015868D02*
X046540Y015868D01*
X046523Y016026D02*
X048558Y016026D01*
X048716Y015868D02*
X047407Y015868D01*
X047183Y015868D02*
X047146Y015868D01*
X047146Y015709D02*
X047183Y015709D01*
X047183Y015551D02*
X047146Y015551D01*
X047146Y015392D02*
X047183Y015392D01*
X047183Y015234D02*
X047146Y015234D01*
X047146Y015075D02*
X047183Y015075D01*
X047542Y015075D02*
X049509Y015075D01*
X049350Y015234D02*
X047640Y015234D01*
X047674Y015392D02*
X049192Y015392D01*
X049033Y015551D02*
X047658Y015551D01*
X047584Y015709D02*
X048875Y015709D01*
X048399Y016185D02*
X046418Y016185D01*
X046259Y016343D02*
X048158Y016343D01*
X048044Y016502D02*
X046101Y016502D01*
X045942Y016660D02*
X048012Y016660D01*
X048708Y016977D02*
X049607Y016977D01*
X049765Y016819D02*
X048818Y016819D01*
X048942Y016660D02*
X049924Y016660D01*
X050082Y016502D02*
X049101Y016502D01*
X049259Y016343D02*
X050262Y016343D01*
X050784Y016026D02*
X049576Y016026D01*
X049418Y016185D02*
X050942Y016185D01*
X050625Y015868D02*
X049735Y015868D01*
X049893Y015709D02*
X050384Y015709D01*
X050284Y015551D02*
X050052Y015551D01*
X050210Y015392D02*
X050262Y015392D01*
X051180Y015288D02*
X052055Y015288D01*
X052930Y014413D01*
X053450Y014441D02*
X053470Y014441D01*
X053470Y014423D02*
X053920Y014423D01*
X053920Y014873D01*
X053739Y014873D01*
X053470Y014604D01*
X053470Y014423D01*
X053470Y014403D02*
X053470Y014222D01*
X053739Y013953D01*
X053920Y013953D01*
X053920Y014403D01*
X053470Y014403D01*
X053470Y014283D02*
X053450Y014283D01*
X053450Y014198D02*
X053165Y013913D01*
X053430Y013648D01*
X053715Y013933D01*
X054145Y013933D01*
X054320Y013758D01*
X054320Y014152D01*
X054121Y013953D01*
X053940Y013953D01*
X053940Y014403D01*
X053920Y014403D01*
X053920Y014423D01*
X053940Y014423D01*
X053940Y014873D01*
X054121Y014873D01*
X054320Y014674D01*
X054320Y015068D01*
X054145Y014893D01*
X053715Y014893D01*
X053410Y015198D01*
X053410Y015213D01*
X053371Y015118D01*
X053225Y014972D01*
X053130Y014933D01*
X053145Y014933D01*
X053450Y014628D01*
X053450Y014198D01*
X053376Y014124D02*
X053568Y014124D01*
X053727Y013966D02*
X053218Y013966D01*
X053271Y013807D02*
X053589Y013807D01*
X053430Y013649D02*
X053430Y013649D01*
X053920Y013966D02*
X053940Y013966D01*
X053940Y014124D02*
X053920Y014124D01*
X053920Y014283D02*
X053940Y014283D01*
X053940Y014441D02*
X053920Y014441D01*
X053920Y014600D02*
X053940Y014600D01*
X053940Y014758D02*
X053920Y014758D01*
X053691Y014917D02*
X053162Y014917D01*
X053320Y014758D02*
X053624Y014758D01*
X053470Y014600D02*
X053450Y014600D01*
X053533Y015075D02*
X053327Y015075D01*
X054169Y014917D02*
X054320Y014917D01*
X054320Y014758D02*
X054236Y014758D01*
X054292Y014124D02*
X054320Y014124D01*
X054320Y013966D02*
X054133Y013966D01*
X054271Y013807D02*
X054320Y013807D01*
X054211Y015868D02*
X054216Y015868D01*
X054058Y016026D02*
X052826Y016026D01*
X052668Y016185D02*
X053899Y016185D01*
X053649Y015868D02*
X053192Y015868D01*
X053369Y015709D02*
X053491Y015709D01*
X050866Y017136D02*
X050467Y017136D01*
X050308Y017294D02*
X050776Y017294D01*
X050631Y017453D02*
X050150Y017453D01*
X049991Y017611D02*
X050473Y017611D01*
X050314Y017770D02*
X049833Y017770D01*
X049674Y017928D02*
X050156Y017928D01*
X049997Y018087D02*
X040266Y018087D01*
X040107Y018245D02*
X049839Y018245D01*
X049680Y018404D02*
X039949Y018404D01*
X039790Y018562D02*
X049522Y018562D01*
X049363Y018721D02*
X039632Y018721D01*
X039473Y018879D02*
X049205Y018879D01*
X050857Y018245D02*
X051430Y018245D01*
X051469Y018087D02*
X051016Y018087D01*
X051174Y017928D02*
X051552Y017928D01*
X053100Y020464D02*
X053260Y020464D01*
X053260Y020623D02*
X053100Y020623D01*
X053100Y020781D02*
X053260Y020781D01*
X053260Y020940D02*
X053100Y020940D01*
X053100Y021415D02*
X053260Y021415D01*
X052038Y021732D02*
X049790Y021732D01*
X049790Y021574D02*
X051676Y021574D01*
X051536Y021415D02*
X049790Y021415D01*
X049790Y021257D02*
X051460Y021257D01*
X051668Y022049D02*
X049790Y022049D01*
X049790Y021891D02*
X051990Y021891D01*
X051533Y022208D02*
X049790Y022208D01*
X049790Y022366D02*
X051458Y022366D01*
X047734Y021574D02*
X046126Y021574D01*
X046285Y021415D02*
X047575Y021415D01*
X047484Y021257D02*
X046376Y021257D01*
X046442Y021098D02*
X047418Y021098D01*
X047415Y020940D02*
X046445Y020940D01*
X046445Y020781D02*
X047415Y020781D01*
X047415Y020623D02*
X046445Y020623D01*
X046445Y020464D02*
X047415Y020464D01*
X047415Y020306D02*
X046445Y020306D01*
X046445Y020147D02*
X047415Y020147D01*
X047415Y019989D02*
X046445Y019989D01*
X046445Y019830D02*
X047415Y019830D01*
X047442Y019672D02*
X046418Y019672D01*
X046353Y019513D02*
X047507Y019513D01*
X047632Y019355D02*
X046228Y019355D01*
X046008Y019196D02*
X047852Y019196D01*
X044838Y015868D02*
X041985Y015868D01*
X042143Y015709D02*
X044699Y015709D01*
X044633Y015551D02*
X042302Y015551D01*
X042460Y015392D02*
X044626Y015392D01*
X044656Y015234D02*
X042540Y015234D01*
X042540Y015075D02*
X044734Y015075D01*
X044836Y014917D02*
X042540Y014917D01*
X042540Y014758D02*
X044836Y014758D01*
X044836Y014600D02*
X042540Y014600D01*
X042540Y014441D02*
X044836Y014441D01*
X044836Y014283D02*
X042540Y014283D01*
X042540Y014124D02*
X044836Y014124D01*
X044836Y013966D02*
X042540Y013966D01*
X042540Y013807D02*
X044836Y013807D01*
X044836Y013649D02*
X042540Y013649D01*
X042540Y013490D02*
X044836Y013490D01*
X044836Y013332D02*
X042540Y013332D01*
X042540Y013173D02*
X044836Y013173D01*
X044836Y013015D02*
X042540Y013015D01*
X042540Y012856D02*
X044836Y012856D01*
X044705Y012698D02*
X042540Y012698D01*
X042540Y012539D02*
X044547Y012539D01*
X044388Y012381D02*
X042540Y012381D01*
X042540Y012222D02*
X044230Y012222D01*
X044103Y012064D02*
X042540Y012064D01*
X042540Y011905D02*
X044070Y011905D01*
X044070Y011747D02*
X042540Y011747D01*
X042540Y011588D02*
X044070Y011588D01*
X044070Y011430D02*
X042540Y011430D01*
X042540Y011271D02*
X044070Y011271D01*
X044070Y011113D02*
X042540Y011113D01*
X042540Y010954D02*
X044070Y010954D01*
X044070Y010796D02*
X042540Y010796D01*
X042540Y010637D02*
X044070Y010637D01*
X044070Y010479D02*
X043206Y010479D01*
X043318Y010320D02*
X044070Y010320D01*
X044070Y010162D02*
X043441Y010162D01*
X043599Y010003D02*
X044070Y010003D01*
X044070Y009845D02*
X043758Y009845D01*
X043916Y009686D02*
X044070Y009686D01*
X042654Y010479D02*
X042540Y010479D01*
X042540Y010320D02*
X042542Y010320D01*
X045307Y010796D02*
X046288Y010796D01*
X046130Y010954D02*
X045290Y010954D01*
X045290Y011113D02*
X045389Y011113D01*
X045465Y010637D02*
X046447Y010637D01*
X045552Y010479D02*
X050486Y010479D01*
X050645Y010637D02*
X049663Y010637D01*
X049822Y010796D02*
X050803Y010796D01*
X050328Y010320D02*
X048791Y010320D01*
X048569Y010320D02*
X045556Y010320D01*
X045556Y010162D02*
X045825Y010162D01*
X046535Y010162D02*
X046927Y010162D01*
X047146Y010162D02*
X047183Y010162D01*
X047183Y010220D02*
X047183Y009729D01*
X047674Y009729D01*
X047674Y009750D01*
X047662Y009830D01*
X047637Y009906D01*
X047600Y009978D01*
X047553Y010042D01*
X047496Y010099D01*
X047432Y010146D01*
X047360Y010183D01*
X047284Y010208D01*
X047204Y010220D01*
X047183Y010220D01*
X047183Y010003D02*
X047146Y010003D01*
X047146Y009845D02*
X047183Y009845D01*
X047402Y010162D02*
X048337Y010162D01*
X048261Y010003D02*
X047582Y010003D01*
X047657Y009845D02*
X048102Y009845D01*
X047944Y009686D02*
X047674Y009686D01*
X047641Y009528D02*
X047785Y009528D01*
X047627Y009369D02*
X047544Y009369D01*
X046747Y010003D02*
X046676Y010003D01*
X043342Y006991D02*
X039625Y006991D01*
X039749Y006833D02*
X043501Y006833D01*
X043659Y006674D02*
X039841Y006674D01*
X039884Y006516D02*
X043818Y006516D01*
X043976Y006357D02*
X039916Y006357D01*
X039916Y006199D02*
X044135Y006199D01*
X044293Y006040D02*
X039895Y006040D01*
X039853Y005882D02*
X044452Y005882D01*
X044610Y005723D02*
X039773Y005723D01*
X039666Y005565D02*
X044769Y005565D01*
X044927Y005406D02*
X039507Y005406D01*
X039441Y007150D02*
X043184Y007150D01*
X035245Y008101D02*
X034615Y008101D01*
X034861Y008259D02*
X034999Y008259D01*
X034245Y008101D02*
X033615Y008101D01*
X033861Y008259D02*
X033999Y008259D01*
X033245Y008101D02*
X032615Y008101D01*
X032861Y008259D02*
X032999Y008259D01*
X032245Y008101D02*
X031615Y008101D01*
X031861Y008259D02*
X031999Y008259D01*
X031245Y008101D02*
X030615Y008101D01*
X030861Y008259D02*
X030999Y008259D01*
X030245Y008101D02*
X029615Y008101D01*
X029861Y008259D02*
X029999Y008259D01*
X029245Y008101D02*
X028615Y008101D01*
X028861Y008259D02*
X028999Y008259D01*
X028245Y008101D02*
X027615Y008101D01*
X027861Y008259D02*
X027999Y008259D01*
X027245Y008101D02*
X026615Y008101D01*
X026861Y008259D02*
X026999Y008259D01*
X026245Y008101D02*
X025615Y008101D01*
X025861Y008259D02*
X025999Y008259D01*
X025245Y008101D02*
X024615Y008101D01*
X024861Y008259D02*
X024999Y008259D01*
X024245Y008101D02*
X023615Y008101D01*
X023861Y008259D02*
X023999Y008259D01*
X023245Y008101D02*
X022615Y008101D01*
X022861Y008259D02*
X022999Y008259D01*
X022245Y008101D02*
X021615Y008101D01*
X021861Y008259D02*
X021999Y008259D01*
X021245Y008101D02*
X020615Y008101D01*
X020861Y008259D02*
X020999Y008259D01*
X020245Y008101D02*
X019615Y008101D01*
X019861Y008259D02*
X019999Y008259D01*
X019245Y008101D02*
X018615Y008101D01*
X018861Y008259D02*
X018999Y008259D01*
X018245Y008101D02*
X017615Y008101D01*
X017861Y008259D02*
X017999Y008259D01*
X017245Y008101D02*
X016615Y008101D01*
X016861Y008259D02*
X016999Y008259D01*
X016245Y008101D02*
X015615Y008101D01*
X015861Y008259D02*
X015999Y008259D01*
X015245Y008101D02*
X014615Y008101D01*
X014861Y008259D02*
X014999Y008259D01*
X014245Y008101D02*
X013615Y008101D01*
X013861Y008259D02*
X013999Y008259D01*
X013245Y008101D02*
X012615Y008101D01*
X012861Y008259D02*
X012999Y008259D01*
X012245Y008101D02*
X011615Y008101D01*
X011861Y008259D02*
X011999Y008259D01*
X011245Y008101D02*
X010615Y008101D01*
X010861Y008259D02*
X010999Y008259D01*
X010245Y008101D02*
X009615Y008101D01*
X009861Y008259D02*
X009999Y008259D01*
X009245Y008101D02*
X008615Y008101D01*
X008861Y008259D02*
X008999Y008259D01*
X008245Y008101D02*
X007615Y008101D01*
X007861Y008259D02*
X007999Y008259D01*
X007245Y008101D02*
X006615Y008101D01*
X006861Y008259D02*
X006999Y008259D01*
X006245Y008101D02*
X005615Y008101D01*
X005861Y008259D02*
X005999Y008259D01*
X005245Y008101D02*
X004615Y008101D01*
X004861Y008259D02*
X004999Y008259D01*
X004245Y008101D02*
X003615Y008101D01*
X003861Y008259D02*
X003999Y008259D01*
X003245Y008101D02*
X002615Y008101D01*
X002861Y008259D02*
X002999Y008259D01*
X028303Y022049D02*
X029035Y022049D01*
X029070Y021891D02*
X028462Y021891D01*
X028540Y021732D02*
X029070Y021732D01*
X029070Y021574D02*
X028540Y021574D01*
X028540Y021415D02*
X029070Y021415D01*
X029070Y021257D02*
X028540Y021257D01*
X028540Y021098D02*
X029070Y021098D01*
X029070Y020940D02*
X028540Y020940D01*
X028540Y020781D02*
X029070Y020781D01*
X029070Y020623D02*
X028540Y020623D01*
X028540Y020464D02*
X029070Y020464D01*
X029070Y020306D02*
X028540Y020306D01*
X028540Y020147D02*
X029070Y020147D01*
X029070Y019989D02*
X028540Y019989D01*
X028540Y019830D02*
X029070Y019830D01*
X029070Y019672D02*
X028540Y019672D01*
X028540Y019513D02*
X029070Y019513D01*
X029070Y019355D02*
X028540Y019355D01*
X028540Y019196D02*
X029070Y019196D01*
X029070Y019038D02*
X028540Y019038D01*
X028540Y018879D02*
X029070Y018879D01*
X029070Y018721D02*
X028540Y018721D01*
X028540Y018562D02*
X029070Y018562D01*
X029070Y018404D02*
X028540Y018404D01*
X028540Y018245D02*
X029070Y018245D01*
X029070Y018087D02*
X028540Y018087D01*
X028540Y017928D02*
X029070Y017928D01*
X029070Y017770D02*
X028540Y017770D01*
X028540Y017611D02*
X029070Y017611D01*
X029070Y017453D02*
X028540Y017453D01*
X028558Y017294D02*
X029070Y017294D01*
X029069Y017136D02*
X028717Y017136D01*
X028875Y016977D02*
X029012Y016977D01*
X029790Y017294D02*
X034290Y017294D01*
X034131Y017453D02*
X029790Y017453D01*
X029790Y017611D02*
X033973Y017611D01*
X033814Y017770D02*
X029790Y017770D01*
X029790Y017928D02*
X033656Y017928D01*
X033497Y018087D02*
X029790Y018087D01*
X029790Y018245D02*
X033339Y018245D01*
X033180Y018404D02*
X029790Y018404D01*
X029790Y018562D02*
X033022Y018562D01*
X032863Y018721D02*
X029790Y018721D01*
X029790Y018879D02*
X032705Y018879D01*
X032546Y019038D02*
X029790Y019038D01*
X029790Y019196D02*
X032388Y019196D01*
X032229Y019355D02*
X029790Y019355D01*
X029790Y019513D02*
X032071Y019513D01*
X031912Y019672D02*
X029790Y019672D01*
X029790Y019830D02*
X031754Y019830D01*
X031595Y019989D02*
X029790Y019989D01*
X029790Y020147D02*
X031437Y020147D01*
X031278Y020306D02*
X029790Y020306D01*
X029790Y020464D02*
X031123Y020464D01*
X031070Y020623D02*
X029790Y020623D01*
X029790Y020781D02*
X031070Y020781D01*
X031070Y020940D02*
X029790Y020940D01*
X029790Y021098D02*
X031070Y021098D01*
X031070Y021257D02*
X029790Y021257D01*
X029790Y021415D02*
X031070Y021415D01*
X031070Y021574D02*
X029790Y021574D01*
X029790Y021732D02*
X031070Y021732D01*
X031070Y021891D02*
X029790Y021891D01*
X029790Y022049D02*
X031070Y022049D01*
X031070Y022208D02*
X029790Y022208D01*
X029736Y022366D02*
X031070Y022366D01*
X031070Y022525D02*
X029578Y022525D01*
X029419Y022683D02*
X031070Y022683D01*
X031070Y022842D02*
X029261Y022842D01*
X029102Y023000D02*
X031070Y023000D01*
X031070Y023159D02*
X028944Y023159D01*
X028785Y023317D02*
X031070Y023317D01*
X031055Y023476D02*
X028627Y023476D01*
X028468Y023634D02*
X031012Y023634D01*
X031031Y023793D02*
X028310Y023793D01*
X028151Y023951D02*
X031126Y023951D01*
X029820Y024268D02*
X037816Y024268D01*
X037974Y024110D02*
X027993Y024110D01*
X027834Y024268D02*
X029540Y024268D01*
X029325Y024427D02*
X027676Y024427D01*
X027517Y024585D02*
X029262Y024585D01*
X029262Y024744D02*
X027359Y024744D01*
X027200Y024902D02*
X029327Y024902D01*
X031187Y026012D02*
X027040Y026012D01*
X027040Y026170D02*
X031428Y026170D01*
X031586Y026329D02*
X027040Y026329D01*
X027040Y026487D02*
X031745Y026487D01*
X031903Y026646D02*
X027040Y026646D01*
X027316Y028231D02*
X027488Y028231D01*
X027484Y028389D02*
X027647Y028389D01*
X030021Y027914D02*
X030588Y027914D01*
X030822Y027755D02*
X030097Y027755D01*
X030256Y027597D02*
X035604Y027597D01*
X035763Y027755D02*
X033038Y027755D01*
X032822Y027755D02*
X032038Y027755D01*
X031822Y027755D02*
X031038Y027755D01*
X031272Y027914D02*
X031588Y027914D01*
X031515Y028072D02*
X031348Y028072D01*
X031507Y028231D02*
X031512Y028231D01*
X032272Y027914D02*
X032588Y027914D01*
X032515Y028072D02*
X032348Y028072D01*
X032507Y028231D02*
X032512Y028231D01*
X026320Y024902D02*
X025450Y024902D01*
X025609Y024744D02*
X026361Y024744D01*
X026499Y024585D02*
X025767Y024585D01*
X025926Y024427D02*
X026657Y024427D01*
X026816Y024268D02*
X026084Y024268D01*
X026243Y024110D02*
X026974Y024110D01*
X027133Y023951D02*
X026401Y023951D01*
X026560Y023793D02*
X027291Y023793D01*
X027450Y023634D02*
X026718Y023634D01*
X026877Y023476D02*
X027608Y023476D01*
X027767Y023317D02*
X027035Y023317D01*
X027194Y023159D02*
X027925Y023159D01*
X028084Y023000D02*
X027352Y023000D01*
X027511Y022842D02*
X028242Y022842D01*
X028401Y022683D02*
X027669Y022683D01*
X027828Y022525D02*
X028559Y022525D01*
X028718Y022366D02*
X027986Y022366D01*
X028145Y022208D02*
X028876Y022208D01*
X035151Y023951D02*
X038133Y023951D01*
X038291Y023793D02*
X035310Y023793D01*
X035468Y023634D02*
X038450Y023634D01*
X038608Y023476D02*
X035627Y023476D01*
X035756Y023317D02*
X038825Y023317D01*
X036870Y020464D02*
X036800Y020464D01*
X036660Y020306D02*
X037028Y020306D01*
X049790Y028865D02*
X051902Y028865D01*
X051643Y029023D02*
X049790Y029023D01*
X049790Y029182D02*
X051519Y029182D01*
X051452Y029340D02*
X049790Y029340D01*
X024157Y030767D02*
X001044Y030767D01*
X001121Y030925D02*
X023957Y030925D01*
X023862Y031084D02*
X001232Y031084D01*
X001361Y031242D02*
X023810Y031242D01*
X023810Y031401D02*
X001559Y031401D01*
X001848Y031559D02*
X023850Y031559D01*
X019788Y027121D02*
X019568Y027121D01*
X052430Y009913D02*
X053430Y009913D01*
X053930Y010413D01*
X053930Y008413D02*
X053430Y007913D01*
X052430Y007913D01*
D18*
X051930Y007413D01*
X044430Y007413D01*
X042180Y009663D01*
X042180Y015163D01*
X041680Y015663D01*
X035430Y015663D01*
X034180Y016913D01*
X029430Y016913D01*
X029430Y022163D01*
X026680Y024913D01*
X026680Y026913D01*
X028430Y028663D01*
X029680Y028663D01*
X029680Y027663D02*
X030180Y027163D01*
X035680Y027163D01*
X037680Y029163D01*
X040180Y029163D01*
X040680Y028663D01*
X040680Y024663D01*
X041055Y023663D02*
X038930Y023663D01*
X036180Y026413D01*
X032180Y026413D01*
X031430Y025663D01*
X030430Y024663D01*
X029680Y024663D01*
X031430Y023663D02*
X031430Y020663D01*
X035680Y016413D01*
X045680Y016413D01*
X046180Y015913D01*
X046180Y014413D01*
X046680Y013913D01*
X047930Y013913D01*
X049556Y013287D02*
X049556Y012039D01*
X048930Y011413D01*
X046930Y011413D01*
X046180Y012163D01*
X045430Y012163D01*
X044930Y011663D01*
X044930Y010663D01*
X045196Y010397D01*
X045196Y009710D01*
X044430Y009413D02*
X044430Y011913D01*
X045196Y012679D01*
X045196Y015419D01*
X048430Y016663D02*
X050180Y014913D01*
X050680Y015413D02*
X051180Y015913D01*
X052430Y015913D01*
X052930Y015413D01*
X053930Y016663D02*
X054680Y015913D01*
X054680Y012163D01*
X053930Y011413D01*
X055180Y010663D02*
X055180Y016163D01*
X053930Y017413D01*
X051180Y017413D01*
X049430Y019163D01*
X049430Y029913D01*
X048805Y030538D01*
X045055Y030538D01*
X044430Y029913D01*
X037430Y029913D01*
X035680Y028163D01*
X032930Y028163D01*
X031930Y028163D02*
X033430Y029663D01*
X034430Y029663D01*
X035305Y030538D02*
X035680Y030163D01*
X035305Y030538D02*
X029055Y030538D01*
X027119Y028602D01*
X030930Y028163D02*
X032930Y030163D01*
X041055Y023663D02*
X042930Y025538D01*
X035430Y023163D02*
X035430Y021663D01*
X034180Y021163D02*
X036680Y021163D01*
X040180Y017663D01*
X049430Y017663D01*
X050430Y016663D01*
X053930Y016663D01*
X052930Y013413D02*
X051930Y013413D01*
X049930Y011413D01*
X049430Y010913D01*
X046680Y010913D01*
X046180Y011413D01*
X045680Y011413D01*
X042930Y010163D02*
X044680Y008413D01*
X050930Y008413D01*
X052430Y009913D01*
X053930Y009413D02*
X055180Y010663D01*
X052930Y012413D02*
X050430Y009913D01*
X048680Y009913D01*
X047680Y008913D01*
X044930Y008913D01*
X044430Y009413D01*
X041680Y009163D02*
X045180Y005663D01*
X053180Y005663D01*
X053930Y006413D01*
X041680Y009163D02*
X041680Y014663D01*
X041180Y015163D01*
X034930Y015163D01*
X033930Y016163D01*
X029180Y016163D01*
X028180Y017163D01*
X028180Y021663D01*
X025180Y024663D01*
X021805Y024663D01*
X019178Y027413D02*
X018428Y026663D01*
X006930Y026663D01*
X006180Y027413D01*
X006180Y027914D01*
X006178Y027916D01*
X019178Y027916D02*
X019178Y027413D01*
X032430Y023663D02*
X032430Y022913D01*
X034180Y021163D01*
X032680Y020663D02*
X036430Y020663D01*
X035430Y023163D02*
X034930Y023663D01*
X033430Y023663D01*
D19*
X024430Y019663D03*
X023430Y019663D03*
X022430Y019663D03*
X021430Y019663D03*
X020430Y019663D03*
X019430Y019663D03*
X018430Y019663D03*
X017430Y019663D03*
X016430Y019663D03*
X015430Y019663D03*
X014430Y019663D03*
X013430Y019663D03*
X012430Y019663D03*
X011430Y019663D03*
X010430Y019663D03*
X009430Y019663D03*
X008430Y019663D03*
X007430Y019663D03*
X006430Y019663D03*
X005430Y019663D03*
X004430Y019663D03*
X003430Y019663D03*
X002430Y019663D03*
X002430Y020663D03*
X003430Y020663D03*
X004430Y020663D03*
X005430Y020663D03*
X006430Y020663D03*
X007430Y020663D03*
X008430Y020663D03*
X009430Y020663D03*
X010430Y020663D03*
X011430Y020663D03*
X012430Y020663D03*
X013430Y020663D03*
X014430Y020663D03*
X015430Y020663D03*
X016430Y020663D03*
X016430Y021663D03*
X015430Y021663D03*
X014430Y021663D03*
X013430Y021663D03*
X012430Y021663D03*
X011430Y021663D03*
X010430Y021663D03*
X009430Y021663D03*
X008430Y021663D03*
X007430Y021663D03*
X006430Y021663D03*
X005430Y021663D03*
X004430Y021663D03*
X003430Y021663D03*
X002430Y021663D03*
X002430Y022663D03*
X003430Y022663D03*
X004430Y022663D03*
X005430Y022663D03*
X006430Y022663D03*
X007430Y022663D03*
X008430Y022663D03*
X009430Y022663D03*
X010430Y022663D03*
X011430Y022663D03*
X012430Y022663D03*
X013430Y022663D03*
X014430Y022663D03*
X015430Y022663D03*
X016430Y022663D03*
X016430Y018663D03*
X017430Y018663D03*
X018430Y018663D03*
X019430Y018663D03*
X020430Y018663D03*
X021430Y018663D03*
X022430Y018663D03*
X023430Y018663D03*
X024430Y018663D03*
X024430Y017663D03*
X023430Y017663D03*
X022430Y017663D03*
X021430Y017663D03*
X020430Y017663D03*
X019430Y017663D03*
X018430Y017663D03*
X017430Y017663D03*
X016430Y017663D03*
X015430Y017663D03*
X014430Y017663D03*
X013430Y017663D03*
X012430Y017663D03*
X011430Y017663D03*
X010430Y017663D03*
X009430Y017663D03*
X008430Y017663D03*
X007430Y017663D03*
X006430Y017663D03*
X005430Y017663D03*
X004430Y017663D03*
X003430Y017663D03*
X002430Y017663D03*
X002430Y018663D03*
X003430Y018663D03*
X004430Y018663D03*
X005430Y018663D03*
X006430Y018663D03*
X007430Y018663D03*
X008430Y018663D03*
X009430Y018663D03*
X010430Y018663D03*
X011430Y018663D03*
X012430Y018663D03*
X013430Y018663D03*
X014430Y018663D03*
X015430Y018663D03*
X015430Y016663D03*
X014430Y016663D03*
X013430Y016663D03*
X012430Y016663D03*
X011430Y016663D03*
X010430Y016663D03*
X009430Y016663D03*
X008430Y016663D03*
X007430Y016663D03*
X006430Y016663D03*
X005430Y016663D03*
X004430Y016663D03*
X003430Y016663D03*
X002430Y016663D03*
X002430Y015663D03*
X003430Y015663D03*
X004430Y015663D03*
X005430Y015663D03*
X006430Y015663D03*
X007430Y015663D03*
X008430Y015663D03*
X009430Y015663D03*
X010430Y015663D03*
X011430Y015663D03*
X012430Y015663D03*
X013430Y015663D03*
X014430Y015663D03*
X015430Y015663D03*
X016430Y015663D03*
X017430Y015663D03*
X018430Y015663D03*
X019430Y015663D03*
X020430Y015663D03*
X021430Y015663D03*
X022430Y015663D03*
X023430Y015663D03*
X024430Y015663D03*
X024430Y016663D03*
X023430Y016663D03*
X022430Y016663D03*
X021430Y016663D03*
X020430Y016663D03*
X019430Y016663D03*
X018430Y016663D03*
X017430Y016663D03*
X016430Y016663D03*
X016430Y014663D03*
X017430Y014663D03*
X018430Y014663D03*
X019430Y014663D03*
X020430Y014663D03*
X021430Y014663D03*
X022430Y014663D03*
X023430Y014663D03*
X024430Y014663D03*
X024430Y013663D03*
X023430Y013663D03*
X022430Y013663D03*
X021430Y013663D03*
X020430Y013663D03*
X019430Y013663D03*
X018430Y013663D03*
X017430Y013663D03*
X016430Y013663D03*
X015430Y013663D03*
X014430Y013663D03*
X013430Y013663D03*
X012430Y013663D03*
X011430Y013663D03*
X010430Y013663D03*
X009430Y013663D03*
X008430Y013663D03*
X007430Y013663D03*
X006430Y013663D03*
X005430Y013663D03*
X004430Y013663D03*
X003430Y013663D03*
X002430Y013663D03*
X002430Y014663D03*
X003430Y014663D03*
X004430Y014663D03*
X005430Y014663D03*
X006430Y014663D03*
X007430Y014663D03*
X008430Y014663D03*
X009430Y014663D03*
X010430Y014663D03*
X011430Y014663D03*
X012430Y014663D03*
X013430Y014663D03*
X014430Y014663D03*
X015430Y014663D03*
X015430Y012663D03*
X014430Y012663D03*
X013430Y012663D03*
X012430Y012663D03*
X011430Y012663D03*
X010430Y012663D03*
X009430Y012663D03*
X008430Y012663D03*
X007430Y012663D03*
X006430Y012663D03*
X005430Y012663D03*
X004430Y012663D03*
X003430Y012663D03*
X002430Y012663D03*
X002430Y011663D03*
X003430Y011663D03*
X004430Y011663D03*
X005430Y011663D03*
X006430Y011663D03*
X007430Y011663D03*
X008430Y011663D03*
X009430Y011663D03*
X010430Y011663D03*
X011430Y011663D03*
X012430Y011663D03*
X013430Y011663D03*
X014430Y011663D03*
X015430Y011663D03*
X016430Y011663D03*
X017430Y011663D03*
X018430Y011663D03*
X019430Y011663D03*
X020430Y011663D03*
X021430Y011663D03*
X022430Y011663D03*
X023430Y011663D03*
X024430Y011663D03*
X025430Y011663D03*
X026430Y011663D03*
X027430Y011663D03*
X028430Y011663D03*
X029430Y011663D03*
X030430Y011663D03*
X031430Y011663D03*
X032430Y011663D03*
X033430Y011663D03*
X034430Y011663D03*
X035430Y011663D03*
X035430Y012663D03*
X034430Y012663D03*
X033430Y012663D03*
X032430Y012663D03*
X031430Y012663D03*
X030430Y012663D03*
X029430Y012663D03*
X028430Y012663D03*
X027430Y012663D03*
X026430Y012663D03*
X025430Y012663D03*
X024430Y012663D03*
X023430Y012663D03*
X022430Y012663D03*
X021430Y012663D03*
X020430Y012663D03*
X019430Y012663D03*
X018430Y012663D03*
X017430Y012663D03*
X016430Y012663D03*
X016430Y010663D03*
X017430Y010663D03*
X018430Y010663D03*
X019430Y010663D03*
X020430Y010663D03*
X021430Y010663D03*
X022430Y010663D03*
X023430Y010663D03*
X024430Y010663D03*
X025430Y010663D03*
X026430Y010663D03*
X027430Y010663D03*
X028430Y010663D03*
X029430Y010663D03*
X030430Y010663D03*
X031430Y010663D03*
X032430Y010663D03*
X033430Y010663D03*
X034430Y010663D03*
X035430Y010663D03*
X035430Y009663D03*
X034430Y009663D03*
X033430Y009663D03*
X032430Y009663D03*
X031430Y009663D03*
X030430Y009663D03*
X029430Y009663D03*
X028430Y009663D03*
X027430Y009663D03*
X026430Y009663D03*
X025430Y009663D03*
X024430Y009663D03*
X023430Y009663D03*
X022430Y009663D03*
X021430Y009663D03*
X020430Y009663D03*
X019430Y009663D03*
X018430Y009663D03*
X017430Y009663D03*
X016430Y009663D03*
X015430Y009663D03*
X014430Y009663D03*
X013430Y009663D03*
X012430Y009663D03*
X011430Y009663D03*
X010430Y009663D03*
X009430Y009663D03*
X008430Y009663D03*
X007430Y009663D03*
X006430Y009663D03*
X005430Y009663D03*
X004430Y009663D03*
X003430Y009663D03*
X002430Y009663D03*
X002430Y010663D03*
X003430Y010663D03*
X004430Y010663D03*
X005430Y010663D03*
X006430Y010663D03*
X007430Y010663D03*
X008430Y010663D03*
X009430Y010663D03*
X010430Y010663D03*
X011430Y010663D03*
X012430Y010663D03*
X013430Y010663D03*
X014430Y010663D03*
X015430Y010663D03*
X015430Y008663D03*
X014430Y008663D03*
X013430Y008663D03*
X012430Y008663D03*
X011430Y008663D03*
X010430Y008663D03*
X009430Y008663D03*
X008430Y008663D03*
X007430Y008663D03*
X006430Y008663D03*
X005430Y008663D03*
X004430Y008663D03*
X003430Y008663D03*
X002430Y008663D03*
X016430Y008663D03*
X017430Y008663D03*
X018430Y008663D03*
X019430Y008663D03*
X020430Y008663D03*
X021430Y008663D03*
X022430Y008663D03*
X023430Y008663D03*
X024430Y008663D03*
X025430Y008663D03*
X026430Y008663D03*
X027430Y008663D03*
X028430Y008663D03*
X029430Y008663D03*
X030430Y008663D03*
X031430Y008663D03*
X032430Y008663D03*
X033430Y008663D03*
X034430Y008663D03*
X035430Y008663D03*
M02*
