G75*
G70*
%OFA0B0*%
%FSLAX24Y24*%
%IPPOS*%
%LPD*%
%AMOC8*
5,1,8,0,0,1.08239X$1,22.5*
%
%ADD10C,0.0080*%
%ADD11C,0.0050*%
%ADD12C,0.0060*%
%ADD13C,0.0059*%
%ADD14C,0.0150*%
%ADD15R,0.0079X0.0079*%
%ADD16R,0.0620X0.0240*%
%ADD17C,0.0394*%
D10*
X001180Y005163D02*
X002010Y005163D01*
X002279Y005163D02*
X002331Y005163D01*
X002600Y005163D02*
X003430Y005163D01*
X001180Y005163D02*
X001180Y006195D01*
X001180Y006465D02*
X001180Y006516D01*
X001180Y006786D02*
X001180Y007818D01*
X001180Y008088D02*
X001180Y008139D01*
X001180Y008408D02*
X001180Y009441D01*
X001180Y009710D02*
X001180Y009761D01*
X001180Y010031D02*
X001180Y011063D01*
X001180Y011333D02*
X001180Y011384D01*
X001180Y011654D02*
X001180Y012686D01*
X001180Y012956D02*
X001180Y013007D01*
X001180Y013277D02*
X001180Y014309D01*
X001180Y014578D02*
X001180Y014629D01*
X001180Y014899D02*
X001180Y015931D01*
X001180Y016201D02*
X001180Y016252D01*
X001180Y016522D02*
X001180Y017554D01*
X001180Y017824D02*
X001180Y017875D01*
X001180Y018145D02*
X001180Y019177D01*
X001180Y019447D02*
X001180Y019498D01*
X001180Y019767D02*
X001180Y020799D01*
X001180Y021069D02*
X001180Y021120D01*
X001180Y021390D02*
X001180Y022422D01*
X001180Y022692D02*
X001180Y022743D01*
X001180Y023013D02*
X001180Y024045D01*
X001180Y024315D02*
X001180Y024366D01*
X001180Y024635D02*
X001180Y025668D01*
X001180Y025937D02*
X001180Y025988D01*
X001180Y026258D02*
X001180Y027290D01*
X001180Y027560D02*
X001180Y027611D01*
X001180Y027881D02*
X001180Y028913D01*
X002510Y028913D01*
X002779Y028913D02*
X002831Y028913D01*
X003100Y028913D02*
X004430Y028913D01*
X010805Y028913D02*
X012385Y028913D01*
X012654Y028913D02*
X012706Y028913D01*
X012975Y028913D02*
X014555Y028913D01*
X021629Y026064D02*
X021629Y025749D01*
X021629Y026064D02*
X021865Y026064D01*
X022495Y026064D02*
X022731Y026064D01*
X022731Y025749D01*
X029930Y028913D02*
X031328Y028913D01*
X031598Y028913D02*
X031649Y028913D01*
X031919Y028913D02*
X033316Y028913D01*
X033586Y028913D02*
X033637Y028913D01*
X033907Y028913D02*
X035305Y028913D01*
X036055Y028913D02*
X037697Y028913D01*
X037967Y028913D02*
X038018Y028913D01*
X038288Y028913D02*
X039930Y028913D01*
X039930Y027881D01*
X039930Y027611D02*
X039930Y027560D01*
X039930Y027290D02*
X039930Y026258D01*
X039930Y025988D02*
X039930Y025937D01*
X039930Y025668D02*
X039930Y024635D01*
X039930Y024366D02*
X039930Y024315D01*
X039930Y024045D02*
X039930Y023013D01*
X039930Y022743D02*
X039930Y022692D01*
X039930Y022422D02*
X039930Y021390D01*
X039930Y021120D02*
X039930Y021069D01*
X039930Y020799D02*
X039930Y019767D01*
X039930Y019498D02*
X039930Y019447D01*
X039930Y019177D02*
X039930Y018145D01*
X039930Y017875D02*
X039930Y017824D01*
X039930Y017554D02*
X039930Y016522D01*
X039930Y016252D02*
X039930Y016201D01*
X039930Y015931D02*
X039930Y014899D01*
X039930Y014629D02*
X039930Y014578D01*
X039930Y014309D02*
X039930Y013277D01*
X039930Y013007D02*
X039930Y012956D01*
X039930Y012686D02*
X039930Y011654D01*
X039930Y011384D02*
X039930Y011333D01*
X039930Y011063D02*
X039930Y010031D01*
X039930Y009761D02*
X039930Y009710D01*
X039930Y009441D02*
X039930Y008408D01*
X039930Y008139D02*
X039930Y008088D01*
X039930Y007818D02*
X039930Y006786D01*
X039930Y006516D02*
X039930Y006465D01*
X039930Y006195D02*
X039930Y005163D01*
X038652Y005163D01*
X038383Y005163D02*
X038332Y005163D01*
X038062Y005163D02*
X036784Y005163D01*
X036515Y005163D02*
X036464Y005163D01*
X036194Y005163D02*
X034916Y005163D01*
X034646Y005163D02*
X034595Y005163D01*
X034326Y005163D02*
X033048Y005163D01*
X032778Y005163D02*
X032727Y005163D01*
X032458Y005163D02*
X031180Y005163D01*
X024181Y007523D02*
X024111Y007453D01*
X023971Y007453D01*
X023901Y007523D01*
X023971Y007663D02*
X024111Y007663D01*
X024181Y007593D01*
X024181Y007523D01*
X023971Y007663D02*
X023901Y007733D01*
X023901Y007803D01*
X023971Y007873D01*
X024111Y007873D01*
X024181Y007803D01*
X023720Y007803D02*
X023720Y007663D01*
X023650Y007593D01*
X023440Y007593D01*
X023440Y007453D02*
X023440Y007873D01*
X023650Y007873D01*
X023720Y007803D01*
X023260Y007873D02*
X023260Y007453D01*
X022980Y007453D02*
X022980Y007873D01*
X023120Y007733D01*
X023260Y007873D01*
X022800Y007733D02*
X022800Y007453D01*
X022800Y007663D02*
X022519Y007663D01*
X022519Y007733D02*
X022659Y007873D01*
X022800Y007733D01*
X022519Y007733D02*
X022519Y007453D01*
X022339Y007453D02*
X022199Y007593D01*
X022269Y007593D02*
X022059Y007593D01*
X022059Y007453D02*
X022059Y007873D01*
X022269Y007873D01*
X022339Y007803D01*
X022339Y007663D01*
X022269Y007593D01*
X021425Y007733D02*
X021355Y007733D01*
X021215Y007593D01*
X021215Y007453D02*
X021215Y007733D01*
X021035Y007663D02*
X021035Y007523D01*
X020965Y007453D01*
X020825Y007453D01*
X020755Y007523D01*
X020755Y007663D01*
X020825Y007733D01*
X020965Y007733D01*
X021035Y007663D01*
X020588Y007663D02*
X020448Y007663D01*
X020518Y007803D02*
X020588Y007873D01*
X020518Y007803D02*
X020518Y007453D01*
X019807Y007453D02*
X019807Y007663D01*
X019737Y007733D01*
X019527Y007733D01*
X019527Y007453D01*
X019347Y007523D02*
X019347Y007663D01*
X019277Y007733D01*
X019136Y007733D01*
X019066Y007663D01*
X019066Y007523D01*
X019136Y007453D01*
X019277Y007453D01*
X019347Y007523D01*
X018900Y007453D02*
X018759Y007453D01*
X018830Y007453D02*
X018830Y007733D01*
X018759Y007733D01*
X018830Y007873D02*
X018830Y007943D01*
X018579Y007733D02*
X018369Y007733D01*
X018299Y007663D01*
X018369Y007593D01*
X018509Y007593D01*
X018579Y007523D01*
X018509Y007453D01*
X018299Y007453D01*
X018119Y007453D02*
X018119Y007663D01*
X018049Y007733D01*
X017839Y007733D01*
X017839Y007453D01*
X017659Y007453D02*
X017448Y007453D01*
X017378Y007523D01*
X017448Y007593D01*
X017659Y007593D01*
X017659Y007663D02*
X017659Y007453D01*
X017659Y007663D02*
X017588Y007733D01*
X017448Y007733D01*
X017198Y007663D02*
X017198Y007523D01*
X017128Y007453D01*
X016918Y007453D01*
X016918Y007313D02*
X016918Y007733D01*
X017128Y007733D01*
X017198Y007663D01*
X016738Y007733D02*
X016458Y007453D01*
X016277Y007593D02*
X016277Y007663D01*
X016207Y007733D01*
X016067Y007733D01*
X015997Y007663D01*
X015997Y007523D01*
X016067Y007453D01*
X016207Y007453D01*
X016277Y007593D02*
X015997Y007593D01*
X016458Y007733D02*
X016738Y007453D01*
X015357Y007453D02*
X015146Y007453D01*
X015076Y007523D01*
X015076Y007663D01*
X015146Y007733D01*
X015357Y007733D01*
X015357Y007873D02*
X015357Y007453D01*
X014903Y007733D02*
X014833Y007733D01*
X014693Y007593D01*
X014693Y007453D02*
X014693Y007733D01*
X014513Y007663D02*
X014513Y007453D01*
X014302Y007453D01*
X014232Y007523D01*
X014302Y007593D01*
X014513Y007593D01*
X014513Y007663D02*
X014442Y007733D01*
X014302Y007733D01*
X014052Y007803D02*
X013982Y007873D01*
X013842Y007873D01*
X013772Y007803D01*
X013772Y007523D01*
X013842Y007453D01*
X013982Y007453D01*
X014052Y007523D01*
X013592Y007523D02*
X013592Y007803D01*
X013522Y007873D01*
X013312Y007873D01*
X013312Y007453D01*
X013522Y007453D01*
X013592Y007523D01*
X013131Y007523D02*
X013061Y007453D01*
X012921Y007453D01*
X012851Y007523D01*
X012921Y007663D02*
X013061Y007663D01*
X013131Y007593D01*
X013131Y007523D01*
X012921Y007663D02*
X012851Y007733D01*
X012851Y007803D01*
X012921Y007873D01*
X013061Y007873D01*
X013131Y007803D01*
X012671Y007873D02*
X012391Y007453D01*
X012211Y007593D02*
X011930Y007593D01*
X011930Y007523D02*
X011930Y007663D01*
X012000Y007733D01*
X012141Y007733D01*
X012211Y007663D01*
X012211Y007593D01*
X012141Y007453D02*
X012000Y007453D01*
X011930Y007523D01*
X011764Y007453D02*
X011623Y007453D01*
X011693Y007453D02*
X011693Y007873D01*
X011623Y007873D01*
X011443Y007663D02*
X011443Y007523D01*
X011373Y007453D01*
X011163Y007453D01*
X011163Y007313D02*
X011163Y007733D01*
X011373Y007733D01*
X011443Y007663D01*
X010983Y007733D02*
X010983Y007453D01*
X010773Y007453D01*
X010703Y007523D01*
X010703Y007733D01*
X010522Y007663D02*
X010452Y007733D01*
X010312Y007733D01*
X010242Y007663D01*
X010242Y007523D01*
X010312Y007453D01*
X010452Y007453D01*
X010522Y007523D01*
X010522Y007663D01*
X010062Y007733D02*
X009852Y007733D01*
X009782Y007663D01*
X009782Y007523D01*
X009852Y007453D01*
X010062Y007453D01*
X009602Y007523D02*
X009602Y007663D01*
X009532Y007733D01*
X009391Y007733D01*
X009321Y007663D01*
X009321Y007523D01*
X009391Y007453D01*
X009532Y007453D01*
X009602Y007523D01*
X009141Y007453D02*
X009141Y007663D01*
X009071Y007733D01*
X009001Y007663D01*
X009001Y007453D01*
X008861Y007453D02*
X008861Y007733D01*
X008931Y007733D01*
X009001Y007663D01*
X008688Y007733D02*
X008618Y007733D01*
X008477Y007593D01*
X008477Y007453D02*
X008477Y007733D01*
X008297Y007663D02*
X008297Y007593D01*
X008017Y007593D01*
X008017Y007523D02*
X008017Y007663D01*
X008087Y007733D01*
X008227Y007733D01*
X008297Y007663D01*
X008227Y007453D02*
X008087Y007453D01*
X008017Y007523D01*
X007837Y007453D02*
X007837Y007663D01*
X007767Y007733D01*
X007627Y007733D01*
X007557Y007663D01*
X007557Y007873D02*
X007557Y007453D01*
X007236Y007453D02*
X007236Y007873D01*
X007096Y007873D02*
X007376Y007873D01*
X006916Y007873D02*
X006636Y007453D01*
X006456Y007453D02*
X006245Y007453D01*
X006175Y007523D01*
X006175Y007733D01*
X005995Y007663D02*
X005995Y007453D01*
X005785Y007453D01*
X005715Y007523D01*
X005785Y007593D01*
X005995Y007593D01*
X005995Y007663D02*
X005925Y007733D01*
X005785Y007733D01*
X005478Y007873D02*
X005478Y007453D01*
X005408Y007453D02*
X005548Y007453D01*
X005228Y007523D02*
X005228Y007663D01*
X005158Y007733D01*
X004948Y007733D01*
X004948Y007313D01*
X004948Y007453D02*
X005158Y007453D01*
X005228Y007523D01*
X005408Y007873D02*
X005478Y007873D01*
X006456Y007733D02*
X006456Y007383D01*
X006386Y007313D01*
X006316Y007313D01*
X004768Y007523D02*
X004698Y007593D01*
X004557Y007593D01*
X004487Y007663D01*
X004557Y007733D01*
X004768Y007733D01*
X004768Y007523D02*
X004698Y007453D01*
X004487Y007453D01*
X004321Y007453D02*
X004180Y007453D01*
X004250Y007453D02*
X004250Y007733D01*
X004180Y007733D01*
X004250Y007873D02*
X004250Y007943D01*
X004000Y007803D02*
X003930Y007873D01*
X003720Y007873D01*
X003720Y007453D01*
X003930Y007453D01*
X004000Y007523D01*
X004000Y007803D01*
X042030Y019663D02*
X043330Y019663D01*
X043080Y019913D02*
X043082Y019933D01*
X043088Y019951D01*
X043097Y019969D01*
X043109Y019984D01*
X043124Y019996D01*
X043142Y020005D01*
X043160Y020011D01*
X043180Y020013D01*
X043200Y020011D01*
X043218Y020005D01*
X043236Y019996D01*
X043251Y019984D01*
X043263Y019969D01*
X043272Y019951D01*
X043278Y019933D01*
X043280Y019913D01*
X043278Y019893D01*
X043272Y019875D01*
X043263Y019857D01*
X043251Y019842D01*
X043236Y019830D01*
X043218Y019821D01*
X043200Y019815D01*
X043180Y019813D01*
X043160Y019815D01*
X043142Y019821D01*
X043124Y019830D01*
X043109Y019842D01*
X043097Y019857D01*
X043088Y019875D01*
X043082Y019893D01*
X043080Y019913D01*
X043694Y018285D02*
X044166Y018285D01*
X043930Y017891D01*
X043694Y018285D01*
X043916Y015498D02*
X043916Y013518D01*
X045747Y012909D02*
X046613Y012909D01*
X044412Y012663D02*
X044414Y012750D01*
X044421Y012836D01*
X044431Y012922D01*
X044446Y013008D01*
X044465Y013093D01*
X044488Y013176D01*
X044515Y013259D01*
X044547Y013340D01*
X044582Y013419D01*
X044621Y013496D01*
X044664Y013572D01*
X044710Y013645D01*
X044760Y013716D01*
X044813Y013785D01*
X044870Y013850D01*
X044930Y013913D01*
X044993Y013973D01*
X045058Y014030D01*
X045127Y014083D01*
X045198Y014133D01*
X045271Y014179D01*
X045347Y014222D01*
X045424Y014261D01*
X045503Y014296D01*
X045584Y014328D01*
X045667Y014355D01*
X045750Y014378D01*
X045835Y014397D01*
X045921Y014412D01*
X046007Y014422D01*
X046093Y014429D01*
X046180Y014431D01*
X046267Y014429D01*
X046353Y014422D01*
X046439Y014412D01*
X046525Y014397D01*
X046610Y014378D01*
X046693Y014355D01*
X046776Y014328D01*
X046857Y014296D01*
X046936Y014261D01*
X047013Y014222D01*
X047089Y014179D01*
X047162Y014133D01*
X047233Y014083D01*
X047302Y014030D01*
X047367Y013973D01*
X047430Y013913D01*
X047490Y013850D01*
X047547Y013785D01*
X047600Y013716D01*
X047650Y013645D01*
X047696Y013572D01*
X047739Y013496D01*
X047778Y013419D01*
X047813Y013340D01*
X047845Y013259D01*
X047872Y013176D01*
X047895Y013093D01*
X047914Y013008D01*
X047929Y012922D01*
X047939Y012836D01*
X047946Y012750D01*
X047948Y012663D01*
X047946Y012576D01*
X047939Y012490D01*
X047929Y012404D01*
X047914Y012318D01*
X047895Y012233D01*
X047872Y012150D01*
X047845Y012067D01*
X047813Y011986D01*
X047778Y011907D01*
X047739Y011830D01*
X047696Y011754D01*
X047650Y011681D01*
X047600Y011610D01*
X047547Y011541D01*
X047490Y011476D01*
X047430Y011413D01*
X047367Y011353D01*
X047302Y011296D01*
X047233Y011243D01*
X047162Y011193D01*
X047089Y011147D01*
X047013Y011104D01*
X046936Y011065D01*
X046857Y011030D01*
X046776Y010998D01*
X046693Y010971D01*
X046610Y010948D01*
X046525Y010929D01*
X046439Y010914D01*
X046353Y010904D01*
X046267Y010897D01*
X046180Y010895D01*
X046093Y010897D01*
X046007Y010904D01*
X045921Y010914D01*
X045835Y010929D01*
X045750Y010948D01*
X045667Y010971D01*
X045584Y010998D01*
X045503Y011030D01*
X045424Y011065D01*
X045347Y011104D01*
X045271Y011147D01*
X045198Y011193D01*
X045127Y011243D01*
X045058Y011296D01*
X044993Y011353D01*
X044930Y011413D01*
X044870Y011476D01*
X044813Y011541D01*
X044760Y011610D01*
X044710Y011681D01*
X044664Y011754D01*
X044621Y011830D01*
X044582Y011907D01*
X044547Y011986D01*
X044515Y012067D01*
X044488Y012150D01*
X044465Y012233D01*
X044446Y012318D01*
X044431Y012404D01*
X044421Y012490D01*
X044414Y012576D01*
X044412Y012663D01*
X043916Y011748D02*
X043916Y010143D01*
X048444Y010143D01*
X048444Y011748D01*
X046613Y012909D02*
X046633Y012870D01*
X046649Y012830D01*
X046662Y012789D01*
X046671Y012747D01*
X046676Y012704D01*
X046678Y012660D01*
X046676Y012617D01*
X046670Y012574D01*
X046660Y012532D01*
X046647Y012491D01*
X046631Y012451D01*
X046610Y012413D01*
X046587Y012376D01*
X046561Y012342D01*
X046531Y012310D01*
X046499Y012281D01*
X046465Y012254D01*
X046428Y012231D01*
X046390Y012211D01*
X046350Y012195D01*
X046308Y012182D01*
X046266Y012173D01*
X046223Y012167D01*
X046180Y012165D01*
X046137Y012167D01*
X046094Y012173D01*
X046052Y012182D01*
X046010Y012195D01*
X045970Y012211D01*
X045932Y012231D01*
X045895Y012254D01*
X045861Y012281D01*
X045829Y012310D01*
X045799Y012342D01*
X045773Y012376D01*
X045750Y012413D01*
X045729Y012451D01*
X045713Y012491D01*
X045700Y012532D01*
X045690Y012574D01*
X045684Y012617D01*
X045682Y012660D01*
X045684Y012704D01*
X045689Y012747D01*
X045698Y012789D01*
X045711Y012830D01*
X045727Y012870D01*
X045747Y012909D01*
X048444Y013518D02*
X048444Y015498D01*
X047666Y015498D01*
X046694Y015498D02*
X045666Y015498D01*
X044694Y015498D02*
X043916Y015498D01*
X043330Y021663D02*
X042030Y021663D01*
X042030Y023913D02*
X043330Y023913D01*
X043080Y024163D02*
X043082Y024183D01*
X043088Y024201D01*
X043097Y024219D01*
X043109Y024234D01*
X043124Y024246D01*
X043142Y024255D01*
X043160Y024261D01*
X043180Y024263D01*
X043200Y024261D01*
X043218Y024255D01*
X043236Y024246D01*
X043251Y024234D01*
X043263Y024219D01*
X043272Y024201D01*
X043278Y024183D01*
X043280Y024163D01*
X043278Y024143D01*
X043272Y024125D01*
X043263Y024107D01*
X043251Y024092D01*
X043236Y024080D01*
X043218Y024071D01*
X043200Y024065D01*
X043180Y024063D01*
X043160Y024065D01*
X043142Y024071D01*
X043124Y024080D01*
X043109Y024092D01*
X043097Y024107D01*
X043088Y024125D01*
X043082Y024143D01*
X043080Y024163D01*
X043330Y025913D02*
X042030Y025913D01*
X042030Y028163D02*
X043330Y028163D01*
X043080Y028413D02*
X043082Y028433D01*
X043088Y028451D01*
X043097Y028469D01*
X043109Y028484D01*
X043124Y028496D01*
X043142Y028505D01*
X043160Y028511D01*
X043180Y028513D01*
X043200Y028511D01*
X043218Y028505D01*
X043236Y028496D01*
X043251Y028484D01*
X043263Y028469D01*
X043272Y028451D01*
X043278Y028433D01*
X043280Y028413D01*
X043278Y028393D01*
X043272Y028375D01*
X043263Y028357D01*
X043251Y028342D01*
X043236Y028330D01*
X043218Y028321D01*
X043200Y028315D01*
X043180Y028313D01*
X043160Y028315D01*
X043142Y028321D01*
X043124Y028330D01*
X043109Y028342D01*
X043097Y028357D01*
X043088Y028375D01*
X043082Y028393D01*
X043080Y028413D01*
X043330Y030163D02*
X042030Y030163D01*
D11*
X042044Y030438D02*
X042224Y030708D01*
X042339Y030663D02*
X042384Y030708D01*
X042474Y030708D01*
X042519Y030663D01*
X042519Y030618D01*
X042474Y030573D01*
X042519Y030528D01*
X042519Y030483D01*
X042474Y030438D01*
X042384Y030438D01*
X042339Y030483D01*
X042224Y030438D02*
X042044Y030708D01*
X041930Y030618D02*
X041930Y030438D01*
X041930Y030573D02*
X041750Y030573D01*
X041750Y030618D02*
X041840Y030708D01*
X041930Y030618D01*
X041750Y030618D02*
X041750Y030438D01*
X041635Y030438D02*
X041635Y030708D01*
X041545Y030618D01*
X041455Y030708D01*
X041455Y030438D01*
X042429Y030573D02*
X042474Y030573D01*
X042634Y030618D02*
X042724Y030708D01*
X042724Y030438D01*
X042634Y030438D02*
X042814Y030438D01*
X042928Y030483D02*
X042973Y030438D01*
X043063Y030438D01*
X043108Y030483D01*
X043108Y030528D01*
X043063Y030573D01*
X042973Y030573D01*
X042928Y030618D01*
X042928Y030663D01*
X042973Y030708D01*
X043063Y030708D01*
X043108Y030663D01*
X043108Y030618D01*
X043063Y030573D01*
X042973Y030573D02*
X042928Y030528D01*
X042928Y030483D01*
X043223Y030483D02*
X043268Y030438D01*
X043358Y030438D01*
X043403Y030483D01*
X043403Y030573D01*
X043358Y030618D01*
X043313Y030618D01*
X043223Y030573D01*
X043223Y030708D01*
X043403Y030708D01*
X043518Y030708D02*
X043518Y030573D01*
X043608Y030618D01*
X043653Y030618D01*
X043698Y030573D01*
X043698Y030483D01*
X043653Y030438D01*
X043563Y030438D01*
X043518Y030483D01*
X043518Y030708D02*
X043698Y030708D01*
X043812Y030708D02*
X043812Y030438D01*
X043812Y030528D02*
X043992Y030708D01*
X043857Y030573D02*
X043992Y030438D01*
X048980Y029533D02*
X051380Y029533D01*
X051380Y026833D02*
X048680Y026833D01*
X048332Y026458D02*
X048152Y026278D01*
X048197Y026323D02*
X048332Y026188D01*
X048152Y026188D02*
X048152Y026458D01*
X048037Y026323D02*
X047857Y026323D01*
X047742Y026278D02*
X047742Y026458D01*
X047562Y026458D02*
X047562Y026278D01*
X047652Y026188D01*
X047742Y026278D01*
X047448Y026323D02*
X047268Y026323D01*
X047153Y026323D02*
X047108Y026278D01*
X046973Y026278D01*
X046973Y026188D02*
X046973Y026458D01*
X047108Y026458D01*
X047153Y026413D01*
X047153Y026323D01*
X046858Y026458D02*
X046858Y026188D01*
X046678Y026188D02*
X046678Y026458D01*
X046768Y026368D01*
X046858Y026458D01*
X046564Y026413D02*
X046519Y026458D01*
X046429Y026458D01*
X046384Y026413D01*
X046384Y026368D01*
X046429Y026323D01*
X046519Y026323D01*
X046564Y026278D01*
X046564Y026233D01*
X046519Y026188D01*
X046429Y026188D01*
X046384Y026233D01*
X046269Y026323D02*
X046089Y026323D01*
X045974Y026233D02*
X045929Y026188D01*
X045839Y026188D01*
X045794Y026233D01*
X045794Y026413D01*
X045839Y026458D01*
X045929Y026458D01*
X045974Y026413D01*
X045680Y026413D02*
X045635Y026458D01*
X045545Y026458D01*
X045500Y026413D01*
X045500Y026233D01*
X045545Y026188D01*
X045635Y026188D01*
X045680Y026233D01*
X045385Y026323D02*
X045340Y026278D01*
X045205Y026278D01*
X045205Y026188D02*
X045205Y026458D01*
X045340Y026458D01*
X045385Y026413D01*
X045385Y026323D01*
X043992Y026188D02*
X043857Y026323D01*
X043812Y026278D02*
X043992Y026458D01*
X043812Y026458D02*
X043812Y026188D01*
X043698Y026233D02*
X043653Y026188D01*
X043563Y026188D01*
X043518Y026233D01*
X043518Y026323D02*
X043608Y026368D01*
X043653Y026368D01*
X043698Y026323D01*
X043698Y026233D01*
X043518Y026323D02*
X043518Y026458D01*
X043698Y026458D01*
X043403Y026458D02*
X043223Y026458D01*
X043223Y026323D01*
X043313Y026368D01*
X043358Y026368D01*
X043403Y026323D01*
X043403Y026233D01*
X043358Y026188D01*
X043268Y026188D01*
X043223Y026233D01*
X043108Y026233D02*
X043063Y026188D01*
X042973Y026188D01*
X042928Y026233D01*
X042928Y026278D01*
X042973Y026323D01*
X043063Y026323D01*
X043108Y026278D01*
X043108Y026233D01*
X043063Y026323D02*
X043108Y026368D01*
X043108Y026413D01*
X043063Y026458D01*
X042973Y026458D01*
X042928Y026413D01*
X042928Y026368D01*
X042973Y026323D01*
X042814Y026188D02*
X042634Y026188D01*
X042724Y026188D02*
X042724Y026458D01*
X042634Y026368D01*
X042519Y026368D02*
X042474Y026323D01*
X042519Y026278D01*
X042519Y026233D01*
X042474Y026188D01*
X042384Y026188D01*
X042339Y026233D01*
X042224Y026188D02*
X042044Y026458D01*
X041930Y026368D02*
X041930Y026188D01*
X042044Y026188D02*
X042224Y026458D01*
X042339Y026413D02*
X042384Y026458D01*
X042474Y026458D01*
X042519Y026413D01*
X042519Y026368D01*
X042474Y026323D02*
X042429Y026323D01*
X041930Y026323D02*
X041750Y026323D01*
X041750Y026368D02*
X041840Y026458D01*
X041930Y026368D01*
X041750Y026368D02*
X041750Y026188D01*
X041635Y026188D02*
X041635Y026458D01*
X041545Y026368D01*
X041455Y026458D01*
X041455Y026188D01*
X041436Y027190D02*
X041616Y027190D01*
X041526Y027190D02*
X041526Y027460D01*
X041436Y027370D01*
X041731Y027415D02*
X041776Y027460D01*
X041866Y027460D01*
X041911Y027415D01*
X041731Y027235D01*
X041776Y027190D01*
X041866Y027190D01*
X041911Y027235D01*
X041911Y027415D01*
X042026Y027415D02*
X042071Y027460D01*
X042161Y027460D01*
X042206Y027415D01*
X042026Y027235D01*
X042071Y027190D01*
X042161Y027190D01*
X042206Y027235D01*
X042206Y027415D01*
X042320Y027370D02*
X042455Y027370D01*
X042500Y027325D01*
X042500Y027190D01*
X042320Y027190D02*
X042320Y027370D01*
X042026Y027415D02*
X042026Y027235D01*
X041731Y027235D02*
X041731Y027415D01*
X037008Y027158D02*
X037008Y027113D01*
X036828Y026933D01*
X036828Y026888D01*
X036714Y026888D02*
X036534Y026888D01*
X036624Y026888D02*
X036624Y027158D01*
X036534Y027068D01*
X036419Y026888D02*
X036239Y026888D01*
X036329Y026888D02*
X036329Y027158D01*
X036239Y027068D01*
X036124Y026888D02*
X035944Y026888D01*
X036034Y026888D02*
X036034Y027158D01*
X035944Y027068D01*
X035830Y027113D02*
X035785Y027158D01*
X035650Y027158D01*
X035650Y026888D01*
X035785Y026888D01*
X035830Y026933D01*
X035830Y027113D01*
X035535Y026888D02*
X035355Y026888D01*
X035355Y027158D01*
X036828Y027158D02*
X037008Y027158D01*
X033348Y026288D02*
X033348Y026243D01*
X033303Y026198D01*
X033168Y026198D01*
X033303Y026198D02*
X033348Y026153D01*
X033348Y026108D01*
X033303Y026063D01*
X033168Y026063D01*
X033168Y026333D01*
X033303Y026333D01*
X033348Y026288D01*
X033053Y026288D02*
X032873Y026108D01*
X032918Y026063D01*
X033008Y026063D01*
X033053Y026108D01*
X033053Y026288D01*
X033008Y026333D01*
X032918Y026333D01*
X032873Y026288D01*
X032873Y026108D01*
X032758Y026108D02*
X032713Y026063D01*
X032623Y026063D01*
X032578Y026108D01*
X032578Y026198D02*
X032668Y026243D01*
X032713Y026243D01*
X032758Y026198D01*
X032758Y026108D01*
X032578Y026198D02*
X032578Y026333D01*
X032758Y026333D01*
X032464Y026288D02*
X032284Y026108D01*
X032329Y026063D01*
X032419Y026063D01*
X032464Y026108D01*
X032464Y026288D01*
X032419Y026333D01*
X032329Y026333D01*
X032284Y026288D01*
X032284Y026108D01*
X032169Y026198D02*
X031989Y026198D01*
X032124Y026333D01*
X032124Y026063D01*
X031784Y026198D02*
X031694Y026198D01*
X031694Y026063D02*
X031694Y026333D01*
X031874Y026333D01*
X031580Y026333D02*
X031400Y026333D01*
X031400Y026063D01*
X031580Y026063D01*
X031490Y026198D02*
X031400Y026198D01*
X031285Y026198D02*
X031105Y026198D01*
X031105Y026063D02*
X031105Y026333D01*
X031285Y026333D02*
X031285Y026063D01*
X034330Y023118D02*
X034420Y023208D01*
X034420Y022938D01*
X034330Y022938D02*
X034510Y022938D01*
X034625Y022983D02*
X034805Y023163D01*
X034805Y022983D01*
X034760Y022938D01*
X034670Y022938D01*
X034625Y022983D01*
X034625Y023163D01*
X034670Y023208D01*
X034760Y023208D01*
X034805Y023163D01*
X034919Y023208D02*
X034919Y022938D01*
X034919Y023028D02*
X035054Y023118D01*
X034919Y023028D02*
X035054Y022938D01*
X035561Y022995D02*
X035651Y023085D01*
X035651Y022815D01*
X035561Y022815D02*
X035741Y022815D01*
X035856Y022860D02*
X036036Y023040D01*
X036036Y022860D01*
X035991Y022815D01*
X035901Y022815D01*
X035856Y022860D01*
X035856Y023040D01*
X035901Y023085D01*
X035991Y023085D01*
X036036Y023040D01*
X036151Y022995D02*
X036151Y022860D01*
X036196Y022815D01*
X036331Y022815D01*
X036331Y022995D01*
X036445Y022950D02*
X036535Y022950D01*
X036445Y022815D02*
X036445Y023085D01*
X036625Y023085D01*
X036936Y022995D02*
X037026Y023085D01*
X037026Y022815D01*
X036936Y022815D02*
X037116Y022815D01*
X037231Y022860D02*
X037276Y022815D01*
X037366Y022815D01*
X037411Y022860D01*
X037411Y023040D01*
X037231Y022860D01*
X037231Y023040D01*
X037276Y023085D01*
X037366Y023085D01*
X037411Y023040D01*
X037526Y023040D02*
X037571Y023085D01*
X037661Y023085D01*
X037706Y023040D01*
X037526Y022860D01*
X037571Y022815D01*
X037661Y022815D01*
X037706Y022860D01*
X037706Y023040D01*
X037820Y022995D02*
X037955Y022995D01*
X038000Y022950D01*
X038000Y022815D01*
X037820Y022815D02*
X037820Y022995D01*
X037526Y023040D02*
X037526Y022860D01*
X038542Y022275D02*
X038542Y021176D01*
X038542Y022275D02*
X033818Y022275D01*
X033818Y021176D01*
X032855Y020347D02*
X032855Y020167D01*
X032855Y020257D02*
X032585Y020257D01*
X032675Y020167D01*
X032675Y020052D02*
X032720Y020007D01*
X032765Y020052D01*
X032810Y020052D01*
X032855Y020007D01*
X032855Y019917D01*
X032810Y019872D01*
X032810Y019757D02*
X032855Y019712D01*
X032855Y019622D01*
X032810Y019577D01*
X032855Y019463D02*
X032855Y019283D01*
X032585Y019283D01*
X032585Y019168D02*
X032585Y018988D01*
X032585Y019078D02*
X032855Y019078D01*
X033818Y018650D02*
X033818Y017551D01*
X038542Y017551D01*
X038542Y018650D01*
X036938Y017243D02*
X036893Y017243D01*
X036803Y017153D01*
X036803Y017063D02*
X036803Y017243D01*
X036689Y017198D02*
X036644Y017243D01*
X036554Y017243D01*
X036509Y017198D01*
X036509Y017108D01*
X036554Y017063D01*
X036644Y017063D01*
X036689Y017153D02*
X036509Y017153D01*
X036394Y017063D02*
X036214Y017063D01*
X036394Y017243D01*
X036214Y017243D01*
X036099Y017243D02*
X035919Y017063D01*
X036099Y017063D01*
X036099Y017243D02*
X035919Y017243D01*
X035805Y017243D02*
X035805Y017063D01*
X035670Y017063D01*
X035625Y017108D01*
X035625Y017243D01*
X035510Y017243D02*
X035465Y017198D01*
X035330Y017198D01*
X035330Y017063D02*
X035465Y017063D01*
X035510Y017108D01*
X035510Y017153D01*
X035465Y017198D01*
X035510Y017243D02*
X035510Y017288D01*
X035465Y017333D01*
X035330Y017333D01*
X035330Y017063D01*
X036689Y017153D02*
X036689Y017198D01*
X032810Y019757D02*
X032765Y019757D01*
X032720Y019712D01*
X032720Y019667D01*
X032720Y019712D02*
X032675Y019757D01*
X032630Y019757D01*
X032585Y019712D01*
X032585Y019622D01*
X032630Y019577D01*
X032630Y019872D02*
X032585Y019917D01*
X032585Y020007D01*
X032630Y020052D01*
X032675Y020052D01*
X032720Y020007D02*
X032720Y019962D01*
X030625Y021325D02*
X030535Y021325D01*
X030420Y021325D02*
X030420Y021190D01*
X030535Y021190D02*
X030535Y021460D01*
X030715Y021460D01*
X030420Y021325D02*
X030375Y021370D01*
X030240Y021370D01*
X030240Y021190D01*
X029831Y021235D02*
X029786Y021190D01*
X029696Y021190D01*
X029651Y021235D01*
X029831Y021415D01*
X029831Y021235D01*
X029831Y021415D02*
X029786Y021460D01*
X029696Y021460D01*
X029651Y021415D01*
X029651Y021235D01*
X029536Y021235D02*
X029491Y021190D01*
X029401Y021190D01*
X029356Y021235D01*
X029536Y021415D01*
X029536Y021235D01*
X029356Y021235D02*
X029356Y021415D01*
X029401Y021460D01*
X029491Y021460D01*
X029536Y021415D01*
X029241Y021190D02*
X029061Y021190D01*
X029151Y021190D02*
X029151Y021460D01*
X029061Y021370D01*
X029061Y022565D02*
X029241Y022565D01*
X029151Y022565D02*
X029151Y022835D01*
X029061Y022745D01*
X029356Y022790D02*
X029401Y022835D01*
X029491Y022835D01*
X029536Y022790D01*
X029356Y022610D01*
X029401Y022565D01*
X029491Y022565D01*
X029536Y022610D01*
X029536Y022790D01*
X029651Y022790D02*
X029696Y022835D01*
X029786Y022835D01*
X029831Y022790D01*
X029651Y022610D01*
X029696Y022565D01*
X029786Y022565D01*
X029831Y022610D01*
X029831Y022790D01*
X029651Y022790D02*
X029651Y022610D01*
X029356Y022610D02*
X029356Y022790D01*
X030240Y022745D02*
X030375Y022745D01*
X030420Y022700D01*
X030420Y022565D01*
X030535Y022565D02*
X030535Y022835D01*
X030715Y022835D01*
X030625Y022700D02*
X030535Y022700D01*
X030240Y022745D02*
X030240Y022565D01*
X031330Y022163D02*
X031375Y022208D01*
X031465Y022208D01*
X031510Y022163D01*
X031510Y022118D01*
X031465Y022073D01*
X031510Y022028D01*
X031510Y021983D01*
X031465Y021938D01*
X031375Y021938D01*
X031330Y021983D01*
X031420Y022073D02*
X031465Y022073D01*
X031625Y021983D02*
X031670Y021983D01*
X031670Y021938D01*
X031625Y021938D01*
X031625Y021983D01*
X031772Y021983D02*
X031817Y021938D01*
X031907Y021938D01*
X031952Y021983D01*
X031952Y022028D01*
X031907Y022073D01*
X031862Y022073D01*
X031907Y022073D02*
X031952Y022118D01*
X031952Y022163D01*
X031907Y022208D01*
X031817Y022208D01*
X031772Y022163D01*
X032067Y022208D02*
X032067Y021938D01*
X032067Y022028D02*
X032202Y022118D01*
X032067Y022028D02*
X032202Y021938D01*
X028929Y018993D02*
X028794Y018903D01*
X028929Y018813D01*
X028794Y018813D02*
X028794Y019083D01*
X028680Y019038D02*
X028500Y018858D01*
X028545Y018813D01*
X028635Y018813D01*
X028680Y018858D01*
X028680Y019038D01*
X028635Y019083D01*
X028545Y019083D01*
X028500Y019038D01*
X028500Y018858D01*
X028385Y018813D02*
X028205Y018813D01*
X028295Y018813D02*
X028295Y019083D01*
X028205Y018993D01*
X028295Y017833D02*
X028295Y017563D01*
X028205Y017563D02*
X028385Y017563D01*
X028500Y017608D02*
X028680Y017788D01*
X028680Y017608D01*
X028635Y017563D01*
X028545Y017563D01*
X028500Y017608D01*
X028500Y017788D01*
X028545Y017833D01*
X028635Y017833D01*
X028680Y017788D01*
X028794Y017833D02*
X028794Y017563D01*
X028794Y017653D02*
X028929Y017743D01*
X028794Y017653D02*
X028929Y017563D01*
X028295Y017833D02*
X028205Y017743D01*
X031330Y017743D02*
X031420Y017833D01*
X031420Y017563D01*
X031330Y017563D02*
X031510Y017563D01*
X031625Y017608D02*
X031805Y017788D01*
X031805Y017608D01*
X031760Y017563D01*
X031670Y017563D01*
X031625Y017608D01*
X031625Y017788D01*
X031670Y017833D01*
X031760Y017833D01*
X031805Y017788D01*
X031919Y017833D02*
X031919Y017563D01*
X031919Y017653D02*
X032054Y017743D01*
X031919Y017653D02*
X032054Y017563D01*
X040705Y022188D02*
X040885Y022188D01*
X040795Y022188D02*
X040795Y022458D01*
X040705Y022368D01*
X041000Y022413D02*
X041045Y022458D01*
X041135Y022458D01*
X041180Y022413D01*
X041000Y022233D01*
X041045Y022188D01*
X041135Y022188D01*
X041180Y022233D01*
X041180Y022413D01*
X041294Y022458D02*
X041294Y022188D01*
X041294Y022278D02*
X041429Y022368D01*
X041294Y022278D02*
X041429Y022188D01*
X041000Y022233D02*
X041000Y022413D01*
X042936Y022815D02*
X043116Y022815D01*
X043026Y022815D02*
X043026Y023085D01*
X042936Y022995D01*
X043231Y023040D02*
X043276Y023085D01*
X043366Y023085D01*
X043411Y023040D01*
X043231Y022860D01*
X043276Y022815D01*
X043366Y022815D01*
X043411Y022860D01*
X043411Y023040D01*
X043526Y023040D02*
X043571Y023085D01*
X043661Y023085D01*
X043706Y023040D01*
X043526Y022860D01*
X043571Y022815D01*
X043661Y022815D01*
X043706Y022860D01*
X043706Y023040D01*
X043820Y022995D02*
X043955Y022995D01*
X044000Y022950D01*
X044000Y022815D01*
X043820Y022815D02*
X043820Y022995D01*
X043526Y023040D02*
X043526Y022860D01*
X043231Y022860D02*
X043231Y023040D01*
X045205Y022208D02*
X045205Y021938D01*
X045205Y022028D02*
X045340Y022028D01*
X045385Y022073D01*
X045385Y022163D01*
X045340Y022208D01*
X045205Y022208D01*
X045500Y022163D02*
X045500Y021983D01*
X045545Y021938D01*
X045635Y021938D01*
X045680Y021983D01*
X045794Y021983D02*
X045839Y021938D01*
X045929Y021938D01*
X045974Y021983D01*
X046089Y022073D02*
X046269Y022073D01*
X046384Y022118D02*
X046429Y022073D01*
X046519Y022073D01*
X046564Y022028D01*
X046564Y021983D01*
X046519Y021938D01*
X046429Y021938D01*
X046384Y021983D01*
X046384Y022118D02*
X046384Y022163D01*
X046429Y022208D01*
X046519Y022208D01*
X046564Y022163D01*
X046678Y022208D02*
X046768Y022118D01*
X046858Y022208D01*
X046858Y021938D01*
X046973Y021938D02*
X046973Y022208D01*
X047108Y022208D01*
X047153Y022163D01*
X047153Y022073D01*
X047108Y022028D01*
X046973Y022028D01*
X047268Y022073D02*
X047448Y022073D01*
X047562Y022028D02*
X047652Y021938D01*
X047742Y022028D01*
X047742Y022208D01*
X047857Y022073D02*
X048037Y022073D01*
X048152Y022028D02*
X048332Y022208D01*
X048152Y022208D02*
X048152Y021938D01*
X048197Y022073D02*
X048332Y021938D01*
X047562Y022028D02*
X047562Y022208D01*
X046678Y022208D02*
X046678Y021938D01*
X045974Y022163D02*
X045929Y022208D01*
X045839Y022208D01*
X045794Y022163D01*
X045794Y021983D01*
X045680Y022163D02*
X045635Y022208D01*
X045545Y022208D01*
X045500Y022163D01*
X048680Y022583D02*
X051380Y022583D01*
X051380Y021033D02*
X048980Y021033D01*
X048680Y018333D02*
X051380Y018333D01*
X050724Y017618D02*
X050589Y017528D01*
X050724Y017438D01*
X050589Y017438D02*
X050589Y017708D01*
X050180Y017663D02*
X050000Y017483D01*
X050045Y017438D01*
X050135Y017438D01*
X050180Y017483D01*
X050180Y017663D01*
X050135Y017708D01*
X050045Y017708D01*
X050000Y017663D01*
X050000Y017483D01*
X049885Y017438D02*
X049705Y017438D01*
X049795Y017438D02*
X049795Y017708D01*
X049705Y017618D01*
X048332Y017688D02*
X048197Y017823D01*
X048152Y017778D02*
X048332Y017958D01*
X048152Y017958D02*
X048152Y017688D01*
X048037Y017823D02*
X047857Y017823D01*
X047742Y017778D02*
X047742Y017958D01*
X047562Y017958D02*
X047562Y017778D01*
X047652Y017688D01*
X047742Y017778D01*
X047448Y017823D02*
X047268Y017823D01*
X047153Y017823D02*
X047153Y017913D01*
X047108Y017958D01*
X046973Y017958D01*
X046973Y017688D01*
X046973Y017778D02*
X047108Y017778D01*
X047153Y017823D01*
X046858Y017958D02*
X046858Y017688D01*
X046678Y017688D02*
X046678Y017958D01*
X046768Y017868D01*
X046858Y017958D01*
X046564Y017913D02*
X046519Y017958D01*
X046429Y017958D01*
X046384Y017913D01*
X046384Y017868D01*
X046429Y017823D01*
X046519Y017823D01*
X046564Y017778D01*
X046564Y017733D01*
X046519Y017688D01*
X046429Y017688D01*
X046384Y017733D01*
X046269Y017823D02*
X046089Y017823D01*
X045974Y017733D02*
X045929Y017688D01*
X045839Y017688D01*
X045794Y017733D01*
X045794Y017913D01*
X045839Y017958D01*
X045929Y017958D01*
X045974Y017913D01*
X045680Y017913D02*
X045635Y017958D01*
X045545Y017958D01*
X045500Y017913D01*
X045500Y017733D01*
X045545Y017688D01*
X045635Y017688D01*
X045680Y017733D01*
X045385Y017823D02*
X045385Y017913D01*
X045340Y017958D01*
X045205Y017958D01*
X045205Y017688D01*
X045205Y017778D02*
X045340Y017778D01*
X045385Y017823D01*
X043383Y017463D02*
X043383Y017418D01*
X043338Y017373D01*
X043248Y017373D01*
X043203Y017418D01*
X043203Y017463D01*
X043248Y017508D01*
X043338Y017508D01*
X043383Y017463D01*
X043338Y017373D02*
X043383Y017328D01*
X043383Y017283D01*
X043338Y017238D01*
X043248Y017238D01*
X043203Y017283D01*
X043203Y017328D01*
X043248Y017373D01*
X043089Y017373D02*
X042909Y017373D01*
X043044Y017508D01*
X043044Y017238D01*
X042794Y017238D02*
X042614Y017238D01*
X042704Y017238D02*
X042704Y017508D01*
X042614Y017418D01*
X042499Y017373D02*
X042319Y017373D01*
X042454Y017508D01*
X042454Y017238D01*
X042205Y017238D02*
X042025Y017238D01*
X042025Y017508D01*
X041910Y017238D02*
X041730Y017238D01*
X041730Y017508D01*
X041750Y019188D02*
X041750Y019368D01*
X041840Y019458D01*
X041930Y019368D01*
X041930Y019188D01*
X042044Y019188D02*
X042224Y019458D01*
X042339Y019413D02*
X042384Y019458D01*
X042474Y019458D01*
X042519Y019413D01*
X042519Y019368D01*
X042474Y019323D01*
X042519Y019278D01*
X042519Y019233D01*
X042474Y019188D01*
X042384Y019188D01*
X042339Y019233D01*
X042224Y019188D02*
X042044Y019458D01*
X041930Y019323D02*
X041750Y019323D01*
X041635Y019458D02*
X041635Y019188D01*
X041455Y019188D02*
X041455Y019458D01*
X041545Y019368D01*
X041635Y019458D01*
X042429Y019323D02*
X042474Y019323D01*
X042634Y019368D02*
X042724Y019458D01*
X042724Y019188D01*
X042634Y019188D02*
X042814Y019188D01*
X042928Y019233D02*
X042973Y019188D01*
X043063Y019188D01*
X043108Y019233D01*
X043108Y019278D01*
X043063Y019323D01*
X042973Y019323D01*
X042928Y019368D01*
X042928Y019413D01*
X042973Y019458D01*
X043063Y019458D01*
X043108Y019413D01*
X043108Y019368D01*
X043063Y019323D01*
X042973Y019323D02*
X042928Y019278D01*
X042928Y019233D01*
X043223Y019233D02*
X043268Y019188D01*
X043358Y019188D01*
X043403Y019233D01*
X043403Y019323D01*
X043358Y019368D01*
X043313Y019368D01*
X043223Y019323D01*
X043223Y019458D01*
X043403Y019458D01*
X043518Y019458D02*
X043518Y019323D01*
X043608Y019368D01*
X043653Y019368D01*
X043698Y019323D01*
X043698Y019233D01*
X043653Y019188D01*
X043563Y019188D01*
X043518Y019233D01*
X043518Y019458D02*
X043698Y019458D01*
X043812Y019458D02*
X043812Y019188D01*
X043812Y019278D02*
X043992Y019458D01*
X043857Y019323D02*
X043992Y019188D01*
X051080Y015583D02*
X051080Y015313D01*
X051215Y015313D01*
X051260Y015358D01*
X051260Y015538D01*
X051215Y015583D01*
X051080Y015583D01*
X051375Y015538D02*
X051420Y015583D01*
X051510Y015583D01*
X051555Y015538D01*
X051555Y015493D01*
X051510Y015448D01*
X051555Y015403D01*
X051555Y015358D01*
X051510Y015313D01*
X051420Y015313D01*
X051375Y015358D01*
X051465Y015448D02*
X051510Y015448D01*
X051669Y015358D02*
X051669Y015313D01*
X051669Y015358D02*
X051849Y015538D01*
X051849Y015583D01*
X051669Y015583D01*
X051669Y014583D02*
X051669Y014448D01*
X051759Y014493D01*
X051804Y014493D01*
X051849Y014448D01*
X051849Y014358D01*
X051804Y014313D01*
X051714Y014313D01*
X051669Y014358D01*
X051555Y014358D02*
X051510Y014313D01*
X051420Y014313D01*
X051375Y014358D01*
X051260Y014358D02*
X051260Y014538D01*
X051215Y014583D01*
X051080Y014583D01*
X051080Y014313D01*
X051215Y014313D01*
X051260Y014358D01*
X051375Y014538D02*
X051420Y014583D01*
X051510Y014583D01*
X051555Y014538D01*
X051555Y014493D01*
X051510Y014448D01*
X051555Y014403D01*
X051555Y014358D01*
X051510Y014448D02*
X051465Y014448D01*
X051669Y014583D02*
X051849Y014583D01*
X051804Y013583D02*
X051849Y013538D01*
X051849Y013493D01*
X051804Y013448D01*
X051849Y013403D01*
X051849Y013358D01*
X051804Y013313D01*
X051714Y013313D01*
X051669Y013358D01*
X051555Y013358D02*
X051510Y013313D01*
X051420Y013313D01*
X051375Y013358D01*
X051260Y013358D02*
X051260Y013538D01*
X051215Y013583D01*
X051080Y013583D01*
X051080Y013313D01*
X051215Y013313D01*
X051260Y013358D01*
X051375Y013538D02*
X051420Y013583D01*
X051510Y013583D01*
X051555Y013538D01*
X051555Y013493D01*
X051510Y013448D01*
X051555Y013403D01*
X051555Y013358D01*
X051510Y013448D02*
X051465Y013448D01*
X051669Y013538D02*
X051714Y013583D01*
X051804Y013583D01*
X051804Y013448D02*
X051759Y013448D01*
X051759Y012583D02*
X051759Y012313D01*
X051669Y012313D02*
X051849Y012313D01*
X051669Y012493D02*
X051759Y012583D01*
X051555Y012538D02*
X051510Y012583D01*
X051420Y012583D01*
X051375Y012538D01*
X051260Y012538D02*
X051215Y012583D01*
X051080Y012583D01*
X051080Y012313D01*
X051215Y012313D01*
X051260Y012358D01*
X051260Y012538D01*
X051375Y012358D02*
X051420Y012313D01*
X051510Y012313D01*
X051555Y012358D01*
X051555Y012403D01*
X051510Y012448D01*
X051465Y012448D01*
X051510Y012448D02*
X051555Y012493D01*
X051555Y012538D01*
X051510Y011583D02*
X051420Y011583D01*
X051375Y011538D01*
X051260Y011538D02*
X051215Y011583D01*
X051080Y011583D01*
X051080Y011313D01*
X051215Y011313D01*
X051260Y011358D01*
X051260Y011538D01*
X051375Y011313D02*
X051555Y011493D01*
X051555Y011538D01*
X051510Y011583D01*
X051669Y011538D02*
X051714Y011583D01*
X051804Y011583D01*
X051849Y011538D01*
X051849Y011358D01*
X051804Y011313D01*
X051714Y011313D01*
X051669Y011358D01*
X051714Y011448D02*
X051849Y011448D01*
X051714Y011448D02*
X051669Y011493D01*
X051669Y011538D01*
X051555Y011313D02*
X051375Y011313D01*
X050354Y011688D02*
X050219Y011778D01*
X050354Y011868D01*
X050219Y011958D02*
X050219Y011688D01*
X050105Y011733D02*
X050060Y011688D01*
X049970Y011688D01*
X049925Y011733D01*
X050105Y011913D01*
X050105Y011733D01*
X050105Y011913D02*
X050060Y011958D01*
X049970Y011958D01*
X049925Y011913D01*
X049925Y011733D01*
X049810Y011688D02*
X049630Y011688D01*
X049720Y011688D02*
X049720Y011958D01*
X049630Y011868D01*
X049595Y010708D02*
X049595Y010438D01*
X049505Y010438D02*
X049685Y010438D01*
X049800Y010483D02*
X049980Y010663D01*
X049980Y010483D01*
X049935Y010438D01*
X049845Y010438D01*
X049800Y010483D01*
X049800Y010663D01*
X049845Y010708D01*
X049935Y010708D01*
X049980Y010663D01*
X050094Y010708D02*
X050094Y010438D01*
X050094Y010528D02*
X050229Y010618D01*
X050094Y010528D02*
X050229Y010438D01*
X049595Y010708D02*
X049505Y010618D01*
X051080Y010583D02*
X051215Y010583D01*
X051260Y010538D01*
X051260Y010358D01*
X051215Y010313D01*
X051080Y010313D01*
X051080Y010583D01*
X051375Y010538D02*
X051420Y010583D01*
X051510Y010583D01*
X051555Y010538D01*
X051555Y010493D01*
X051375Y010313D01*
X051555Y010313D01*
X051669Y010313D02*
X051669Y010358D01*
X051849Y010538D01*
X051849Y010583D01*
X051669Y010583D01*
X051669Y009583D02*
X051669Y009448D01*
X051759Y009493D01*
X051804Y009493D01*
X051849Y009448D01*
X051849Y009358D01*
X051804Y009313D01*
X051714Y009313D01*
X051669Y009358D01*
X051555Y009313D02*
X051375Y009313D01*
X051555Y009493D01*
X051555Y009538D01*
X051510Y009583D01*
X051420Y009583D01*
X051375Y009538D01*
X051260Y009538D02*
X051215Y009583D01*
X051080Y009583D01*
X051080Y009313D01*
X051215Y009313D01*
X051260Y009358D01*
X051260Y009538D01*
X051669Y009583D02*
X051849Y009583D01*
X051804Y008583D02*
X051849Y008538D01*
X051849Y008493D01*
X051804Y008448D01*
X051849Y008403D01*
X051849Y008358D01*
X051804Y008313D01*
X051714Y008313D01*
X051669Y008358D01*
X051555Y008313D02*
X051375Y008313D01*
X051555Y008493D01*
X051555Y008538D01*
X051510Y008583D01*
X051420Y008583D01*
X051375Y008538D01*
X051260Y008538D02*
X051215Y008583D01*
X051080Y008583D01*
X051080Y008313D01*
X051215Y008313D01*
X051260Y008358D01*
X051260Y008538D01*
X051669Y008538D02*
X051714Y008583D01*
X051804Y008583D01*
X051804Y008448D02*
X051759Y008448D01*
X051669Y007583D02*
X051849Y007583D01*
X051849Y007538D01*
X051669Y007358D01*
X051669Y007313D01*
X051555Y007313D02*
X051375Y007313D01*
X051465Y007313D02*
X051465Y007583D01*
X051375Y007493D01*
X051260Y007538D02*
X051215Y007583D01*
X051080Y007583D01*
X051080Y007313D01*
X051215Y007313D01*
X051260Y007358D01*
X051260Y007538D01*
X051215Y006583D02*
X051080Y006583D01*
X051080Y006313D01*
X051215Y006313D01*
X051260Y006358D01*
X051260Y006538D01*
X051215Y006583D01*
X051375Y006493D02*
X051465Y006583D01*
X051465Y006313D01*
X051375Y006313D02*
X051555Y006313D01*
X051669Y006358D02*
X051714Y006313D01*
X051804Y006313D01*
X051849Y006358D01*
X051849Y006403D01*
X051804Y006448D01*
X051669Y006448D01*
X051669Y006358D01*
X051669Y006448D02*
X051759Y006538D01*
X051849Y006583D01*
X055080Y006583D02*
X055215Y006583D01*
X055260Y006538D01*
X055260Y006358D01*
X055215Y006313D01*
X055080Y006313D01*
X055080Y006583D01*
X055375Y006448D02*
X055555Y006448D01*
X055669Y006448D02*
X055759Y006493D01*
X055804Y006493D01*
X055849Y006448D01*
X055849Y006358D01*
X055804Y006313D01*
X055714Y006313D01*
X055669Y006358D01*
X055669Y006448D02*
X055669Y006583D01*
X055849Y006583D01*
X055510Y006583D02*
X055375Y006448D01*
X055510Y006313D02*
X055510Y006583D01*
X055510Y007313D02*
X055510Y007583D01*
X055375Y007448D01*
X055555Y007448D01*
X055669Y007358D02*
X055669Y007313D01*
X055669Y007358D02*
X055849Y007538D01*
X055849Y007583D01*
X055669Y007583D01*
X055260Y007538D02*
X055215Y007583D01*
X055080Y007583D01*
X055080Y007313D01*
X055215Y007313D01*
X055260Y007358D01*
X055260Y007538D01*
X055215Y008313D02*
X055080Y008313D01*
X055080Y008583D01*
X055215Y008583D01*
X055260Y008538D01*
X055260Y008358D01*
X055215Y008313D01*
X055375Y008448D02*
X055555Y008448D01*
X055510Y008313D02*
X055510Y008583D01*
X055375Y008448D01*
X055669Y008358D02*
X055714Y008313D01*
X055804Y008313D01*
X055849Y008358D01*
X055849Y008403D01*
X055804Y008448D01*
X055759Y008448D01*
X055804Y008448D02*
X055849Y008493D01*
X055849Y008538D01*
X055804Y008583D01*
X055714Y008583D01*
X055669Y008538D01*
X055669Y009313D02*
X055849Y009313D01*
X055759Y009313D02*
X055759Y009583D01*
X055669Y009493D01*
X055555Y009448D02*
X055375Y009448D01*
X055510Y009583D01*
X055510Y009313D01*
X055260Y009358D02*
X055260Y009538D01*
X055215Y009583D01*
X055080Y009583D01*
X055080Y009313D01*
X055215Y009313D01*
X055260Y009358D01*
X055215Y010313D02*
X055080Y010313D01*
X055080Y010583D01*
X055215Y010583D01*
X055260Y010538D01*
X055260Y010358D01*
X055215Y010313D01*
X055375Y010358D02*
X055420Y010313D01*
X055510Y010313D01*
X055555Y010358D01*
X055555Y010403D01*
X055510Y010448D01*
X055465Y010448D01*
X055510Y010448D02*
X055555Y010493D01*
X055555Y010538D01*
X055510Y010583D01*
X055420Y010583D01*
X055375Y010538D01*
X055669Y010538D02*
X055669Y010493D01*
X055714Y010448D01*
X055804Y010448D01*
X055849Y010403D01*
X055849Y010358D01*
X055804Y010313D01*
X055714Y010313D01*
X055669Y010358D01*
X055669Y010403D01*
X055714Y010448D01*
X055804Y010448D02*
X055849Y010493D01*
X055849Y010538D01*
X055804Y010583D01*
X055714Y010583D01*
X055669Y010538D01*
X055669Y011313D02*
X055669Y011583D01*
X055555Y011538D02*
X055510Y011583D01*
X055420Y011583D01*
X055375Y011538D01*
X055375Y011358D01*
X055420Y011313D01*
X055510Y011313D01*
X055555Y011358D01*
X055669Y011403D02*
X055849Y011583D01*
X055714Y011448D02*
X055849Y011313D01*
X055260Y011358D02*
X055215Y011313D01*
X055125Y011313D01*
X055080Y011358D01*
X055125Y011448D02*
X055215Y011448D01*
X055260Y011403D01*
X055260Y011358D01*
X055125Y011448D02*
X055080Y011493D01*
X055080Y011538D01*
X055125Y011583D01*
X055215Y011583D01*
X055260Y011538D01*
X055260Y012313D02*
X055260Y012583D01*
X055170Y012493D01*
X055080Y012583D01*
X055080Y012313D01*
X055375Y012358D02*
X055420Y012313D01*
X055510Y012313D01*
X055555Y012358D01*
X055555Y012538D01*
X055510Y012583D01*
X055420Y012583D01*
X055375Y012538D01*
X055375Y012358D01*
X055669Y012358D02*
X055714Y012313D01*
X055804Y012313D01*
X055849Y012358D01*
X055849Y012403D01*
X055804Y012448D01*
X055714Y012448D01*
X055669Y012493D01*
X055669Y012538D01*
X055714Y012583D01*
X055804Y012583D01*
X055849Y012538D01*
X055964Y012583D02*
X056054Y012583D01*
X056009Y012583D02*
X056009Y012313D01*
X055964Y012313D02*
X056054Y012313D01*
X056001Y013313D02*
X056046Y013358D01*
X056046Y013538D01*
X056001Y013583D01*
X055911Y013583D01*
X055866Y013538D01*
X055866Y013358D01*
X055911Y013313D01*
X056001Y013313D01*
X055751Y013358D02*
X055706Y013313D01*
X055616Y013313D01*
X055571Y013358D01*
X055616Y013448D02*
X055706Y013448D01*
X055751Y013403D01*
X055751Y013358D01*
X055616Y013448D02*
X055571Y013493D01*
X055571Y013538D01*
X055616Y013583D01*
X055706Y013583D01*
X055751Y013538D01*
X055465Y013583D02*
X055375Y013583D01*
X055420Y013583D02*
X055420Y013313D01*
X055375Y013313D02*
X055465Y013313D01*
X055260Y013313D02*
X055260Y013583D01*
X055170Y013493D01*
X055080Y013583D01*
X055080Y013313D01*
X055125Y014313D02*
X055215Y014313D01*
X055260Y014358D01*
X055260Y014448D01*
X055170Y014448D01*
X055080Y014358D02*
X055125Y014313D01*
X055080Y014358D02*
X055080Y014538D01*
X055125Y014583D01*
X055215Y014583D01*
X055260Y014538D01*
X055375Y014583D02*
X055555Y014313D01*
X055555Y014583D01*
X055669Y014583D02*
X055804Y014583D01*
X055849Y014538D01*
X055849Y014358D01*
X055804Y014313D01*
X055669Y014313D01*
X055669Y014583D01*
X055375Y014583D02*
X055375Y014313D01*
X055420Y015313D02*
X055375Y015358D01*
X055420Y015313D02*
X055510Y015313D01*
X055555Y015358D01*
X055555Y015448D01*
X055510Y015493D01*
X055465Y015493D01*
X055375Y015448D01*
X055375Y015583D01*
X055555Y015583D01*
X055669Y015583D02*
X055669Y015403D01*
X055759Y015313D01*
X055849Y015403D01*
X055849Y015583D01*
X055260Y015448D02*
X055080Y015448D01*
X055170Y015538D02*
X055170Y015358D01*
X047108Y014743D02*
X047063Y014743D01*
X046973Y014653D01*
X046973Y014563D02*
X046973Y014743D01*
X046858Y014698D02*
X046858Y014653D01*
X046678Y014653D01*
X046678Y014608D02*
X046678Y014698D01*
X046723Y014743D01*
X046813Y014743D01*
X046858Y014698D01*
X046813Y014563D02*
X046723Y014563D01*
X046678Y014608D01*
X046564Y014563D02*
X046429Y014563D01*
X046384Y014608D01*
X046384Y014698D01*
X046429Y014743D01*
X046564Y014743D01*
X046564Y014833D02*
X046564Y014563D01*
X046269Y014608D02*
X046269Y014698D01*
X046224Y014743D01*
X046134Y014743D01*
X046089Y014698D01*
X046089Y014608D01*
X046134Y014563D01*
X046224Y014563D01*
X046269Y014608D01*
X045974Y014563D02*
X045839Y014563D01*
X045794Y014608D01*
X045794Y014698D01*
X045839Y014743D01*
X045974Y014743D01*
X045680Y014698D02*
X045680Y014563D01*
X045680Y014698D02*
X045635Y014743D01*
X045500Y014743D01*
X045500Y014563D01*
X045385Y014563D02*
X045205Y014563D01*
X045205Y014833D01*
X045385Y014833D01*
X045295Y014698D02*
X045205Y014698D01*
X049470Y009458D02*
X049470Y009188D01*
X049380Y009188D02*
X049560Y009188D01*
X049675Y009233D02*
X049855Y009413D01*
X049855Y009233D01*
X049810Y009188D01*
X049720Y009188D01*
X049675Y009233D01*
X049675Y009413D01*
X049720Y009458D01*
X049810Y009458D01*
X049855Y009413D01*
X049969Y009458D02*
X049969Y009188D01*
X049969Y009278D02*
X050104Y009188D01*
X049969Y009278D02*
X050104Y009368D01*
X049470Y009458D02*
X049380Y009368D01*
X029000Y005488D02*
X029000Y005188D01*
X028950Y005188D02*
X029050Y005188D01*
X028828Y005188D02*
X028828Y005338D01*
X028778Y005388D01*
X028678Y005388D01*
X028628Y005338D01*
X028505Y005338D02*
X028455Y005388D01*
X028355Y005388D01*
X028305Y005338D01*
X028305Y005238D01*
X028355Y005188D01*
X028455Y005188D01*
X028505Y005238D01*
X028505Y005338D01*
X028628Y005488D02*
X028628Y005188D01*
X028950Y005488D02*
X029000Y005488D01*
X028183Y005338D02*
X028183Y005188D01*
X028183Y005338D02*
X028133Y005388D01*
X027983Y005388D01*
X027983Y005188D01*
X027865Y005388D02*
X027815Y005388D01*
X027714Y005288D01*
X027714Y005188D02*
X027714Y005388D01*
X027592Y005338D02*
X027592Y005288D01*
X027392Y005288D01*
X027392Y005238D02*
X027392Y005338D01*
X027442Y005388D01*
X027542Y005388D01*
X027592Y005338D01*
X027542Y005188D02*
X027442Y005188D01*
X027392Y005238D01*
X027270Y005188D02*
X027120Y005188D01*
X027070Y005238D01*
X027070Y005338D01*
X027120Y005388D01*
X027270Y005388D01*
X026948Y005488D02*
X026748Y005188D01*
X026626Y005188D02*
X026475Y005188D01*
X026425Y005238D01*
X026425Y005338D01*
X026475Y005388D01*
X026626Y005388D01*
X026626Y005138D01*
X026575Y005088D01*
X026525Y005088D01*
X026307Y005388D02*
X026257Y005388D01*
X026157Y005288D01*
X026157Y005188D02*
X026157Y005388D01*
X026035Y005338D02*
X026035Y005238D01*
X025985Y005188D01*
X025885Y005188D01*
X025835Y005238D01*
X025835Y005338D01*
X025885Y005388D01*
X025985Y005388D01*
X026035Y005338D01*
X025723Y005238D02*
X025723Y005188D01*
X025673Y005188D01*
X025673Y005238D01*
X025723Y005238D01*
X025555Y005388D02*
X025505Y005388D01*
X025405Y005288D01*
X025405Y005188D02*
X025405Y005388D01*
X025283Y005388D02*
X025283Y005238D01*
X025233Y005188D01*
X025183Y005238D01*
X025133Y005188D01*
X025083Y005238D01*
X025083Y005388D01*
X024960Y005338D02*
X024960Y005188D01*
X024960Y005338D02*
X024910Y005388D01*
X024810Y005388D01*
X024760Y005338D01*
X024638Y005338D02*
X024588Y005388D01*
X024488Y005388D01*
X024438Y005338D01*
X024438Y005238D01*
X024488Y005188D01*
X024588Y005188D01*
X024638Y005238D01*
X024638Y005338D01*
X024760Y005488D02*
X024760Y005188D01*
X024316Y005488D02*
X024116Y005188D01*
X023793Y005188D02*
X023994Y005488D01*
X023682Y005388D02*
X023682Y005338D01*
X023632Y005338D01*
X023632Y005388D01*
X023682Y005388D01*
X023682Y005238D02*
X023682Y005188D01*
X023632Y005188D01*
X023632Y005238D01*
X023682Y005238D01*
X023510Y005238D02*
X023510Y005338D01*
X023460Y005388D01*
X023310Y005388D01*
X023310Y005088D01*
X023310Y005188D02*
X023460Y005188D01*
X023510Y005238D01*
X023195Y005188D02*
X023145Y005238D01*
X023145Y005438D01*
X023095Y005388D02*
X023195Y005388D01*
X022980Y005388D02*
X022880Y005388D01*
X022930Y005438D02*
X022930Y005238D01*
X022980Y005188D01*
X022758Y005188D02*
X022758Y005338D01*
X022708Y005388D01*
X022608Y005388D01*
X022558Y005338D01*
X022558Y005488D02*
X022558Y005188D01*
X022125Y005188D02*
X022075Y005188D01*
X022075Y005238D01*
X022125Y005238D01*
X022125Y005188D01*
X022125Y005338D02*
X022075Y005338D01*
X022075Y005388D01*
X022125Y005388D01*
X022125Y005338D01*
X021953Y005338D02*
X021953Y005288D01*
X021752Y005288D01*
X021752Y005238D02*
X021752Y005338D01*
X021802Y005388D01*
X021903Y005388D01*
X021953Y005338D01*
X021903Y005188D02*
X021802Y005188D01*
X021752Y005238D01*
X021630Y005238D02*
X021580Y005288D01*
X021480Y005288D01*
X021430Y005338D01*
X021480Y005388D01*
X021630Y005388D01*
X021630Y005238D02*
X021580Y005188D01*
X021430Y005188D01*
X021308Y005188D02*
X021308Y005338D01*
X021258Y005388D01*
X021108Y005388D01*
X021108Y005188D01*
X020986Y005288D02*
X020786Y005288D01*
X020786Y005238D02*
X020786Y005338D01*
X020836Y005388D01*
X020936Y005388D01*
X020986Y005338D01*
X020986Y005288D01*
X020936Y005188D02*
X020836Y005188D01*
X020786Y005238D01*
X020663Y005188D02*
X020513Y005188D01*
X020463Y005238D01*
X020463Y005338D01*
X020513Y005388D01*
X020663Y005388D01*
X020298Y005388D02*
X020298Y005188D01*
X020248Y005188D02*
X020349Y005188D01*
X020298Y005388D02*
X020248Y005388D01*
X020298Y005488D02*
X020298Y005538D01*
X019926Y005488D02*
X019926Y005188D01*
X020126Y005188D01*
X019482Y005288D02*
X019482Y005338D01*
X019432Y005388D01*
X019332Y005388D01*
X019282Y005338D01*
X019282Y005238D01*
X019332Y005188D01*
X019432Y005188D01*
X019482Y005288D02*
X019282Y005288D01*
X019163Y005388D02*
X019113Y005388D01*
X019013Y005288D01*
X019013Y005188D02*
X019013Y005388D01*
X018891Y005338D02*
X018891Y005188D01*
X018741Y005188D01*
X018691Y005238D01*
X018741Y005288D01*
X018891Y005288D01*
X018891Y005338D02*
X018841Y005388D01*
X018741Y005388D01*
X018569Y005388D02*
X018569Y005238D01*
X018519Y005188D01*
X018469Y005238D01*
X018419Y005188D01*
X018369Y005238D01*
X018369Y005388D01*
X018246Y005388D02*
X018096Y005388D01*
X018046Y005338D01*
X018046Y005238D01*
X018096Y005188D01*
X018246Y005188D01*
X018246Y005488D01*
X017928Y005388D02*
X017878Y005388D01*
X017778Y005288D01*
X017778Y005188D02*
X017778Y005388D01*
X017656Y005338D02*
X017656Y005188D01*
X017505Y005188D01*
X017455Y005238D01*
X017505Y005288D01*
X017656Y005288D01*
X017656Y005338D02*
X017606Y005388D01*
X017505Y005388D01*
X017333Y005338D02*
X017133Y005338D01*
X017133Y005188D02*
X017133Y005488D01*
X017333Y005488D02*
X017333Y005188D01*
X016689Y005188D02*
X016689Y005338D01*
X016639Y005388D01*
X016489Y005388D01*
X016489Y005188D01*
X016366Y005288D02*
X016166Y005288D01*
X016166Y005238D02*
X016166Y005338D01*
X016216Y005388D01*
X016316Y005388D01*
X016366Y005338D01*
X016366Y005288D01*
X016316Y005188D02*
X016216Y005188D01*
X016166Y005238D01*
X016044Y005238D02*
X015994Y005188D01*
X015844Y005188D01*
X015844Y005088D02*
X015844Y005388D01*
X015994Y005388D01*
X016044Y005338D01*
X016044Y005238D01*
X015722Y005238D02*
X015722Y005438D01*
X015672Y005488D01*
X015572Y005488D01*
X015522Y005438D01*
X015522Y005238D01*
X015572Y005188D01*
X015672Y005188D01*
X015722Y005238D01*
X015077Y005188D02*
X015077Y005488D01*
X014877Y005488D02*
X015077Y005188D01*
X014877Y005188D02*
X014877Y005488D01*
X014755Y005438D02*
X014755Y005338D01*
X014705Y005288D01*
X014555Y005288D01*
X014655Y005288D02*
X014755Y005188D01*
X014555Y005188D02*
X014555Y005488D01*
X014705Y005488D01*
X014755Y005438D01*
X014433Y005488D02*
X014233Y005488D01*
X014233Y005188D01*
X014433Y005188D01*
X014333Y005338D02*
X014233Y005338D01*
X014111Y005238D02*
X014060Y005188D01*
X013960Y005188D01*
X013910Y005238D01*
X013910Y005438D01*
X013960Y005488D01*
X014060Y005488D01*
X014111Y005438D01*
X014064Y005938D02*
X013964Y005938D01*
X014014Y005938D02*
X014014Y006138D01*
X013964Y006138D01*
X014014Y006238D02*
X014014Y006288D01*
X013842Y006238D02*
X013842Y005938D01*
X013692Y005938D01*
X013642Y005988D01*
X013642Y006088D01*
X013692Y006138D01*
X013842Y006138D01*
X013520Y006188D02*
X013470Y006238D01*
X013370Y006238D01*
X013320Y006188D01*
X013320Y006138D01*
X013370Y006088D01*
X013470Y006088D01*
X013520Y006038D01*
X013520Y005988D01*
X013470Y005938D01*
X013370Y005938D01*
X013320Y005988D01*
X013197Y006088D02*
X013147Y006038D01*
X012997Y006038D01*
X012997Y005938D02*
X012997Y006238D01*
X013147Y006238D01*
X013197Y006188D01*
X013197Y006088D01*
X012875Y006238D02*
X012875Y005938D01*
X012675Y005938D02*
X012675Y006238D01*
X012775Y006138D01*
X012875Y006238D01*
X012553Y006138D02*
X012553Y005938D01*
X012553Y006088D02*
X012353Y006088D01*
X012353Y006138D02*
X012453Y006238D01*
X012553Y006138D01*
X012353Y006138D02*
X012353Y005938D01*
X012231Y005938D02*
X012131Y006038D01*
X012181Y006038D02*
X012030Y006038D01*
X012030Y005938D02*
X012030Y006238D01*
X012181Y006238D01*
X012231Y006188D01*
X012231Y006088D01*
X012181Y006038D01*
X011908Y006238D02*
X011708Y005938D01*
X011586Y005938D02*
X011586Y006088D01*
X011536Y006138D01*
X011386Y006138D01*
X011386Y005938D01*
X011264Y005988D02*
X011214Y005938D01*
X011114Y005938D01*
X011064Y005988D01*
X011064Y006088D01*
X011114Y006138D01*
X011214Y006138D01*
X011264Y006088D01*
X011264Y005988D01*
X010949Y005938D02*
X010899Y005988D01*
X010899Y006188D01*
X010849Y006138D02*
X010949Y006138D01*
X010727Y006138D02*
X010577Y006138D01*
X010526Y006088D01*
X010577Y006038D01*
X010677Y006038D01*
X010727Y005988D01*
X010677Y005938D01*
X010526Y005938D01*
X010404Y006038D02*
X010204Y006038D01*
X010204Y005988D02*
X010204Y006088D01*
X010254Y006138D01*
X010354Y006138D01*
X010404Y006088D01*
X010404Y006038D01*
X010354Y005938D02*
X010254Y005938D01*
X010204Y005988D01*
X010082Y005988D02*
X010082Y006138D01*
X010082Y005988D02*
X010032Y005938D01*
X009982Y005988D01*
X009932Y005938D01*
X009882Y005988D01*
X009882Y006138D01*
X009760Y006088D02*
X009760Y006038D01*
X009560Y006038D01*
X009560Y005988D02*
X009560Y006088D01*
X009610Y006138D01*
X009710Y006138D01*
X009760Y006088D01*
X009710Y005938D02*
X009610Y005938D01*
X009560Y005988D01*
X009441Y005938D02*
X009291Y006038D01*
X009441Y006138D01*
X009291Y006238D02*
X009291Y005938D01*
X009169Y005938D02*
X009169Y006138D01*
X009169Y005938D02*
X009019Y005938D01*
X008969Y005988D01*
X008969Y006138D01*
X008804Y006238D02*
X008804Y005938D01*
X008754Y005938D02*
X008854Y005938D01*
X008804Y006238D02*
X008754Y006238D01*
X008632Y006238D02*
X008432Y005938D01*
X008310Y005938D02*
X008310Y006088D01*
X008260Y006138D01*
X008210Y006088D01*
X008210Y005938D01*
X008109Y005938D02*
X008109Y006138D01*
X008159Y006138D01*
X008210Y006088D01*
X007987Y006088D02*
X007937Y006138D01*
X007837Y006138D01*
X007787Y006088D01*
X007787Y005988D01*
X007837Y005938D01*
X007937Y005938D01*
X007987Y005988D01*
X007987Y006088D01*
X007665Y006138D02*
X007515Y006138D01*
X007465Y006088D01*
X007465Y005988D01*
X007515Y005938D01*
X007665Y005938D01*
X007354Y005938D02*
X007304Y005938D01*
X007304Y005988D01*
X007354Y005988D01*
X007354Y005938D01*
X007182Y005988D02*
X007182Y006088D01*
X007132Y006138D01*
X006981Y006138D01*
X006981Y006238D02*
X006981Y005938D01*
X007132Y005938D01*
X007182Y005988D01*
X006859Y005938D02*
X006859Y006138D01*
X006659Y006138D02*
X006659Y005988D01*
X006709Y005938D01*
X006859Y005938D01*
X006537Y005938D02*
X006537Y006088D01*
X006487Y006138D01*
X006387Y006138D01*
X006337Y006088D01*
X006222Y006138D02*
X006122Y006138D01*
X006172Y006188D02*
X006172Y005988D01*
X006222Y005938D01*
X006337Y005938D02*
X006337Y006238D01*
X005957Y006238D02*
X005957Y006288D01*
X005957Y006138D02*
X005957Y005938D01*
X005907Y005938D02*
X006007Y005938D01*
X005957Y006138D02*
X005907Y006138D01*
X005785Y006138D02*
X005635Y006138D01*
X005585Y006088D01*
X005585Y005988D01*
X005635Y005938D01*
X005785Y005938D01*
X005785Y005888D02*
X005785Y006138D01*
X005785Y005888D02*
X005735Y005838D01*
X005685Y005838D01*
X005517Y005488D02*
X005517Y005188D01*
X005639Y005238D02*
X005689Y005288D01*
X005839Y005288D01*
X005839Y005338D02*
X005839Y005188D01*
X005689Y005188D01*
X005639Y005238D01*
X005689Y005388D02*
X005789Y005388D01*
X005839Y005338D01*
X005961Y005288D02*
X006061Y005388D01*
X006111Y005388D01*
X006229Y005338D02*
X006280Y005388D01*
X006430Y005388D01*
X006430Y005488D02*
X006430Y005188D01*
X006280Y005188D01*
X006229Y005238D01*
X006229Y005338D01*
X005961Y005388D02*
X005961Y005188D01*
X005517Y005338D02*
X005316Y005338D01*
X005316Y005188D02*
X005316Y005488D01*
X005263Y005938D02*
X005463Y006238D01*
X005141Y006238D02*
X004940Y005938D01*
X004829Y005938D02*
X004829Y005988D01*
X004779Y005988D01*
X004779Y005938D01*
X004829Y005938D01*
X004829Y006088D02*
X004779Y006088D01*
X004779Y006138D01*
X004829Y006138D01*
X004829Y006088D01*
X004657Y006088D02*
X004657Y005988D01*
X004607Y005938D01*
X004457Y005938D01*
X004457Y005838D02*
X004457Y006138D01*
X004607Y006138D01*
X004657Y006088D01*
X004342Y006138D02*
X004242Y006138D01*
X004292Y006188D02*
X004292Y005988D01*
X004342Y005938D01*
X004127Y005938D02*
X004077Y005988D01*
X004077Y006188D01*
X004027Y006138D02*
X004127Y006138D01*
X003905Y006088D02*
X003905Y005938D01*
X003905Y006088D02*
X003855Y006138D01*
X003755Y006138D01*
X003705Y006088D01*
X003705Y006238D02*
X003705Y005938D01*
X003755Y005488D02*
X003705Y005438D01*
X003705Y005238D01*
X003755Y005188D01*
X003855Y005188D01*
X003905Y005238D01*
X003905Y005438D01*
X003855Y005488D01*
X003755Y005488D01*
X004027Y005388D02*
X004177Y005388D01*
X004227Y005338D01*
X004227Y005238D01*
X004177Y005188D01*
X004027Y005188D01*
X004027Y005088D02*
X004027Y005388D01*
X004350Y005338D02*
X004350Y005238D01*
X004400Y005188D01*
X004500Y005188D01*
X004550Y005288D02*
X004350Y005288D01*
X004350Y005338D02*
X004400Y005388D01*
X004500Y005388D01*
X004550Y005338D01*
X004550Y005288D01*
X004672Y005188D02*
X004672Y005388D01*
X004822Y005388D01*
X004872Y005338D01*
X004872Y005188D01*
X006552Y005238D02*
X006602Y005188D01*
X006652Y005238D01*
X006702Y005188D01*
X006752Y005238D01*
X006752Y005388D01*
X006924Y005388D02*
X007024Y005388D01*
X007074Y005338D01*
X007074Y005188D01*
X006924Y005188D01*
X006874Y005238D01*
X006924Y005288D01*
X007074Y005288D01*
X007196Y005288D02*
X007296Y005388D01*
X007346Y005388D01*
X007465Y005338D02*
X007515Y005388D01*
X007615Y005388D01*
X007665Y005338D01*
X007665Y005288D01*
X007465Y005288D01*
X007465Y005238D02*
X007465Y005338D01*
X007465Y005238D02*
X007515Y005188D01*
X007615Y005188D01*
X007196Y005188D02*
X007196Y005388D01*
X006552Y005388D02*
X006552Y005238D01*
X008109Y005188D02*
X008109Y005388D01*
X008109Y005288D02*
X008210Y005388D01*
X008260Y005388D01*
X008378Y005338D02*
X008428Y005388D01*
X008528Y005388D01*
X008578Y005338D01*
X008578Y005288D01*
X008378Y005288D01*
X008378Y005238D02*
X008378Y005338D01*
X008378Y005238D02*
X008428Y005188D01*
X008528Y005188D01*
X008700Y005188D02*
X008800Y005188D01*
X008750Y005188D02*
X008750Y005488D01*
X008700Y005488D01*
X008915Y005338D02*
X008965Y005388D01*
X009065Y005388D01*
X009115Y005338D01*
X009115Y005288D01*
X008915Y005288D01*
X008915Y005238D02*
X008915Y005338D01*
X008915Y005238D02*
X008965Y005188D01*
X009065Y005188D01*
X009237Y005238D02*
X009287Y005288D01*
X009438Y005288D01*
X009438Y005338D02*
X009438Y005188D01*
X009287Y005188D01*
X009237Y005238D01*
X009287Y005388D02*
X009388Y005388D01*
X009438Y005338D01*
X009560Y005338D02*
X009610Y005388D01*
X009760Y005388D01*
X009710Y005288D02*
X009610Y005288D01*
X009560Y005338D01*
X009560Y005188D02*
X009710Y005188D01*
X009760Y005238D01*
X009710Y005288D01*
X009882Y005288D02*
X010082Y005288D01*
X010082Y005338D01*
X010032Y005388D01*
X009932Y005388D01*
X009882Y005338D01*
X009882Y005238D01*
X009932Y005188D01*
X010032Y005188D01*
X010204Y005238D02*
X010204Y005338D01*
X010254Y005388D01*
X010404Y005388D01*
X010404Y005488D02*
X010404Y005188D01*
X010254Y005188D01*
X010204Y005238D01*
X010849Y005238D02*
X010849Y005388D01*
X010849Y005238D02*
X010899Y005188D01*
X011049Y005188D01*
X011049Y005388D01*
X011171Y005388D02*
X011321Y005388D01*
X011371Y005338D01*
X011371Y005188D01*
X011493Y005238D02*
X011493Y005338D01*
X011543Y005388D01*
X011693Y005388D01*
X011693Y005488D02*
X011693Y005188D01*
X011543Y005188D01*
X011493Y005238D01*
X011816Y005238D02*
X011816Y005338D01*
X011866Y005388D01*
X011966Y005388D01*
X012016Y005338D01*
X012016Y005288D01*
X011816Y005288D01*
X011816Y005238D02*
X011866Y005188D01*
X011966Y005188D01*
X012138Y005188D02*
X012138Y005388D01*
X012138Y005288D02*
X012238Y005388D01*
X012288Y005388D01*
X012729Y005388D02*
X012829Y005388D01*
X012779Y005438D02*
X012779Y005238D01*
X012829Y005188D01*
X012944Y005188D02*
X012944Y005488D01*
X012994Y005388D02*
X013094Y005388D01*
X013144Y005338D01*
X013144Y005188D01*
X013266Y005238D02*
X013266Y005338D01*
X013316Y005388D01*
X013416Y005388D01*
X013466Y005338D01*
X013466Y005288D01*
X013266Y005288D01*
X013266Y005238D02*
X013316Y005188D01*
X013416Y005188D01*
X012994Y005388D02*
X012944Y005338D01*
X014179Y005938D02*
X014329Y005938D01*
X014379Y005988D01*
X014329Y006038D01*
X014229Y006038D01*
X014179Y006088D01*
X014229Y006138D01*
X014379Y006138D01*
X014501Y006138D02*
X014651Y006138D01*
X014701Y006088D01*
X014701Y005988D01*
X014651Y005938D01*
X014501Y005938D01*
X014501Y005838D02*
X014501Y006138D01*
X014823Y006238D02*
X014874Y006238D01*
X014874Y005938D01*
X014924Y005938D02*
X014823Y005938D01*
X015038Y005988D02*
X015088Y005938D01*
X015239Y005938D01*
X015239Y006088D01*
X015188Y006138D01*
X015088Y006138D01*
X015088Y006038D02*
X015239Y006038D01*
X015361Y005988D02*
X015411Y005938D01*
X015561Y005938D01*
X015561Y005888D02*
X015511Y005838D01*
X015461Y005838D01*
X015561Y005888D02*
X015561Y006138D01*
X015361Y006138D02*
X015361Y005988D01*
X015088Y006038D02*
X015038Y005988D01*
X011171Y005388D02*
X011171Y005188D01*
X008793Y006688D02*
X008593Y006688D01*
X008793Y006888D01*
X008793Y006938D01*
X008743Y006988D01*
X008643Y006988D01*
X008593Y006938D01*
X008371Y006988D02*
X008371Y006688D01*
X008271Y006688D02*
X008471Y006688D01*
X008271Y006888D02*
X008371Y006988D01*
X008148Y006938D02*
X008098Y006988D01*
X007998Y006988D01*
X007948Y006938D01*
X007948Y006738D01*
X008148Y006938D01*
X008148Y006738D01*
X008098Y006688D01*
X007998Y006688D01*
X007948Y006738D01*
X007826Y006688D02*
X007626Y006688D01*
X007826Y006888D01*
X007826Y006938D01*
X007776Y006988D01*
X007676Y006988D01*
X007626Y006938D01*
X007189Y006738D02*
X007139Y006738D01*
X007139Y006688D01*
X007189Y006688D01*
X007189Y006738D01*
X007189Y006688D02*
X007089Y006588D01*
X006967Y006688D02*
X006967Y006838D01*
X006917Y006888D01*
X006767Y006888D01*
X006767Y006688D01*
X006645Y006738D02*
X006645Y006838D01*
X006594Y006888D01*
X006494Y006888D01*
X006444Y006838D01*
X006444Y006738D01*
X006494Y006688D01*
X006594Y006688D01*
X006645Y006738D01*
X006330Y006688D02*
X006280Y006738D01*
X006280Y006938D01*
X006330Y006888D02*
X006229Y006888D01*
X006107Y006888D02*
X005957Y006888D01*
X005907Y006838D01*
X005957Y006788D01*
X006057Y006788D01*
X006107Y006738D01*
X006057Y006688D01*
X005907Y006688D01*
X005785Y006788D02*
X005585Y006788D01*
X005585Y006738D02*
X005585Y006838D01*
X005635Y006888D01*
X005735Y006888D01*
X005785Y006838D01*
X005785Y006788D01*
X005735Y006688D02*
X005635Y006688D01*
X005585Y006738D01*
X005463Y006688D02*
X005463Y006988D01*
X005263Y006988D02*
X005263Y006688D01*
X005363Y006788D01*
X005463Y006688D01*
X004818Y006788D02*
X004618Y006788D01*
X004618Y006738D02*
X004618Y006838D01*
X004668Y006888D01*
X004768Y006888D01*
X004818Y006838D01*
X004818Y006788D01*
X004768Y006688D02*
X004668Y006688D01*
X004618Y006738D01*
X004500Y006688D02*
X004350Y006788D01*
X004500Y006888D01*
X004350Y006988D02*
X004350Y006688D01*
X004227Y006688D02*
X004227Y006888D01*
X004027Y006888D02*
X004027Y006738D01*
X004077Y006688D01*
X004227Y006688D01*
X003905Y006688D02*
X003705Y006688D01*
X003705Y006988D01*
X022205Y024813D02*
X022385Y024993D01*
X022385Y025038D01*
X022340Y025083D01*
X022250Y025083D01*
X022205Y025038D01*
X022205Y024813D02*
X022385Y024813D01*
X022500Y024813D02*
X022500Y025083D01*
X022680Y024813D01*
X022680Y025083D01*
X022794Y025083D02*
X022974Y025083D01*
X022974Y025038D01*
X022794Y024858D01*
X022794Y024813D01*
X023089Y024858D02*
X023269Y025038D01*
X023269Y024858D01*
X023224Y024813D01*
X023134Y024813D01*
X023089Y024858D01*
X023089Y025038D01*
X023134Y025083D01*
X023224Y025083D01*
X023269Y025038D01*
X023384Y025038D02*
X023429Y025083D01*
X023519Y025083D01*
X023564Y025038D01*
X023384Y024858D01*
X023429Y024813D01*
X023519Y024813D01*
X023564Y024858D01*
X023564Y025038D01*
X023678Y025038D02*
X023723Y025083D01*
X023813Y025083D01*
X023858Y025038D01*
X023858Y024993D01*
X023678Y024813D01*
X023858Y024813D01*
X023384Y024858D02*
X023384Y025038D01*
X020804Y025438D02*
X020669Y025528D01*
X020804Y025618D01*
X020669Y025708D02*
X020669Y025438D01*
X020555Y025483D02*
X020510Y025438D01*
X020420Y025438D01*
X020375Y025483D01*
X020555Y025663D01*
X020555Y025483D01*
X020555Y025663D02*
X020510Y025708D01*
X020420Y025708D01*
X020375Y025663D01*
X020375Y025483D01*
X020260Y025438D02*
X020080Y025438D01*
X020170Y025438D02*
X020170Y025708D01*
X020080Y025618D01*
X020035Y026838D02*
X020035Y027108D01*
X019945Y027018D01*
X019945Y026838D02*
X020125Y026838D01*
X020240Y026883D02*
X020285Y026838D01*
X020375Y026838D01*
X020420Y026883D01*
X020420Y026928D01*
X020375Y026973D01*
X020240Y026973D01*
X020240Y026883D01*
X020240Y026973D02*
X020330Y027063D01*
X020420Y027108D01*
X020830Y028438D02*
X021010Y028618D01*
X021010Y028663D01*
X020965Y028708D01*
X020875Y028708D01*
X020830Y028663D01*
X020830Y028438D02*
X021010Y028438D01*
X021125Y028438D02*
X021305Y028618D01*
X021305Y028663D01*
X021260Y028708D01*
X021170Y028708D01*
X021125Y028663D01*
X021125Y028438D02*
X021305Y028438D01*
X021714Y028438D02*
X021714Y028708D01*
X021849Y028708D01*
X021894Y028663D01*
X021894Y028573D01*
X021849Y028528D01*
X021714Y028528D01*
X021804Y028528D02*
X021894Y028438D01*
X020260Y028813D02*
X020125Y028948D01*
X020080Y028903D02*
X020260Y029083D01*
X020080Y029083D02*
X020080Y028813D01*
X019260Y028813D02*
X019260Y028993D01*
X019170Y029083D01*
X019080Y028993D01*
X019080Y028813D01*
X019080Y028948D02*
X019260Y028948D01*
X018599Y029038D02*
X018419Y028858D01*
X018419Y028813D01*
X018305Y028858D02*
X018260Y028813D01*
X018125Y028813D01*
X018125Y029083D01*
X018260Y029083D01*
X018305Y029038D01*
X018305Y028993D01*
X018260Y028948D01*
X018125Y028948D01*
X018260Y028948D02*
X018305Y028903D01*
X018305Y028858D01*
X018419Y029083D02*
X018599Y029083D01*
X018599Y029038D01*
X018010Y029038D02*
X017965Y029083D01*
X017830Y029083D01*
X017830Y028813D01*
X017965Y028813D01*
X018010Y028858D01*
X018010Y029038D01*
X017599Y029083D02*
X017509Y029038D01*
X017419Y028948D01*
X017554Y028948D01*
X017599Y028903D01*
X017599Y028858D01*
X017554Y028813D01*
X017464Y028813D01*
X017419Y028858D01*
X017419Y028948D01*
X017305Y028903D02*
X017305Y028858D01*
X017260Y028813D01*
X017125Y028813D01*
X017125Y029083D01*
X017260Y029083D01*
X017305Y029038D01*
X017305Y028993D01*
X017260Y028948D01*
X017125Y028948D01*
X017260Y028948D02*
X017305Y028903D01*
X017010Y028858D02*
X017010Y029038D01*
X016965Y029083D01*
X016830Y029083D01*
X016830Y028813D01*
X016965Y028813D01*
X017010Y028858D01*
X016599Y028858D02*
X016554Y028813D01*
X016464Y028813D01*
X016419Y028858D01*
X016419Y028948D02*
X016509Y028993D01*
X016554Y028993D01*
X016599Y028948D01*
X016599Y028858D01*
X016419Y028948D02*
X016419Y029083D01*
X016599Y029083D01*
X016305Y029038D02*
X016305Y028993D01*
X016260Y028948D01*
X016125Y028948D01*
X016260Y028948D02*
X016305Y028903D01*
X016305Y028858D01*
X016260Y028813D01*
X016125Y028813D01*
X016125Y029083D01*
X016260Y029083D01*
X016305Y029038D01*
X016010Y029038D02*
X015965Y029083D01*
X015830Y029083D01*
X015830Y028813D01*
X015965Y028813D01*
X016010Y028858D01*
X016010Y029038D01*
X015599Y028948D02*
X015419Y028948D01*
X015554Y029083D01*
X015554Y028813D01*
X015554Y029083D01*
X015419Y028948D01*
X015599Y028948D01*
X015305Y028903D02*
X015305Y028858D01*
X015260Y028813D01*
X015125Y028813D01*
X015125Y029083D01*
X015260Y029083D01*
X015305Y029038D01*
X015305Y028993D01*
X015260Y028948D01*
X015125Y028948D01*
X015260Y028948D01*
X015305Y028903D01*
X015305Y028858D01*
X015260Y028813D01*
X015125Y028813D01*
X015125Y029083D01*
X015260Y029083D01*
X015305Y029038D01*
X015305Y028993D01*
X015260Y028948D01*
X015305Y028903D01*
X015010Y028858D02*
X015010Y029038D01*
X014965Y029083D01*
X014830Y029083D01*
X014830Y028813D01*
X014965Y028813D01*
X015010Y028858D01*
X015010Y029038D01*
X014965Y029083D01*
X014830Y029083D01*
X014830Y028813D01*
X014965Y028813D01*
X015010Y028858D01*
X010430Y028813D02*
X010430Y029083D01*
X010250Y029083D02*
X010430Y028813D01*
X010250Y028813D02*
X010250Y029083D01*
X010135Y029083D02*
X009955Y029083D01*
X009955Y028813D01*
X010135Y028813D01*
X010045Y028948D02*
X009955Y028948D01*
X009599Y028813D02*
X009599Y029083D01*
X009419Y029083D02*
X009419Y028813D01*
X009509Y028903D01*
X009599Y028813D01*
X009305Y029083D02*
X009125Y028813D01*
X009010Y028813D02*
X008920Y028903D01*
X008965Y028903D02*
X008830Y028903D01*
X008830Y028813D02*
X008830Y029083D01*
X008965Y029083D01*
X009010Y029038D01*
X009010Y028948D01*
X008965Y028903D01*
X008430Y028903D02*
X008430Y028858D01*
X008385Y028813D01*
X008295Y028813D01*
X008250Y028858D01*
X008295Y028948D02*
X008385Y028948D01*
X008430Y028903D01*
X008430Y029038D02*
X008385Y029083D01*
X008295Y029083D01*
X008250Y029038D01*
X008250Y028993D01*
X008295Y028948D01*
X008135Y028948D02*
X008090Y028903D01*
X007955Y028903D01*
X007955Y028813D02*
X007955Y029083D01*
X008090Y029083D01*
X008135Y029038D01*
X008135Y028948D01*
X008045Y028903D02*
X008135Y028813D01*
X007599Y028813D02*
X007599Y029083D01*
X007419Y029083D02*
X007599Y028813D01*
X007419Y028813D02*
X007419Y029083D01*
X007305Y029038D02*
X007260Y029083D01*
X007170Y029083D01*
X007125Y029038D01*
X007125Y028858D01*
X007170Y028813D01*
X007260Y028813D01*
X007305Y028858D01*
X007305Y029038D01*
X007010Y029038D02*
X006965Y029083D01*
X006875Y029083D01*
X006830Y029038D01*
X006830Y028858D01*
X006875Y028813D01*
X006965Y028813D01*
X007010Y028858D01*
X006599Y028858D02*
X006599Y029038D01*
X006554Y029083D01*
X006419Y029083D01*
X006419Y028813D01*
X006554Y028813D01*
X006599Y028858D01*
X006305Y028858D02*
X006305Y029038D01*
X006260Y029083D01*
X006125Y029083D01*
X006125Y028813D01*
X006260Y028813D01*
X006305Y028858D01*
X006010Y028903D02*
X006010Y029083D01*
X006010Y028903D02*
X005920Y028813D01*
X005830Y028903D01*
X005830Y029083D01*
X005599Y029038D02*
X005554Y029083D01*
X005419Y029083D01*
X005419Y028813D01*
X005554Y028813D01*
X005599Y028858D01*
X005599Y029038D01*
X005305Y029083D02*
X005305Y028813D01*
X005125Y029083D01*
X005125Y028813D01*
X005010Y028858D02*
X005010Y028948D01*
X004920Y028948D01*
X004830Y028858D02*
X004875Y028813D01*
X004965Y028813D01*
X005010Y028858D01*
X004830Y028858D02*
X004830Y029038D01*
X004875Y029083D01*
X004965Y029083D01*
X005010Y029038D01*
X005195Y027108D02*
X005195Y026838D01*
X005105Y026838D02*
X005285Y026838D01*
X005105Y027018D02*
X005195Y027108D01*
X004224Y026993D02*
X004089Y026903D01*
X004224Y026813D01*
X004089Y026813D02*
X004089Y027083D01*
X003680Y027038D02*
X003500Y026858D01*
X003545Y026813D01*
X003635Y026813D01*
X003680Y026858D01*
X003680Y027038D01*
X003635Y027083D01*
X003545Y027083D01*
X003500Y027038D01*
X003500Y026858D01*
X003385Y026813D02*
X003205Y026813D01*
X003295Y026813D02*
X003295Y027083D01*
X003205Y026993D01*
X019955Y031188D02*
X019955Y031458D01*
X020090Y031458D01*
X020135Y031413D01*
X020135Y031323D01*
X020090Y031278D01*
X019955Y031278D01*
X020250Y031233D02*
X020295Y031188D01*
X020385Y031188D01*
X020430Y031233D01*
X020430Y031323D01*
X020385Y031368D01*
X020295Y031368D01*
X020250Y031323D01*
X020250Y031233D01*
X020544Y031233D02*
X020589Y031188D01*
X020634Y031233D01*
X020679Y031188D01*
X020724Y031233D01*
X020724Y031368D01*
X020839Y031323D02*
X020884Y031368D01*
X020974Y031368D01*
X021019Y031323D01*
X021019Y031278D01*
X020839Y031278D01*
X020839Y031233D02*
X020839Y031323D01*
X020839Y031233D02*
X020884Y031188D01*
X020974Y031188D01*
X021134Y031188D02*
X021134Y031368D01*
X021134Y031278D02*
X021224Y031368D01*
X021269Y031368D01*
X020544Y031368D02*
X020544Y031233D01*
X020625Y030333D02*
X020625Y030063D01*
X020625Y030153D02*
X020760Y030063D01*
X020625Y030153D02*
X020760Y030243D01*
X020510Y030063D02*
X020330Y030063D01*
X020420Y030063D02*
X020420Y030333D01*
X020330Y030243D01*
X023760Y029953D02*
X023760Y029863D01*
X023805Y029818D01*
X023985Y029818D01*
X024030Y029863D01*
X024030Y029953D01*
X023985Y029998D01*
X023985Y030112D02*
X023940Y030157D01*
X023940Y030292D01*
X023895Y030292D02*
X024030Y030292D01*
X024030Y030157D01*
X023985Y030112D01*
X023850Y030157D02*
X023850Y030247D01*
X023895Y030292D01*
X023940Y030407D02*
X023850Y030497D01*
X023850Y030542D01*
X023895Y030652D02*
X023850Y030697D01*
X023850Y030833D01*
X023760Y030833D02*
X024030Y030833D01*
X024030Y030697D01*
X023985Y030652D01*
X023895Y030652D01*
X023850Y030407D02*
X024030Y030407D01*
X023805Y029998D02*
X023760Y029953D01*
X023805Y029408D02*
X023760Y029363D01*
X023760Y029228D01*
X024030Y029228D01*
X024030Y029363D01*
X023985Y029408D01*
X023805Y029408D01*
X023805Y029114D02*
X023760Y029069D01*
X023760Y028979D01*
X023805Y028934D01*
X023850Y028934D01*
X023895Y028979D01*
X023895Y029069D01*
X023940Y029114D01*
X023985Y029114D01*
X024030Y029069D01*
X024030Y028979D01*
X023985Y028934D01*
X023985Y028524D02*
X023895Y028524D01*
X023850Y028479D01*
X023850Y028389D01*
X023895Y028344D01*
X023985Y028344D01*
X024030Y028389D01*
X024030Y028479D01*
X023985Y028524D01*
X023850Y028234D02*
X023850Y028189D01*
X023940Y028099D01*
X024030Y028099D02*
X023850Y028099D01*
X023850Y027984D02*
X023850Y027849D01*
X023895Y027804D01*
X023985Y027804D01*
X024030Y027849D01*
X024030Y027984D01*
X024030Y027698D02*
X024030Y027608D01*
X024030Y027653D02*
X023850Y027653D01*
X023850Y027608D01*
X023760Y027653D02*
X023715Y027653D01*
X023760Y027493D02*
X024030Y027493D01*
X024030Y027313D02*
X023760Y027313D01*
X023850Y027403D01*
X023760Y027493D01*
X029830Y029983D02*
X029875Y029938D01*
X029965Y029938D01*
X030010Y029983D01*
X030010Y030028D01*
X029965Y030073D01*
X029875Y030073D01*
X029830Y030118D01*
X029830Y030163D01*
X029875Y030208D01*
X029965Y030208D01*
X030010Y030163D01*
X030125Y030208D02*
X030260Y030208D01*
X030305Y030163D01*
X030305Y029983D01*
X030260Y029938D01*
X030125Y029938D01*
X030125Y030208D01*
X030714Y029983D02*
X030759Y030028D01*
X030894Y030028D01*
X030894Y030073D02*
X030894Y029938D01*
X030759Y029938D01*
X030714Y029983D01*
X030759Y030118D02*
X030849Y030118D01*
X030894Y030073D01*
X031009Y030073D02*
X031054Y030118D01*
X031189Y030118D01*
X031303Y030118D02*
X031393Y030118D01*
X031348Y030163D02*
X031348Y029983D01*
X031393Y029938D01*
X031189Y029938D02*
X031054Y029938D01*
X031009Y029983D01*
X031009Y030073D01*
X031955Y030118D02*
X032045Y030208D01*
X032045Y029938D01*
X031955Y029938D02*
X032135Y029938D01*
X032250Y029983D02*
X032430Y030163D01*
X032430Y029983D01*
X032385Y029938D01*
X032295Y029938D01*
X032250Y029983D01*
X032250Y030163D01*
X032295Y030208D01*
X032385Y030208D01*
X032430Y030163D01*
X032839Y030208D02*
X032839Y029938D01*
X032839Y030028D02*
X032974Y030118D01*
X032839Y030028D02*
X032974Y029938D01*
X048980Y025283D02*
X051380Y025283D01*
D12*
X037410Y025982D02*
X034950Y025982D01*
X034950Y027344D01*
X037410Y027344D01*
X037410Y025982D01*
X034180Y026470D02*
X034180Y025355D01*
X034178Y025332D01*
X034173Y025309D01*
X034164Y025287D01*
X034151Y025267D01*
X034136Y025249D01*
X034118Y025234D01*
X034098Y025221D01*
X034076Y025212D01*
X034053Y025207D01*
X034030Y025205D01*
X030330Y025205D01*
X030307Y025207D01*
X030284Y025212D01*
X030262Y025221D01*
X030242Y025234D01*
X030224Y025249D01*
X030209Y025267D01*
X030196Y025287D01*
X030187Y025309D01*
X030182Y025332D01*
X030180Y025355D01*
X030180Y026471D01*
X030182Y026494D01*
X030187Y026517D01*
X030196Y026539D01*
X030209Y026559D01*
X030224Y026577D01*
X030242Y026592D01*
X030262Y026605D01*
X030284Y026614D01*
X030307Y026619D01*
X030330Y026621D01*
X034030Y026620D01*
X034053Y026618D01*
X034076Y026613D01*
X034098Y026604D01*
X034118Y026591D01*
X034136Y026576D01*
X034151Y026558D01*
X034164Y026538D01*
X034173Y026516D01*
X034178Y026493D01*
X034180Y026470D01*
X031990Y020472D02*
X031370Y020472D01*
X031370Y019354D02*
X031990Y019354D01*
X051710Y016407D02*
X051817Y016513D01*
X051817Y016193D01*
X051710Y016193D02*
X051924Y016193D01*
X052060Y015913D02*
X052060Y016563D01*
X052060Y016913D01*
X052580Y016913D01*
X053180Y016913D01*
X053680Y016913D01*
X054280Y016913D01*
X054810Y016913D01*
X054810Y016563D01*
X054810Y015913D01*
X054810Y005913D01*
X054810Y005263D01*
X054810Y004923D01*
X054280Y004923D01*
X053680Y004923D01*
X053180Y004923D01*
X052580Y004923D01*
X052060Y004923D01*
X052060Y005263D01*
X052060Y005913D01*
X052060Y015913D01*
X004330Y023863D02*
X004230Y023763D01*
X001630Y023763D01*
X001530Y023863D01*
X001530Y026463D01*
X001630Y026563D01*
X004230Y026563D01*
X004330Y026463D01*
X004330Y023863D01*
D13*
X029715Y005527D02*
X029816Y005628D01*
X029965Y005507D01*
X030025Y005538D01*
X030089Y005559D01*
X030108Y005749D01*
X030252Y005749D01*
X030271Y005559D01*
X030335Y005538D01*
X030395Y005507D01*
X030544Y005628D01*
X030645Y005527D01*
X030524Y005378D01*
X030555Y005318D01*
X030576Y005254D01*
X030766Y005235D01*
X030766Y005091D01*
X030576Y005072D01*
X030555Y005008D01*
X030524Y004948D01*
X030645Y004799D01*
X030544Y004698D01*
X030395Y004819D01*
X030335Y004788D01*
X030251Y004992D01*
X030289Y005014D01*
X030321Y005044D01*
X030567Y005044D01*
X030544Y004987D02*
X030253Y004987D01*
X030277Y004929D02*
X030540Y004929D01*
X030586Y004872D02*
X030301Y004872D01*
X030325Y004814D02*
X030386Y004814D01*
X030401Y004814D02*
X030633Y004814D01*
X030602Y004757D02*
X030471Y004757D01*
X030542Y004699D02*
X030545Y004699D01*
X030321Y005044D02*
X030345Y005081D01*
X030360Y005123D01*
X030364Y005167D01*
X030358Y005211D01*
X030342Y005252D01*
X030316Y005288D01*
X030282Y005316D01*
X030243Y005336D01*
X030200Y005346D01*
X030156Y005346D01*
X030113Y005335D01*
X030074Y005314D01*
X030041Y005285D01*
X030016Y005248D01*
X030001Y005207D01*
X029995Y005163D01*
X030001Y005120D01*
X030016Y005079D01*
X030040Y005043D01*
X030072Y005014D01*
X030109Y004992D01*
X030025Y004788D01*
X029965Y004819D01*
X029816Y004698D01*
X029715Y004799D01*
X029836Y004948D01*
X029805Y005008D01*
X029784Y005072D01*
X029594Y005091D01*
X029594Y005235D01*
X029784Y005254D01*
X029805Y005318D01*
X029836Y005378D01*
X029715Y005527D01*
X029732Y005505D02*
X030628Y005505D01*
X030610Y005562D02*
X030463Y005562D01*
X030533Y005620D02*
X030552Y005620D01*
X030581Y005447D02*
X029779Y005447D01*
X029826Y005390D02*
X030534Y005390D01*
X030548Y005332D02*
X030251Y005332D01*
X030325Y005275D02*
X030569Y005275D01*
X030766Y005217D02*
X030356Y005217D01*
X030364Y005159D02*
X030766Y005159D01*
X030766Y005102D02*
X030353Y005102D01*
X030107Y004987D02*
X029816Y004987D01*
X029820Y004929D02*
X030083Y004929D01*
X030059Y004872D02*
X029774Y004872D01*
X029727Y004814D02*
X029959Y004814D01*
X029974Y004814D02*
X030035Y004814D01*
X029889Y004757D02*
X029758Y004757D01*
X029815Y004699D02*
X029818Y004699D01*
X029793Y005044D02*
X030039Y005044D01*
X030007Y005102D02*
X029594Y005102D01*
X029594Y005159D02*
X029996Y005159D01*
X030005Y005217D02*
X029594Y005217D01*
X029791Y005275D02*
X030034Y005275D01*
X030108Y005332D02*
X029812Y005332D01*
X029750Y005562D02*
X029897Y005562D01*
X029827Y005620D02*
X029808Y005620D01*
X030095Y005620D02*
X030265Y005620D01*
X030259Y005677D02*
X030101Y005677D01*
X030107Y005735D02*
X030253Y005735D01*
X030271Y005562D02*
X030089Y005562D01*
D14*
X030368Y025475D02*
X030370Y025490D01*
X030376Y025505D01*
X030385Y025517D01*
X030397Y025527D01*
X030411Y025534D01*
X030426Y025537D01*
X030442Y025536D01*
X030456Y025531D01*
X030470Y025523D01*
X030480Y025511D01*
X030488Y025498D01*
X030492Y025483D01*
X030492Y025467D01*
X030488Y025452D01*
X030480Y025439D01*
X030470Y025427D01*
X030456Y025419D01*
X030442Y025414D01*
X030426Y025413D01*
X030411Y025416D01*
X030397Y025423D01*
X030385Y025433D01*
X030376Y025445D01*
X030370Y025460D01*
X030368Y025475D01*
D15*
X030641Y029413D03*
X020516Y030788D03*
D16*
X043930Y017818D03*
D17*
X034172Y021724D02*
X034174Y021751D01*
X034180Y021778D01*
X034189Y021804D01*
X034202Y021828D01*
X034218Y021851D01*
X034237Y021870D01*
X034259Y021887D01*
X034283Y021901D01*
X034308Y021911D01*
X034335Y021918D01*
X034362Y021921D01*
X034390Y021920D01*
X034417Y021915D01*
X034443Y021907D01*
X034467Y021895D01*
X034490Y021879D01*
X034511Y021861D01*
X034528Y021840D01*
X034543Y021816D01*
X034554Y021791D01*
X034562Y021765D01*
X034566Y021738D01*
X034566Y021710D01*
X034562Y021683D01*
X034554Y021657D01*
X034543Y021632D01*
X034528Y021608D01*
X034511Y021587D01*
X034490Y021569D01*
X034468Y021553D01*
X034443Y021541D01*
X034417Y021533D01*
X034390Y021528D01*
X034362Y021527D01*
X034335Y021530D01*
X034308Y021537D01*
X034283Y021547D01*
X034259Y021561D01*
X034237Y021578D01*
X034218Y021597D01*
X034202Y021620D01*
X034189Y021644D01*
X034180Y021670D01*
X034174Y021697D01*
X034172Y021724D01*
M02*
