G75*
G70*
%OFA0B0*%
%FSLAX24Y24*%
%IPPOS*%
%LPD*%
%AMOC8*
5,1,8,0,0,1.08239X$1,22.5*
%
%ADD10C,0.0080*%
%ADD11C,0.0050*%
%ADD12C,0.0060*%
%ADD13C,0.0059*%
%ADD14C,0.0150*%
%ADD15R,0.0079X0.0079*%
%ADD16R,0.0620X0.0240*%
%ADD17C,0.0394*%
D10*
X001180Y002180D02*
X002010Y002180D01*
X002279Y002180D02*
X002331Y002180D01*
X002600Y002180D02*
X003430Y002180D01*
X001180Y002180D02*
X001180Y003212D01*
X001180Y003482D02*
X001180Y003533D01*
X001180Y003803D02*
X001180Y004835D01*
X001180Y005105D02*
X001180Y005156D01*
X001180Y005425D02*
X001180Y006458D01*
X001180Y006727D02*
X001180Y006778D01*
X001180Y007048D02*
X001180Y008080D01*
X001180Y008350D02*
X001180Y008401D01*
X001180Y008671D02*
X001180Y009703D01*
X001180Y009973D02*
X001180Y010024D01*
X001180Y010294D02*
X001180Y011326D01*
X001180Y011595D02*
X001180Y011646D01*
X001180Y011916D02*
X001180Y012948D01*
X001180Y013218D02*
X001180Y013269D01*
X001180Y013539D02*
X001180Y014571D01*
X001180Y014841D02*
X001180Y014892D01*
X001180Y015162D02*
X001180Y016194D01*
X001180Y016464D02*
X001180Y016515D01*
X001180Y016784D02*
X001180Y017816D01*
X001180Y018086D02*
X001180Y018137D01*
X001180Y018407D02*
X001180Y019439D01*
X001180Y019709D02*
X001180Y019760D01*
X001180Y020030D02*
X001180Y021062D01*
X001180Y021332D02*
X001180Y021383D01*
X001180Y021652D02*
X001180Y022685D01*
X001180Y022954D02*
X001180Y023005D01*
X001180Y023275D02*
X001180Y024307D01*
X001180Y024577D02*
X001180Y024628D01*
X001180Y024898D02*
X001180Y025930D01*
X002510Y025930D01*
X002779Y025930D02*
X002831Y025930D01*
X003100Y025930D02*
X004430Y025930D01*
X010805Y025930D02*
X012385Y025930D01*
X012654Y025930D02*
X012706Y025930D01*
X012975Y025930D02*
X014555Y025930D01*
X020555Y025930D02*
X021697Y025930D01*
X021967Y025930D02*
X022018Y025930D01*
X022288Y025930D02*
X023430Y025930D01*
X022731Y023831D02*
X022731Y023516D01*
X022731Y023831D02*
X022495Y023831D01*
X021865Y023831D02*
X021629Y023831D01*
X021629Y023516D01*
X029930Y025930D02*
X031328Y025930D01*
X031598Y025930D02*
X031649Y025930D01*
X031919Y025930D02*
X033316Y025930D01*
X033586Y025930D02*
X033637Y025930D01*
X033907Y025930D02*
X035305Y025930D01*
X036055Y025930D02*
X037697Y025930D01*
X037967Y025930D02*
X038018Y025930D01*
X038288Y025930D02*
X039930Y025930D01*
X039930Y024898D01*
X039930Y024628D02*
X039930Y024577D01*
X039930Y024307D02*
X039930Y023275D01*
X039930Y023005D02*
X039930Y022954D01*
X039930Y022685D02*
X039930Y021652D01*
X039930Y021383D02*
X039930Y021332D01*
X039930Y021062D02*
X039930Y020030D01*
X039930Y019760D02*
X039930Y019709D01*
X039930Y019439D02*
X039930Y018407D01*
X039930Y018137D02*
X039930Y018086D01*
X039930Y017816D02*
X039930Y016784D01*
X039930Y016515D02*
X039930Y016464D01*
X039930Y016194D02*
X039930Y015162D01*
X039930Y014892D02*
X039930Y014841D01*
X039930Y014571D02*
X039930Y013539D01*
X039930Y013269D02*
X039930Y013218D01*
X039930Y012948D02*
X039930Y011916D01*
X039930Y011646D02*
X039930Y011595D01*
X039930Y011326D02*
X039930Y010294D01*
X039930Y010024D02*
X039930Y009973D01*
X039930Y009703D02*
X039930Y008671D01*
X039930Y008401D02*
X039930Y008350D01*
X039930Y008080D02*
X039930Y007048D01*
X039930Y006778D02*
X039930Y006727D01*
X039930Y006458D02*
X039930Y005425D01*
X039930Y005156D02*
X039930Y005105D01*
X039930Y004835D02*
X039930Y003803D01*
X039930Y003533D02*
X039930Y003482D01*
X039930Y003212D02*
X039930Y002180D01*
X038652Y002180D01*
X038383Y002180D02*
X038332Y002180D01*
X038062Y002180D02*
X036784Y002180D01*
X036515Y002180D02*
X036464Y002180D01*
X036194Y002180D02*
X034916Y002180D01*
X034646Y002180D02*
X034595Y002180D01*
X034326Y002180D02*
X033048Y002180D01*
X032778Y002180D02*
X032727Y002180D01*
X032458Y002180D02*
X031180Y002180D01*
X024181Y004540D02*
X024111Y004470D01*
X023971Y004470D01*
X023901Y004540D01*
X023971Y004680D02*
X023901Y004750D01*
X023901Y004820D01*
X023971Y004890D01*
X024111Y004890D01*
X024181Y004820D01*
X024111Y004680D02*
X024181Y004610D01*
X024181Y004540D01*
X024111Y004680D02*
X023971Y004680D01*
X023720Y004680D02*
X023720Y004820D01*
X023650Y004890D01*
X023440Y004890D01*
X023440Y004470D01*
X023440Y004610D02*
X023650Y004610D01*
X023720Y004680D01*
X023260Y004890D02*
X023260Y004470D01*
X022980Y004470D02*
X022980Y004890D01*
X023120Y004750D01*
X023260Y004890D01*
X022800Y004750D02*
X022800Y004470D01*
X022800Y004680D02*
X022519Y004680D01*
X022519Y004750D02*
X022519Y004470D01*
X022339Y004470D02*
X022199Y004610D01*
X022269Y004610D02*
X022059Y004610D01*
X022059Y004470D02*
X022059Y004890D01*
X022269Y004890D01*
X022339Y004820D01*
X022339Y004680D01*
X022269Y004610D01*
X022519Y004750D02*
X022659Y004890D01*
X022800Y004750D01*
X021425Y004750D02*
X021355Y004750D01*
X021215Y004610D01*
X021215Y004470D02*
X021215Y004750D01*
X021035Y004680D02*
X020965Y004750D01*
X020825Y004750D01*
X020755Y004680D01*
X020755Y004540D01*
X020825Y004470D01*
X020965Y004470D01*
X021035Y004540D01*
X021035Y004680D01*
X020588Y004680D02*
X020448Y004680D01*
X020518Y004820D02*
X020518Y004470D01*
X020518Y004820D02*
X020588Y004890D01*
X019807Y004680D02*
X019807Y004470D01*
X019807Y004680D02*
X019737Y004750D01*
X019527Y004750D01*
X019527Y004470D01*
X019347Y004540D02*
X019347Y004680D01*
X019277Y004750D01*
X019136Y004750D01*
X019066Y004680D01*
X019066Y004540D01*
X019136Y004470D01*
X019277Y004470D01*
X019347Y004540D01*
X018900Y004470D02*
X018759Y004470D01*
X018830Y004470D02*
X018830Y004750D01*
X018759Y004750D01*
X018830Y004890D02*
X018830Y004960D01*
X018579Y004750D02*
X018369Y004750D01*
X018299Y004680D01*
X018369Y004610D01*
X018509Y004610D01*
X018579Y004540D01*
X018509Y004470D01*
X018299Y004470D01*
X018119Y004470D02*
X018119Y004680D01*
X018049Y004750D01*
X017839Y004750D01*
X017839Y004470D01*
X017659Y004470D02*
X017448Y004470D01*
X017378Y004540D01*
X017448Y004610D01*
X017659Y004610D01*
X017659Y004680D02*
X017659Y004470D01*
X017659Y004680D02*
X017588Y004750D01*
X017448Y004750D01*
X017198Y004680D02*
X017128Y004750D01*
X016918Y004750D01*
X016918Y004330D01*
X016918Y004470D02*
X017128Y004470D01*
X017198Y004540D01*
X017198Y004680D01*
X016738Y004750D02*
X016458Y004470D01*
X016277Y004610D02*
X015997Y004610D01*
X015997Y004540D02*
X015997Y004680D01*
X016067Y004750D01*
X016207Y004750D01*
X016277Y004680D01*
X016277Y004610D01*
X016207Y004470D02*
X016067Y004470D01*
X015997Y004540D01*
X016458Y004750D02*
X016738Y004470D01*
X015357Y004470D02*
X015146Y004470D01*
X015076Y004540D01*
X015076Y004680D01*
X015146Y004750D01*
X015357Y004750D01*
X015357Y004890D02*
X015357Y004470D01*
X014903Y004750D02*
X014833Y004750D01*
X014693Y004610D01*
X014693Y004470D02*
X014693Y004750D01*
X014513Y004680D02*
X014442Y004750D01*
X014302Y004750D01*
X014302Y004610D02*
X014232Y004540D01*
X014302Y004470D01*
X014513Y004470D01*
X014513Y004680D01*
X014513Y004610D02*
X014302Y004610D01*
X014052Y004540D02*
X013982Y004470D01*
X013842Y004470D01*
X013772Y004540D01*
X013772Y004820D01*
X013842Y004890D01*
X013982Y004890D01*
X014052Y004820D01*
X013592Y004820D02*
X013592Y004540D01*
X013522Y004470D01*
X013312Y004470D01*
X013312Y004890D01*
X013522Y004890D01*
X013592Y004820D01*
X013131Y004820D02*
X013061Y004890D01*
X012921Y004890D01*
X012851Y004820D01*
X012851Y004750D01*
X012921Y004680D01*
X013061Y004680D01*
X013131Y004610D01*
X013131Y004540D01*
X013061Y004470D01*
X012921Y004470D01*
X012851Y004540D01*
X012671Y004890D02*
X012391Y004470D01*
X012211Y004610D02*
X011930Y004610D01*
X011930Y004540D02*
X011930Y004680D01*
X012000Y004750D01*
X012141Y004750D01*
X012211Y004680D01*
X012211Y004610D01*
X012141Y004470D02*
X012000Y004470D01*
X011930Y004540D01*
X011764Y004470D02*
X011623Y004470D01*
X011693Y004470D02*
X011693Y004890D01*
X011623Y004890D01*
X011443Y004680D02*
X011443Y004540D01*
X011373Y004470D01*
X011163Y004470D01*
X011163Y004330D02*
X011163Y004750D01*
X011373Y004750D01*
X011443Y004680D01*
X010983Y004750D02*
X010983Y004470D01*
X010773Y004470D01*
X010703Y004540D01*
X010703Y004750D01*
X010522Y004680D02*
X010452Y004750D01*
X010312Y004750D01*
X010242Y004680D01*
X010242Y004540D01*
X010312Y004470D01*
X010452Y004470D01*
X010522Y004540D01*
X010522Y004680D01*
X010062Y004750D02*
X009852Y004750D01*
X009782Y004680D01*
X009782Y004540D01*
X009852Y004470D01*
X010062Y004470D01*
X009602Y004540D02*
X009602Y004680D01*
X009532Y004750D01*
X009391Y004750D01*
X009321Y004680D01*
X009321Y004540D01*
X009391Y004470D01*
X009532Y004470D01*
X009602Y004540D01*
X009141Y004470D02*
X009141Y004680D01*
X009071Y004750D01*
X009001Y004680D01*
X009001Y004470D01*
X008861Y004470D02*
X008861Y004750D01*
X008931Y004750D01*
X009001Y004680D01*
X008688Y004750D02*
X008618Y004750D01*
X008477Y004610D01*
X008477Y004470D02*
X008477Y004750D01*
X008297Y004680D02*
X008227Y004750D01*
X008087Y004750D01*
X008017Y004680D01*
X008017Y004540D01*
X008087Y004470D01*
X008227Y004470D01*
X008297Y004610D02*
X008017Y004610D01*
X007837Y004680D02*
X007767Y004750D01*
X007627Y004750D01*
X007557Y004680D01*
X007557Y004890D02*
X007557Y004470D01*
X007837Y004470D02*
X007837Y004680D01*
X008297Y004680D02*
X008297Y004610D01*
X007376Y004890D02*
X007096Y004890D01*
X007236Y004890D02*
X007236Y004470D01*
X006916Y004890D02*
X006636Y004470D01*
X006456Y004470D02*
X006245Y004470D01*
X006175Y004540D01*
X006175Y004750D01*
X005995Y004680D02*
X005925Y004750D01*
X005785Y004750D01*
X005785Y004610D02*
X005995Y004610D01*
X005995Y004680D02*
X005995Y004470D01*
X005785Y004470D01*
X005715Y004540D01*
X005785Y004610D01*
X005548Y004470D02*
X005408Y004470D01*
X005478Y004470D02*
X005478Y004890D01*
X005408Y004890D01*
X005228Y004680D02*
X005158Y004750D01*
X004948Y004750D01*
X004948Y004330D01*
X004948Y004470D02*
X005158Y004470D01*
X005228Y004540D01*
X005228Y004680D01*
X004768Y004750D02*
X004557Y004750D01*
X004487Y004680D01*
X004557Y004610D01*
X004698Y004610D01*
X004768Y004540D01*
X004698Y004470D01*
X004487Y004470D01*
X004321Y004470D02*
X004180Y004470D01*
X004250Y004470D02*
X004250Y004750D01*
X004180Y004750D01*
X004250Y004890D02*
X004250Y004960D01*
X004000Y004820D02*
X003930Y004890D01*
X003720Y004890D01*
X003720Y004470D01*
X003930Y004470D01*
X004000Y004540D01*
X004000Y004820D01*
X006316Y004330D02*
X006386Y004330D01*
X006456Y004400D01*
X006456Y004750D01*
X042030Y016680D02*
X043330Y016680D01*
X043080Y016930D02*
X043082Y016950D01*
X043088Y016968D01*
X043097Y016986D01*
X043109Y017001D01*
X043124Y017013D01*
X043142Y017022D01*
X043160Y017028D01*
X043180Y017030D01*
X043200Y017028D01*
X043218Y017022D01*
X043236Y017013D01*
X043251Y017001D01*
X043263Y016986D01*
X043272Y016968D01*
X043278Y016950D01*
X043280Y016930D01*
X043278Y016910D01*
X043272Y016892D01*
X043263Y016874D01*
X043251Y016859D01*
X043236Y016847D01*
X043218Y016838D01*
X043200Y016832D01*
X043180Y016830D01*
X043160Y016832D01*
X043142Y016838D01*
X043124Y016847D01*
X043109Y016859D01*
X043097Y016874D01*
X043088Y016892D01*
X043082Y016910D01*
X043080Y016930D01*
X043694Y015302D02*
X044166Y015302D01*
X043930Y014908D01*
X043694Y015302D01*
X043916Y012515D02*
X043916Y010535D01*
X045747Y009926D02*
X046613Y009926D01*
X044412Y009680D02*
X044414Y009767D01*
X044421Y009853D01*
X044431Y009939D01*
X044446Y010025D01*
X044465Y010110D01*
X044488Y010193D01*
X044515Y010276D01*
X044547Y010357D01*
X044582Y010436D01*
X044621Y010513D01*
X044664Y010589D01*
X044710Y010662D01*
X044760Y010733D01*
X044813Y010802D01*
X044870Y010867D01*
X044930Y010930D01*
X044993Y010990D01*
X045058Y011047D01*
X045127Y011100D01*
X045198Y011150D01*
X045271Y011196D01*
X045347Y011239D01*
X045424Y011278D01*
X045503Y011313D01*
X045584Y011345D01*
X045667Y011372D01*
X045750Y011395D01*
X045835Y011414D01*
X045921Y011429D01*
X046007Y011439D01*
X046093Y011446D01*
X046180Y011448D01*
X046267Y011446D01*
X046353Y011439D01*
X046439Y011429D01*
X046525Y011414D01*
X046610Y011395D01*
X046693Y011372D01*
X046776Y011345D01*
X046857Y011313D01*
X046936Y011278D01*
X047013Y011239D01*
X047089Y011196D01*
X047162Y011150D01*
X047233Y011100D01*
X047302Y011047D01*
X047367Y010990D01*
X047430Y010930D01*
X047490Y010867D01*
X047547Y010802D01*
X047600Y010733D01*
X047650Y010662D01*
X047696Y010589D01*
X047739Y010513D01*
X047778Y010436D01*
X047813Y010357D01*
X047845Y010276D01*
X047872Y010193D01*
X047895Y010110D01*
X047914Y010025D01*
X047929Y009939D01*
X047939Y009853D01*
X047946Y009767D01*
X047948Y009680D01*
X047946Y009593D01*
X047939Y009507D01*
X047929Y009421D01*
X047914Y009335D01*
X047895Y009250D01*
X047872Y009167D01*
X047845Y009084D01*
X047813Y009003D01*
X047778Y008924D01*
X047739Y008847D01*
X047696Y008771D01*
X047650Y008698D01*
X047600Y008627D01*
X047547Y008558D01*
X047490Y008493D01*
X047430Y008430D01*
X047367Y008370D01*
X047302Y008313D01*
X047233Y008260D01*
X047162Y008210D01*
X047089Y008164D01*
X047013Y008121D01*
X046936Y008082D01*
X046857Y008047D01*
X046776Y008015D01*
X046693Y007988D01*
X046610Y007965D01*
X046525Y007946D01*
X046439Y007931D01*
X046353Y007921D01*
X046267Y007914D01*
X046180Y007912D01*
X046093Y007914D01*
X046007Y007921D01*
X045921Y007931D01*
X045835Y007946D01*
X045750Y007965D01*
X045667Y007988D01*
X045584Y008015D01*
X045503Y008047D01*
X045424Y008082D01*
X045347Y008121D01*
X045271Y008164D01*
X045198Y008210D01*
X045127Y008260D01*
X045058Y008313D01*
X044993Y008370D01*
X044930Y008430D01*
X044870Y008493D01*
X044813Y008558D01*
X044760Y008627D01*
X044710Y008698D01*
X044664Y008771D01*
X044621Y008847D01*
X044582Y008924D01*
X044547Y009003D01*
X044515Y009084D01*
X044488Y009167D01*
X044465Y009250D01*
X044446Y009335D01*
X044431Y009421D01*
X044421Y009507D01*
X044414Y009593D01*
X044412Y009680D01*
X043916Y008765D02*
X043916Y007160D01*
X048444Y007160D01*
X048444Y008765D01*
X046613Y009926D02*
X046633Y009887D01*
X046649Y009847D01*
X046662Y009806D01*
X046671Y009764D01*
X046676Y009721D01*
X046678Y009677D01*
X046676Y009634D01*
X046670Y009591D01*
X046660Y009549D01*
X046647Y009508D01*
X046631Y009468D01*
X046610Y009430D01*
X046587Y009393D01*
X046561Y009359D01*
X046531Y009327D01*
X046499Y009298D01*
X046465Y009271D01*
X046428Y009248D01*
X046390Y009228D01*
X046350Y009212D01*
X046308Y009199D01*
X046266Y009190D01*
X046223Y009184D01*
X046180Y009182D01*
X046137Y009184D01*
X046094Y009190D01*
X046052Y009199D01*
X046010Y009212D01*
X045970Y009228D01*
X045932Y009248D01*
X045895Y009271D01*
X045861Y009298D01*
X045829Y009327D01*
X045799Y009359D01*
X045773Y009393D01*
X045750Y009430D01*
X045729Y009468D01*
X045713Y009508D01*
X045700Y009549D01*
X045690Y009591D01*
X045684Y009634D01*
X045682Y009677D01*
X045684Y009721D01*
X045689Y009764D01*
X045698Y009806D01*
X045711Y009847D01*
X045727Y009887D01*
X045747Y009926D01*
X048444Y010535D02*
X048444Y012515D01*
X047666Y012515D01*
X046694Y012515D02*
X045666Y012515D01*
X044694Y012515D02*
X043916Y012515D01*
X043330Y018680D02*
X042030Y018680D01*
X042030Y020930D02*
X043330Y020930D01*
X043080Y021180D02*
X043082Y021200D01*
X043088Y021218D01*
X043097Y021236D01*
X043109Y021251D01*
X043124Y021263D01*
X043142Y021272D01*
X043160Y021278D01*
X043180Y021280D01*
X043200Y021278D01*
X043218Y021272D01*
X043236Y021263D01*
X043251Y021251D01*
X043263Y021236D01*
X043272Y021218D01*
X043278Y021200D01*
X043280Y021180D01*
X043278Y021160D01*
X043272Y021142D01*
X043263Y021124D01*
X043251Y021109D01*
X043236Y021097D01*
X043218Y021088D01*
X043200Y021082D01*
X043180Y021080D01*
X043160Y021082D01*
X043142Y021088D01*
X043124Y021097D01*
X043109Y021109D01*
X043097Y021124D01*
X043088Y021142D01*
X043082Y021160D01*
X043080Y021180D01*
X043330Y022930D02*
X042030Y022930D01*
X042030Y025180D02*
X043330Y025180D01*
X043080Y025430D02*
X043082Y025450D01*
X043088Y025468D01*
X043097Y025486D01*
X043109Y025501D01*
X043124Y025513D01*
X043142Y025522D01*
X043160Y025528D01*
X043180Y025530D01*
X043200Y025528D01*
X043218Y025522D01*
X043236Y025513D01*
X043251Y025501D01*
X043263Y025486D01*
X043272Y025468D01*
X043278Y025450D01*
X043280Y025430D01*
X043278Y025410D01*
X043272Y025392D01*
X043263Y025374D01*
X043251Y025359D01*
X043236Y025347D01*
X043218Y025338D01*
X043200Y025332D01*
X043180Y025330D01*
X043160Y025332D01*
X043142Y025338D01*
X043124Y025347D01*
X043109Y025359D01*
X043097Y025374D01*
X043088Y025392D01*
X043082Y025410D01*
X043080Y025430D01*
X043330Y027180D02*
X042030Y027180D01*
D11*
X042044Y027455D02*
X042224Y027725D01*
X042339Y027680D02*
X042384Y027725D01*
X042474Y027725D01*
X042519Y027680D01*
X042519Y027635D01*
X042474Y027590D01*
X042519Y027545D01*
X042519Y027500D01*
X042474Y027455D01*
X042384Y027455D01*
X042339Y027500D01*
X042224Y027455D02*
X042044Y027725D01*
X041930Y027635D02*
X041840Y027725D01*
X041750Y027635D01*
X041750Y027455D01*
X041635Y027455D02*
X041635Y027725D01*
X041545Y027635D01*
X041455Y027725D01*
X041455Y027455D01*
X041750Y027590D02*
X041930Y027590D01*
X041930Y027635D02*
X041930Y027455D01*
X042429Y027590D02*
X042474Y027590D01*
X042634Y027635D02*
X042724Y027725D01*
X042724Y027455D01*
X042634Y027455D02*
X042814Y027455D01*
X042928Y027500D02*
X042928Y027545D01*
X042973Y027590D01*
X043063Y027590D01*
X043108Y027545D01*
X043108Y027500D01*
X043063Y027455D01*
X042973Y027455D01*
X042928Y027500D01*
X042973Y027590D02*
X042928Y027635D01*
X042928Y027680D01*
X042973Y027725D01*
X043063Y027725D01*
X043108Y027680D01*
X043108Y027635D01*
X043063Y027590D01*
X043223Y027590D02*
X043313Y027635D01*
X043358Y027635D01*
X043403Y027590D01*
X043403Y027500D01*
X043358Y027455D01*
X043268Y027455D01*
X043223Y027500D01*
X043223Y027590D02*
X043223Y027725D01*
X043403Y027725D01*
X043518Y027725D02*
X043518Y027590D01*
X043608Y027635D01*
X043653Y027635D01*
X043698Y027590D01*
X043698Y027500D01*
X043653Y027455D01*
X043563Y027455D01*
X043518Y027500D01*
X043518Y027725D02*
X043698Y027725D01*
X043812Y027725D02*
X043812Y027455D01*
X043812Y027545D02*
X043992Y027725D01*
X043857Y027590D02*
X043992Y027455D01*
X048980Y026550D02*
X051380Y026550D01*
X051380Y023850D02*
X048680Y023850D01*
X048332Y023475D02*
X048152Y023295D01*
X048197Y023340D02*
X048332Y023205D01*
X048152Y023205D02*
X048152Y023475D01*
X048037Y023340D02*
X047857Y023340D01*
X047742Y023295D02*
X047742Y023475D01*
X047562Y023475D02*
X047562Y023295D01*
X047652Y023205D01*
X047742Y023295D01*
X047448Y023340D02*
X047268Y023340D01*
X047153Y023340D02*
X047108Y023295D01*
X046973Y023295D01*
X046973Y023205D02*
X046973Y023475D01*
X047108Y023475D01*
X047153Y023430D01*
X047153Y023340D01*
X046858Y023475D02*
X046858Y023205D01*
X046678Y023205D02*
X046678Y023475D01*
X046768Y023385D01*
X046858Y023475D01*
X046564Y023430D02*
X046519Y023475D01*
X046429Y023475D01*
X046384Y023430D01*
X046384Y023385D01*
X046429Y023340D01*
X046519Y023340D01*
X046564Y023295D01*
X046564Y023250D01*
X046519Y023205D01*
X046429Y023205D01*
X046384Y023250D01*
X046269Y023340D02*
X046089Y023340D01*
X045974Y023250D02*
X045929Y023205D01*
X045839Y023205D01*
X045794Y023250D01*
X045794Y023430D01*
X045839Y023475D01*
X045929Y023475D01*
X045974Y023430D01*
X045680Y023430D02*
X045635Y023475D01*
X045545Y023475D01*
X045500Y023430D01*
X045500Y023250D01*
X045545Y023205D01*
X045635Y023205D01*
X045680Y023250D01*
X045385Y023340D02*
X045340Y023295D01*
X045205Y023295D01*
X045205Y023205D02*
X045205Y023475D01*
X045340Y023475D01*
X045385Y023430D01*
X045385Y023340D01*
X043992Y023205D02*
X043857Y023340D01*
X043812Y023295D02*
X043992Y023475D01*
X043812Y023475D02*
X043812Y023205D01*
X043698Y023250D02*
X043653Y023205D01*
X043563Y023205D01*
X043518Y023250D01*
X043518Y023340D02*
X043608Y023385D01*
X043653Y023385D01*
X043698Y023340D01*
X043698Y023250D01*
X043518Y023340D02*
X043518Y023475D01*
X043698Y023475D01*
X043403Y023475D02*
X043223Y023475D01*
X043223Y023340D01*
X043313Y023385D01*
X043358Y023385D01*
X043403Y023340D01*
X043403Y023250D01*
X043358Y023205D01*
X043268Y023205D01*
X043223Y023250D01*
X043108Y023250D02*
X043063Y023205D01*
X042973Y023205D01*
X042928Y023250D01*
X042928Y023295D01*
X042973Y023340D01*
X043063Y023340D01*
X043108Y023295D01*
X043108Y023250D01*
X043063Y023340D02*
X043108Y023385D01*
X043108Y023430D01*
X043063Y023475D01*
X042973Y023475D01*
X042928Y023430D01*
X042928Y023385D01*
X042973Y023340D01*
X042814Y023205D02*
X042634Y023205D01*
X042724Y023205D02*
X042724Y023475D01*
X042634Y023385D01*
X042519Y023385D02*
X042474Y023340D01*
X042519Y023295D01*
X042519Y023250D01*
X042474Y023205D01*
X042384Y023205D01*
X042339Y023250D01*
X042224Y023205D02*
X042044Y023475D01*
X041930Y023385D02*
X041930Y023205D01*
X042044Y023205D02*
X042224Y023475D01*
X042339Y023430D02*
X042384Y023475D01*
X042474Y023475D01*
X042519Y023430D01*
X042519Y023385D01*
X042474Y023340D02*
X042429Y023340D01*
X041930Y023340D02*
X041750Y023340D01*
X041750Y023385D02*
X041840Y023475D01*
X041930Y023385D01*
X041750Y023385D02*
X041750Y023205D01*
X041635Y023205D02*
X041635Y023475D01*
X041545Y023385D01*
X041455Y023475D01*
X041455Y023205D01*
X041436Y024207D02*
X041616Y024207D01*
X041526Y024207D02*
X041526Y024477D01*
X041436Y024387D01*
X041731Y024432D02*
X041776Y024477D01*
X041866Y024477D01*
X041911Y024432D01*
X041731Y024252D01*
X041776Y024207D01*
X041866Y024207D01*
X041911Y024252D01*
X041911Y024432D01*
X042026Y024432D02*
X042071Y024477D01*
X042161Y024477D01*
X042206Y024432D01*
X042026Y024252D01*
X042071Y024207D01*
X042161Y024207D01*
X042206Y024252D01*
X042206Y024432D01*
X042320Y024387D02*
X042455Y024387D01*
X042500Y024342D01*
X042500Y024207D01*
X042320Y024207D02*
X042320Y024387D01*
X042026Y024432D02*
X042026Y024252D01*
X041731Y024252D02*
X041731Y024432D01*
X037008Y024175D02*
X037008Y024130D01*
X036828Y023950D01*
X036828Y023905D01*
X036714Y023905D02*
X036534Y023905D01*
X036624Y023905D02*
X036624Y024175D01*
X036534Y024085D01*
X036419Y023905D02*
X036239Y023905D01*
X036329Y023905D02*
X036329Y024175D01*
X036239Y024085D01*
X036124Y023905D02*
X035944Y023905D01*
X036034Y023905D02*
X036034Y024175D01*
X035944Y024085D01*
X035830Y024130D02*
X035830Y023950D01*
X035785Y023905D01*
X035650Y023905D01*
X035650Y024175D01*
X035785Y024175D01*
X035830Y024130D01*
X035535Y023905D02*
X035355Y023905D01*
X035355Y024175D01*
X036828Y024175D02*
X037008Y024175D01*
X033348Y023305D02*
X033348Y023260D01*
X033303Y023215D01*
X033168Y023215D01*
X033303Y023215D02*
X033348Y023170D01*
X033348Y023125D01*
X033303Y023080D01*
X033168Y023080D01*
X033168Y023350D01*
X033303Y023350D01*
X033348Y023305D01*
X033053Y023305D02*
X032873Y023125D01*
X032918Y023080D01*
X033008Y023080D01*
X033053Y023125D01*
X033053Y023305D01*
X033008Y023350D01*
X032918Y023350D01*
X032873Y023305D01*
X032873Y023125D01*
X032758Y023125D02*
X032713Y023080D01*
X032623Y023080D01*
X032578Y023125D01*
X032578Y023215D02*
X032668Y023260D01*
X032713Y023260D01*
X032758Y023215D01*
X032758Y023125D01*
X032578Y023215D02*
X032578Y023350D01*
X032758Y023350D01*
X032464Y023305D02*
X032284Y023125D01*
X032329Y023080D01*
X032419Y023080D01*
X032464Y023125D01*
X032464Y023305D01*
X032419Y023350D01*
X032329Y023350D01*
X032284Y023305D01*
X032284Y023125D01*
X032169Y023215D02*
X031989Y023215D01*
X032124Y023350D01*
X032124Y023080D01*
X031784Y023215D02*
X031694Y023215D01*
X031694Y023080D02*
X031694Y023350D01*
X031874Y023350D01*
X031580Y023350D02*
X031400Y023350D01*
X031400Y023080D01*
X031580Y023080D01*
X031490Y023215D02*
X031400Y023215D01*
X031285Y023215D02*
X031105Y023215D01*
X031105Y023080D02*
X031105Y023350D01*
X031285Y023350D02*
X031285Y023080D01*
X029180Y021196D02*
X028856Y021196D01*
X029180Y021196D02*
X029180Y025990D01*
X028573Y026511D02*
X024254Y026511D01*
X023668Y026328D02*
X023668Y021196D01*
X025555Y021196D01*
X026481Y021196D02*
X027930Y021196D01*
X029151Y019852D02*
X029061Y019762D01*
X029151Y019852D02*
X029151Y019582D01*
X029061Y019582D02*
X029241Y019582D01*
X029356Y019627D02*
X029536Y019807D01*
X029536Y019627D01*
X029491Y019582D01*
X029401Y019582D01*
X029356Y019627D01*
X029356Y019807D01*
X029401Y019852D01*
X029491Y019852D01*
X029536Y019807D01*
X029651Y019807D02*
X029696Y019852D01*
X029786Y019852D01*
X029831Y019807D01*
X029651Y019627D01*
X029696Y019582D01*
X029786Y019582D01*
X029831Y019627D01*
X029831Y019807D01*
X029651Y019807D02*
X029651Y019627D01*
X030240Y019582D02*
X030240Y019762D01*
X030375Y019762D01*
X030420Y019717D01*
X030420Y019582D01*
X030535Y019582D02*
X030535Y019852D01*
X030715Y019852D01*
X030625Y019717D02*
X030535Y019717D01*
X031330Y019180D02*
X031375Y019225D01*
X031465Y019225D01*
X031510Y019180D01*
X031510Y019135D01*
X031465Y019090D01*
X031510Y019045D01*
X031510Y019000D01*
X031465Y018955D01*
X031375Y018955D01*
X031330Y019000D01*
X031420Y019090D02*
X031465Y019090D01*
X031625Y019000D02*
X031670Y019000D01*
X031670Y018955D01*
X031625Y018955D01*
X031625Y019000D01*
X031772Y019000D02*
X031817Y018955D01*
X031907Y018955D01*
X031952Y019000D01*
X031952Y019045D01*
X031907Y019090D01*
X031862Y019090D01*
X031907Y019090D02*
X031952Y019135D01*
X031952Y019180D01*
X031907Y019225D01*
X031817Y019225D01*
X031772Y019180D01*
X032067Y019225D02*
X032067Y018955D01*
X032067Y019045D02*
X032202Y019135D01*
X032067Y019045D02*
X032202Y018955D01*
X030715Y018477D02*
X030535Y018477D01*
X030535Y018207D01*
X030420Y018207D02*
X030420Y018342D01*
X030375Y018387D01*
X030240Y018387D01*
X030240Y018207D01*
X030535Y018342D02*
X030625Y018342D01*
X029831Y018252D02*
X029786Y018207D01*
X029696Y018207D01*
X029651Y018252D01*
X029831Y018432D01*
X029831Y018252D01*
X029831Y018432D02*
X029786Y018477D01*
X029696Y018477D01*
X029651Y018432D01*
X029651Y018252D01*
X029536Y018252D02*
X029491Y018207D01*
X029401Y018207D01*
X029356Y018252D01*
X029536Y018432D01*
X029536Y018252D01*
X029356Y018252D02*
X029356Y018432D01*
X029401Y018477D01*
X029491Y018477D01*
X029536Y018432D01*
X029241Y018207D02*
X029061Y018207D01*
X029151Y018207D02*
X029151Y018477D01*
X029061Y018387D01*
X032585Y017274D02*
X032855Y017274D01*
X032855Y017184D02*
X032855Y017364D01*
X032675Y017184D02*
X032585Y017274D01*
X032630Y017069D02*
X032675Y017069D01*
X032720Y017024D01*
X032765Y017069D01*
X032810Y017069D01*
X032855Y017024D01*
X032855Y016934D01*
X032810Y016889D01*
X032810Y016774D02*
X032855Y016729D01*
X032855Y016639D01*
X032810Y016594D01*
X032855Y016480D02*
X032855Y016300D01*
X032585Y016300D01*
X032585Y016185D02*
X032585Y016005D01*
X032585Y016095D02*
X032855Y016095D01*
X032630Y016594D02*
X032585Y016639D01*
X032585Y016729D01*
X032630Y016774D01*
X032675Y016774D01*
X032720Y016729D01*
X032765Y016774D01*
X032810Y016774D01*
X032720Y016729D02*
X032720Y016684D01*
X032630Y016889D02*
X032585Y016934D01*
X032585Y017024D01*
X032630Y017069D01*
X032720Y017024D02*
X032720Y016979D01*
X033818Y018193D02*
X033818Y019292D01*
X038542Y019292D01*
X038542Y018193D01*
X040705Y019205D02*
X040885Y019205D01*
X040795Y019205D02*
X040795Y019475D01*
X040705Y019385D01*
X041000Y019430D02*
X041000Y019250D01*
X041180Y019430D01*
X041180Y019250D01*
X041135Y019205D01*
X041045Y019205D01*
X041000Y019250D01*
X041000Y019430D02*
X041045Y019475D01*
X041135Y019475D01*
X041180Y019430D01*
X041294Y019475D02*
X041294Y019205D01*
X041294Y019295D02*
X041429Y019385D01*
X041294Y019295D02*
X041429Y019205D01*
X042936Y019832D02*
X043116Y019832D01*
X043026Y019832D02*
X043026Y020102D01*
X042936Y020012D01*
X043231Y020057D02*
X043276Y020102D01*
X043366Y020102D01*
X043411Y020057D01*
X043231Y019877D01*
X043276Y019832D01*
X043366Y019832D01*
X043411Y019877D01*
X043411Y020057D01*
X043526Y020057D02*
X043571Y020102D01*
X043661Y020102D01*
X043706Y020057D01*
X043526Y019877D01*
X043571Y019832D01*
X043661Y019832D01*
X043706Y019877D01*
X043706Y020057D01*
X043820Y020012D02*
X043955Y020012D01*
X044000Y019967D01*
X044000Y019832D01*
X043820Y019832D02*
X043820Y020012D01*
X043526Y020057D02*
X043526Y019877D01*
X043231Y019877D02*
X043231Y020057D01*
X045205Y019225D02*
X045205Y018955D01*
X045205Y019045D02*
X045340Y019045D01*
X045385Y019090D01*
X045385Y019180D01*
X045340Y019225D01*
X045205Y019225D01*
X045500Y019180D02*
X045500Y019000D01*
X045545Y018955D01*
X045635Y018955D01*
X045680Y019000D01*
X045794Y019000D02*
X045839Y018955D01*
X045929Y018955D01*
X045974Y019000D01*
X046089Y019090D02*
X046269Y019090D01*
X046384Y019135D02*
X046429Y019090D01*
X046519Y019090D01*
X046564Y019045D01*
X046564Y019000D01*
X046519Y018955D01*
X046429Y018955D01*
X046384Y019000D01*
X046384Y019135D02*
X046384Y019180D01*
X046429Y019225D01*
X046519Y019225D01*
X046564Y019180D01*
X046678Y019225D02*
X046768Y019135D01*
X046858Y019225D01*
X046858Y018955D01*
X046973Y018955D02*
X046973Y019225D01*
X047108Y019225D01*
X047153Y019180D01*
X047153Y019090D01*
X047108Y019045D01*
X046973Y019045D01*
X047268Y019090D02*
X047448Y019090D01*
X047562Y019045D02*
X047652Y018955D01*
X047742Y019045D01*
X047742Y019225D01*
X047857Y019090D02*
X048037Y019090D01*
X048152Y019045D02*
X048332Y019225D01*
X048152Y019225D02*
X048152Y018955D01*
X048197Y019090D02*
X048332Y018955D01*
X047562Y019045D02*
X047562Y019225D01*
X046678Y019225D02*
X046678Y018955D01*
X045974Y019180D02*
X045929Y019225D01*
X045839Y019225D01*
X045794Y019180D01*
X045794Y019000D01*
X045680Y019180D02*
X045635Y019225D01*
X045545Y019225D01*
X045500Y019180D01*
X048680Y019600D02*
X051380Y019600D01*
X051380Y018050D02*
X048980Y018050D01*
X043992Y016475D02*
X043812Y016295D01*
X043857Y016340D02*
X043992Y016205D01*
X043812Y016205D02*
X043812Y016475D01*
X043698Y016475D02*
X043518Y016475D01*
X043518Y016340D01*
X043608Y016385D01*
X043653Y016385D01*
X043698Y016340D01*
X043698Y016250D01*
X043653Y016205D01*
X043563Y016205D01*
X043518Y016250D01*
X043403Y016250D02*
X043358Y016205D01*
X043268Y016205D01*
X043223Y016250D01*
X043223Y016340D02*
X043313Y016385D01*
X043358Y016385D01*
X043403Y016340D01*
X043403Y016250D01*
X043223Y016340D02*
X043223Y016475D01*
X043403Y016475D01*
X043108Y016430D02*
X043108Y016385D01*
X043063Y016340D01*
X042973Y016340D01*
X042928Y016385D01*
X042928Y016430D01*
X042973Y016475D01*
X043063Y016475D01*
X043108Y016430D01*
X043063Y016340D02*
X043108Y016295D01*
X043108Y016250D01*
X043063Y016205D01*
X042973Y016205D01*
X042928Y016250D01*
X042928Y016295D01*
X042973Y016340D01*
X042814Y016205D02*
X042634Y016205D01*
X042724Y016205D02*
X042724Y016475D01*
X042634Y016385D01*
X042519Y016385D02*
X042474Y016340D01*
X042519Y016295D01*
X042519Y016250D01*
X042474Y016205D01*
X042384Y016205D01*
X042339Y016250D01*
X042224Y016205D02*
X042044Y016475D01*
X041930Y016385D02*
X041840Y016475D01*
X041750Y016385D01*
X041750Y016205D01*
X041635Y016205D02*
X041635Y016475D01*
X041545Y016385D01*
X041455Y016475D01*
X041455Y016205D01*
X041750Y016340D02*
X041930Y016340D01*
X041930Y016385D02*
X041930Y016205D01*
X042044Y016205D02*
X042224Y016475D01*
X042339Y016430D02*
X042384Y016475D01*
X042474Y016475D01*
X042519Y016430D01*
X042519Y016385D01*
X042474Y016340D02*
X042429Y016340D01*
X045205Y014975D02*
X045340Y014975D01*
X045385Y014930D01*
X045385Y014840D01*
X045340Y014795D01*
X045205Y014795D01*
X045205Y014705D02*
X045205Y014975D01*
X045500Y014930D02*
X045500Y014750D01*
X045545Y014705D01*
X045635Y014705D01*
X045680Y014750D01*
X045794Y014750D02*
X045839Y014705D01*
X045929Y014705D01*
X045974Y014750D01*
X046089Y014840D02*
X046269Y014840D01*
X046384Y014885D02*
X046429Y014840D01*
X046519Y014840D01*
X046564Y014795D01*
X046564Y014750D01*
X046519Y014705D01*
X046429Y014705D01*
X046384Y014750D01*
X046384Y014885D02*
X046384Y014930D01*
X046429Y014975D01*
X046519Y014975D01*
X046564Y014930D01*
X046678Y014975D02*
X046768Y014885D01*
X046858Y014975D01*
X046858Y014705D01*
X046973Y014705D02*
X046973Y014975D01*
X047108Y014975D01*
X047153Y014930D01*
X047153Y014840D01*
X047108Y014795D01*
X046973Y014795D01*
X047268Y014840D02*
X047448Y014840D01*
X047562Y014795D02*
X047652Y014705D01*
X047742Y014795D01*
X047742Y014975D01*
X047857Y014840D02*
X048037Y014840D01*
X048152Y014795D02*
X048332Y014975D01*
X048152Y014975D02*
X048152Y014705D01*
X048197Y014840D02*
X048332Y014705D01*
X047562Y014795D02*
X047562Y014975D01*
X046678Y014975D02*
X046678Y014705D01*
X045974Y014930D02*
X045929Y014975D01*
X045839Y014975D01*
X045794Y014930D01*
X045794Y014750D01*
X045680Y014930D02*
X045635Y014975D01*
X045545Y014975D01*
X045500Y014930D01*
X043383Y014480D02*
X043383Y014435D01*
X043338Y014390D01*
X043248Y014390D01*
X043203Y014435D01*
X043203Y014480D01*
X043248Y014525D01*
X043338Y014525D01*
X043383Y014480D01*
X043338Y014390D02*
X043383Y014345D01*
X043383Y014300D01*
X043338Y014255D01*
X043248Y014255D01*
X043203Y014300D01*
X043203Y014345D01*
X043248Y014390D01*
X043089Y014390D02*
X042909Y014390D01*
X043044Y014525D01*
X043044Y014255D01*
X042794Y014255D02*
X042614Y014255D01*
X042704Y014255D02*
X042704Y014525D01*
X042614Y014435D01*
X042499Y014390D02*
X042319Y014390D01*
X042454Y014525D01*
X042454Y014255D01*
X042205Y014255D02*
X042025Y014255D01*
X042025Y014525D01*
X041910Y014255D02*
X041730Y014255D01*
X041730Y014525D01*
X038542Y014568D02*
X038542Y015667D01*
X038542Y014568D02*
X033818Y014568D01*
X033818Y015667D01*
X032054Y014760D02*
X031919Y014670D01*
X032054Y014580D01*
X031919Y014580D02*
X031919Y014850D01*
X031805Y014805D02*
X031625Y014625D01*
X031670Y014580D01*
X031760Y014580D01*
X031805Y014625D01*
X031805Y014805D01*
X031760Y014850D01*
X031670Y014850D01*
X031625Y014805D01*
X031625Y014625D01*
X031510Y014580D02*
X031330Y014580D01*
X031420Y014580D02*
X031420Y014850D01*
X031330Y014760D01*
X028929Y014760D02*
X028794Y014670D01*
X028929Y014580D01*
X028794Y014580D02*
X028794Y014850D01*
X028680Y014805D02*
X028500Y014625D01*
X028545Y014580D01*
X028635Y014580D01*
X028680Y014625D01*
X028680Y014805D01*
X028635Y014850D01*
X028545Y014850D01*
X028500Y014805D01*
X028500Y014625D01*
X028385Y014580D02*
X028205Y014580D01*
X028295Y014580D02*
X028295Y014850D01*
X028205Y014760D01*
X028205Y015830D02*
X028385Y015830D01*
X028295Y015830D02*
X028295Y016100D01*
X028205Y016010D01*
X028500Y016055D02*
X028545Y016100D01*
X028635Y016100D01*
X028680Y016055D01*
X028500Y015875D01*
X028545Y015830D01*
X028635Y015830D01*
X028680Y015875D01*
X028680Y016055D01*
X028794Y016100D02*
X028794Y015830D01*
X028794Y015920D02*
X028929Y015830D01*
X028794Y015920D02*
X028929Y016010D01*
X028500Y016055D02*
X028500Y015875D01*
X035330Y014350D02*
X035330Y014080D01*
X035465Y014080D01*
X035510Y014125D01*
X035510Y014170D01*
X035465Y014215D01*
X035330Y014215D01*
X035465Y014215D02*
X035510Y014260D01*
X035510Y014305D01*
X035465Y014350D01*
X035330Y014350D01*
X035625Y014260D02*
X035625Y014125D01*
X035670Y014080D01*
X035805Y014080D01*
X035805Y014260D01*
X035919Y014260D02*
X036099Y014260D01*
X035919Y014080D01*
X036099Y014080D01*
X036214Y014080D02*
X036394Y014080D01*
X036509Y014125D02*
X036509Y014215D01*
X036554Y014260D01*
X036644Y014260D01*
X036689Y014215D01*
X036689Y014170D01*
X036509Y014170D01*
X036509Y014125D02*
X036554Y014080D01*
X036644Y014080D01*
X036803Y014080D02*
X036803Y014260D01*
X036803Y014170D02*
X036893Y014260D01*
X036938Y014260D01*
X036394Y014260D02*
X036214Y014080D01*
X036214Y014260D02*
X036394Y014260D01*
X045205Y011850D02*
X045205Y011580D01*
X045385Y011580D01*
X045500Y011580D02*
X045500Y011760D01*
X045635Y011760D01*
X045680Y011715D01*
X045680Y011580D01*
X045794Y011625D02*
X045839Y011580D01*
X045974Y011580D01*
X046089Y011625D02*
X046134Y011580D01*
X046224Y011580D01*
X046269Y011625D01*
X046269Y011715D01*
X046224Y011760D01*
X046134Y011760D01*
X046089Y011715D01*
X046089Y011625D01*
X045974Y011760D02*
X045839Y011760D01*
X045794Y011715D01*
X045794Y011625D01*
X045385Y011850D02*
X045205Y011850D01*
X045205Y011715D02*
X045295Y011715D01*
X046384Y011715D02*
X046429Y011760D01*
X046564Y011760D01*
X046564Y011850D02*
X046564Y011580D01*
X046429Y011580D01*
X046384Y011625D01*
X046384Y011715D01*
X046678Y011715D02*
X046723Y011760D01*
X046813Y011760D01*
X046858Y011715D01*
X046858Y011670D01*
X046678Y011670D01*
X046678Y011625D02*
X046678Y011715D01*
X046678Y011625D02*
X046723Y011580D01*
X046813Y011580D01*
X046973Y011580D02*
X046973Y011760D01*
X046973Y011670D02*
X047063Y011760D01*
X047108Y011760D01*
X051080Y011600D02*
X051080Y011330D01*
X051215Y011330D01*
X051260Y011375D01*
X051260Y011555D01*
X051215Y011600D01*
X051080Y011600D01*
X051375Y011555D02*
X051420Y011600D01*
X051510Y011600D01*
X051555Y011555D01*
X051555Y011510D01*
X051510Y011465D01*
X051555Y011420D01*
X051555Y011375D01*
X051510Y011330D01*
X051420Y011330D01*
X051375Y011375D01*
X051465Y011465D02*
X051510Y011465D01*
X051669Y011465D02*
X051759Y011510D01*
X051804Y011510D01*
X051849Y011465D01*
X051849Y011375D01*
X051804Y011330D01*
X051714Y011330D01*
X051669Y011375D01*
X051669Y011465D02*
X051669Y011600D01*
X051849Y011600D01*
X051669Y012330D02*
X051669Y012375D01*
X051849Y012555D01*
X051849Y012600D01*
X051669Y012600D01*
X051555Y012555D02*
X051555Y012510D01*
X051510Y012465D01*
X051555Y012420D01*
X051555Y012375D01*
X051510Y012330D01*
X051420Y012330D01*
X051375Y012375D01*
X051260Y012375D02*
X051215Y012330D01*
X051080Y012330D01*
X051080Y012600D01*
X051215Y012600D01*
X051260Y012555D01*
X051260Y012375D01*
X051375Y012555D02*
X051420Y012600D01*
X051510Y012600D01*
X051555Y012555D01*
X051510Y012465D02*
X051465Y012465D01*
X051510Y010600D02*
X051555Y010555D01*
X051555Y010510D01*
X051510Y010465D01*
X051555Y010420D01*
X051555Y010375D01*
X051510Y010330D01*
X051420Y010330D01*
X051375Y010375D01*
X051260Y010375D02*
X051260Y010555D01*
X051215Y010600D01*
X051080Y010600D01*
X051080Y010330D01*
X051215Y010330D01*
X051260Y010375D01*
X051375Y010555D02*
X051420Y010600D01*
X051510Y010600D01*
X051510Y010465D02*
X051465Y010465D01*
X051669Y010375D02*
X051714Y010330D01*
X051804Y010330D01*
X051849Y010375D01*
X051849Y010420D01*
X051804Y010465D01*
X051759Y010465D01*
X051804Y010465D02*
X051849Y010510D01*
X051849Y010555D01*
X051804Y010600D01*
X051714Y010600D01*
X051669Y010555D01*
X051759Y009600D02*
X051759Y009330D01*
X051669Y009330D02*
X051849Y009330D01*
X051669Y009510D02*
X051759Y009600D01*
X051555Y009555D02*
X051555Y009510D01*
X051510Y009465D01*
X051555Y009420D01*
X051555Y009375D01*
X051510Y009330D01*
X051420Y009330D01*
X051375Y009375D01*
X051260Y009375D02*
X051260Y009555D01*
X051215Y009600D01*
X051080Y009600D01*
X051080Y009330D01*
X051215Y009330D01*
X051260Y009375D01*
X051375Y009555D02*
X051420Y009600D01*
X051510Y009600D01*
X051555Y009555D01*
X051510Y009465D02*
X051465Y009465D01*
X050354Y008885D02*
X050219Y008795D01*
X050354Y008705D01*
X050219Y008705D02*
X050219Y008975D01*
X050105Y008930D02*
X049925Y008750D01*
X049970Y008705D01*
X050060Y008705D01*
X050105Y008750D01*
X050105Y008930D01*
X050060Y008975D01*
X049970Y008975D01*
X049925Y008930D01*
X049925Y008750D01*
X049810Y008705D02*
X049630Y008705D01*
X049720Y008705D02*
X049720Y008975D01*
X049630Y008885D01*
X051080Y008600D02*
X051080Y008330D01*
X051215Y008330D01*
X051260Y008375D01*
X051260Y008555D01*
X051215Y008600D01*
X051080Y008600D01*
X051375Y008555D02*
X051420Y008600D01*
X051510Y008600D01*
X051555Y008555D01*
X051555Y008510D01*
X051375Y008330D01*
X051555Y008330D01*
X051669Y008375D02*
X051714Y008330D01*
X051804Y008330D01*
X051849Y008375D01*
X051849Y008555D01*
X051804Y008600D01*
X051714Y008600D01*
X051669Y008555D01*
X051669Y008510D01*
X051714Y008465D01*
X051849Y008465D01*
X051849Y007600D02*
X051849Y007555D01*
X051669Y007375D01*
X051669Y007330D01*
X051555Y007330D02*
X051375Y007330D01*
X051555Y007510D01*
X051555Y007555D01*
X051510Y007600D01*
X051420Y007600D01*
X051375Y007555D01*
X051260Y007555D02*
X051215Y007600D01*
X051080Y007600D01*
X051080Y007330D01*
X051215Y007330D01*
X051260Y007375D01*
X051260Y007555D01*
X051669Y007600D02*
X051849Y007600D01*
X050229Y007635D02*
X050094Y007545D01*
X050229Y007455D01*
X050094Y007455D02*
X050094Y007725D01*
X049980Y007680D02*
X049800Y007500D01*
X049845Y007455D01*
X049935Y007455D01*
X049980Y007500D01*
X049980Y007680D01*
X049935Y007725D01*
X049845Y007725D01*
X049800Y007680D01*
X049800Y007500D01*
X049685Y007455D02*
X049505Y007455D01*
X049595Y007455D02*
X049595Y007725D01*
X049505Y007635D01*
X049470Y006475D02*
X049470Y006205D01*
X049380Y006205D02*
X049560Y006205D01*
X049675Y006250D02*
X049855Y006430D01*
X049855Y006250D01*
X049810Y006205D01*
X049720Y006205D01*
X049675Y006250D01*
X049675Y006430D01*
X049720Y006475D01*
X049810Y006475D01*
X049855Y006430D01*
X049969Y006475D02*
X049969Y006205D01*
X049969Y006295D02*
X050104Y006385D01*
X049969Y006295D02*
X050104Y006205D01*
X049470Y006475D02*
X049380Y006385D01*
X051080Y006330D02*
X051215Y006330D01*
X051260Y006375D01*
X051260Y006555D01*
X051215Y006600D01*
X051080Y006600D01*
X051080Y006330D01*
X051375Y006330D02*
X051555Y006510D01*
X051555Y006555D01*
X051510Y006600D01*
X051420Y006600D01*
X051375Y006555D01*
X051375Y006330D02*
X051555Y006330D01*
X051669Y006375D02*
X051714Y006330D01*
X051804Y006330D01*
X051849Y006375D01*
X051849Y006465D01*
X051804Y006510D01*
X051759Y006510D01*
X051669Y006465D01*
X051669Y006600D01*
X051849Y006600D01*
X051804Y005600D02*
X051849Y005555D01*
X051849Y005510D01*
X051804Y005465D01*
X051849Y005420D01*
X051849Y005375D01*
X051804Y005330D01*
X051714Y005330D01*
X051669Y005375D01*
X051555Y005330D02*
X051375Y005330D01*
X051555Y005510D01*
X051555Y005555D01*
X051510Y005600D01*
X051420Y005600D01*
X051375Y005555D01*
X051260Y005555D02*
X051215Y005600D01*
X051080Y005600D01*
X051080Y005330D01*
X051215Y005330D01*
X051260Y005375D01*
X051260Y005555D01*
X051669Y005555D02*
X051714Y005600D01*
X051804Y005600D01*
X051804Y005465D02*
X051759Y005465D01*
X051669Y004600D02*
X051849Y004600D01*
X051849Y004555D01*
X051669Y004375D01*
X051669Y004330D01*
X051555Y004330D02*
X051375Y004330D01*
X051465Y004330D02*
X051465Y004600D01*
X051375Y004510D01*
X051260Y004555D02*
X051260Y004375D01*
X051215Y004330D01*
X051080Y004330D01*
X051080Y004600D01*
X051215Y004600D01*
X051260Y004555D01*
X051215Y003600D02*
X051080Y003600D01*
X051080Y003330D01*
X051215Y003330D01*
X051260Y003375D01*
X051260Y003555D01*
X051215Y003600D01*
X051375Y003510D02*
X051465Y003600D01*
X051465Y003330D01*
X051375Y003330D02*
X051555Y003330D01*
X051669Y003375D02*
X051714Y003330D01*
X051804Y003330D01*
X051849Y003375D01*
X051849Y003420D01*
X051804Y003465D01*
X051669Y003465D01*
X051669Y003375D01*
X051669Y003465D02*
X051759Y003555D01*
X051849Y003600D01*
X055080Y003600D02*
X055080Y003330D01*
X055215Y003330D01*
X055260Y003375D01*
X055260Y003555D01*
X055215Y003600D01*
X055080Y003600D01*
X055375Y003465D02*
X055555Y003465D01*
X055669Y003465D02*
X055759Y003510D01*
X055804Y003510D01*
X055849Y003465D01*
X055849Y003375D01*
X055804Y003330D01*
X055714Y003330D01*
X055669Y003375D01*
X055669Y003465D02*
X055669Y003600D01*
X055849Y003600D01*
X055510Y003600D02*
X055375Y003465D01*
X055510Y003330D02*
X055510Y003600D01*
X055510Y004330D02*
X055510Y004600D01*
X055375Y004465D01*
X055555Y004465D01*
X055669Y004375D02*
X055849Y004555D01*
X055849Y004600D01*
X055669Y004600D01*
X055669Y004375D02*
X055669Y004330D01*
X055260Y004375D02*
X055260Y004555D01*
X055215Y004600D01*
X055080Y004600D01*
X055080Y004330D01*
X055215Y004330D01*
X055260Y004375D01*
X055215Y005330D02*
X055260Y005375D01*
X055260Y005555D01*
X055215Y005600D01*
X055080Y005600D01*
X055080Y005330D01*
X055215Y005330D01*
X055375Y005465D02*
X055510Y005600D01*
X055510Y005330D01*
X055555Y005465D02*
X055375Y005465D01*
X055669Y005375D02*
X055714Y005330D01*
X055804Y005330D01*
X055849Y005375D01*
X055849Y005420D01*
X055804Y005465D01*
X055759Y005465D01*
X055804Y005465D02*
X055849Y005510D01*
X055849Y005555D01*
X055804Y005600D01*
X055714Y005600D01*
X055669Y005555D01*
X055669Y006330D02*
X055849Y006330D01*
X055759Y006330D02*
X055759Y006600D01*
X055669Y006510D01*
X055555Y006465D02*
X055375Y006465D01*
X055510Y006600D01*
X055510Y006330D01*
X055260Y006375D02*
X055260Y006555D01*
X055215Y006600D01*
X055080Y006600D01*
X055080Y006330D01*
X055215Y006330D01*
X055260Y006375D01*
X055215Y007330D02*
X055260Y007375D01*
X055260Y007555D01*
X055215Y007600D01*
X055080Y007600D01*
X055080Y007330D01*
X055215Y007330D01*
X055375Y007375D02*
X055420Y007330D01*
X055510Y007330D01*
X055555Y007375D01*
X055555Y007420D01*
X055510Y007465D01*
X055465Y007465D01*
X055510Y007465D02*
X055555Y007510D01*
X055555Y007555D01*
X055510Y007600D01*
X055420Y007600D01*
X055375Y007555D01*
X055669Y007555D02*
X055669Y007510D01*
X055714Y007465D01*
X055804Y007465D01*
X055849Y007420D01*
X055849Y007375D01*
X055804Y007330D01*
X055714Y007330D01*
X055669Y007375D01*
X055669Y007420D01*
X055714Y007465D01*
X055804Y007465D02*
X055849Y007510D01*
X055849Y007555D01*
X055804Y007600D01*
X055714Y007600D01*
X055669Y007555D01*
X055669Y008330D02*
X055669Y008600D01*
X055555Y008555D02*
X055510Y008600D01*
X055420Y008600D01*
X055375Y008555D01*
X055375Y008375D01*
X055420Y008330D01*
X055510Y008330D01*
X055555Y008375D01*
X055669Y008420D02*
X055849Y008600D01*
X055714Y008465D02*
X055849Y008330D01*
X055260Y008375D02*
X055215Y008330D01*
X055125Y008330D01*
X055080Y008375D01*
X055125Y008465D02*
X055215Y008465D01*
X055260Y008420D01*
X055260Y008375D01*
X055125Y008465D02*
X055080Y008510D01*
X055080Y008555D01*
X055125Y008600D01*
X055215Y008600D01*
X055260Y008555D01*
X055260Y009330D02*
X055260Y009600D01*
X055170Y009510D01*
X055080Y009600D01*
X055080Y009330D01*
X055375Y009375D02*
X055375Y009555D01*
X055420Y009600D01*
X055510Y009600D01*
X055555Y009555D01*
X055555Y009375D01*
X055510Y009330D01*
X055420Y009330D01*
X055375Y009375D01*
X055669Y009375D02*
X055714Y009330D01*
X055804Y009330D01*
X055849Y009375D01*
X055849Y009420D01*
X055804Y009465D01*
X055714Y009465D01*
X055669Y009510D01*
X055669Y009555D01*
X055714Y009600D01*
X055804Y009600D01*
X055849Y009555D01*
X055964Y009600D02*
X056054Y009600D01*
X056009Y009600D02*
X056009Y009330D01*
X055964Y009330D02*
X056054Y009330D01*
X056001Y010330D02*
X055911Y010330D01*
X055866Y010375D01*
X055866Y010555D01*
X055911Y010600D01*
X056001Y010600D01*
X056046Y010555D01*
X056046Y010375D01*
X056001Y010330D01*
X055751Y010375D02*
X055706Y010330D01*
X055616Y010330D01*
X055571Y010375D01*
X055616Y010465D02*
X055706Y010465D01*
X055751Y010420D01*
X055751Y010375D01*
X055616Y010465D02*
X055571Y010510D01*
X055571Y010555D01*
X055616Y010600D01*
X055706Y010600D01*
X055751Y010555D01*
X055465Y010600D02*
X055375Y010600D01*
X055420Y010600D02*
X055420Y010330D01*
X055375Y010330D02*
X055465Y010330D01*
X055260Y010330D02*
X055260Y010600D01*
X055170Y010510D01*
X055080Y010600D01*
X055080Y010330D01*
X055125Y011330D02*
X055215Y011330D01*
X055260Y011375D01*
X055260Y011465D01*
X055170Y011465D01*
X055080Y011375D02*
X055125Y011330D01*
X055080Y011375D02*
X055080Y011555D01*
X055125Y011600D01*
X055215Y011600D01*
X055260Y011555D01*
X055375Y011600D02*
X055555Y011330D01*
X055555Y011600D01*
X055669Y011600D02*
X055804Y011600D01*
X055849Y011555D01*
X055849Y011375D01*
X055804Y011330D01*
X055669Y011330D01*
X055669Y011600D01*
X055375Y011600D02*
X055375Y011330D01*
X055420Y012330D02*
X055375Y012375D01*
X055420Y012330D02*
X055510Y012330D01*
X055555Y012375D01*
X055555Y012465D01*
X055510Y012510D01*
X055465Y012510D01*
X055375Y012465D01*
X055375Y012600D01*
X055555Y012600D01*
X055669Y012600D02*
X055669Y012420D01*
X055759Y012330D01*
X055849Y012420D01*
X055849Y012600D01*
X055260Y012465D02*
X055080Y012465D01*
X055170Y012555D02*
X055170Y012375D01*
X050724Y014455D02*
X050589Y014545D01*
X050724Y014635D01*
X050589Y014725D02*
X050589Y014455D01*
X050180Y014500D02*
X050135Y014455D01*
X050045Y014455D01*
X050000Y014500D01*
X050180Y014680D01*
X050180Y014500D01*
X050180Y014680D02*
X050135Y014725D01*
X050045Y014725D01*
X050000Y014680D01*
X050000Y014500D01*
X049885Y014455D02*
X049705Y014455D01*
X049795Y014455D02*
X049795Y014725D01*
X049705Y014635D01*
X048680Y015350D02*
X051380Y015350D01*
X051380Y022300D02*
X048980Y022300D01*
X038000Y019967D02*
X038000Y019832D01*
X038000Y019967D02*
X037955Y020012D01*
X037820Y020012D01*
X037820Y019832D01*
X037706Y019877D02*
X037661Y019832D01*
X037571Y019832D01*
X037526Y019877D01*
X037706Y020057D01*
X037706Y019877D01*
X037706Y020057D02*
X037661Y020102D01*
X037571Y020102D01*
X037526Y020057D01*
X037526Y019877D01*
X037411Y019877D02*
X037366Y019832D01*
X037276Y019832D01*
X037231Y019877D01*
X037411Y020057D01*
X037411Y019877D01*
X037231Y019877D02*
X037231Y020057D01*
X037276Y020102D01*
X037366Y020102D01*
X037411Y020057D01*
X037116Y019832D02*
X036936Y019832D01*
X037026Y019832D02*
X037026Y020102D01*
X036936Y020012D01*
X036625Y020102D02*
X036445Y020102D01*
X036445Y019832D01*
X036331Y019832D02*
X036331Y020012D01*
X036445Y019967D02*
X036535Y019967D01*
X036331Y019832D02*
X036196Y019832D01*
X036151Y019877D01*
X036151Y020012D01*
X036036Y020057D02*
X035856Y019877D01*
X035901Y019832D01*
X035991Y019832D01*
X036036Y019877D01*
X036036Y020057D01*
X035991Y020102D01*
X035901Y020102D01*
X035856Y020057D01*
X035856Y019877D01*
X035741Y019832D02*
X035561Y019832D01*
X035651Y019832D02*
X035651Y020102D01*
X035561Y020012D01*
X035054Y019955D02*
X034919Y020045D01*
X035054Y020135D01*
X034919Y020225D02*
X034919Y019955D01*
X034805Y020000D02*
X034805Y020180D01*
X034625Y020000D01*
X034670Y019955D01*
X034760Y019955D01*
X034805Y020000D01*
X034805Y020180D02*
X034760Y020225D01*
X034670Y020225D01*
X034625Y020180D01*
X034625Y020000D01*
X034510Y019955D02*
X034330Y019955D01*
X034420Y019955D02*
X034420Y020225D01*
X034330Y020135D01*
X023280Y022705D02*
X023100Y022885D01*
X023055Y022885D01*
X023010Y022840D01*
X023010Y022750D01*
X023055Y022705D01*
X023280Y022705D02*
X023280Y022885D01*
X023280Y023000D02*
X023010Y023000D01*
X023280Y023180D01*
X023010Y023180D01*
X023010Y023294D02*
X023010Y023474D01*
X023055Y023474D01*
X023235Y023294D01*
X023280Y023294D01*
X023235Y023589D02*
X023055Y023769D01*
X023235Y023769D01*
X023280Y023724D01*
X023280Y023634D01*
X023235Y023589D01*
X023055Y023589D01*
X023010Y023634D01*
X023010Y023724D01*
X023055Y023769D01*
X023055Y023884D02*
X023010Y023929D01*
X023010Y024019D01*
X023055Y024064D01*
X023235Y023884D01*
X023280Y023929D01*
X023280Y024019D01*
X023235Y024064D01*
X023055Y024064D01*
X023055Y024178D02*
X023010Y024223D01*
X023010Y024313D01*
X023055Y024358D01*
X023100Y024358D01*
X023280Y024178D01*
X023280Y024358D01*
X023235Y023884D02*
X023055Y023884D01*
X020669Y022725D02*
X020669Y022455D01*
X020669Y022545D02*
X020804Y022635D01*
X020669Y022545D02*
X020804Y022455D01*
X020555Y022500D02*
X020510Y022455D01*
X020420Y022455D01*
X020375Y022500D01*
X020555Y022680D01*
X020555Y022500D01*
X020555Y022680D02*
X020510Y022725D01*
X020420Y022725D01*
X020375Y022680D01*
X020375Y022500D01*
X020260Y022455D02*
X020080Y022455D01*
X020170Y022455D02*
X020170Y022725D01*
X020080Y022635D01*
X020035Y023855D02*
X020035Y024125D01*
X019945Y024035D01*
X019945Y023855D02*
X020125Y023855D01*
X020240Y023900D02*
X020285Y023855D01*
X020375Y023855D01*
X020420Y023900D01*
X020420Y023945D01*
X020375Y023990D01*
X020240Y023990D01*
X020240Y023900D01*
X020240Y023990D02*
X020330Y024080D01*
X020420Y024125D01*
X021330Y025455D02*
X021510Y025635D01*
X021510Y025680D01*
X021465Y025725D01*
X021375Y025725D01*
X021330Y025680D01*
X021330Y025455D02*
X021510Y025455D01*
X021625Y025455D02*
X021805Y025635D01*
X021805Y025680D01*
X021760Y025725D01*
X021670Y025725D01*
X021625Y025680D01*
X021625Y025455D02*
X021805Y025455D01*
X022214Y025455D02*
X022214Y025725D01*
X022349Y025725D01*
X022394Y025680D01*
X022394Y025590D01*
X022349Y025545D01*
X022214Y025545D01*
X022304Y025545D02*
X022394Y025455D01*
X020260Y025830D02*
X020125Y025965D01*
X020080Y025920D02*
X020260Y026100D01*
X020080Y026100D02*
X020080Y025830D01*
X019260Y025830D02*
X019260Y026010D01*
X019170Y026100D01*
X019080Y026010D01*
X019080Y025830D01*
X019080Y025965D02*
X019260Y025965D01*
X018599Y026055D02*
X018419Y025875D01*
X018419Y025830D01*
X018305Y025875D02*
X018260Y025830D01*
X018125Y025830D01*
X018125Y026100D01*
X018260Y026100D01*
X018305Y026055D01*
X018305Y026010D01*
X018260Y025965D01*
X018125Y025965D01*
X018260Y025965D02*
X018305Y025920D01*
X018305Y025875D01*
X018419Y026100D02*
X018599Y026100D01*
X018599Y026055D01*
X018010Y026055D02*
X018010Y025875D01*
X017965Y025830D01*
X017830Y025830D01*
X017830Y026100D01*
X017965Y026100D01*
X018010Y026055D01*
X017599Y026100D02*
X017509Y026055D01*
X017419Y025965D01*
X017554Y025965D01*
X017599Y025920D01*
X017599Y025875D01*
X017554Y025830D01*
X017464Y025830D01*
X017419Y025875D01*
X017419Y025965D01*
X017305Y025920D02*
X017305Y025875D01*
X017260Y025830D01*
X017125Y025830D01*
X017125Y026100D01*
X017260Y026100D01*
X017305Y026055D01*
X017305Y026010D01*
X017260Y025965D01*
X017125Y025965D01*
X017260Y025965D02*
X017305Y025920D01*
X017010Y025875D02*
X017010Y026055D01*
X016965Y026100D01*
X016830Y026100D01*
X016830Y025830D01*
X016965Y025830D01*
X017010Y025875D01*
X016599Y025875D02*
X016554Y025830D01*
X016464Y025830D01*
X016419Y025875D01*
X016419Y025965D02*
X016509Y026010D01*
X016554Y026010D01*
X016599Y025965D01*
X016599Y025875D01*
X016419Y025965D02*
X016419Y026100D01*
X016599Y026100D01*
X016305Y026055D02*
X016305Y026010D01*
X016260Y025965D01*
X016125Y025965D01*
X016260Y025965D02*
X016305Y025920D01*
X016305Y025875D01*
X016260Y025830D01*
X016125Y025830D01*
X016125Y026100D01*
X016260Y026100D01*
X016305Y026055D01*
X016010Y026055D02*
X015965Y026100D01*
X015830Y026100D01*
X015830Y025830D01*
X015965Y025830D01*
X016010Y025875D01*
X016010Y026055D01*
X015599Y025965D02*
X015419Y025965D01*
X015554Y026100D01*
X015554Y025830D01*
X015554Y026100D01*
X015419Y025965D01*
X015599Y025965D01*
X015305Y025920D02*
X015305Y025875D01*
X015260Y025830D01*
X015125Y025830D01*
X015125Y026100D01*
X015260Y026100D01*
X015305Y026055D01*
X015305Y026010D01*
X015260Y025965D01*
X015125Y025965D01*
X015260Y025965D01*
X015305Y025920D01*
X015305Y025875D01*
X015260Y025830D01*
X015125Y025830D01*
X015125Y026100D01*
X015260Y026100D01*
X015305Y026055D01*
X015305Y026010D01*
X015260Y025965D01*
X015305Y025920D01*
X015010Y025875D02*
X015010Y026055D01*
X014965Y026100D01*
X014830Y026100D01*
X014830Y025830D01*
X014965Y025830D01*
X015010Y025875D01*
X015010Y026055D01*
X014965Y026100D01*
X014830Y026100D01*
X014830Y025830D01*
X014965Y025830D01*
X015010Y025875D01*
X010430Y025830D02*
X010430Y026100D01*
X010250Y026100D02*
X010250Y025830D01*
X010135Y025830D02*
X009955Y025830D01*
X009955Y026100D01*
X010135Y026100D01*
X010250Y026100D02*
X010430Y025830D01*
X010045Y025965D02*
X009955Y025965D01*
X009599Y025830D02*
X009599Y026100D01*
X009419Y026100D02*
X009419Y025830D01*
X009509Y025920D01*
X009599Y025830D01*
X009305Y026100D02*
X009125Y025830D01*
X009010Y025830D02*
X008920Y025920D01*
X008965Y025920D02*
X008830Y025920D01*
X008830Y025830D02*
X008830Y026100D01*
X008965Y026100D01*
X009010Y026055D01*
X009010Y025965D01*
X008965Y025920D01*
X008430Y025920D02*
X008430Y025875D01*
X008385Y025830D01*
X008295Y025830D01*
X008250Y025875D01*
X008295Y025965D02*
X008385Y025965D01*
X008430Y025920D01*
X008430Y026055D02*
X008385Y026100D01*
X008295Y026100D01*
X008250Y026055D01*
X008250Y026010D01*
X008295Y025965D01*
X008135Y025965D02*
X008090Y025920D01*
X007955Y025920D01*
X007955Y025830D02*
X007955Y026100D01*
X008090Y026100D01*
X008135Y026055D01*
X008135Y025965D01*
X008045Y025920D02*
X008135Y025830D01*
X007599Y025830D02*
X007599Y026100D01*
X007419Y026100D02*
X007599Y025830D01*
X007419Y025830D02*
X007419Y026100D01*
X007305Y026055D02*
X007305Y025875D01*
X007260Y025830D01*
X007170Y025830D01*
X007125Y025875D01*
X007125Y026055D01*
X007170Y026100D01*
X007260Y026100D01*
X007305Y026055D01*
X007010Y026055D02*
X006965Y026100D01*
X006875Y026100D01*
X006830Y026055D01*
X006830Y025875D01*
X006875Y025830D01*
X006965Y025830D01*
X007010Y025875D01*
X006599Y025875D02*
X006599Y026055D01*
X006554Y026100D01*
X006419Y026100D01*
X006419Y025830D01*
X006554Y025830D01*
X006599Y025875D01*
X006305Y025875D02*
X006305Y026055D01*
X006260Y026100D01*
X006125Y026100D01*
X006125Y025830D01*
X006260Y025830D01*
X006305Y025875D01*
X006010Y025920D02*
X006010Y026100D01*
X006010Y025920D02*
X005920Y025830D01*
X005830Y025920D01*
X005830Y026100D01*
X005599Y026055D02*
X005599Y025875D01*
X005554Y025830D01*
X005419Y025830D01*
X005419Y026100D01*
X005554Y026100D01*
X005599Y026055D01*
X005305Y026100D02*
X005305Y025830D01*
X005125Y026100D01*
X005125Y025830D01*
X005010Y025875D02*
X005010Y025965D01*
X004920Y025965D01*
X004830Y026055D02*
X004830Y025875D01*
X004875Y025830D01*
X004965Y025830D01*
X005010Y025875D01*
X005010Y026055D02*
X004965Y026100D01*
X004875Y026100D01*
X004830Y026055D01*
X005195Y024125D02*
X005195Y023855D01*
X005105Y023855D02*
X005285Y023855D01*
X005105Y024035D02*
X005195Y024125D01*
X004224Y024010D02*
X004089Y023920D01*
X004224Y023830D01*
X004089Y023830D02*
X004089Y024100D01*
X003680Y024055D02*
X003500Y023875D01*
X003545Y023830D01*
X003635Y023830D01*
X003680Y023875D01*
X003680Y024055D01*
X003635Y024100D01*
X003545Y024100D01*
X003500Y024055D01*
X003500Y023875D01*
X003385Y023830D02*
X003205Y023830D01*
X003295Y023830D02*
X003295Y024100D01*
X003205Y024010D01*
X020330Y027080D02*
X020510Y027080D01*
X020420Y027080D02*
X020420Y027350D01*
X020330Y027260D01*
X020625Y027170D02*
X020760Y027260D01*
X020625Y027170D02*
X020760Y027080D01*
X020625Y027080D02*
X020625Y027350D01*
X021705Y027225D02*
X021705Y026955D01*
X021705Y027045D02*
X021840Y027045D01*
X021885Y027090D01*
X021885Y027180D01*
X021840Y027225D01*
X021705Y027225D01*
X022000Y027090D02*
X022000Y027000D01*
X022045Y026955D01*
X022135Y026955D01*
X022180Y027000D01*
X022180Y027090D01*
X022135Y027135D01*
X022045Y027135D01*
X022000Y027090D01*
X022294Y027135D02*
X022294Y027000D01*
X022339Y026955D01*
X022384Y027000D01*
X022429Y026955D01*
X022474Y027000D01*
X022474Y027135D01*
X022589Y027090D02*
X022634Y027135D01*
X022724Y027135D01*
X022769Y027090D01*
X022769Y027045D01*
X022589Y027045D01*
X022589Y027000D02*
X022589Y027090D01*
X022589Y027000D02*
X022634Y026955D01*
X022724Y026955D01*
X022884Y026955D02*
X022884Y027135D01*
X022974Y027135D02*
X023019Y027135D01*
X022974Y027135D02*
X022884Y027045D01*
X024830Y027100D02*
X024920Y027010D01*
X025010Y027100D01*
X025010Y026830D01*
X025125Y026830D02*
X025215Y026830D01*
X025170Y026830D02*
X025170Y027010D01*
X025125Y027010D01*
X025170Y027100D02*
X025170Y027145D01*
X025321Y026965D02*
X025321Y026875D01*
X025366Y026830D01*
X025501Y026830D01*
X025616Y026830D02*
X025616Y027010D01*
X025616Y026920D02*
X025706Y027010D01*
X025751Y027010D01*
X025861Y026965D02*
X025861Y026875D01*
X025906Y026830D01*
X025996Y026830D01*
X026041Y026875D01*
X026041Y026965D01*
X025996Y027010D01*
X025906Y027010D01*
X025861Y026965D01*
X025501Y027010D02*
X025366Y027010D01*
X025321Y026965D01*
X024928Y027439D02*
X024887Y027441D01*
X024846Y027439D01*
X024805Y027433D01*
X024764Y027424D01*
X024725Y027412D01*
X024687Y027396D01*
X024650Y027377D01*
X024616Y027354D01*
X024583Y027329D01*
X024552Y027301D01*
X024525Y027270D01*
X024500Y027237D01*
X024478Y027202D01*
X024459Y027166D01*
X024443Y027127D01*
X024431Y027088D01*
X024422Y027047D01*
X024417Y027006D01*
X024830Y027100D02*
X024830Y026830D01*
X024417Y027361D02*
X024422Y027402D01*
X024431Y027443D01*
X024443Y027482D01*
X024459Y027521D01*
X024478Y027557D01*
X024500Y027592D01*
X024525Y027625D01*
X024552Y027656D01*
X024583Y027684D01*
X024616Y027709D01*
X024650Y027732D01*
X024687Y027751D01*
X024725Y027767D01*
X024764Y027779D01*
X024805Y027788D01*
X024846Y027794D01*
X024887Y027796D01*
X024928Y027794D01*
X028550Y027794D01*
X028550Y027440D02*
X024928Y027440D01*
X026451Y027055D02*
X026451Y027010D01*
X026496Y026965D01*
X026586Y026965D01*
X026631Y026920D01*
X026631Y026875D01*
X026586Y026830D01*
X026496Y026830D01*
X026451Y026875D01*
X026451Y027055D02*
X026496Y027100D01*
X026586Y027100D01*
X026631Y027055D01*
X026745Y027100D02*
X026745Y026830D01*
X026880Y026830D01*
X026925Y026875D01*
X026925Y027055D01*
X026880Y027100D01*
X026745Y027100D01*
X027335Y027055D02*
X027335Y026875D01*
X027380Y026830D01*
X027470Y026830D01*
X027515Y026875D01*
X027629Y026875D02*
X027674Y026920D01*
X027809Y026920D01*
X027809Y026965D02*
X027809Y026830D01*
X027674Y026830D01*
X027629Y026875D01*
X027674Y027010D02*
X027764Y027010D01*
X027809Y026965D01*
X027924Y026920D02*
X028014Y027010D01*
X028059Y027010D01*
X028169Y026965D02*
X028214Y027010D01*
X028350Y027010D01*
X028350Y027100D02*
X028350Y026830D01*
X028214Y026830D01*
X028169Y026875D01*
X028169Y026965D01*
X027924Y027010D02*
X027924Y026830D01*
X027515Y027055D02*
X027470Y027100D01*
X027380Y027100D01*
X027335Y027055D01*
X028550Y027439D02*
X028591Y027437D01*
X028632Y027432D01*
X028672Y027423D01*
X028711Y027411D01*
X028749Y027395D01*
X028786Y027376D01*
X028821Y027354D01*
X028853Y027329D01*
X028884Y027301D01*
X028912Y027270D01*
X028937Y027238D01*
X028959Y027203D01*
X028978Y027166D01*
X028994Y027128D01*
X029006Y027089D01*
X029015Y027049D01*
X029020Y027008D01*
X029022Y026967D01*
X029022Y027322D02*
X029020Y027363D01*
X029015Y027404D01*
X029006Y027444D01*
X028994Y027483D01*
X028978Y027521D01*
X028959Y027558D01*
X028937Y027593D01*
X028912Y027625D01*
X028884Y027656D01*
X028853Y027684D01*
X028821Y027709D01*
X028786Y027731D01*
X028749Y027750D01*
X028711Y027766D01*
X028672Y027778D01*
X028632Y027787D01*
X028591Y027792D01*
X028550Y027794D01*
X029830Y027180D02*
X029830Y027135D01*
X029875Y027090D01*
X029965Y027090D01*
X030010Y027045D01*
X030010Y027000D01*
X029965Y026955D01*
X029875Y026955D01*
X029830Y027000D01*
X029830Y027180D02*
X029875Y027225D01*
X029965Y027225D01*
X030010Y027180D01*
X030125Y027225D02*
X030260Y027225D01*
X030305Y027180D01*
X030305Y027000D01*
X030260Y026955D01*
X030125Y026955D01*
X030125Y027225D01*
X030714Y027000D02*
X030759Y027045D01*
X030894Y027045D01*
X030894Y027090D02*
X030894Y026955D01*
X030759Y026955D01*
X030714Y027000D01*
X030759Y027135D02*
X030849Y027135D01*
X030894Y027090D01*
X031009Y027090D02*
X031009Y027000D01*
X031054Y026955D01*
X031189Y026955D01*
X031348Y027000D02*
X031393Y026955D01*
X031348Y027000D02*
X031348Y027180D01*
X031303Y027135D02*
X031393Y027135D01*
X031189Y027135D02*
X031054Y027135D01*
X031009Y027090D01*
X031955Y027135D02*
X032045Y027225D01*
X032045Y026955D01*
X031955Y026955D02*
X032135Y026955D01*
X032250Y027000D02*
X032430Y027180D01*
X032430Y027000D01*
X032385Y026955D01*
X032295Y026955D01*
X032250Y027000D01*
X032250Y027180D01*
X032295Y027225D01*
X032385Y027225D01*
X032430Y027180D01*
X032839Y027225D02*
X032839Y026955D01*
X032839Y027045D02*
X032974Y027135D01*
X032839Y027045D02*
X032974Y026955D01*
X029022Y028818D02*
X029020Y028859D01*
X029015Y028900D01*
X029006Y028940D01*
X028994Y028979D01*
X028978Y029017D01*
X028959Y029054D01*
X028937Y029089D01*
X028912Y029121D01*
X028884Y029152D01*
X028853Y029180D01*
X028821Y029205D01*
X028786Y029227D01*
X028749Y029246D01*
X028711Y029262D01*
X028672Y029274D01*
X028632Y029283D01*
X028591Y029288D01*
X028550Y029290D01*
X024928Y029290D01*
X024887Y029292D01*
X024846Y029290D01*
X024805Y029284D01*
X024764Y029275D01*
X024725Y029263D01*
X024687Y029247D01*
X024650Y029228D01*
X024616Y029205D01*
X024583Y029180D01*
X024552Y029152D01*
X024525Y029121D01*
X024500Y029088D01*
X024478Y029053D01*
X024459Y029017D01*
X024443Y028978D01*
X024431Y028939D01*
X024422Y028898D01*
X024417Y028857D01*
X008743Y004005D02*
X008643Y004005D01*
X008593Y003955D01*
X008743Y004005D02*
X008793Y003955D01*
X008793Y003905D01*
X008593Y003705D01*
X008793Y003705D01*
X008471Y003705D02*
X008271Y003705D01*
X008371Y003705D02*
X008371Y004005D01*
X008271Y003905D01*
X008148Y003955D02*
X007948Y003755D01*
X007998Y003705D01*
X008098Y003705D01*
X008148Y003755D01*
X008148Y003955D01*
X008098Y004005D01*
X007998Y004005D01*
X007948Y003955D01*
X007948Y003755D01*
X007826Y003705D02*
X007626Y003705D01*
X007826Y003905D01*
X007826Y003955D01*
X007776Y004005D01*
X007676Y004005D01*
X007626Y003955D01*
X007189Y003755D02*
X007139Y003755D01*
X007139Y003705D01*
X007189Y003705D01*
X007189Y003755D01*
X007189Y003705D02*
X007089Y003605D01*
X006967Y003705D02*
X006967Y003855D01*
X006917Y003905D01*
X006767Y003905D01*
X006767Y003705D01*
X006645Y003755D02*
X006645Y003855D01*
X006594Y003905D01*
X006494Y003905D01*
X006444Y003855D01*
X006444Y003755D01*
X006494Y003705D01*
X006594Y003705D01*
X006645Y003755D01*
X006330Y003705D02*
X006280Y003755D01*
X006280Y003955D01*
X006330Y003905D02*
X006229Y003905D01*
X006107Y003905D02*
X005957Y003905D01*
X005907Y003855D01*
X005957Y003805D01*
X006057Y003805D01*
X006107Y003755D01*
X006057Y003705D01*
X005907Y003705D01*
X005785Y003805D02*
X005585Y003805D01*
X005585Y003755D02*
X005585Y003855D01*
X005635Y003905D01*
X005735Y003905D01*
X005785Y003855D01*
X005785Y003805D01*
X005735Y003705D02*
X005635Y003705D01*
X005585Y003755D01*
X005463Y003705D02*
X005463Y004005D01*
X005263Y004005D02*
X005263Y003705D01*
X005363Y003805D01*
X005463Y003705D01*
X005463Y003255D02*
X005263Y002955D01*
X004940Y002955D02*
X005141Y003255D01*
X004829Y003155D02*
X004829Y003105D01*
X004779Y003105D01*
X004779Y003155D01*
X004829Y003155D01*
X004829Y003005D02*
X004829Y002955D01*
X004779Y002955D01*
X004779Y003005D01*
X004829Y003005D01*
X004657Y003005D02*
X004607Y002955D01*
X004457Y002955D01*
X004457Y002855D02*
X004457Y003155D01*
X004607Y003155D01*
X004657Y003105D01*
X004657Y003005D01*
X004342Y002955D02*
X004292Y003005D01*
X004292Y003205D01*
X004242Y003155D02*
X004342Y003155D01*
X004127Y003155D02*
X004027Y003155D01*
X004077Y003205D02*
X004077Y003005D01*
X004127Y002955D01*
X003905Y002955D02*
X003905Y003105D01*
X003855Y003155D01*
X003755Y003155D01*
X003705Y003105D01*
X003705Y003255D02*
X003705Y002955D01*
X003755Y002505D02*
X003705Y002455D01*
X003705Y002255D01*
X003755Y002205D01*
X003855Y002205D01*
X003905Y002255D01*
X003905Y002455D01*
X003855Y002505D01*
X003755Y002505D01*
X004027Y002405D02*
X004027Y002105D01*
X004027Y002205D02*
X004177Y002205D01*
X004227Y002255D01*
X004227Y002355D01*
X004177Y002405D01*
X004027Y002405D01*
X004350Y002355D02*
X004400Y002405D01*
X004500Y002405D01*
X004550Y002355D01*
X004550Y002305D01*
X004350Y002305D01*
X004350Y002255D02*
X004350Y002355D01*
X004350Y002255D02*
X004400Y002205D01*
X004500Y002205D01*
X004672Y002205D02*
X004672Y002405D01*
X004822Y002405D01*
X004872Y002355D01*
X004872Y002205D01*
X005316Y002205D02*
X005316Y002505D01*
X005316Y002355D02*
X005517Y002355D01*
X005517Y002505D02*
X005517Y002205D01*
X005639Y002255D02*
X005689Y002305D01*
X005839Y002305D01*
X005839Y002355D02*
X005839Y002205D01*
X005689Y002205D01*
X005639Y002255D01*
X005689Y002405D02*
X005789Y002405D01*
X005839Y002355D01*
X005961Y002305D02*
X006061Y002405D01*
X006111Y002405D01*
X006229Y002355D02*
X006280Y002405D01*
X006430Y002405D01*
X006430Y002505D02*
X006430Y002205D01*
X006280Y002205D01*
X006229Y002255D01*
X006229Y002355D01*
X005961Y002405D02*
X005961Y002205D01*
X006552Y002255D02*
X006552Y002405D01*
X006552Y002255D02*
X006602Y002205D01*
X006652Y002255D01*
X006702Y002205D01*
X006752Y002255D01*
X006752Y002405D01*
X006924Y002405D02*
X007024Y002405D01*
X007074Y002355D01*
X007074Y002205D01*
X006924Y002205D01*
X006874Y002255D01*
X006924Y002305D01*
X007074Y002305D01*
X007196Y002305D02*
X007296Y002405D01*
X007346Y002405D01*
X007465Y002355D02*
X007465Y002255D01*
X007515Y002205D01*
X007615Y002205D01*
X007665Y002305D02*
X007465Y002305D01*
X007465Y002355D02*
X007515Y002405D01*
X007615Y002405D01*
X007665Y002355D01*
X007665Y002305D01*
X008109Y002305D02*
X008210Y002405D01*
X008260Y002405D01*
X008378Y002355D02*
X008428Y002405D01*
X008528Y002405D01*
X008578Y002355D01*
X008578Y002305D01*
X008378Y002305D01*
X008378Y002255D02*
X008378Y002355D01*
X008378Y002255D02*
X008428Y002205D01*
X008528Y002205D01*
X008700Y002205D02*
X008800Y002205D01*
X008750Y002205D02*
X008750Y002505D01*
X008700Y002505D01*
X008915Y002355D02*
X008965Y002405D01*
X009065Y002405D01*
X009115Y002355D01*
X009115Y002305D01*
X008915Y002305D01*
X008915Y002255D02*
X008915Y002355D01*
X008915Y002255D02*
X008965Y002205D01*
X009065Y002205D01*
X009237Y002255D02*
X009287Y002305D01*
X009438Y002305D01*
X009438Y002355D02*
X009438Y002205D01*
X009287Y002205D01*
X009237Y002255D01*
X009287Y002405D02*
X009388Y002405D01*
X009438Y002355D01*
X009560Y002355D02*
X009610Y002405D01*
X009760Y002405D01*
X009710Y002305D02*
X009610Y002305D01*
X009560Y002355D01*
X009560Y002205D02*
X009710Y002205D01*
X009760Y002255D01*
X009710Y002305D01*
X009882Y002305D02*
X010082Y002305D01*
X010082Y002355D01*
X010032Y002405D01*
X009932Y002405D01*
X009882Y002355D01*
X009882Y002255D01*
X009932Y002205D01*
X010032Y002205D01*
X010204Y002255D02*
X010204Y002355D01*
X010254Y002405D01*
X010404Y002405D01*
X010404Y002505D02*
X010404Y002205D01*
X010254Y002205D01*
X010204Y002255D01*
X010849Y002255D02*
X010899Y002205D01*
X011049Y002205D01*
X011049Y002405D01*
X011171Y002405D02*
X011321Y002405D01*
X011371Y002355D01*
X011371Y002205D01*
X011493Y002255D02*
X011493Y002355D01*
X011543Y002405D01*
X011693Y002405D01*
X011693Y002505D02*
X011693Y002205D01*
X011543Y002205D01*
X011493Y002255D01*
X011816Y002255D02*
X011816Y002355D01*
X011866Y002405D01*
X011966Y002405D01*
X012016Y002355D01*
X012016Y002305D01*
X011816Y002305D01*
X011816Y002255D02*
X011866Y002205D01*
X011966Y002205D01*
X012138Y002205D02*
X012138Y002405D01*
X012138Y002305D02*
X012238Y002405D01*
X012288Y002405D01*
X012729Y002405D02*
X012829Y002405D01*
X012779Y002455D02*
X012779Y002255D01*
X012829Y002205D01*
X012944Y002205D02*
X012944Y002505D01*
X012994Y002405D02*
X013094Y002405D01*
X013144Y002355D01*
X013144Y002205D01*
X013266Y002255D02*
X013266Y002355D01*
X013316Y002405D01*
X013416Y002405D01*
X013466Y002355D01*
X013466Y002305D01*
X013266Y002305D01*
X013266Y002255D02*
X013316Y002205D01*
X013416Y002205D01*
X012994Y002405D02*
X012944Y002355D01*
X012997Y002955D02*
X012997Y003255D01*
X013147Y003255D01*
X013197Y003205D01*
X013197Y003105D01*
X013147Y003055D01*
X012997Y003055D01*
X012875Y002955D02*
X012875Y003255D01*
X012775Y003155D01*
X012675Y003255D01*
X012675Y002955D01*
X012553Y002955D02*
X012553Y003155D01*
X012453Y003255D01*
X012353Y003155D01*
X012353Y002955D01*
X012231Y002955D02*
X012131Y003055D01*
X012181Y003055D02*
X012030Y003055D01*
X012030Y002955D02*
X012030Y003255D01*
X012181Y003255D01*
X012231Y003205D01*
X012231Y003105D01*
X012181Y003055D01*
X012353Y003105D02*
X012553Y003105D01*
X011908Y003255D02*
X011708Y002955D01*
X011586Y002955D02*
X011586Y003105D01*
X011536Y003155D01*
X011386Y003155D01*
X011386Y002955D01*
X011264Y003005D02*
X011264Y003105D01*
X011214Y003155D01*
X011114Y003155D01*
X011064Y003105D01*
X011064Y003005D01*
X011114Y002955D01*
X011214Y002955D01*
X011264Y003005D01*
X010949Y002955D02*
X010899Y003005D01*
X010899Y003205D01*
X010849Y003155D02*
X010949Y003155D01*
X010727Y003155D02*
X010577Y003155D01*
X010526Y003105D01*
X010577Y003055D01*
X010677Y003055D01*
X010727Y003005D01*
X010677Y002955D01*
X010526Y002955D01*
X010404Y003055D02*
X010204Y003055D01*
X010204Y003005D02*
X010204Y003105D01*
X010254Y003155D01*
X010354Y003155D01*
X010404Y003105D01*
X010404Y003055D01*
X010354Y002955D02*
X010254Y002955D01*
X010204Y003005D01*
X010082Y003005D02*
X010082Y003155D01*
X010082Y003005D02*
X010032Y002955D01*
X009982Y003005D01*
X009932Y002955D01*
X009882Y003005D01*
X009882Y003155D01*
X009760Y003105D02*
X009760Y003055D01*
X009560Y003055D01*
X009560Y003005D02*
X009560Y003105D01*
X009610Y003155D01*
X009710Y003155D01*
X009760Y003105D01*
X009710Y002955D02*
X009610Y002955D01*
X009560Y003005D01*
X009441Y002955D02*
X009291Y003055D01*
X009441Y003155D01*
X009291Y003255D02*
X009291Y002955D01*
X009169Y002955D02*
X009169Y003155D01*
X009169Y002955D02*
X009019Y002955D01*
X008969Y003005D01*
X008969Y003155D01*
X008804Y003255D02*
X008804Y002955D01*
X008754Y002955D02*
X008854Y002955D01*
X008804Y003255D02*
X008754Y003255D01*
X008632Y003255D02*
X008432Y002955D01*
X008310Y002955D02*
X008310Y003105D01*
X008260Y003155D01*
X008210Y003105D01*
X008210Y002955D01*
X008109Y002955D02*
X008109Y003155D01*
X008159Y003155D01*
X008210Y003105D01*
X007987Y003105D02*
X007937Y003155D01*
X007837Y003155D01*
X007787Y003105D01*
X007787Y003005D01*
X007837Y002955D01*
X007937Y002955D01*
X007987Y003005D01*
X007987Y003105D01*
X007665Y003155D02*
X007515Y003155D01*
X007465Y003105D01*
X007465Y003005D01*
X007515Y002955D01*
X007665Y002955D01*
X007354Y002955D02*
X007304Y002955D01*
X007304Y003005D01*
X007354Y003005D01*
X007354Y002955D01*
X007182Y003005D02*
X007182Y003105D01*
X007132Y003155D01*
X006981Y003155D01*
X006981Y003255D02*
X006981Y002955D01*
X007132Y002955D01*
X007182Y003005D01*
X006859Y002955D02*
X006859Y003155D01*
X006659Y003155D02*
X006659Y003005D01*
X006709Y002955D01*
X006859Y002955D01*
X006537Y002955D02*
X006537Y003105D01*
X006487Y003155D01*
X006387Y003155D01*
X006337Y003105D01*
X006222Y003155D02*
X006122Y003155D01*
X006172Y003205D02*
X006172Y003005D01*
X006222Y002955D01*
X006337Y002955D02*
X006337Y003255D01*
X005957Y003255D02*
X005957Y003305D01*
X005957Y003155D02*
X005957Y002955D01*
X005907Y002955D02*
X006007Y002955D01*
X005957Y003155D02*
X005907Y003155D01*
X005785Y003155D02*
X005635Y003155D01*
X005585Y003105D01*
X005585Y003005D01*
X005635Y002955D01*
X005785Y002955D01*
X005785Y002905D02*
X005785Y003155D01*
X005785Y002905D02*
X005735Y002855D01*
X005685Y002855D01*
X004768Y003705D02*
X004668Y003705D01*
X004618Y003755D01*
X004618Y003855D01*
X004668Y003905D01*
X004768Y003905D01*
X004818Y003855D01*
X004818Y003805D01*
X004618Y003805D01*
X004500Y003705D02*
X004350Y003805D01*
X004500Y003905D01*
X004350Y004005D02*
X004350Y003705D01*
X004227Y003705D02*
X004227Y003905D01*
X004027Y003905D02*
X004027Y003755D01*
X004077Y003705D01*
X004227Y003705D01*
X003905Y003705D02*
X003705Y003705D01*
X003705Y004005D01*
X007196Y002405D02*
X007196Y002205D01*
X008109Y002205D02*
X008109Y002405D01*
X010849Y002405D02*
X010849Y002255D01*
X011171Y002205D02*
X011171Y002405D01*
X013320Y003005D02*
X013370Y002955D01*
X013470Y002955D01*
X013520Y003005D01*
X013520Y003055D01*
X013470Y003105D01*
X013370Y003105D01*
X013320Y003155D01*
X013320Y003205D01*
X013370Y003255D01*
X013470Y003255D01*
X013520Y003205D01*
X013642Y003105D02*
X013692Y003155D01*
X013842Y003155D01*
X013842Y003255D02*
X013842Y002955D01*
X013692Y002955D01*
X013642Y003005D01*
X013642Y003105D01*
X013964Y003155D02*
X014014Y003155D01*
X014014Y002955D01*
X013964Y002955D02*
X014064Y002955D01*
X014179Y002955D02*
X014329Y002955D01*
X014379Y003005D01*
X014329Y003055D01*
X014229Y003055D01*
X014179Y003105D01*
X014229Y003155D01*
X014379Y003155D01*
X014501Y003155D02*
X014651Y003155D01*
X014701Y003105D01*
X014701Y003005D01*
X014651Y002955D01*
X014501Y002955D01*
X014501Y002855D02*
X014501Y003155D01*
X014823Y003255D02*
X014874Y003255D01*
X014874Y002955D01*
X014924Y002955D02*
X014823Y002955D01*
X015038Y003005D02*
X015088Y003055D01*
X015239Y003055D01*
X015239Y003105D02*
X015239Y002955D01*
X015088Y002955D01*
X015038Y003005D01*
X015088Y003155D02*
X015188Y003155D01*
X015239Y003105D01*
X015361Y003155D02*
X015361Y003005D01*
X015411Y002955D01*
X015561Y002955D01*
X015561Y002905D02*
X015561Y003155D01*
X015561Y002905D02*
X015511Y002855D01*
X015461Y002855D01*
X015572Y002505D02*
X015522Y002455D01*
X015522Y002255D01*
X015572Y002205D01*
X015672Y002205D01*
X015722Y002255D01*
X015722Y002455D01*
X015672Y002505D01*
X015572Y002505D01*
X015844Y002405D02*
X015994Y002405D01*
X016044Y002355D01*
X016044Y002255D01*
X015994Y002205D01*
X015844Y002205D01*
X015844Y002105D02*
X015844Y002405D01*
X016166Y002355D02*
X016166Y002255D01*
X016216Y002205D01*
X016316Y002205D01*
X016366Y002305D02*
X016166Y002305D01*
X016166Y002355D02*
X016216Y002405D01*
X016316Y002405D01*
X016366Y002355D01*
X016366Y002305D01*
X016489Y002205D02*
X016489Y002405D01*
X016639Y002405D01*
X016689Y002355D01*
X016689Y002205D01*
X017133Y002205D02*
X017133Y002505D01*
X017133Y002355D02*
X017333Y002355D01*
X017333Y002505D02*
X017333Y002205D01*
X017455Y002255D02*
X017505Y002305D01*
X017656Y002305D01*
X017656Y002355D02*
X017656Y002205D01*
X017505Y002205D01*
X017455Y002255D01*
X017505Y002405D02*
X017606Y002405D01*
X017656Y002355D01*
X017778Y002305D02*
X017878Y002405D01*
X017928Y002405D01*
X018046Y002355D02*
X018096Y002405D01*
X018246Y002405D01*
X018246Y002505D02*
X018246Y002205D01*
X018096Y002205D01*
X018046Y002255D01*
X018046Y002355D01*
X017778Y002405D02*
X017778Y002205D01*
X018369Y002255D02*
X018369Y002405D01*
X018369Y002255D02*
X018419Y002205D01*
X018469Y002255D01*
X018519Y002205D01*
X018569Y002255D01*
X018569Y002405D01*
X018741Y002405D02*
X018841Y002405D01*
X018891Y002355D01*
X018891Y002205D01*
X018741Y002205D01*
X018691Y002255D01*
X018741Y002305D01*
X018891Y002305D01*
X019013Y002305D02*
X019113Y002405D01*
X019163Y002405D01*
X019282Y002355D02*
X019332Y002405D01*
X019432Y002405D01*
X019482Y002355D01*
X019482Y002305D01*
X019282Y002305D01*
X019282Y002255D02*
X019282Y002355D01*
X019282Y002255D02*
X019332Y002205D01*
X019432Y002205D01*
X019013Y002205D02*
X019013Y002405D01*
X019926Y002505D02*
X019926Y002205D01*
X020126Y002205D01*
X020248Y002205D02*
X020349Y002205D01*
X020298Y002205D02*
X020298Y002405D01*
X020248Y002405D01*
X020298Y002505D02*
X020298Y002555D01*
X020463Y002355D02*
X020463Y002255D01*
X020513Y002205D01*
X020663Y002205D01*
X020786Y002255D02*
X020786Y002355D01*
X020836Y002405D01*
X020936Y002405D01*
X020986Y002355D01*
X020986Y002305D01*
X020786Y002305D01*
X020786Y002255D02*
X020836Y002205D01*
X020936Y002205D01*
X021108Y002205D02*
X021108Y002405D01*
X021258Y002405D01*
X021308Y002355D01*
X021308Y002205D01*
X021430Y002205D02*
X021580Y002205D01*
X021630Y002255D01*
X021580Y002305D01*
X021480Y002305D01*
X021430Y002355D01*
X021480Y002405D01*
X021630Y002405D01*
X021752Y002355D02*
X021752Y002255D01*
X021802Y002205D01*
X021903Y002205D01*
X021953Y002305D02*
X021752Y002305D01*
X021752Y002355D02*
X021802Y002405D01*
X021903Y002405D01*
X021953Y002355D01*
X021953Y002305D01*
X022075Y002255D02*
X022075Y002205D01*
X022125Y002205D01*
X022125Y002255D01*
X022075Y002255D01*
X022075Y002355D02*
X022075Y002405D01*
X022125Y002405D01*
X022125Y002355D01*
X022075Y002355D01*
X022558Y002355D02*
X022608Y002405D01*
X022708Y002405D01*
X022758Y002355D01*
X022758Y002205D01*
X022930Y002255D02*
X022930Y002455D01*
X022880Y002405D02*
X022980Y002405D01*
X023095Y002405D02*
X023195Y002405D01*
X023145Y002455D02*
X023145Y002255D01*
X023195Y002205D01*
X023310Y002205D02*
X023460Y002205D01*
X023510Y002255D01*
X023510Y002355D01*
X023460Y002405D01*
X023310Y002405D01*
X023310Y002105D01*
X023632Y002205D02*
X023632Y002255D01*
X023682Y002255D01*
X023682Y002205D01*
X023632Y002205D01*
X023632Y002355D02*
X023632Y002405D01*
X023682Y002405D01*
X023682Y002355D01*
X023632Y002355D01*
X023793Y002205D02*
X023994Y002505D01*
X024316Y002505D02*
X024116Y002205D01*
X024438Y002255D02*
X024488Y002205D01*
X024588Y002205D01*
X024638Y002255D01*
X024638Y002355D01*
X024588Y002405D01*
X024488Y002405D01*
X024438Y002355D01*
X024438Y002255D01*
X024760Y002205D02*
X024760Y002505D01*
X024810Y002405D02*
X024910Y002405D01*
X024960Y002355D01*
X024960Y002205D01*
X025083Y002255D02*
X025133Y002205D01*
X025183Y002255D01*
X025233Y002205D01*
X025283Y002255D01*
X025283Y002405D01*
X025405Y002405D02*
X025405Y002205D01*
X025405Y002305D02*
X025505Y002405D01*
X025555Y002405D01*
X025673Y002255D02*
X025723Y002255D01*
X025723Y002205D01*
X025673Y002205D01*
X025673Y002255D01*
X025835Y002255D02*
X025835Y002355D01*
X025885Y002405D01*
X025985Y002405D01*
X026035Y002355D01*
X026035Y002255D01*
X025985Y002205D01*
X025885Y002205D01*
X025835Y002255D01*
X026157Y002205D02*
X026157Y002405D01*
X026157Y002305D02*
X026257Y002405D01*
X026307Y002405D01*
X026425Y002355D02*
X026425Y002255D01*
X026475Y002205D01*
X026626Y002205D01*
X026626Y002155D02*
X026626Y002405D01*
X026475Y002405D01*
X026425Y002355D01*
X026525Y002105D02*
X026575Y002105D01*
X026626Y002155D01*
X026748Y002205D02*
X026948Y002505D01*
X027070Y002355D02*
X027070Y002255D01*
X027120Y002205D01*
X027270Y002205D01*
X027392Y002255D02*
X027392Y002355D01*
X027442Y002405D01*
X027542Y002405D01*
X027592Y002355D01*
X027592Y002305D01*
X027392Y002305D01*
X027392Y002255D02*
X027442Y002205D01*
X027542Y002205D01*
X027714Y002205D02*
X027714Y002405D01*
X027714Y002305D02*
X027815Y002405D01*
X027865Y002405D01*
X027983Y002405D02*
X027983Y002205D01*
X027983Y002405D02*
X028133Y002405D01*
X028183Y002355D01*
X028183Y002205D01*
X028305Y002255D02*
X028355Y002205D01*
X028455Y002205D01*
X028505Y002255D01*
X028505Y002355D01*
X028455Y002405D01*
X028355Y002405D01*
X028305Y002355D01*
X028305Y002255D01*
X028628Y002205D02*
X028628Y002505D01*
X028678Y002405D02*
X028778Y002405D01*
X028828Y002355D01*
X028828Y002205D01*
X028950Y002205D02*
X029050Y002205D01*
X029000Y002205D02*
X029000Y002505D01*
X028950Y002505D01*
X028678Y002405D02*
X028628Y002355D01*
X027270Y002405D02*
X027120Y002405D01*
X027070Y002355D01*
X025083Y002405D02*
X025083Y002255D01*
X024810Y002405D02*
X024760Y002355D01*
X022980Y002205D02*
X022930Y002255D01*
X022558Y002205D02*
X022558Y002505D01*
X020663Y002405D02*
X020513Y002405D01*
X020463Y002355D01*
X015077Y002205D02*
X015077Y002505D01*
X014877Y002505D02*
X015077Y002205D01*
X014877Y002205D02*
X014877Y002505D01*
X014755Y002455D02*
X014755Y002355D01*
X014705Y002305D01*
X014555Y002305D01*
X014555Y002205D02*
X014555Y002505D01*
X014705Y002505D01*
X014755Y002455D01*
X014655Y002305D02*
X014755Y002205D01*
X014433Y002205D02*
X014233Y002205D01*
X014233Y002505D01*
X014433Y002505D01*
X014333Y002355D02*
X014233Y002355D01*
X014111Y002255D02*
X014060Y002205D01*
X013960Y002205D01*
X013910Y002255D01*
X013910Y002455D01*
X013960Y002505D01*
X014060Y002505D01*
X014111Y002455D01*
X014014Y003255D02*
X014014Y003305D01*
D12*
X031370Y016371D02*
X031990Y016371D01*
X031990Y017489D02*
X031370Y017489D01*
X030330Y022222D02*
X034030Y022222D01*
X034053Y022224D01*
X034076Y022229D01*
X034098Y022238D01*
X034118Y022251D01*
X034136Y022266D01*
X034151Y022284D01*
X034164Y022304D01*
X034173Y022326D01*
X034178Y022349D01*
X034180Y022372D01*
X034180Y023487D01*
X034178Y023510D01*
X034173Y023533D01*
X034164Y023555D01*
X034151Y023575D01*
X034136Y023593D01*
X034118Y023608D01*
X034098Y023621D01*
X034076Y023630D01*
X034053Y023635D01*
X034030Y023637D01*
X030330Y023638D01*
X030307Y023636D01*
X030284Y023631D01*
X030262Y023622D01*
X030242Y023609D01*
X030224Y023594D01*
X030209Y023576D01*
X030196Y023556D01*
X030187Y023534D01*
X030182Y023511D01*
X030180Y023488D01*
X030180Y022372D01*
X030182Y022349D01*
X030187Y022326D01*
X030196Y022304D01*
X030209Y022284D01*
X030224Y022266D01*
X030242Y022251D01*
X030262Y022238D01*
X030284Y022229D01*
X030307Y022224D01*
X030330Y022222D01*
X034950Y022999D02*
X037410Y022999D01*
X037410Y024361D01*
X034950Y024361D01*
X034950Y022999D01*
X052060Y013930D02*
X052580Y013930D01*
X053180Y013930D01*
X053680Y013930D01*
X054280Y013930D01*
X054810Y013930D01*
X054810Y013580D01*
X054810Y012930D01*
X054810Y002930D01*
X054810Y002280D01*
X054810Y001940D01*
X054280Y001940D01*
X053680Y001940D01*
X053180Y001940D01*
X052580Y001940D01*
X052060Y001940D01*
X052060Y002280D01*
X052060Y002930D01*
X052060Y012930D01*
X052060Y013580D01*
X052060Y013930D01*
X051817Y013530D02*
X051817Y013210D01*
X051710Y013210D02*
X051924Y013210D01*
X051710Y013424D02*
X051817Y013530D01*
X004330Y020880D02*
X004230Y020780D01*
X001630Y020780D01*
X001530Y020880D01*
X001530Y023480D01*
X001630Y023580D01*
X004230Y023580D01*
X004330Y023480D01*
X004330Y020880D01*
D13*
X030108Y002766D02*
X030089Y002576D01*
X030025Y002555D01*
X029965Y002524D01*
X029816Y002645D01*
X029715Y002544D01*
X029836Y002395D01*
X029805Y002335D01*
X029784Y002271D01*
X029594Y002252D01*
X029594Y002108D01*
X029784Y002089D01*
X029805Y002025D01*
X029836Y001965D01*
X029715Y001816D01*
X029816Y001715D01*
X029965Y001836D01*
X030025Y001805D01*
X030109Y002009D01*
X030072Y002031D01*
X030040Y002060D01*
X030016Y002096D01*
X030001Y002137D01*
X029995Y002180D01*
X030001Y002224D01*
X030016Y002265D01*
X030041Y002302D01*
X030074Y002331D01*
X030113Y002352D01*
X030156Y002363D01*
X030200Y002363D01*
X030243Y002353D01*
X030282Y002333D01*
X030316Y002305D01*
X030342Y002269D01*
X030358Y002228D01*
X030364Y002184D01*
X030360Y002140D01*
X030345Y002098D01*
X030321Y002061D01*
X030567Y002061D01*
X030576Y002089D02*
X030766Y002108D01*
X030766Y002252D01*
X030576Y002271D01*
X030555Y002335D01*
X030524Y002395D01*
X030645Y002544D01*
X030544Y002645D01*
X030395Y002524D01*
X030335Y002555D01*
X030271Y002576D01*
X030252Y002766D01*
X030108Y002766D01*
X030107Y002752D02*
X030253Y002752D01*
X030259Y002694D02*
X030101Y002694D01*
X030095Y002637D02*
X030265Y002637D01*
X030271Y002579D02*
X030089Y002579D01*
X029897Y002579D02*
X029750Y002579D01*
X029732Y002522D02*
X030628Y002522D01*
X030610Y002579D02*
X030463Y002579D01*
X030533Y002637D02*
X030552Y002637D01*
X030581Y002464D02*
X029779Y002464D01*
X029826Y002407D02*
X030534Y002407D01*
X030548Y002349D02*
X030251Y002349D01*
X030325Y002292D02*
X030569Y002292D01*
X030576Y002089D02*
X030555Y002025D01*
X030524Y001965D01*
X030645Y001816D01*
X030544Y001715D01*
X030395Y001836D01*
X030335Y001805D01*
X030251Y002009D01*
X030289Y002031D01*
X030321Y002061D01*
X030353Y002119D02*
X030766Y002119D01*
X030766Y002176D02*
X030364Y002176D01*
X030356Y002234D02*
X030766Y002234D01*
X030544Y002004D02*
X030253Y002004D01*
X030277Y001946D02*
X030540Y001946D01*
X030586Y001889D02*
X030301Y001889D01*
X030325Y001831D02*
X030386Y001831D01*
X030401Y001831D02*
X030633Y001831D01*
X030602Y001774D02*
X030471Y001774D01*
X030542Y001716D02*
X030545Y001716D01*
X030059Y001889D02*
X029774Y001889D01*
X029820Y001946D02*
X030083Y001946D01*
X030107Y002004D02*
X029816Y002004D01*
X029793Y002061D02*
X030039Y002061D01*
X030007Y002119D02*
X029594Y002119D01*
X029594Y002176D02*
X029996Y002176D01*
X030005Y002234D02*
X029594Y002234D01*
X029791Y002292D02*
X030034Y002292D01*
X030108Y002349D02*
X029812Y002349D01*
X029808Y002637D02*
X029827Y002637D01*
X029727Y001831D02*
X029959Y001831D01*
X029974Y001831D02*
X030035Y001831D01*
X029889Y001774D02*
X029758Y001774D01*
X029815Y001716D02*
X029818Y001716D01*
D14*
X030368Y022492D02*
X030370Y022507D01*
X030376Y022522D01*
X030385Y022534D01*
X030397Y022544D01*
X030411Y022551D01*
X030426Y022554D01*
X030442Y022553D01*
X030456Y022548D01*
X030470Y022540D01*
X030480Y022528D01*
X030488Y022515D01*
X030492Y022500D01*
X030492Y022484D01*
X030488Y022469D01*
X030480Y022456D01*
X030470Y022444D01*
X030456Y022436D01*
X030442Y022431D01*
X030426Y022430D01*
X030411Y022433D01*
X030397Y022440D01*
X030385Y022450D01*
X030376Y022462D01*
X030370Y022477D01*
X030368Y022492D01*
D15*
X030641Y026430D03*
X022344Y026555D03*
D16*
X043930Y014835D03*
D17*
X034172Y018741D02*
X034174Y018768D01*
X034180Y018795D01*
X034189Y018821D01*
X034202Y018845D01*
X034218Y018868D01*
X034237Y018887D01*
X034259Y018904D01*
X034283Y018918D01*
X034308Y018928D01*
X034335Y018935D01*
X034362Y018938D01*
X034390Y018937D01*
X034417Y018932D01*
X034443Y018924D01*
X034467Y018912D01*
X034490Y018896D01*
X034511Y018878D01*
X034528Y018857D01*
X034543Y018833D01*
X034554Y018808D01*
X034562Y018782D01*
X034566Y018755D01*
X034566Y018727D01*
X034562Y018700D01*
X034554Y018674D01*
X034543Y018649D01*
X034528Y018625D01*
X034511Y018604D01*
X034490Y018586D01*
X034468Y018570D01*
X034443Y018558D01*
X034417Y018550D01*
X034390Y018545D01*
X034362Y018544D01*
X034335Y018547D01*
X034308Y018554D01*
X034283Y018564D01*
X034259Y018578D01*
X034237Y018595D01*
X034218Y018614D01*
X034202Y018637D01*
X034189Y018661D01*
X034180Y018687D01*
X034174Y018714D01*
X034172Y018741D01*
M02*
