%
M48
M72
T01C0.0197
T02C0.0320
T03C0.0354
T04C0.0360
T05C0.0394
T06C0.0400
T07C0.0700
T08C0.1181
%
T01
X29430Y13930
X32680Y17680
X35430Y18680
X36430Y17680
X37430Y18680
X33430Y20680
X32430Y20680
X31430Y20680
X29680Y21680
X27805Y22055
X28180Y23930
X29680Y24680
X30930Y25180
X31930Y25180
X32930Y25180
X34430Y26680
X35680Y26180
X35680Y27180
X40180Y26180
X36180Y23430
X34680Y21430
X31430Y22680
X29680Y25680
X27369Y26119
X21805Y22430
X40680Y21680
X42930Y22555
X51180Y14430
X48430Y13680
X50680Y12430
X50180Y11930
X51430Y11930
X50304Y10304
X49556Y10304
X47930Y10930
X45680Y8430
X45680Y7680
X42930Y7180
X48680Y6930
T02
X3930Y22180
X2930Y21190
X2930Y23170
T03
X2430Y19680
X3430Y19680
X4430Y19680
X5430Y19680
X6430Y19680
X7430Y19680
X8430Y19680
X9430Y19680
X10430Y19680
X11430Y19680
X12430Y19680
X13430Y19680
X14430Y19680
X15430Y19680
X16430Y19680
X16430Y18680
X15430Y18680
X14430Y18680
X13430Y18680
X12430Y18680
X11430Y18680
X10430Y18680
X9430Y18680
X8430Y18680
X7430Y18680
X6430Y18680
X5430Y18680
X4430Y18680
X3430Y18680
X2430Y18680
X2430Y17680
X3430Y17680
X4430Y17680
X5430Y17680
X6430Y17680
X7430Y17680
X8430Y17680
X9430Y17680
X10430Y17680
X11430Y17680
X12430Y17680
X13430Y17680
X14430Y17680
X15430Y17680
X16430Y17680
X16430Y16680
X15430Y16680
X14430Y16680
X13430Y16680
X12430Y16680
X11430Y16680
X10430Y16680
X9430Y16680
X8430Y16680
X7430Y16680
X6430Y16680
X5430Y16680
X4430Y16680
X3430Y16680
X2430Y16680
X2430Y15680
X3430Y15680
X4430Y15680
X5430Y15680
X6430Y15680
X7430Y15680
X8430Y15680
X9430Y15680
X10430Y15680
X11430Y15680
X12430Y15680
X13430Y15680
X14430Y15680
X15430Y15680
X16430Y15680
X17430Y15680
X18430Y15680
X19430Y15680
X20430Y15680
X21430Y15680
X22430Y15680
X23430Y15680
X24430Y15680
X24430Y16680
X23430Y16680
X22430Y16680
X21430Y16680
X20430Y16680
X19430Y16680
X18430Y16680
X17430Y16680
X17430Y14680
X16430Y14680
X15430Y14680
X14430Y14680
X13430Y14680
X12430Y14680
X11430Y14680
X10430Y14680
X9430Y14680
X8430Y14680
X7430Y14680
X6430Y14680
X5430Y14680
X4430Y14680
X3430Y14680
X2430Y14680
X2430Y13680
X3430Y13680
X4430Y13680
X5430Y13680
X6430Y13680
X7430Y13680
X8430Y13680
X9430Y13680
X10430Y13680
X11430Y13680
X12430Y13680
X13430Y13680
X14430Y13680
X15430Y13680
X16430Y13680
X17430Y13680
X18430Y13680
X19430Y13680
X20430Y13680
X21430Y13680
X22430Y13680
X23430Y13680
X24430Y13680
X24430Y12680
X23430Y12680
X22430Y12680
X21430Y12680
X20430Y12680
X19430Y12680
X18430Y12680
X17430Y12680
X16430Y12680
X15430Y12680
X14430Y12680
X13430Y12680
X12430Y12680
X11430Y12680
X10430Y12680
X9430Y12680
X8430Y12680
X7430Y12680
X6430Y12680
X5430Y12680
X4430Y12680
X3430Y12680
X2430Y12680
X2430Y11680
X3430Y11680
X4430Y11680
X5430Y11680
X6430Y11680
X7430Y11680
X8430Y11680
X9430Y11680
X10430Y11680
X11430Y11680
X12430Y11680
X13430Y11680
X14430Y11680
X15430Y11680
X16430Y11680
X17430Y11680
X18430Y11680
X19430Y11680
X20430Y11680
X21430Y11680
X22430Y11680
X23430Y11680
X24430Y11680
X24430Y10680
X23430Y10680
X22430Y10680
X21430Y10680
X20430Y10680
X19430Y10680
X18430Y10680
X17430Y10680
X16430Y10680
X15430Y10680
X14430Y10680
X13430Y10680
X12430Y10680
X11430Y10680
X10430Y10680
X9430Y10680
X8430Y10680
X7430Y10680
X6430Y10680
X5430Y10680
X4430Y10680
X3430Y10680
X2430Y10680
X2430Y9680
X3430Y9680
X4430Y9680
X5430Y9680
X6430Y9680
X7430Y9680
X8430Y9680
X9430Y9680
X10430Y9680
X11430Y9680
X12430Y9680
X13430Y9680
X14430Y9680
X15430Y9680
X16430Y9680
X17430Y9680
X18430Y9680
X19430Y9680
X20430Y9680
X21430Y9680
X22430Y9680
X23430Y9680
X24430Y9680
X25430Y9680
X26430Y9680
X27430Y9680
X28430Y9680
X29430Y9680
X30430Y9680
X31430Y9680
X32430Y9680
X33430Y9680
X34430Y9680
X35430Y9680
X35430Y8680
X34430Y8680
X33430Y8680
X32430Y8680
X31430Y8680
X30430Y8680
X29430Y8680
X28430Y8680
X27430Y8680
X26430Y8680
X25430Y8680
X24430Y8680
X23430Y8680
X22430Y8680
X21430Y8680
X20430Y8680
X19430Y8680
X18430Y8680
X17430Y8680
X16430Y8680
X15430Y8680
X14430Y8680
X13430Y8680
X12430Y8680
X11430Y8680
X10430Y8680
X9430Y8680
X8430Y8680
X7430Y8680
X6430Y8680
X5430Y8680
X4430Y8680
X3430Y8680
X2430Y8680
X2430Y7680
X3430Y7680
X4430Y7680
X5430Y7680
X6430Y7680
X7430Y7680
X8430Y7680
X9430Y7680
X10430Y7680
X11430Y7680
X12430Y7680
X13430Y7680
X14430Y7680
X15430Y7680
X16430Y7680
X17430Y7680
X18430Y7680
X19430Y7680
X20430Y7680
X21430Y7680
X22430Y7680
X23430Y7680
X24430Y7680
X25430Y7680
X26430Y7680
X27430Y7680
X28430Y7680
X29430Y7680
X30430Y7680
X31430Y7680
X32430Y7680
X33430Y7680
X34430Y7680
X35430Y7680
X35430Y6680
X34430Y6680
X33430Y6680
X32430Y6680
X31430Y6680
X30430Y6680
X29430Y6680
X28430Y6680
X27430Y6680
X26430Y6680
X25430Y6680
X24430Y6680
X23430Y6680
X22430Y6680
X21430Y6680
X20430Y6680
X19430Y6680
X18430Y6680
X17430Y6680
X16430Y6680
X15430Y6680
X14430Y6680
X13430Y6680
X12430Y6680
X11430Y6680
X10430Y6680
X9430Y6680
X8430Y6680
X7430Y6680
X6430Y6680
X5430Y6680
X4430Y6680
X3430Y6680
X2430Y6680
X2430Y5680
X3430Y5680
X4430Y5680
X5430Y5680
X6430Y5680
X7430Y5680
X8430Y5680
X9430Y5680
X10430Y5680
X11430Y5680
X12430Y5680
X13430Y5680
X14430Y5680
X15430Y5680
X16430Y5680
X17430Y5680
X18430Y5680
X19430Y5680
X20430Y5680
X21430Y5680
X22430Y5680
X23430Y5680
X24430Y5680
X25430Y5680
X26430Y5680
X27430Y5680
X28430Y5680
X29430Y5680
X30430Y5680
X31430Y5680
X32430Y5680
X33430Y5680
X34430Y5680
X35430Y5680
X24430Y14680
X23430Y14680
X22430Y14680
X21430Y14680
X20430Y14680
X19430Y14680
X18430Y14680
T04
X52930Y12430
X53930Y12430
X53930Y11430
X52930Y11430
X52930Y10430
X53930Y10430
X53930Y9430
X52930Y9430
X52930Y8430
X53930Y8430
X53930Y7430
X52930Y7430
X52930Y6430
X53930Y6430
X53930Y5430
X52930Y5430
X52930Y4430
X53930Y4430
X53930Y3430
X52930Y3430
T05
X47164Y6727
X46180Y6727
X45196Y6727
X45196Y12436
X47164Y12436
T06
X20178Y24933
X19178Y24933
X18178Y24933
X17178Y24933
X16178Y24933
X15178Y24933
X14178Y24933
X13178Y24933
X12178Y24933
X11178Y24933
X10178Y24933
X9178Y24933
X8178Y24933
X7178Y24933
X6178Y24933
X5178Y24933
T07
X45680Y25930
X48180Y25930
X53180Y26550
X53180Y23850
X53180Y22300
X53180Y19600
X53180Y18050
X53180Y15350
X48180Y17430
X45680Y17430
X45680Y21680
X48180Y21680
T08
X2230Y3275
X38845Y3275
X38840Y24930
X2230Y24930
M30
