G75*
G70*
%OFA0B0*%
%FSLAX24Y24*%
%IPPOS*%
%LPD*%
%AMOC8*
5,1,8,0,0,1.08239X$1,22.5*
%
%ADD10C,0.0780*%
%ADD11C,0.1261*%
%ADD12C,0.0740*%
%ADD13OC8,0.0600*%
%ADD14C,0.0640*%
%ADD15OC8,0.0640*%
%ADD16C,0.1130*%
%ADD17C,0.0437*%
%ADD18C,0.0780*%
D10*
X005178Y024583D02*
X005178Y025283D01*
X006178Y025283D02*
X006178Y024583D01*
X007178Y024583D02*
X007178Y025283D01*
X008178Y025283D02*
X008178Y024583D01*
X009178Y024583D02*
X009178Y025283D01*
X010178Y025283D02*
X010178Y024583D01*
X011178Y024583D02*
X011178Y025283D01*
X012178Y025283D02*
X012178Y024583D01*
X013178Y024583D02*
X013178Y025283D01*
X014178Y025283D02*
X014178Y024583D01*
X015178Y024583D02*
X015178Y025283D01*
X016178Y025283D02*
X016178Y024583D01*
X017178Y024583D02*
X017178Y025283D01*
X018178Y025283D02*
X018178Y024583D01*
X019178Y024583D02*
X019178Y025283D01*
X020178Y025283D02*
X020178Y024583D01*
D11*
X002230Y003275D03*
X038845Y003275D03*
X038840Y024930D03*
X002230Y024930D03*
D12*
X045196Y012436D03*
X047164Y012436D03*
X047164Y006727D03*
X046180Y006727D03*
X045196Y006727D03*
D13*
X003930Y022180D03*
X002930Y021190D03*
X002930Y023170D03*
D14*
X052930Y012430D03*
D15*
X053930Y012430D03*
X053930Y011430D03*
X052930Y011430D03*
X052930Y010430D03*
X053930Y010430D03*
X053930Y009430D03*
X052930Y009430D03*
X052930Y008430D03*
X053930Y008430D03*
X053930Y007430D03*
X052930Y007430D03*
X052930Y006430D03*
X053930Y006430D03*
X053930Y005430D03*
X052930Y005430D03*
X052930Y004430D03*
X053930Y004430D03*
X053930Y003430D03*
X052930Y003430D03*
D16*
X053180Y015350D02*
X052130Y015350D01*
X048180Y016905D02*
X048180Y017955D01*
X045680Y017955D02*
X045680Y016905D01*
X052130Y018050D02*
X053180Y018050D01*
X053180Y019600D02*
X052130Y019600D01*
X048180Y021155D02*
X048180Y022205D01*
X045680Y022205D02*
X045680Y021155D01*
X052130Y022300D02*
X053180Y022300D01*
X053180Y023850D02*
X052130Y023850D01*
X048180Y025405D02*
X048180Y026455D01*
X045680Y026455D02*
X045680Y025405D01*
X052130Y026550D02*
X053180Y026550D01*
D17*
X042930Y022555D03*
X040680Y021680D03*
X036180Y023430D03*
X032930Y025180D03*
X031930Y025180D03*
X030930Y025180D03*
X029680Y024680D03*
X028180Y023930D03*
X029680Y025680D03*
X027369Y026119D03*
X031430Y022680D03*
X029680Y021680D03*
X031430Y020680D03*
X032430Y020680D03*
X033430Y020680D03*
X034680Y021430D03*
X035430Y018680D03*
X036430Y017680D03*
X037430Y018680D03*
X032680Y017680D03*
X029430Y013930D03*
X042930Y007180D03*
X045680Y007680D03*
X045680Y008430D03*
X048680Y006930D03*
X049556Y010304D03*
X050304Y010304D03*
X050180Y011930D03*
X050680Y012430D03*
X051430Y011930D03*
X048430Y013680D03*
X051180Y014430D03*
X047930Y010930D03*
X027805Y022055D03*
X021805Y022430D03*
X034430Y026680D03*
X035680Y026180D03*
X035680Y027180D03*
X040180Y026180D03*
D18*
X024430Y016680D03*
X023430Y016680D03*
X022430Y016680D03*
X021430Y016680D03*
X020430Y016680D03*
X019430Y016680D03*
X018430Y016680D03*
X017430Y016680D03*
X016430Y016680D03*
X015430Y016680D03*
X014430Y016680D03*
X013430Y016680D03*
X012430Y016680D03*
X011430Y016680D03*
X010430Y016680D03*
X009430Y016680D03*
X008430Y016680D03*
X007430Y016680D03*
X006430Y016680D03*
X005430Y016680D03*
X004430Y016680D03*
X003430Y016680D03*
X002430Y016680D03*
X002430Y015680D03*
X003430Y015680D03*
X004430Y015680D03*
X005430Y015680D03*
X006430Y015680D03*
X007430Y015680D03*
X008430Y015680D03*
X009430Y015680D03*
X010430Y015680D03*
X011430Y015680D03*
X012430Y015680D03*
X013430Y015680D03*
X014430Y015680D03*
X015430Y015680D03*
X016430Y015680D03*
X017430Y015680D03*
X018430Y015680D03*
X019430Y015680D03*
X020430Y015680D03*
X021430Y015680D03*
X022430Y015680D03*
X023430Y015680D03*
X024430Y015680D03*
X024430Y014680D03*
X023430Y014680D03*
X022430Y014680D03*
X021430Y014680D03*
X020430Y014680D03*
X019430Y014680D03*
X018430Y014680D03*
X017430Y014680D03*
X016430Y014680D03*
X015430Y014680D03*
X014430Y014680D03*
X013430Y014680D03*
X012430Y014680D03*
X011430Y014680D03*
X010430Y014680D03*
X009430Y014680D03*
X008430Y014680D03*
X007430Y014680D03*
X006430Y014680D03*
X005430Y014680D03*
X004430Y014680D03*
X003430Y014680D03*
X002430Y014680D03*
X002430Y013680D03*
X003430Y013680D03*
X004430Y013680D03*
X005430Y013680D03*
X006430Y013680D03*
X007430Y013680D03*
X008430Y013680D03*
X009430Y013680D03*
X010430Y013680D03*
X011430Y013680D03*
X012430Y013680D03*
X013430Y013680D03*
X014430Y013680D03*
X015430Y013680D03*
X016430Y013680D03*
X017430Y013680D03*
X018430Y013680D03*
X019430Y013680D03*
X020430Y013680D03*
X021430Y013680D03*
X022430Y013680D03*
X023430Y013680D03*
X024430Y013680D03*
X024430Y012680D03*
X023430Y012680D03*
X022430Y012680D03*
X021430Y012680D03*
X020430Y012680D03*
X019430Y012680D03*
X018430Y012680D03*
X017430Y012680D03*
X016430Y012680D03*
X015430Y012680D03*
X014430Y012680D03*
X013430Y012680D03*
X012430Y012680D03*
X011430Y012680D03*
X010430Y012680D03*
X009430Y012680D03*
X008430Y012680D03*
X007430Y012680D03*
X006430Y012680D03*
X005430Y012680D03*
X004430Y012680D03*
X003430Y012680D03*
X002430Y012680D03*
X002430Y011680D03*
X003430Y011680D03*
X004430Y011680D03*
X005430Y011680D03*
X006430Y011680D03*
X007430Y011680D03*
X008430Y011680D03*
X009430Y011680D03*
X010430Y011680D03*
X011430Y011680D03*
X012430Y011680D03*
X013430Y011680D03*
X014430Y011680D03*
X015430Y011680D03*
X016430Y011680D03*
X017430Y011680D03*
X018430Y011680D03*
X019430Y011680D03*
X020430Y011680D03*
X021430Y011680D03*
X022430Y011680D03*
X023430Y011680D03*
X024430Y011680D03*
X024430Y010680D03*
X023430Y010680D03*
X022430Y010680D03*
X021430Y010680D03*
X020430Y010680D03*
X019430Y010680D03*
X018430Y010680D03*
X017430Y010680D03*
X016430Y010680D03*
X015430Y010680D03*
X014430Y010680D03*
X013430Y010680D03*
X012430Y010680D03*
X011430Y010680D03*
X010430Y010680D03*
X009430Y010680D03*
X008430Y010680D03*
X007430Y010680D03*
X006430Y010680D03*
X005430Y010680D03*
X004430Y010680D03*
X003430Y010680D03*
X002430Y010680D03*
X002430Y009680D03*
X003430Y009680D03*
X004430Y009680D03*
X005430Y009680D03*
X006430Y009680D03*
X007430Y009680D03*
X008430Y009680D03*
X009430Y009680D03*
X010430Y009680D03*
X011430Y009680D03*
X012430Y009680D03*
X013430Y009680D03*
X014430Y009680D03*
X015430Y009680D03*
X016430Y009680D03*
X017430Y009680D03*
X018430Y009680D03*
X019430Y009680D03*
X020430Y009680D03*
X021430Y009680D03*
X022430Y009680D03*
X023430Y009680D03*
X024430Y009680D03*
X025430Y009680D03*
X026430Y009680D03*
X027430Y009680D03*
X028430Y009680D03*
X029430Y009680D03*
X030430Y009680D03*
X031430Y009680D03*
X032430Y009680D03*
X033430Y009680D03*
X034430Y009680D03*
X035430Y009680D03*
X035430Y008680D03*
X034430Y008680D03*
X033430Y008680D03*
X032430Y008680D03*
X031430Y008680D03*
X030430Y008680D03*
X029430Y008680D03*
X028430Y008680D03*
X027430Y008680D03*
X026430Y008680D03*
X025430Y008680D03*
X024430Y008680D03*
X023430Y008680D03*
X022430Y008680D03*
X021430Y008680D03*
X020430Y008680D03*
X019430Y008680D03*
X018430Y008680D03*
X017430Y008680D03*
X016430Y008680D03*
X015430Y008680D03*
X014430Y008680D03*
X013430Y008680D03*
X012430Y008680D03*
X011430Y008680D03*
X010430Y008680D03*
X009430Y008680D03*
X008430Y008680D03*
X007430Y008680D03*
X006430Y008680D03*
X005430Y008680D03*
X004430Y008680D03*
X003430Y008680D03*
X002430Y008680D03*
X002430Y007680D03*
X003430Y007680D03*
X004430Y007680D03*
X005430Y007680D03*
X006430Y007680D03*
X007430Y007680D03*
X008430Y007680D03*
X009430Y007680D03*
X010430Y007680D03*
X011430Y007680D03*
X012430Y007680D03*
X013430Y007680D03*
X014430Y007680D03*
X015430Y007680D03*
X016430Y007680D03*
X017430Y007680D03*
X018430Y007680D03*
X019430Y007680D03*
X020430Y007680D03*
X021430Y007680D03*
X022430Y007680D03*
X023430Y007680D03*
X024430Y007680D03*
X025430Y007680D03*
X026430Y007680D03*
X027430Y007680D03*
X028430Y007680D03*
X029430Y007680D03*
X030430Y007680D03*
X031430Y007680D03*
X032430Y007680D03*
X033430Y007680D03*
X034430Y007680D03*
X035430Y007680D03*
X035430Y006680D03*
X034430Y006680D03*
X033430Y006680D03*
X032430Y006680D03*
X031430Y006680D03*
X030430Y006680D03*
X029430Y006680D03*
X028430Y006680D03*
X027430Y006680D03*
X026430Y006680D03*
X025430Y006680D03*
X024430Y006680D03*
X023430Y006680D03*
X022430Y006680D03*
X021430Y006680D03*
X020430Y006680D03*
X019430Y006680D03*
X018430Y006680D03*
X017430Y006680D03*
X016430Y006680D03*
X015430Y006680D03*
X014430Y006680D03*
X013430Y006680D03*
X012430Y006680D03*
X011430Y006680D03*
X010430Y006680D03*
X009430Y006680D03*
X008430Y006680D03*
X007430Y006680D03*
X006430Y006680D03*
X005430Y006680D03*
X004430Y006680D03*
X003430Y006680D03*
X002430Y006680D03*
X002430Y005680D03*
X003430Y005680D03*
X004430Y005680D03*
X005430Y005680D03*
X006430Y005680D03*
X007430Y005680D03*
X008430Y005680D03*
X009430Y005680D03*
X010430Y005680D03*
X011430Y005680D03*
X012430Y005680D03*
X013430Y005680D03*
X014430Y005680D03*
X015430Y005680D03*
X016430Y005680D03*
X017430Y005680D03*
X018430Y005680D03*
X019430Y005680D03*
X020430Y005680D03*
X021430Y005680D03*
X022430Y005680D03*
X023430Y005680D03*
X024430Y005680D03*
X025430Y005680D03*
X026430Y005680D03*
X027430Y005680D03*
X028430Y005680D03*
X029430Y005680D03*
X030430Y005680D03*
X031430Y005680D03*
X032430Y005680D03*
X033430Y005680D03*
X034430Y005680D03*
X035430Y005680D03*
X016430Y017680D03*
X015430Y017680D03*
X014430Y017680D03*
X013430Y017680D03*
X012430Y017680D03*
X011430Y017680D03*
X010430Y017680D03*
X009430Y017680D03*
X008430Y017680D03*
X007430Y017680D03*
X006430Y017680D03*
X005430Y017680D03*
X004430Y017680D03*
X003430Y017680D03*
X002430Y017680D03*
X002430Y018680D03*
X003430Y018680D03*
X004430Y018680D03*
X005430Y018680D03*
X006430Y018680D03*
X007430Y018680D03*
X008430Y018680D03*
X009430Y018680D03*
X010430Y018680D03*
X011430Y018680D03*
X012430Y018680D03*
X013430Y018680D03*
X014430Y018680D03*
X015430Y018680D03*
X016430Y018680D03*
X016430Y019680D03*
X015430Y019680D03*
X014430Y019680D03*
X013430Y019680D03*
X012430Y019680D03*
X011430Y019680D03*
X010430Y019680D03*
X009430Y019680D03*
X008430Y019680D03*
X007430Y019680D03*
X006430Y019680D03*
X005430Y019680D03*
X004430Y019680D03*
X003430Y019680D03*
X002430Y019680D03*
M02*
