G75*
G70*
%OFA0B0*%
%FSLAX24Y24*%
%IPPOS*%
%LPD*%
%AMOC8*
5,1,8,0,0,1.08239X$1,22.5*
%
%ADD10C,0.0000*%
%ADD11C,0.0700*%
%ADD12C,0.0660*%
%ADD13R,0.0512X0.0630*%
%ADD14OC8,0.0520*%
%ADD15R,0.0315X0.0354*%
%ADD16C,0.0560*%
%ADD17OC8,0.0560*%
%ADD18R,0.0590X0.0790*%
%ADD19R,0.1500X0.0790*%
%ADD20R,0.0630X0.0512*%
%ADD21R,0.0260X0.0800*%
%ADD22R,0.0472X0.0472*%
%ADD23R,0.0472X0.0236*%
%ADD24R,0.0709X0.0551*%
%ADD25C,0.1050*%
%ADD26R,0.0700X0.0360*%
%ADD27R,0.1181X0.2362*%
%ADD28R,0.0276X0.0591*%
%ADD29R,0.0551X0.0748*%
%ADD30C,0.0160*%
%ADD31C,0.0357*%
%ADD32C,0.0240*%
%ADD33C,0.0200*%
%ADD34C,0.0700*%
D10*
X002430Y000680D02*
X054180Y000680D01*
X054275Y000682D01*
X054370Y000689D01*
X054465Y000700D01*
X054559Y000716D01*
X054652Y000736D01*
X054743Y000761D01*
X054834Y000790D01*
X054923Y000823D01*
X055011Y000861D01*
X055096Y000902D01*
X055180Y000948D01*
X055261Y000997D01*
X055340Y001051D01*
X055416Y001108D01*
X055490Y001169D01*
X055560Y001233D01*
X055627Y001300D01*
X055691Y001370D01*
X055752Y001444D01*
X055809Y001520D01*
X055863Y001599D01*
X055912Y001680D01*
X055958Y001764D01*
X055999Y001849D01*
X056037Y001937D01*
X056070Y002026D01*
X056099Y002117D01*
X056124Y002208D01*
X056144Y002301D01*
X056160Y002395D01*
X056171Y002490D01*
X056178Y002585D01*
X056180Y002680D01*
X056180Y026180D01*
X056178Y026275D01*
X056171Y026370D01*
X056160Y026465D01*
X056144Y026559D01*
X056124Y026652D01*
X056099Y026743D01*
X056070Y026834D01*
X056037Y026923D01*
X055999Y027011D01*
X055958Y027096D01*
X055912Y027180D01*
X055863Y027261D01*
X055809Y027340D01*
X055752Y027416D01*
X055691Y027490D01*
X055627Y027560D01*
X055560Y027627D01*
X055490Y027691D01*
X055416Y027752D01*
X055340Y027809D01*
X055261Y027863D01*
X055180Y027912D01*
X055096Y027958D01*
X055011Y027999D01*
X054923Y028037D01*
X054834Y028070D01*
X054743Y028099D01*
X054652Y028124D01*
X054559Y028144D01*
X054465Y028160D01*
X054370Y028171D01*
X054275Y028178D01*
X054180Y028180D01*
X002430Y028180D01*
X002335Y028178D01*
X002240Y028171D01*
X002145Y028160D01*
X002051Y028144D01*
X001958Y028124D01*
X001867Y028099D01*
X001776Y028070D01*
X001687Y028037D01*
X001599Y027999D01*
X001514Y027958D01*
X001430Y027912D01*
X001349Y027863D01*
X001270Y027809D01*
X001194Y027752D01*
X001120Y027691D01*
X001050Y027627D01*
X000983Y027560D01*
X000919Y027490D01*
X000858Y027416D01*
X000801Y027340D01*
X000747Y027261D01*
X000698Y027180D01*
X000652Y027096D01*
X000611Y027011D01*
X000573Y026923D01*
X000540Y026834D01*
X000511Y026743D01*
X000486Y026652D01*
X000466Y026559D01*
X000450Y026465D01*
X000439Y026370D01*
X000432Y026275D01*
X000430Y026180D01*
X000430Y002680D01*
X001639Y003275D02*
X001641Y003323D01*
X001647Y003371D01*
X001657Y003418D01*
X001670Y003464D01*
X001688Y003509D01*
X001708Y003553D01*
X001733Y003595D01*
X001761Y003634D01*
X001791Y003671D01*
X001825Y003705D01*
X001862Y003737D01*
X001900Y003766D01*
X001941Y003791D01*
X001984Y003813D01*
X002029Y003831D01*
X002075Y003845D01*
X002122Y003856D01*
X002170Y003863D01*
X002218Y003866D01*
X002266Y003865D01*
X002314Y003860D01*
X002362Y003851D01*
X002408Y003839D01*
X002453Y003822D01*
X002497Y003802D01*
X002539Y003779D01*
X002579Y003752D01*
X002617Y003722D01*
X002652Y003689D01*
X002684Y003653D01*
X002714Y003615D01*
X002740Y003574D01*
X002762Y003531D01*
X002782Y003487D01*
X002797Y003442D01*
X002809Y003395D01*
X002817Y003347D01*
X002821Y003299D01*
X002821Y003251D01*
X002817Y003203D01*
X002809Y003155D01*
X002797Y003108D01*
X002782Y003063D01*
X002762Y003019D01*
X002740Y002976D01*
X002714Y002935D01*
X002684Y002897D01*
X002652Y002861D01*
X002617Y002828D01*
X002579Y002798D01*
X002539Y002771D01*
X002497Y002748D01*
X002453Y002728D01*
X002408Y002711D01*
X002362Y002699D01*
X002314Y002690D01*
X002266Y002685D01*
X002218Y002684D01*
X002170Y002687D01*
X002122Y002694D01*
X002075Y002705D01*
X002029Y002719D01*
X001984Y002737D01*
X001941Y002759D01*
X001900Y002784D01*
X001862Y002813D01*
X001825Y002845D01*
X001791Y002879D01*
X001761Y002916D01*
X001733Y002955D01*
X001708Y002997D01*
X001688Y003041D01*
X001670Y003086D01*
X001657Y003132D01*
X001647Y003179D01*
X001641Y003227D01*
X001639Y003275D01*
X000430Y002680D02*
X000432Y002585D01*
X000439Y002490D01*
X000450Y002395D01*
X000466Y002301D01*
X000486Y002208D01*
X000511Y002117D01*
X000540Y002026D01*
X000573Y001937D01*
X000611Y001849D01*
X000652Y001764D01*
X000698Y001680D01*
X000747Y001599D01*
X000801Y001520D01*
X000858Y001444D01*
X000919Y001370D01*
X000983Y001300D01*
X001050Y001233D01*
X001120Y001169D01*
X001194Y001108D01*
X001270Y001051D01*
X001349Y000997D01*
X001430Y000948D01*
X001514Y000902D01*
X001599Y000861D01*
X001687Y000823D01*
X001776Y000790D01*
X001867Y000761D01*
X001958Y000736D01*
X002051Y000716D01*
X002145Y000700D01*
X002240Y000689D01*
X002335Y000682D01*
X002430Y000680D01*
X038254Y003275D02*
X038256Y003323D01*
X038262Y003371D01*
X038272Y003418D01*
X038285Y003464D01*
X038303Y003509D01*
X038323Y003553D01*
X038348Y003595D01*
X038376Y003634D01*
X038406Y003671D01*
X038440Y003705D01*
X038477Y003737D01*
X038515Y003766D01*
X038556Y003791D01*
X038599Y003813D01*
X038644Y003831D01*
X038690Y003845D01*
X038737Y003856D01*
X038785Y003863D01*
X038833Y003866D01*
X038881Y003865D01*
X038929Y003860D01*
X038977Y003851D01*
X039023Y003839D01*
X039068Y003822D01*
X039112Y003802D01*
X039154Y003779D01*
X039194Y003752D01*
X039232Y003722D01*
X039267Y003689D01*
X039299Y003653D01*
X039329Y003615D01*
X039355Y003574D01*
X039377Y003531D01*
X039397Y003487D01*
X039412Y003442D01*
X039424Y003395D01*
X039432Y003347D01*
X039436Y003299D01*
X039436Y003251D01*
X039432Y003203D01*
X039424Y003155D01*
X039412Y003108D01*
X039397Y003063D01*
X039377Y003019D01*
X039355Y002976D01*
X039329Y002935D01*
X039299Y002897D01*
X039267Y002861D01*
X039232Y002828D01*
X039194Y002798D01*
X039154Y002771D01*
X039112Y002748D01*
X039068Y002728D01*
X039023Y002711D01*
X038977Y002699D01*
X038929Y002690D01*
X038881Y002685D01*
X038833Y002684D01*
X038785Y002687D01*
X038737Y002694D01*
X038690Y002705D01*
X038644Y002719D01*
X038599Y002737D01*
X038556Y002759D01*
X038515Y002784D01*
X038477Y002813D01*
X038440Y002845D01*
X038406Y002879D01*
X038376Y002916D01*
X038348Y002955D01*
X038323Y002997D01*
X038303Y003041D01*
X038285Y003086D01*
X038272Y003132D01*
X038262Y003179D01*
X038256Y003227D01*
X038254Y003275D01*
X038249Y024930D02*
X038251Y024978D01*
X038257Y025026D01*
X038267Y025073D01*
X038280Y025119D01*
X038298Y025164D01*
X038318Y025208D01*
X038343Y025250D01*
X038371Y025289D01*
X038401Y025326D01*
X038435Y025360D01*
X038472Y025392D01*
X038510Y025421D01*
X038551Y025446D01*
X038594Y025468D01*
X038639Y025486D01*
X038685Y025500D01*
X038732Y025511D01*
X038780Y025518D01*
X038828Y025521D01*
X038876Y025520D01*
X038924Y025515D01*
X038972Y025506D01*
X039018Y025494D01*
X039063Y025477D01*
X039107Y025457D01*
X039149Y025434D01*
X039189Y025407D01*
X039227Y025377D01*
X039262Y025344D01*
X039294Y025308D01*
X039324Y025270D01*
X039350Y025229D01*
X039372Y025186D01*
X039392Y025142D01*
X039407Y025097D01*
X039419Y025050D01*
X039427Y025002D01*
X039431Y024954D01*
X039431Y024906D01*
X039427Y024858D01*
X039419Y024810D01*
X039407Y024763D01*
X039392Y024718D01*
X039372Y024674D01*
X039350Y024631D01*
X039324Y024590D01*
X039294Y024552D01*
X039262Y024516D01*
X039227Y024483D01*
X039189Y024453D01*
X039149Y024426D01*
X039107Y024403D01*
X039063Y024383D01*
X039018Y024366D01*
X038972Y024354D01*
X038924Y024345D01*
X038876Y024340D01*
X038828Y024339D01*
X038780Y024342D01*
X038732Y024349D01*
X038685Y024360D01*
X038639Y024374D01*
X038594Y024392D01*
X038551Y024414D01*
X038510Y024439D01*
X038472Y024468D01*
X038435Y024500D01*
X038401Y024534D01*
X038371Y024571D01*
X038343Y024610D01*
X038318Y024652D01*
X038298Y024696D01*
X038280Y024741D01*
X038267Y024787D01*
X038257Y024834D01*
X038251Y024882D01*
X038249Y024930D01*
X001639Y024930D02*
X001641Y024978D01*
X001647Y025026D01*
X001657Y025073D01*
X001670Y025119D01*
X001688Y025164D01*
X001708Y025208D01*
X001733Y025250D01*
X001761Y025289D01*
X001791Y025326D01*
X001825Y025360D01*
X001862Y025392D01*
X001900Y025421D01*
X001941Y025446D01*
X001984Y025468D01*
X002029Y025486D01*
X002075Y025500D01*
X002122Y025511D01*
X002170Y025518D01*
X002218Y025521D01*
X002266Y025520D01*
X002314Y025515D01*
X002362Y025506D01*
X002408Y025494D01*
X002453Y025477D01*
X002497Y025457D01*
X002539Y025434D01*
X002579Y025407D01*
X002617Y025377D01*
X002652Y025344D01*
X002684Y025308D01*
X002714Y025270D01*
X002740Y025229D01*
X002762Y025186D01*
X002782Y025142D01*
X002797Y025097D01*
X002809Y025050D01*
X002817Y025002D01*
X002821Y024954D01*
X002821Y024906D01*
X002817Y024858D01*
X002809Y024810D01*
X002797Y024763D01*
X002782Y024718D01*
X002762Y024674D01*
X002740Y024631D01*
X002714Y024590D01*
X002684Y024552D01*
X002652Y024516D01*
X002617Y024483D01*
X002579Y024453D01*
X002539Y024426D01*
X002497Y024403D01*
X002453Y024383D01*
X002408Y024366D01*
X002362Y024354D01*
X002314Y024345D01*
X002266Y024340D01*
X002218Y024339D01*
X002170Y024342D01*
X002122Y024349D01*
X002075Y024360D01*
X002029Y024374D01*
X001984Y024392D01*
X001941Y024414D01*
X001900Y024439D01*
X001862Y024468D01*
X001825Y024500D01*
X001791Y024534D01*
X001761Y024571D01*
X001733Y024610D01*
X001708Y024652D01*
X001688Y024696D01*
X001670Y024741D01*
X001657Y024787D01*
X001647Y024834D01*
X001641Y024882D01*
X001639Y024930D01*
D11*
X005178Y024583D02*
X005178Y025283D01*
X006178Y025283D02*
X006178Y024583D01*
X007178Y024583D02*
X007178Y025283D01*
X008178Y025283D02*
X008178Y024583D01*
X009178Y024583D02*
X009178Y025283D01*
X010178Y025283D02*
X010178Y024583D01*
X011178Y024583D02*
X011178Y025283D01*
X012178Y025283D02*
X012178Y024583D01*
X013178Y024583D02*
X013178Y025283D01*
X014178Y025283D02*
X014178Y024583D01*
X015178Y024583D02*
X015178Y025283D01*
X016178Y025283D02*
X016178Y024583D01*
X017178Y024583D02*
X017178Y025283D01*
X018178Y025283D02*
X018178Y024583D01*
X019178Y024583D02*
X019178Y025283D01*
X020178Y025283D02*
X020178Y024583D01*
D12*
X045196Y012436D03*
X047164Y012436D03*
X047164Y006727D03*
X046180Y006727D03*
X045196Y006727D03*
D13*
X049556Y006930D03*
X050304Y006930D03*
X050304Y008180D03*
X049556Y008180D03*
X049556Y009430D03*
X050304Y009430D03*
X032054Y015430D03*
X031306Y015430D03*
X030179Y014930D03*
X029431Y014930D03*
X029431Y016180D03*
X030179Y016180D03*
X030199Y017680D03*
X029411Y017680D03*
X031306Y018430D03*
X032054Y018430D03*
X030324Y020430D03*
X029536Y020430D03*
X034306Y020680D03*
X035054Y020680D03*
X043036Y019305D03*
X043824Y019305D03*
X043824Y024430D03*
X043036Y024430D03*
X032804Y026430D03*
X032056Y026430D03*
X022179Y024930D03*
X021431Y024930D03*
X020929Y026555D03*
X020181Y026555D03*
X020056Y023180D03*
X020804Y023180D03*
D14*
X003930Y022180D03*
X002930Y021190D03*
X002930Y023170D03*
D15*
X021806Y023161D03*
X022554Y023161D03*
X022180Y023988D03*
D16*
X052930Y012430D03*
D17*
X053930Y012430D03*
X053930Y011430D03*
X052930Y011430D03*
X052930Y010430D03*
X053930Y010430D03*
X053930Y009430D03*
X052930Y009430D03*
X052930Y008430D03*
X053930Y008430D03*
X053930Y007430D03*
X052930Y007430D03*
X052930Y006430D03*
X053930Y006430D03*
X053930Y005430D03*
X052930Y005430D03*
X052930Y004430D03*
X053930Y004430D03*
X053930Y003430D03*
X052930Y003430D03*
D18*
X037090Y022440D03*
X036190Y022440D03*
X035290Y022440D03*
D19*
X036180Y024920D03*
D20*
X036180Y021324D03*
X037180Y021324D03*
X037180Y020536D03*
X036180Y020536D03*
X041930Y020054D03*
X041930Y019306D03*
X050180Y013929D03*
X050180Y013181D03*
D21*
X033930Y021720D03*
X033430Y021720D03*
X032930Y021720D03*
X032430Y021720D03*
X031930Y021720D03*
X031430Y021720D03*
X030930Y021720D03*
X030430Y021720D03*
X030430Y024140D03*
X030930Y024140D03*
X031430Y024140D03*
X031930Y024140D03*
X032430Y024140D03*
X032930Y024140D03*
X033430Y024140D03*
X033930Y024140D03*
D22*
X031093Y026430D03*
X030267Y026430D03*
X022718Y026555D03*
X021892Y026555D03*
D23*
X031166Y017304D03*
X031166Y016930D03*
X031166Y016556D03*
X032194Y016556D03*
X032194Y017304D03*
D24*
X028393Y021353D03*
X026030Y021353D03*
X043930Y015724D03*
X043930Y014386D03*
D25*
X045680Y016905D02*
X045680Y017955D01*
X048180Y017955D02*
X048180Y016905D01*
X052130Y018050D02*
X053180Y018050D01*
X053180Y019600D02*
X052130Y019600D01*
X048180Y021155D02*
X048180Y022205D01*
X045680Y022205D02*
X045680Y021155D01*
X052130Y022300D02*
X053180Y022300D01*
X053180Y023850D02*
X052130Y023850D01*
X048180Y025405D02*
X048180Y026455D01*
X045680Y026455D02*
X045680Y025405D01*
X052130Y026550D02*
X053180Y026550D01*
X053180Y015350D02*
X052130Y015350D01*
D26*
X043780Y016930D03*
X043780Y017430D03*
X043780Y017930D03*
X043780Y018430D03*
X041580Y018430D03*
X041580Y017930D03*
X041580Y017430D03*
X041580Y016930D03*
X041580Y021180D03*
X041580Y021680D03*
X041580Y022180D03*
X041580Y022680D03*
X043780Y022680D03*
X043780Y022180D03*
X043780Y021680D03*
X043780Y021180D03*
X043780Y025430D03*
X043780Y025930D03*
X043780Y026430D03*
X043780Y026930D03*
X041580Y026930D03*
X041580Y026430D03*
X041580Y025930D03*
X041580Y025430D03*
D27*
X038542Y016930D03*
X033818Y016930D03*
D28*
X026070Y025211D03*
X026503Y025369D03*
X026936Y025526D03*
X027369Y025369D03*
X027802Y025526D03*
X028235Y025369D03*
X028668Y025369D03*
X025637Y025369D03*
D29*
X023826Y026865D03*
X029023Y026511D03*
D30*
X002260Y001170D02*
X001928Y001245D01*
X001621Y001393D01*
X001355Y001605D01*
X001143Y001871D01*
X000995Y002178D01*
X000920Y002510D01*
X000910Y002680D01*
X000910Y026180D01*
X000920Y026350D01*
X000995Y026682D01*
X001143Y026989D01*
X001355Y027255D01*
X001621Y027467D01*
X001928Y027615D01*
X002260Y027690D01*
X002430Y027700D01*
X054180Y027700D01*
X054350Y027690D01*
X054682Y027615D01*
X054989Y027467D01*
X055255Y027255D01*
X055467Y026989D01*
X055615Y026682D01*
X055690Y026350D01*
X055700Y026180D01*
X055700Y002775D01*
X055700Y002680D01*
X055690Y002510D01*
X055615Y002178D01*
X055467Y001871D01*
X055255Y001605D01*
X054989Y001393D01*
X054682Y001245D01*
X054350Y001170D01*
X054180Y001160D01*
X002430Y001160D01*
X002260Y001170D01*
X001785Y001314D02*
X054825Y001314D01*
X055088Y001473D02*
X001522Y001473D01*
X001335Y001631D02*
X055275Y001631D01*
X055402Y001790D02*
X001208Y001790D01*
X001106Y001948D02*
X055504Y001948D01*
X055580Y002107D02*
X001030Y002107D01*
X000975Y002265D02*
X001863Y002265D01*
X001817Y002277D02*
X002089Y002204D01*
X002371Y002204D01*
X002643Y002277D01*
X002887Y002418D01*
X003087Y002618D01*
X003228Y002862D01*
X003301Y003134D01*
X003301Y003416D01*
X003228Y003688D01*
X003087Y003932D01*
X002887Y004132D01*
X002643Y004273D01*
X002371Y004346D01*
X002089Y004346D01*
X001817Y004273D01*
X001573Y004132D01*
X001373Y003932D01*
X001232Y003688D01*
X001159Y003416D01*
X001159Y003134D01*
X001232Y002862D01*
X001373Y002618D01*
X001573Y002418D01*
X001817Y002277D01*
X001568Y002424D02*
X000939Y002424D01*
X000916Y002582D02*
X001409Y002582D01*
X001302Y002741D02*
X000910Y002741D01*
X000910Y002899D02*
X001222Y002899D01*
X001180Y003058D02*
X000910Y003058D01*
X000910Y003216D02*
X001159Y003216D01*
X001159Y003375D02*
X000910Y003375D01*
X000910Y003533D02*
X001191Y003533D01*
X001234Y003692D02*
X000910Y003692D01*
X000910Y003850D02*
X001326Y003850D01*
X001450Y004009D02*
X000910Y004009D01*
X000910Y004167D02*
X001634Y004167D01*
X002014Y004326D02*
X000910Y004326D01*
X000910Y004484D02*
X039372Y004484D01*
X039375Y004476D02*
X040625Y003226D01*
X040726Y003125D01*
X040858Y003070D01*
X052555Y003070D01*
X052715Y002910D01*
X053145Y002910D01*
X053430Y003195D01*
X053715Y002910D01*
X054145Y002910D01*
X054450Y003215D01*
X054450Y003645D01*
X054165Y003930D01*
X054450Y004215D01*
X054450Y004497D01*
X055201Y005249D01*
X055250Y005366D01*
X055250Y015494D01*
X055201Y015611D01*
X055111Y015701D01*
X054111Y016701D01*
X053994Y016750D01*
X051116Y016750D01*
X050999Y016701D01*
X050909Y016611D01*
X049003Y014706D01*
X044524Y014706D01*
X044524Y014709D01*
X044488Y014797D01*
X044420Y014865D01*
X044332Y014901D01*
X043528Y014901D01*
X043440Y014865D01*
X043372Y014797D01*
X043336Y014709D01*
X043336Y014062D01*
X043362Y014000D01*
X043063Y014000D01*
X042750Y014313D01*
X042750Y015782D01*
X043079Y015453D01*
X043197Y015404D01*
X043336Y015404D01*
X043336Y015401D01*
X043372Y015313D01*
X043440Y015245D01*
X043528Y015209D01*
X044332Y015209D01*
X044420Y015245D01*
X044488Y015313D01*
X044524Y015401D01*
X044524Y016048D01*
X044488Y016136D01*
X044420Y016203D01*
X044332Y016240D01*
X043528Y016240D01*
X043440Y016203D01*
X043372Y016136D01*
X043352Y016086D01*
X043250Y016188D01*
X043250Y017091D01*
X043250Y017091D01*
X043250Y016940D01*
X043770Y016940D01*
X043770Y016920D01*
X043790Y016920D01*
X043790Y016940D01*
X044310Y016940D01*
X044310Y017091D01*
X044329Y017110D01*
X044915Y017110D01*
X044915Y016753D01*
X045031Y016472D01*
X045247Y016256D01*
X045528Y016140D01*
X045832Y016140D01*
X046113Y016256D01*
X046329Y016472D01*
X046445Y016753D01*
X046445Y018107D01*
X046340Y018360D01*
X046797Y018360D01*
X047415Y017742D01*
X047415Y016753D01*
X047531Y016472D01*
X047747Y016256D01*
X048028Y016140D01*
X048332Y016140D01*
X048613Y016256D01*
X048829Y016472D01*
X048945Y016753D01*
X048945Y018107D01*
X048829Y018388D01*
X048613Y018604D01*
X048332Y018720D01*
X048028Y018720D01*
X047747Y018604D01*
X047603Y018460D01*
X047111Y018951D01*
X046994Y019000D01*
X045116Y019000D01*
X044999Y018951D01*
X044909Y018861D01*
X044370Y018323D01*
X044370Y018658D01*
X044333Y018746D01*
X044266Y018813D01*
X044189Y018845D01*
X044190Y018846D01*
X044224Y018880D01*
X044247Y018921D01*
X044260Y018966D01*
X044260Y019257D01*
X043872Y019257D01*
X043872Y019353D01*
X044260Y019353D01*
X044260Y019644D01*
X044247Y019689D01*
X044224Y019730D01*
X044190Y019764D01*
X044149Y019788D01*
X044103Y019800D01*
X043872Y019800D01*
X043872Y019353D01*
X043776Y019353D01*
X043776Y019800D01*
X043544Y019800D01*
X043498Y019788D01*
X043476Y019775D01*
X043428Y019823D01*
X043356Y019853D01*
X043356Y020012D01*
X043308Y020130D01*
X043250Y020188D01*
X043250Y021341D01*
X043250Y021341D01*
X043250Y021190D01*
X043770Y021190D01*
X043770Y021170D01*
X043790Y021170D01*
X043790Y021190D01*
X044310Y021190D01*
X044310Y021341D01*
X044329Y021360D01*
X044915Y021360D01*
X044915Y021003D01*
X045031Y020722D01*
X045247Y020506D01*
X045528Y020390D01*
X045832Y020390D01*
X046113Y020506D01*
X046329Y020722D01*
X046445Y021003D01*
X046445Y022357D01*
X046340Y022610D01*
X046797Y022610D01*
X047415Y021992D01*
X047415Y021003D01*
X047531Y020722D01*
X047747Y020506D01*
X048028Y020390D01*
X048332Y020390D01*
X048613Y020506D01*
X048829Y020722D01*
X048945Y021003D01*
X048945Y022357D01*
X048829Y022638D01*
X048613Y022854D01*
X048332Y022970D01*
X048028Y022970D01*
X047747Y022854D01*
X047603Y022710D01*
X047111Y023201D01*
X046994Y023250D01*
X045116Y023250D01*
X044999Y023201D01*
X044909Y023111D01*
X044370Y022573D01*
X044370Y022908D01*
X044333Y022996D01*
X044266Y023063D01*
X044178Y023100D01*
X043382Y023100D01*
X043294Y023063D01*
X043250Y023019D01*
X043250Y023875D01*
X043340Y023875D01*
X043428Y023912D01*
X043476Y023960D01*
X043498Y023947D01*
X043544Y023935D01*
X043776Y023935D01*
X043776Y024382D01*
X043872Y024382D01*
X043872Y024478D01*
X044260Y024478D01*
X044260Y024769D01*
X044247Y024814D01*
X044224Y024855D01*
X044190Y024889D01*
X044149Y024913D01*
X044103Y024925D01*
X043872Y024925D01*
X043872Y024478D01*
X043776Y024478D01*
X043776Y024925D01*
X043544Y024925D01*
X043498Y024913D01*
X043476Y024900D01*
X043428Y024948D01*
X043340Y024985D01*
X043250Y024985D01*
X043250Y025591D01*
X043250Y025591D01*
X043250Y025440D01*
X043770Y025440D01*
X043770Y025420D01*
X043790Y025420D01*
X043790Y025440D01*
X044310Y025440D01*
X044310Y025591D01*
X044329Y025610D01*
X044915Y025610D01*
X044915Y025253D01*
X045031Y024972D01*
X045247Y024756D01*
X045528Y024640D01*
X045832Y024640D01*
X046113Y024756D01*
X046329Y024972D01*
X046445Y025253D01*
X046445Y026607D01*
X046340Y026860D01*
X046797Y026860D01*
X047415Y026242D01*
X047415Y025253D01*
X047531Y024972D01*
X047747Y024756D01*
X048028Y024640D01*
X048332Y024640D01*
X048613Y024756D01*
X048829Y024972D01*
X048945Y025253D01*
X048945Y026607D01*
X048829Y026888D01*
X048613Y027104D01*
X048332Y027220D01*
X048028Y027220D01*
X047747Y027104D01*
X047603Y026960D01*
X047111Y027451D01*
X046994Y027500D01*
X045116Y027500D01*
X044999Y027451D01*
X044909Y027361D01*
X044370Y026823D01*
X044370Y027158D01*
X044333Y027246D01*
X044266Y027313D01*
X044178Y027350D01*
X043382Y027350D01*
X043294Y027313D01*
X043231Y027250D01*
X043116Y027250D01*
X042999Y027201D01*
X042749Y026951D01*
X042680Y026883D01*
X042611Y026951D01*
X042361Y027201D01*
X042244Y027250D01*
X042129Y027250D01*
X042066Y027313D01*
X041978Y027350D01*
X041182Y027350D01*
X041094Y027313D01*
X041047Y027266D01*
X040861Y027451D01*
X040744Y027500D01*
X035952Y027500D01*
X035917Y027535D01*
X035763Y027598D01*
X035597Y027598D01*
X035443Y027535D01*
X035325Y027417D01*
X035262Y027263D01*
X035262Y027097D01*
X035302Y027000D01*
X034702Y027000D01*
X034667Y027035D01*
X034513Y027098D01*
X034347Y027098D01*
X034193Y027035D01*
X034075Y026917D01*
X034023Y026790D01*
X033361Y027451D01*
X033244Y027500D01*
X030366Y027500D01*
X030249Y027451D01*
X030223Y027426D01*
X030198Y027451D01*
X030080Y027500D01*
X026366Y027500D01*
X026249Y027451D01*
X025798Y027001D01*
X025750Y026883D01*
X025750Y025904D01*
X025451Y025904D01*
X025363Y025868D01*
X025295Y025800D01*
X025259Y025712D01*
X025259Y025026D01*
X025295Y024938D01*
X025363Y024870D01*
X025451Y024834D01*
X025706Y024834D01*
X025729Y024780D01*
X025796Y024713D01*
X025884Y024676D01*
X026183Y024676D01*
X026183Y023044D01*
X026232Y022926D01*
X026322Y022836D01*
X026659Y022499D01*
X026749Y022409D01*
X026866Y022360D01*
X030547Y022360D01*
X030547Y022360D01*
X030252Y022360D01*
X030164Y022323D01*
X030097Y022256D01*
X030060Y022168D01*
X030060Y022000D01*
X029952Y022000D01*
X029917Y022035D01*
X029763Y022098D01*
X029597Y022098D01*
X029443Y022035D01*
X029325Y021917D01*
X029262Y021763D01*
X029262Y021597D01*
X029325Y021443D01*
X029443Y021325D01*
X029597Y021262D01*
X029763Y021262D01*
X029917Y021325D01*
X029952Y021360D01*
X030060Y021360D01*
X030060Y021272D01*
X030090Y021200D01*
X030090Y020985D01*
X030020Y020985D01*
X029932Y020948D01*
X029884Y020900D01*
X029862Y020913D01*
X029816Y020925D01*
X029584Y020925D01*
X029584Y020478D01*
X029488Y020478D01*
X029488Y020382D01*
X029100Y020382D01*
X029100Y020091D01*
X029113Y020046D01*
X029136Y020005D01*
X029141Y020000D01*
X029119Y020000D01*
X028281Y020838D01*
X028795Y020838D01*
X028883Y020874D01*
X028950Y020942D01*
X028987Y021030D01*
X028987Y021677D01*
X028950Y021765D01*
X028883Y021832D01*
X028795Y021869D01*
X027991Y021869D01*
X027902Y021832D01*
X027835Y021765D01*
X027798Y021677D01*
X027798Y021321D01*
X026634Y022485D01*
X026502Y022540D01*
X025608Y022540D01*
X025476Y022485D01*
X025375Y022384D01*
X025031Y022040D01*
X021957Y022040D01*
X022042Y022075D01*
X022160Y022193D01*
X022223Y022347D01*
X022223Y022513D01*
X022166Y022652D01*
X022166Y022847D01*
X022167Y022848D01*
X022203Y022936D01*
X022203Y023386D01*
X022167Y023474D01*
X022099Y023542D01*
X022029Y023571D01*
X022385Y023571D01*
X022473Y023607D01*
X022541Y023675D01*
X022577Y023763D01*
X022577Y024213D01*
X022541Y024301D01*
X022539Y024303D01*
X022539Y024398D01*
X022571Y024412D01*
X022638Y024479D01*
X022675Y024567D01*
X022675Y025293D01*
X022638Y025381D01*
X022571Y025448D01*
X022483Y025485D01*
X021875Y025485D01*
X021805Y025456D01*
X021735Y025485D01*
X021127Y025485D01*
X021039Y025448D01*
X020972Y025381D01*
X020935Y025293D01*
X020768Y025293D01*
X020768Y025400D01*
X020678Y025617D01*
X020512Y025783D01*
X020295Y025873D01*
X020061Y025873D01*
X019844Y025783D01*
X019678Y025617D01*
X019540Y025755D01*
X019540Y025906D01*
X019730Y026096D01*
X019789Y026037D01*
X019877Y026000D01*
X020485Y026000D01*
X020555Y026029D01*
X020625Y026000D01*
X021233Y026000D01*
X021321Y026037D01*
X021388Y026104D01*
X021425Y026192D01*
X021425Y026195D01*
X021447Y026195D01*
X021452Y026183D01*
X021519Y026115D01*
X021608Y026079D01*
X022176Y026079D01*
X022264Y026115D01*
X022331Y026183D01*
X022341Y026206D01*
X022372Y026175D01*
X022413Y026151D01*
X022458Y026139D01*
X022680Y026139D01*
X022680Y026517D01*
X022756Y026517D01*
X022756Y026139D01*
X022978Y026139D01*
X023024Y026151D01*
X023065Y026175D01*
X023099Y026208D01*
X023122Y026249D01*
X023135Y026295D01*
X023135Y026517D01*
X022757Y026517D01*
X022757Y026593D01*
X023135Y026593D01*
X023135Y026815D01*
X023122Y026861D01*
X023099Y026902D01*
X023065Y026935D01*
X023024Y026959D01*
X022978Y026971D01*
X022756Y026971D01*
X022756Y026593D01*
X022680Y026593D01*
X022680Y026971D01*
X022458Y026971D01*
X022413Y026959D01*
X022372Y026935D01*
X022341Y026904D01*
X022331Y026927D01*
X022264Y026995D01*
X022176Y027031D01*
X021608Y027031D01*
X021519Y026995D01*
X021452Y026927D01*
X021447Y026915D01*
X021425Y026915D01*
X021425Y026918D01*
X021388Y027006D01*
X021321Y027073D01*
X021233Y027110D01*
X020625Y027110D01*
X020555Y027081D01*
X020485Y027110D01*
X019877Y027110D01*
X019789Y027073D01*
X019722Y027006D01*
X019685Y026918D01*
X019685Y026915D01*
X019608Y026915D01*
X019476Y026860D01*
X018976Y026360D01*
X018875Y026259D01*
X018820Y026127D01*
X018820Y025759D01*
X018678Y025617D01*
X018512Y025783D01*
X018295Y025873D01*
X018061Y025873D01*
X017844Y025783D01*
X017678Y025617D01*
X017512Y025783D01*
X017295Y025873D01*
X017061Y025873D01*
X016844Y025783D01*
X016678Y025617D01*
X016512Y025783D01*
X016295Y025873D01*
X016061Y025873D01*
X015844Y025783D01*
X015678Y025617D01*
X015512Y025783D01*
X015295Y025873D01*
X015061Y025873D01*
X014844Y025783D01*
X014678Y025617D01*
X014512Y025783D01*
X014295Y025873D01*
X014061Y025873D01*
X013844Y025783D01*
X013678Y025617D01*
X013512Y025783D01*
X013295Y025873D01*
X013061Y025873D01*
X012844Y025783D01*
X012678Y025617D01*
X012512Y025783D01*
X012295Y025873D01*
X012061Y025873D01*
X011844Y025783D01*
X011678Y025617D01*
X011512Y025783D01*
X011295Y025873D01*
X011061Y025873D01*
X010844Y025783D01*
X010678Y025617D01*
X010512Y025783D01*
X010295Y025873D01*
X010061Y025873D01*
X009844Y025783D01*
X009678Y025617D01*
X009644Y025536D01*
X009631Y025561D01*
X009582Y025628D01*
X009523Y025687D01*
X009456Y025736D01*
X009382Y025774D01*
X009302Y025800D01*
X009220Y025813D01*
X009198Y025813D01*
X009198Y024953D01*
X009158Y024953D01*
X009158Y025813D01*
X009136Y025813D01*
X009054Y025800D01*
X008975Y025774D01*
X008900Y025736D01*
X008833Y025687D01*
X008774Y025628D01*
X008725Y025561D01*
X008712Y025536D01*
X008678Y025617D01*
X008512Y025783D01*
X008295Y025873D01*
X008061Y025873D01*
X007844Y025783D01*
X007678Y025617D01*
X007512Y025783D01*
X007295Y025873D01*
X007061Y025873D01*
X006844Y025783D01*
X006678Y025617D01*
X006512Y025783D01*
X006295Y025873D01*
X006061Y025873D01*
X005844Y025783D01*
X005678Y025617D01*
X005644Y025536D01*
X005631Y025561D01*
X005582Y025628D01*
X005523Y025687D01*
X005456Y025736D01*
X005382Y025774D01*
X005302Y025800D01*
X005220Y025813D01*
X005198Y025813D01*
X005198Y024953D01*
X005158Y024953D01*
X005158Y025813D01*
X005136Y025813D01*
X005054Y025800D01*
X004975Y025774D01*
X004900Y025736D01*
X004833Y025687D01*
X004774Y025628D01*
X004725Y025561D01*
X004687Y025486D01*
X004661Y025407D01*
X004648Y025325D01*
X004648Y024953D01*
X005158Y024953D01*
X005158Y024913D01*
X004648Y024913D01*
X004648Y024541D01*
X004661Y024459D01*
X004687Y024379D01*
X004725Y024305D01*
X004774Y024238D01*
X004833Y024179D01*
X004900Y024129D01*
X004975Y024092D01*
X005054Y024066D01*
X005136Y024053D01*
X005158Y024053D01*
X005158Y024913D01*
X005198Y024913D01*
X005198Y024053D01*
X005220Y024053D01*
X005302Y024066D01*
X005382Y024092D01*
X005456Y024129D01*
X005523Y024179D01*
X005582Y024238D01*
X005631Y024305D01*
X005644Y024330D01*
X005678Y024249D01*
X005820Y024106D01*
X005820Y023829D01*
X005531Y023540D01*
X003267Y023540D01*
X003137Y023670D01*
X002723Y023670D01*
X002430Y023377D01*
X002430Y022963D01*
X002723Y022670D01*
X003137Y022670D01*
X003277Y022810D01*
X005742Y022810D01*
X005874Y022865D01*
X005975Y022966D01*
X005985Y022976D01*
X006384Y023375D01*
X006485Y023476D01*
X006540Y023608D01*
X006540Y024110D01*
X006678Y024248D01*
X006820Y024106D01*
X006820Y022829D01*
X006531Y022540D01*
X004277Y022540D01*
X004137Y022680D01*
X003723Y022680D01*
X003430Y022387D01*
X003430Y021973D01*
X003723Y021680D01*
X004137Y021680D01*
X004277Y021820D01*
X006752Y021820D01*
X006884Y021875D01*
X007384Y022375D01*
X007485Y022476D01*
X007540Y022608D01*
X007540Y024110D01*
X007678Y024248D01*
X007844Y024083D01*
X008061Y023993D01*
X008108Y023993D01*
X009476Y022625D01*
X009608Y022570D01*
X014281Y022570D01*
X016605Y020246D01*
X016547Y020270D01*
X016313Y020270D01*
X016096Y020180D01*
X015930Y020014D01*
X015764Y020180D01*
X015547Y020270D01*
X015313Y020270D01*
X015096Y020180D01*
X014930Y020014D01*
X014764Y020180D01*
X014547Y020270D01*
X014313Y020270D01*
X014096Y020180D01*
X013930Y020014D01*
X013764Y020180D01*
X013547Y020270D01*
X013313Y020270D01*
X013096Y020180D01*
X012930Y020014D01*
X012764Y020180D01*
X012547Y020270D01*
X012313Y020270D01*
X012096Y020180D01*
X011930Y020014D01*
X011764Y020180D01*
X011547Y020270D01*
X011313Y020270D01*
X011096Y020180D01*
X010930Y020014D01*
X010764Y020180D01*
X010547Y020270D01*
X010313Y020270D01*
X010096Y020180D01*
X009930Y020014D01*
X009764Y020180D01*
X009547Y020270D01*
X009313Y020270D01*
X009096Y020180D01*
X008930Y020014D01*
X008764Y020180D01*
X008547Y020270D01*
X008313Y020270D01*
X008096Y020180D01*
X007930Y020014D01*
X007764Y020180D01*
X007547Y020270D01*
X007313Y020270D01*
X007096Y020180D01*
X006930Y020014D01*
X006764Y020180D01*
X006547Y020270D01*
X006313Y020270D01*
X006096Y020180D01*
X005930Y020014D01*
X005764Y020180D01*
X005547Y020270D01*
X005313Y020270D01*
X005096Y020180D01*
X004930Y020014D01*
X004764Y020180D01*
X004547Y020270D01*
X004313Y020270D01*
X004096Y020180D01*
X003930Y020014D01*
X003764Y020180D01*
X003547Y020270D01*
X003313Y020270D01*
X003096Y020180D01*
X002930Y020014D01*
X002764Y020180D01*
X002547Y020270D01*
X002313Y020270D01*
X002096Y020180D01*
X001930Y020014D01*
X001840Y019797D01*
X001840Y019563D01*
X001930Y019346D01*
X002096Y019180D01*
X001930Y019014D01*
X001840Y018797D01*
X001840Y018563D01*
X001930Y018346D01*
X002096Y018180D01*
X001930Y018014D01*
X001840Y017797D01*
X001840Y017563D01*
X001930Y017346D01*
X002096Y017180D01*
X001930Y017014D01*
X001840Y016797D01*
X001840Y016563D01*
X001930Y016346D01*
X002096Y016180D01*
X001930Y016014D01*
X001840Y015797D01*
X001840Y015563D01*
X001930Y015346D01*
X002096Y015180D01*
X001930Y015014D01*
X001840Y014797D01*
X001840Y014563D01*
X001930Y014346D01*
X002096Y014180D01*
X001930Y014014D01*
X001840Y013797D01*
X001840Y013563D01*
X001930Y013346D01*
X002096Y013180D01*
X001930Y013014D01*
X001840Y012797D01*
X001840Y012563D01*
X001930Y012346D01*
X002096Y012180D01*
X001930Y012014D01*
X001840Y011797D01*
X001840Y011563D01*
X001930Y011346D01*
X002096Y011180D01*
X001930Y011014D01*
X001840Y010797D01*
X001840Y010563D01*
X001930Y010346D01*
X002096Y010180D01*
X001930Y010014D01*
X001840Y009797D01*
X001840Y009563D01*
X001930Y009346D01*
X002096Y009180D01*
X001930Y009014D01*
X001840Y008797D01*
X001840Y008563D01*
X001930Y008346D01*
X002096Y008180D01*
X001930Y008014D01*
X001840Y007797D01*
X001840Y007563D01*
X001930Y007346D01*
X002096Y007180D01*
X001930Y007014D01*
X001840Y006797D01*
X001840Y006563D01*
X001930Y006346D01*
X002096Y006180D01*
X001930Y006014D01*
X001840Y005797D01*
X001840Y005563D01*
X001930Y005346D01*
X002096Y005180D01*
X002313Y005090D01*
X002547Y005090D01*
X002764Y005180D01*
X002930Y005346D01*
X003096Y005180D01*
X003313Y005090D01*
X003547Y005090D01*
X003764Y005180D01*
X003930Y005346D01*
X004096Y005180D01*
X004313Y005090D01*
X004547Y005090D01*
X004764Y005180D01*
X004930Y005346D01*
X005096Y005180D01*
X005313Y005090D01*
X005547Y005090D01*
X005764Y005180D01*
X005930Y005346D01*
X006096Y005180D01*
X006313Y005090D01*
X006547Y005090D01*
X006764Y005180D01*
X006930Y005346D01*
X007096Y005180D01*
X007313Y005090D01*
X007547Y005090D01*
X007764Y005180D01*
X007930Y005346D01*
X008096Y005180D01*
X008313Y005090D01*
X008547Y005090D01*
X008764Y005180D01*
X008930Y005346D01*
X009096Y005180D01*
X009313Y005090D01*
X009547Y005090D01*
X009764Y005180D01*
X009930Y005346D01*
X010096Y005180D01*
X010313Y005090D01*
X010547Y005090D01*
X010764Y005180D01*
X010930Y005346D01*
X011096Y005180D01*
X011313Y005090D01*
X011547Y005090D01*
X011764Y005180D01*
X011930Y005346D01*
X012096Y005180D01*
X012313Y005090D01*
X012547Y005090D01*
X012764Y005180D01*
X012930Y005346D01*
X013096Y005180D01*
X013313Y005090D01*
X013547Y005090D01*
X013764Y005180D01*
X013930Y005346D01*
X014096Y005180D01*
X014313Y005090D01*
X014547Y005090D01*
X014764Y005180D01*
X014930Y005346D01*
X015096Y005180D01*
X015313Y005090D01*
X015547Y005090D01*
X015764Y005180D01*
X015930Y005346D01*
X016096Y005180D01*
X016313Y005090D01*
X016547Y005090D01*
X016764Y005180D01*
X016930Y005346D01*
X017096Y005180D01*
X017313Y005090D01*
X017547Y005090D01*
X017764Y005180D01*
X017930Y005346D01*
X018096Y005180D01*
X018313Y005090D01*
X018547Y005090D01*
X018764Y005180D01*
X018930Y005346D01*
X019096Y005180D01*
X019313Y005090D01*
X019547Y005090D01*
X019764Y005180D01*
X019930Y005346D01*
X020096Y005180D01*
X020313Y005090D01*
X020547Y005090D01*
X020764Y005180D01*
X020930Y005346D01*
X021096Y005180D01*
X021313Y005090D01*
X021547Y005090D01*
X021764Y005180D01*
X021930Y005346D01*
X022096Y005180D01*
X022313Y005090D01*
X022547Y005090D01*
X022764Y005180D01*
X022930Y005346D01*
X023096Y005180D01*
X023313Y005090D01*
X023547Y005090D01*
X023764Y005180D01*
X023930Y005346D01*
X024096Y005180D01*
X024313Y005090D01*
X024547Y005090D01*
X024764Y005180D01*
X024930Y005346D01*
X025096Y005180D01*
X025313Y005090D01*
X025547Y005090D01*
X025764Y005180D01*
X025930Y005346D01*
X026096Y005180D01*
X026313Y005090D01*
X026547Y005090D01*
X026764Y005180D01*
X026930Y005346D01*
X027096Y005180D01*
X027313Y005090D01*
X027547Y005090D01*
X027764Y005180D01*
X027930Y005346D01*
X028096Y005180D01*
X028313Y005090D01*
X028547Y005090D01*
X028764Y005180D01*
X028930Y005346D01*
X029096Y005180D01*
X029313Y005090D01*
X029547Y005090D01*
X029764Y005180D01*
X029930Y005346D01*
X030096Y005180D01*
X030313Y005090D01*
X030547Y005090D01*
X030764Y005180D01*
X030930Y005346D01*
X031096Y005180D01*
X031313Y005090D01*
X031547Y005090D01*
X031764Y005180D01*
X031930Y005346D01*
X032096Y005180D01*
X032313Y005090D01*
X032547Y005090D01*
X032764Y005180D01*
X032930Y005346D01*
X033096Y005180D01*
X033313Y005090D01*
X033547Y005090D01*
X033764Y005180D01*
X033930Y005346D01*
X034096Y005180D01*
X034313Y005090D01*
X034547Y005090D01*
X034764Y005180D01*
X034930Y005346D01*
X035096Y005180D01*
X035313Y005090D01*
X035547Y005090D01*
X035764Y005180D01*
X035930Y005346D01*
X036020Y005563D01*
X036020Y005797D01*
X035930Y006014D01*
X035764Y006180D01*
X035930Y006346D01*
X036020Y006563D01*
X036020Y006797D01*
X035930Y007014D01*
X035764Y007180D01*
X035930Y007346D01*
X036020Y007563D01*
X036020Y007797D01*
X035930Y008014D01*
X035764Y008180D01*
X035930Y008346D01*
X036020Y008563D01*
X036020Y008797D01*
X035930Y009014D01*
X035764Y009180D01*
X035930Y009346D01*
X036020Y009563D01*
X036020Y009797D01*
X035930Y010014D01*
X035764Y010180D01*
X035547Y010270D01*
X035313Y010270D01*
X035096Y010180D01*
X034930Y010014D01*
X034764Y010180D01*
X034547Y010270D01*
X034313Y010270D01*
X034096Y010180D01*
X033930Y010014D01*
X033764Y010180D01*
X033547Y010270D01*
X033313Y010270D01*
X033096Y010180D01*
X032930Y010014D01*
X032764Y010180D01*
X032547Y010270D01*
X032313Y010270D01*
X032096Y010180D01*
X031930Y010014D01*
X031764Y010180D01*
X031547Y010270D01*
X031313Y010270D01*
X031096Y010180D01*
X030930Y010014D01*
X030764Y010180D01*
X030547Y010270D01*
X030313Y010270D01*
X030096Y010180D01*
X029930Y010014D01*
X029764Y010180D01*
X029547Y010270D01*
X029313Y010270D01*
X029096Y010180D01*
X028930Y010014D01*
X028764Y010180D01*
X028547Y010270D01*
X028313Y010270D01*
X028096Y010180D01*
X027930Y010014D01*
X027764Y010180D01*
X027547Y010270D01*
X027313Y010270D01*
X027096Y010180D01*
X026930Y010014D01*
X026764Y010180D01*
X026547Y010270D01*
X026313Y010270D01*
X026096Y010180D01*
X025930Y010014D01*
X025764Y010180D01*
X025547Y010270D01*
X025313Y010270D01*
X025096Y010180D01*
X024930Y010014D01*
X024764Y010180D01*
X024930Y010346D01*
X025020Y010563D01*
X025020Y010797D01*
X024930Y011014D01*
X024764Y011180D01*
X024930Y011346D01*
X025020Y011563D01*
X025020Y011797D01*
X024930Y012014D01*
X024764Y012180D01*
X024930Y012346D01*
X025020Y012563D01*
X025020Y012797D01*
X024930Y013014D01*
X024764Y013180D01*
X024930Y013346D01*
X025020Y013563D01*
X025020Y013797D01*
X024930Y014014D01*
X024764Y014180D01*
X024930Y014346D01*
X025020Y014563D01*
X025020Y014797D01*
X024930Y015014D01*
X024764Y015180D01*
X024930Y015346D01*
X025020Y015563D01*
X025020Y015797D01*
X024930Y016014D01*
X024764Y016180D01*
X024930Y016346D01*
X025020Y016563D01*
X025020Y016797D01*
X024930Y017014D01*
X024764Y017180D01*
X024547Y017270D01*
X024313Y017270D01*
X024096Y017180D01*
X023930Y017014D01*
X023764Y017180D01*
X023547Y017270D01*
X023313Y017270D01*
X023096Y017180D01*
X022930Y017014D01*
X022764Y017180D01*
X022547Y017270D01*
X022313Y017270D01*
X022096Y017180D01*
X021930Y017014D01*
X021764Y017180D01*
X021547Y017270D01*
X021313Y017270D01*
X021096Y017180D01*
X020930Y017014D01*
X020764Y017180D01*
X020547Y017270D01*
X020313Y017270D01*
X020096Y017180D01*
X019930Y017014D01*
X019764Y017180D01*
X019547Y017270D01*
X019313Y017270D01*
X019096Y017180D01*
X018930Y017014D01*
X018764Y017180D01*
X018547Y017270D01*
X018313Y017270D01*
X018096Y017180D01*
X017930Y017014D01*
X017764Y017180D01*
X017547Y017270D01*
X017313Y017270D01*
X017096Y017180D01*
X016930Y017014D01*
X016764Y017180D01*
X016930Y017346D01*
X017020Y017563D01*
X017020Y017797D01*
X016930Y018014D01*
X016764Y018180D01*
X016930Y018346D01*
X017020Y018563D01*
X017020Y018797D01*
X016930Y019014D01*
X016764Y019180D01*
X016930Y019346D01*
X017020Y019563D01*
X017020Y019797D01*
X016996Y019855D01*
X019226Y017625D01*
X019358Y017570D01*
X025031Y017570D01*
X025320Y017281D01*
X025320Y012358D01*
X025375Y012226D01*
X025476Y012125D01*
X027125Y010476D01*
X027226Y010375D01*
X027358Y010320D01*
X036031Y010320D01*
X037625Y008726D01*
X037726Y008625D01*
X037858Y008570D01*
X039281Y008570D01*
X039320Y008531D01*
X039320Y004608D01*
X039375Y004476D01*
X039320Y004643D02*
X000910Y004643D01*
X000910Y004801D02*
X039320Y004801D01*
X039320Y004960D02*
X000910Y004960D01*
X000910Y005118D02*
X002245Y005118D01*
X001999Y005277D02*
X000910Y005277D01*
X000910Y005435D02*
X001893Y005435D01*
X001840Y005594D02*
X000910Y005594D01*
X000910Y005752D02*
X001840Y005752D01*
X001887Y005911D02*
X000910Y005911D01*
X000910Y006069D02*
X001985Y006069D01*
X002048Y006228D02*
X000910Y006228D01*
X000910Y006386D02*
X001913Y006386D01*
X001848Y006545D02*
X000910Y006545D01*
X000910Y006703D02*
X001840Y006703D01*
X001867Y006862D02*
X000910Y006862D01*
X000910Y007020D02*
X001936Y007020D01*
X002094Y007179D02*
X000910Y007179D01*
X000910Y007337D02*
X001939Y007337D01*
X001868Y007496D02*
X000910Y007496D01*
X000910Y007654D02*
X001840Y007654D01*
X001846Y007813D02*
X000910Y007813D01*
X000910Y007971D02*
X001912Y007971D01*
X002045Y008130D02*
X000910Y008130D01*
X000910Y008288D02*
X001988Y008288D01*
X001888Y008447D02*
X000910Y008447D01*
X000910Y008605D02*
X001840Y008605D01*
X001840Y008764D02*
X000910Y008764D01*
X000910Y008922D02*
X001892Y008922D01*
X001996Y009081D02*
X000910Y009081D01*
X000910Y009239D02*
X002037Y009239D01*
X001908Y009398D02*
X000910Y009398D01*
X000910Y009556D02*
X001843Y009556D01*
X001840Y009715D02*
X000910Y009715D01*
X000910Y009873D02*
X001871Y009873D01*
X001947Y010032D02*
X000910Y010032D01*
X000910Y010190D02*
X002086Y010190D01*
X001929Y010349D02*
X000910Y010349D01*
X000910Y010507D02*
X001863Y010507D01*
X001840Y010666D02*
X000910Y010666D01*
X000910Y010824D02*
X001851Y010824D01*
X001917Y010983D02*
X000910Y010983D01*
X000910Y011141D02*
X002057Y011141D01*
X001976Y011300D02*
X000910Y011300D01*
X000910Y011458D02*
X001883Y011458D01*
X001840Y011617D02*
X000910Y011617D01*
X000910Y011775D02*
X001840Y011775D01*
X001896Y011934D02*
X000910Y011934D01*
X000910Y012092D02*
X002008Y012092D01*
X002025Y012251D02*
X000910Y012251D01*
X000910Y012409D02*
X001904Y012409D01*
X001840Y012568D02*
X000910Y012568D01*
X000910Y012726D02*
X001840Y012726D01*
X001876Y012885D02*
X000910Y012885D01*
X000910Y013043D02*
X001959Y013043D01*
X002074Y013202D02*
X000910Y013202D01*
X000910Y013360D02*
X001924Y013360D01*
X001858Y013519D02*
X000910Y013519D01*
X000910Y013677D02*
X001840Y013677D01*
X001856Y013836D02*
X000910Y013836D01*
X000910Y013994D02*
X001921Y013994D01*
X002068Y014153D02*
X000910Y014153D01*
X000910Y014311D02*
X001965Y014311D01*
X001879Y014470D02*
X000910Y014470D01*
X000910Y014628D02*
X001840Y014628D01*
X001840Y014787D02*
X000910Y014787D01*
X000910Y014945D02*
X001901Y014945D01*
X002019Y015104D02*
X000910Y015104D01*
X000910Y015262D02*
X002014Y015262D01*
X001899Y015421D02*
X000910Y015421D01*
X000910Y015579D02*
X001840Y015579D01*
X001840Y015738D02*
X000910Y015738D01*
X000910Y015896D02*
X001881Y015896D01*
X001970Y016055D02*
X000910Y016055D01*
X000910Y016213D02*
X002063Y016213D01*
X001919Y016372D02*
X000910Y016372D01*
X000910Y016530D02*
X001854Y016530D01*
X001840Y016689D02*
X000910Y016689D01*
X000910Y016847D02*
X001861Y016847D01*
X001926Y017006D02*
X000910Y017006D01*
X000910Y017164D02*
X002080Y017164D01*
X001953Y017323D02*
X000910Y017323D01*
X000910Y017481D02*
X001874Y017481D01*
X001840Y017640D02*
X000910Y017640D01*
X000910Y017798D02*
X001840Y017798D01*
X001906Y017957D02*
X000910Y017957D01*
X000910Y018115D02*
X002031Y018115D01*
X002002Y018274D02*
X000910Y018274D01*
X000910Y018432D02*
X001894Y018432D01*
X001840Y018591D02*
X000910Y018591D01*
X000910Y018749D02*
X001840Y018749D01*
X001886Y018908D02*
X000910Y018908D01*
X000910Y019066D02*
X001982Y019066D01*
X002051Y019225D02*
X000910Y019225D01*
X000910Y019383D02*
X001914Y019383D01*
X001849Y019542D02*
X000910Y019542D01*
X000910Y019700D02*
X001840Y019700D01*
X001865Y019859D02*
X000910Y019859D01*
X000910Y020017D02*
X001933Y020017D01*
X002091Y020176D02*
X000910Y020176D01*
X000910Y020334D02*
X016517Y020334D01*
X016358Y020493D02*
X000910Y020493D01*
X000910Y020651D02*
X016200Y020651D01*
X016041Y020810D02*
X003172Y020810D01*
X003112Y020750D02*
X003370Y021008D01*
X003370Y021190D01*
X003370Y021372D01*
X003112Y021630D01*
X002930Y021630D01*
X002930Y021190D01*
X002930Y021190D01*
X003370Y021190D01*
X002930Y021190D01*
X002930Y021190D01*
X002930Y021190D01*
X002490Y021190D01*
X002490Y021372D01*
X002748Y021630D01*
X002930Y021630D01*
X002930Y021190D01*
X002930Y020750D01*
X003112Y020750D01*
X002930Y020750D02*
X002930Y021190D01*
X002930Y021190D01*
X002490Y021190D01*
X002490Y021008D01*
X002748Y020750D01*
X002930Y020750D01*
X002930Y020810D02*
X002930Y020810D01*
X002930Y020968D02*
X002930Y020968D01*
X002930Y021127D02*
X002930Y021127D01*
X002930Y021285D02*
X002930Y021285D01*
X002930Y021444D02*
X002930Y021444D01*
X002930Y021602D02*
X002930Y021602D01*
X003140Y021602D02*
X015249Y021602D01*
X015407Y021444D02*
X003299Y021444D01*
X003370Y021285D02*
X015566Y021285D01*
X015724Y021127D02*
X003370Y021127D01*
X003330Y020968D02*
X015883Y020968D01*
X015090Y021761D02*
X004218Y021761D01*
X003642Y021761D02*
X000910Y021761D01*
X000910Y021919D02*
X003484Y021919D01*
X003430Y022078D02*
X000910Y022078D01*
X000910Y022236D02*
X003430Y022236D01*
X003437Y022395D02*
X000910Y022395D01*
X000910Y022553D02*
X003596Y022553D01*
X003179Y022712D02*
X006702Y022712D01*
X006820Y022870D02*
X005879Y022870D01*
X005985Y022976D02*
X005985Y022976D01*
X006038Y023029D02*
X006820Y023029D01*
X006820Y023187D02*
X006196Y023187D01*
X006355Y023346D02*
X006820Y023346D01*
X006820Y023504D02*
X006497Y023504D01*
X006540Y023663D02*
X006820Y023663D01*
X006820Y023821D02*
X006540Y023821D01*
X006540Y023980D02*
X006820Y023980D01*
X006788Y024138D02*
X006568Y024138D01*
X005820Y023980D02*
X002725Y023980D01*
X002643Y023932D02*
X002887Y024073D01*
X003087Y024273D01*
X003228Y024517D01*
X003301Y024789D01*
X003301Y025071D01*
X003228Y025343D01*
X003087Y025587D01*
X002887Y025787D01*
X002643Y025928D01*
X002371Y026001D01*
X002089Y026001D01*
X001817Y025928D01*
X001573Y025787D01*
X001373Y025587D01*
X001232Y025343D01*
X001159Y025071D01*
X001159Y024789D01*
X001232Y024517D01*
X001373Y024273D01*
X001573Y024073D01*
X001817Y023932D01*
X002089Y023859D01*
X002371Y023859D01*
X002643Y023932D01*
X002715Y023663D02*
X000910Y023663D01*
X000910Y023821D02*
X005812Y023821D01*
X005653Y023663D02*
X003145Y023663D01*
X002557Y023504D02*
X000910Y023504D01*
X000910Y023346D02*
X002430Y023346D01*
X002430Y023187D02*
X000910Y023187D01*
X000910Y023029D02*
X002430Y023029D01*
X002523Y022870D02*
X000910Y022870D01*
X000910Y022712D02*
X002681Y022712D01*
X004264Y022553D02*
X006544Y022553D01*
X007087Y022078D02*
X014773Y022078D01*
X014615Y022236D02*
X007245Y022236D01*
X007404Y022395D02*
X014456Y022395D01*
X014298Y022553D02*
X007517Y022553D01*
X007540Y022712D02*
X009389Y022712D01*
X009231Y022870D02*
X007540Y022870D01*
X007540Y023029D02*
X009072Y023029D01*
X008914Y023187D02*
X007540Y023187D01*
X007540Y023346D02*
X008755Y023346D01*
X008597Y023504D02*
X007540Y023504D01*
X007540Y023663D02*
X008438Y023663D01*
X008280Y023821D02*
X007540Y023821D01*
X007540Y023980D02*
X008121Y023980D01*
X007788Y024138D02*
X007568Y024138D01*
X008178Y024432D02*
X008180Y024430D01*
X008178Y024432D02*
X008178Y024933D01*
X008700Y025565D02*
X008728Y025565D01*
X008882Y025723D02*
X008572Y025723D01*
X009158Y025723D02*
X009198Y025723D01*
X009198Y025565D02*
X009158Y025565D01*
X009158Y025406D02*
X009198Y025406D01*
X009198Y025248D02*
X009158Y025248D01*
X009158Y025089D02*
X009198Y025089D01*
X009198Y024913D02*
X009198Y024053D01*
X009220Y024053D01*
X009302Y024066D01*
X009382Y024092D01*
X009456Y024129D01*
X009523Y024179D01*
X009582Y024238D01*
X009631Y024305D01*
X009644Y024330D01*
X009678Y024249D01*
X009844Y024083D01*
X010061Y023993D01*
X010108Y023993D01*
X010726Y023375D01*
X010858Y023320D01*
X014281Y023320D01*
X014311Y023290D01*
X009829Y023290D01*
X009053Y024066D01*
X009054Y024066D01*
X009136Y024053D01*
X009158Y024053D01*
X009158Y024913D01*
X009198Y024913D01*
X009198Y024772D02*
X009158Y024772D01*
X009158Y024614D02*
X009198Y024614D01*
X009198Y024455D02*
X009158Y024455D01*
X009158Y024297D02*
X009198Y024297D01*
X009198Y024138D02*
X009158Y024138D01*
X009140Y023980D02*
X010121Y023980D01*
X010280Y023821D02*
X009298Y023821D01*
X009457Y023663D02*
X010438Y023663D01*
X010597Y023504D02*
X009615Y023504D01*
X009774Y023346D02*
X010797Y023346D01*
X009788Y024138D02*
X009468Y024138D01*
X009625Y024297D02*
X009658Y024297D01*
X010180Y024930D02*
X010180Y024931D01*
X010178Y024933D01*
X009656Y025565D02*
X009628Y025565D01*
X009474Y025723D02*
X009784Y025723D01*
X010572Y025723D02*
X010784Y025723D01*
X011572Y025723D02*
X011784Y025723D01*
X012572Y025723D02*
X012784Y025723D01*
X013572Y025723D02*
X013784Y025723D01*
X014572Y025723D02*
X014784Y025723D01*
X015572Y025723D02*
X015784Y025723D01*
X016572Y025723D02*
X016784Y025723D01*
X017572Y025723D02*
X017784Y025723D01*
X018572Y025723D02*
X018784Y025723D01*
X018820Y025882D02*
X002723Y025882D01*
X002951Y025723D02*
X004882Y025723D01*
X004728Y025565D02*
X003100Y025565D01*
X003191Y025406D02*
X004661Y025406D01*
X004648Y025248D02*
X003253Y025248D01*
X003296Y025089D02*
X004648Y025089D01*
X004648Y024772D02*
X003296Y024772D01*
X003301Y024931D02*
X005158Y024931D01*
X005158Y025089D02*
X005198Y025089D01*
X005198Y025248D02*
X005158Y025248D01*
X005158Y025406D02*
X005198Y025406D01*
X005198Y025565D02*
X005158Y025565D01*
X005158Y025723D02*
X005198Y025723D01*
X005474Y025723D02*
X005784Y025723D01*
X005656Y025565D02*
X005628Y025565D01*
X005198Y024772D02*
X005158Y024772D01*
X005158Y024614D02*
X005198Y024614D01*
X005198Y024455D02*
X005158Y024455D01*
X005158Y024297D02*
X005198Y024297D01*
X005198Y024138D02*
X005158Y024138D01*
X004889Y024138D02*
X002952Y024138D01*
X003100Y024297D02*
X004731Y024297D01*
X004662Y024455D02*
X003192Y024455D01*
X003254Y024614D02*
X004648Y024614D01*
X005468Y024138D02*
X005788Y024138D01*
X005658Y024297D02*
X005625Y024297D01*
X006384Y023375D02*
X006384Y023375D01*
X006928Y021919D02*
X014932Y021919D01*
X017178Y023182D02*
X017180Y023180D01*
X017178Y023182D02*
X017178Y024933D01*
X018178Y024933D02*
X018178Y022932D01*
X018180Y022930D01*
X016180Y024930D02*
X016180Y024931D01*
X016178Y024933D01*
X015180Y024930D02*
X015180Y024931D01*
X015178Y024933D01*
X018820Y026040D02*
X000910Y026040D01*
X000910Y025882D02*
X001737Y025882D01*
X001509Y025723D02*
X000910Y025723D01*
X000910Y025565D02*
X001360Y025565D01*
X001269Y025406D02*
X000910Y025406D01*
X000910Y025248D02*
X001207Y025248D01*
X001164Y025089D02*
X000910Y025089D01*
X000910Y024931D02*
X001159Y024931D01*
X001164Y024772D02*
X000910Y024772D01*
X000910Y024614D02*
X001206Y024614D01*
X001268Y024455D02*
X000910Y024455D01*
X000910Y024297D02*
X001360Y024297D01*
X001508Y024138D02*
X000910Y024138D01*
X000910Y023980D02*
X001735Y023980D01*
X000911Y026199D02*
X018850Y026199D01*
X018973Y026357D02*
X000921Y026357D01*
X000957Y026516D02*
X019131Y026516D01*
X019290Y026674D02*
X000993Y026674D01*
X001068Y026833D02*
X019448Y026833D01*
X019715Y026991D02*
X001145Y026991D01*
X001271Y027150D02*
X023370Y027150D01*
X023370Y027263D02*
X023370Y026923D01*
X023768Y026923D01*
X023768Y027419D01*
X023526Y027419D01*
X023481Y027407D01*
X023440Y027383D01*
X023406Y027350D01*
X023382Y027309D01*
X023370Y027263D01*
X023382Y027308D02*
X001422Y027308D01*
X001621Y027467D02*
X026286Y027467D01*
X026105Y027308D02*
X024269Y027308D01*
X024269Y027309D02*
X024245Y027350D01*
X024212Y027383D01*
X024171Y027407D01*
X024125Y027419D01*
X023883Y027419D01*
X023883Y026923D01*
X023768Y026923D01*
X023768Y026807D01*
X023883Y026807D01*
X023883Y026311D01*
X024125Y026311D01*
X024171Y026323D01*
X024212Y026347D01*
X024245Y026381D01*
X024269Y026422D01*
X024281Y026467D01*
X024281Y026807D01*
X023883Y026807D01*
X023883Y026923D01*
X024281Y026923D01*
X024281Y027263D01*
X024269Y027309D01*
X024281Y027150D02*
X025947Y027150D01*
X025794Y026991D02*
X024281Y026991D01*
X024281Y026674D02*
X025750Y026674D01*
X025750Y026516D02*
X024281Y026516D01*
X024222Y026357D02*
X025750Y026357D01*
X025750Y026199D02*
X023089Y026199D01*
X023135Y026357D02*
X023430Y026357D01*
X023440Y026347D02*
X023481Y026323D01*
X023526Y026311D01*
X023768Y026311D01*
X023768Y026807D01*
X023370Y026807D01*
X023370Y026467D01*
X023382Y026422D01*
X023406Y026381D01*
X023440Y026347D01*
X023370Y026516D02*
X023135Y026516D01*
X023135Y026674D02*
X023370Y026674D01*
X023130Y026833D02*
X023768Y026833D01*
X023883Y026833D02*
X025750Y026833D01*
X026070Y026820D02*
X026070Y025211D01*
X026503Y025369D02*
X026503Y023107D01*
X026930Y022680D01*
X030680Y022680D01*
X030930Y022430D01*
X030930Y021720D01*
X030430Y021720D02*
X030430Y021680D01*
X030390Y021680D02*
X029680Y021680D01*
X029820Y021285D02*
X030060Y021285D01*
X030090Y021127D02*
X028987Y021127D01*
X028987Y021285D02*
X029540Y021285D01*
X029325Y021444D02*
X028987Y021444D01*
X028987Y021602D02*
X029262Y021602D01*
X029262Y021761D02*
X028952Y021761D01*
X029327Y021919D02*
X027200Y021919D01*
X027042Y022078D02*
X029546Y022078D01*
X029814Y022078D02*
X030060Y022078D01*
X030088Y022236D02*
X026883Y022236D01*
X026783Y022395D02*
X026725Y022395D01*
X026604Y022553D02*
X022207Y022553D01*
X022223Y022395D02*
X025385Y022395D01*
X025227Y022236D02*
X022178Y022236D01*
X022044Y022078D02*
X025068Y022078D01*
X026287Y022870D02*
X022852Y022870D01*
X022856Y022874D02*
X022879Y022915D01*
X022891Y022960D01*
X022891Y023161D01*
X022554Y023161D01*
X022554Y022804D01*
X022554Y023161D01*
X022554Y023161D01*
X022217Y023161D01*
X022217Y022960D01*
X022229Y022915D01*
X022252Y022874D01*
X022286Y022840D01*
X022327Y022816D01*
X022373Y022804D01*
X022554Y022804D01*
X022735Y022804D01*
X022781Y022816D01*
X022822Y022840D01*
X022856Y022874D01*
X022891Y023029D02*
X026189Y023029D01*
X026183Y023187D02*
X022891Y023187D01*
X022891Y023161D02*
X022891Y023362D01*
X022879Y023408D01*
X022856Y023449D01*
X022822Y023483D01*
X022781Y023506D01*
X022735Y023518D01*
X022554Y023518D01*
X022373Y023518D01*
X022327Y023506D01*
X022286Y023483D01*
X022252Y023449D01*
X022229Y023408D01*
X022217Y023362D01*
X022217Y023161D01*
X022554Y023161D01*
X022554Y023161D01*
X022554Y023161D01*
X022891Y023161D01*
X022891Y023346D02*
X026183Y023346D01*
X026183Y023504D02*
X022785Y023504D01*
X022554Y023504D02*
X022554Y023504D01*
X022554Y023518D02*
X022554Y023161D01*
X022554Y023161D01*
X022554Y023518D01*
X022529Y023663D02*
X026183Y023663D01*
X026183Y023821D02*
X022577Y023821D01*
X022577Y023980D02*
X026183Y023980D01*
X026183Y024138D02*
X022577Y024138D01*
X022543Y024297D02*
X026183Y024297D01*
X026183Y024455D02*
X022614Y024455D01*
X022675Y024614D02*
X026183Y024614D01*
X025737Y024772D02*
X022675Y024772D01*
X022675Y024931D02*
X025303Y024931D01*
X025259Y025089D02*
X022675Y025089D01*
X022675Y025248D02*
X025259Y025248D01*
X025259Y025406D02*
X022613Y025406D01*
X021431Y024930D02*
X021428Y024933D01*
X020997Y025406D02*
X020766Y025406D01*
X020700Y025565D02*
X025259Y025565D01*
X025263Y025723D02*
X020572Y025723D01*
X021324Y026040D02*
X025750Y026040D01*
X025396Y025882D02*
X019540Y025882D01*
X019572Y025723D02*
X019784Y025723D01*
X019786Y026040D02*
X019674Y026040D01*
X021395Y026991D02*
X021516Y026991D01*
X022267Y026991D02*
X023370Y026991D01*
X023768Y026991D02*
X023883Y026991D01*
X023883Y027150D02*
X023768Y027150D01*
X023768Y027308D02*
X023883Y027308D01*
X023883Y026674D02*
X023768Y026674D01*
X023768Y026516D02*
X023883Y026516D01*
X023883Y026357D02*
X023768Y026357D01*
X022756Y026357D02*
X022680Y026357D01*
X022680Y026199D02*
X022756Y026199D01*
X022756Y026516D02*
X022680Y026516D01*
X022680Y026674D02*
X022756Y026674D01*
X022756Y026833D02*
X022680Y026833D01*
X022348Y026199D02*
X022338Y026199D01*
X026070Y026820D02*
X026430Y027180D01*
X030017Y027180D01*
X030267Y026930D01*
X030267Y026430D01*
X029790Y026357D02*
X029478Y026357D01*
X029478Y026453D02*
X029080Y026453D01*
X029080Y025957D01*
X029322Y025957D01*
X029368Y025969D01*
X029390Y025982D01*
X029325Y025917D01*
X029262Y025763D01*
X029262Y025597D01*
X029325Y025443D01*
X029443Y025325D01*
X029597Y025262D01*
X029763Y025262D01*
X029917Y025325D01*
X029952Y025360D01*
X030552Y025360D01*
X030512Y025263D01*
X030512Y025097D01*
X030575Y024943D01*
X030610Y024908D01*
X030610Y024779D01*
X030608Y024780D01*
X030252Y024780D01*
X030164Y024743D01*
X030098Y024678D01*
X030098Y024763D01*
X030035Y024917D01*
X029917Y025035D01*
X029763Y025098D01*
X029597Y025098D01*
X029443Y025035D01*
X029408Y025000D01*
X029035Y025000D01*
X029046Y025026D01*
X029046Y025712D01*
X029009Y025800D01*
X028942Y025868D01*
X028854Y025904D01*
X028483Y025904D01*
X028452Y025891D01*
X028421Y025904D01*
X028100Y025904D01*
X028084Y025932D01*
X028050Y025966D01*
X028009Y025989D01*
X027964Y026002D01*
X027802Y026002D01*
X027773Y026002D01*
X027787Y026036D01*
X027787Y026202D01*
X027724Y026356D01*
X027606Y026474D01*
X027452Y026537D01*
X027286Y026537D01*
X027132Y026474D01*
X027014Y026356D01*
X026951Y026202D01*
X026951Y026062D01*
X026750Y026062D01*
X026662Y026025D01*
X026595Y025958D01*
X026573Y025904D01*
X026390Y025904D01*
X026390Y026687D01*
X026563Y026860D01*
X028567Y026860D01*
X028567Y026569D01*
X028965Y026569D01*
X028965Y026453D01*
X029080Y026453D01*
X029080Y026569D01*
X029478Y026569D01*
X029478Y026860D01*
X029884Y026860D01*
X029884Y026860D01*
X029827Y026802D01*
X029790Y026714D01*
X029790Y026146D01*
X029820Y026075D01*
X029763Y026098D01*
X029597Y026098D01*
X029448Y026037D01*
X029466Y026067D01*
X029478Y026113D01*
X029478Y026453D01*
X029478Y026674D02*
X029790Y026674D01*
X029790Y026516D02*
X029080Y026516D01*
X028965Y026516D02*
X027505Y026516D01*
X027723Y026357D02*
X028567Y026357D01*
X028567Y026453D02*
X028567Y026113D01*
X028579Y026067D01*
X028603Y026026D01*
X028636Y025993D01*
X028677Y025969D01*
X028723Y025957D01*
X028965Y025957D01*
X028965Y026453D01*
X028567Y026453D01*
X028567Y026674D02*
X026390Y026674D01*
X026390Y026516D02*
X027233Y026516D01*
X027015Y026357D02*
X026390Y026357D01*
X026390Y026199D02*
X026951Y026199D01*
X026698Y026040D02*
X026390Y026040D01*
X027369Y026119D02*
X027369Y025369D01*
X027369Y023741D01*
X027930Y023180D01*
X031680Y023180D01*
X031930Y022930D01*
X031930Y021720D01*
X032430Y021720D02*
X032430Y022680D01*
X032930Y023180D01*
X033680Y023180D01*
X033930Y023430D01*
X033930Y024140D01*
X033430Y024140D02*
X033430Y025680D01*
X032930Y026180D01*
X032804Y026430D01*
X032056Y026430D02*
X031093Y026430D01*
X031180Y025680D02*
X029680Y025680D01*
X029362Y025406D02*
X029046Y025406D01*
X029046Y025248D02*
X030512Y025248D01*
X030515Y025089D02*
X029786Y025089D01*
X029574Y025089D02*
X029046Y025089D01*
X029046Y025565D02*
X029275Y025565D01*
X029262Y025723D02*
X029041Y025723D01*
X028909Y025882D02*
X029311Y025882D01*
X029450Y026040D02*
X029456Y026040D01*
X029478Y026199D02*
X029790Y026199D01*
X029857Y026833D02*
X029478Y026833D01*
X028567Y026833D02*
X026535Y026833D01*
X027787Y026199D02*
X028567Y026199D01*
X028595Y026040D02*
X027787Y026040D01*
X027802Y026002D02*
X027802Y025526D01*
X027802Y025526D01*
X027802Y025051D01*
X027747Y025051D01*
X027747Y025026D01*
X027710Y024938D01*
X027689Y024916D01*
X027689Y023874D01*
X028063Y023500D01*
X031744Y023500D01*
X031861Y023451D01*
X032111Y023201D01*
X032201Y023111D01*
X032250Y022994D01*
X032250Y022953D01*
X032659Y023361D01*
X032749Y023451D01*
X032866Y023500D01*
X033547Y023500D01*
X033547Y023500D01*
X033252Y023500D01*
X033180Y023530D01*
X033108Y023500D01*
X032752Y023500D01*
X032680Y023530D01*
X032608Y023500D01*
X032252Y023500D01*
X032180Y023530D01*
X032108Y023500D01*
X031752Y023500D01*
X031680Y023530D01*
X031608Y023500D01*
X031252Y023500D01*
X031180Y023530D01*
X031108Y023500D01*
X030752Y023500D01*
X030680Y023530D01*
X030608Y023500D01*
X030252Y023500D01*
X030164Y023537D01*
X030097Y023604D01*
X030060Y023692D01*
X030060Y024504D01*
X030035Y024443D01*
X029917Y024325D01*
X029763Y024262D01*
X029597Y024262D01*
X029443Y024325D01*
X029408Y024360D01*
X028366Y024360D01*
X028249Y024409D01*
X028159Y024499D01*
X027964Y024694D01*
X027915Y024811D01*
X027915Y024916D01*
X027894Y024938D01*
X027857Y025026D01*
X027857Y025051D01*
X027802Y025051D01*
X027802Y025526D01*
X027802Y025526D01*
X027802Y026002D01*
X027802Y025882D02*
X027802Y025882D01*
X027802Y025723D02*
X027802Y025723D01*
X027802Y025565D02*
X027802Y025565D01*
X027802Y025406D02*
X027802Y025406D01*
X027802Y025248D02*
X027802Y025248D01*
X027802Y025089D02*
X027802Y025089D01*
X027703Y024931D02*
X027901Y024931D01*
X027931Y024772D02*
X027689Y024772D01*
X027689Y024614D02*
X028044Y024614D01*
X028202Y024455D02*
X027689Y024455D01*
X027689Y024297D02*
X029512Y024297D01*
X029848Y024297D02*
X030060Y024297D01*
X030060Y024455D02*
X030040Y024455D01*
X030060Y024138D02*
X027689Y024138D01*
X027689Y023980D02*
X030060Y023980D01*
X030060Y023821D02*
X027742Y023821D01*
X027900Y023663D02*
X030072Y023663D01*
X030243Y023504D02*
X028059Y023504D01*
X027430Y022930D02*
X031180Y022930D01*
X031430Y022680D01*
X032126Y023187D02*
X032484Y023187D01*
X032326Y023029D02*
X032236Y023029D01*
X031967Y023346D02*
X032643Y023346D01*
X032617Y023504D02*
X032743Y023504D01*
X033117Y023504D02*
X033243Y023504D01*
X033180Y022680D02*
X032930Y022430D01*
X032930Y021720D01*
X033608Y022360D02*
X033696Y022323D01*
X033731Y022288D01*
X033776Y022300D01*
X033930Y022300D01*
X033930Y021720D01*
X033930Y021720D01*
X034240Y021720D01*
X034240Y022144D01*
X034228Y022189D01*
X034204Y022231D01*
X034171Y022264D01*
X034129Y022288D01*
X034084Y022300D01*
X033930Y022300D01*
X033930Y021720D01*
X033930Y021720D01*
X034240Y021720D01*
X034240Y021296D01*
X034228Y021251D01*
X034219Y021235D01*
X034610Y021235D01*
X034680Y021206D01*
X034750Y021235D01*
X035358Y021235D01*
X035446Y021198D01*
X035513Y021131D01*
X035550Y021043D01*
X035550Y020317D01*
X035513Y020229D01*
X035446Y020162D01*
X035374Y020132D01*
X035374Y020000D01*
X037860Y020000D01*
X037860Y020797D01*
X037706Y020951D01*
X037698Y020932D01*
X037650Y020884D01*
X037663Y020862D01*
X037675Y020816D01*
X037675Y020584D01*
X037228Y020584D01*
X037228Y020488D01*
X037228Y020100D01*
X037519Y020100D01*
X037564Y020113D01*
X037605Y020136D01*
X037639Y020170D01*
X037663Y020211D01*
X037675Y020257D01*
X037675Y020488D01*
X037228Y020488D01*
X037132Y020488D01*
X037132Y020100D01*
X036841Y020100D01*
X036796Y020113D01*
X036755Y020136D01*
X036721Y020170D01*
X036697Y020211D01*
X036685Y020257D01*
X036685Y020488D01*
X037132Y020488D01*
X037132Y020584D01*
X036685Y020584D01*
X036685Y020816D01*
X036697Y020862D01*
X036710Y020884D01*
X036680Y020913D01*
X036650Y020884D01*
X036663Y020862D01*
X036675Y020816D01*
X036675Y020584D01*
X036228Y020584D01*
X036228Y020488D01*
X036228Y020100D01*
X036519Y020100D01*
X036564Y020113D01*
X036605Y020136D01*
X036639Y020170D01*
X036663Y020211D01*
X036675Y020257D01*
X036675Y020488D01*
X036228Y020488D01*
X036132Y020488D01*
X036132Y020100D01*
X035841Y020100D01*
X035796Y020113D01*
X035755Y020136D01*
X035721Y020170D01*
X035697Y020211D01*
X035685Y020257D01*
X035685Y020488D01*
X036132Y020488D01*
X036132Y020584D01*
X035685Y020584D01*
X035685Y020816D01*
X035697Y020862D01*
X035710Y020884D01*
X035662Y020932D01*
X035625Y021020D01*
X035625Y021627D01*
X035662Y021716D01*
X035729Y021783D01*
X035815Y021819D01*
X035759Y021842D01*
X035698Y021903D01*
X035696Y021901D01*
X035654Y021877D01*
X035609Y021865D01*
X035358Y021865D01*
X035358Y022372D01*
X035222Y022372D01*
X035222Y021865D01*
X034971Y021865D01*
X034926Y021877D01*
X034884Y021901D01*
X034851Y021934D01*
X034827Y021976D01*
X034815Y022021D01*
X034815Y022372D01*
X035222Y022372D01*
X035222Y022508D01*
X035222Y023015D01*
X034971Y023015D01*
X034926Y023003D01*
X034884Y022979D01*
X034851Y022946D01*
X034827Y022904D01*
X034815Y022859D01*
X034815Y022508D01*
X035222Y022508D01*
X035358Y022508D01*
X035358Y023015D01*
X035609Y023015D01*
X035654Y023003D01*
X035696Y022979D01*
X035698Y022977D01*
X035759Y023038D01*
X035847Y023075D01*
X035860Y023075D01*
X035860Y023158D01*
X035825Y023193D01*
X035762Y023347D01*
X035762Y023513D01*
X035825Y023667D01*
X035943Y023785D01*
X036097Y023848D01*
X036263Y023848D01*
X036417Y023785D01*
X036535Y023667D01*
X036598Y023513D01*
X036598Y023347D01*
X036535Y023193D01*
X036500Y023158D01*
X036500Y023075D01*
X036533Y023075D01*
X036621Y023038D01*
X036640Y023019D01*
X036659Y023038D01*
X036747Y023075D01*
X037433Y023075D01*
X037521Y023038D01*
X037588Y022971D01*
X037625Y022883D01*
X037625Y021997D01*
X037588Y021909D01*
X037521Y021842D01*
X037468Y021820D01*
X037543Y021820D01*
X037631Y021783D01*
X037698Y021716D01*
X037728Y021644D01*
X037850Y021644D01*
X037968Y021595D01*
X038361Y021201D01*
X038451Y021111D01*
X038500Y020994D01*
X038500Y019813D01*
X039951Y018361D01*
X040000Y018244D01*
X040000Y015313D01*
X041813Y013500D01*
X042657Y013500D01*
X042159Y013999D01*
X042110Y014116D01*
X042110Y016591D01*
X042066Y016547D01*
X041978Y016510D01*
X041182Y016510D01*
X041094Y016547D01*
X041027Y016614D01*
X040990Y016702D01*
X040990Y017110D01*
X040866Y017110D01*
X040749Y017159D01*
X040659Y017249D01*
X040499Y017409D01*
X040409Y017499D01*
X040360Y017616D01*
X040360Y021408D01*
X040325Y021443D01*
X040262Y021597D01*
X040262Y021763D01*
X040302Y021860D01*
X038866Y021860D01*
X038749Y021909D01*
X038659Y021999D01*
X037409Y023249D01*
X037360Y023366D01*
X037360Y025547D01*
X037047Y025860D01*
X035952Y025860D01*
X035917Y025825D01*
X035763Y025762D01*
X035597Y025762D01*
X035443Y025825D01*
X035325Y025943D01*
X035262Y026097D01*
X035262Y026263D01*
X035302Y026360D01*
X034702Y026360D01*
X034667Y026325D01*
X034540Y026273D01*
X034611Y026201D01*
X034701Y026111D01*
X034750Y025994D01*
X034750Y022866D01*
X034701Y022749D01*
X034361Y022409D01*
X034244Y022360D01*
X033313Y022360D01*
X033313Y022360D01*
X033608Y022360D01*
X033930Y022236D02*
X033930Y022236D01*
X033930Y022078D02*
X033930Y022078D01*
X033930Y021919D02*
X033930Y021919D01*
X033930Y021761D02*
X033930Y021761D01*
X034240Y021761D02*
X035707Y021761D01*
X035625Y021602D02*
X034240Y021602D01*
X034240Y021444D02*
X035625Y021444D01*
X035625Y021285D02*
X034237Y021285D01*
X034240Y021919D02*
X034866Y021919D01*
X034815Y022078D02*
X034240Y022078D01*
X034199Y022236D02*
X034815Y022236D01*
X034815Y022553D02*
X034506Y022553D01*
X034664Y022712D02*
X034815Y022712D01*
X034818Y022870D02*
X034750Y022870D01*
X034750Y023029D02*
X035749Y023029D01*
X035831Y023187D02*
X034750Y023187D01*
X034750Y023346D02*
X035762Y023346D01*
X035762Y023504D02*
X034750Y023504D01*
X034750Y023663D02*
X035823Y023663D01*
X036031Y023821D02*
X034750Y023821D01*
X034750Y023980D02*
X037360Y023980D01*
X037360Y024138D02*
X034750Y024138D01*
X034750Y024297D02*
X035354Y024297D01*
X035382Y024285D02*
X035294Y024322D01*
X035227Y024389D01*
X035190Y024477D01*
X035190Y025363D01*
X035227Y025451D01*
X035294Y025518D01*
X035382Y025555D01*
X036978Y025555D01*
X037066Y025518D01*
X037133Y025451D01*
X037170Y025363D01*
X037170Y024477D01*
X037133Y024389D01*
X037066Y024322D01*
X036978Y024285D01*
X035382Y024285D01*
X035199Y024455D02*
X034750Y024455D01*
X034750Y024614D02*
X035190Y024614D01*
X035190Y024772D02*
X034750Y024772D01*
X034750Y024931D02*
X035190Y024931D01*
X035190Y025089D02*
X034750Y025089D01*
X034750Y025248D02*
X035190Y025248D01*
X035208Y025406D02*
X034750Y025406D01*
X034750Y025565D02*
X037343Y025565D01*
X037360Y025406D02*
X037152Y025406D01*
X037170Y025248D02*
X037360Y025248D01*
X037360Y025089D02*
X037170Y025089D01*
X037170Y024931D02*
X037360Y024931D01*
X037360Y024772D02*
X037170Y024772D01*
X037170Y024614D02*
X037360Y024614D01*
X037360Y024455D02*
X037161Y024455D01*
X037006Y024297D02*
X037360Y024297D01*
X037360Y023821D02*
X036329Y023821D01*
X036537Y023663D02*
X037360Y023663D01*
X037360Y023504D02*
X036598Y023504D01*
X036598Y023346D02*
X037369Y023346D01*
X037470Y023187D02*
X036529Y023187D01*
X036631Y023029D02*
X036649Y023029D01*
X036180Y023430D02*
X036180Y022440D01*
X036190Y022440D01*
X035358Y022553D02*
X035222Y022553D01*
X035222Y022395D02*
X034327Y022395D01*
X034180Y022680D02*
X033180Y022680D01*
X034180Y022680D02*
X034430Y022930D01*
X034430Y025930D01*
X033180Y027180D01*
X030430Y027180D01*
X030267Y027017D01*
X030267Y026930D01*
X030286Y027467D02*
X030161Y027467D01*
X029080Y026357D02*
X028965Y026357D01*
X028965Y026199D02*
X029080Y026199D01*
X029080Y026040D02*
X028965Y026040D01*
X028235Y025369D02*
X028235Y024875D01*
X028430Y024680D01*
X029680Y024680D01*
X030021Y024931D02*
X030588Y024931D01*
X030233Y024772D02*
X030095Y024772D01*
X030930Y025180D02*
X030930Y024140D01*
X031430Y024140D02*
X031430Y025430D01*
X031180Y025680D01*
X031930Y025180D02*
X032430Y024680D01*
X032430Y024140D01*
X032930Y024140D02*
X032930Y025180D01*
X034750Y025723D02*
X037184Y025723D01*
X037180Y026180D02*
X037680Y025680D01*
X037680Y023430D01*
X038930Y022180D01*
X041580Y022180D01*
X041580Y021680D02*
X040680Y021680D01*
X040680Y017680D01*
X040930Y017430D01*
X041580Y017430D01*
X042180Y017430D01*
X042430Y017180D01*
X042430Y014180D01*
X042930Y013680D01*
X048430Y013680D01*
X048816Y013519D02*
X049639Y013519D01*
X049631Y013500D02*
X048808Y013500D01*
X048848Y013597D01*
X048848Y013763D01*
X048785Y013917D01*
X048667Y014035D01*
X048592Y014066D01*
X049199Y014066D01*
X049317Y014114D01*
X051313Y016110D01*
X053797Y016110D01*
X054610Y015297D01*
X054610Y005563D01*
X054450Y005403D01*
X054450Y005645D01*
X054165Y005930D01*
X054450Y006215D01*
X054450Y006645D01*
X054165Y006930D01*
X054450Y007215D01*
X054450Y007645D01*
X054165Y007930D01*
X054450Y008215D01*
X054450Y008645D01*
X054165Y008930D01*
X054450Y009215D01*
X054450Y009645D01*
X054165Y009930D01*
X054450Y010215D01*
X054450Y010645D01*
X054145Y010950D01*
X053863Y010950D01*
X053843Y010970D01*
X053920Y010970D01*
X053920Y011420D01*
X053470Y011420D01*
X053470Y011250D01*
X053450Y011250D01*
X053450Y011645D01*
X053145Y011950D01*
X053130Y011950D01*
X053225Y011989D01*
X053371Y012135D01*
X053410Y012230D01*
X053410Y012215D01*
X053715Y011910D01*
X054145Y011910D01*
X054450Y012215D01*
X054450Y012645D01*
X054145Y012950D01*
X053863Y012950D01*
X053451Y013361D01*
X053451Y013361D01*
X053361Y013451D01*
X053244Y013500D01*
X051866Y013500D01*
X051749Y013451D01*
X051430Y013133D01*
X051110Y013452D01*
X050993Y013501D01*
X050728Y013501D01*
X050706Y013555D01*
X050735Y013625D01*
X050735Y014032D01*
X050813Y014110D01*
X050908Y014110D01*
X050943Y014075D01*
X051097Y014012D01*
X051263Y014012D01*
X051417Y014075D01*
X051535Y014193D01*
X051598Y014347D01*
X051598Y014513D01*
X051535Y014667D01*
X051417Y014785D01*
X051263Y014848D01*
X051097Y014848D01*
X050943Y014785D01*
X050908Y014750D01*
X050616Y014750D01*
X050499Y014701D01*
X050409Y014611D01*
X050222Y014425D01*
X049817Y014425D01*
X049729Y014388D01*
X049662Y014321D01*
X049625Y014233D01*
X049625Y013625D01*
X049654Y013555D01*
X049631Y013500D01*
X049625Y013677D02*
X048848Y013677D01*
X048818Y013836D02*
X049625Y013836D01*
X049625Y013994D02*
X048708Y013994D01*
X049136Y014386D02*
X051180Y016430D01*
X053930Y016430D01*
X054930Y015430D01*
X054930Y005430D01*
X053930Y004430D01*
X054450Y004484D02*
X055700Y004484D01*
X055700Y004326D02*
X054450Y004326D01*
X054402Y004167D02*
X055700Y004167D01*
X055700Y004009D02*
X054244Y004009D01*
X054245Y003850D02*
X055700Y003850D01*
X055700Y003692D02*
X054404Y003692D01*
X054450Y003533D02*
X055700Y003533D01*
X055700Y003375D02*
X054450Y003375D01*
X054450Y003216D02*
X055700Y003216D01*
X055700Y003058D02*
X054293Y003058D01*
X053567Y003058D02*
X053293Y003058D01*
X052567Y003058D02*
X039895Y003058D01*
X039916Y003134D02*
X039843Y002862D01*
X039702Y002618D01*
X039502Y002418D01*
X039258Y002277D01*
X038986Y002204D01*
X038704Y002204D01*
X038432Y002277D01*
X038188Y002418D01*
X037988Y002618D01*
X037847Y002862D01*
X037774Y003134D01*
X037774Y003416D01*
X037847Y003688D01*
X037988Y003932D01*
X038188Y004132D01*
X038432Y004273D01*
X038704Y004346D01*
X038986Y004346D01*
X039258Y004273D01*
X039502Y004132D01*
X039702Y003932D01*
X039843Y003688D01*
X039916Y003416D01*
X039916Y003134D01*
X039916Y003216D02*
X040635Y003216D01*
X040625Y003226D02*
X040625Y003226D01*
X040476Y003375D02*
X039916Y003375D01*
X039884Y003533D02*
X040318Y003533D01*
X040159Y003692D02*
X039841Y003692D01*
X039749Y003850D02*
X040001Y003850D01*
X039842Y004009D02*
X039625Y004009D01*
X039684Y004167D02*
X039441Y004167D01*
X039525Y004326D02*
X039061Y004326D01*
X038629Y004326D02*
X002446Y004326D01*
X002826Y004167D02*
X038249Y004167D01*
X038065Y004009D02*
X003010Y004009D01*
X003134Y003850D02*
X037941Y003850D01*
X037849Y003692D02*
X003226Y003692D01*
X003269Y003533D02*
X037806Y003533D01*
X037774Y003375D02*
X003301Y003375D01*
X003301Y003216D02*
X037774Y003216D01*
X037795Y003058D02*
X003280Y003058D01*
X003238Y002899D02*
X037837Y002899D01*
X037917Y002741D02*
X003158Y002741D01*
X003051Y002582D02*
X038024Y002582D01*
X038183Y002424D02*
X002892Y002424D01*
X002597Y002265D02*
X038478Y002265D01*
X039212Y002265D02*
X055635Y002265D01*
X055671Y002424D02*
X039507Y002424D01*
X039666Y002582D02*
X055694Y002582D01*
X055700Y002741D02*
X039773Y002741D01*
X039853Y002899D02*
X055700Y002899D01*
X055700Y004643D02*
X054595Y004643D01*
X054754Y004801D02*
X055700Y004801D01*
X055700Y004960D02*
X054912Y004960D01*
X055071Y005118D02*
X055700Y005118D01*
X055700Y005277D02*
X055213Y005277D01*
X055250Y005435D02*
X055700Y005435D01*
X055700Y005594D02*
X055250Y005594D01*
X055250Y005752D02*
X055700Y005752D01*
X055700Y005911D02*
X055250Y005911D01*
X055250Y006069D02*
X055700Y006069D01*
X055700Y006228D02*
X055250Y006228D01*
X055250Y006386D02*
X055700Y006386D01*
X055700Y006545D02*
X055250Y006545D01*
X055250Y006703D02*
X055700Y006703D01*
X055700Y006862D02*
X055250Y006862D01*
X055250Y007020D02*
X055700Y007020D01*
X055700Y007179D02*
X055250Y007179D01*
X055250Y007337D02*
X055700Y007337D01*
X055700Y007496D02*
X055250Y007496D01*
X055250Y007654D02*
X055700Y007654D01*
X055700Y007813D02*
X055250Y007813D01*
X055250Y007971D02*
X055700Y007971D01*
X055700Y008130D02*
X055250Y008130D01*
X055250Y008288D02*
X055700Y008288D01*
X055700Y008447D02*
X055250Y008447D01*
X055250Y008605D02*
X055700Y008605D01*
X055700Y008764D02*
X055250Y008764D01*
X055250Y008922D02*
X055700Y008922D01*
X055700Y009081D02*
X055250Y009081D01*
X055250Y009239D02*
X055700Y009239D01*
X055700Y009398D02*
X055250Y009398D01*
X055250Y009556D02*
X055700Y009556D01*
X055700Y009715D02*
X055250Y009715D01*
X055250Y009873D02*
X055700Y009873D01*
X055700Y010032D02*
X055250Y010032D01*
X055250Y010190D02*
X055700Y010190D01*
X055700Y010349D02*
X055250Y010349D01*
X055250Y010507D02*
X055700Y010507D01*
X055700Y010666D02*
X055250Y010666D01*
X055250Y010824D02*
X055700Y010824D01*
X055700Y010983D02*
X055250Y010983D01*
X055250Y011141D02*
X055700Y011141D01*
X055700Y011300D02*
X055250Y011300D01*
X055250Y011458D02*
X055700Y011458D01*
X055700Y011617D02*
X055250Y011617D01*
X055250Y011775D02*
X055700Y011775D01*
X055700Y011934D02*
X055250Y011934D01*
X055250Y012092D02*
X055700Y012092D01*
X055700Y012251D02*
X055250Y012251D01*
X055250Y012409D02*
X055700Y012409D01*
X055700Y012568D02*
X055250Y012568D01*
X055250Y012726D02*
X055700Y012726D01*
X055700Y012885D02*
X055250Y012885D01*
X055250Y013043D02*
X055700Y013043D01*
X055700Y013202D02*
X055250Y013202D01*
X055250Y013360D02*
X055700Y013360D01*
X055700Y013519D02*
X055250Y013519D01*
X055250Y013677D02*
X055700Y013677D01*
X055700Y013836D02*
X055250Y013836D01*
X055250Y013994D02*
X055700Y013994D01*
X055700Y014153D02*
X055250Y014153D01*
X055250Y014311D02*
X055700Y014311D01*
X055700Y014470D02*
X055250Y014470D01*
X055250Y014628D02*
X055700Y014628D01*
X055700Y014787D02*
X055250Y014787D01*
X055250Y014945D02*
X055700Y014945D01*
X055700Y015104D02*
X055250Y015104D01*
X055250Y015262D02*
X055700Y015262D01*
X055700Y015421D02*
X055250Y015421D01*
X055215Y015579D02*
X055700Y015579D01*
X055700Y015738D02*
X055075Y015738D01*
X054917Y015896D02*
X055700Y015896D01*
X055700Y016055D02*
X054758Y016055D01*
X054600Y016213D02*
X055700Y016213D01*
X055700Y016372D02*
X054441Y016372D01*
X054283Y016530D02*
X055700Y016530D01*
X055700Y016689D02*
X054124Y016689D01*
X053853Y016055D02*
X053100Y016055D01*
X052084Y016055D01*
X051992Y016043D01*
X051903Y016019D01*
X051818Y015984D01*
X051737Y015937D01*
X051664Y015881D01*
X051599Y015816D01*
X051543Y015743D01*
X051496Y015662D01*
X051461Y015577D01*
X051437Y015488D01*
X051429Y015430D01*
X053100Y015430D01*
X053100Y016055D01*
X053100Y015896D02*
X053260Y015896D01*
X053260Y016051D02*
X053260Y015430D01*
X053100Y015430D01*
X053100Y015270D01*
X053260Y015270D01*
X053260Y015430D01*
X053881Y015430D01*
X053873Y015488D01*
X053849Y015577D01*
X053814Y015662D01*
X053767Y015743D01*
X053711Y015816D01*
X053646Y015881D01*
X053573Y015937D01*
X053492Y015984D01*
X053407Y016019D01*
X053318Y016043D01*
X053260Y016051D01*
X053260Y015738D02*
X053100Y015738D01*
X053100Y015579D02*
X053260Y015579D01*
X053260Y015421D02*
X054487Y015421D01*
X054610Y015262D02*
X053879Y015262D01*
X053881Y015270D02*
X053260Y015270D01*
X053260Y014649D01*
X053318Y014657D01*
X053407Y014681D01*
X053492Y014716D01*
X053573Y014763D01*
X053646Y014819D01*
X053711Y014884D01*
X053767Y014957D01*
X053814Y015038D01*
X053849Y015123D01*
X053873Y015212D01*
X053881Y015270D01*
X053841Y015104D02*
X054610Y015104D01*
X054610Y014945D02*
X053758Y014945D01*
X053604Y014787D02*
X054610Y014787D01*
X054610Y014628D02*
X051551Y014628D01*
X051598Y014470D02*
X054610Y014470D01*
X054610Y014311D02*
X051584Y014311D01*
X051494Y014153D02*
X054610Y014153D01*
X054610Y013994D02*
X050735Y013994D01*
X050735Y013836D02*
X054610Y013836D01*
X054610Y013677D02*
X050735Y013677D01*
X050721Y013519D02*
X054610Y013519D01*
X054610Y013360D02*
X053453Y013360D01*
X053611Y013202D02*
X054610Y013202D01*
X054610Y013043D02*
X053770Y013043D01*
X054211Y012885D02*
X054610Y012885D01*
X054610Y012726D02*
X054369Y012726D01*
X054450Y012568D02*
X054610Y012568D01*
X054610Y012409D02*
X054450Y012409D01*
X054450Y012251D02*
X054610Y012251D01*
X054610Y012092D02*
X054327Y012092D01*
X054169Y011934D02*
X054610Y011934D01*
X054610Y011775D02*
X054236Y011775D01*
X054121Y011890D02*
X054390Y011621D01*
X054390Y011440D01*
X053940Y011440D01*
X053920Y011440D01*
X053920Y011890D01*
X053739Y011890D01*
X053470Y011621D01*
X053470Y011440D01*
X053920Y011440D01*
X053920Y011420D01*
X053940Y011420D01*
X053940Y011440D01*
X053940Y011890D01*
X054121Y011890D01*
X053940Y011775D02*
X053920Y011775D01*
X053920Y011617D02*
X053940Y011617D01*
X053940Y011458D02*
X053920Y011458D01*
X053940Y011420D02*
X054390Y011420D01*
X054390Y011239D01*
X054121Y010970D01*
X053940Y010970D01*
X053940Y011420D01*
X053940Y011300D02*
X053920Y011300D01*
X053920Y011141D02*
X053940Y011141D01*
X053940Y010983D02*
X053920Y010983D01*
X054133Y010983D02*
X054610Y010983D01*
X054610Y011141D02*
X054292Y011141D01*
X054390Y011300D02*
X054610Y011300D01*
X054610Y011458D02*
X054390Y011458D01*
X054390Y011617D02*
X054610Y011617D01*
X053691Y011934D02*
X053162Y011934D01*
X053320Y011775D02*
X053624Y011775D01*
X053470Y011617D02*
X053450Y011617D01*
X053450Y011458D02*
X053470Y011458D01*
X053470Y011300D02*
X053450Y011300D01*
X053430Y010930D02*
X051180Y010930D01*
X050180Y011930D01*
X049661Y012790D02*
X048358Y012790D01*
X048226Y012735D01*
X046875Y011384D01*
X046820Y011252D01*
X046820Y010358D01*
X046875Y010226D01*
X046976Y010125D01*
X047273Y009828D01*
X047273Y008329D01*
X046241Y007297D01*
X046067Y007297D01*
X045857Y007210D01*
X045697Y007050D01*
X045688Y007029D01*
X045679Y007050D01*
X045519Y007210D01*
X045309Y007297D01*
X045082Y007297D01*
X044873Y007210D01*
X044713Y007050D01*
X044626Y006841D01*
X044626Y006614D01*
X044713Y006404D01*
X044827Y006290D01*
X043079Y006290D01*
X042540Y006829D01*
X042540Y007028D01*
X042575Y006943D01*
X042693Y006825D01*
X042847Y006762D01*
X043013Y006762D01*
X043167Y006825D01*
X043285Y006943D01*
X043348Y007097D01*
X043348Y007263D01*
X043285Y007417D01*
X043250Y007452D01*
X043250Y011616D01*
X043250Y011744D01*
X043201Y011861D01*
X042703Y012360D01*
X043547Y012360D01*
X045360Y010547D01*
X045360Y008702D01*
X045325Y008667D01*
X045262Y008513D01*
X045262Y008347D01*
X045325Y008193D01*
X045443Y008075D01*
X045597Y008012D01*
X045763Y008012D01*
X045917Y008075D01*
X046035Y008193D01*
X046098Y008347D01*
X046098Y008513D01*
X046035Y008667D01*
X046000Y008702D01*
X046000Y010744D01*
X045951Y010861D01*
X043953Y012860D01*
X044814Y012860D01*
X044713Y012759D01*
X044626Y012549D01*
X044626Y012323D01*
X044713Y012113D01*
X044873Y011953D01*
X045082Y011866D01*
X045309Y011866D01*
X045519Y011953D01*
X045679Y012113D01*
X045766Y012323D01*
X045766Y012549D01*
X045679Y012759D01*
X045578Y012860D01*
X046880Y012860D01*
X046832Y012825D01*
X046775Y012768D01*
X046728Y012703D01*
X046692Y012632D01*
X046667Y012555D01*
X046654Y012476D01*
X046654Y012454D01*
X047146Y012454D01*
X047146Y012417D01*
X047183Y012417D01*
X047183Y012454D01*
X047674Y012454D01*
X047674Y012476D01*
X047662Y012555D01*
X047637Y012632D01*
X047600Y012703D01*
X047553Y012768D01*
X047496Y012825D01*
X047448Y012860D01*
X049632Y012860D01*
X049661Y012790D01*
X050179Y013180D02*
X050180Y013181D01*
X050929Y013181D01*
X051430Y012680D01*
X051430Y011930D01*
X051430Y012680D02*
X051930Y013180D01*
X053180Y013180D01*
X053930Y012430D01*
X053533Y012092D02*
X053327Y012092D01*
X051499Y013202D02*
X051361Y013202D01*
X051203Y013360D02*
X051657Y013360D01*
X050680Y014430D02*
X050180Y013930D01*
X050180Y013929D01*
X049625Y014153D02*
X049355Y014153D01*
X049514Y014311D02*
X049657Y014311D01*
X049672Y014470D02*
X050267Y014470D01*
X050425Y014628D02*
X049831Y014628D01*
X049989Y014787D02*
X050947Y014787D01*
X051180Y014430D02*
X050680Y014430D01*
X050148Y014945D02*
X051552Y014945D01*
X051543Y014957D02*
X051599Y014884D01*
X051664Y014819D01*
X051737Y014763D01*
X051818Y014716D01*
X051903Y014681D01*
X051992Y014657D01*
X052084Y014645D01*
X053100Y014645D01*
X053100Y015270D01*
X051429Y015270D01*
X051437Y015212D01*
X051461Y015123D01*
X051496Y015038D01*
X051543Y014957D01*
X051469Y015104D02*
X050306Y015104D01*
X050465Y015262D02*
X051430Y015262D01*
X051462Y015579D02*
X050782Y015579D01*
X050940Y015738D02*
X051540Y015738D01*
X051684Y015896D02*
X051099Y015896D01*
X051257Y016055D02*
X052080Y016055D01*
X053100Y015421D02*
X050623Y015421D01*
X050035Y015738D02*
X044524Y015738D01*
X044524Y015896D02*
X050193Y015896D01*
X050352Y016055D02*
X044521Y016055D01*
X044397Y016213D02*
X045352Y016213D01*
X045132Y016372D02*
X043250Y016372D01*
X043250Y016530D02*
X045007Y016530D01*
X044942Y016689D02*
X044300Y016689D01*
X044298Y016681D02*
X044310Y016726D01*
X044310Y016920D01*
X043790Y016920D01*
X043790Y016570D01*
X044154Y016570D01*
X044199Y016582D01*
X044241Y016606D01*
X044274Y016639D01*
X044298Y016681D01*
X044310Y016847D02*
X044915Y016847D01*
X044915Y017006D02*
X044310Y017006D01*
X043790Y016847D02*
X043770Y016847D01*
X043770Y016920D02*
X043770Y016570D01*
X043406Y016570D01*
X043361Y016582D01*
X043319Y016606D01*
X043286Y016639D01*
X043262Y016681D01*
X043250Y016726D01*
X043250Y016920D01*
X043770Y016920D01*
X043770Y016689D02*
X043790Y016689D01*
X043260Y016689D02*
X043250Y016689D01*
X043250Y017006D02*
X043250Y017006D01*
X042930Y017430D02*
X042430Y017930D01*
X041580Y017930D01*
X041580Y018430D02*
X041430Y018430D01*
X041180Y018680D01*
X041180Y020430D01*
X041430Y020680D01*
X042180Y020680D01*
X042430Y020930D01*
X042430Y022430D01*
X042180Y022680D01*
X041580Y022680D01*
X042180Y022680D02*
X042430Y022930D01*
X042430Y026680D01*
X042180Y026930D01*
X041580Y026930D01*
X040930Y026930D01*
X040680Y027180D01*
X035680Y027180D01*
X035375Y027467D02*
X033324Y027467D01*
X033505Y027308D02*
X035280Y027308D01*
X035262Y027150D02*
X033663Y027150D01*
X033822Y026991D02*
X034149Y026991D01*
X034040Y026833D02*
X033980Y026833D01*
X034430Y026680D02*
X040680Y026680D01*
X040930Y026430D01*
X041580Y026430D01*
X041580Y025930D02*
X040930Y025930D01*
X040680Y026180D01*
X040180Y026180D01*
X041005Y027308D02*
X041089Y027308D01*
X040824Y027467D02*
X045036Y027467D01*
X044855Y027308D02*
X044271Y027308D01*
X044370Y027150D02*
X044697Y027150D01*
X044538Y026991D02*
X044370Y026991D01*
X044370Y026833D02*
X044380Y026833D01*
X043780Y026930D02*
X043180Y026930D01*
X042930Y026680D01*
X042930Y024430D01*
X043036Y024430D01*
X042930Y024430D02*
X042930Y022555D01*
X043180Y022555D01*
X043305Y022680D01*
X043780Y022680D01*
X044370Y022712D02*
X044509Y022712D01*
X044370Y022870D02*
X044667Y022870D01*
X044826Y023029D02*
X044301Y023029D01*
X044984Y023187D02*
X043250Y023187D01*
X043250Y023029D02*
X043259Y023029D01*
X043250Y023346D02*
X051637Y023346D01*
X051664Y023319D02*
X051737Y023263D01*
X051818Y023216D01*
X051903Y023181D01*
X051992Y023157D01*
X052084Y023145D01*
X053100Y023145D01*
X053100Y023770D01*
X053260Y023770D01*
X053260Y023930D01*
X053100Y023930D01*
X053100Y024555D01*
X052084Y024555D01*
X051992Y024543D01*
X051903Y024519D01*
X051818Y024484D01*
X051737Y024437D01*
X051664Y024381D01*
X051599Y024316D01*
X051543Y024243D01*
X051496Y024162D01*
X051461Y024077D01*
X051437Y023988D01*
X051429Y023930D01*
X053100Y023930D01*
X053100Y023770D01*
X051429Y023770D01*
X051437Y023712D01*
X051461Y023623D01*
X051496Y023538D01*
X051543Y023457D01*
X051599Y023384D01*
X051664Y023319D01*
X051516Y023504D02*
X043250Y023504D01*
X043250Y023663D02*
X051450Y023663D01*
X051436Y023980D02*
X044199Y023980D01*
X044190Y023971D02*
X044224Y024005D01*
X044247Y024046D01*
X044260Y024091D01*
X044260Y024382D01*
X043872Y024382D01*
X043872Y023935D01*
X044103Y023935D01*
X044149Y023947D01*
X044190Y023971D01*
X044260Y024138D02*
X051486Y024138D01*
X051584Y024297D02*
X044260Y024297D01*
X044260Y024614D02*
X055700Y024614D01*
X055700Y024772D02*
X048629Y024772D01*
X048787Y024931D02*
X055700Y024931D01*
X055700Y025089D02*
X048877Y025089D01*
X048943Y025248D02*
X055700Y025248D01*
X055700Y025406D02*
X048945Y025406D01*
X048945Y025565D02*
X055700Y025565D01*
X055700Y025723D02*
X048945Y025723D01*
X048945Y025882D02*
X051902Y025882D01*
X051903Y025881D02*
X051992Y025857D01*
X052084Y025845D01*
X053100Y025845D01*
X053100Y026470D01*
X053260Y026470D01*
X053260Y026630D01*
X053100Y026630D01*
X053100Y027255D01*
X052084Y027255D01*
X051992Y027243D01*
X051903Y027219D01*
X051818Y027184D01*
X051737Y027137D01*
X051664Y027081D01*
X051599Y027016D01*
X051543Y026943D01*
X051496Y026862D01*
X051461Y026777D01*
X051437Y026688D01*
X051429Y026630D01*
X053100Y026630D01*
X053100Y026470D01*
X051429Y026470D01*
X051437Y026412D01*
X051461Y026323D01*
X051496Y026238D01*
X051543Y026157D01*
X051599Y026084D01*
X051664Y026019D01*
X051737Y025963D01*
X051818Y025916D01*
X051903Y025881D01*
X051643Y026040D02*
X048945Y026040D01*
X048945Y026199D02*
X051519Y026199D01*
X051452Y026357D02*
X048945Y026357D01*
X048945Y026516D02*
X053100Y026516D01*
X053100Y026674D02*
X053260Y026674D01*
X053260Y026630D02*
X053260Y027251D01*
X053318Y027243D01*
X053407Y027219D01*
X053492Y027184D01*
X053573Y027137D01*
X053646Y027081D01*
X053711Y027016D01*
X053767Y026943D01*
X053814Y026862D01*
X053849Y026777D01*
X053873Y026688D01*
X053881Y026630D01*
X053260Y026630D01*
X053260Y026516D02*
X055653Y026516D01*
X055617Y026674D02*
X053875Y026674D01*
X053826Y026833D02*
X055542Y026833D01*
X055465Y026991D02*
X053730Y026991D01*
X053552Y027150D02*
X055339Y027150D01*
X055188Y027308D02*
X047255Y027308D01*
X047413Y027150D02*
X047858Y027150D01*
X047634Y026991D02*
X047572Y026991D01*
X047142Y026516D02*
X046445Y026516D01*
X046445Y026357D02*
X047300Y026357D01*
X047415Y026199D02*
X046445Y026199D01*
X046445Y026040D02*
X047415Y026040D01*
X047415Y025882D02*
X046445Y025882D01*
X046445Y025723D02*
X047415Y025723D01*
X047415Y025565D02*
X046445Y025565D01*
X046445Y025406D02*
X047415Y025406D01*
X047417Y025248D02*
X046443Y025248D01*
X046377Y025089D02*
X047483Y025089D01*
X047573Y024931D02*
X046287Y024931D01*
X046129Y024772D02*
X047731Y024772D01*
X048180Y025930D02*
X046930Y027180D01*
X045180Y027180D01*
X044430Y026430D01*
X043780Y026430D01*
X043780Y025930D02*
X045680Y025930D01*
X044915Y025565D02*
X044310Y025565D01*
X044310Y025420D02*
X043790Y025420D01*
X043790Y025070D01*
X044154Y025070D01*
X044199Y025082D01*
X044241Y025106D01*
X044274Y025139D01*
X044298Y025181D01*
X044310Y025226D01*
X044310Y025420D01*
X044310Y025406D02*
X044915Y025406D01*
X044917Y025248D02*
X044310Y025248D01*
X044211Y025089D02*
X044983Y025089D01*
X045073Y024931D02*
X043446Y024931D01*
X043406Y025070D02*
X043361Y025082D01*
X043319Y025106D01*
X043286Y025139D01*
X043262Y025181D01*
X043250Y025226D01*
X043250Y025420D01*
X043770Y025420D01*
X043770Y025070D01*
X043406Y025070D01*
X043349Y025089D02*
X043250Y025089D01*
X043250Y025565D02*
X043250Y025565D01*
X043770Y025406D02*
X043790Y025406D01*
X043790Y025248D02*
X043770Y025248D01*
X043770Y025089D02*
X043790Y025089D01*
X043776Y024772D02*
X043872Y024772D01*
X043872Y024614D02*
X043776Y024614D01*
X043872Y024455D02*
X051768Y024455D01*
X053100Y024455D02*
X053260Y024455D01*
X053260Y024551D02*
X053260Y023930D01*
X053881Y023930D01*
X053873Y023988D01*
X053849Y024077D01*
X053814Y024162D01*
X053767Y024243D01*
X053711Y024316D01*
X053646Y024381D01*
X053573Y024437D01*
X053492Y024484D01*
X053407Y024519D01*
X053318Y024543D01*
X053260Y024551D01*
X053260Y024297D02*
X053100Y024297D01*
X053100Y024138D02*
X053260Y024138D01*
X053260Y023980D02*
X053100Y023980D01*
X053100Y023821D02*
X043250Y023821D01*
X043776Y023980D02*
X043872Y023980D01*
X043872Y024138D02*
X043776Y024138D01*
X043776Y024297D02*
X043872Y024297D01*
X044259Y024772D02*
X045231Y024772D01*
X046417Y026674D02*
X046983Y026674D01*
X046825Y026833D02*
X046352Y026833D01*
X047074Y027467D02*
X054989Y027467D01*
X054637Y027625D02*
X001973Y027625D01*
X006572Y025723D02*
X006784Y025723D01*
X007572Y025723D02*
X007784Y025723D01*
X002720Y021602D02*
X000910Y021602D01*
X000910Y021444D02*
X002561Y021444D01*
X002490Y021285D02*
X000910Y021285D01*
X000910Y021127D02*
X002490Y021127D01*
X002530Y020968D02*
X000910Y020968D01*
X000910Y020810D02*
X002688Y020810D01*
X002769Y020176D02*
X003091Y020176D01*
X002933Y020017D02*
X002927Y020017D01*
X003769Y020176D02*
X004091Y020176D01*
X003933Y020017D02*
X003927Y020017D01*
X004769Y020176D02*
X005091Y020176D01*
X004933Y020017D02*
X004927Y020017D01*
X005769Y020176D02*
X006091Y020176D01*
X005933Y020017D02*
X005927Y020017D01*
X006769Y020176D02*
X007091Y020176D01*
X006933Y020017D02*
X006927Y020017D01*
X007769Y020176D02*
X008091Y020176D01*
X007933Y020017D02*
X007927Y020017D01*
X008769Y020176D02*
X009091Y020176D01*
X008933Y020017D02*
X008927Y020017D01*
X009769Y020176D02*
X010091Y020176D01*
X009933Y020017D02*
X009927Y020017D01*
X010769Y020176D02*
X011091Y020176D01*
X010933Y020017D02*
X010927Y020017D01*
X011769Y020176D02*
X012091Y020176D01*
X011933Y020017D02*
X011927Y020017D01*
X012769Y020176D02*
X013091Y020176D01*
X012933Y020017D02*
X012927Y020017D01*
X013769Y020176D02*
X014091Y020176D01*
X013933Y020017D02*
X013927Y020017D01*
X014769Y020176D02*
X015091Y020176D01*
X014933Y020017D02*
X014927Y020017D01*
X015769Y020176D02*
X016091Y020176D01*
X015933Y020017D02*
X015927Y020017D01*
X017020Y019700D02*
X017151Y019700D01*
X017011Y019542D02*
X017309Y019542D01*
X017468Y019383D02*
X016946Y019383D01*
X016809Y019225D02*
X017626Y019225D01*
X017785Y019066D02*
X016878Y019066D01*
X016974Y018908D02*
X017943Y018908D01*
X018102Y018749D02*
X017020Y018749D01*
X017020Y018591D02*
X018260Y018591D01*
X018419Y018432D02*
X016966Y018432D01*
X016858Y018274D02*
X018577Y018274D01*
X018736Y018115D02*
X016829Y018115D01*
X016954Y017957D02*
X018894Y017957D01*
X019053Y017798D02*
X017020Y017798D01*
X017020Y017640D02*
X019211Y017640D01*
X019080Y017164D02*
X018780Y017164D01*
X018080Y017164D02*
X017780Y017164D01*
X017080Y017164D02*
X016780Y017164D01*
X016907Y017323D02*
X025278Y017323D01*
X025320Y017164D02*
X024780Y017164D01*
X024934Y017006D02*
X025320Y017006D01*
X025320Y016847D02*
X024999Y016847D01*
X025020Y016689D02*
X025320Y016689D01*
X025320Y016530D02*
X025006Y016530D01*
X024941Y016372D02*
X025320Y016372D01*
X025320Y016213D02*
X024797Y016213D01*
X024890Y016055D02*
X025320Y016055D01*
X025320Y015896D02*
X024979Y015896D01*
X025020Y015738D02*
X025320Y015738D01*
X025320Y015579D02*
X025020Y015579D01*
X024961Y015421D02*
X025320Y015421D01*
X025320Y015262D02*
X024846Y015262D01*
X024841Y015104D02*
X025320Y015104D01*
X025320Y014945D02*
X024959Y014945D01*
X025020Y014787D02*
X025320Y014787D01*
X025320Y014628D02*
X025020Y014628D01*
X024981Y014470D02*
X025320Y014470D01*
X025320Y014311D02*
X024895Y014311D01*
X024792Y014153D02*
X025320Y014153D01*
X025320Y013994D02*
X024939Y013994D01*
X025004Y013836D02*
X025320Y013836D01*
X025320Y013677D02*
X025020Y013677D01*
X025002Y013519D02*
X025320Y013519D01*
X025320Y013360D02*
X024936Y013360D01*
X024786Y013202D02*
X025320Y013202D01*
X025320Y013043D02*
X024901Y013043D01*
X024984Y012885D02*
X025320Y012885D01*
X025320Y012726D02*
X025020Y012726D01*
X025020Y012568D02*
X025320Y012568D01*
X025320Y012409D02*
X024956Y012409D01*
X024835Y012251D02*
X025365Y012251D01*
X025476Y012125D02*
X025476Y012125D01*
X025509Y012092D02*
X024852Y012092D01*
X024964Y011934D02*
X025667Y011934D01*
X025826Y011775D02*
X025020Y011775D01*
X025020Y011617D02*
X025984Y011617D01*
X026143Y011458D02*
X024977Y011458D01*
X024884Y011300D02*
X026301Y011300D01*
X026460Y011141D02*
X024803Y011141D01*
X024943Y010983D02*
X026618Y010983D01*
X026777Y010824D02*
X025009Y010824D01*
X025020Y010666D02*
X026935Y010666D01*
X027094Y010507D02*
X024997Y010507D01*
X024931Y010349D02*
X027290Y010349D01*
X027125Y010476D02*
X027125Y010476D01*
X027120Y010190D02*
X026740Y010190D01*
X026913Y010032D02*
X026947Y010032D01*
X027740Y010190D02*
X028120Y010190D01*
X027947Y010032D02*
X027913Y010032D01*
X028740Y010190D02*
X029120Y010190D01*
X028947Y010032D02*
X028913Y010032D01*
X029740Y010190D02*
X030120Y010190D01*
X029947Y010032D02*
X029913Y010032D01*
X030740Y010190D02*
X031120Y010190D01*
X030947Y010032D02*
X030913Y010032D01*
X031740Y010190D02*
X032120Y010190D01*
X031947Y010032D02*
X031913Y010032D01*
X032740Y010190D02*
X033120Y010190D01*
X032947Y010032D02*
X032913Y010032D01*
X033740Y010190D02*
X034120Y010190D01*
X033947Y010032D02*
X033913Y010032D01*
X034740Y010190D02*
X035120Y010190D01*
X034947Y010032D02*
X034913Y010032D01*
X035740Y010190D02*
X036161Y010190D01*
X036319Y010032D02*
X035913Y010032D01*
X035989Y009873D02*
X036478Y009873D01*
X036636Y009715D02*
X036020Y009715D01*
X036017Y009556D02*
X036795Y009556D01*
X036953Y009398D02*
X035952Y009398D01*
X035823Y009239D02*
X037112Y009239D01*
X037270Y009081D02*
X035864Y009081D01*
X035968Y008922D02*
X037429Y008922D01*
X037587Y008764D02*
X036020Y008764D01*
X036020Y008605D02*
X037774Y008605D01*
X037625Y008726D02*
X037625Y008726D01*
X035972Y008447D02*
X039320Y008447D01*
X039320Y008288D02*
X035872Y008288D01*
X035815Y008130D02*
X039320Y008130D01*
X039320Y007971D02*
X035948Y007971D01*
X036014Y007813D02*
X039320Y007813D01*
X039320Y007654D02*
X036020Y007654D01*
X035992Y007496D02*
X039320Y007496D01*
X039320Y007337D02*
X035921Y007337D01*
X035766Y007179D02*
X039320Y007179D01*
X039320Y007020D02*
X035924Y007020D01*
X035993Y006862D02*
X039320Y006862D01*
X039320Y006703D02*
X036020Y006703D01*
X036012Y006545D02*
X039320Y006545D01*
X039320Y006386D02*
X035947Y006386D01*
X035812Y006228D02*
X039320Y006228D01*
X039320Y006069D02*
X035875Y006069D01*
X035973Y005911D02*
X039320Y005911D01*
X039320Y005752D02*
X036020Y005752D01*
X036020Y005594D02*
X039320Y005594D01*
X039320Y005435D02*
X035967Y005435D01*
X035861Y005277D02*
X039320Y005277D01*
X039320Y005118D02*
X035615Y005118D01*
X035245Y005118D02*
X034615Y005118D01*
X034861Y005277D02*
X034999Y005277D01*
X034245Y005118D02*
X033615Y005118D01*
X033861Y005277D02*
X033999Y005277D01*
X033245Y005118D02*
X032615Y005118D01*
X032861Y005277D02*
X032999Y005277D01*
X032245Y005118D02*
X031615Y005118D01*
X031861Y005277D02*
X031999Y005277D01*
X031245Y005118D02*
X030615Y005118D01*
X030861Y005277D02*
X030999Y005277D01*
X030245Y005118D02*
X029615Y005118D01*
X029861Y005277D02*
X029999Y005277D01*
X029245Y005118D02*
X028615Y005118D01*
X028861Y005277D02*
X028999Y005277D01*
X028245Y005118D02*
X027615Y005118D01*
X027861Y005277D02*
X027999Y005277D01*
X027245Y005118D02*
X026615Y005118D01*
X026861Y005277D02*
X026999Y005277D01*
X026245Y005118D02*
X025615Y005118D01*
X025861Y005277D02*
X025999Y005277D01*
X025245Y005118D02*
X024615Y005118D01*
X024861Y005277D02*
X024999Y005277D01*
X024245Y005118D02*
X023615Y005118D01*
X023861Y005277D02*
X023999Y005277D01*
X023245Y005118D02*
X022615Y005118D01*
X022861Y005277D02*
X022999Y005277D01*
X022245Y005118D02*
X021615Y005118D01*
X021861Y005277D02*
X021999Y005277D01*
X021245Y005118D02*
X020615Y005118D01*
X020861Y005277D02*
X020999Y005277D01*
X020245Y005118D02*
X019615Y005118D01*
X019861Y005277D02*
X019999Y005277D01*
X019245Y005118D02*
X018615Y005118D01*
X018861Y005277D02*
X018999Y005277D01*
X018245Y005118D02*
X017615Y005118D01*
X017861Y005277D02*
X017999Y005277D01*
X017245Y005118D02*
X016615Y005118D01*
X016861Y005277D02*
X016999Y005277D01*
X016245Y005118D02*
X015615Y005118D01*
X015861Y005277D02*
X015999Y005277D01*
X015245Y005118D02*
X014615Y005118D01*
X014861Y005277D02*
X014999Y005277D01*
X014245Y005118D02*
X013615Y005118D01*
X013861Y005277D02*
X013999Y005277D01*
X013245Y005118D02*
X012615Y005118D01*
X012861Y005277D02*
X012999Y005277D01*
X012245Y005118D02*
X011615Y005118D01*
X011861Y005277D02*
X011999Y005277D01*
X011245Y005118D02*
X010615Y005118D01*
X010861Y005277D02*
X010999Y005277D01*
X010245Y005118D02*
X009615Y005118D01*
X009861Y005277D02*
X009999Y005277D01*
X009245Y005118D02*
X008615Y005118D01*
X008861Y005277D02*
X008999Y005277D01*
X008245Y005118D02*
X007615Y005118D01*
X007861Y005277D02*
X007999Y005277D01*
X007245Y005118D02*
X006615Y005118D01*
X006861Y005277D02*
X006999Y005277D01*
X006245Y005118D02*
X005615Y005118D01*
X005861Y005277D02*
X005999Y005277D01*
X005245Y005118D02*
X004615Y005118D01*
X004861Y005277D02*
X004999Y005277D01*
X004245Y005118D02*
X003615Y005118D01*
X003861Y005277D02*
X003999Y005277D01*
X003245Y005118D02*
X002615Y005118D01*
X002861Y005277D02*
X002999Y005277D01*
X024774Y010190D02*
X025120Y010190D01*
X024947Y010032D02*
X024913Y010032D01*
X025740Y010190D02*
X026120Y010190D01*
X025947Y010032D02*
X025913Y010032D01*
X029582Y013540D02*
X029667Y013575D01*
X029702Y013610D01*
X029869Y013610D01*
X029986Y013659D01*
X030236Y013909D01*
X030326Y013999D01*
X030375Y014116D01*
X030375Y014375D01*
X030483Y014375D01*
X030571Y014412D01*
X030638Y014479D01*
X030675Y014567D01*
X030675Y015293D01*
X030638Y015381D01*
X030571Y015448D01*
X030483Y015485D01*
X029875Y015485D01*
X029805Y015456D01*
X029735Y015485D01*
X029329Y015485D01*
X029120Y015693D01*
X029151Y015685D01*
X029383Y015685D01*
X029383Y016132D01*
X029479Y016132D01*
X029479Y015685D01*
X029711Y015685D01*
X029752Y015696D01*
X029787Y015662D01*
X029875Y015625D01*
X030483Y015625D01*
X030571Y015662D01*
X030638Y015729D01*
X030675Y015817D01*
X030675Y015860D01*
X030744Y015860D01*
X030861Y015909D01*
X030930Y015977D01*
X030946Y015962D01*
X030914Y015948D01*
X030847Y015881D01*
X030810Y015793D01*
X030810Y015067D01*
X030847Y014979D01*
X030914Y014912D01*
X031002Y014875D01*
X031610Y014875D01*
X031680Y014904D01*
X031750Y014875D01*
X032358Y014875D01*
X032446Y014912D01*
X032513Y014979D01*
X032550Y015067D01*
X032550Y015793D01*
X032513Y015881D01*
X032446Y015948D01*
X032414Y015962D01*
X032465Y016013D01*
X032514Y016131D01*
X032514Y016213D01*
X032566Y016234D01*
X032567Y016235D01*
X032987Y016235D01*
X032987Y015701D01*
X033024Y015613D01*
X033091Y015545D01*
X033180Y015509D01*
X034456Y015509D01*
X034544Y015545D01*
X034612Y015613D01*
X034648Y015701D01*
X034648Y018159D01*
X034612Y018247D01*
X034544Y018315D01*
X034456Y018351D01*
X033461Y018351D01*
X033111Y018701D01*
X032994Y018750D01*
X032550Y018750D01*
X032550Y018793D01*
X032513Y018881D01*
X032446Y018948D01*
X032358Y018985D01*
X031750Y018985D01*
X031680Y018956D01*
X031610Y018985D01*
X031002Y018985D01*
X030914Y018948D01*
X030847Y018881D01*
X030810Y018793D01*
X030810Y018067D01*
X030847Y017979D01*
X030914Y017912D01*
X030946Y017898D01*
X030930Y017883D01*
X030861Y017951D01*
X030744Y018000D01*
X030695Y018000D01*
X030695Y018043D01*
X030658Y018131D01*
X030591Y018198D01*
X030502Y018235D01*
X029895Y018235D01*
X029807Y018198D01*
X029759Y018150D01*
X029737Y018163D01*
X029691Y018175D01*
X029459Y018175D01*
X029459Y017728D01*
X029363Y017728D01*
X029363Y018175D01*
X029132Y018175D01*
X029086Y018163D01*
X029045Y018139D01*
X029011Y018105D01*
X029000Y018086D01*
X029000Y018797D01*
X029201Y018999D01*
X029250Y019116D01*
X029250Y019360D01*
X034994Y019360D01*
X035054Y019385D01*
X035114Y019360D01*
X038047Y019360D01*
X039116Y018291D01*
X038622Y018291D01*
X038622Y017010D01*
X038462Y017010D01*
X038462Y016850D01*
X037772Y016850D01*
X037772Y015791D01*
X036750Y016813D01*
X036750Y017408D01*
X036785Y017443D01*
X036848Y017597D01*
X036848Y017763D01*
X036785Y017917D01*
X036667Y018035D01*
X036513Y018098D01*
X036347Y018098D01*
X036193Y018035D01*
X036075Y017917D01*
X036012Y017763D01*
X036012Y017597D01*
X036075Y017443D01*
X036110Y017408D01*
X036110Y016616D01*
X036159Y016499D01*
X036249Y016409D01*
X040157Y012500D01*
X040063Y012500D01*
X035750Y016813D01*
X035750Y018408D01*
X035785Y018443D01*
X035848Y018597D01*
X035848Y018763D01*
X035785Y018917D01*
X035667Y019035D01*
X035513Y019098D01*
X035347Y019098D01*
X035193Y019035D01*
X035075Y018917D01*
X035012Y018763D01*
X035012Y018597D01*
X035075Y018443D01*
X035110Y018408D01*
X035110Y016616D01*
X035159Y016499D01*
X039659Y011999D01*
X039659Y011999D01*
X039749Y011909D01*
X039866Y011860D01*
X042297Y011860D01*
X042610Y011547D01*
X042610Y007452D01*
X042575Y007417D01*
X042540Y007332D01*
X042540Y011002D01*
X042485Y011134D01*
X042384Y011235D01*
X041884Y011735D01*
X041752Y011790D01*
X039829Y011790D01*
X038134Y013485D01*
X038002Y013540D01*
X029582Y013540D01*
X029430Y013930D02*
X029805Y013930D01*
X030055Y014180D01*
X030055Y014929D01*
X030179Y014930D01*
X030675Y014945D02*
X030881Y014945D01*
X030810Y015104D02*
X030675Y015104D01*
X030675Y015262D02*
X030810Y015262D01*
X030810Y015421D02*
X030599Y015421D01*
X030810Y015579D02*
X029235Y015579D01*
X029383Y015738D02*
X029479Y015738D01*
X029479Y015896D02*
X029383Y015896D01*
X029383Y016055D02*
X029479Y016055D01*
X029479Y016228D02*
X029383Y016228D01*
X029383Y016675D01*
X029151Y016675D01*
X029106Y016663D01*
X029065Y016639D01*
X029031Y016605D01*
X029007Y016564D01*
X029000Y016537D01*
X029000Y017274D01*
X029011Y017255D01*
X029045Y017221D01*
X029086Y017197D01*
X029132Y017185D01*
X029363Y017185D01*
X029363Y017632D01*
X029459Y017632D01*
X029459Y017185D01*
X029691Y017185D01*
X029737Y017197D01*
X029759Y017210D01*
X029807Y017162D01*
X029895Y017125D01*
X030502Y017125D01*
X030591Y017162D01*
X030658Y017229D01*
X030664Y017243D01*
X030690Y017218D01*
X030690Y017138D01*
X030726Y017050D01*
X030750Y017026D01*
X030750Y016930D01*
X030750Y016834D01*
X030726Y016810D01*
X030690Y016722D01*
X030690Y016642D01*
X030650Y016603D01*
X030638Y016631D01*
X030571Y016698D01*
X030483Y016735D01*
X029875Y016735D01*
X029787Y016698D01*
X029752Y016664D01*
X029711Y016675D01*
X029479Y016675D01*
X029479Y016228D01*
X029479Y016372D02*
X029383Y016372D01*
X029383Y016530D02*
X029479Y016530D01*
X029777Y016689D02*
X029000Y016689D01*
X029000Y016847D02*
X030750Y016847D01*
X030750Y016930D02*
X031166Y016930D01*
X031582Y016930D01*
X031582Y017026D01*
X031606Y017050D01*
X031642Y017138D01*
X031642Y017470D01*
X031606Y017558D01*
X031558Y017606D01*
X031577Y017625D01*
X031626Y017742D01*
X031626Y017882D01*
X031680Y017904D01*
X031750Y017875D01*
X032308Y017875D01*
X032262Y017763D01*
X032262Y017714D01*
X032210Y017662D01*
X031910Y017662D01*
X031822Y017626D01*
X031754Y017558D01*
X031718Y017470D01*
X031718Y017138D01*
X031754Y017050D01*
X031822Y016982D01*
X031910Y016946D01*
X032478Y016946D01*
X032566Y016982D01*
X032634Y017050D01*
X032670Y017138D01*
X032670Y017218D01*
X032714Y017262D01*
X032763Y017262D01*
X032917Y017325D01*
X032987Y017396D01*
X032987Y016875D01*
X032569Y016875D01*
X032566Y016878D01*
X032478Y016914D01*
X031910Y016914D01*
X031822Y016878D01*
X031754Y016810D01*
X031718Y016722D01*
X031718Y016390D01*
X031754Y016302D01*
X031802Y016254D01*
X031784Y016236D01*
X031735Y016119D01*
X031735Y015979D01*
X031680Y015956D01*
X031626Y015978D01*
X031626Y016118D01*
X031577Y016235D01*
X031558Y016254D01*
X031606Y016302D01*
X031642Y016390D01*
X031642Y016722D01*
X031606Y016810D01*
X031582Y016834D01*
X031582Y016930D01*
X031166Y016930D01*
X031166Y016930D01*
X031166Y016930D01*
X030750Y016930D01*
X030750Y017006D02*
X029000Y017006D01*
X029000Y017164D02*
X029804Y017164D01*
X029459Y017323D02*
X029363Y017323D01*
X029363Y017481D02*
X029459Y017481D01*
X029459Y017798D02*
X029363Y017798D01*
X029363Y017957D02*
X029459Y017957D01*
X029459Y018115D02*
X029363Y018115D01*
X029021Y018115D02*
X029000Y018115D01*
X029000Y018274D02*
X030810Y018274D01*
X030810Y018432D02*
X029000Y018432D01*
X029000Y018591D02*
X030810Y018591D01*
X030810Y018749D02*
X029000Y018749D01*
X029110Y018908D02*
X030873Y018908D01*
X031306Y018430D02*
X031306Y017806D01*
X031180Y017680D01*
X031180Y017318D01*
X031166Y017304D01*
X031056Y017304D01*
X030680Y017680D01*
X030199Y017680D01*
X030665Y018115D02*
X030810Y018115D01*
X030849Y017957D02*
X030869Y017957D01*
X031626Y017798D02*
X032276Y017798D01*
X032680Y017680D02*
X032304Y017304D01*
X032194Y017304D01*
X031718Y017323D02*
X031642Y017323D01*
X031637Y017481D02*
X031723Y017481D01*
X031856Y017640D02*
X031583Y017640D01*
X031642Y017164D02*
X031718Y017164D01*
X031799Y017006D02*
X031582Y017006D01*
X031582Y016847D02*
X031791Y016847D01*
X031718Y016689D02*
X031642Y016689D01*
X031642Y016530D02*
X031718Y016530D01*
X031726Y016372D02*
X031634Y016372D01*
X031586Y016213D02*
X031774Y016213D01*
X031735Y016055D02*
X031626Y016055D01*
X031306Y016054D02*
X031180Y016180D01*
X031180Y016542D01*
X031166Y016556D01*
X031056Y016556D01*
X030680Y016180D01*
X030179Y016180D01*
X030581Y016689D02*
X030690Y016689D01*
X030690Y017164D02*
X030593Y017164D01*
X032194Y016556D02*
X032194Y016194D01*
X032055Y016055D01*
X032055Y015431D01*
X032054Y015430D01*
X032550Y015421D02*
X036237Y015421D01*
X036078Y015579D02*
X034578Y015579D01*
X034648Y015738D02*
X035920Y015738D01*
X035761Y015896D02*
X034648Y015896D01*
X034648Y016055D02*
X035603Y016055D01*
X035444Y016213D02*
X034648Y016213D01*
X034648Y016372D02*
X035286Y016372D01*
X035146Y016530D02*
X034648Y016530D01*
X034648Y016689D02*
X035110Y016689D01*
X035110Y016847D02*
X034648Y016847D01*
X034648Y017006D02*
X035110Y017006D01*
X035110Y017164D02*
X034648Y017164D01*
X034648Y017323D02*
X035110Y017323D01*
X035110Y017481D02*
X034648Y017481D01*
X034648Y017640D02*
X035110Y017640D01*
X035110Y017798D02*
X034648Y017798D01*
X034648Y017957D02*
X035110Y017957D01*
X035110Y018115D02*
X034648Y018115D01*
X034585Y018274D02*
X035110Y018274D01*
X035086Y018432D02*
X033381Y018432D01*
X033222Y018591D02*
X035014Y018591D01*
X035012Y018749D02*
X032996Y018749D01*
X032930Y018430D02*
X032054Y018430D01*
X032930Y018430D02*
X033430Y017930D01*
X033430Y017318D01*
X033818Y016930D01*
X033818Y016792D01*
X033930Y016680D01*
X033805Y016555D01*
X032195Y016555D01*
X032194Y016556D01*
X032515Y016213D02*
X032987Y016213D01*
X032987Y016055D02*
X032483Y016055D01*
X032498Y015896D02*
X032987Y015896D01*
X032987Y015738D02*
X032550Y015738D01*
X032550Y015579D02*
X033058Y015579D01*
X032550Y015262D02*
X036395Y015262D01*
X036554Y015104D02*
X032550Y015104D01*
X032479Y014945D02*
X036712Y014945D01*
X036871Y014787D02*
X030675Y014787D01*
X030675Y014628D02*
X037029Y014628D01*
X037188Y014470D02*
X030629Y014470D01*
X030375Y014311D02*
X037346Y014311D01*
X037505Y014153D02*
X030375Y014153D01*
X030322Y013994D02*
X037663Y013994D01*
X037822Y013836D02*
X030163Y013836D01*
X030005Y013677D02*
X037980Y013677D01*
X038053Y013519D02*
X038139Y013519D01*
X038259Y013360D02*
X038297Y013360D01*
X038418Y013202D02*
X038456Y013202D01*
X038576Y013043D02*
X038614Y013043D01*
X038735Y012885D02*
X038773Y012885D01*
X038893Y012726D02*
X038931Y012726D01*
X039052Y012568D02*
X039090Y012568D01*
X039210Y012409D02*
X039248Y012409D01*
X039369Y012251D02*
X039407Y012251D01*
X039527Y012092D02*
X039565Y012092D01*
X039686Y011934D02*
X039724Y011934D01*
X039930Y012180D02*
X042430Y012180D01*
X042930Y011680D01*
X042930Y007180D01*
X043317Y007020D02*
X044700Y007020D01*
X044634Y006862D02*
X043203Y006862D01*
X043348Y007179D02*
X044841Y007179D01*
X045551Y007179D02*
X045825Y007179D01*
X046281Y007337D02*
X043318Y007337D01*
X043250Y007496D02*
X046439Y007496D01*
X046430Y007680D02*
X045680Y007680D01*
X045389Y008130D02*
X043250Y008130D01*
X043250Y008288D02*
X045286Y008288D01*
X045262Y008447D02*
X043250Y008447D01*
X043250Y008605D02*
X045300Y008605D01*
X045360Y008764D02*
X043250Y008764D01*
X043250Y008922D02*
X045360Y008922D01*
X045360Y009081D02*
X043250Y009081D01*
X043250Y009239D02*
X045360Y009239D01*
X045360Y009398D02*
X043250Y009398D01*
X043250Y009556D02*
X045360Y009556D01*
X045360Y009715D02*
X043250Y009715D01*
X043250Y009873D02*
X045360Y009873D01*
X045360Y010032D02*
X043250Y010032D01*
X043250Y010190D02*
X045360Y010190D01*
X045360Y010349D02*
X043250Y010349D01*
X043250Y010507D02*
X045360Y010507D01*
X045242Y010666D02*
X043250Y010666D01*
X043250Y010824D02*
X045083Y010824D01*
X044925Y010983D02*
X043250Y010983D01*
X043250Y011141D02*
X044766Y011141D01*
X044608Y011300D02*
X043250Y011300D01*
X043250Y011458D02*
X044449Y011458D01*
X044291Y011617D02*
X043250Y011617D01*
X043237Y011775D02*
X044132Y011775D01*
X043974Y011934D02*
X043129Y011934D01*
X042971Y012092D02*
X043815Y012092D01*
X043657Y012251D02*
X042812Y012251D01*
X042382Y011775D02*
X041788Y011775D01*
X042003Y011617D02*
X042541Y011617D01*
X042610Y011458D02*
X042161Y011458D01*
X042320Y011300D02*
X042610Y011300D01*
X042610Y011141D02*
X042478Y011141D01*
X042540Y010983D02*
X042610Y010983D01*
X042610Y010824D02*
X042540Y010824D01*
X042540Y010666D02*
X042610Y010666D01*
X042610Y010507D02*
X042540Y010507D01*
X042540Y010349D02*
X042610Y010349D01*
X042610Y010190D02*
X042540Y010190D01*
X042540Y010032D02*
X042610Y010032D01*
X042610Y009873D02*
X042540Y009873D01*
X042540Y009715D02*
X042610Y009715D01*
X042610Y009556D02*
X042540Y009556D01*
X042540Y009398D02*
X042610Y009398D01*
X042610Y009239D02*
X042540Y009239D01*
X042540Y009081D02*
X042610Y009081D01*
X042610Y008922D02*
X042540Y008922D01*
X042540Y008764D02*
X042610Y008764D01*
X042610Y008605D02*
X042540Y008605D01*
X042540Y008447D02*
X042610Y008447D01*
X042610Y008288D02*
X042540Y008288D01*
X042540Y008130D02*
X042610Y008130D01*
X042610Y007971D02*
X042540Y007971D01*
X042540Y007813D02*
X042610Y007813D01*
X042610Y007654D02*
X042540Y007654D01*
X042540Y007496D02*
X042610Y007496D01*
X042542Y007337D02*
X042540Y007337D01*
X042540Y007020D02*
X042543Y007020D01*
X042540Y006862D02*
X042657Y006862D01*
X042666Y006703D02*
X044626Y006703D01*
X044654Y006545D02*
X042825Y006545D01*
X042983Y006386D02*
X044731Y006386D01*
X047183Y006709D02*
X047183Y006746D01*
X047674Y006746D01*
X047674Y006767D01*
X047662Y006847D01*
X047637Y006923D01*
X047600Y006995D01*
X047553Y007059D01*
X047496Y007116D01*
X047432Y007163D01*
X047360Y007200D01*
X047284Y007225D01*
X047204Y007237D01*
X047199Y007237D01*
X047782Y007820D01*
X049060Y007820D01*
X049060Y007817D01*
X049097Y007729D01*
X049164Y007662D01*
X049252Y007625D01*
X049860Y007625D01*
X049930Y007654D01*
X049944Y007648D01*
X049944Y007462D01*
X049930Y007456D01*
X049860Y007485D01*
X049252Y007485D01*
X049164Y007448D01*
X049097Y007381D01*
X049060Y007293D01*
X049060Y007290D01*
X048904Y007290D01*
X048763Y007348D01*
X048597Y007348D01*
X048443Y007285D01*
X048325Y007167D01*
X048262Y007013D01*
X048262Y006847D01*
X048325Y006693D01*
X048443Y006575D01*
X048597Y006512D01*
X048763Y006512D01*
X048904Y006570D01*
X049060Y006570D01*
X049060Y006567D01*
X049097Y006479D01*
X049164Y006412D01*
X049252Y006375D01*
X049860Y006375D01*
X049930Y006404D01*
X050000Y006375D01*
X050366Y006375D01*
X050281Y006290D01*
X047429Y006290D01*
X047432Y006291D01*
X047496Y006338D01*
X047553Y006395D01*
X047600Y006460D01*
X047637Y006531D01*
X047662Y006608D01*
X047674Y006687D01*
X047674Y006709D01*
X047183Y006709D01*
X047544Y006386D02*
X049226Y006386D01*
X049070Y006545D02*
X048843Y006545D01*
X048517Y006545D02*
X047641Y006545D01*
X047674Y006703D02*
X048321Y006703D01*
X048262Y006862D02*
X047657Y006862D01*
X047582Y007020D02*
X048264Y007020D01*
X048337Y007179D02*
X047402Y007179D01*
X047299Y007337D02*
X048569Y007337D01*
X048791Y007337D02*
X049078Y007337D01*
X049944Y007496D02*
X047457Y007496D01*
X047616Y007654D02*
X049182Y007654D01*
X049062Y007813D02*
X047774Y007813D01*
X047073Y008130D02*
X045971Y008130D01*
X046074Y008288D02*
X047232Y008288D01*
X047164Y008414D02*
X046430Y007680D01*
X046598Y007654D02*
X043250Y007654D01*
X043250Y007813D02*
X046756Y007813D01*
X046915Y007971D02*
X043250Y007971D01*
X045680Y008430D02*
X045680Y010680D01*
X043680Y012680D01*
X040430Y012680D01*
X036430Y016680D01*
X036430Y017680D01*
X036115Y017957D02*
X035750Y017957D01*
X035750Y018115D02*
X037772Y018115D01*
X037772Y018135D02*
X037772Y017010D01*
X038462Y017010D01*
X038462Y018291D01*
X037928Y018291D01*
X037882Y018279D01*
X037841Y018255D01*
X037808Y018222D01*
X037784Y018181D01*
X037772Y018135D01*
X037873Y018274D02*
X035750Y018274D01*
X035774Y018432D02*
X038975Y018432D01*
X038817Y018591D02*
X035846Y018591D01*
X035848Y018749D02*
X038658Y018749D01*
X038500Y018908D02*
X035789Y018908D01*
X035591Y019066D02*
X038341Y019066D01*
X038183Y019225D02*
X029250Y019225D01*
X029229Y019066D02*
X035269Y019066D01*
X035071Y018908D02*
X032487Y018908D01*
X034930Y019680D02*
X035054Y019804D01*
X035178Y019680D01*
X038180Y019680D01*
X038180Y020930D01*
X037786Y021324D01*
X037180Y021324D01*
X037090Y021324D01*
X037653Y021761D02*
X040262Y021761D01*
X040262Y021602D02*
X037951Y021602D01*
X038119Y021444D02*
X040325Y021444D01*
X040360Y021285D02*
X038278Y021285D01*
X038436Y021127D02*
X040360Y021127D01*
X040360Y020968D02*
X038500Y020968D01*
X038500Y020810D02*
X040360Y020810D01*
X040360Y020651D02*
X038500Y020651D01*
X038500Y020493D02*
X040360Y020493D01*
X040360Y020334D02*
X038500Y020334D01*
X038500Y020176D02*
X040360Y020176D01*
X040360Y020017D02*
X038500Y020017D01*
X038500Y019859D02*
X040360Y019859D01*
X040360Y019700D02*
X038613Y019700D01*
X038771Y019542D02*
X040360Y019542D01*
X040360Y019383D02*
X038930Y019383D01*
X039088Y019225D02*
X040360Y019225D01*
X040360Y019066D02*
X039247Y019066D01*
X039405Y018908D02*
X040360Y018908D01*
X040360Y018749D02*
X039564Y018749D01*
X039722Y018591D02*
X040360Y018591D01*
X040360Y018432D02*
X039881Y018432D01*
X039988Y018274D02*
X040360Y018274D01*
X040360Y018115D02*
X040000Y018115D01*
X040000Y017957D02*
X040360Y017957D01*
X040360Y017798D02*
X040000Y017798D01*
X040000Y017640D02*
X040360Y017640D01*
X040426Y017481D02*
X040000Y017481D01*
X040000Y017323D02*
X040585Y017323D01*
X040743Y017164D02*
X040000Y017164D01*
X040000Y017006D02*
X040990Y017006D01*
X040990Y016847D02*
X040000Y016847D01*
X040000Y016689D02*
X040996Y016689D01*
X041134Y016530D02*
X040000Y016530D01*
X040000Y016372D02*
X042110Y016372D01*
X042110Y016530D02*
X042026Y016530D01*
X042110Y016213D02*
X040000Y016213D01*
X040000Y016055D02*
X042110Y016055D01*
X042110Y015896D02*
X040000Y015896D01*
X040000Y015738D02*
X042110Y015738D01*
X042110Y015579D02*
X040000Y015579D01*
X040000Y015421D02*
X042110Y015421D01*
X042110Y015262D02*
X040051Y015262D01*
X040209Y015104D02*
X042110Y015104D01*
X042110Y014945D02*
X040368Y014945D01*
X040526Y014787D02*
X042110Y014787D01*
X042110Y014628D02*
X040685Y014628D01*
X040843Y014470D02*
X042110Y014470D01*
X042110Y014311D02*
X041002Y014311D01*
X041160Y014153D02*
X042110Y014153D01*
X042163Y013994D02*
X041319Y013994D01*
X041477Y013836D02*
X042322Y013836D01*
X042480Y013677D02*
X041636Y013677D01*
X041794Y013519D02*
X042639Y013519D01*
X041680Y013180D02*
X050179Y013180D01*
X048217Y012726D02*
X047584Y012726D01*
X047658Y012568D02*
X048058Y012568D01*
X047900Y012409D02*
X047674Y012409D01*
X047674Y012417D02*
X047183Y012417D01*
X047183Y011926D01*
X047204Y011926D01*
X047284Y011938D01*
X047360Y011963D01*
X047432Y012000D01*
X047496Y012047D01*
X047553Y012104D01*
X047600Y012169D01*
X047637Y012240D01*
X047662Y012316D01*
X047674Y012396D01*
X047674Y012417D01*
X047640Y012251D02*
X047741Y012251D01*
X047583Y012092D02*
X047542Y012092D01*
X047424Y011934D02*
X047252Y011934D01*
X047183Y011934D02*
X047146Y011934D01*
X047146Y011926D02*
X047146Y012417D01*
X046654Y012417D01*
X046654Y012396D01*
X046667Y012316D01*
X046692Y012240D01*
X046728Y012169D01*
X046775Y012104D01*
X046832Y012047D01*
X046897Y012000D01*
X046968Y011963D01*
X047045Y011938D01*
X047124Y011926D01*
X047146Y011926D01*
X047076Y011934D02*
X045472Y011934D01*
X045658Y012092D02*
X046787Y012092D01*
X046688Y012251D02*
X045736Y012251D01*
X045766Y012409D02*
X046654Y012409D01*
X046671Y012568D02*
X045758Y012568D01*
X045693Y012726D02*
X046745Y012726D01*
X047146Y012409D02*
X047183Y012409D01*
X047183Y012251D02*
X047146Y012251D01*
X047146Y012092D02*
X047183Y012092D01*
X047266Y011775D02*
X045038Y011775D01*
X044919Y011934D02*
X044879Y011934D01*
X044734Y012092D02*
X044721Y012092D01*
X044656Y012251D02*
X044562Y012251D01*
X044626Y012409D02*
X044404Y012409D01*
X044245Y012568D02*
X044633Y012568D01*
X044699Y012726D02*
X044087Y012726D01*
X045196Y011617D02*
X047107Y011617D01*
X046949Y011458D02*
X045355Y011458D01*
X045513Y011300D02*
X046840Y011300D01*
X046820Y011141D02*
X045672Y011141D01*
X045830Y010983D02*
X046820Y010983D01*
X046820Y010824D02*
X045967Y010824D01*
X046000Y010666D02*
X046820Y010666D01*
X046820Y010507D02*
X046000Y010507D01*
X046000Y010349D02*
X046824Y010349D01*
X046911Y010190D02*
X046000Y010190D01*
X046000Y010032D02*
X047069Y010032D01*
X047228Y009873D02*
X046000Y009873D01*
X046000Y009715D02*
X047273Y009715D01*
X047273Y009556D02*
X046000Y009556D01*
X046000Y009398D02*
X047273Y009398D01*
X047273Y009239D02*
X046000Y009239D01*
X046000Y009081D02*
X047273Y009081D01*
X047273Y008922D02*
X046000Y008922D01*
X046000Y008764D02*
X047273Y008764D01*
X047273Y008605D02*
X046060Y008605D01*
X046098Y008447D02*
X047273Y008447D01*
X049930Y007654D02*
X049930Y007654D01*
X049886Y006386D02*
X049974Y006386D01*
X054185Y005911D02*
X054610Y005911D01*
X054610Y006069D02*
X054304Y006069D01*
X054450Y006228D02*
X054610Y006228D01*
X054610Y006386D02*
X054450Y006386D01*
X054450Y006545D02*
X054610Y006545D01*
X054610Y006703D02*
X054392Y006703D01*
X054234Y006862D02*
X054610Y006862D01*
X054610Y007020D02*
X054255Y007020D01*
X054414Y007179D02*
X054610Y007179D01*
X054610Y007337D02*
X054450Y007337D01*
X054450Y007496D02*
X054610Y007496D01*
X054610Y007654D02*
X054441Y007654D01*
X054283Y007813D02*
X054610Y007813D01*
X054610Y007971D02*
X054206Y007971D01*
X054365Y008130D02*
X054610Y008130D01*
X054610Y008288D02*
X054450Y008288D01*
X054450Y008447D02*
X054610Y008447D01*
X054610Y008605D02*
X054450Y008605D01*
X054332Y008764D02*
X054610Y008764D01*
X054610Y008922D02*
X054173Y008922D01*
X054316Y009081D02*
X054610Y009081D01*
X054610Y009239D02*
X054450Y009239D01*
X054450Y009398D02*
X054610Y009398D01*
X054610Y009556D02*
X054450Y009556D01*
X054381Y009715D02*
X054610Y009715D01*
X054610Y009873D02*
X054222Y009873D01*
X054267Y010032D02*
X054610Y010032D01*
X054610Y010190D02*
X054425Y010190D01*
X054450Y010349D02*
X054610Y010349D01*
X054610Y010507D02*
X054450Y010507D01*
X054430Y010666D02*
X054610Y010666D01*
X054610Y010824D02*
X054271Y010824D01*
X053930Y010430D02*
X053430Y010930D01*
X053430Y009930D02*
X051430Y009930D01*
X050430Y010930D01*
X047930Y010930D01*
X053430Y009930D02*
X053930Y009430D01*
X054343Y005752D02*
X054610Y005752D01*
X054610Y005594D02*
X054450Y005594D01*
X054450Y005435D02*
X054482Y005435D01*
X040090Y012568D02*
X039995Y012568D01*
X039931Y012726D02*
X039837Y012726D01*
X039773Y012885D02*
X039678Y012885D01*
X039614Y013043D02*
X039520Y013043D01*
X039456Y013202D02*
X039361Y013202D01*
X039297Y013360D02*
X039203Y013360D01*
X039139Y013519D02*
X039044Y013519D01*
X038980Y013677D02*
X038886Y013677D01*
X038822Y013836D02*
X038727Y013836D01*
X038663Y013994D02*
X038569Y013994D01*
X038505Y014153D02*
X038410Y014153D01*
X038346Y014311D02*
X038252Y014311D01*
X038188Y014470D02*
X038093Y014470D01*
X038029Y014628D02*
X037935Y014628D01*
X037871Y014787D02*
X037776Y014787D01*
X037712Y014945D02*
X037618Y014945D01*
X037554Y015104D02*
X037459Y015104D01*
X037395Y015262D02*
X037301Y015262D01*
X037237Y015421D02*
X037142Y015421D01*
X037078Y015579D02*
X036984Y015579D01*
X036920Y015738D02*
X036825Y015738D01*
X036761Y015896D02*
X036667Y015896D01*
X036603Y016055D02*
X036508Y016055D01*
X036444Y016213D02*
X036350Y016213D01*
X036286Y016372D02*
X036191Y016372D01*
X036146Y016530D02*
X036033Y016530D01*
X036110Y016689D02*
X035874Y016689D01*
X035750Y016847D02*
X036110Y016847D01*
X036110Y017006D02*
X035750Y017006D01*
X035750Y017164D02*
X036110Y017164D01*
X036110Y017323D02*
X035750Y017323D01*
X035750Y017481D02*
X036060Y017481D01*
X036012Y017640D02*
X035750Y017640D01*
X035750Y017798D02*
X036026Y017798D01*
X036745Y017957D02*
X037772Y017957D01*
X037772Y017798D02*
X036834Y017798D01*
X036848Y017640D02*
X037772Y017640D01*
X037772Y017481D02*
X036800Y017481D01*
X036750Y017323D02*
X037772Y017323D01*
X037772Y017164D02*
X036750Y017164D01*
X036750Y017006D02*
X038462Y017006D01*
X038462Y016850D02*
X038622Y016850D01*
X038622Y015569D01*
X039156Y015569D01*
X039202Y015581D01*
X039243Y015605D01*
X039277Y015638D01*
X039300Y015679D01*
X039313Y015725D01*
X039313Y016850D01*
X038622Y016850D01*
X038622Y017010D01*
X039313Y017010D01*
X039313Y018095D01*
X039360Y018047D01*
X039360Y015116D01*
X039409Y014999D01*
X039499Y014909D01*
X041407Y013000D01*
X040563Y013000D01*
X037994Y015569D01*
X038462Y015569D01*
X038462Y016850D01*
X038462Y016847D02*
X038622Y016847D01*
X038622Y016689D02*
X038462Y016689D01*
X038462Y016530D02*
X038622Y016530D01*
X038622Y016372D02*
X038462Y016372D01*
X038462Y016213D02*
X038622Y016213D01*
X038622Y016055D02*
X038462Y016055D01*
X038462Y015896D02*
X038622Y015896D01*
X038622Y015738D02*
X038462Y015738D01*
X038462Y015579D02*
X038622Y015579D01*
X038301Y015262D02*
X039360Y015262D01*
X039360Y015421D02*
X038142Y015421D01*
X038459Y015104D02*
X039365Y015104D01*
X039462Y014945D02*
X038618Y014945D01*
X038776Y014787D02*
X039621Y014787D01*
X039499Y014909D02*
X039499Y014909D01*
X039680Y015180D02*
X039680Y018180D01*
X038180Y019680D01*
X037860Y020017D02*
X035374Y020017D01*
X035460Y020176D02*
X035718Y020176D01*
X035685Y020334D02*
X035550Y020334D01*
X035550Y020493D02*
X036132Y020493D01*
X036228Y020493D02*
X037132Y020493D01*
X037228Y020493D02*
X037860Y020493D01*
X037860Y020651D02*
X037675Y020651D01*
X037675Y020810D02*
X037848Y020810D01*
X037860Y020334D02*
X037675Y020334D01*
X037642Y020176D02*
X037860Y020176D01*
X037228Y020176D02*
X037132Y020176D01*
X037132Y020334D02*
X037228Y020334D01*
X036718Y020176D02*
X036642Y020176D01*
X036675Y020334D02*
X036685Y020334D01*
X036675Y020651D02*
X036685Y020651D01*
X036675Y020810D02*
X036685Y020810D01*
X036228Y020334D02*
X036132Y020334D01*
X036132Y020176D02*
X036228Y020176D01*
X035685Y020651D02*
X035550Y020651D01*
X035550Y020810D02*
X035685Y020810D01*
X035647Y020968D02*
X035550Y020968D01*
X035515Y021127D02*
X035625Y021127D01*
X036180Y021324D02*
X036190Y021324D01*
X035358Y021919D02*
X035222Y021919D01*
X035222Y022078D02*
X035358Y022078D01*
X035358Y022236D02*
X035222Y022236D01*
X035222Y022712D02*
X035358Y022712D01*
X035358Y022870D02*
X035222Y022870D01*
X037531Y023029D02*
X037629Y023029D01*
X037625Y022870D02*
X037787Y022870D01*
X037946Y022712D02*
X037625Y022712D01*
X037625Y022553D02*
X038104Y022553D01*
X038263Y022395D02*
X037625Y022395D01*
X037625Y022236D02*
X038421Y022236D01*
X038580Y022078D02*
X037625Y022078D01*
X037593Y021919D02*
X038738Y021919D01*
X041930Y020054D02*
X042180Y020054D01*
X042181Y020055D01*
X042930Y020055D01*
X042930Y022555D01*
X043780Y022180D02*
X044430Y022180D01*
X045180Y022930D01*
X046930Y022930D01*
X048180Y021680D01*
X048945Y021602D02*
X052030Y021602D01*
X051992Y021607D02*
X052084Y021595D01*
X053100Y021595D01*
X053100Y022220D01*
X053260Y022220D01*
X053260Y022380D01*
X053100Y022380D01*
X053100Y023005D01*
X052084Y023005D01*
X051992Y022993D01*
X051903Y022969D01*
X051818Y022934D01*
X051737Y022887D01*
X051664Y022831D01*
X051599Y022766D01*
X051543Y022693D01*
X051496Y022612D01*
X051461Y022527D01*
X051437Y022438D01*
X051429Y022380D01*
X053100Y022380D01*
X053100Y022220D01*
X051429Y022220D01*
X051437Y022162D01*
X051461Y022073D01*
X051496Y021988D01*
X051543Y021907D01*
X051599Y021834D01*
X051664Y021769D01*
X051737Y021713D01*
X051818Y021666D01*
X051903Y021631D01*
X051992Y021607D01*
X051675Y021761D02*
X048945Y021761D01*
X048945Y021919D02*
X051536Y021919D01*
X051460Y022078D02*
X048945Y022078D01*
X048945Y022236D02*
X053100Y022236D01*
X053100Y022078D02*
X053260Y022078D01*
X053260Y022220D02*
X053260Y021599D01*
X053318Y021607D01*
X053407Y021631D01*
X053492Y021666D01*
X053573Y021713D01*
X053646Y021769D01*
X053711Y021834D01*
X053767Y021907D01*
X053814Y021988D01*
X053849Y022073D01*
X053873Y022162D01*
X053881Y022220D01*
X053260Y022220D01*
X053260Y022236D02*
X055700Y022236D01*
X055700Y022078D02*
X053850Y022078D01*
X053774Y021919D02*
X055700Y021919D01*
X055700Y021761D02*
X053635Y021761D01*
X053260Y021761D02*
X053100Y021761D01*
X053100Y021919D02*
X053260Y021919D01*
X053260Y021602D02*
X053100Y021602D01*
X053280Y021602D02*
X055700Y021602D01*
X055700Y021444D02*
X048945Y021444D01*
X048945Y021285D02*
X055700Y021285D01*
X055700Y021127D02*
X048945Y021127D01*
X048931Y020968D02*
X055700Y020968D01*
X055700Y020810D02*
X048865Y020810D01*
X048758Y020651D02*
X055700Y020651D01*
X055700Y020493D02*
X048580Y020493D01*
X047780Y020493D02*
X046080Y020493D01*
X046258Y020651D02*
X047602Y020651D01*
X047495Y020810D02*
X046365Y020810D01*
X046431Y020968D02*
X047429Y020968D01*
X047415Y021127D02*
X046445Y021127D01*
X046445Y021285D02*
X047415Y021285D01*
X047415Y021444D02*
X046445Y021444D01*
X046445Y021602D02*
X047415Y021602D01*
X047415Y021761D02*
X046445Y021761D01*
X046445Y021919D02*
X047415Y021919D01*
X047330Y022078D02*
X046445Y022078D01*
X046445Y022236D02*
X047171Y022236D01*
X047013Y022395D02*
X046430Y022395D01*
X046364Y022553D02*
X046854Y022553D01*
X047443Y022870D02*
X047786Y022870D01*
X047605Y022712D02*
X047601Y022712D01*
X047284Y023029D02*
X055700Y023029D01*
X055700Y023187D02*
X053422Y023187D01*
X053407Y023181D02*
X053492Y023216D01*
X053573Y023263D01*
X053646Y023319D01*
X053711Y023384D01*
X053767Y023457D01*
X053814Y023538D01*
X053849Y023623D01*
X053873Y023712D01*
X053881Y023770D01*
X053260Y023770D01*
X053260Y023149D01*
X053318Y023157D01*
X053407Y023181D01*
X053260Y023187D02*
X053100Y023187D01*
X053100Y023346D02*
X053260Y023346D01*
X053260Y023504D02*
X053100Y023504D01*
X053100Y023663D02*
X053260Y023663D01*
X053260Y023821D02*
X055700Y023821D01*
X055700Y023663D02*
X053860Y023663D01*
X053794Y023504D02*
X055700Y023504D01*
X055700Y023346D02*
X053673Y023346D01*
X053492Y022934D02*
X053407Y022969D01*
X053318Y022993D01*
X053260Y023001D01*
X053260Y022380D01*
X053881Y022380D01*
X053873Y022438D01*
X053849Y022527D01*
X053814Y022612D01*
X053767Y022693D01*
X053711Y022766D01*
X053646Y022831D01*
X053573Y022887D01*
X053492Y022934D01*
X053595Y022870D02*
X055700Y022870D01*
X055700Y022712D02*
X053753Y022712D01*
X053838Y022553D02*
X055700Y022553D01*
X055700Y022395D02*
X053879Y022395D01*
X053260Y022395D02*
X053100Y022395D01*
X053100Y022553D02*
X053260Y022553D01*
X053260Y022712D02*
X053100Y022712D01*
X053100Y022870D02*
X053260Y022870D01*
X051888Y023187D02*
X047126Y023187D01*
X048574Y022870D02*
X051715Y022870D01*
X051557Y022712D02*
X048755Y022712D01*
X048864Y022553D02*
X051472Y022553D01*
X051431Y022395D02*
X048930Y022395D01*
X045680Y021680D02*
X043780Y021680D01*
X044310Y021285D02*
X044915Y021285D01*
X044915Y021127D02*
X044310Y021127D01*
X044310Y021170D02*
X043790Y021170D01*
X043790Y020820D01*
X044154Y020820D01*
X044199Y020832D01*
X044241Y020856D01*
X044274Y020889D01*
X044298Y020931D01*
X044310Y020976D01*
X044310Y021170D01*
X044308Y020968D02*
X044929Y020968D01*
X044995Y020810D02*
X043250Y020810D01*
X043319Y020856D02*
X043361Y020832D01*
X043406Y020820D01*
X043770Y020820D01*
X043770Y021170D01*
X043250Y021170D01*
X043250Y020976D01*
X043262Y020931D01*
X043286Y020889D01*
X043319Y020856D01*
X043252Y020968D02*
X043250Y020968D01*
X043250Y020651D02*
X045102Y020651D01*
X045280Y020493D02*
X043250Y020493D01*
X043250Y020334D02*
X055700Y020334D01*
X055700Y020176D02*
X053588Y020176D01*
X053573Y020187D02*
X053492Y020234D01*
X053407Y020269D01*
X053318Y020293D01*
X053260Y020301D01*
X053260Y019680D01*
X053100Y019680D01*
X053100Y020305D01*
X052084Y020305D01*
X051992Y020293D01*
X051903Y020269D01*
X051818Y020234D01*
X051737Y020187D01*
X051664Y020131D01*
X051599Y020066D01*
X051543Y019993D01*
X051496Y019912D01*
X051461Y019827D01*
X051437Y019738D01*
X051429Y019680D01*
X053100Y019680D01*
X053100Y019520D01*
X053260Y019520D01*
X053260Y019680D01*
X053881Y019680D01*
X053873Y019738D01*
X053849Y019827D01*
X053814Y019912D01*
X053767Y019993D01*
X053711Y020066D01*
X053646Y020131D01*
X053573Y020187D01*
X053749Y020017D02*
X055700Y020017D01*
X055700Y019859D02*
X053836Y019859D01*
X053878Y019700D02*
X055700Y019700D01*
X055700Y019542D02*
X053260Y019542D01*
X053260Y019520D02*
X053881Y019520D01*
X053873Y019462D01*
X053849Y019373D01*
X053814Y019288D01*
X053767Y019207D01*
X053711Y019134D01*
X053646Y019069D01*
X053573Y019013D01*
X053492Y018966D01*
X053407Y018931D01*
X053318Y018907D01*
X053260Y018899D01*
X053260Y019520D01*
X053260Y019383D02*
X053100Y019383D01*
X053100Y019520D02*
X053100Y018895D01*
X052084Y018895D01*
X051992Y018907D01*
X051903Y018931D01*
X051818Y018966D01*
X051737Y019013D01*
X051664Y019069D01*
X051599Y019134D01*
X051543Y019207D01*
X051496Y019288D01*
X051461Y019373D01*
X051437Y019462D01*
X051429Y019520D01*
X053100Y019520D01*
X053100Y019542D02*
X044260Y019542D01*
X044260Y019383D02*
X051458Y019383D01*
X051533Y019225D02*
X044260Y019225D01*
X044260Y019066D02*
X051668Y019066D01*
X051990Y018908D02*
X047155Y018908D01*
X047314Y018749D02*
X052038Y018749D01*
X052084Y018755D02*
X051992Y018743D01*
X051903Y018719D01*
X051818Y018684D01*
X051737Y018637D01*
X051664Y018581D01*
X051599Y018516D01*
X051543Y018443D01*
X051496Y018362D01*
X051461Y018277D01*
X051437Y018188D01*
X051429Y018130D01*
X053100Y018130D01*
X053100Y018755D01*
X052084Y018755D01*
X051676Y018591D02*
X048626Y018591D01*
X048785Y018432D02*
X051536Y018432D01*
X051460Y018274D02*
X048876Y018274D01*
X048942Y018115D02*
X053100Y018115D01*
X053100Y018130D02*
X053100Y017970D01*
X053260Y017970D01*
X053260Y018130D01*
X053100Y018130D01*
X053100Y018274D02*
X053260Y018274D01*
X053260Y018130D02*
X053260Y018751D01*
X053318Y018743D01*
X053407Y018719D01*
X053492Y018684D01*
X053573Y018637D01*
X053646Y018581D01*
X053711Y018516D01*
X053767Y018443D01*
X053814Y018362D01*
X053849Y018277D01*
X053873Y018188D01*
X053881Y018130D01*
X053260Y018130D01*
X053260Y018115D02*
X055700Y018115D01*
X055700Y017957D02*
X053879Y017957D01*
X053881Y017970D02*
X053260Y017970D01*
X053260Y017349D01*
X053318Y017357D01*
X053407Y017381D01*
X053492Y017416D01*
X053573Y017463D01*
X053646Y017519D01*
X053711Y017584D01*
X053767Y017657D01*
X053814Y017738D01*
X053849Y017823D01*
X053873Y017912D01*
X053881Y017970D01*
X053839Y017798D02*
X055700Y017798D01*
X055700Y017640D02*
X053754Y017640D01*
X053597Y017481D02*
X055700Y017481D01*
X055700Y017323D02*
X048945Y017323D01*
X048945Y017481D02*
X051713Y017481D01*
X051737Y017463D02*
X051818Y017416D01*
X051903Y017381D01*
X051992Y017357D01*
X052084Y017345D01*
X053100Y017345D01*
X053100Y017970D01*
X051429Y017970D01*
X051437Y017912D01*
X051461Y017823D01*
X051496Y017738D01*
X051543Y017657D01*
X051599Y017584D01*
X051664Y017519D01*
X051737Y017463D01*
X051556Y017640D02*
X048945Y017640D01*
X048945Y017798D02*
X051471Y017798D01*
X051431Y017957D02*
X048945Y017957D01*
X048180Y017430D02*
X046930Y018680D01*
X045180Y018680D01*
X044430Y017930D01*
X043780Y017930D01*
X043780Y017430D02*
X045680Y017430D01*
X046445Y017481D02*
X047415Y017481D01*
X047415Y017323D02*
X046445Y017323D01*
X046445Y017164D02*
X047415Y017164D01*
X047415Y017006D02*
X046445Y017006D01*
X046445Y016847D02*
X047415Y016847D01*
X047442Y016689D02*
X046418Y016689D01*
X046353Y016530D02*
X047507Y016530D01*
X047632Y016372D02*
X046228Y016372D01*
X046008Y016213D02*
X047852Y016213D01*
X048508Y016213D02*
X050510Y016213D01*
X050669Y016372D02*
X048728Y016372D01*
X048853Y016530D02*
X050827Y016530D01*
X050986Y016689D02*
X048918Y016689D01*
X048945Y016847D02*
X055700Y016847D01*
X055700Y017006D02*
X048945Y017006D01*
X048945Y017164D02*
X055700Y017164D01*
X055700Y018274D02*
X053850Y018274D01*
X053774Y018432D02*
X055700Y018432D01*
X055700Y018591D02*
X053634Y018591D01*
X053260Y018591D02*
X053100Y018591D01*
X053100Y018749D02*
X053260Y018749D01*
X053272Y018749D02*
X055700Y018749D01*
X055700Y018908D02*
X053320Y018908D01*
X053260Y018908D02*
X053100Y018908D01*
X053100Y019066D02*
X053260Y019066D01*
X053260Y019225D02*
X053100Y019225D01*
X053100Y019700D02*
X053260Y019700D01*
X053260Y019859D02*
X053100Y019859D01*
X053100Y020017D02*
X053260Y020017D01*
X053260Y020176D02*
X053100Y020176D01*
X053852Y019383D02*
X055700Y019383D01*
X055700Y019225D02*
X053777Y019225D01*
X053642Y019066D02*
X055700Y019066D01*
X053260Y018432D02*
X053100Y018432D01*
X053100Y017957D02*
X053260Y017957D01*
X053260Y017798D02*
X053100Y017798D01*
X053100Y017640D02*
X053260Y017640D01*
X053260Y017481D02*
X053100Y017481D01*
X053626Y015896D02*
X054011Y015896D01*
X054170Y015738D02*
X053770Y015738D01*
X053848Y015579D02*
X054328Y015579D01*
X053260Y015262D02*
X053100Y015262D01*
X053100Y015104D02*
X053260Y015104D01*
X053260Y014945D02*
X053100Y014945D01*
X053100Y014787D02*
X053260Y014787D01*
X051706Y014787D02*
X051413Y014787D01*
X049876Y015579D02*
X044524Y015579D01*
X044524Y015421D02*
X049718Y015421D01*
X049559Y015262D02*
X044437Y015262D01*
X044492Y014787D02*
X049084Y014787D01*
X049242Y014945D02*
X042750Y014945D01*
X042750Y014787D02*
X043368Y014787D01*
X043336Y014628D02*
X042750Y014628D01*
X042750Y014470D02*
X043336Y014470D01*
X043336Y014311D02*
X042752Y014311D01*
X042910Y014153D02*
X043336Y014153D01*
X043930Y014386D02*
X049136Y014386D01*
X049401Y015104D02*
X042750Y015104D01*
X042750Y015262D02*
X043423Y015262D01*
X043158Y015421D02*
X042750Y015421D01*
X042750Y015579D02*
X042953Y015579D01*
X042795Y015738D02*
X042750Y015738D01*
X042930Y016055D02*
X042930Y017430D01*
X042430Y017930D02*
X042430Y018805D01*
X041930Y019305D01*
X041930Y019306D01*
X043036Y019305D02*
X043036Y019949D01*
X042930Y020055D01*
X043262Y020176D02*
X051722Y020176D01*
X051561Y020017D02*
X043354Y020017D01*
X043356Y019859D02*
X051474Y019859D01*
X051432Y019700D02*
X044241Y019700D01*
X043872Y019700D02*
X043776Y019700D01*
X043776Y019542D02*
X043872Y019542D01*
X043872Y019383D02*
X043776Y019383D01*
X044240Y018908D02*
X044955Y018908D01*
X044796Y018749D02*
X044330Y018749D01*
X044370Y018591D02*
X044638Y018591D01*
X044479Y018432D02*
X044370Y018432D01*
X043780Y018430D02*
X043180Y018430D01*
X043055Y018555D01*
X043055Y019286D01*
X043036Y019305D01*
X043770Y020968D02*
X043790Y020968D01*
X043790Y021127D02*
X043770Y021127D01*
X043250Y021285D02*
X043250Y021285D01*
X047472Y018591D02*
X047734Y018591D01*
X046884Y018274D02*
X046376Y018274D01*
X046442Y018115D02*
X047042Y018115D01*
X047201Y017957D02*
X046445Y017957D01*
X046445Y017798D02*
X047359Y017798D01*
X047415Y017640D02*
X046445Y017640D01*
X043463Y016213D02*
X043250Y016213D01*
X042930Y016055D02*
X043261Y015724D01*
X043930Y015724D01*
X040572Y013836D02*
X039727Y013836D01*
X039569Y013994D02*
X040413Y013994D01*
X040255Y014153D02*
X039410Y014153D01*
X039252Y014311D02*
X040096Y014311D01*
X039938Y014470D02*
X039093Y014470D01*
X038935Y014628D02*
X039779Y014628D01*
X039680Y015180D02*
X041680Y013180D01*
X041364Y013043D02*
X040520Y013043D01*
X040361Y013202D02*
X041206Y013202D01*
X041047Y013360D02*
X040203Y013360D01*
X040044Y013519D02*
X040889Y013519D01*
X040730Y013677D02*
X039886Y013677D01*
X039930Y012180D02*
X035430Y016680D01*
X035430Y018680D01*
X035059Y019383D02*
X035049Y019383D01*
X034930Y019680D02*
X028930Y019680D01*
X028930Y019180D01*
X028680Y018930D01*
X028680Y015681D01*
X029431Y014930D01*
X030642Y015738D02*
X030810Y015738D01*
X030831Y015896D02*
X030862Y015896D01*
X031306Y016054D02*
X031306Y015430D01*
X032589Y017006D02*
X032987Y017006D01*
X032987Y017164D02*
X032670Y017164D01*
X032910Y017323D02*
X032987Y017323D01*
X036750Y016847D02*
X037772Y016847D01*
X037772Y016689D02*
X036874Y016689D01*
X037033Y016530D02*
X037772Y016530D01*
X037772Y016372D02*
X037191Y016372D01*
X037350Y016213D02*
X037772Y016213D01*
X037772Y016055D02*
X037508Y016055D01*
X037667Y015896D02*
X037772Y015896D01*
X039194Y015579D02*
X039360Y015579D01*
X039360Y015738D02*
X039313Y015738D01*
X039313Y015896D02*
X039360Y015896D01*
X039360Y016055D02*
X039313Y016055D01*
X039313Y016213D02*
X039360Y016213D01*
X039360Y016372D02*
X039313Y016372D01*
X039313Y016530D02*
X039360Y016530D01*
X039360Y016689D02*
X039313Y016689D01*
X039313Y016847D02*
X039360Y016847D01*
X039360Y017006D02*
X038622Y017006D01*
X038622Y017164D02*
X038462Y017164D01*
X038462Y017323D02*
X038622Y017323D01*
X038622Y017481D02*
X038462Y017481D01*
X038462Y017640D02*
X038622Y017640D01*
X038622Y017798D02*
X038462Y017798D01*
X038462Y017957D02*
X038622Y017957D01*
X038622Y018115D02*
X038462Y018115D01*
X038462Y018274D02*
X038622Y018274D01*
X039313Y017957D02*
X039360Y017957D01*
X039360Y017798D02*
X039313Y017798D01*
X039313Y017640D02*
X039360Y017640D01*
X039360Y017481D02*
X039313Y017481D01*
X039313Y017323D02*
X039360Y017323D01*
X039360Y017164D02*
X039313Y017164D01*
X035054Y019804D02*
X035054Y020680D01*
X030430Y020536D02*
X030324Y020430D01*
X029979Y020968D02*
X028961Y020968D01*
X029136Y020855D02*
X029113Y020814D01*
X029100Y020769D01*
X029100Y020478D01*
X029488Y020478D01*
X029488Y020925D01*
X029257Y020925D01*
X029211Y020913D01*
X029170Y020889D01*
X029136Y020855D01*
X029111Y020810D02*
X028310Y020810D01*
X028468Y020651D02*
X029100Y020651D01*
X029100Y020493D02*
X028627Y020493D01*
X028785Y020334D02*
X029100Y020334D01*
X029100Y020176D02*
X028944Y020176D01*
X029102Y020017D02*
X029129Y020017D01*
X029488Y020493D02*
X029584Y020493D01*
X029584Y020651D02*
X029488Y020651D01*
X029488Y020810D02*
X029584Y020810D01*
X027798Y021444D02*
X027676Y021444D01*
X027798Y021602D02*
X027517Y021602D01*
X027359Y021761D02*
X027833Y021761D01*
X027430Y022930D02*
X026936Y023424D01*
X026936Y025526D01*
X030617Y023504D02*
X030743Y023504D01*
X031117Y023504D02*
X031243Y023504D01*
X031617Y023504D02*
X031743Y023504D01*
X032117Y023504D02*
X032243Y023504D01*
X034750Y025882D02*
X035387Y025882D01*
X035285Y026040D02*
X034731Y026040D01*
X034614Y026199D02*
X035262Y026199D01*
X035300Y026357D02*
X034699Y026357D01*
X035680Y026180D02*
X037180Y026180D01*
X042071Y027308D02*
X043289Y027308D01*
X042947Y027150D02*
X042413Y027150D01*
X042572Y026991D02*
X042788Y026991D01*
X048502Y027150D02*
X051758Y027150D01*
X051580Y026991D02*
X048726Y026991D01*
X048852Y026833D02*
X051484Y026833D01*
X051435Y026674D02*
X048917Y026674D01*
X053100Y026833D02*
X053260Y026833D01*
X053260Y026991D02*
X053100Y026991D01*
X053100Y027150D02*
X053260Y027150D01*
X053260Y026470D02*
X053881Y026470D01*
X053873Y026412D01*
X053849Y026323D01*
X053814Y026238D01*
X053767Y026157D01*
X053711Y026084D01*
X053646Y026019D01*
X053573Y025963D01*
X053492Y025916D01*
X053407Y025881D01*
X053318Y025857D01*
X053260Y025849D01*
X053260Y026470D01*
X053260Y026357D02*
X053100Y026357D01*
X053100Y026199D02*
X053260Y026199D01*
X053260Y026040D02*
X053100Y026040D01*
X053100Y025882D02*
X053260Y025882D01*
X053408Y025882D02*
X055700Y025882D01*
X055700Y026040D02*
X053667Y026040D01*
X053791Y026199D02*
X055699Y026199D01*
X055689Y026357D02*
X053858Y026357D01*
X053542Y024455D02*
X055700Y024455D01*
X055700Y024297D02*
X053726Y024297D01*
X053824Y024138D02*
X055700Y024138D01*
X055700Y023980D02*
X053874Y023980D01*
X026446Y022712D02*
X022166Y022712D01*
X022176Y022870D02*
X022256Y022870D01*
X022217Y023029D02*
X022203Y023029D01*
X022203Y023187D02*
X022217Y023187D01*
X022203Y023346D02*
X022217Y023346D01*
X022137Y023504D02*
X022323Y023504D01*
X022554Y023346D02*
X022554Y023346D01*
X022554Y023187D02*
X022554Y023187D01*
X022554Y023029D02*
X022554Y023029D01*
X022554Y022870D02*
X022554Y022870D01*
X021806Y023161D02*
X021787Y023180D01*
X021806Y022554D02*
X021805Y022430D01*
X022180Y023988D02*
X022179Y023989D01*
X025120Y017481D02*
X016986Y017481D01*
X019780Y017164D02*
X020080Y017164D01*
X020780Y017164D02*
X021080Y017164D01*
X021780Y017164D02*
X022080Y017164D01*
X022780Y017164D02*
X023080Y017164D01*
X023780Y017164D02*
X024080Y017164D01*
D31*
X029430Y013930D03*
X032680Y017680D03*
X035430Y018680D03*
X036430Y017680D03*
X037430Y018680D03*
X033430Y020680D03*
X032430Y020680D03*
X031430Y020680D03*
X029680Y021680D03*
X027805Y022055D03*
X028180Y023930D03*
X029680Y024680D03*
X030930Y025180D03*
X031930Y025180D03*
X032930Y025180D03*
X034430Y026680D03*
X035680Y026180D03*
X035680Y027180D03*
X040180Y026180D03*
X036180Y023430D03*
X034680Y021430D03*
X031430Y022680D03*
X029680Y025680D03*
X027369Y026119D03*
X021805Y022430D03*
X040680Y021680D03*
X042930Y022555D03*
X051180Y014430D03*
X048430Y013680D03*
X050680Y012430D03*
X050180Y011930D03*
X051430Y011930D03*
X050304Y010304D03*
X049556Y010304D03*
X047930Y010930D03*
X045680Y008430D03*
X045680Y007680D03*
X042930Y007180D03*
X048680Y006930D03*
D32*
X049556Y006930D01*
X050304Y006930D02*
X050304Y008180D01*
X050304Y009430D01*
X050304Y010304D01*
X049556Y010304D02*
X049556Y009430D01*
X047633Y009977D02*
X047180Y010430D01*
X047180Y011180D01*
X048430Y012430D01*
X050680Y012430D01*
X047633Y009977D02*
X047633Y008180D01*
X046180Y006727D01*
X047633Y008180D02*
X049556Y008180D01*
X050430Y005930D02*
X052930Y008430D01*
X052930Y007430D02*
X050930Y005430D01*
X042430Y005430D01*
X041680Y006180D01*
X041680Y010430D01*
X041180Y010930D01*
X039430Y010930D01*
X037680Y012680D01*
X028680Y012680D01*
X027680Y013680D01*
X027680Y018680D01*
X026430Y019930D01*
X021680Y019930D01*
X020430Y019930D01*
X017180Y023180D01*
X017180Y024930D01*
X018180Y024930D02*
X018180Y022930D01*
X020680Y020430D01*
X021680Y020430D01*
X026680Y020430D01*
X028180Y018930D01*
X028180Y014180D01*
X029180Y013180D01*
X037930Y013180D01*
X039680Y011430D01*
X041680Y011430D01*
X042180Y010930D01*
X042180Y006680D01*
X042930Y005930D01*
X050430Y005930D01*
X051430Y004930D02*
X052930Y006430D01*
X052930Y005430D02*
X051930Y004430D01*
X041680Y004430D01*
X040680Y005430D01*
X040680Y009430D01*
X040180Y009930D01*
X038430Y009930D01*
X036680Y011680D01*
X027930Y011680D01*
X026680Y012930D01*
X026680Y018180D01*
X025930Y018930D01*
X021680Y018930D01*
X019930Y018930D01*
X015180Y023680D01*
X015180Y024930D01*
X016180Y024930D02*
X016180Y023430D01*
X020180Y019430D01*
X021680Y019430D01*
X026180Y019430D01*
X027180Y018430D01*
X027180Y013180D01*
X028180Y012180D01*
X037180Y012180D01*
X038930Y010430D01*
X040680Y010430D01*
X041180Y009930D01*
X041180Y005930D01*
X042180Y004930D01*
X051430Y004930D01*
X052430Y003930D02*
X052930Y004430D01*
X052430Y003930D02*
X041180Y003930D01*
X040180Y004930D01*
X040180Y009180D01*
X039930Y009430D01*
X038180Y009430D01*
X036430Y011180D01*
X027680Y011180D01*
X026180Y012680D01*
X026180Y017930D01*
X025680Y018430D01*
X019680Y018430D01*
X014430Y023680D01*
X010930Y023680D01*
X010180Y024430D01*
X010180Y024930D01*
X008180Y024930D02*
X008180Y024430D01*
X009680Y022930D01*
X014430Y022930D01*
X019430Y017930D01*
X025180Y017930D01*
X025680Y017430D01*
X025680Y012430D01*
X027430Y010680D01*
X036180Y010680D01*
X037930Y008930D01*
X039430Y008930D01*
X039680Y008680D01*
X039680Y004680D01*
X040930Y003430D01*
X052930Y003430D01*
X028930Y019680D02*
X026430Y022180D01*
X025680Y022180D01*
X025180Y021680D01*
X020430Y021680D01*
X020056Y022054D01*
X020056Y023180D01*
X019430Y023180D01*
X019178Y023432D01*
X019178Y024933D01*
X019180Y024935D01*
X019180Y026055D01*
X019680Y026555D01*
X020181Y026555D01*
X020929Y026555D02*
X021892Y026555D01*
X022179Y024930D02*
X022179Y023989D01*
X021787Y023180D02*
X020804Y023180D01*
X021806Y023161D02*
X021806Y022554D01*
X021428Y024933D02*
X020178Y024933D01*
X007180Y024931D02*
X007180Y022680D01*
X006680Y022180D01*
X003930Y022180D01*
X002940Y023170D02*
X002930Y023180D01*
X005680Y023180D01*
X006180Y023680D01*
X006180Y024931D01*
X006178Y024933D01*
X007178Y024933D02*
X007180Y024931D01*
X005680Y023180D02*
X005670Y023170D01*
X002940Y023170D01*
X002930Y023170D01*
X033430Y020680D02*
X034306Y020680D01*
X036190Y021324D02*
X036190Y022440D01*
X037090Y022440D02*
X037090Y021324D01*
D33*
X033430Y021720D02*
X033430Y020680D01*
X032430Y020680D02*
X032430Y021720D01*
X031430Y021720D02*
X031430Y020680D01*
X030430Y020536D02*
X030430Y021680D01*
X030390Y021680D01*
D34*
X024430Y016680D03*
X023430Y016680D03*
X022430Y016680D03*
X021430Y016680D03*
X020430Y016680D03*
X019430Y016680D03*
X018430Y016680D03*
X017430Y016680D03*
X016430Y016680D03*
X015430Y016680D03*
X014430Y016680D03*
X013430Y016680D03*
X012430Y016680D03*
X011430Y016680D03*
X010430Y016680D03*
X009430Y016680D03*
X008430Y016680D03*
X007430Y016680D03*
X006430Y016680D03*
X005430Y016680D03*
X004430Y016680D03*
X003430Y016680D03*
X002430Y016680D03*
X002430Y015680D03*
X003430Y015680D03*
X004430Y015680D03*
X005430Y015680D03*
X006430Y015680D03*
X007430Y015680D03*
X008430Y015680D03*
X009430Y015680D03*
X010430Y015680D03*
X011430Y015680D03*
X012430Y015680D03*
X013430Y015680D03*
X014430Y015680D03*
X015430Y015680D03*
X016430Y015680D03*
X017430Y015680D03*
X018430Y015680D03*
X019430Y015680D03*
X020430Y015680D03*
X021430Y015680D03*
X022430Y015680D03*
X023430Y015680D03*
X024430Y015680D03*
X024430Y014680D03*
X023430Y014680D03*
X022430Y014680D03*
X021430Y014680D03*
X020430Y014680D03*
X019430Y014680D03*
X018430Y014680D03*
X017430Y014680D03*
X016430Y014680D03*
X015430Y014680D03*
X014430Y014680D03*
X013430Y014680D03*
X012430Y014680D03*
X011430Y014680D03*
X010430Y014680D03*
X009430Y014680D03*
X008430Y014680D03*
X007430Y014680D03*
X006430Y014680D03*
X005430Y014680D03*
X004430Y014680D03*
X003430Y014680D03*
X002430Y014680D03*
X002430Y013680D03*
X003430Y013680D03*
X004430Y013680D03*
X005430Y013680D03*
X006430Y013680D03*
X007430Y013680D03*
X008430Y013680D03*
X009430Y013680D03*
X010430Y013680D03*
X011430Y013680D03*
X012430Y013680D03*
X013430Y013680D03*
X014430Y013680D03*
X015430Y013680D03*
X016430Y013680D03*
X017430Y013680D03*
X018430Y013680D03*
X019430Y013680D03*
X020430Y013680D03*
X021430Y013680D03*
X022430Y013680D03*
X023430Y013680D03*
X024430Y013680D03*
X024430Y012680D03*
X023430Y012680D03*
X022430Y012680D03*
X021430Y012680D03*
X020430Y012680D03*
X019430Y012680D03*
X018430Y012680D03*
X017430Y012680D03*
X016430Y012680D03*
X015430Y012680D03*
X014430Y012680D03*
X013430Y012680D03*
X012430Y012680D03*
X011430Y012680D03*
X010430Y012680D03*
X009430Y012680D03*
X008430Y012680D03*
X007430Y012680D03*
X006430Y012680D03*
X005430Y012680D03*
X004430Y012680D03*
X003430Y012680D03*
X002430Y012680D03*
X002430Y011680D03*
X003430Y011680D03*
X004430Y011680D03*
X005430Y011680D03*
X006430Y011680D03*
X007430Y011680D03*
X008430Y011680D03*
X009430Y011680D03*
X010430Y011680D03*
X011430Y011680D03*
X012430Y011680D03*
X013430Y011680D03*
X014430Y011680D03*
X015430Y011680D03*
X016430Y011680D03*
X017430Y011680D03*
X018430Y011680D03*
X019430Y011680D03*
X020430Y011680D03*
X021430Y011680D03*
X022430Y011680D03*
X023430Y011680D03*
X024430Y011680D03*
X024430Y010680D03*
X023430Y010680D03*
X022430Y010680D03*
X021430Y010680D03*
X020430Y010680D03*
X019430Y010680D03*
X018430Y010680D03*
X017430Y010680D03*
X016430Y010680D03*
X015430Y010680D03*
X014430Y010680D03*
X013430Y010680D03*
X012430Y010680D03*
X011430Y010680D03*
X010430Y010680D03*
X009430Y010680D03*
X008430Y010680D03*
X007430Y010680D03*
X006430Y010680D03*
X005430Y010680D03*
X004430Y010680D03*
X003430Y010680D03*
X002430Y010680D03*
X002430Y009680D03*
X003430Y009680D03*
X004430Y009680D03*
X005430Y009680D03*
X006430Y009680D03*
X007430Y009680D03*
X008430Y009680D03*
X009430Y009680D03*
X010430Y009680D03*
X011430Y009680D03*
X012430Y009680D03*
X013430Y009680D03*
X014430Y009680D03*
X015430Y009680D03*
X016430Y009680D03*
X017430Y009680D03*
X018430Y009680D03*
X019430Y009680D03*
X020430Y009680D03*
X021430Y009680D03*
X022430Y009680D03*
X023430Y009680D03*
X024430Y009680D03*
X025430Y009680D03*
X026430Y009680D03*
X027430Y009680D03*
X028430Y009680D03*
X029430Y009680D03*
X030430Y009680D03*
X031430Y009680D03*
X032430Y009680D03*
X033430Y009680D03*
X034430Y009680D03*
X035430Y009680D03*
X035430Y008680D03*
X034430Y008680D03*
X033430Y008680D03*
X032430Y008680D03*
X031430Y008680D03*
X030430Y008680D03*
X029430Y008680D03*
X028430Y008680D03*
X027430Y008680D03*
X026430Y008680D03*
X025430Y008680D03*
X024430Y008680D03*
X023430Y008680D03*
X022430Y008680D03*
X021430Y008680D03*
X020430Y008680D03*
X019430Y008680D03*
X018430Y008680D03*
X017430Y008680D03*
X016430Y008680D03*
X015430Y008680D03*
X014430Y008680D03*
X013430Y008680D03*
X012430Y008680D03*
X011430Y008680D03*
X010430Y008680D03*
X009430Y008680D03*
X008430Y008680D03*
X007430Y008680D03*
X006430Y008680D03*
X005430Y008680D03*
X004430Y008680D03*
X003430Y008680D03*
X002430Y008680D03*
X002430Y007680D03*
X003430Y007680D03*
X004430Y007680D03*
X005430Y007680D03*
X006430Y007680D03*
X007430Y007680D03*
X008430Y007680D03*
X009430Y007680D03*
X010430Y007680D03*
X011430Y007680D03*
X012430Y007680D03*
X013430Y007680D03*
X014430Y007680D03*
X015430Y007680D03*
X016430Y007680D03*
X017430Y007680D03*
X018430Y007680D03*
X019430Y007680D03*
X020430Y007680D03*
X021430Y007680D03*
X022430Y007680D03*
X023430Y007680D03*
X024430Y007680D03*
X025430Y007680D03*
X026430Y007680D03*
X027430Y007680D03*
X028430Y007680D03*
X029430Y007680D03*
X030430Y007680D03*
X031430Y007680D03*
X032430Y007680D03*
X033430Y007680D03*
X034430Y007680D03*
X035430Y007680D03*
X035430Y006680D03*
X034430Y006680D03*
X033430Y006680D03*
X032430Y006680D03*
X031430Y006680D03*
X030430Y006680D03*
X029430Y006680D03*
X028430Y006680D03*
X027430Y006680D03*
X026430Y006680D03*
X025430Y006680D03*
X024430Y006680D03*
X023430Y006680D03*
X022430Y006680D03*
X021430Y006680D03*
X020430Y006680D03*
X019430Y006680D03*
X018430Y006680D03*
X017430Y006680D03*
X016430Y006680D03*
X015430Y006680D03*
X014430Y006680D03*
X013430Y006680D03*
X012430Y006680D03*
X011430Y006680D03*
X010430Y006680D03*
X009430Y006680D03*
X008430Y006680D03*
X007430Y006680D03*
X006430Y006680D03*
X005430Y006680D03*
X004430Y006680D03*
X003430Y006680D03*
X002430Y006680D03*
X002430Y005680D03*
X003430Y005680D03*
X004430Y005680D03*
X005430Y005680D03*
X006430Y005680D03*
X007430Y005680D03*
X008430Y005680D03*
X009430Y005680D03*
X010430Y005680D03*
X011430Y005680D03*
X012430Y005680D03*
X013430Y005680D03*
X014430Y005680D03*
X015430Y005680D03*
X016430Y005680D03*
X017430Y005680D03*
X018430Y005680D03*
X019430Y005680D03*
X020430Y005680D03*
X021430Y005680D03*
X022430Y005680D03*
X023430Y005680D03*
X024430Y005680D03*
X025430Y005680D03*
X026430Y005680D03*
X027430Y005680D03*
X028430Y005680D03*
X029430Y005680D03*
X030430Y005680D03*
X031430Y005680D03*
X032430Y005680D03*
X033430Y005680D03*
X034430Y005680D03*
X035430Y005680D03*
X016430Y017680D03*
X015430Y017680D03*
X014430Y017680D03*
X013430Y017680D03*
X012430Y017680D03*
X011430Y017680D03*
X010430Y017680D03*
X009430Y017680D03*
X008430Y017680D03*
X007430Y017680D03*
X006430Y017680D03*
X005430Y017680D03*
X004430Y017680D03*
X003430Y017680D03*
X002430Y017680D03*
X002430Y018680D03*
X003430Y018680D03*
X004430Y018680D03*
X005430Y018680D03*
X006430Y018680D03*
X007430Y018680D03*
X008430Y018680D03*
X009430Y018680D03*
X010430Y018680D03*
X011430Y018680D03*
X012430Y018680D03*
X013430Y018680D03*
X014430Y018680D03*
X015430Y018680D03*
X016430Y018680D03*
X016430Y019680D03*
X015430Y019680D03*
X014430Y019680D03*
X013430Y019680D03*
X012430Y019680D03*
X011430Y019680D03*
X010430Y019680D03*
X009430Y019680D03*
X008430Y019680D03*
X007430Y019680D03*
X006430Y019680D03*
X005430Y019680D03*
X004430Y019680D03*
X003430Y019680D03*
X002430Y019680D03*
M02*
