%
M48
M72
T01C0.0315
T02C0.0320
T03C0.0394
T04C0.0400
T05C0.1181
%
T01
X20430Y13680
X20430Y20805
X22180Y22430
X24180Y22430
X8930Y22180
X4930Y22180
X4930Y21180
X4930Y19180
X40430Y19165
X42930Y17680
X45930Y18430
X49305Y19680
X40431Y21554
X42930Y15430
X45930Y15193
X46430Y14805
X49305Y14055
X46430Y13305
X41430Y12680
X40430Y12680
X40430Y9930
X41430Y9942
X46430Y10567
T02
X1930Y19180
X1930Y20180
X1930Y21180
T03
X44946Y15436
X46914Y15436
X46914Y9727
X45930Y9727
X44946Y9727
T04
X50430Y9680
X50430Y8680
X50430Y7680
X50430Y6680
X50430Y10680
X50430Y11680
X50430Y12680
X50430Y13680
X50430Y14680
X50430Y15680
X50430Y16680
X50430Y17680
X50430Y18680
X47430Y21680
X44430Y21680
X19928Y23683
X18928Y23683
X17928Y23683
X16928Y23683
X15928Y23683
X14928Y23683
X13928Y23683
X12928Y23683
X11928Y23683
X10928Y23683
X9928Y23683
X8928Y23683
X7928Y23683
X6928Y23683
X5928Y23683
X4928Y23683
T05
X1980Y2025
X38595Y2025
X38590Y23680
X1980Y23680
M30
