G75*
G70*
%OFA0B0*%
%FSLAX24Y24*%
%IPPOS*%
%LPD*%
%AMOC8*
5,1,8,0,0,1.08239X$1,22.5*
%
%ADD10C,0.0200*%
%ADD11C,0.0080*%
%ADD12C,0.0050*%
%ADD13C,0.0100*%
%ADD14C,0.0060*%
%ADD15C,0.0059*%
D10*
X000930Y019680D02*
X000930Y020680D01*
D11*
X001680Y000930D02*
X002697Y000930D01*
X002967Y000930D02*
X003018Y000930D01*
X003288Y000930D02*
X004305Y000930D01*
X004575Y000930D02*
X004626Y000930D01*
X004896Y000930D02*
X005913Y000930D01*
X006183Y000930D02*
X006234Y000930D01*
X006504Y000930D02*
X007521Y000930D01*
X007791Y000930D02*
X007842Y000930D01*
X008112Y000930D02*
X009129Y000930D01*
X009399Y000930D02*
X009450Y000930D01*
X009720Y000930D02*
X010737Y000930D01*
X011007Y000930D02*
X011058Y000930D01*
X011328Y000930D02*
X012345Y000930D01*
X012615Y000930D02*
X012666Y000930D01*
X012936Y000930D02*
X013953Y000930D01*
X014223Y000930D02*
X014274Y000930D01*
X014544Y000930D02*
X015561Y000930D01*
X015831Y000930D02*
X015882Y000930D01*
X016151Y000930D02*
X017169Y000930D01*
X017439Y000930D02*
X017490Y000930D01*
X017759Y000930D02*
X018777Y000930D01*
X019047Y000930D02*
X019098Y000930D01*
X019367Y000930D02*
X020385Y000930D01*
X020654Y000930D02*
X020706Y000930D01*
X020975Y000930D02*
X021993Y000930D01*
X022262Y000930D02*
X022313Y000930D01*
X022583Y000930D02*
X023601Y000930D01*
X023870Y000930D02*
X023921Y000930D01*
X024191Y000930D02*
X025209Y000930D01*
X025478Y000930D02*
X025529Y000930D01*
X025799Y000930D02*
X026816Y000930D01*
X027086Y000930D02*
X027137Y000930D01*
X027407Y000930D02*
X028424Y000930D01*
X028694Y000930D02*
X028745Y000930D01*
X029015Y000930D02*
X030032Y000930D01*
X030302Y000930D02*
X030353Y000930D01*
X030623Y000930D02*
X031640Y000930D01*
X031910Y000930D02*
X031961Y000930D01*
X032231Y000930D02*
X033248Y000930D01*
X033518Y000930D02*
X033569Y000930D01*
X033839Y000930D02*
X034856Y000930D01*
X035126Y000930D02*
X035177Y000930D01*
X035447Y000930D02*
X036464Y000930D01*
X036734Y000930D02*
X036785Y000930D01*
X037055Y000930D02*
X038072Y000930D01*
X038342Y000930D02*
X038393Y000930D01*
X038663Y000930D02*
X039680Y000930D01*
X039680Y001962D01*
X039680Y002232D02*
X039680Y002283D01*
X039680Y002553D02*
X039680Y003585D01*
X039680Y003855D02*
X039680Y003906D01*
X039680Y004175D02*
X039680Y005208D01*
X039680Y005477D02*
X039680Y005528D01*
X039680Y005798D02*
X039680Y006830D01*
X039680Y007100D02*
X039680Y007151D01*
X039680Y007421D02*
X039680Y008453D01*
X039680Y008723D02*
X039680Y008774D01*
X039680Y009044D02*
X039680Y010076D01*
X039680Y010345D02*
X039680Y010396D01*
X039680Y010666D02*
X039680Y011698D01*
X039680Y011968D02*
X039680Y012019D01*
X039680Y012289D02*
X039680Y013321D01*
X039680Y013591D02*
X039680Y013642D01*
X039680Y013912D02*
X039680Y014944D01*
X039680Y015214D02*
X039680Y015265D01*
X039680Y015534D02*
X039680Y016566D01*
X039680Y016836D02*
X039680Y016887D01*
X039680Y017157D02*
X039680Y018189D01*
X039680Y018459D02*
X039680Y018510D01*
X039680Y018780D02*
X039680Y019812D01*
X039680Y020082D02*
X039680Y020133D01*
X039680Y020402D02*
X039680Y021435D01*
X039680Y021704D02*
X039680Y021755D01*
X039680Y022025D02*
X039680Y023057D01*
X039680Y023327D02*
X039680Y023378D01*
X039680Y023648D02*
X039680Y024680D01*
X038617Y024680D01*
X038347Y024680D02*
X038296Y024680D01*
X038027Y024680D02*
X036964Y024680D01*
X036694Y024680D02*
X036643Y024680D01*
X036373Y024680D02*
X035310Y024680D01*
X035041Y024680D02*
X034990Y024680D01*
X034720Y024680D02*
X033657Y024680D01*
X033387Y024680D02*
X033336Y024680D01*
X033066Y024680D02*
X032004Y024680D01*
X031734Y024680D02*
X031683Y024680D01*
X031413Y024680D02*
X030350Y024680D01*
X030081Y024680D02*
X030029Y024680D01*
X029760Y024680D02*
X028697Y024680D01*
X028427Y024680D02*
X028376Y024680D01*
X028106Y024680D02*
X027044Y024680D01*
X026774Y024680D02*
X026723Y024680D01*
X026453Y024680D02*
X025390Y024680D01*
X025120Y024680D02*
X025069Y024680D01*
X024800Y024680D02*
X023737Y024680D01*
X023467Y024680D02*
X023416Y024680D01*
X023146Y024680D02*
X022083Y024680D01*
X021814Y024680D02*
X021763Y024680D01*
X021493Y024680D02*
X020430Y024680D01*
X004180Y024680D02*
X002975Y024680D01*
X002706Y024680D02*
X002654Y024680D01*
X002385Y024680D02*
X001180Y024680D01*
X000930Y024430D02*
X000930Y023725D01*
X000930Y023456D02*
X000930Y023404D01*
X000930Y023135D02*
X000930Y022430D01*
X000930Y017930D02*
X000930Y016836D01*
X000930Y016567D02*
X000930Y016516D01*
X000930Y016246D02*
X000930Y015152D01*
X000930Y014883D02*
X000930Y014832D01*
X000930Y014562D02*
X000930Y013468D01*
X000930Y013199D02*
X000930Y013148D01*
X000930Y012878D02*
X000930Y011784D01*
X000930Y011515D02*
X000930Y011464D01*
X000930Y011194D02*
X000930Y010100D01*
X000930Y009831D02*
X000930Y009779D01*
X000930Y009510D02*
X000930Y008416D01*
X000930Y008146D02*
X000930Y008095D01*
X000930Y007826D02*
X000930Y006732D01*
X000930Y006462D02*
X000930Y006411D01*
X000930Y006142D02*
X000930Y005048D01*
X000930Y004778D02*
X000930Y004727D01*
X000930Y004458D02*
X000930Y003364D01*
X000930Y003094D02*
X000930Y003043D01*
X000930Y002774D02*
X000930Y001680D01*
X003720Y002220D02*
X003930Y002220D01*
X004000Y002290D01*
X004000Y002570D01*
X003930Y002640D01*
X003720Y002640D01*
X003720Y002220D01*
X004180Y002220D02*
X004321Y002220D01*
X004250Y002220D02*
X004250Y002500D01*
X004180Y002500D01*
X004250Y002640D02*
X004250Y002710D01*
X004487Y002430D02*
X004557Y002500D01*
X004768Y002500D01*
X004698Y002360D02*
X004557Y002360D01*
X004487Y002430D01*
X004487Y002220D02*
X004698Y002220D01*
X004768Y002290D01*
X004698Y002360D01*
X004948Y002220D02*
X005158Y002220D01*
X005228Y002290D01*
X005228Y002430D01*
X005158Y002500D01*
X004948Y002500D01*
X004948Y002080D01*
X005408Y002220D02*
X005548Y002220D01*
X005478Y002220D02*
X005478Y002640D01*
X005408Y002640D01*
X005785Y002500D02*
X005925Y002500D01*
X005995Y002430D01*
X005995Y002220D01*
X005785Y002220D01*
X005715Y002290D01*
X005785Y002360D01*
X005995Y002360D01*
X006175Y002290D02*
X006245Y002220D01*
X006456Y002220D01*
X006456Y002150D02*
X006386Y002080D01*
X006316Y002080D01*
X006456Y002150D02*
X006456Y002500D01*
X006175Y002500D02*
X006175Y002290D01*
X006636Y002220D02*
X006916Y002640D01*
X007096Y002640D02*
X007096Y002290D01*
X007166Y002220D01*
X007306Y002220D01*
X007376Y002290D01*
X007376Y002640D01*
X007557Y002640D02*
X007697Y002640D01*
X007627Y002640D02*
X007627Y002220D01*
X007557Y002220D02*
X007697Y002220D01*
X008324Y002220D02*
X008534Y002220D01*
X008604Y002290D01*
X008604Y002360D01*
X008534Y002430D01*
X008324Y002430D01*
X008324Y002220D02*
X008324Y002640D01*
X008534Y002640D01*
X008604Y002570D01*
X008604Y002500D01*
X008534Y002430D01*
X008784Y002430D02*
X008784Y002290D01*
X008854Y002220D01*
X008994Y002220D01*
X009065Y002290D01*
X009065Y002430D01*
X008994Y002500D01*
X008854Y002500D01*
X008784Y002430D01*
X009245Y002290D02*
X009315Y002360D01*
X009525Y002360D01*
X009525Y002430D02*
X009525Y002220D01*
X009315Y002220D01*
X009245Y002290D01*
X009315Y002500D02*
X009455Y002500D01*
X009525Y002430D01*
X009705Y002360D02*
X009845Y002500D01*
X009915Y002500D01*
X010089Y002430D02*
X010089Y002290D01*
X010159Y002220D01*
X010369Y002220D01*
X010369Y002640D01*
X010369Y002500D02*
X010159Y002500D01*
X010089Y002430D01*
X009705Y002500D02*
X009705Y002220D01*
X011010Y002430D02*
X011150Y002430D01*
X011080Y002570D02*
X011150Y002640D01*
X011080Y002570D02*
X011080Y002220D01*
X011316Y002290D02*
X011316Y002430D01*
X011387Y002500D01*
X011527Y002500D01*
X011597Y002430D01*
X011597Y002290D01*
X011527Y002220D01*
X011387Y002220D01*
X011316Y002290D01*
X011777Y002220D02*
X011777Y002500D01*
X011777Y002360D02*
X011917Y002500D01*
X011987Y002500D01*
X012621Y002360D02*
X012831Y002360D01*
X012901Y002430D01*
X012901Y002570D01*
X012831Y002640D01*
X012621Y002640D01*
X012621Y002220D01*
X012761Y002360D02*
X012901Y002220D01*
X013081Y002220D02*
X013081Y002500D01*
X013221Y002640D01*
X013362Y002500D01*
X013362Y002220D01*
X013542Y002220D02*
X013542Y002640D01*
X013682Y002500D01*
X013822Y002640D01*
X013822Y002220D01*
X014002Y002220D02*
X014002Y002640D01*
X014212Y002640D01*
X014282Y002570D01*
X014282Y002430D01*
X014212Y002360D01*
X014002Y002360D01*
X014462Y002290D02*
X014533Y002220D01*
X014673Y002220D01*
X014743Y002290D01*
X014743Y002360D01*
X014673Y002430D01*
X014533Y002430D01*
X014462Y002500D01*
X014462Y002570D01*
X014533Y002640D01*
X014673Y002640D01*
X014743Y002570D01*
X013362Y002430D02*
X013081Y002430D01*
X043666Y010160D02*
X043666Y011765D01*
X045497Y012926D02*
X046363Y012926D01*
X044162Y012680D02*
X044164Y012767D01*
X044171Y012853D01*
X044181Y012939D01*
X044196Y013025D01*
X044215Y013110D01*
X044238Y013193D01*
X044265Y013276D01*
X044297Y013357D01*
X044332Y013436D01*
X044371Y013513D01*
X044414Y013589D01*
X044460Y013662D01*
X044510Y013733D01*
X044563Y013802D01*
X044620Y013867D01*
X044680Y013930D01*
X044743Y013990D01*
X044808Y014047D01*
X044877Y014100D01*
X044948Y014150D01*
X045021Y014196D01*
X045097Y014239D01*
X045174Y014278D01*
X045253Y014313D01*
X045334Y014345D01*
X045417Y014372D01*
X045500Y014395D01*
X045585Y014414D01*
X045671Y014429D01*
X045757Y014439D01*
X045843Y014446D01*
X045930Y014448D01*
X046017Y014446D01*
X046103Y014439D01*
X046189Y014429D01*
X046275Y014414D01*
X046360Y014395D01*
X046443Y014372D01*
X046526Y014345D01*
X046607Y014313D01*
X046686Y014278D01*
X046763Y014239D01*
X046839Y014196D01*
X046912Y014150D01*
X046983Y014100D01*
X047052Y014047D01*
X047117Y013990D01*
X047180Y013930D01*
X047240Y013867D01*
X047297Y013802D01*
X047350Y013733D01*
X047400Y013662D01*
X047446Y013589D01*
X047489Y013513D01*
X047528Y013436D01*
X047563Y013357D01*
X047595Y013276D01*
X047622Y013193D01*
X047645Y013110D01*
X047664Y013025D01*
X047679Y012939D01*
X047689Y012853D01*
X047696Y012767D01*
X047698Y012680D01*
X047696Y012593D01*
X047689Y012507D01*
X047679Y012421D01*
X047664Y012335D01*
X047645Y012250D01*
X047622Y012167D01*
X047595Y012084D01*
X047563Y012003D01*
X047528Y011924D01*
X047489Y011847D01*
X047446Y011771D01*
X047400Y011698D01*
X047350Y011627D01*
X047297Y011558D01*
X047240Y011493D01*
X047180Y011430D01*
X047117Y011370D01*
X047052Y011313D01*
X046983Y011260D01*
X046912Y011210D01*
X046839Y011164D01*
X046763Y011121D01*
X046686Y011082D01*
X046607Y011047D01*
X046526Y011015D01*
X046443Y010988D01*
X046360Y010965D01*
X046275Y010946D01*
X046189Y010931D01*
X046103Y010921D01*
X046017Y010914D01*
X045930Y010912D01*
X045843Y010914D01*
X045757Y010921D01*
X045671Y010931D01*
X045585Y010946D01*
X045500Y010965D01*
X045417Y010988D01*
X045334Y011015D01*
X045253Y011047D01*
X045174Y011082D01*
X045097Y011121D01*
X045021Y011164D01*
X044948Y011210D01*
X044877Y011260D01*
X044808Y011313D01*
X044743Y011370D01*
X044680Y011430D01*
X044620Y011493D01*
X044563Y011558D01*
X044510Y011627D01*
X044460Y011698D01*
X044414Y011771D01*
X044371Y011847D01*
X044332Y011924D01*
X044297Y012003D01*
X044265Y012084D01*
X044238Y012167D01*
X044215Y012250D01*
X044196Y012335D01*
X044181Y012421D01*
X044171Y012507D01*
X044164Y012593D01*
X044162Y012680D01*
X043666Y013535D02*
X043666Y015515D01*
X044444Y015515D01*
X045416Y015515D02*
X046444Y015515D01*
X047416Y015515D02*
X048194Y015515D01*
X048194Y013535D01*
X046363Y012926D02*
X046383Y012887D01*
X046399Y012847D01*
X046412Y012806D01*
X046421Y012764D01*
X046426Y012721D01*
X046428Y012677D01*
X046426Y012634D01*
X046420Y012591D01*
X046410Y012549D01*
X046397Y012508D01*
X046381Y012468D01*
X046360Y012430D01*
X046337Y012393D01*
X046311Y012359D01*
X046281Y012327D01*
X046249Y012298D01*
X046215Y012271D01*
X046178Y012248D01*
X046140Y012228D01*
X046100Y012212D01*
X046058Y012199D01*
X046016Y012190D01*
X045973Y012184D01*
X045930Y012182D01*
X045887Y012184D01*
X045844Y012190D01*
X045802Y012199D01*
X045760Y012212D01*
X045720Y012228D01*
X045682Y012248D01*
X045645Y012271D01*
X045611Y012298D01*
X045579Y012327D01*
X045549Y012359D01*
X045523Y012393D01*
X045500Y012430D01*
X045479Y012468D01*
X045463Y012508D01*
X045450Y012549D01*
X045440Y012591D01*
X045434Y012634D01*
X045432Y012677D01*
X045434Y012721D01*
X045439Y012764D01*
X045448Y012806D01*
X045461Y012847D01*
X045477Y012887D01*
X045497Y012926D01*
X048194Y011765D02*
X048194Y010160D01*
X043666Y010160D01*
D12*
X048830Y009850D02*
X048830Y009580D01*
X048965Y009580D01*
X049010Y009625D01*
X049010Y009805D01*
X048965Y009850D01*
X048830Y009850D01*
X049125Y009805D02*
X049170Y009850D01*
X049260Y009850D01*
X049305Y009805D01*
X049305Y009760D01*
X049125Y009580D01*
X049305Y009580D01*
X049419Y009625D02*
X049464Y009580D01*
X049554Y009580D01*
X049599Y009625D01*
X049599Y009715D01*
X049554Y009760D01*
X049509Y009760D01*
X049419Y009715D01*
X049419Y009850D01*
X049599Y009850D01*
X049419Y010580D02*
X049419Y010625D01*
X049599Y010805D01*
X049599Y010850D01*
X049419Y010850D01*
X049305Y010805D02*
X049260Y010850D01*
X049170Y010850D01*
X049125Y010805D01*
X049010Y010805D02*
X048965Y010850D01*
X048830Y010850D01*
X048830Y010580D01*
X048965Y010580D01*
X049010Y010625D01*
X049010Y010805D01*
X049125Y010580D02*
X049305Y010760D01*
X049305Y010805D01*
X049305Y010580D02*
X049125Y010580D01*
X049125Y011580D02*
X049305Y011760D01*
X049305Y011805D01*
X049260Y011850D01*
X049170Y011850D01*
X049125Y011805D01*
X049010Y011805D02*
X048965Y011850D01*
X048830Y011850D01*
X048830Y011580D01*
X048965Y011580D01*
X049010Y011625D01*
X049010Y011805D01*
X049125Y011580D02*
X049305Y011580D01*
X049419Y011625D02*
X049464Y011580D01*
X049554Y011580D01*
X049599Y011625D01*
X049599Y011805D01*
X049554Y011850D01*
X049464Y011850D01*
X049419Y011805D01*
X049419Y011760D01*
X049464Y011715D01*
X049599Y011715D01*
X049599Y012580D02*
X049419Y012580D01*
X049509Y012580D02*
X049509Y012850D01*
X049419Y012760D01*
X049305Y012760D02*
X049260Y012715D01*
X049305Y012670D01*
X049305Y012625D01*
X049260Y012580D01*
X049170Y012580D01*
X049125Y012625D01*
X049010Y012625D02*
X049010Y012805D01*
X048965Y012850D01*
X048830Y012850D01*
X048830Y012580D01*
X048965Y012580D01*
X049010Y012625D01*
X049125Y012805D02*
X049170Y012850D01*
X049260Y012850D01*
X049305Y012805D01*
X049305Y012760D01*
X049260Y012715D02*
X049215Y012715D01*
X049260Y013455D02*
X049170Y013455D01*
X049125Y013500D01*
X049010Y013500D02*
X049010Y013680D01*
X048965Y013725D01*
X048830Y013725D01*
X048830Y013455D01*
X048965Y013455D01*
X049010Y013500D01*
X049125Y013680D02*
X049170Y013725D01*
X049260Y013725D01*
X049305Y013680D01*
X049305Y013635D01*
X049260Y013590D01*
X049305Y013545D01*
X049305Y013500D01*
X049260Y013455D01*
X049260Y013590D02*
X049215Y013590D01*
X049419Y013500D02*
X049464Y013455D01*
X049554Y013455D01*
X049599Y013500D01*
X049599Y013545D01*
X049554Y013590D01*
X049509Y013590D01*
X049554Y013590D02*
X049599Y013635D01*
X049599Y013680D01*
X049554Y013725D01*
X049464Y013725D01*
X049419Y013680D01*
X049464Y014580D02*
X049419Y014625D01*
X049464Y014580D02*
X049554Y014580D01*
X049599Y014625D01*
X049599Y014715D01*
X049554Y014760D01*
X049509Y014760D01*
X049419Y014715D01*
X049419Y014850D01*
X049599Y014850D01*
X049305Y014805D02*
X049305Y014760D01*
X049260Y014715D01*
X049305Y014670D01*
X049305Y014625D01*
X049260Y014580D01*
X049170Y014580D01*
X049125Y014625D01*
X049010Y014625D02*
X049010Y014805D01*
X048965Y014850D01*
X048830Y014850D01*
X048830Y014580D01*
X048965Y014580D01*
X049010Y014625D01*
X049125Y014805D02*
X049170Y014850D01*
X049260Y014850D01*
X049305Y014805D01*
X049260Y014715D02*
X049215Y014715D01*
X049260Y015580D02*
X049170Y015580D01*
X049125Y015625D01*
X049010Y015625D02*
X049010Y015805D01*
X048965Y015850D01*
X048830Y015850D01*
X048830Y015580D01*
X048965Y015580D01*
X049010Y015625D01*
X049125Y015805D02*
X049170Y015850D01*
X049260Y015850D01*
X049305Y015805D01*
X049305Y015760D01*
X049260Y015715D01*
X049305Y015670D01*
X049305Y015625D01*
X049260Y015580D01*
X049260Y015715D02*
X049215Y015715D01*
X049419Y015625D02*
X049599Y015805D01*
X049599Y015850D01*
X049419Y015850D01*
X049419Y015625D02*
X049419Y015580D01*
X049464Y016580D02*
X049419Y016625D01*
X049464Y016580D02*
X049554Y016580D01*
X049599Y016625D01*
X049599Y016715D01*
X049554Y016760D01*
X049509Y016760D01*
X049419Y016715D01*
X049419Y016850D01*
X049599Y016850D01*
X049305Y016715D02*
X049125Y016715D01*
X049260Y016850D01*
X049260Y016580D01*
X049010Y016625D02*
X049010Y016805D01*
X048965Y016850D01*
X048830Y016850D01*
X048830Y016580D01*
X048965Y016580D01*
X049010Y016625D01*
X048965Y017580D02*
X049010Y017625D01*
X049010Y017715D01*
X048920Y017715D01*
X048830Y017625D02*
X048875Y017580D01*
X048965Y017580D01*
X048830Y017625D02*
X048830Y017805D01*
X048875Y017850D01*
X048965Y017850D01*
X049010Y017805D01*
X049125Y017850D02*
X049125Y017580D01*
X049305Y017580D02*
X049305Y017850D01*
X049419Y017850D02*
X049554Y017850D01*
X049599Y017805D01*
X049599Y017625D01*
X049554Y017580D01*
X049419Y017580D01*
X049419Y017850D01*
X049305Y017580D02*
X049125Y017850D01*
X049170Y018580D02*
X049125Y018625D01*
X049170Y018580D02*
X049260Y018580D01*
X049305Y018625D01*
X049305Y018715D01*
X049260Y018760D01*
X049215Y018760D01*
X049125Y018715D01*
X049125Y018850D01*
X049305Y018850D01*
X049419Y018850D02*
X049419Y018670D01*
X049509Y018580D01*
X049599Y018670D01*
X049599Y018850D01*
X049010Y018715D02*
X048830Y018715D01*
X048920Y018805D02*
X048920Y018625D01*
X046813Y020135D02*
X046768Y020135D01*
X046678Y020045D01*
X046678Y019955D02*
X046678Y020135D01*
X046564Y020090D02*
X046564Y020045D01*
X046384Y020045D01*
X046384Y020000D02*
X046384Y020090D01*
X046429Y020135D01*
X046519Y020135D01*
X046564Y020090D01*
X046519Y019955D02*
X046429Y019955D01*
X046384Y020000D01*
X046269Y019955D02*
X046089Y019955D01*
X046269Y020135D01*
X046089Y020135D01*
X045974Y020135D02*
X045794Y019955D01*
X045974Y019955D01*
X045974Y020135D02*
X045794Y020135D01*
X045680Y020135D02*
X045680Y019955D01*
X045545Y019955D01*
X045500Y020000D01*
X045500Y020135D01*
X045385Y020135D02*
X045340Y020090D01*
X045205Y020090D01*
X045205Y019955D02*
X045340Y019955D01*
X045385Y020000D01*
X045385Y020045D01*
X045340Y020090D01*
X045385Y020135D02*
X045385Y020180D01*
X045340Y020225D01*
X045205Y020225D01*
X045205Y019955D01*
X052430Y018680D02*
X052430Y016530D01*
X046858Y016385D02*
X046813Y016385D01*
X046723Y016295D01*
X046723Y016205D02*
X046723Y016385D01*
X046608Y016340D02*
X046608Y016295D01*
X046428Y016295D01*
X046428Y016250D02*
X046428Y016340D01*
X046473Y016385D01*
X046563Y016385D01*
X046608Y016340D01*
X046563Y016205D02*
X046473Y016205D01*
X046428Y016250D01*
X046314Y016205D02*
X046314Y016475D01*
X046314Y016385D02*
X046179Y016385D01*
X046134Y016340D01*
X046134Y016250D01*
X046179Y016205D01*
X046314Y016205D01*
X046019Y016250D02*
X046019Y016340D01*
X045974Y016385D01*
X045884Y016385D01*
X045839Y016340D01*
X045839Y016250D01*
X045884Y016205D01*
X045974Y016205D01*
X046019Y016250D01*
X045724Y016205D02*
X045589Y016205D01*
X045544Y016250D01*
X045544Y016340D01*
X045589Y016385D01*
X045724Y016385D01*
X045430Y016340D02*
X045430Y016205D01*
X045430Y016340D02*
X045385Y016385D01*
X045250Y016385D01*
X045250Y016205D01*
X045135Y016205D02*
X044955Y016205D01*
X044955Y016475D01*
X045135Y016475D01*
X045045Y016340D02*
X044955Y016340D01*
X052430Y013660D02*
X052430Y013530D01*
X049554Y008850D02*
X049599Y008805D01*
X049599Y008760D01*
X049554Y008715D01*
X049599Y008670D01*
X049599Y008625D01*
X049554Y008580D01*
X049464Y008580D01*
X049419Y008625D01*
X049305Y008580D02*
X049125Y008580D01*
X049305Y008760D01*
X049305Y008805D01*
X049260Y008850D01*
X049170Y008850D01*
X049125Y008805D01*
X049010Y008805D02*
X048965Y008850D01*
X048830Y008850D01*
X048830Y008580D01*
X048965Y008580D01*
X049010Y008625D01*
X049010Y008805D01*
X049419Y008805D02*
X049464Y008850D01*
X049554Y008850D01*
X049554Y008715D02*
X049509Y008715D01*
X049419Y007850D02*
X049599Y007850D01*
X049599Y007805D01*
X049419Y007625D01*
X049419Y007580D01*
X049305Y007580D02*
X049125Y007580D01*
X049215Y007580D02*
X049215Y007850D01*
X049125Y007760D01*
X049010Y007805D02*
X048965Y007850D01*
X048830Y007850D01*
X048830Y007580D01*
X048965Y007580D01*
X049010Y007625D01*
X049010Y007805D01*
X048965Y006850D02*
X048830Y006850D01*
X048830Y006580D01*
X048965Y006580D01*
X049010Y006625D01*
X049010Y006805D01*
X048965Y006850D01*
X049125Y006760D02*
X049215Y006850D01*
X049215Y006580D01*
X049125Y006580D02*
X049305Y006580D01*
X049419Y006625D02*
X049464Y006580D01*
X049554Y006580D01*
X049599Y006625D01*
X049599Y006670D01*
X049554Y006715D01*
X049419Y006715D01*
X049419Y006625D01*
X049419Y006715D02*
X049509Y006805D01*
X049599Y006850D01*
X020170Y022650D02*
X020125Y022605D01*
X020035Y022605D01*
X019990Y022650D01*
X019990Y022740D01*
X020125Y022740D01*
X020170Y022695D01*
X020170Y022650D01*
X020080Y022830D02*
X019990Y022740D01*
X020080Y022830D02*
X020170Y022875D01*
X019785Y022875D02*
X019785Y022605D01*
X019695Y022605D02*
X019875Y022605D01*
X019695Y022785D02*
X019785Y022875D01*
X019830Y024580D02*
X019830Y024850D01*
X019875Y024715D02*
X020010Y024580D01*
X019830Y024670D02*
X020010Y024850D01*
X019010Y024760D02*
X019010Y024580D01*
X019010Y024715D02*
X018830Y024715D01*
X018830Y024760D02*
X018920Y024850D01*
X019010Y024760D01*
X018830Y024760D02*
X018830Y024580D01*
X018349Y024805D02*
X018349Y024850D01*
X018169Y024850D01*
X018055Y024805D02*
X018010Y024850D01*
X017875Y024850D01*
X017875Y024580D01*
X018010Y024580D01*
X018055Y024625D01*
X018055Y024670D01*
X018010Y024715D01*
X017875Y024715D01*
X018010Y024715D02*
X018055Y024760D01*
X018055Y024805D01*
X018169Y024625D02*
X018169Y024580D01*
X018169Y024625D02*
X018349Y024805D01*
X017760Y024805D02*
X017715Y024850D01*
X017580Y024850D01*
X017580Y024580D01*
X017715Y024580D01*
X017760Y024625D01*
X017760Y024805D01*
X017349Y024850D02*
X017259Y024805D01*
X017169Y024715D01*
X017304Y024715D01*
X017349Y024670D01*
X017349Y024625D01*
X017304Y024580D01*
X017214Y024580D01*
X017169Y024625D01*
X017169Y024715D01*
X017055Y024670D02*
X017055Y024625D01*
X017010Y024580D01*
X016875Y024580D01*
X016875Y024850D01*
X017010Y024850D01*
X017055Y024805D01*
X017055Y024760D01*
X017010Y024715D01*
X016875Y024715D01*
X017010Y024715D02*
X017055Y024670D01*
X016760Y024625D02*
X016760Y024805D01*
X016715Y024850D01*
X016580Y024850D01*
X016580Y024580D01*
X016715Y024580D01*
X016760Y024625D01*
X016349Y024625D02*
X016304Y024580D01*
X016214Y024580D01*
X016169Y024625D01*
X016169Y024715D02*
X016259Y024760D01*
X016304Y024760D01*
X016349Y024715D01*
X016349Y024625D01*
X016169Y024715D02*
X016169Y024850D01*
X016349Y024850D01*
X016055Y024805D02*
X016055Y024760D01*
X016010Y024715D01*
X015875Y024715D01*
X016010Y024715D02*
X016055Y024670D01*
X016055Y024625D01*
X016010Y024580D01*
X015875Y024580D01*
X015875Y024850D01*
X016010Y024850D01*
X016055Y024805D01*
X015760Y024805D02*
X015715Y024850D01*
X015580Y024850D01*
X015580Y024580D01*
X015715Y024580D01*
X015760Y024625D01*
X015760Y024805D01*
X015349Y024715D02*
X015169Y024715D01*
X015304Y024850D01*
X015304Y024580D01*
X015055Y024625D02*
X015010Y024580D01*
X014875Y024580D01*
X014875Y024850D01*
X015010Y024850D01*
X015055Y024805D01*
X015055Y024760D01*
X015010Y024715D01*
X014875Y024715D01*
X015010Y024715D02*
X015055Y024670D01*
X015055Y024625D01*
X014760Y024625D02*
X014760Y024805D01*
X014715Y024850D01*
X014580Y024850D01*
X014580Y024580D01*
X014715Y024580D01*
X014760Y024625D01*
X010180Y024580D02*
X010180Y024850D01*
X010000Y024850D02*
X010000Y024580D01*
X009885Y024580D02*
X009705Y024580D01*
X009705Y024850D01*
X009885Y024850D01*
X010000Y024850D02*
X010180Y024580D01*
X009795Y024715D02*
X009705Y024715D01*
X009349Y024580D02*
X009349Y024850D01*
X009169Y024850D02*
X009169Y024580D01*
X009259Y024670D01*
X009349Y024580D01*
X009055Y024850D02*
X008875Y024580D01*
X008760Y024580D02*
X008670Y024670D01*
X008715Y024670D02*
X008580Y024670D01*
X008580Y024580D02*
X008580Y024850D01*
X008715Y024850D01*
X008760Y024805D01*
X008760Y024715D01*
X008715Y024670D01*
X008180Y024670D02*
X008180Y024625D01*
X008135Y024580D01*
X008045Y024580D01*
X008000Y024625D01*
X008045Y024715D02*
X008135Y024715D01*
X008180Y024670D01*
X008180Y024805D02*
X008135Y024850D01*
X008045Y024850D01*
X008000Y024805D01*
X008000Y024760D01*
X008045Y024715D01*
X007885Y024715D02*
X007840Y024670D01*
X007705Y024670D01*
X007705Y024580D02*
X007705Y024850D01*
X007840Y024850D01*
X007885Y024805D01*
X007885Y024715D01*
X007795Y024670D02*
X007885Y024580D01*
X007349Y024580D02*
X007349Y024850D01*
X007169Y024850D02*
X007169Y024580D01*
X007055Y024625D02*
X007055Y024805D01*
X007010Y024850D01*
X006920Y024850D01*
X006875Y024805D01*
X006875Y024625D01*
X006920Y024580D01*
X007010Y024580D01*
X007055Y024625D01*
X007169Y024850D02*
X007349Y024580D01*
X006760Y024625D02*
X006715Y024580D01*
X006625Y024580D01*
X006580Y024625D01*
X006580Y024805D01*
X006625Y024850D01*
X006715Y024850D01*
X006760Y024805D01*
X006349Y024805D02*
X006304Y024850D01*
X006169Y024850D01*
X006169Y024580D01*
X006304Y024580D01*
X006349Y024625D01*
X006349Y024805D01*
X006055Y024805D02*
X006010Y024850D01*
X005875Y024850D01*
X005875Y024580D01*
X006010Y024580D01*
X006055Y024625D01*
X006055Y024805D01*
X005760Y024850D02*
X005760Y024670D01*
X005670Y024580D01*
X005580Y024670D01*
X005580Y024850D01*
X005349Y024805D02*
X005304Y024850D01*
X005169Y024850D01*
X005169Y024580D01*
X005304Y024580D01*
X005349Y024625D01*
X005349Y024805D01*
X005055Y024850D02*
X005055Y024580D01*
X004875Y024850D01*
X004875Y024580D01*
X004760Y024625D02*
X004760Y024715D01*
X004670Y024715D01*
X004580Y024625D02*
X004625Y024580D01*
X004715Y024580D01*
X004760Y024625D01*
X004580Y024625D02*
X004580Y024805D01*
X004625Y024850D01*
X004715Y024850D01*
X004760Y024805D01*
X004945Y022875D02*
X004945Y022605D01*
X004855Y022605D02*
X005035Y022605D01*
X004855Y022785D02*
X004945Y022875D01*
X005263Y001755D02*
X005263Y001455D01*
X005363Y001555D01*
X005463Y001455D01*
X005463Y001755D01*
X005585Y001605D02*
X005635Y001655D01*
X005735Y001655D01*
X005785Y001605D01*
X005785Y001555D01*
X005585Y001555D01*
X005585Y001505D02*
X005585Y001605D01*
X005585Y001505D02*
X005635Y001455D01*
X005735Y001455D01*
X005907Y001455D02*
X006057Y001455D01*
X006107Y001505D01*
X006057Y001555D01*
X005957Y001555D01*
X005907Y001605D01*
X005957Y001655D01*
X006107Y001655D01*
X006229Y001655D02*
X006330Y001655D01*
X006280Y001705D02*
X006280Y001505D01*
X006330Y001455D01*
X006444Y001505D02*
X006494Y001455D01*
X006594Y001455D01*
X006645Y001505D01*
X006645Y001605D01*
X006594Y001655D01*
X006494Y001655D01*
X006444Y001605D01*
X006444Y001505D01*
X006767Y001455D02*
X006767Y001655D01*
X006917Y001655D01*
X006967Y001605D01*
X006967Y001455D01*
X007089Y001355D02*
X007189Y001455D01*
X007139Y001455D01*
X007139Y001505D01*
X007189Y001505D01*
X007189Y001455D01*
X007626Y001455D02*
X007826Y001655D01*
X007826Y001705D01*
X007776Y001755D01*
X007676Y001755D01*
X007626Y001705D01*
X007626Y001455D02*
X007826Y001455D01*
X007948Y001505D02*
X008148Y001705D01*
X008148Y001505D01*
X008098Y001455D01*
X007998Y001455D01*
X007948Y001505D01*
X007948Y001705D01*
X007998Y001755D01*
X008098Y001755D01*
X008148Y001705D01*
X008271Y001655D02*
X008371Y001755D01*
X008371Y001455D01*
X008271Y001455D02*
X008471Y001455D01*
X008593Y001455D02*
X008793Y001655D01*
X008793Y001705D01*
X008743Y001755D01*
X008643Y001755D01*
X008593Y001705D01*
X008593Y001455D02*
X008793Y001455D01*
X004818Y001555D02*
X004618Y001555D01*
X004618Y001505D02*
X004618Y001605D01*
X004668Y001655D01*
X004768Y001655D01*
X004818Y001605D01*
X004818Y001555D01*
X004768Y001455D02*
X004668Y001455D01*
X004618Y001505D01*
X004500Y001455D02*
X004350Y001555D01*
X004500Y001655D01*
X004350Y001755D02*
X004350Y001455D01*
X004227Y001455D02*
X004227Y001655D01*
X004027Y001655D02*
X004027Y001505D01*
X004077Y001455D01*
X004227Y001455D01*
X003905Y001455D02*
X003705Y001455D01*
X003705Y001755D01*
D13*
X047430Y022630D02*
X047430Y023130D01*
X047180Y022880D02*
X047680Y022880D01*
X051180Y019180D02*
X051180Y018930D01*
X051430Y018930D01*
X051430Y018430D01*
X051180Y018430D01*
X051180Y017930D01*
X051430Y017930D01*
X051430Y017430D01*
X051180Y017430D01*
X051180Y016930D01*
X051430Y016930D01*
X051430Y016430D01*
X051180Y016430D01*
X051180Y016180D01*
X052430Y016180D01*
X052430Y016530D01*
X054880Y016530D01*
X055020Y016660D01*
X055580Y016680D02*
X055780Y016780D01*
X055780Y017200D01*
X055780Y017160D02*
X055780Y018580D01*
X055580Y018680D01*
X052430Y018680D01*
X052430Y019180D01*
X051180Y019180D01*
X052430Y018830D02*
X054880Y018830D01*
X055020Y018700D01*
X055580Y016680D02*
X052430Y016680D01*
X052430Y016180D02*
X051180Y016180D01*
X051180Y015930D01*
X051430Y015930D01*
X051430Y015430D01*
X051180Y015430D01*
X051180Y014930D01*
X051430Y014930D01*
X051430Y014430D01*
X051180Y014430D01*
X051180Y013930D01*
X051430Y013930D01*
X051430Y013430D01*
X051180Y013430D01*
X051180Y012930D01*
X051430Y012930D01*
X051430Y012430D01*
X051180Y012430D01*
X051180Y011930D01*
X051430Y011930D01*
X051430Y011430D01*
X051180Y011430D01*
X051180Y010930D01*
X051430Y010930D01*
X051430Y010430D01*
X051180Y010430D01*
X051180Y009930D01*
X051430Y009930D01*
X051430Y009430D01*
X051180Y009430D01*
X051180Y008930D01*
X051430Y008930D01*
X051430Y008430D01*
X051180Y008430D01*
X051180Y007930D01*
X051430Y007930D01*
X051430Y007430D01*
X051180Y007430D01*
X051180Y006930D01*
X051430Y006930D01*
X051430Y006430D01*
X051180Y006430D01*
X051180Y006180D01*
X052430Y006180D01*
X052430Y006530D01*
X054880Y006530D01*
X055020Y006660D01*
X055580Y006680D02*
X055780Y006780D01*
X055780Y008700D01*
X052430Y008700D01*
X052430Y008830D02*
X054880Y008830D01*
X055020Y008700D01*
X054880Y009530D02*
X055020Y009660D01*
X055020Y009700D02*
X054880Y009830D01*
X052430Y009830D01*
X052430Y009530D02*
X054880Y009530D01*
X054880Y010530D02*
X055020Y010660D01*
X055020Y010700D02*
X054880Y010830D01*
X052430Y010830D01*
X052430Y010530D02*
X054880Y010530D01*
X054880Y011530D02*
X055020Y011660D01*
X055020Y011700D02*
X054880Y011830D01*
X052430Y011830D01*
X052430Y011530D02*
X054880Y011530D01*
X054880Y012530D02*
X055020Y012660D01*
X055020Y012700D02*
X054880Y012830D01*
X052430Y012830D01*
X052430Y012530D02*
X054880Y012530D01*
X054880Y013530D02*
X055020Y013660D01*
X052430Y013660D01*
X052430Y015680D01*
X055580Y015680D01*
X055780Y015580D01*
X055780Y013660D01*
X055020Y013660D01*
X054880Y013530D02*
X052430Y013530D01*
X052430Y012530D01*
X052430Y011530D01*
X052430Y010530D01*
X052430Y009530D01*
X052430Y006530D01*
X052430Y006680D02*
X055580Y006680D01*
X055020Y015700D02*
X054880Y015830D01*
X052430Y015830D01*
X052430Y015680D02*
X052430Y016180D01*
D14*
X047265Y020517D02*
X047208Y020460D01*
X047095Y020460D01*
X047038Y020517D01*
X047095Y020630D02*
X047208Y020630D01*
X047265Y020573D01*
X047265Y020517D01*
X047095Y020630D02*
X047038Y020687D01*
X047038Y020744D01*
X047095Y020800D01*
X047208Y020800D01*
X047265Y020744D01*
X046897Y020800D02*
X046670Y020800D01*
X046670Y020630D01*
X046783Y020687D01*
X046840Y020687D01*
X046897Y020630D01*
X046897Y020517D01*
X046840Y020460D01*
X046727Y020460D01*
X046670Y020517D01*
X046528Y020517D02*
X046472Y020460D01*
X046358Y020460D01*
X046302Y020517D01*
X046528Y020744D01*
X046528Y020517D01*
X046302Y020517D02*
X046302Y020744D01*
X046358Y020800D01*
X046472Y020800D01*
X046528Y020744D01*
X046160Y020744D02*
X046160Y020687D01*
X045933Y020460D01*
X046160Y020460D01*
X046160Y020744D02*
X046103Y020800D01*
X045990Y020800D01*
X045933Y020744D01*
X045678Y020800D02*
X045678Y020460D01*
X045565Y020460D02*
X045792Y020460D01*
X045565Y020687D02*
X045678Y020800D01*
X045423Y020800D02*
X045197Y020800D01*
X045310Y020800D02*
X045310Y020460D01*
X045055Y020517D02*
X044998Y020460D01*
X044885Y020460D01*
X044828Y020517D01*
X044885Y020630D02*
X044998Y020630D01*
X045055Y020573D01*
X045055Y020517D01*
X044885Y020630D02*
X044828Y020687D01*
X044828Y020744D01*
X044885Y020800D01*
X044998Y020800D01*
X045055Y020744D01*
X044687Y020800D02*
X044687Y020460D01*
X044573Y020573D01*
X044460Y020460D01*
X044460Y020800D01*
X043180Y021680D02*
X043183Y021815D01*
X043193Y021950D01*
X043210Y022084D01*
X043233Y022216D01*
X043262Y022348D01*
X043298Y022478D01*
X043341Y022606D01*
X043389Y022732D01*
X043444Y022856D01*
X043505Y022976D01*
X043571Y023094D01*
X043643Y023208D01*
X043721Y023318D01*
X043804Y023425D01*
X043892Y023527D01*
X043985Y023625D01*
X044083Y023718D01*
X044185Y023806D01*
X044292Y023889D01*
X044402Y023967D01*
X044516Y024039D01*
X044634Y024105D01*
X044754Y024166D01*
X044878Y024221D01*
X045004Y024269D01*
X045132Y024312D01*
X045262Y024348D01*
X045394Y024377D01*
X045526Y024400D01*
X045660Y024417D01*
X045795Y024427D01*
X045930Y024430D01*
X046065Y024427D01*
X046200Y024417D01*
X046334Y024400D01*
X046466Y024377D01*
X046598Y024348D01*
X046728Y024312D01*
X046856Y024269D01*
X046982Y024221D01*
X047106Y024166D01*
X047226Y024105D01*
X047344Y024039D01*
X047458Y023967D01*
X047568Y023889D01*
X047675Y023806D01*
X047777Y023718D01*
X047875Y023625D01*
X047968Y023527D01*
X048056Y023425D01*
X048139Y023318D01*
X048217Y023208D01*
X048289Y023094D01*
X048355Y022976D01*
X048416Y022856D01*
X048471Y022732D01*
X048519Y022606D01*
X048562Y022478D01*
X048598Y022348D01*
X048627Y022216D01*
X048650Y022084D01*
X048667Y021950D01*
X048677Y021815D01*
X048680Y021680D01*
X048677Y021545D01*
X048667Y021410D01*
X048650Y021276D01*
X048627Y021144D01*
X048598Y021012D01*
X048562Y020882D01*
X048519Y020754D01*
X048471Y020628D01*
X048416Y020504D01*
X048355Y020384D01*
X048289Y020266D01*
X048217Y020152D01*
X048139Y020042D01*
X048056Y019935D01*
X047968Y019833D01*
X047875Y019735D01*
X047777Y019642D01*
X047675Y019554D01*
X047568Y019471D01*
X047458Y019393D01*
X047344Y019321D01*
X047226Y019255D01*
X047106Y019194D01*
X046982Y019139D01*
X046856Y019091D01*
X046728Y019048D01*
X046598Y019012D01*
X046466Y018983D01*
X046334Y018960D01*
X046200Y018943D01*
X046065Y018933D01*
X045930Y018930D01*
X045795Y018933D01*
X045660Y018943D01*
X045526Y018960D01*
X045394Y018983D01*
X045262Y019012D01*
X045132Y019048D01*
X045004Y019091D01*
X044878Y019139D01*
X044754Y019194D01*
X044634Y019255D01*
X044516Y019321D01*
X044402Y019393D01*
X044292Y019471D01*
X044185Y019554D01*
X044083Y019642D01*
X043985Y019735D01*
X043892Y019833D01*
X043804Y019935D01*
X043721Y020042D01*
X043643Y020152D01*
X043571Y020266D01*
X043505Y020384D01*
X043444Y020504D01*
X043389Y020628D01*
X043341Y020754D01*
X043298Y020882D01*
X043262Y021012D01*
X043233Y021144D01*
X043210Y021276D01*
X043193Y021410D01*
X043183Y021545D01*
X043180Y021680D01*
X002930Y022080D02*
X002930Y018280D01*
X000930Y018280D01*
X000930Y022080D01*
X002930Y022080D01*
X002440Y018050D02*
X002440Y017710D01*
X002440Y017823D02*
X002610Y017937D01*
X002440Y017823D02*
X002610Y017710D01*
X001930Y017767D02*
X001930Y017994D01*
X001703Y017767D01*
X001760Y017710D01*
X001873Y017710D01*
X001930Y017767D01*
X001930Y017994D02*
X001873Y018050D01*
X001760Y018050D01*
X001703Y017994D01*
X001703Y017767D01*
X001562Y017710D02*
X001335Y017710D01*
X001448Y017710D02*
X001448Y018050D01*
X001335Y017937D01*
D15*
X015816Y002395D02*
X015715Y002294D01*
X015836Y002145D01*
X015805Y002085D01*
X015784Y002021D01*
X015594Y002002D01*
X015594Y001858D01*
X015784Y001839D01*
X015805Y001775D01*
X015836Y001715D01*
X015715Y001566D01*
X015816Y001465D01*
X015965Y001586D01*
X016025Y001555D01*
X016109Y001759D01*
X016072Y001781D01*
X016040Y001810D01*
X016016Y001846D01*
X016001Y001887D01*
X015995Y001930D01*
X016001Y001974D01*
X016016Y002015D01*
X016041Y002052D01*
X016074Y002081D01*
X016113Y002102D01*
X016156Y002113D01*
X016200Y002113D01*
X016243Y002103D01*
X016282Y002083D01*
X016316Y002055D01*
X016342Y002019D01*
X016358Y001978D01*
X016364Y001934D01*
X016360Y001890D01*
X016345Y001848D01*
X016321Y001811D01*
X016289Y001781D01*
X016251Y001759D01*
X016335Y001555D01*
X016395Y001586D01*
X016544Y001465D01*
X016645Y001566D01*
X016524Y001715D01*
X016555Y001775D01*
X016576Y001839D01*
X016766Y001858D01*
X016766Y002002D01*
X016576Y002021D01*
X016555Y002085D01*
X016524Y002145D01*
X016645Y002294D01*
X016544Y002395D01*
X016395Y002274D01*
X016335Y002305D01*
X016271Y002326D01*
X016252Y002516D01*
X016108Y002516D01*
X016089Y002326D01*
X016025Y002305D01*
X015965Y002274D01*
X015816Y002395D01*
X015770Y002349D02*
X015873Y002349D01*
X015944Y002292D02*
X015716Y002292D01*
X015763Y002234D02*
X016597Y002234D01*
X016644Y002292D02*
X016416Y002292D01*
X016362Y002292D02*
X015998Y002292D01*
X016091Y002349D02*
X016269Y002349D01*
X016263Y002407D02*
X016097Y002407D01*
X016103Y002464D02*
X016257Y002464D01*
X016487Y002349D02*
X016590Y002349D01*
X016550Y002176D02*
X015810Y002176D01*
X015822Y002119D02*
X016538Y002119D01*
X016563Y002061D02*
X016308Y002061D01*
X016348Y002004D02*
X016748Y002004D01*
X016766Y001946D02*
X016363Y001946D01*
X016360Y001889D02*
X016766Y001889D01*
X016573Y001831D02*
X016334Y001831D01*
X016276Y001774D02*
X016555Y001774D01*
X016525Y001716D02*
X016269Y001716D01*
X016292Y001658D02*
X016570Y001658D01*
X016617Y001601D02*
X016316Y001601D01*
X016447Y001543D02*
X016622Y001543D01*
X016565Y001486D02*
X016518Y001486D01*
X016068Y001658D02*
X015790Y001658D01*
X015835Y001716D02*
X016091Y001716D01*
X016084Y001774D02*
X015805Y001774D01*
X015787Y001831D02*
X016026Y001831D01*
X016000Y001889D02*
X015594Y001889D01*
X015594Y001946D02*
X015997Y001946D01*
X016012Y002004D02*
X015612Y002004D01*
X015797Y002061D02*
X016052Y002061D01*
X016044Y001601D02*
X015743Y001601D01*
X015738Y001543D02*
X015913Y001543D01*
X015842Y001486D02*
X015795Y001486D01*
M02*
