G75*
G70*
%OFA0B0*%
%FSLAX24Y24*%
%IPPOS*%
%LPD*%
%AMOC8*
5,1,8,0,0,1.08239X$1,22.5*
%
%ADD10C,0.0700*%
%ADD11C,0.0600*%
%ADD12C,0.0660*%
%ADD13R,0.0512X0.0630*%
%ADD14OC8,0.1000*%
%ADD15C,0.0520*%
%ADD16R,0.0315X0.0354*%
%ADD17R,0.0630X0.0512*%
%ADD18C,0.0200*%
%ADD19C,0.0475*%
%ADD20C,0.0160*%
%ADD21C,0.0320*%
%ADD22C,0.0240*%
%ADD23C,0.0190*%
D10*
X004928Y023333D02*
X004928Y024033D01*
X005928Y024033D02*
X005928Y023333D01*
X006928Y023333D02*
X006928Y024033D01*
X007928Y024033D02*
X007928Y023333D01*
X008928Y023333D02*
X008928Y024033D01*
X009928Y024033D02*
X009928Y023333D01*
X010928Y023333D02*
X010928Y024033D01*
X011928Y024033D02*
X011928Y023333D01*
X012928Y023333D02*
X012928Y024033D01*
X013928Y024033D02*
X013928Y023333D01*
X014928Y023333D02*
X014928Y024033D01*
X015928Y024033D02*
X015928Y023333D01*
X016928Y023333D02*
X016928Y024033D01*
X017928Y024033D02*
X017928Y023333D01*
X018928Y023333D02*
X018928Y024033D01*
X019928Y024033D02*
X019928Y023333D01*
D11*
X050130Y018680D02*
X050730Y018680D01*
X050730Y017680D02*
X050130Y017680D01*
X050130Y016680D02*
X050730Y016680D01*
X050730Y015680D02*
X050130Y015680D01*
X050130Y014680D02*
X050730Y014680D01*
X050730Y013680D02*
X050130Y013680D01*
X050130Y012680D02*
X050730Y012680D01*
X050730Y011680D02*
X050130Y011680D01*
X050130Y010680D02*
X050730Y010680D01*
X050730Y009680D02*
X050130Y009680D01*
X050130Y008680D02*
X050730Y008680D01*
X050730Y007680D02*
X050130Y007680D01*
X050130Y006680D02*
X050730Y006680D01*
D12*
X046914Y009727D03*
X045930Y009727D03*
X044946Y009727D03*
X044946Y015436D03*
X046914Y015436D03*
D13*
X039304Y015180D03*
X038556Y015180D03*
X038556Y013680D03*
X039304Y013680D03*
X039304Y012180D03*
X038556Y012180D03*
X004074Y021180D03*
X003286Y021180D03*
D14*
X044430Y021680D03*
X047430Y021680D03*
D15*
X002190Y021180D02*
X001670Y021180D01*
X001670Y020180D02*
X002190Y020180D01*
X002190Y019180D02*
X001670Y019180D01*
D16*
X022806Y023411D03*
X023554Y023411D03*
X023180Y024238D03*
X041556Y022574D03*
X042304Y022574D03*
X041930Y021747D03*
D17*
X041555Y023306D03*
X041555Y024054D03*
X022930Y021554D03*
X022930Y020806D03*
X021180Y022931D03*
X021180Y023679D03*
D18*
X021681Y022931D02*
X022180Y023430D01*
X022180Y023930D01*
X022488Y024238D01*
X023180Y024238D01*
X022806Y023411D02*
X022806Y022806D01*
X022180Y022430D01*
X021930Y022180D01*
X022930Y022180D02*
X022930Y021554D01*
X022930Y022180D02*
X023554Y022804D01*
X023554Y023411D01*
X021681Y022931D02*
X021180Y022931D01*
X021181Y022930D01*
X041536Y022554D02*
X041555Y022573D01*
X044930Y015436D02*
X044946Y015436D01*
D19*
X045930Y015193D03*
X046430Y014805D03*
X049305Y014055D03*
X046430Y013305D03*
X042930Y015430D03*
X042930Y017680D03*
X040430Y019165D03*
X040431Y021554D03*
X045930Y018430D03*
X049305Y019680D03*
X041430Y012680D03*
X040430Y012680D03*
X040430Y009930D03*
X041430Y009942D03*
X046430Y010567D03*
X024180Y022430D03*
X022180Y022430D03*
X020430Y020805D03*
X008930Y022180D03*
X004930Y022180D03*
X004930Y021180D03*
X004930Y019180D03*
X020430Y013680D03*
D20*
X002637Y001168D02*
X002623Y001160D01*
X037952Y001160D01*
X037938Y001168D01*
X037738Y001368D01*
X037597Y001612D01*
X037524Y001884D01*
X037524Y002166D01*
X037597Y002438D01*
X037738Y002682D01*
X037938Y002882D01*
X038182Y003023D01*
X038454Y003096D01*
X038736Y003096D01*
X039008Y003023D01*
X039252Y002882D01*
X039452Y002682D01*
X039593Y002438D01*
X039666Y002166D01*
X039666Y001884D01*
X039593Y001612D01*
X039452Y001368D01*
X039252Y001168D01*
X039238Y001160D01*
X050680Y001160D01*
X050850Y001170D01*
X051182Y001245D01*
X051489Y001393D01*
X051755Y001605D01*
X051967Y001871D01*
X052115Y002178D01*
X052190Y002510D01*
X052200Y002680D01*
X052200Y023180D01*
X052190Y023350D01*
X052115Y023682D01*
X051967Y023989D01*
X051755Y024255D01*
X051489Y024467D01*
X051182Y024615D01*
X050850Y024690D01*
X050680Y024700D01*
X038920Y024700D01*
X039003Y024678D01*
X039247Y024537D01*
X039447Y024337D01*
X039588Y024093D01*
X039661Y023821D01*
X039661Y023539D01*
X039588Y023267D01*
X039447Y023023D01*
X039247Y022823D01*
X039003Y022682D01*
X038731Y022609D01*
X038449Y022609D01*
X038177Y022682D01*
X037933Y022823D01*
X037733Y023023D01*
X037592Y023267D01*
X037519Y023539D01*
X037519Y023821D01*
X037592Y024093D01*
X037733Y024337D01*
X037933Y024537D01*
X038177Y024678D01*
X038260Y024700D01*
X023618Y024700D01*
X023677Y024642D01*
X023737Y024495D01*
X023737Y023988D01*
X023791Y023988D01*
X023938Y023928D01*
X024051Y023815D01*
X024111Y023668D01*
X024111Y023155D01*
X024054Y023016D01*
X024054Y022705D01*
X023978Y022521D01*
X023571Y022114D01*
X040117Y022114D01*
X040304Y022191D01*
X040558Y022191D01*
X040792Y022094D01*
X040971Y021915D01*
X041068Y021681D01*
X041068Y021427D01*
X040971Y021193D01*
X040792Y021014D01*
X040558Y020916D01*
X040304Y020916D01*
X040117Y020994D01*
X038534Y020994D01*
X038788Y020740D01*
X045698Y020740D01*
X046530Y021572D01*
X046530Y022053D01*
X047057Y022580D01*
X047248Y022580D01*
X047081Y022748D01*
X042641Y022748D01*
X042641Y022574D01*
X042304Y022574D01*
X042304Y022574D01*
X042641Y022574D01*
X042641Y022373D01*
X042629Y022327D01*
X042606Y022286D01*
X042582Y022262D01*
X042636Y022240D01*
X043717Y022240D01*
X044057Y022580D01*
X044803Y022580D01*
X045330Y022053D01*
X045330Y021307D01*
X044803Y020780D01*
X044057Y020780D01*
X043717Y021120D01*
X042319Y021120D01*
X042183Y021176D01*
X042167Y021170D01*
X041693Y021170D01*
X041546Y021231D01*
X041433Y021343D01*
X041373Y021490D01*
X041373Y021629D01*
X041370Y021636D01*
X041370Y021858D01*
X041373Y021864D01*
X041373Y021997D01*
X041319Y021997D01*
X041172Y022057D01*
X041059Y022170D01*
X040999Y022317D01*
X040999Y022726D01*
X040901Y022823D01*
X040840Y022971D01*
X040840Y023641D01*
X040901Y023788D01*
X041013Y023901D01*
X041060Y023920D01*
X041060Y024006D01*
X041507Y024006D01*
X041507Y024102D01*
X041060Y024102D01*
X041060Y024334D01*
X041072Y024379D01*
X041096Y024420D01*
X041130Y024454D01*
X041171Y024478D01*
X041216Y024490D01*
X041507Y024490D01*
X041507Y024102D01*
X041603Y024102D01*
X042050Y024102D01*
X042050Y024334D01*
X042038Y024379D01*
X042014Y024420D01*
X041980Y024454D01*
X041939Y024478D01*
X041894Y024490D01*
X041603Y024490D01*
X041603Y024102D01*
X041603Y024006D01*
X042050Y024006D01*
X042050Y023920D01*
X042097Y023901D01*
X042130Y023868D01*
X047424Y023868D01*
X047630Y023782D01*
X047787Y023625D01*
X049780Y021632D01*
X049865Y021426D01*
X049865Y019994D01*
X049942Y019807D01*
X049942Y019553D01*
X049846Y019320D01*
X049991Y019380D01*
X050869Y019380D01*
X051127Y019273D01*
X051323Y019077D01*
X051430Y018819D01*
X051430Y018541D01*
X051323Y018283D01*
X051127Y018087D01*
X051038Y018050D01*
X051043Y018046D01*
X051096Y017993D01*
X051141Y017932D01*
X051175Y017864D01*
X051198Y017792D01*
X051210Y017718D01*
X051210Y017700D01*
X050450Y017700D01*
X050450Y017660D01*
X051210Y017660D01*
X051210Y017642D01*
X051198Y017568D01*
X051175Y017496D01*
X051141Y017428D01*
X051096Y017367D01*
X051043Y017314D01*
X051038Y017310D01*
X051127Y017273D01*
X051323Y017077D01*
X051430Y016819D01*
X051430Y016541D01*
X051323Y016283D01*
X051220Y016180D01*
X051323Y016077D01*
X051430Y015819D01*
X051430Y015541D01*
X051323Y015283D01*
X051220Y015180D01*
X051323Y015077D01*
X051430Y014819D01*
X051430Y014541D01*
X051323Y014283D01*
X051220Y014180D01*
X051323Y014077D01*
X051430Y013819D01*
X051430Y013541D01*
X051323Y013283D01*
X051220Y013180D01*
X051323Y013077D01*
X051430Y012819D01*
X051430Y012541D01*
X051323Y012283D01*
X051220Y012180D01*
X051323Y012077D01*
X051430Y011819D01*
X051430Y011541D01*
X051323Y011283D01*
X051220Y011180D01*
X051323Y011077D01*
X051430Y010819D01*
X051430Y010541D01*
X051323Y010283D01*
X051220Y010180D01*
X051323Y010077D01*
X051430Y009819D01*
X051430Y009541D01*
X051323Y009283D01*
X051220Y009180D01*
X051323Y009077D01*
X051430Y008819D01*
X051430Y008541D01*
X051323Y008283D01*
X051220Y008180D01*
X051323Y008077D01*
X051430Y007819D01*
X051430Y007541D01*
X051323Y007283D01*
X051220Y007180D01*
X051323Y007077D01*
X051430Y006819D01*
X051430Y006541D01*
X051323Y006283D01*
X051127Y006087D01*
X050869Y005980D01*
X049991Y005980D01*
X049733Y006087D01*
X049700Y006120D01*
X049662Y006120D01*
X049247Y005705D01*
X049041Y005620D01*
X035069Y005620D01*
X034863Y005705D01*
X031455Y009113D01*
X031370Y009319D01*
X031370Y013448D01*
X030698Y014120D01*
X020892Y014120D01*
X020970Y014041D01*
X021067Y013807D01*
X021067Y013553D01*
X020970Y013319D01*
X020791Y013140D01*
X020557Y013043D01*
X020303Y013043D01*
X020116Y013120D01*
X014319Y013120D01*
X014113Y013205D01*
X013955Y013363D01*
X013955Y013363D01*
X011613Y015705D01*
X011613Y015705D01*
X011455Y015863D01*
X011370Y016069D01*
X011370Y018448D01*
X011198Y018620D01*
X005244Y018620D01*
X005057Y018543D01*
X004803Y018543D01*
X004616Y018620D01*
X002563Y018620D01*
X002321Y018520D01*
X001539Y018520D01*
X001296Y018620D01*
X001110Y018806D01*
X001010Y019049D01*
X001010Y019311D01*
X001110Y019554D01*
X001237Y019680D01*
X001110Y019806D01*
X001010Y020049D01*
X001010Y020311D01*
X001110Y020554D01*
X001296Y020740D01*
X001445Y020801D01*
X001439Y020804D01*
X001383Y020844D01*
X001334Y020893D01*
X001294Y020949D01*
X001262Y021011D01*
X001241Y021077D01*
X001230Y021145D01*
X001230Y021180D01*
X001930Y021180D01*
X001930Y021180D01*
X001930Y021620D01*
X002225Y021620D01*
X002293Y021609D01*
X002359Y021588D01*
X002421Y021556D01*
X002477Y021516D01*
X002526Y021467D01*
X002566Y021411D01*
X002598Y021349D01*
X002619Y021283D01*
X002630Y021215D01*
X002630Y021180D01*
X001930Y021180D01*
X001930Y021180D01*
X001930Y021180D01*
X001930Y021620D01*
X001635Y021620D01*
X001567Y021609D01*
X001501Y021588D01*
X001439Y021556D01*
X001383Y021516D01*
X001334Y021467D01*
X001294Y021411D01*
X001262Y021349D01*
X001241Y021283D01*
X001230Y021215D01*
X001230Y021180D01*
X001930Y021180D01*
X002630Y021180D01*
X002630Y021145D01*
X002619Y021077D01*
X002598Y021011D01*
X002566Y020949D01*
X002526Y020893D01*
X002477Y020844D01*
X002421Y020804D01*
X002415Y020801D01*
X002563Y020740D01*
X002901Y020740D01*
X002886Y020755D01*
X002863Y020796D01*
X002850Y020841D01*
X002850Y021132D01*
X003238Y021132D01*
X003238Y021228D01*
X002850Y021228D01*
X002850Y021519D01*
X002863Y021564D01*
X002886Y021605D01*
X002920Y021639D01*
X002961Y021663D01*
X003007Y021675D01*
X003238Y021675D01*
X003238Y021228D01*
X003334Y021228D01*
X003334Y021675D01*
X003459Y021675D01*
X003479Y021722D01*
X003591Y021834D01*
X003738Y021895D01*
X004409Y021895D01*
X004556Y021834D01*
X004640Y021750D01*
X004756Y021798D01*
X005368Y022410D01*
X005368Y022832D01*
X005292Y022908D01*
X005281Y022936D01*
X005273Y022929D01*
X005206Y022879D01*
X005132Y022842D01*
X005052Y022816D01*
X004970Y022803D01*
X004948Y022803D01*
X004948Y023663D01*
X004908Y023663D01*
X004398Y023663D01*
X004398Y023291D01*
X004411Y023209D01*
X004437Y023129D01*
X004475Y023055D01*
X004524Y022988D01*
X004583Y022929D01*
X004650Y022879D01*
X004725Y022842D01*
X004804Y022816D01*
X004886Y022803D01*
X004908Y022803D01*
X004908Y023663D01*
X004908Y023703D01*
X004908Y024563D01*
X004886Y024563D01*
X004804Y024550D01*
X004725Y024524D01*
X004650Y024486D01*
X004583Y024437D01*
X004524Y024378D01*
X004475Y024311D01*
X004437Y024236D01*
X004411Y024157D01*
X004398Y024075D01*
X004398Y023703D01*
X004908Y023703D01*
X004948Y023703D01*
X004948Y024563D01*
X004970Y024563D01*
X005052Y024550D01*
X005132Y024524D01*
X005206Y024486D01*
X005273Y024437D01*
X005281Y024430D01*
X005292Y024458D01*
X005503Y024669D01*
X005579Y024700D01*
X002310Y024700D01*
X002393Y024678D01*
X002637Y024537D01*
X002837Y024337D01*
X002978Y024093D01*
X003051Y023821D01*
X003051Y023539D01*
X002978Y023267D01*
X002837Y023023D01*
X002637Y022823D01*
X002393Y022682D01*
X002121Y022609D01*
X001839Y022609D01*
X001567Y022682D01*
X001323Y022823D01*
X001123Y023023D01*
X000982Y023267D01*
X000909Y023539D01*
X000909Y023821D01*
X000982Y024093D01*
X000998Y024121D01*
X000893Y023989D01*
X000745Y023682D01*
X000670Y023350D01*
X000660Y023180D01*
X000660Y002680D01*
X000670Y002510D01*
X000745Y002178D01*
X000893Y001871D01*
X000923Y001834D01*
X000909Y001884D01*
X000909Y002166D01*
X000982Y002438D01*
X001123Y002682D01*
X001323Y002882D01*
X001567Y003023D01*
X001839Y003096D01*
X002121Y003096D01*
X002393Y003023D01*
X002637Y002882D01*
X002837Y002682D01*
X002978Y002438D01*
X003051Y002166D01*
X003051Y001884D01*
X002978Y001612D01*
X002837Y001368D01*
X002637Y001168D01*
X002783Y001314D02*
X037792Y001314D01*
X037678Y001473D02*
X002897Y001473D01*
X002983Y001631D02*
X037592Y001631D01*
X037550Y001790D02*
X003025Y001790D01*
X003051Y001948D02*
X037524Y001948D01*
X037524Y002107D02*
X003051Y002107D01*
X003024Y002265D02*
X037551Y002265D01*
X037593Y002424D02*
X002982Y002424D01*
X002895Y002582D02*
X037680Y002582D01*
X037797Y002741D02*
X002778Y002741D01*
X002607Y002899D02*
X037968Y002899D01*
X038312Y003058D02*
X002263Y003058D01*
X001697Y003058D02*
X000660Y003058D01*
X000660Y003216D02*
X052200Y003216D01*
X052200Y003058D02*
X038878Y003058D01*
X039222Y002899D02*
X052200Y002899D01*
X052200Y002741D02*
X039393Y002741D01*
X039510Y002582D02*
X052194Y002582D01*
X052171Y002424D02*
X039597Y002424D01*
X039639Y002265D02*
X052135Y002265D01*
X052080Y002107D02*
X039666Y002107D01*
X039666Y001948D02*
X052004Y001948D01*
X051902Y001790D02*
X039640Y001790D01*
X039598Y001631D02*
X051775Y001631D01*
X051588Y001473D02*
X039512Y001473D01*
X039398Y001314D02*
X051325Y001314D01*
X052200Y003375D02*
X000660Y003375D01*
X000660Y003533D02*
X052200Y003533D01*
X052200Y003692D02*
X000660Y003692D01*
X000660Y003850D02*
X052200Y003850D01*
X052200Y004009D02*
X000660Y004009D01*
X000660Y004167D02*
X052200Y004167D01*
X052200Y004326D02*
X000660Y004326D01*
X000660Y004484D02*
X052200Y004484D01*
X052200Y004643D02*
X000660Y004643D01*
X000660Y004801D02*
X052200Y004801D01*
X052200Y004960D02*
X000660Y004960D01*
X000660Y005118D02*
X052200Y005118D01*
X052200Y005277D02*
X000660Y005277D01*
X000660Y005435D02*
X052200Y005435D01*
X052200Y005594D02*
X000660Y005594D01*
X000660Y005752D02*
X034816Y005752D01*
X034658Y005911D02*
X000660Y005911D01*
X000660Y006069D02*
X034499Y006069D01*
X034341Y006228D02*
X000660Y006228D01*
X000660Y006386D02*
X034182Y006386D01*
X034024Y006545D02*
X000660Y006545D01*
X000660Y006703D02*
X033865Y006703D01*
X033707Y006862D02*
X000660Y006862D01*
X000660Y007020D02*
X033548Y007020D01*
X033390Y007179D02*
X000660Y007179D01*
X000660Y007337D02*
X033231Y007337D01*
X033073Y007496D02*
X000660Y007496D01*
X000660Y007654D02*
X032914Y007654D01*
X032756Y007813D02*
X000660Y007813D01*
X000660Y007971D02*
X032597Y007971D01*
X032439Y008130D02*
X000660Y008130D01*
X000660Y008288D02*
X032280Y008288D01*
X032122Y008447D02*
X000660Y008447D01*
X000660Y008605D02*
X031963Y008605D01*
X031805Y008764D02*
X000660Y008764D01*
X000660Y008922D02*
X031646Y008922D01*
X031488Y009081D02*
X000660Y009081D01*
X000660Y009239D02*
X031403Y009239D01*
X031370Y009398D02*
X000660Y009398D01*
X000660Y009556D02*
X031370Y009556D01*
X031370Y009715D02*
X000660Y009715D01*
X000660Y009873D02*
X031370Y009873D01*
X031370Y010032D02*
X000660Y010032D01*
X000660Y010190D02*
X031370Y010190D01*
X031370Y010349D02*
X000660Y010349D01*
X000660Y010507D02*
X031370Y010507D01*
X031370Y010666D02*
X000660Y010666D01*
X000660Y010824D02*
X031370Y010824D01*
X031370Y010983D02*
X000660Y010983D01*
X000660Y011141D02*
X031370Y011141D01*
X031370Y011300D02*
X000660Y011300D01*
X000660Y011458D02*
X031370Y011458D01*
X031370Y011617D02*
X000660Y011617D01*
X000660Y011775D02*
X031370Y011775D01*
X031370Y011934D02*
X000660Y011934D01*
X000660Y012092D02*
X031370Y012092D01*
X031370Y012251D02*
X000660Y012251D01*
X000660Y012409D02*
X031370Y012409D01*
X031370Y012568D02*
X000660Y012568D01*
X000660Y012726D02*
X031370Y012726D01*
X031370Y012885D02*
X000660Y012885D01*
X000660Y013043D02*
X020302Y013043D01*
X020558Y013043D02*
X031370Y013043D01*
X031370Y013202D02*
X020853Y013202D01*
X020987Y013360D02*
X031370Y013360D01*
X031300Y013519D02*
X021053Y013519D01*
X021067Y013677D02*
X031141Y013677D01*
X030983Y013836D02*
X021056Y013836D01*
X020990Y013994D02*
X030824Y013994D01*
X041407Y011865D02*
X041604Y012062D01*
X041791Y012140D01*
X041970Y012319D01*
X042067Y012553D01*
X042067Y012807D01*
X041990Y012994D01*
X041990Y014948D01*
X042308Y015266D01*
X042390Y015069D01*
X042569Y014890D01*
X042803Y014793D01*
X043057Y014793D01*
X043258Y014876D01*
X044370Y014876D01*
X044370Y013944D01*
X044455Y013738D01*
X044613Y013580D01*
X044819Y013495D01*
X048395Y013495D01*
X049370Y012520D01*
X049435Y012363D01*
X049558Y012240D01*
X049319Y012240D01*
X049113Y012155D01*
X048823Y011865D01*
X048162Y011865D01*
X047372Y012655D01*
X047166Y012740D01*
X044819Y012740D01*
X044613Y012655D01*
X044455Y012497D01*
X043823Y011865D01*
X041407Y011865D01*
X041475Y011934D02*
X043892Y011934D01*
X044050Y012092D02*
X041676Y012092D01*
X041902Y012251D02*
X044209Y012251D01*
X044367Y012409D02*
X042008Y012409D01*
X042067Y012568D02*
X044526Y012568D01*
X044785Y012726D02*
X042067Y012726D01*
X042035Y012885D02*
X049005Y012885D01*
X048847Y013043D02*
X041990Y013043D01*
X041990Y013202D02*
X048688Y013202D01*
X048530Y013360D02*
X041990Y013360D01*
X041990Y013519D02*
X044762Y013519D01*
X044516Y013677D02*
X041990Y013677D01*
X041990Y013836D02*
X044415Y013836D01*
X044370Y013994D02*
X041990Y013994D01*
X041990Y014153D02*
X044370Y014153D01*
X044370Y014311D02*
X041990Y014311D01*
X041990Y014470D02*
X044370Y014470D01*
X044370Y014628D02*
X041990Y014628D01*
X041990Y014787D02*
X044370Y014787D01*
X045490Y014787D02*
X048157Y014787D01*
X048315Y014628D02*
X045490Y014628D01*
X045490Y014615D02*
X045490Y014948D01*
X045565Y015022D01*
X045676Y015291D01*
X045676Y015581D01*
X045660Y015620D01*
X046438Y015620D01*
X046417Y015555D01*
X046404Y015476D01*
X046404Y015454D01*
X046896Y015454D01*
X046896Y015417D01*
X046933Y015417D01*
X046933Y015454D01*
X047424Y015454D01*
X047424Y015476D01*
X047416Y015527D01*
X048328Y014615D01*
X045490Y014615D01*
X045490Y014945D02*
X046775Y014945D01*
X046795Y014938D02*
X046874Y014926D01*
X046896Y014926D01*
X046896Y015417D01*
X046404Y015417D01*
X046404Y015396D01*
X046417Y015316D01*
X046442Y015240D01*
X046478Y015169D01*
X046525Y015104D01*
X046582Y015047D01*
X046647Y015000D01*
X046718Y014963D01*
X046795Y014938D01*
X046896Y014945D02*
X046933Y014945D01*
X046933Y014926D02*
X046954Y014926D01*
X047034Y014938D01*
X047110Y014963D01*
X047182Y015000D01*
X047246Y015047D01*
X047303Y015104D01*
X047350Y015169D01*
X047387Y015240D01*
X047412Y015316D01*
X047424Y015396D01*
X047424Y015417D01*
X046933Y015417D01*
X046933Y014926D01*
X047054Y014945D02*
X047998Y014945D01*
X047840Y015104D02*
X047303Y015104D01*
X047394Y015262D02*
X047681Y015262D01*
X047523Y015421D02*
X046933Y015421D01*
X046896Y015421D02*
X045676Y015421D01*
X045676Y015579D02*
X046425Y015579D01*
X046435Y015262D02*
X045664Y015262D01*
X045598Y015104D02*
X046525Y015104D01*
X046896Y015104D02*
X046933Y015104D01*
X046933Y015262D02*
X046896Y015262D01*
X049579Y017323D02*
X049809Y017323D01*
X049817Y017314D02*
X049822Y017310D01*
X049733Y017273D01*
X049700Y017240D01*
X049662Y017240D01*
X048905Y017997D01*
X048905Y017997D01*
X048747Y018155D01*
X048541Y018240D01*
X044662Y018240D01*
X043420Y019482D01*
X043282Y019620D01*
X046041Y019620D01*
X046247Y019705D01*
X046871Y020329D01*
X046908Y020239D01*
X046955Y020125D01*
X047011Y020070D01*
X048718Y018363D01*
X048718Y018363D01*
X048765Y018316D01*
X048875Y018205D01*
X048875Y018205D01*
X048970Y018166D01*
X049081Y018120D01*
X049081Y018120D01*
X049081Y018120D01*
X049191Y018120D01*
X049304Y018120D01*
X049700Y018120D01*
X049733Y018087D01*
X049822Y018050D01*
X049817Y018046D01*
X049764Y017993D01*
X049719Y017932D01*
X049685Y017864D01*
X049662Y017792D01*
X049650Y017718D01*
X049650Y017700D01*
X050410Y017700D01*
X050410Y017660D01*
X049650Y017660D01*
X049650Y017642D01*
X049662Y017568D01*
X049685Y017496D01*
X049719Y017428D01*
X049764Y017367D01*
X049817Y017314D01*
X049693Y017481D02*
X049421Y017481D01*
X049262Y017640D02*
X049650Y017640D01*
X049664Y017798D02*
X049104Y017798D01*
X048945Y017957D02*
X049738Y017957D01*
X049705Y018115D02*
X048787Y018115D01*
X048875Y018205D02*
X048875Y018205D01*
X048807Y018274D02*
X044628Y018274D01*
X044470Y018432D02*
X048648Y018432D01*
X048490Y018591D02*
X044311Y018591D01*
X044153Y018749D02*
X048332Y018749D01*
X048173Y018908D02*
X043994Y018908D01*
X043836Y019066D02*
X048015Y019066D01*
X047856Y019225D02*
X043677Y019225D01*
X043519Y019383D02*
X047698Y019383D01*
X047539Y019542D02*
X043360Y019542D01*
X044028Y020810D02*
X038718Y020810D01*
X038560Y020968D02*
X040180Y020968D01*
X040682Y020968D02*
X043869Y020968D01*
X044832Y020810D02*
X045768Y020810D01*
X045926Y020968D02*
X044991Y020968D01*
X045149Y021127D02*
X046085Y021127D01*
X046243Y021285D02*
X045308Y021285D01*
X045330Y021444D02*
X046402Y021444D01*
X046530Y021602D02*
X045330Y021602D01*
X045330Y021761D02*
X046530Y021761D01*
X046530Y021919D02*
X045330Y021919D01*
X045305Y022078D02*
X046555Y022078D01*
X046713Y022236D02*
X045147Y022236D01*
X044988Y022395D02*
X046872Y022395D01*
X047030Y022553D02*
X044830Y022553D01*
X044030Y022553D02*
X042641Y022553D01*
X042641Y022395D02*
X043872Y022395D01*
X042641Y022712D02*
X047117Y022712D01*
X048225Y023187D02*
X052200Y023187D01*
X052200Y023029D02*
X048383Y023029D01*
X048542Y022870D02*
X052200Y022870D01*
X052200Y022712D02*
X048700Y022712D01*
X048859Y022553D02*
X052200Y022553D01*
X052200Y022395D02*
X049017Y022395D01*
X049176Y022236D02*
X052200Y022236D01*
X052200Y022078D02*
X049334Y022078D01*
X049493Y021919D02*
X052200Y021919D01*
X052200Y021761D02*
X049651Y021761D01*
X049792Y021602D02*
X052200Y021602D01*
X052200Y021444D02*
X049858Y021444D01*
X049865Y021285D02*
X052200Y021285D01*
X052200Y021127D02*
X049865Y021127D01*
X049865Y020968D02*
X052200Y020968D01*
X052200Y020810D02*
X049865Y020810D01*
X049865Y020651D02*
X052200Y020651D01*
X052200Y020493D02*
X049865Y020493D01*
X049865Y020334D02*
X052200Y020334D01*
X052200Y020176D02*
X049865Y020176D01*
X049865Y020017D02*
X052200Y020017D01*
X052200Y019859D02*
X049921Y019859D01*
X049942Y019700D02*
X052200Y019700D01*
X052200Y019542D02*
X049938Y019542D01*
X049872Y019383D02*
X052200Y019383D01*
X052200Y019225D02*
X051175Y019225D01*
X051328Y019066D02*
X052200Y019066D01*
X052200Y018908D02*
X051393Y018908D01*
X051430Y018749D02*
X052200Y018749D01*
X052200Y018591D02*
X051430Y018591D01*
X051385Y018432D02*
X052200Y018432D01*
X052200Y018274D02*
X051313Y018274D01*
X051155Y018115D02*
X052200Y018115D01*
X052200Y017957D02*
X051122Y017957D01*
X051196Y017798D02*
X052200Y017798D01*
X052200Y017640D02*
X051210Y017640D01*
X051167Y017481D02*
X052200Y017481D01*
X052200Y017323D02*
X051051Y017323D01*
X051236Y017164D02*
X052200Y017164D01*
X052200Y017006D02*
X051353Y017006D01*
X051418Y016847D02*
X052200Y016847D01*
X052200Y016689D02*
X051430Y016689D01*
X051426Y016530D02*
X052200Y016530D01*
X052200Y016372D02*
X051360Y016372D01*
X051253Y016213D02*
X052200Y016213D01*
X052200Y016055D02*
X051333Y016055D01*
X051398Y015896D02*
X052200Y015896D01*
X052200Y015738D02*
X051430Y015738D01*
X051430Y015579D02*
X052200Y015579D01*
X052200Y015421D02*
X051380Y015421D01*
X051302Y015262D02*
X052200Y015262D01*
X052200Y015104D02*
X051296Y015104D01*
X051378Y014945D02*
X052200Y014945D01*
X052200Y014787D02*
X051430Y014787D01*
X051430Y014628D02*
X052200Y014628D01*
X052200Y014470D02*
X051400Y014470D01*
X051335Y014311D02*
X052200Y014311D01*
X052200Y014153D02*
X051247Y014153D01*
X051358Y013994D02*
X052200Y013994D01*
X052200Y013836D02*
X051423Y013836D01*
X051430Y013677D02*
X052200Y013677D01*
X052200Y013519D02*
X051421Y013519D01*
X051355Y013360D02*
X052200Y013360D01*
X052200Y013202D02*
X051241Y013202D01*
X051337Y013043D02*
X052200Y013043D01*
X052200Y012885D02*
X051403Y012885D01*
X051430Y012726D02*
X052200Y012726D01*
X052200Y012568D02*
X051430Y012568D01*
X051375Y012409D02*
X052200Y012409D01*
X052200Y012251D02*
X051290Y012251D01*
X051308Y012092D02*
X052200Y012092D01*
X052200Y011934D02*
X051383Y011934D01*
X051430Y011775D02*
X052200Y011775D01*
X052200Y011617D02*
X051430Y011617D01*
X051396Y011458D02*
X052200Y011458D01*
X052200Y011300D02*
X051330Y011300D01*
X051259Y011141D02*
X052200Y011141D01*
X052200Y010983D02*
X051362Y010983D01*
X051428Y010824D02*
X052200Y010824D01*
X052200Y010666D02*
X051430Y010666D01*
X051416Y010507D02*
X052200Y010507D01*
X052200Y010349D02*
X051350Y010349D01*
X051230Y010190D02*
X052200Y010190D01*
X052200Y010032D02*
X051342Y010032D01*
X051408Y009873D02*
X052200Y009873D01*
X052200Y009715D02*
X051430Y009715D01*
X051430Y009556D02*
X052200Y009556D01*
X052200Y009398D02*
X051371Y009398D01*
X051279Y009239D02*
X052200Y009239D01*
X052200Y009081D02*
X051319Y009081D01*
X051387Y008922D02*
X052200Y008922D01*
X052200Y008764D02*
X051430Y008764D01*
X051430Y008605D02*
X052200Y008605D01*
X052200Y008447D02*
X051391Y008447D01*
X051325Y008288D02*
X052200Y008288D01*
X052200Y008130D02*
X051270Y008130D01*
X051367Y007971D02*
X052200Y007971D01*
X052200Y007813D02*
X051430Y007813D01*
X051430Y007654D02*
X052200Y007654D01*
X052200Y007496D02*
X051411Y007496D01*
X051346Y007337D02*
X052200Y007337D01*
X052200Y007179D02*
X051221Y007179D01*
X051347Y007020D02*
X052200Y007020D01*
X052200Y006862D02*
X051412Y006862D01*
X051430Y006703D02*
X052200Y006703D01*
X052200Y006545D02*
X051430Y006545D01*
X051366Y006386D02*
X052200Y006386D01*
X052200Y006228D02*
X051267Y006228D01*
X051084Y006069D02*
X052200Y006069D01*
X052200Y005911D02*
X049452Y005911D01*
X049611Y006069D02*
X049776Y006069D01*
X049294Y005752D02*
X052200Y005752D01*
X047886Y008928D02*
X045913Y008928D01*
X045983Y008997D01*
X046075Y008997D01*
X046344Y009108D01*
X046549Y009314D01*
X046566Y009354D01*
X046582Y009338D01*
X046647Y009291D01*
X046718Y009255D01*
X046795Y009230D01*
X046874Y009217D01*
X046896Y009217D01*
X046896Y009709D01*
X046933Y009709D01*
X046933Y009746D01*
X047424Y009746D01*
X047424Y009767D01*
X047412Y009847D01*
X047387Y009923D01*
X047350Y009995D01*
X047303Y010059D01*
X047246Y010116D01*
X047182Y010163D01*
X047110Y010200D01*
X047034Y010225D01*
X046954Y010237D01*
X046933Y010237D01*
X046933Y009746D01*
X046896Y009746D01*
X046896Y010237D01*
X046874Y010237D01*
X046795Y010225D01*
X046718Y010200D01*
X046647Y010163D01*
X046582Y010116D01*
X046566Y010100D01*
X046549Y010141D01*
X046344Y010346D01*
X046075Y010457D01*
X045785Y010457D01*
X045516Y010346D01*
X045438Y010267D01*
X045359Y010346D01*
X045091Y010457D01*
X044999Y010457D01*
X045412Y010870D01*
X046573Y010870D01*
X047080Y010363D01*
X047080Y010363D01*
X047238Y010205D01*
X047444Y010120D01*
X049078Y010120D01*
X049071Y010113D01*
X047886Y008928D01*
X048039Y009081D02*
X046276Y009081D01*
X046474Y009239D02*
X046766Y009239D01*
X046896Y009239D02*
X046933Y009239D01*
X046933Y009217D02*
X046954Y009217D01*
X047034Y009230D01*
X047110Y009255D01*
X047182Y009291D01*
X047246Y009338D01*
X047303Y009395D01*
X047350Y009460D01*
X047387Y009531D01*
X047412Y009608D01*
X047424Y009687D01*
X047424Y009709D01*
X046933Y009709D01*
X046933Y009217D01*
X047062Y009239D02*
X048197Y009239D01*
X048356Y009398D02*
X047305Y009398D01*
X047395Y009556D02*
X048514Y009556D01*
X048673Y009715D02*
X046933Y009715D01*
X046933Y009873D02*
X046896Y009873D01*
X046896Y010032D02*
X046933Y010032D01*
X046933Y010190D02*
X046896Y010190D01*
X046699Y010190D02*
X046500Y010190D01*
X046338Y010349D02*
X047095Y010349D01*
X047129Y010190D02*
X047275Y010190D01*
X047324Y010032D02*
X048990Y010032D01*
X048831Y009873D02*
X047403Y009873D01*
X046933Y009556D02*
X046896Y009556D01*
X046896Y009398D02*
X046933Y009398D01*
X045930Y009680D02*
X045930Y009727D01*
X045522Y010349D02*
X045353Y010349D01*
X045049Y010507D02*
X046936Y010507D01*
X046778Y010666D02*
X045207Y010666D01*
X045366Y010824D02*
X046619Y010824D01*
X047935Y012092D02*
X049050Y012092D01*
X048892Y011934D02*
X048093Y011934D01*
X047776Y012251D02*
X049548Y012251D01*
X049416Y012409D02*
X047618Y012409D01*
X047459Y012568D02*
X049322Y012568D01*
X049164Y012726D02*
X047200Y012726D01*
X042513Y014945D02*
X041990Y014945D01*
X042145Y015104D02*
X042375Y015104D01*
X042310Y015262D02*
X042304Y015262D01*
X049304Y018120D02*
X049304Y018120D01*
X047381Y019700D02*
X046235Y019700D01*
X046400Y019859D02*
X047222Y019859D01*
X047064Y020017D02*
X046559Y020017D01*
X046717Y020176D02*
X046934Y020176D01*
X046955Y020125D02*
X046955Y020125D01*
X046955Y020125D01*
X042303Y021127D02*
X040905Y021127D01*
X041010Y021285D02*
X041492Y021285D01*
X041392Y021444D02*
X041068Y021444D01*
X041068Y021602D02*
X041373Y021602D01*
X041370Y021761D02*
X041035Y021761D01*
X040967Y021919D02*
X041373Y021919D01*
X041152Y022078D02*
X040809Y022078D01*
X041032Y022236D02*
X023693Y022236D01*
X023852Y022395D02*
X040999Y022395D01*
X040999Y022553D02*
X023991Y022553D01*
X024054Y022712D02*
X038126Y022712D01*
X037886Y022870D02*
X024054Y022870D01*
X024059Y023029D02*
X037730Y023029D01*
X037638Y023187D02*
X024111Y023187D01*
X024111Y023346D02*
X037571Y023346D01*
X037529Y023504D02*
X024111Y023504D01*
X024111Y023663D02*
X037519Y023663D01*
X037519Y023821D02*
X024045Y023821D01*
X023813Y023980D02*
X037562Y023980D01*
X037618Y024138D02*
X023737Y024138D01*
X023737Y024297D02*
X037710Y024297D01*
X037851Y024455D02*
X023737Y024455D01*
X023688Y024614D02*
X038066Y024614D01*
X039114Y024614D02*
X051184Y024614D01*
X051504Y024455D02*
X041979Y024455D01*
X042050Y024297D02*
X051702Y024297D01*
X051848Y024138D02*
X042050Y024138D01*
X042050Y023980D02*
X051971Y023980D01*
X052048Y023821D02*
X047536Y023821D01*
X047749Y023663D02*
X052119Y023663D01*
X052155Y023504D02*
X047908Y023504D01*
X048066Y023346D02*
X052191Y023346D01*
X041603Y024138D02*
X041507Y024138D01*
X041507Y024297D02*
X041603Y024297D01*
X041603Y024455D02*
X041507Y024455D01*
X041131Y024455D02*
X039329Y024455D01*
X039470Y024297D02*
X041060Y024297D01*
X041060Y024138D02*
X039562Y024138D01*
X039618Y023980D02*
X041060Y023980D01*
X040934Y023821D02*
X039661Y023821D01*
X039661Y023663D02*
X040849Y023663D01*
X040840Y023504D02*
X039651Y023504D01*
X039609Y023346D02*
X040840Y023346D01*
X040840Y023187D02*
X039542Y023187D01*
X039450Y023029D02*
X040840Y023029D01*
X040882Y022870D02*
X039294Y022870D01*
X039054Y022712D02*
X040999Y022712D01*
X041556Y022574D02*
X041555Y022573D01*
X023054Y023011D02*
X022647Y022604D01*
X022506Y022463D01*
X022430Y022279D01*
X022430Y022166D01*
X022388Y022149D01*
X022276Y022037D01*
X022215Y021889D01*
X022215Y021366D01*
X020917Y021366D01*
X020916Y021366D01*
X020805Y021366D01*
X020741Y021366D01*
X020604Y021423D01*
X019488Y022539D01*
X019488Y022712D01*
X019503Y022697D01*
X019779Y022583D01*
X020077Y022583D01*
X020353Y022697D01*
X020465Y022809D01*
X020465Y022596D01*
X020526Y022448D01*
X020638Y022336D01*
X020785Y022275D01*
X021575Y022275D01*
X021722Y022336D01*
X021834Y022448D01*
X021836Y022454D01*
X021964Y022507D01*
X022463Y023006D01*
X022544Y023087D01*
X022579Y023066D01*
X022625Y023054D01*
X022806Y023054D01*
X022987Y023054D01*
X023033Y023066D01*
X023033Y023066D01*
X023054Y023016D01*
X023054Y023011D01*
X023049Y023029D02*
X022486Y023029D01*
X022327Y022870D02*
X022913Y022870D01*
X022806Y023054D02*
X022806Y023411D01*
X022806Y023411D01*
X022806Y023054D01*
X022806Y023187D02*
X022806Y023187D01*
X022806Y023346D02*
X022806Y023346D01*
X022754Y022712D02*
X022169Y022712D01*
X022010Y022553D02*
X022596Y022553D01*
X022478Y022395D02*
X021780Y022395D01*
X022317Y022078D02*
X019949Y022078D01*
X019791Y022236D02*
X022430Y022236D01*
X022227Y021919D02*
X020108Y021919D01*
X020266Y021761D02*
X022215Y021761D01*
X022215Y021602D02*
X020425Y021602D01*
X020583Y021444D02*
X022215Y021444D01*
X020580Y022395D02*
X019632Y022395D01*
X019488Y022553D02*
X020483Y022553D01*
X020465Y022712D02*
X020367Y022712D01*
X019489Y022712D02*
X019488Y022712D01*
X017930Y023681D02*
X017928Y023683D01*
X012350Y020968D02*
X011844Y020968D01*
X011791Y020990D02*
X011569Y020990D01*
X009412Y020990D01*
X008490Y021912D01*
X008490Y022791D01*
X008488Y022796D01*
X008488Y022832D01*
X008564Y022908D01*
X008575Y022936D01*
X008583Y022929D01*
X008650Y022879D01*
X008725Y022842D01*
X008804Y022816D01*
X008886Y022803D01*
X008908Y022803D01*
X008908Y023663D01*
X008948Y023663D01*
X008948Y022803D01*
X008970Y022803D01*
X009052Y022816D01*
X009132Y022842D01*
X009206Y022879D01*
X009273Y022929D01*
X009281Y022936D01*
X009292Y022908D01*
X009368Y022832D01*
X009368Y022071D01*
X009453Y021865D01*
X009955Y021363D01*
X010113Y021205D01*
X010319Y021120D01*
X012198Y021120D01*
X013370Y019948D01*
X013370Y019532D01*
X013247Y019655D01*
X011997Y020905D01*
X011791Y020990D01*
X012092Y020810D02*
X012509Y020810D01*
X012667Y020651D02*
X012251Y020651D01*
X012409Y020493D02*
X012826Y020493D01*
X012984Y020334D02*
X012568Y020334D01*
X012726Y020176D02*
X013143Y020176D01*
X013301Y020017D02*
X012885Y020017D01*
X013043Y019859D02*
X013370Y019859D01*
X013370Y019700D02*
X013202Y019700D01*
X013360Y019542D02*
X013370Y019542D01*
X011370Y018432D02*
X000660Y018432D01*
X000660Y018274D02*
X011370Y018274D01*
X011370Y018115D02*
X000660Y018115D01*
X000660Y017957D02*
X011370Y017957D01*
X011370Y017798D02*
X000660Y017798D01*
X000660Y017640D02*
X011370Y017640D01*
X011370Y017481D02*
X000660Y017481D01*
X000660Y017323D02*
X011370Y017323D01*
X011370Y017164D02*
X000660Y017164D01*
X000660Y017006D02*
X011370Y017006D01*
X011370Y016847D02*
X000660Y016847D01*
X000660Y016689D02*
X011370Y016689D01*
X011370Y016530D02*
X000660Y016530D01*
X000660Y016372D02*
X011370Y016372D01*
X011370Y016213D02*
X000660Y016213D01*
X000660Y016055D02*
X011376Y016055D01*
X011441Y015896D02*
X000660Y015896D01*
X000660Y015738D02*
X011581Y015738D01*
X011739Y015579D02*
X000660Y015579D01*
X000660Y015421D02*
X011898Y015421D01*
X012056Y015262D02*
X000660Y015262D01*
X000660Y015104D02*
X012215Y015104D01*
X012373Y014945D02*
X000660Y014945D01*
X000660Y014787D02*
X012532Y014787D01*
X012690Y014628D02*
X000660Y014628D01*
X000660Y014470D02*
X012849Y014470D01*
X013007Y014311D02*
X000660Y014311D01*
X000660Y014153D02*
X013166Y014153D01*
X013324Y013994D02*
X000660Y013994D01*
X000660Y013836D02*
X013483Y013836D01*
X013641Y013677D02*
X000660Y013677D01*
X000660Y013519D02*
X013800Y013519D01*
X013958Y013360D02*
X000660Y013360D01*
X000660Y013202D02*
X014122Y013202D01*
X011228Y018591D02*
X005173Y018591D01*
X004687Y018591D02*
X002492Y018591D01*
X001368Y018591D02*
X000660Y018591D01*
X000660Y018749D02*
X001168Y018749D01*
X001068Y018908D02*
X000660Y018908D01*
X000660Y019066D02*
X001010Y019066D01*
X001010Y019225D02*
X000660Y019225D01*
X000660Y019383D02*
X001040Y019383D01*
X001105Y019542D02*
X000660Y019542D01*
X000660Y019700D02*
X001217Y019700D01*
X001089Y019859D02*
X000660Y019859D01*
X000660Y020017D02*
X001023Y020017D01*
X001010Y020176D02*
X000660Y020176D01*
X000660Y020334D02*
X001019Y020334D01*
X001085Y020493D02*
X000660Y020493D01*
X000660Y020651D02*
X001208Y020651D01*
X001431Y020810D02*
X000660Y020810D01*
X000660Y020968D02*
X001284Y020968D01*
X001233Y021127D02*
X000660Y021127D01*
X000660Y021285D02*
X001241Y021285D01*
X001318Y021444D02*
X000660Y021444D01*
X000660Y021602D02*
X001545Y021602D01*
X001930Y021602D02*
X001930Y021602D01*
X001930Y021444D02*
X001930Y021444D01*
X001930Y021285D02*
X001930Y021285D01*
X002315Y021602D02*
X002884Y021602D01*
X002850Y021444D02*
X002542Y021444D01*
X002619Y021285D02*
X002850Y021285D01*
X002850Y021127D02*
X002627Y021127D01*
X002576Y020968D02*
X002850Y020968D01*
X002859Y020810D02*
X002429Y020810D01*
X003238Y021285D02*
X003334Y021285D01*
X003334Y021444D02*
X003238Y021444D01*
X003238Y021602D02*
X003334Y021602D01*
X003518Y021761D02*
X000660Y021761D01*
X000660Y021919D02*
X004877Y021919D01*
X005036Y022078D02*
X000660Y022078D01*
X000660Y022236D02*
X005194Y022236D01*
X005353Y022395D02*
X000660Y022395D01*
X000660Y022553D02*
X005368Y022553D01*
X005368Y022712D02*
X002444Y022712D01*
X002684Y022870D02*
X004669Y022870D01*
X004494Y023029D02*
X002840Y023029D01*
X002932Y023187D02*
X004418Y023187D01*
X004398Y023346D02*
X002999Y023346D01*
X003041Y023504D02*
X004398Y023504D01*
X004398Y023663D02*
X003051Y023663D01*
X003051Y023821D02*
X004398Y023821D01*
X004398Y023980D02*
X003008Y023980D01*
X002952Y024138D02*
X004408Y024138D01*
X004468Y024297D02*
X002860Y024297D01*
X002719Y024455D02*
X004608Y024455D01*
X004908Y024455D02*
X004948Y024455D01*
X004948Y024297D02*
X004908Y024297D01*
X004908Y024138D02*
X004948Y024138D01*
X004948Y023980D02*
X004908Y023980D01*
X004908Y023821D02*
X004948Y023821D01*
X004948Y023663D02*
X004908Y023663D01*
X004908Y023504D02*
X004948Y023504D01*
X004948Y023346D02*
X004908Y023346D01*
X004908Y023187D02*
X004948Y023187D01*
X004948Y023029D02*
X004908Y023029D01*
X004908Y022870D02*
X004948Y022870D01*
X005187Y022870D02*
X005330Y022870D01*
X006928Y023683D02*
X006930Y023681D01*
X008353Y024669D02*
X008564Y024458D01*
X008575Y024430D01*
X008583Y024437D01*
X008650Y024486D01*
X008725Y024524D01*
X008804Y024550D01*
X008886Y024563D01*
X008908Y024563D01*
X008908Y023703D01*
X008948Y023703D01*
X008948Y024563D01*
X008970Y024563D01*
X009052Y024550D01*
X009132Y024524D01*
X009206Y024486D01*
X009273Y024437D01*
X009281Y024430D01*
X009292Y024458D01*
X009503Y024669D01*
X009579Y024700D01*
X008277Y024700D01*
X008353Y024669D01*
X008408Y024614D02*
X009448Y024614D01*
X009291Y024455D02*
X009249Y024455D01*
X008948Y024455D02*
X008908Y024455D01*
X008908Y024297D02*
X008948Y024297D01*
X008948Y024138D02*
X008908Y024138D01*
X008908Y023980D02*
X008948Y023980D01*
X008948Y023821D02*
X008908Y023821D01*
X008908Y023663D02*
X008948Y023663D01*
X008948Y023504D02*
X008908Y023504D01*
X008908Y023346D02*
X008948Y023346D01*
X008948Y023187D02*
X008908Y023187D01*
X008908Y023029D02*
X008948Y023029D01*
X008948Y022870D02*
X008908Y022870D01*
X008669Y022870D02*
X008526Y022870D01*
X008490Y022712D02*
X009368Y022712D01*
X009368Y022553D02*
X008490Y022553D01*
X008490Y022395D02*
X009368Y022395D01*
X009368Y022236D02*
X008490Y022236D01*
X008490Y022078D02*
X009368Y022078D01*
X009431Y021919D02*
X008490Y021919D01*
X008641Y021761D02*
X009558Y021761D01*
X009716Y021602D02*
X008800Y021602D01*
X008958Y021444D02*
X009875Y021444D01*
X010033Y021285D02*
X009117Y021285D01*
X009275Y021127D02*
X010303Y021127D01*
X007930Y022680D02*
X007928Y022682D01*
X009187Y022870D02*
X009330Y022870D01*
X008608Y024455D02*
X008565Y024455D01*
X005448Y024614D02*
X002504Y024614D01*
X000952Y023980D02*
X000889Y023980D01*
X000909Y023821D02*
X000812Y023821D01*
X000741Y023663D02*
X000909Y023663D01*
X000919Y023504D02*
X000705Y023504D01*
X000669Y023346D02*
X000961Y023346D01*
X001028Y023187D02*
X000660Y023187D01*
X000660Y023029D02*
X001120Y023029D01*
X001276Y022870D02*
X000660Y022870D01*
X000660Y022712D02*
X001516Y022712D01*
X004630Y021761D02*
X004666Y021761D01*
X005249Y024455D02*
X005291Y024455D01*
X001353Y002899D02*
X000660Y002899D01*
X000660Y002741D02*
X001182Y002741D01*
X001065Y002582D02*
X000666Y002582D01*
X000689Y002424D02*
X000978Y002424D01*
X000936Y002265D02*
X000725Y002265D01*
X000780Y002107D02*
X000909Y002107D01*
X000909Y001948D02*
X000856Y001948D01*
D21*
X014430Y013680D02*
X020430Y013680D01*
X015930Y015680D02*
X031930Y015680D01*
X032930Y014680D01*
X032930Y010180D01*
X036180Y006930D01*
X048680Y006930D01*
X049430Y007680D01*
X050430Y007680D01*
X050430Y006680D02*
X049430Y006680D01*
X048930Y006180D01*
X035180Y006180D01*
X031930Y009430D01*
X031930Y013680D01*
X030930Y014680D01*
X014930Y014680D01*
X012930Y016680D01*
X012930Y019180D01*
X011680Y020430D01*
X009180Y020430D01*
X007930Y021680D01*
X007930Y022680D01*
X007928Y022682D02*
X007928Y023683D01*
X006930Y023681D02*
X006930Y021680D01*
X005430Y020180D01*
X001930Y020180D01*
X001930Y019180D02*
X004930Y019180D01*
X011430Y019180D01*
X011930Y018680D01*
X011930Y016180D01*
X014430Y013680D01*
X015930Y015680D02*
X013930Y017680D01*
X013930Y020180D01*
X012430Y021680D01*
X010430Y021680D01*
X009928Y022182D01*
X009928Y023683D01*
X005928Y023683D02*
X005928Y022178D01*
X004930Y021180D01*
X004074Y021180D01*
X014928Y018682D02*
X016930Y016680D01*
X032930Y016680D01*
X033930Y015680D01*
X033930Y010805D01*
X037055Y007680D01*
X048430Y007680D01*
X049430Y008680D01*
X050430Y008680D01*
X050430Y009680D02*
X049430Y009680D01*
X048117Y008368D01*
X037730Y008368D01*
X036470Y009627D01*
X036430Y009680D01*
X034930Y011180D01*
X034930Y016680D01*
X033930Y017680D01*
X017930Y017680D01*
X015928Y019682D01*
X015928Y023683D01*
X014928Y023683D02*
X014928Y018682D01*
X016928Y020682D02*
X018930Y018680D01*
X034930Y018680D01*
X035930Y017680D01*
X035930Y011680D01*
X036930Y010680D01*
X044430Y010680D01*
X045180Y011430D01*
X046805Y011430D01*
X047555Y010680D01*
X050430Y010680D01*
X049430Y011680D02*
X049055Y011305D01*
X047930Y011305D01*
X047055Y012180D01*
X044930Y012180D01*
X044055Y011305D01*
X037805Y011305D01*
X037180Y011930D01*
X037180Y018430D01*
X035930Y019680D01*
X019680Y019680D01*
X017930Y021430D01*
X017930Y023681D01*
X018928Y023683D02*
X018928Y022307D01*
X020430Y020805D01*
X020806Y020806D01*
X022930Y020806D01*
X037930Y020806D01*
X038556Y020180D01*
X038680Y020180D01*
X038556Y020056D01*
X038556Y015180D01*
X038556Y013680D01*
X038556Y012180D01*
X039304Y012180D02*
X039554Y011930D01*
X040680Y011930D01*
X041430Y012680D01*
X041430Y015180D01*
X042430Y016180D01*
X047555Y016180D01*
X049055Y014680D01*
X050430Y014680D01*
X049680Y013680D02*
X049305Y014055D01*
X049680Y013680D02*
X050430Y013680D01*
X050430Y012680D02*
X049910Y012680D01*
X049430Y011680D02*
X050430Y011680D01*
X048535Y014055D02*
X044930Y014055D01*
X044930Y015436D01*
X044946Y015436D02*
X043174Y015436D01*
X042930Y015430D01*
X042055Y016805D02*
X040430Y015180D01*
X040430Y013930D01*
X040180Y013680D01*
X039304Y013680D01*
X040180Y013680D02*
X040430Y013430D01*
X040430Y012680D01*
X039304Y015180D02*
X039304Y015304D01*
X041680Y017680D01*
X042930Y017680D01*
X042945Y019165D02*
X044430Y017680D01*
X048430Y017680D01*
X049430Y016680D01*
X050430Y016680D01*
X050430Y015680D02*
X049305Y015680D01*
X048180Y016805D01*
X042055Y016805D01*
X042945Y019165D02*
X040430Y019165D01*
X038680Y020180D02*
X045930Y020180D01*
X047430Y021680D01*
X047430Y020443D01*
X049192Y018680D01*
X050430Y018680D01*
X049305Y019680D02*
X049305Y021315D01*
X047313Y023308D01*
X041557Y023308D01*
X041930Y021747D02*
X042363Y021747D01*
X042430Y021680D01*
X044430Y021680D01*
X040431Y021554D02*
X022930Y021554D01*
X021180Y023679D02*
X021176Y023683D01*
X016928Y023683D02*
X016928Y020682D01*
X040430Y009930D02*
X040430Y009002D01*
X045253Y009002D01*
X044946Y009727D02*
X042383Y009727D01*
X042168Y009942D01*
X041430Y009942D01*
D22*
X045253Y009002D02*
X045930Y009680D01*
X041555Y022573D02*
X041555Y023306D01*
X041557Y023308D01*
X021176Y023683D02*
X019928Y023683D01*
X007930Y023180D02*
X007930Y022680D01*
D23*
X048535Y014055D02*
X049910Y012680D01*
M02*
